G04 #@! TF.GenerationSoftware,KiCad,Pcbnew,5.0.2-bee76a0~70~ubuntu16.04.1*
G04 #@! TF.CreationDate,2019-02-25T16:09:05-05:00*
G04 #@! TF.ProjectId,ant1,616e7431-2e6b-4696-9361-645f70636258,rev?*
G04 #@! TF.SameCoordinates,Original*
G04 #@! TF.FileFunction,Legend,Bot*
G04 #@! TF.FilePolarity,Positive*
%FSLAX46Y46*%
G04 Gerber Fmt 4.6, Leading zero omitted, Abs format (unit mm)*
G04 Created by KiCad (PCBNEW 5.0.2-bee76a0~70~ubuntu16.04.1) date Mon 25 Feb 2019 04:09:05 PM EST*
%MOMM*%
%LPD*%
G01*
G04 APERTURE LIST*
%ADD10C,0.127000*%
%ADD11C,0.300000*%
G04 APERTURE END LIST*
D10*
X181398333Y-79604809D02*
X181398333Y-79096809D01*
X181108047Y-79604809D01*
X181108047Y-79096809D01*
X180866142Y-79604809D02*
X180866142Y-79266142D01*
X180866142Y-79096809D02*
X180890333Y-79121000D01*
X180866142Y-79145190D01*
X180841952Y-79121000D01*
X180866142Y-79096809D01*
X180866142Y-79145190D01*
X180624238Y-79604809D02*
X180624238Y-79096809D01*
X180575857Y-79411285D02*
X180430714Y-79604809D01*
X180430714Y-79266142D02*
X180624238Y-79459666D01*
X180140428Y-79604809D02*
X180188809Y-79580619D01*
X180213000Y-79556428D01*
X180237190Y-79508047D01*
X180237190Y-79362904D01*
X180213000Y-79314523D01*
X180188809Y-79290333D01*
X180140428Y-79266142D01*
X180067857Y-79266142D01*
X180019476Y-79290333D01*
X179995285Y-79314523D01*
X179971095Y-79362904D01*
X179971095Y-79508047D01*
X179995285Y-79556428D01*
X180019476Y-79580619D01*
X180067857Y-79604809D01*
X180140428Y-79604809D01*
X179680809Y-79604809D02*
X179729190Y-79580619D01*
X179753380Y-79532238D01*
X179753380Y-79096809D01*
X179269571Y-79604809D02*
X179269571Y-79338714D01*
X179293761Y-79290333D01*
X179342142Y-79266142D01*
X179438904Y-79266142D01*
X179487285Y-79290333D01*
X179269571Y-79580619D02*
X179317952Y-79604809D01*
X179438904Y-79604809D01*
X179487285Y-79580619D01*
X179511476Y-79532238D01*
X179511476Y-79483857D01*
X179487285Y-79435476D01*
X179438904Y-79411285D01*
X179317952Y-79411285D01*
X179269571Y-79387095D01*
X178495476Y-79096809D02*
X178495476Y-79459666D01*
X178519666Y-79532238D01*
X178568047Y-79580619D01*
X178640619Y-79604809D01*
X178689000Y-79604809D01*
X178035857Y-79604809D02*
X178035857Y-79338714D01*
X178060047Y-79290333D01*
X178108428Y-79266142D01*
X178205190Y-79266142D01*
X178253571Y-79290333D01*
X178035857Y-79580619D02*
X178084238Y-79604809D01*
X178205190Y-79604809D01*
X178253571Y-79580619D01*
X178277761Y-79532238D01*
X178277761Y-79483857D01*
X178253571Y-79435476D01*
X178205190Y-79411285D01*
X178084238Y-79411285D01*
X178035857Y-79387095D01*
X177793952Y-79266142D02*
X177793952Y-79604809D01*
X177793952Y-79314523D02*
X177769761Y-79290333D01*
X177721380Y-79266142D01*
X177648809Y-79266142D01*
X177600428Y-79290333D01*
X177576238Y-79338714D01*
X177576238Y-79604809D01*
X177334333Y-79266142D02*
X177334333Y-79701571D01*
X177358523Y-79749952D01*
X177406904Y-79774142D01*
X177431095Y-79774142D01*
X177334333Y-79096809D02*
X177358523Y-79121000D01*
X177334333Y-79145190D01*
X177310142Y-79121000D01*
X177334333Y-79096809D01*
X177334333Y-79145190D01*
X176874714Y-79266142D02*
X176874714Y-79604809D01*
X177092428Y-79266142D02*
X177092428Y-79532238D01*
X177068238Y-79580619D01*
X177019857Y-79604809D01*
X176947285Y-79604809D01*
X176898904Y-79580619D01*
X176874714Y-79556428D01*
X176657000Y-79580619D02*
X176608619Y-79604809D01*
X176511857Y-79604809D01*
X176463476Y-79580619D01*
X176439285Y-79532238D01*
X176439285Y-79508047D01*
X176463476Y-79459666D01*
X176511857Y-79435476D01*
X176584428Y-79435476D01*
X176632809Y-79411285D01*
X176657000Y-79362904D01*
X176657000Y-79338714D01*
X176632809Y-79290333D01*
X176584428Y-79266142D01*
X176511857Y-79266142D01*
X176463476Y-79290333D01*
X176028047Y-79580619D02*
X176076428Y-79604809D01*
X176173190Y-79604809D01*
X176221571Y-79580619D01*
X176245761Y-79532238D01*
X176245761Y-79338714D01*
X176221571Y-79290333D01*
X176173190Y-79266142D01*
X176076428Y-79266142D01*
X176028047Y-79290333D01*
X176003857Y-79338714D01*
X176003857Y-79387095D01*
X176245761Y-79435476D01*
X175834523Y-79266142D02*
X175713571Y-79604809D01*
X175592619Y-79266142D01*
X175399095Y-79604809D02*
X175399095Y-79266142D01*
X175399095Y-79096809D02*
X175423285Y-79121000D01*
X175399095Y-79145190D01*
X175374904Y-79121000D01*
X175399095Y-79096809D01*
X175399095Y-79145190D01*
X174939476Y-79580619D02*
X174987857Y-79604809D01*
X175084619Y-79604809D01*
X175133000Y-79580619D01*
X175157190Y-79556428D01*
X175181380Y-79508047D01*
X175181380Y-79362904D01*
X175157190Y-79314523D01*
X175133000Y-79290333D01*
X175084619Y-79266142D01*
X174987857Y-79266142D01*
X174939476Y-79290333D01*
D11*
X179684142Y-75592714D02*
X179755571Y-75664142D01*
X179969857Y-75735571D01*
X180112714Y-75735571D01*
X180327000Y-75664142D01*
X180469857Y-75521285D01*
X180541285Y-75378428D01*
X180612714Y-75092714D01*
X180612714Y-74878428D01*
X180541285Y-74592714D01*
X180469857Y-74449857D01*
X180327000Y-74307000D01*
X180112714Y-74235571D01*
X179969857Y-74235571D01*
X179755571Y-74307000D01*
X179684142Y-74378428D01*
X179041285Y-75735571D02*
X179041285Y-74235571D01*
X178398428Y-75735571D02*
X178398428Y-74949857D01*
X178469857Y-74807000D01*
X178612714Y-74735571D01*
X178827000Y-74735571D01*
X178969857Y-74807000D01*
X179041285Y-74878428D01*
X177684142Y-75735571D02*
X177684142Y-74735571D01*
X177684142Y-74235571D02*
X177755571Y-74307000D01*
X177684142Y-74378428D01*
X177612714Y-74307000D01*
X177684142Y-74235571D01*
X177684142Y-74378428D01*
X176969857Y-74735571D02*
X176969857Y-76235571D01*
X176969857Y-74807000D02*
X176827000Y-74735571D01*
X176541285Y-74735571D01*
X176398428Y-74807000D01*
X176327000Y-74878428D01*
X176255571Y-75021285D01*
X176255571Y-75449857D01*
X176327000Y-75592714D01*
X176398428Y-75664142D01*
X176541285Y-75735571D01*
X176827000Y-75735571D01*
X176969857Y-75664142D01*
X174541285Y-75307000D02*
X173827000Y-75307000D01*
X174684142Y-75735571D02*
X174184142Y-74235571D01*
X173684142Y-75735571D01*
X173184142Y-74735571D02*
X173184142Y-75735571D01*
X173184142Y-74878428D02*
X173112714Y-74807000D01*
X172969857Y-74735571D01*
X172755571Y-74735571D01*
X172612714Y-74807000D01*
X172541285Y-74949857D01*
X172541285Y-75735571D01*
X172041285Y-74735571D02*
X171469857Y-74735571D01*
X171827000Y-74235571D02*
X171827000Y-75521285D01*
X171755571Y-75664142D01*
X171612714Y-75735571D01*
X171469857Y-75735571D01*
X170398428Y-75664142D02*
X170541285Y-75735571D01*
X170827000Y-75735571D01*
X170969857Y-75664142D01*
X171041285Y-75521285D01*
X171041285Y-74949857D01*
X170969857Y-74807000D01*
X170827000Y-74735571D01*
X170541285Y-74735571D01*
X170398428Y-74807000D01*
X170327000Y-74949857D01*
X170327000Y-75092714D01*
X171041285Y-75235571D01*
X169684142Y-74735571D02*
X169684142Y-75735571D01*
X169684142Y-74878428D02*
X169612714Y-74807000D01*
X169469857Y-74735571D01*
X169255571Y-74735571D01*
X169112714Y-74807000D01*
X169041285Y-74949857D01*
X169041285Y-75735571D01*
X168327000Y-74735571D02*
X168327000Y-75735571D01*
X168327000Y-74878428D02*
X168255571Y-74807000D01*
X168112714Y-74735571D01*
X167898428Y-74735571D01*
X167755571Y-74807000D01*
X167684142Y-74949857D01*
X167684142Y-75735571D01*
X166327000Y-75735571D02*
X166327000Y-74949857D01*
X166398428Y-74807000D01*
X166541285Y-74735571D01*
X166827000Y-74735571D01*
X166969857Y-74807000D01*
X166327000Y-75664142D02*
X166469857Y-75735571D01*
X166827000Y-75735571D01*
X166969857Y-75664142D01*
X167041285Y-75521285D01*
X167041285Y-75378428D01*
X166969857Y-75235571D01*
X166827000Y-75164142D01*
X166469857Y-75164142D01*
X166327000Y-75092714D01*
X164612714Y-74735571D02*
X164255571Y-75735571D01*
X163898428Y-74735571D01*
X163398428Y-74378428D02*
X163327000Y-74307000D01*
X163184142Y-74235571D01*
X162827000Y-74235571D01*
X162684142Y-74307000D01*
X162612714Y-74378428D01*
X162541285Y-74521285D01*
X162541285Y-74664142D01*
X162612714Y-74878428D01*
X163469857Y-75735571D01*
X162541285Y-75735571D01*
X175374904Y-68840047D02*
X176221571Y-67630523D01*
X176826333Y-68840047D02*
X176826333Y-66300047D01*
X175858714Y-66300047D01*
X175616809Y-66421000D01*
X175495857Y-66541952D01*
X175374904Y-66783857D01*
X175374904Y-67146714D01*
X175495857Y-67388619D01*
X175616809Y-67509571D01*
X175858714Y-67630523D01*
X176826333Y-67630523D01*
X174528238Y-66300047D02*
X172955857Y-66300047D01*
X173802523Y-67267666D01*
X173439666Y-67267666D01*
X173197761Y-67388619D01*
X173076809Y-67509571D01*
X172955857Y-67751476D01*
X172955857Y-68356238D01*
X173076809Y-68598142D01*
X173197761Y-68719095D01*
X173439666Y-68840047D01*
X174165380Y-68840047D01*
X174407285Y-68719095D01*
X174528238Y-68598142D01*
X170415857Y-68598142D02*
X170536809Y-68719095D01*
X170899666Y-68840047D01*
X171141571Y-68840047D01*
X171504428Y-68719095D01*
X171746333Y-68477190D01*
X171867285Y-68235285D01*
X171988238Y-67751476D01*
X171988238Y-67388619D01*
X171867285Y-66904809D01*
X171746333Y-66662904D01*
X171504428Y-66421000D01*
X171141571Y-66300047D01*
X170899666Y-66300047D01*
X170536809Y-66421000D01*
X170415857Y-66541952D01*
X169448238Y-68114333D02*
X168238714Y-68114333D01*
X169690142Y-68840047D02*
X168843476Y-66300047D01*
X167996809Y-68840047D01*
X167150142Y-68840047D02*
X167150142Y-66300047D01*
X166182523Y-66300047D01*
X165940619Y-66421000D01*
X165819666Y-66541952D01*
X165698714Y-66783857D01*
X165698714Y-67146714D01*
X165819666Y-67388619D01*
X165940619Y-67509571D01*
X166182523Y-67630523D01*
X167150142Y-67630523D01*
M02*
