G04 #@! TF.GenerationSoftware,KiCad,Pcbnew,5.0.2-bee76a0~70~ubuntu16.04.1*
G04 #@! TF.CreationDate,2019-02-25T16:09:05-05:00*
G04 #@! TF.ProjectId,ant1,616e7431-2e6b-4696-9361-645f70636258,rev?*
G04 #@! TF.SameCoordinates,Original*
G04 #@! TF.FileFunction,Copper,L1,Top*
G04 #@! TF.FilePolarity,Positive*
%FSLAX46Y46*%
G04 Gerber Fmt 4.6, Leading zero omitted, Abs format (unit mm)*
G04 Created by KiCad (PCBNEW 5.0.2-bee76a0~70~ubuntu16.04.1) date Mon 25 Feb 2019 04:09:05 PM EST*
%MOMM*%
%LPD*%
G01*
G04 APERTURE LIST*
G04 #@! TA.AperFunction,EtchedComponent*
%ADD10C,0.000010*%
G04 #@! TD*
G04 #@! TA.AperFunction,SMDPad,CuDef*
%ADD11R,5.000000X3.000000*%
G04 #@! TD*
G04 #@! TA.AperFunction,SMDPad,CuDef*
%ADD12R,5.000000X2.500000*%
G04 #@! TD*
G04 #@! TA.AperFunction,SMDPad,CuDef*
%ADD13C,1.000000*%
G04 #@! TD*
G04 #@! TA.AperFunction,Conductor*
%ADD14C,0.100000*%
G04 #@! TD*
G04 #@! TA.AperFunction,SMDPad,CuDef*
%ADD15C,0.590000*%
G04 #@! TD*
G04 #@! TA.AperFunction,ViaPad*
%ADD16C,0.685800*%
G04 #@! TD*
G04 #@! TA.AperFunction,Conductor*
%ADD17C,0.279400*%
G04 #@! TD*
G04 #@! TA.AperFunction,Conductor*
%ADD18C,0.127000*%
G04 #@! TD*
G04 APERTURE END LIST*
D10*
G04 #@! TO.C,AE1*
G36*
X177780918Y-67122560D02*
X178134471Y-66769006D01*
X181740716Y-70375251D01*
X181387162Y-70728804D01*
X177780918Y-67122560D01*
G37*
X177780918Y-67122560D02*
X178134471Y-66769006D01*
X181740716Y-70375251D01*
X181387162Y-70728804D01*
X177780918Y-67122560D01*
G36*
X181387162Y-70728804D02*
X181033609Y-70375251D01*
X176366704Y-75042156D01*
X176720257Y-75395709D01*
X181387162Y-70728804D01*
G37*
X181387162Y-70728804D02*
X181033609Y-70375251D01*
X176366704Y-75042156D01*
X176720257Y-75395709D01*
X181387162Y-70728804D01*
G36*
X174952490Y-73627942D02*
X176366704Y-75042156D01*
X176720257Y-74688602D01*
X175306044Y-73274389D01*
X174952490Y-73627942D01*
G37*
X174952490Y-73627942D02*
X176366704Y-75042156D01*
X176720257Y-74688602D01*
X175306044Y-73274389D01*
X174952490Y-73627942D01*
G04 #@! TD*
D11*
G04 #@! TO.P,J1,1*
G04 #@! TO.N,GND*
X163000000Y-71400000D03*
G04 #@! TO.P,J1,2*
X163000000Y-78900000D03*
D12*
G04 #@! TO.P,J1,5*
G04 #@! TO.N,Net-(J1-Pad1)*
X163000000Y-75150000D03*
G04 #@! TD*
D13*
G04 #@! TO.P,AE1,1*
G04 #@! TO.N,Net-(AE1-Pad1)*
X172194774Y-71435911D03*
D14*
G04 #@! TD*
G04 #@! TO.N,Net-(AE1-Pad1)*
G04 #@! TO.C,AE1*
G36*
X172477617Y-72425860D02*
X171204825Y-71153068D01*
X171911931Y-70445962D01*
X173184723Y-71718754D01*
X172477617Y-72425860D01*
X172477617Y-72425860D01*
G37*
D13*
G04 #@! TO.P,AE1,2*
G04 #@! TO.N,N/C*
X177144521Y-66486164D03*
D14*
G04 #@! TD*
G04 #@! TO.N,N/C*
G04 #@! TO.C,AE1*
G36*
X177427364Y-67476113D02*
X176154572Y-66203321D01*
X176861678Y-65496215D01*
X178134470Y-66769007D01*
X177427364Y-67476113D01*
X177427364Y-67476113D01*
G37*
G04 #@! TO.N,Net-(J1-Pad1)*
G04 #@! TO.C,R1*
G36*
X168560561Y-74750409D02*
X168574879Y-74752533D01*
X168588920Y-74756050D01*
X168602549Y-74760927D01*
X168615634Y-74767116D01*
X168628050Y-74774557D01*
X168639676Y-74783180D01*
X168650401Y-74792901D01*
X168858997Y-75001497D01*
X168868718Y-75012222D01*
X168877341Y-75023848D01*
X168884782Y-75036264D01*
X168890971Y-75049349D01*
X168895848Y-75062978D01*
X168899365Y-75077019D01*
X168901489Y-75091337D01*
X168902199Y-75105795D01*
X168901489Y-75120253D01*
X168899365Y-75134571D01*
X168895848Y-75148612D01*
X168890971Y-75162241D01*
X168884782Y-75175326D01*
X168877341Y-75187742D01*
X168868718Y-75199368D01*
X168858997Y-75210093D01*
X168615045Y-75454045D01*
X168604320Y-75463766D01*
X168592694Y-75472389D01*
X168580278Y-75479830D01*
X168567193Y-75486019D01*
X168553564Y-75490896D01*
X168539523Y-75494413D01*
X168525205Y-75496537D01*
X168510747Y-75497247D01*
X168496289Y-75496537D01*
X168481971Y-75494413D01*
X168467930Y-75490896D01*
X168454301Y-75486019D01*
X168441216Y-75479830D01*
X168428800Y-75472389D01*
X168417174Y-75463766D01*
X168406449Y-75454045D01*
X168197853Y-75245449D01*
X168188132Y-75234724D01*
X168179509Y-75223098D01*
X168172068Y-75210682D01*
X168165879Y-75197597D01*
X168161002Y-75183968D01*
X168157485Y-75169927D01*
X168155361Y-75155609D01*
X168154651Y-75141151D01*
X168155361Y-75126693D01*
X168157485Y-75112375D01*
X168161002Y-75098334D01*
X168165879Y-75084705D01*
X168172068Y-75071620D01*
X168179509Y-75059204D01*
X168188132Y-75047578D01*
X168197853Y-75036853D01*
X168441805Y-74792901D01*
X168452530Y-74783180D01*
X168464156Y-74774557D01*
X168476572Y-74767116D01*
X168489657Y-74760927D01*
X168503286Y-74756050D01*
X168517327Y-74752533D01*
X168531645Y-74750409D01*
X168546103Y-74749699D01*
X168560561Y-74750409D01*
X168560561Y-74750409D01*
G37*
D15*
G04 #@! TD*
G04 #@! TO.P,R1,1*
G04 #@! TO.N,Net-(J1-Pad1)*
X168528425Y-75123473D03*
D14*
G04 #@! TO.N,GND*
G04 #@! TO.C,R1*
G36*
X169246455Y-75436303D02*
X169260773Y-75438427D01*
X169274814Y-75441944D01*
X169288443Y-75446821D01*
X169301528Y-75453010D01*
X169313944Y-75460451D01*
X169325570Y-75469074D01*
X169336295Y-75478795D01*
X169544891Y-75687391D01*
X169554612Y-75698116D01*
X169563235Y-75709742D01*
X169570676Y-75722158D01*
X169576865Y-75735243D01*
X169581742Y-75748872D01*
X169585259Y-75762913D01*
X169587383Y-75777231D01*
X169588093Y-75791689D01*
X169587383Y-75806147D01*
X169585259Y-75820465D01*
X169581742Y-75834506D01*
X169576865Y-75848135D01*
X169570676Y-75861220D01*
X169563235Y-75873636D01*
X169554612Y-75885262D01*
X169544891Y-75895987D01*
X169300939Y-76139939D01*
X169290214Y-76149660D01*
X169278588Y-76158283D01*
X169266172Y-76165724D01*
X169253087Y-76171913D01*
X169239458Y-76176790D01*
X169225417Y-76180307D01*
X169211099Y-76182431D01*
X169196641Y-76183141D01*
X169182183Y-76182431D01*
X169167865Y-76180307D01*
X169153824Y-76176790D01*
X169140195Y-76171913D01*
X169127110Y-76165724D01*
X169114694Y-76158283D01*
X169103068Y-76149660D01*
X169092343Y-76139939D01*
X168883747Y-75931343D01*
X168874026Y-75920618D01*
X168865403Y-75908992D01*
X168857962Y-75896576D01*
X168851773Y-75883491D01*
X168846896Y-75869862D01*
X168843379Y-75855821D01*
X168841255Y-75841503D01*
X168840545Y-75827045D01*
X168841255Y-75812587D01*
X168843379Y-75798269D01*
X168846896Y-75784228D01*
X168851773Y-75770599D01*
X168857962Y-75757514D01*
X168865403Y-75745098D01*
X168874026Y-75733472D01*
X168883747Y-75722747D01*
X169127699Y-75478795D01*
X169138424Y-75469074D01*
X169150050Y-75460451D01*
X169162466Y-75453010D01*
X169175551Y-75446821D01*
X169189180Y-75441944D01*
X169203221Y-75438427D01*
X169217539Y-75436303D01*
X169231997Y-75435593D01*
X169246455Y-75436303D01*
X169246455Y-75436303D01*
G37*
D15*
G04 #@! TD*
G04 #@! TO.P,R1,2*
G04 #@! TO.N,GND*
X169214319Y-75809367D03*
D14*
G04 #@! TO.N,Net-(AE1-Pad1)*
G04 #@! TO.C,R2*
G36*
X169988917Y-73265485D02*
X170003235Y-73267609D01*
X170017276Y-73271126D01*
X170030905Y-73276003D01*
X170043990Y-73282192D01*
X170056406Y-73289633D01*
X170068032Y-73298256D01*
X170078757Y-73307977D01*
X170322709Y-73551929D01*
X170332430Y-73562654D01*
X170341053Y-73574280D01*
X170348494Y-73586696D01*
X170354683Y-73599781D01*
X170359560Y-73613410D01*
X170363077Y-73627451D01*
X170365201Y-73641769D01*
X170365911Y-73656227D01*
X170365201Y-73670685D01*
X170363077Y-73685003D01*
X170359560Y-73699044D01*
X170354683Y-73712673D01*
X170348494Y-73725758D01*
X170341053Y-73738174D01*
X170332430Y-73749800D01*
X170322709Y-73760525D01*
X170114113Y-73969121D01*
X170103388Y-73978842D01*
X170091762Y-73987465D01*
X170079346Y-73994906D01*
X170066261Y-74001095D01*
X170052632Y-74005972D01*
X170038591Y-74009489D01*
X170024273Y-74011613D01*
X170009815Y-74012323D01*
X169995357Y-74011613D01*
X169981039Y-74009489D01*
X169966998Y-74005972D01*
X169953369Y-74001095D01*
X169940284Y-73994906D01*
X169927868Y-73987465D01*
X169916242Y-73978842D01*
X169905517Y-73969121D01*
X169661565Y-73725169D01*
X169651844Y-73714444D01*
X169643221Y-73702818D01*
X169635780Y-73690402D01*
X169629591Y-73677317D01*
X169624714Y-73663688D01*
X169621197Y-73649647D01*
X169619073Y-73635329D01*
X169618363Y-73620871D01*
X169619073Y-73606413D01*
X169621197Y-73592095D01*
X169624714Y-73578054D01*
X169629591Y-73564425D01*
X169635780Y-73551340D01*
X169643221Y-73538924D01*
X169651844Y-73527298D01*
X169661565Y-73516573D01*
X169870161Y-73307977D01*
X169880886Y-73298256D01*
X169892512Y-73289633D01*
X169904928Y-73282192D01*
X169918013Y-73276003D01*
X169931642Y-73271126D01*
X169945683Y-73267609D01*
X169960001Y-73265485D01*
X169974459Y-73264775D01*
X169988917Y-73265485D01*
X169988917Y-73265485D01*
G37*
D15*
G04 #@! TD*
G04 #@! TO.P,R2,1*
G04 #@! TO.N,Net-(AE1-Pad1)*
X169992137Y-73638549D03*
D14*
G04 #@! TO.N,Net-(J1-Pad1)*
G04 #@! TO.C,R2*
G36*
X169303023Y-73951379D02*
X169317341Y-73953503D01*
X169331382Y-73957020D01*
X169345011Y-73961897D01*
X169358096Y-73968086D01*
X169370512Y-73975527D01*
X169382138Y-73984150D01*
X169392863Y-73993871D01*
X169636815Y-74237823D01*
X169646536Y-74248548D01*
X169655159Y-74260174D01*
X169662600Y-74272590D01*
X169668789Y-74285675D01*
X169673666Y-74299304D01*
X169677183Y-74313345D01*
X169679307Y-74327663D01*
X169680017Y-74342121D01*
X169679307Y-74356579D01*
X169677183Y-74370897D01*
X169673666Y-74384938D01*
X169668789Y-74398567D01*
X169662600Y-74411652D01*
X169655159Y-74424068D01*
X169646536Y-74435694D01*
X169636815Y-74446419D01*
X169428219Y-74655015D01*
X169417494Y-74664736D01*
X169405868Y-74673359D01*
X169393452Y-74680800D01*
X169380367Y-74686989D01*
X169366738Y-74691866D01*
X169352697Y-74695383D01*
X169338379Y-74697507D01*
X169323921Y-74698217D01*
X169309463Y-74697507D01*
X169295145Y-74695383D01*
X169281104Y-74691866D01*
X169267475Y-74686989D01*
X169254390Y-74680800D01*
X169241974Y-74673359D01*
X169230348Y-74664736D01*
X169219623Y-74655015D01*
X168975671Y-74411063D01*
X168965950Y-74400338D01*
X168957327Y-74388712D01*
X168949886Y-74376296D01*
X168943697Y-74363211D01*
X168938820Y-74349582D01*
X168935303Y-74335541D01*
X168933179Y-74321223D01*
X168932469Y-74306765D01*
X168933179Y-74292307D01*
X168935303Y-74277989D01*
X168938820Y-74263948D01*
X168943697Y-74250319D01*
X168949886Y-74237234D01*
X168957327Y-74224818D01*
X168965950Y-74213192D01*
X168975671Y-74202467D01*
X169184267Y-73993871D01*
X169194992Y-73984150D01*
X169206618Y-73975527D01*
X169219034Y-73968086D01*
X169232119Y-73961897D01*
X169245748Y-73957020D01*
X169259789Y-73953503D01*
X169274107Y-73951379D01*
X169288565Y-73950669D01*
X169303023Y-73951379D01*
X169303023Y-73951379D01*
G37*
D15*
G04 #@! TD*
G04 #@! TO.P,R2,2*
G04 #@! TO.N,Net-(J1-Pad1)*
X169306243Y-74324443D03*
D14*
G04 #@! TO.N,GND*
G04 #@! TO.C,R3*
G36*
X171509197Y-73173561D02*
X171523515Y-73175685D01*
X171537556Y-73179202D01*
X171551185Y-73184079D01*
X171564270Y-73190268D01*
X171576686Y-73197709D01*
X171588312Y-73206332D01*
X171599037Y-73216053D01*
X171807633Y-73424649D01*
X171817354Y-73435374D01*
X171825977Y-73447000D01*
X171833418Y-73459416D01*
X171839607Y-73472501D01*
X171844484Y-73486130D01*
X171848001Y-73500171D01*
X171850125Y-73514489D01*
X171850835Y-73528947D01*
X171850125Y-73543405D01*
X171848001Y-73557723D01*
X171844484Y-73571764D01*
X171839607Y-73585393D01*
X171833418Y-73598478D01*
X171825977Y-73610894D01*
X171817354Y-73622520D01*
X171807633Y-73633245D01*
X171563681Y-73877197D01*
X171552956Y-73886918D01*
X171541330Y-73895541D01*
X171528914Y-73902982D01*
X171515829Y-73909171D01*
X171502200Y-73914048D01*
X171488159Y-73917565D01*
X171473841Y-73919689D01*
X171459383Y-73920399D01*
X171444925Y-73919689D01*
X171430607Y-73917565D01*
X171416566Y-73914048D01*
X171402937Y-73909171D01*
X171389852Y-73902982D01*
X171377436Y-73895541D01*
X171365810Y-73886918D01*
X171355085Y-73877197D01*
X171146489Y-73668601D01*
X171136768Y-73657876D01*
X171128145Y-73646250D01*
X171120704Y-73633834D01*
X171114515Y-73620749D01*
X171109638Y-73607120D01*
X171106121Y-73593079D01*
X171103997Y-73578761D01*
X171103287Y-73564303D01*
X171103997Y-73549845D01*
X171106121Y-73535527D01*
X171109638Y-73521486D01*
X171114515Y-73507857D01*
X171120704Y-73494772D01*
X171128145Y-73482356D01*
X171136768Y-73470730D01*
X171146489Y-73460005D01*
X171390441Y-73216053D01*
X171401166Y-73206332D01*
X171412792Y-73197709D01*
X171425208Y-73190268D01*
X171438293Y-73184079D01*
X171451922Y-73179202D01*
X171465963Y-73175685D01*
X171480281Y-73173561D01*
X171494739Y-73172851D01*
X171509197Y-73173561D01*
X171509197Y-73173561D01*
G37*
D15*
G04 #@! TD*
G04 #@! TO.P,R3,2*
G04 #@! TO.N,GND*
X171477061Y-73546625D03*
D14*
G04 #@! TO.N,Net-(AE1-Pad1)*
G04 #@! TO.C,R3*
G36*
X170823303Y-72487667D02*
X170837621Y-72489791D01*
X170851662Y-72493308D01*
X170865291Y-72498185D01*
X170878376Y-72504374D01*
X170890792Y-72511815D01*
X170902418Y-72520438D01*
X170913143Y-72530159D01*
X171121739Y-72738755D01*
X171131460Y-72749480D01*
X171140083Y-72761106D01*
X171147524Y-72773522D01*
X171153713Y-72786607D01*
X171158590Y-72800236D01*
X171162107Y-72814277D01*
X171164231Y-72828595D01*
X171164941Y-72843053D01*
X171164231Y-72857511D01*
X171162107Y-72871829D01*
X171158590Y-72885870D01*
X171153713Y-72899499D01*
X171147524Y-72912584D01*
X171140083Y-72925000D01*
X171131460Y-72936626D01*
X171121739Y-72947351D01*
X170877787Y-73191303D01*
X170867062Y-73201024D01*
X170855436Y-73209647D01*
X170843020Y-73217088D01*
X170829935Y-73223277D01*
X170816306Y-73228154D01*
X170802265Y-73231671D01*
X170787947Y-73233795D01*
X170773489Y-73234505D01*
X170759031Y-73233795D01*
X170744713Y-73231671D01*
X170730672Y-73228154D01*
X170717043Y-73223277D01*
X170703958Y-73217088D01*
X170691542Y-73209647D01*
X170679916Y-73201024D01*
X170669191Y-73191303D01*
X170460595Y-72982707D01*
X170450874Y-72971982D01*
X170442251Y-72960356D01*
X170434810Y-72947940D01*
X170428621Y-72934855D01*
X170423744Y-72921226D01*
X170420227Y-72907185D01*
X170418103Y-72892867D01*
X170417393Y-72878409D01*
X170418103Y-72863951D01*
X170420227Y-72849633D01*
X170423744Y-72835592D01*
X170428621Y-72821963D01*
X170434810Y-72808878D01*
X170442251Y-72796462D01*
X170450874Y-72784836D01*
X170460595Y-72774111D01*
X170704547Y-72530159D01*
X170715272Y-72520438D01*
X170726898Y-72511815D01*
X170739314Y-72504374D01*
X170752399Y-72498185D01*
X170766028Y-72493308D01*
X170780069Y-72489791D01*
X170794387Y-72487667D01*
X170808845Y-72486957D01*
X170823303Y-72487667D01*
X170823303Y-72487667D01*
G37*
D15*
G04 #@! TD*
G04 #@! TO.P,R3,1*
G04 #@! TO.N,Net-(AE1-Pad1)*
X170791167Y-72860731D03*
D16*
G04 #@! TO.N,GND*
X164211000Y-78740000D03*
X162560000Y-78740000D03*
X164592000Y-72136000D03*
X162941000Y-72136000D03*
X164592000Y-70866000D03*
X162941000Y-70866000D03*
X161417000Y-72517000D03*
X161417000Y-71628000D03*
X161417000Y-70739000D03*
X169418000Y-75819000D03*
X161163000Y-77851000D03*
X161163000Y-78867000D03*
X161163000Y-79883000D03*
X162179000Y-79883000D03*
X163195000Y-79883000D03*
X164211000Y-79883000D03*
X165227000Y-79883000D03*
X171450000Y-73660000D03*
X172085000Y-74295000D03*
X172720000Y-74930000D03*
X173355000Y-75565000D03*
X174117000Y-76327000D03*
X174879000Y-77089000D03*
X175641000Y-77851000D03*
X176403000Y-78613000D03*
X177165000Y-79375000D03*
X176403000Y-79883000D03*
X175387000Y-79883000D03*
X174371000Y-79883000D03*
X173355000Y-79883000D03*
X172339000Y-79883000D03*
X171323000Y-79883000D03*
X170307000Y-79883000D03*
X169291000Y-79883000D03*
X168275000Y-79883000D03*
X167259000Y-79883000D03*
X166243000Y-79883000D03*
X161417000Y-65405000D03*
X162433000Y-65405000D03*
X163322000Y-65659000D03*
X164084000Y-66294000D03*
X164719000Y-67056000D03*
X165481000Y-67818000D03*
X166243000Y-68580000D03*
X167005000Y-69342000D03*
X167767000Y-70104000D03*
X168529000Y-70866000D03*
X169291000Y-71628000D03*
X169672000Y-72390000D03*
X169037000Y-73152000D03*
X168275000Y-73787000D03*
X167386000Y-74041000D03*
X166497000Y-74041000D03*
X170815000Y-74422000D03*
X170180000Y-75184000D03*
X168529000Y-76200000D03*
X167513000Y-76200000D03*
X166497000Y-76200000D03*
X161671000Y-77089000D03*
X162560000Y-77089000D03*
X163449000Y-77089000D03*
X164338000Y-77089000D03*
X165354000Y-77089000D03*
X166370000Y-77089000D03*
X161417000Y-66294000D03*
X161417000Y-67183000D03*
X161417000Y-68072000D03*
X161417000Y-68961000D03*
X161417000Y-69850000D03*
X161925000Y-73279000D03*
X162814000Y-73279000D03*
X163703000Y-73279000D03*
X164592000Y-73279000D03*
X165481000Y-73279000D03*
X166370000Y-73152000D03*
X162941000Y-67564000D03*
X162941000Y-69215000D03*
X164465000Y-69215000D03*
X166243000Y-70866000D03*
X166243000Y-72136000D03*
X167767000Y-72136000D03*
X165989000Y-78740000D03*
X167894000Y-77851000D03*
X169545000Y-77597000D03*
X171323000Y-76327000D03*
X172847000Y-77470000D03*
X174244000Y-78740000D03*
X171323000Y-78486000D03*
G04 #@! TD*
D17*
G04 #@! TO.N,Net-(AE1-Pad1)*
X172194774Y-71457124D02*
X170791167Y-72860731D01*
X172194774Y-71435911D02*
X172194774Y-71457124D01*
X170013349Y-73638549D02*
X170791167Y-72860731D01*
X169992137Y-73638549D02*
X170013349Y-73638549D01*
G04 #@! TO.N,Net-(J1-Pad1)*
X169306243Y-74345655D02*
X168528425Y-75123473D01*
X169306243Y-74324443D02*
X169306243Y-74345655D01*
X163026527Y-75123473D02*
X163000000Y-75150000D01*
X168528425Y-75123473D02*
X163026527Y-75123473D01*
G04 #@! TD*
D18*
G04 #@! TO.N,GND*
G36*
X178744698Y-80334500D02*
X160765500Y-80334500D01*
X160765500Y-76594232D01*
X165500000Y-76594232D01*
X165574329Y-76579447D01*
X165637343Y-76537343D01*
X165679447Y-76474329D01*
X165694232Y-76400000D01*
X165694232Y-75453673D01*
X168131391Y-75453673D01*
X168269106Y-75591388D01*
X168379972Y-75665466D01*
X168510747Y-75691479D01*
X168641522Y-75665466D01*
X168752388Y-75591388D01*
X168996340Y-75347436D01*
X169070418Y-75236570D01*
X169096431Y-75105795D01*
X169082601Y-75036270D01*
X169242598Y-74876273D01*
X169323921Y-74892449D01*
X169454696Y-74866436D01*
X169565562Y-74792358D01*
X169774158Y-74583762D01*
X169848236Y-74472896D01*
X169874249Y-74342121D01*
X169848236Y-74211346D01*
X169786208Y-74118514D01*
X169879040Y-74180542D01*
X170009815Y-74206555D01*
X170140590Y-74180542D01*
X170251456Y-74106464D01*
X170460052Y-73897868D01*
X170534130Y-73787002D01*
X170560143Y-73656227D01*
X170543967Y-73574904D01*
X170703964Y-73414907D01*
X170773489Y-73428737D01*
X170904264Y-73402724D01*
X171015130Y-73328646D01*
X171259082Y-73084694D01*
X171333160Y-72973828D01*
X171341599Y-72931401D01*
X178744698Y-80334500D01*
X178744698Y-80334500D01*
G37*
X178744698Y-80334500D02*
X160765500Y-80334500D01*
X160765500Y-76594232D01*
X165500000Y-76594232D01*
X165574329Y-76579447D01*
X165637343Y-76537343D01*
X165679447Y-76474329D01*
X165694232Y-76400000D01*
X165694232Y-75453673D01*
X168131391Y-75453673D01*
X168269106Y-75591388D01*
X168379972Y-75665466D01*
X168510747Y-75691479D01*
X168641522Y-75665466D01*
X168752388Y-75591388D01*
X168996340Y-75347436D01*
X169070418Y-75236570D01*
X169096431Y-75105795D01*
X169082601Y-75036270D01*
X169242598Y-74876273D01*
X169323921Y-74892449D01*
X169454696Y-74866436D01*
X169565562Y-74792358D01*
X169774158Y-74583762D01*
X169848236Y-74472896D01*
X169874249Y-74342121D01*
X169848236Y-74211346D01*
X169786208Y-74118514D01*
X169879040Y-74180542D01*
X170009815Y-74206555D01*
X170140590Y-74180542D01*
X170251456Y-74106464D01*
X170460052Y-73897868D01*
X170534130Y-73787002D01*
X170560143Y-73656227D01*
X170543967Y-73574904D01*
X170703964Y-73414907D01*
X170773489Y-73428737D01*
X170904264Y-73402724D01*
X171015130Y-73328646D01*
X171259082Y-73084694D01*
X171333160Y-72973828D01*
X171341599Y-72931401D01*
X178744698Y-80334500D01*
G36*
X170720497Y-72310299D02*
X170678070Y-72318738D01*
X170567204Y-72392816D01*
X170323252Y-72636768D01*
X170249174Y-72747634D01*
X170223161Y-72878409D01*
X170236991Y-72947934D01*
X170091167Y-73093758D01*
X169974459Y-73070543D01*
X169843684Y-73096556D01*
X169732818Y-73170634D01*
X169524222Y-73379230D01*
X169450144Y-73490096D01*
X169424131Y-73620871D01*
X169450144Y-73751646D01*
X169512172Y-73844478D01*
X169419340Y-73782450D01*
X169288565Y-73756437D01*
X169157790Y-73782450D01*
X169046924Y-73856528D01*
X168838328Y-74065124D01*
X168764250Y-74175990D01*
X168738237Y-74306765D01*
X168761452Y-74423473D01*
X168615628Y-74569297D01*
X168546103Y-74555467D01*
X168415328Y-74581480D01*
X168304462Y-74655558D01*
X168166747Y-74793273D01*
X165694232Y-74793273D01*
X165694232Y-73900000D01*
X165679447Y-73825671D01*
X165637343Y-73762657D01*
X165574329Y-73720553D01*
X165500000Y-73705768D01*
X160765500Y-73705768D01*
X160765500Y-64765500D01*
X163175698Y-64765500D01*
X170720497Y-72310299D01*
X170720497Y-72310299D01*
G37*
X170720497Y-72310299D02*
X170678070Y-72318738D01*
X170567204Y-72392816D01*
X170323252Y-72636768D01*
X170249174Y-72747634D01*
X170223161Y-72878409D01*
X170236991Y-72947934D01*
X170091167Y-73093758D01*
X169974459Y-73070543D01*
X169843684Y-73096556D01*
X169732818Y-73170634D01*
X169524222Y-73379230D01*
X169450144Y-73490096D01*
X169424131Y-73620871D01*
X169450144Y-73751646D01*
X169512172Y-73844478D01*
X169419340Y-73782450D01*
X169288565Y-73756437D01*
X169157790Y-73782450D01*
X169046924Y-73856528D01*
X168838328Y-74065124D01*
X168764250Y-74175990D01*
X168738237Y-74306765D01*
X168761452Y-74423473D01*
X168615628Y-74569297D01*
X168546103Y-74555467D01*
X168415328Y-74581480D01*
X168304462Y-74655558D01*
X168166747Y-74793273D01*
X165694232Y-74793273D01*
X165694232Y-73900000D01*
X165679447Y-73825671D01*
X165637343Y-73762657D01*
X165574329Y-73720553D01*
X165500000Y-73705768D01*
X160765500Y-73705768D01*
X160765500Y-64765500D01*
X163175698Y-64765500D01*
X170720497Y-72310299D01*
G04 #@! TD*
M02*
