G04 #@! TF.GenerationSoftware,KiCad,Pcbnew,5.0.2-bee76a0~70~ubuntu16.04.1*
G04 #@! TF.CreationDate,2019-02-25T16:09:05-05:00*
G04 #@! TF.ProjectId,ant1,616e7431-2e6b-4696-9361-645f70636258,rev?*
G04 #@! TF.SameCoordinates,Original*
G04 #@! TF.FileFunction,Legend,Top*
G04 #@! TF.FilePolarity,Positive*
%FSLAX46Y46*%
G04 Gerber Fmt 4.6, Leading zero omitted, Abs format (unit mm)*
G04 Created by KiCad (PCBNEW 5.0.2-bee76a0~70~ubuntu16.04.1) date Mon 25 Feb 2019 04:09:05 PM EST*
%MOMM*%
%LPD*%
G01*
G04 APERTURE LIST*
%ADD10C,0.150000*%
%ADD11C,0.050800*%
%ADD12C,0.050000*%
G04 APERTURE END LIST*
D10*
G04 #@! TO.C,AE1*
X170780560Y-71082358D02*
X176790968Y-65071950D01*
X176790968Y-65071950D02*
X178558735Y-66839717D01*
X178558735Y-66839717D02*
X172548327Y-72850125D01*
X172548327Y-72850125D02*
X170780560Y-71082358D01*
X170780560Y-71082358D02*
X170957337Y-71259134D01*
D11*
G36*
X172725104Y-70198474D02*
X173432211Y-70905581D01*
X174669648Y-69668144D01*
X173962541Y-68961037D01*
X172725104Y-70198474D01*
G37*
X172725104Y-70198474D02*
X173432211Y-70905581D01*
X174669648Y-69668144D01*
X173962541Y-68961037D01*
X172725104Y-70198474D01*
D12*
X171841221Y-71789464D02*
X171134114Y-72496571D01*
X171063403Y-72425860D02*
X171204825Y-72567282D01*
X171770510Y-71718754D02*
X171911931Y-71860175D01*
G04 #@! TO.C,J1*
D10*
X162666666Y-65852380D02*
X162666666Y-66566666D01*
X162619047Y-66709523D01*
X162523809Y-66804761D01*
X162380952Y-66852380D01*
X162285714Y-66852380D01*
X163666666Y-66852380D02*
X163095238Y-66852380D01*
X163380952Y-66852380D02*
X163380952Y-65852380D01*
X163285714Y-65995238D01*
X163190476Y-66090476D01*
X163095238Y-66138095D01*
G04 #@! TO.C,R1*
X167802030Y-74437732D02*
X167229610Y-74336717D01*
X167397969Y-74841793D02*
X166690862Y-74134687D01*
X166960236Y-73865312D01*
X167061251Y-73831641D01*
X167128595Y-73831641D01*
X167229610Y-73865312D01*
X167330625Y-73966328D01*
X167364297Y-74067343D01*
X167364297Y-74134687D01*
X167330625Y-74235702D01*
X167061251Y-74505076D01*
X168475465Y-73764297D02*
X168071404Y-74168358D01*
X168273435Y-73966328D02*
X167566328Y-73259221D01*
X167600000Y-73427580D01*
X167600000Y-73562267D01*
X167566328Y-73663282D01*
G04 #@! TO.C,R2*
X171802030Y-76437732D02*
X171229610Y-76336717D01*
X171397969Y-76841793D02*
X170690862Y-76134687D01*
X170960236Y-75865312D01*
X171061251Y-75831641D01*
X171128595Y-75831641D01*
X171229610Y-75865312D01*
X171330625Y-75966328D01*
X171364297Y-76067343D01*
X171364297Y-76134687D01*
X171330625Y-76235702D01*
X171061251Y-76505076D01*
X171431641Y-75528595D02*
X171431641Y-75461251D01*
X171465312Y-75360236D01*
X171633671Y-75191877D01*
X171734687Y-75158206D01*
X171802030Y-75158206D01*
X171903045Y-75191877D01*
X171970389Y-75259221D01*
X172037732Y-75393908D01*
X172037732Y-76202030D01*
X172475465Y-75764297D01*
G04 #@! TO.C,R3*
X170002029Y-72337732D02*
X169429609Y-72236717D01*
X169597968Y-72741793D02*
X168890861Y-72034687D01*
X169160235Y-71765312D01*
X169261250Y-71731641D01*
X169328594Y-71731641D01*
X169429609Y-71765312D01*
X169530624Y-71866328D01*
X169564296Y-71967343D01*
X169564296Y-72034687D01*
X169530624Y-72135702D01*
X169261250Y-72405076D01*
X169530624Y-71394923D02*
X169968357Y-70957190D01*
X170002029Y-71462267D01*
X170103044Y-71361251D01*
X170204060Y-71327580D01*
X170271403Y-71327580D01*
X170372418Y-71361251D01*
X170540777Y-71529610D01*
X170574449Y-71630625D01*
X170574449Y-71697969D01*
X170540777Y-71798984D01*
X170338747Y-72001015D01*
X170237731Y-72034687D01*
X170170388Y-72034687D01*
G04 #@! TD*
M02*
