G04 #@! TF.GenerationSoftware,KiCad,Pcbnew,5.0.2-bee76a0~70~ubuntu18.04.1*
G04 #@! TF.CreationDate,2019-03-23T19:21:48-04:00*
G04 #@! TF.ProjectId,Array_v1,41727261-795f-4763-912e-6b696361645f,rev?*
G04 #@! TF.SameCoordinates,Original*
G04 #@! TF.FileFunction,Soldermask,Bot*
G04 #@! TF.FilePolarity,Negative*
%FSLAX46Y46*%
G04 Gerber Fmt 4.6, Leading zero omitted, Abs format (unit mm)*
G04 Created by KiCad (PCBNEW 5.0.2-bee76a0~70~ubuntu18.04.1) date Sat 23 Mar 2019 07:21:48 PM EDT*
%MOMM*%
%LPD*%
G01*
G04 APERTURE LIST*
%ADD10C,0.100000*%
G04 APERTURE END LIST*
D10*
G36*
X-119073586Y-173233879D02*
X-119073584Y-173233880D01*
X-119073583Y-173233880D01*
X-118882406Y-173313068D01*
X-118710349Y-173428033D01*
X-118564033Y-173574349D01*
X-118449068Y-173746406D01*
X-118369879Y-173937586D01*
X-118329510Y-174140534D01*
X-118329510Y-174347466D01*
X-118369879Y-174550414D01*
X-118449068Y-174741594D01*
X-118564033Y-174913651D01*
X-118710349Y-175059967D01*
X-118710352Y-175059969D01*
X-118882406Y-175174932D01*
X-119073583Y-175254120D01*
X-119073584Y-175254120D01*
X-119073586Y-175254121D01*
X-119276534Y-175294490D01*
X-119483466Y-175294490D01*
X-119686414Y-175254121D01*
X-119686416Y-175254120D01*
X-119686417Y-175254120D01*
X-119877594Y-175174932D01*
X-120049648Y-175059969D01*
X-120049651Y-175059967D01*
X-120195967Y-174913651D01*
X-120310932Y-174741594D01*
X-120390121Y-174550414D01*
X-120430490Y-174347466D01*
X-120430490Y-174140534D01*
X-120390121Y-173937586D01*
X-120310932Y-173746406D01*
X-120195967Y-173574349D01*
X-120049651Y-173428033D01*
X-119877594Y-173313068D01*
X-119686417Y-173233880D01*
X-119686416Y-173233880D01*
X-119686414Y-173233879D01*
X-119483466Y-173193510D01*
X-119276534Y-173193510D01*
X-119073586Y-173233879D01*
X-119073586Y-173233879D01*
G37*
G36*
X-115517586Y-173233879D02*
X-115517584Y-173233880D01*
X-115517583Y-173233880D01*
X-115326406Y-173313068D01*
X-115154349Y-173428033D01*
X-115008033Y-173574349D01*
X-114893068Y-173746406D01*
X-114813879Y-173937586D01*
X-114773510Y-174140534D01*
X-114773510Y-174347466D01*
X-114813879Y-174550414D01*
X-114893068Y-174741594D01*
X-115008033Y-174913651D01*
X-115154349Y-175059967D01*
X-115154352Y-175059969D01*
X-115326406Y-175174932D01*
X-115517583Y-175254120D01*
X-115517584Y-175254120D01*
X-115517586Y-175254121D01*
X-115720534Y-175294490D01*
X-115927466Y-175294490D01*
X-116130414Y-175254121D01*
X-116130416Y-175254120D01*
X-116130417Y-175254120D01*
X-116321594Y-175174932D01*
X-116493648Y-175059969D01*
X-116493651Y-175059967D01*
X-116639967Y-174913651D01*
X-116754932Y-174741594D01*
X-116834121Y-174550414D01*
X-116874490Y-174347466D01*
X-116874490Y-174140534D01*
X-116834121Y-173937586D01*
X-116754932Y-173746406D01*
X-116639967Y-173574349D01*
X-116493651Y-173428033D01*
X-116321594Y-173313068D01*
X-116130417Y-173233880D01*
X-116130416Y-173233880D01*
X-116130414Y-173233879D01*
X-115927466Y-173193510D01*
X-115720534Y-173193510D01*
X-115517586Y-173233879D01*
X-115517586Y-173233879D01*
G37*
G36*
X-111834586Y-173233879D02*
X-111834584Y-173233880D01*
X-111834583Y-173233880D01*
X-111643406Y-173313068D01*
X-111471349Y-173428033D01*
X-111325033Y-173574349D01*
X-111210068Y-173746406D01*
X-111130879Y-173937586D01*
X-111090510Y-174140534D01*
X-111090510Y-174347466D01*
X-111130879Y-174550414D01*
X-111210068Y-174741594D01*
X-111325033Y-174913651D01*
X-111471349Y-175059967D01*
X-111471352Y-175059969D01*
X-111643406Y-175174932D01*
X-111834583Y-175254120D01*
X-111834584Y-175254120D01*
X-111834586Y-175254121D01*
X-112037534Y-175294490D01*
X-112244466Y-175294490D01*
X-112447414Y-175254121D01*
X-112447416Y-175254120D01*
X-112447417Y-175254120D01*
X-112638594Y-175174932D01*
X-112810648Y-175059969D01*
X-112810651Y-175059967D01*
X-112956967Y-174913651D01*
X-113071932Y-174741594D01*
X-113151121Y-174550414D01*
X-113191490Y-174347466D01*
X-113191490Y-174140534D01*
X-113151121Y-173937586D01*
X-113071932Y-173746406D01*
X-112956967Y-173574349D01*
X-112810651Y-173428033D01*
X-112638594Y-173313068D01*
X-112447417Y-173233880D01*
X-112447416Y-173233880D01*
X-112447414Y-173233879D01*
X-112244466Y-173193510D01*
X-112037534Y-173193510D01*
X-111834586Y-173233879D01*
X-111834586Y-173233879D01*
G37*
G36*
X-193894510Y-172246490D02*
X-195995490Y-172246490D01*
X-195995490Y-170145510D01*
X-193894510Y-170145510D01*
X-193894510Y-172246490D01*
X-193894510Y-172246490D01*
G37*
G36*
X-198448586Y-170185879D02*
X-198448584Y-170185880D01*
X-198448583Y-170185880D01*
X-198286466Y-170253031D01*
X-198257406Y-170265068D01*
X-198085349Y-170380033D01*
X-197939033Y-170526349D01*
X-197824068Y-170698406D01*
X-197744879Y-170889586D01*
X-197704510Y-171092534D01*
X-197704510Y-171299466D01*
X-197744879Y-171502414D01*
X-197824068Y-171693594D01*
X-197939033Y-171865651D01*
X-198085349Y-172011967D01*
X-198085352Y-172011969D01*
X-198257406Y-172126932D01*
X-198448583Y-172206120D01*
X-198448584Y-172206120D01*
X-198448586Y-172206121D01*
X-198651534Y-172246490D01*
X-198858466Y-172246490D01*
X-199061414Y-172206121D01*
X-199061416Y-172206120D01*
X-199061417Y-172206120D01*
X-199252594Y-172126932D01*
X-199424648Y-172011969D01*
X-199424651Y-172011967D01*
X-199570967Y-171865651D01*
X-199685932Y-171693594D01*
X-199765121Y-171502414D01*
X-199805490Y-171299466D01*
X-199805490Y-171092534D01*
X-199765121Y-170889586D01*
X-199685932Y-170698406D01*
X-199570967Y-170526349D01*
X-199424651Y-170380033D01*
X-199252594Y-170265068D01*
X-199223534Y-170253031D01*
X-199061417Y-170185880D01*
X-199061416Y-170185880D01*
X-199061414Y-170185879D01*
X-198858466Y-170145510D01*
X-198651534Y-170145510D01*
X-198448586Y-170185879D01*
X-198448586Y-170185879D01*
G37*
G36*
X-190574586Y-170185879D02*
X-190574584Y-170185880D01*
X-190574583Y-170185880D01*
X-190412466Y-170253031D01*
X-190383406Y-170265068D01*
X-190211349Y-170380033D01*
X-190065033Y-170526349D01*
X-189950068Y-170698406D01*
X-189870879Y-170889586D01*
X-189830510Y-171092534D01*
X-189830510Y-171299466D01*
X-189870879Y-171502414D01*
X-189950068Y-171693594D01*
X-190065033Y-171865651D01*
X-190211349Y-172011967D01*
X-190211352Y-172011969D01*
X-190383406Y-172126932D01*
X-190574583Y-172206120D01*
X-190574584Y-172206120D01*
X-190574586Y-172206121D01*
X-190777534Y-172246490D01*
X-190984466Y-172246490D01*
X-191187414Y-172206121D01*
X-191187416Y-172206120D01*
X-191187417Y-172206120D01*
X-191378594Y-172126932D01*
X-191550648Y-172011969D01*
X-191550651Y-172011967D01*
X-191696967Y-171865651D01*
X-191811932Y-171693594D01*
X-191891121Y-171502414D01*
X-191931490Y-171299466D01*
X-191931490Y-171092534D01*
X-191891121Y-170889586D01*
X-191811932Y-170698406D01*
X-191696967Y-170526349D01*
X-191550651Y-170380033D01*
X-191378594Y-170265068D01*
X-191349534Y-170253031D01*
X-191187417Y-170185880D01*
X-191187416Y-170185880D01*
X-191187414Y-170185879D01*
X-190984466Y-170145510D01*
X-190777534Y-170145510D01*
X-190574586Y-170185879D01*
X-190574586Y-170185879D01*
G37*
G36*
X-187018586Y-170185879D02*
X-187018584Y-170185880D01*
X-187018583Y-170185880D01*
X-186856466Y-170253031D01*
X-186827406Y-170265068D01*
X-186655349Y-170380033D01*
X-186509033Y-170526349D01*
X-186394068Y-170698406D01*
X-186314879Y-170889586D01*
X-186274510Y-171092534D01*
X-186274510Y-171299466D01*
X-186314879Y-171502414D01*
X-186394068Y-171693594D01*
X-186509033Y-171865651D01*
X-186655349Y-172011967D01*
X-186655352Y-172011969D01*
X-186827406Y-172126932D01*
X-187018583Y-172206120D01*
X-187018584Y-172206120D01*
X-187018586Y-172206121D01*
X-187221534Y-172246490D01*
X-187428466Y-172246490D01*
X-187631414Y-172206121D01*
X-187631416Y-172206120D01*
X-187631417Y-172206120D01*
X-187822594Y-172126932D01*
X-187994648Y-172011969D01*
X-187994651Y-172011967D01*
X-188140967Y-171865651D01*
X-188255932Y-171693594D01*
X-188335121Y-171502414D01*
X-188375490Y-171299466D01*
X-188375490Y-171092534D01*
X-188335121Y-170889586D01*
X-188255932Y-170698406D01*
X-188140967Y-170526349D01*
X-187994651Y-170380033D01*
X-187822594Y-170265068D01*
X-187793534Y-170253031D01*
X-187631417Y-170185880D01*
X-187631416Y-170185880D01*
X-187631414Y-170185879D01*
X-187428466Y-170145510D01*
X-187221534Y-170145510D01*
X-187018586Y-170185879D01*
X-187018586Y-170185879D01*
G37*
G36*
X-174590510Y-172119490D02*
X-176691490Y-172119490D01*
X-176691490Y-170018510D01*
X-174590510Y-170018510D01*
X-174590510Y-172119490D01*
X-174590510Y-172119490D01*
G37*
G36*
X-171524586Y-170058879D02*
X-171524584Y-170058880D01*
X-171524583Y-170058880D01*
X-171333406Y-170138068D01*
X-171161349Y-170253033D01*
X-171015033Y-170399349D01*
X-170900068Y-170571406D01*
X-170820879Y-170762586D01*
X-170780510Y-170965534D01*
X-170780510Y-171172466D01*
X-170820879Y-171375414D01*
X-170900068Y-171566594D01*
X-171015033Y-171738651D01*
X-171161349Y-171884967D01*
X-171161352Y-171884969D01*
X-171333406Y-171999932D01*
X-171524583Y-172079120D01*
X-171524584Y-172079120D01*
X-171524586Y-172079121D01*
X-171727534Y-172119490D01*
X-171934466Y-172119490D01*
X-172137414Y-172079121D01*
X-172137416Y-172079120D01*
X-172137417Y-172079120D01*
X-172328594Y-171999932D01*
X-172500648Y-171884969D01*
X-172500651Y-171884967D01*
X-172646967Y-171738651D01*
X-172761932Y-171566594D01*
X-172841121Y-171375414D01*
X-172881490Y-171172466D01*
X-172881490Y-170965534D01*
X-172841121Y-170762586D01*
X-172761932Y-170571406D01*
X-172646967Y-170399349D01*
X-172500651Y-170253033D01*
X-172328594Y-170138068D01*
X-172137417Y-170058880D01*
X-172137416Y-170058880D01*
X-172137414Y-170058879D01*
X-171934466Y-170018510D01*
X-171727534Y-170018510D01*
X-171524586Y-170058879D01*
X-171524586Y-170058879D01*
G37*
G36*
X-168095586Y-170058879D02*
X-168095584Y-170058880D01*
X-168095583Y-170058880D01*
X-167904406Y-170138068D01*
X-167732349Y-170253033D01*
X-167586033Y-170399349D01*
X-167471068Y-170571406D01*
X-167391879Y-170762586D01*
X-167351510Y-170965534D01*
X-167351510Y-171172466D01*
X-167391879Y-171375414D01*
X-167471068Y-171566594D01*
X-167586033Y-171738651D01*
X-167732349Y-171884967D01*
X-167732352Y-171884969D01*
X-167904406Y-171999932D01*
X-168095583Y-172079120D01*
X-168095584Y-172079120D01*
X-168095586Y-172079121D01*
X-168298534Y-172119490D01*
X-168505466Y-172119490D01*
X-168708414Y-172079121D01*
X-168708416Y-172079120D01*
X-168708417Y-172079120D01*
X-168899594Y-171999932D01*
X-169071648Y-171884969D01*
X-169071651Y-171884967D01*
X-169217967Y-171738651D01*
X-169332932Y-171566594D01*
X-169412121Y-171375414D01*
X-169452490Y-171172466D01*
X-169452490Y-170965534D01*
X-169412121Y-170762586D01*
X-169332932Y-170571406D01*
X-169217967Y-170399349D01*
X-169071651Y-170253033D01*
X-168899594Y-170138068D01*
X-168708417Y-170058880D01*
X-168708416Y-170058880D01*
X-168708414Y-170058879D01*
X-168505466Y-170018510D01*
X-168298534Y-170018510D01*
X-168095586Y-170058879D01*
X-168095586Y-170058879D01*
G37*
G36*
X-90499901Y-159767574D02*
X-90318634Y-159803630D01*
X-90090966Y-159897933D01*
X-89886995Y-160034223D01*
X-89886068Y-160034842D01*
X-89711824Y-160209086D01*
X-89711822Y-160209089D01*
X-89574915Y-160413984D01*
X-89480612Y-160641652D01*
X-89432537Y-160883342D01*
X-89432537Y-161129768D01*
X-89480612Y-161371458D01*
X-89574915Y-161599126D01*
X-89667061Y-161737031D01*
X-89711824Y-161804024D01*
X-89886068Y-161978268D01*
X-89886071Y-161978270D01*
X-90090966Y-162115177D01*
X-90318634Y-162209480D01*
X-90499901Y-162245536D01*
X-90560323Y-162257555D01*
X-90806751Y-162257555D01*
X-90867173Y-162245536D01*
X-91048440Y-162209480D01*
X-91276108Y-162115177D01*
X-91481003Y-161978270D01*
X-91481006Y-161978268D01*
X-91655250Y-161804024D01*
X-91700013Y-161737031D01*
X-91792159Y-161599126D01*
X-91886462Y-161371458D01*
X-91934537Y-161129768D01*
X-91934537Y-160883342D01*
X-91886462Y-160641652D01*
X-91792159Y-160413984D01*
X-91655252Y-160209089D01*
X-91655250Y-160209086D01*
X-91481006Y-160034842D01*
X-91480079Y-160034223D01*
X-91276108Y-159897933D01*
X-91048440Y-159803630D01*
X-90867173Y-159767574D01*
X-90806751Y-159755555D01*
X-90560323Y-159755555D01*
X-90499901Y-159767574D01*
X-90499901Y-159767574D01*
G37*
G36*
X-225175817Y-159700584D02*
X-224994550Y-159736640D01*
X-224766882Y-159830943D01*
X-224562911Y-159967233D01*
X-224561984Y-159967852D01*
X-224387740Y-160142096D01*
X-224387738Y-160142099D01*
X-224250831Y-160346994D01*
X-224156528Y-160574662D01*
X-224108453Y-160816352D01*
X-224108453Y-161062778D01*
X-224156528Y-161304468D01*
X-224250831Y-161532136D01*
X-224387121Y-161736107D01*
X-224387740Y-161737034D01*
X-224561984Y-161911278D01*
X-224561987Y-161911280D01*
X-224766882Y-162048187D01*
X-224994550Y-162142490D01*
X-225175817Y-162178546D01*
X-225236239Y-162190565D01*
X-225482667Y-162190565D01*
X-225543089Y-162178546D01*
X-225724356Y-162142490D01*
X-225952024Y-162048187D01*
X-226156919Y-161911280D01*
X-226156922Y-161911278D01*
X-226331166Y-161737034D01*
X-226331785Y-161736107D01*
X-226468075Y-161532136D01*
X-226562378Y-161304468D01*
X-226610453Y-161062778D01*
X-226610453Y-160816352D01*
X-226562378Y-160574662D01*
X-226468075Y-160346994D01*
X-226331168Y-160142099D01*
X-226331166Y-160142096D01*
X-226156922Y-159967852D01*
X-226155995Y-159967233D01*
X-225952024Y-159830943D01*
X-225724356Y-159736640D01*
X-225543089Y-159700584D01*
X-225482667Y-159688565D01*
X-225236239Y-159688565D01*
X-225175817Y-159700584D01*
X-225175817Y-159700584D01*
G37*
G36*
X-94112157Y-156171463D02*
X-93910736Y-156211528D01*
X-93683068Y-156305831D01*
X-93491244Y-156434004D01*
X-93478170Y-156442740D01*
X-93303926Y-156616984D01*
X-93303924Y-156616987D01*
X-93167017Y-156821882D01*
X-93072714Y-157049550D01*
X-93024639Y-157291240D01*
X-93024639Y-157537666D01*
X-93072714Y-157779356D01*
X-93167017Y-158007024D01*
X-93227217Y-158097119D01*
X-93303926Y-158211922D01*
X-93478170Y-158386166D01*
X-93478173Y-158386168D01*
X-93683068Y-158523075D01*
X-93910736Y-158617378D01*
X-94092004Y-158653434D01*
X-94152425Y-158665453D01*
X-94398853Y-158665453D01*
X-94459274Y-158653434D01*
X-94640542Y-158617378D01*
X-94868210Y-158523075D01*
X-95073105Y-158386168D01*
X-95073108Y-158386166D01*
X-95247352Y-158211922D01*
X-95324061Y-158097119D01*
X-95384261Y-158007024D01*
X-95478564Y-157779356D01*
X-95526639Y-157537666D01*
X-95526639Y-157291240D01*
X-95478564Y-157049550D01*
X-95384261Y-156821882D01*
X-95247354Y-156616987D01*
X-95247352Y-156616984D01*
X-95073108Y-156442740D01*
X-95060034Y-156434004D01*
X-94868210Y-156305831D01*
X-94640542Y-156211528D01*
X-94439121Y-156171463D01*
X-94398853Y-156163453D01*
X-94152425Y-156163453D01*
X-94112157Y-156171463D01*
X-94112157Y-156171463D01*
G37*
G36*
X-86927953Y-156171463D02*
X-86726532Y-156211528D01*
X-86498864Y-156305831D01*
X-86307040Y-156434004D01*
X-86293966Y-156442740D01*
X-86119722Y-156616984D01*
X-86119720Y-156616987D01*
X-85982813Y-156821882D01*
X-85888510Y-157049550D01*
X-85840435Y-157291240D01*
X-85840435Y-157537666D01*
X-85888510Y-157779356D01*
X-85982813Y-158007024D01*
X-86043013Y-158097119D01*
X-86119722Y-158211922D01*
X-86293966Y-158386166D01*
X-86293969Y-158386168D01*
X-86498864Y-158523075D01*
X-86726532Y-158617378D01*
X-86907800Y-158653434D01*
X-86968221Y-158665453D01*
X-87214649Y-158665453D01*
X-87275070Y-158653434D01*
X-87456338Y-158617378D01*
X-87684006Y-158523075D01*
X-87888901Y-158386168D01*
X-87888904Y-158386166D01*
X-88063148Y-158211922D01*
X-88139857Y-158097119D01*
X-88200057Y-158007024D01*
X-88294360Y-157779356D01*
X-88342435Y-157537666D01*
X-88342435Y-157291240D01*
X-88294360Y-157049550D01*
X-88200057Y-156821882D01*
X-88063150Y-156616987D01*
X-88063148Y-156616984D01*
X-87888904Y-156442740D01*
X-87875830Y-156434004D01*
X-87684006Y-156305831D01*
X-87456338Y-156211528D01*
X-87254917Y-156171463D01*
X-87214649Y-156163453D01*
X-86968221Y-156163453D01*
X-86927953Y-156171463D01*
X-86927953Y-156171463D01*
G37*
G36*
X-221583716Y-156108482D02*
X-221402448Y-156144538D01*
X-221174780Y-156238841D01*
X-220975053Y-156372295D01*
X-220969882Y-156375750D01*
X-220795638Y-156549994D01*
X-220795636Y-156549997D01*
X-220658729Y-156754892D01*
X-220564426Y-156982560D01*
X-220516351Y-157224250D01*
X-220516351Y-157470676D01*
X-220564426Y-157712366D01*
X-220658729Y-157940034D01*
X-220763690Y-158097119D01*
X-220795638Y-158144932D01*
X-220969882Y-158319176D01*
X-220969885Y-158319178D01*
X-221174780Y-158456085D01*
X-221402448Y-158550388D01*
X-221583715Y-158586444D01*
X-221644137Y-158598463D01*
X-221890565Y-158598463D01*
X-221950987Y-158586444D01*
X-222132254Y-158550388D01*
X-222359922Y-158456085D01*
X-222564817Y-158319178D01*
X-222564820Y-158319176D01*
X-222739064Y-158144932D01*
X-222771012Y-158097119D01*
X-222875973Y-157940034D01*
X-222970276Y-157712366D01*
X-223018351Y-157470676D01*
X-223018351Y-157224250D01*
X-222970276Y-156982560D01*
X-222875973Y-156754892D01*
X-222739066Y-156549997D01*
X-222739064Y-156549994D01*
X-222564820Y-156375750D01*
X-222559649Y-156372295D01*
X-222359922Y-156238841D01*
X-222132254Y-156144538D01*
X-221950986Y-156108482D01*
X-221890565Y-156096463D01*
X-221644137Y-156096463D01*
X-221583716Y-156108482D01*
X-221583716Y-156108482D01*
G37*
G36*
X-228767920Y-156108482D02*
X-228586652Y-156144538D01*
X-228358984Y-156238841D01*
X-228159257Y-156372295D01*
X-228154086Y-156375750D01*
X-227979842Y-156549994D01*
X-227979840Y-156549997D01*
X-227842933Y-156754892D01*
X-227748630Y-156982560D01*
X-227700555Y-157224250D01*
X-227700555Y-157470676D01*
X-227748630Y-157712366D01*
X-227842933Y-157940034D01*
X-227947894Y-158097119D01*
X-227979842Y-158144932D01*
X-228154086Y-158319176D01*
X-228154089Y-158319178D01*
X-228358984Y-158456085D01*
X-228586652Y-158550388D01*
X-228767919Y-158586444D01*
X-228828341Y-158598463D01*
X-229074769Y-158598463D01*
X-229135191Y-158586444D01*
X-229316458Y-158550388D01*
X-229544126Y-158456085D01*
X-229749021Y-158319178D01*
X-229749024Y-158319176D01*
X-229923268Y-158144932D01*
X-229955216Y-158097119D01*
X-230060177Y-157940034D01*
X-230154480Y-157712366D01*
X-230202555Y-157470676D01*
X-230202555Y-157224250D01*
X-230154480Y-156982560D01*
X-230060177Y-156754892D01*
X-229923270Y-156549997D01*
X-229923268Y-156549994D01*
X-229749024Y-156375750D01*
X-229743853Y-156372295D01*
X-229544126Y-156238841D01*
X-229316458Y-156144538D01*
X-229135190Y-156108482D01*
X-229074769Y-156096463D01*
X-228828341Y-156096463D01*
X-228767920Y-156108482D01*
X-228767920Y-156108482D01*
G37*
G36*
X-90454110Y-156261050D02*
X-90340510Y-156283646D01*
X-90126492Y-156372295D01*
X-90021067Y-156442738D01*
X-89933878Y-156500996D01*
X-89770080Y-156664794D01*
X-89770078Y-156664797D01*
X-89641379Y-156857408D01*
X-89561790Y-157049553D01*
X-89552730Y-157071427D01*
X-89507537Y-157298626D01*
X-89507537Y-157530280D01*
X-89530133Y-157643879D01*
X-89552730Y-157757480D01*
X-89641379Y-157971498D01*
X-89665117Y-158007024D01*
X-89770080Y-158164112D01*
X-89933878Y-158327910D01*
X-89933881Y-158327912D01*
X-90126492Y-158456611D01*
X-90340510Y-158545260D01*
X-90454111Y-158567857D01*
X-90567710Y-158590453D01*
X-90799364Y-158590453D01*
X-90912963Y-158567857D01*
X-91026564Y-158545260D01*
X-91240582Y-158456611D01*
X-91433193Y-158327912D01*
X-91433196Y-158327910D01*
X-91596994Y-158164112D01*
X-91701957Y-158007024D01*
X-91725695Y-157971498D01*
X-91814344Y-157757480D01*
X-91836941Y-157643879D01*
X-91859537Y-157530280D01*
X-91859537Y-157298626D01*
X-91814344Y-157071427D01*
X-91805284Y-157049553D01*
X-91725695Y-156857408D01*
X-91596996Y-156664797D01*
X-91596994Y-156664794D01*
X-91433196Y-156500996D01*
X-91346007Y-156442738D01*
X-91240582Y-156372295D01*
X-91026564Y-156283646D01*
X-90912964Y-156261050D01*
X-90799364Y-156238453D01*
X-90567710Y-156238453D01*
X-90454110Y-156261050D01*
X-90454110Y-156261050D01*
G37*
G36*
X-225130026Y-156194060D02*
X-225016426Y-156216656D01*
X-224802408Y-156305305D01*
X-224702151Y-156372295D01*
X-224609794Y-156434006D01*
X-224445996Y-156597804D01*
X-224445994Y-156597807D01*
X-224317295Y-156790418D01*
X-224237706Y-156982563D01*
X-224228646Y-157004437D01*
X-224183453Y-157231636D01*
X-224183453Y-157463290D01*
X-224196778Y-157530279D01*
X-224228646Y-157690490D01*
X-224317295Y-157904508D01*
X-224445127Y-158095821D01*
X-224445996Y-158097122D01*
X-224609794Y-158260920D01*
X-224609797Y-158260922D01*
X-224802408Y-158389621D01*
X-225016426Y-158478270D01*
X-225130026Y-158500866D01*
X-225243626Y-158523463D01*
X-225475280Y-158523463D01*
X-225588880Y-158500866D01*
X-225702480Y-158478270D01*
X-225916498Y-158389621D01*
X-226109109Y-158260922D01*
X-226109112Y-158260920D01*
X-226272910Y-158097122D01*
X-226273779Y-158095821D01*
X-226401611Y-157904508D01*
X-226490260Y-157690490D01*
X-226522128Y-157530279D01*
X-226535453Y-157463290D01*
X-226535453Y-157231636D01*
X-226490260Y-157004437D01*
X-226481200Y-156982563D01*
X-226401611Y-156790418D01*
X-226272912Y-156597807D01*
X-226272910Y-156597804D01*
X-226109112Y-156434006D01*
X-226016755Y-156372295D01*
X-225916498Y-156305305D01*
X-225702480Y-156216656D01*
X-225588880Y-156194060D01*
X-225475280Y-156171463D01*
X-225243626Y-156171463D01*
X-225130026Y-156194060D01*
X-225130026Y-156194060D01*
G37*
G36*
X-90499902Y-152583370D02*
X-90318634Y-152619426D01*
X-90090966Y-152713729D01*
X-89886995Y-152850019D01*
X-89886068Y-152850638D01*
X-89711824Y-153024882D01*
X-89711822Y-153024885D01*
X-89574915Y-153229780D01*
X-89480612Y-153457448D01*
X-89432537Y-153699138D01*
X-89432537Y-153945564D01*
X-89480612Y-154187254D01*
X-89574915Y-154414922D01*
X-89667061Y-154552827D01*
X-89711824Y-154619820D01*
X-89886068Y-154794064D01*
X-89886071Y-154794066D01*
X-90090966Y-154930973D01*
X-90318634Y-155025276D01*
X-90499901Y-155061332D01*
X-90560323Y-155073351D01*
X-90806751Y-155073351D01*
X-90867173Y-155061332D01*
X-91048440Y-155025276D01*
X-91276108Y-154930973D01*
X-91481003Y-154794066D01*
X-91481006Y-154794064D01*
X-91655250Y-154619820D01*
X-91700013Y-154552827D01*
X-91792159Y-154414922D01*
X-91886462Y-154187254D01*
X-91934537Y-153945564D01*
X-91934537Y-153699138D01*
X-91886462Y-153457448D01*
X-91792159Y-153229780D01*
X-91655252Y-153024885D01*
X-91655250Y-153024882D01*
X-91481006Y-152850638D01*
X-91480079Y-152850019D01*
X-91276108Y-152713729D01*
X-91048440Y-152619426D01*
X-90867172Y-152583370D01*
X-90806751Y-152571351D01*
X-90560323Y-152571351D01*
X-90499902Y-152583370D01*
X-90499902Y-152583370D01*
G37*
G36*
X-225175818Y-152516380D02*
X-224994550Y-152552436D01*
X-224766882Y-152646739D01*
X-224562911Y-152783029D01*
X-224561984Y-152783648D01*
X-224387740Y-152957892D01*
X-224387738Y-152957895D01*
X-224250831Y-153162790D01*
X-224156528Y-153390458D01*
X-224108453Y-153632148D01*
X-224108453Y-153878574D01*
X-224156528Y-154120264D01*
X-224250831Y-154347932D01*
X-224387121Y-154551903D01*
X-224387740Y-154552830D01*
X-224561984Y-154727074D01*
X-224561987Y-154727076D01*
X-224766882Y-154863983D01*
X-224994550Y-154958286D01*
X-225175818Y-154994342D01*
X-225236239Y-155006361D01*
X-225482667Y-155006361D01*
X-225543088Y-154994342D01*
X-225724356Y-154958286D01*
X-225952024Y-154863983D01*
X-226156919Y-154727076D01*
X-226156922Y-154727074D01*
X-226331166Y-154552830D01*
X-226331785Y-154551903D01*
X-226468075Y-154347932D01*
X-226562378Y-154120264D01*
X-226610453Y-153878574D01*
X-226610453Y-153632148D01*
X-226562378Y-153390458D01*
X-226468075Y-153162790D01*
X-226331168Y-152957895D01*
X-226331166Y-152957892D01*
X-226156922Y-152783648D01*
X-226155995Y-152783029D01*
X-225952024Y-152646739D01*
X-225724356Y-152552436D01*
X-225543088Y-152516380D01*
X-225482667Y-152504361D01*
X-225236239Y-152504361D01*
X-225175818Y-152516380D01*
X-225175818Y-152516380D01*
G37*
G36*
X-76528586Y-129799879D02*
X-76528584Y-129799880D01*
X-76528583Y-129799880D01*
X-76337406Y-129879068D01*
X-76165349Y-129994033D01*
X-76019033Y-130140349D01*
X-75904068Y-130312406D01*
X-75824879Y-130503586D01*
X-75784510Y-130706534D01*
X-75784510Y-130913466D01*
X-75824879Y-131116414D01*
X-75904068Y-131307594D01*
X-76019033Y-131479651D01*
X-76165349Y-131625967D01*
X-76165352Y-131625969D01*
X-76337406Y-131740932D01*
X-76528583Y-131820120D01*
X-76528584Y-131820120D01*
X-76528586Y-131820121D01*
X-76731534Y-131860490D01*
X-76938466Y-131860490D01*
X-77141414Y-131820121D01*
X-77141416Y-131820120D01*
X-77141417Y-131820120D01*
X-77332594Y-131740932D01*
X-77504648Y-131625969D01*
X-77504651Y-131625967D01*
X-77650967Y-131479651D01*
X-77765932Y-131307594D01*
X-77845121Y-131116414D01*
X-77885490Y-130913466D01*
X-77885490Y-130706534D01*
X-77845121Y-130503586D01*
X-77765932Y-130312406D01*
X-77650967Y-130140349D01*
X-77504651Y-129994033D01*
X-77332594Y-129879068D01*
X-77141417Y-129799880D01*
X-77141416Y-129799880D01*
X-77141414Y-129799879D01*
X-76938466Y-129759510D01*
X-76731534Y-129759510D01*
X-76528586Y-129799879D01*
X-76528586Y-129799879D01*
G37*
G36*
X-75784510Y-128050490D02*
X-77885490Y-128050490D01*
X-77885490Y-125949510D01*
X-75784510Y-125949510D01*
X-75784510Y-128050490D01*
X-75784510Y-128050490D01*
G37*
G36*
X-76528586Y-121925879D02*
X-76528584Y-121925880D01*
X-76528583Y-121925880D01*
X-76337406Y-122005068D01*
X-76165349Y-122120033D01*
X-76019033Y-122266349D01*
X-75904068Y-122438406D01*
X-75824879Y-122629586D01*
X-75784510Y-122832534D01*
X-75784510Y-123039466D01*
X-75824879Y-123242414D01*
X-75904068Y-123433594D01*
X-76019033Y-123605651D01*
X-76165349Y-123751967D01*
X-76165352Y-123751969D01*
X-76337406Y-123866932D01*
X-76528583Y-123946120D01*
X-76528584Y-123946120D01*
X-76528586Y-123946121D01*
X-76731534Y-123986490D01*
X-76938466Y-123986490D01*
X-77141414Y-123946121D01*
X-77141416Y-123946120D01*
X-77141417Y-123946120D01*
X-77332594Y-123866932D01*
X-77504648Y-123751969D01*
X-77504651Y-123751967D01*
X-77650967Y-123605651D01*
X-77765932Y-123433594D01*
X-77845121Y-123242414D01*
X-77885490Y-123039466D01*
X-77885490Y-122832534D01*
X-77845121Y-122629586D01*
X-77765932Y-122438406D01*
X-77650967Y-122266349D01*
X-77504651Y-122120033D01*
X-77332594Y-122005068D01*
X-77141417Y-121925880D01*
X-77141416Y-121925880D01*
X-77141414Y-121925879D01*
X-76938466Y-121885510D01*
X-76731534Y-121885510D01*
X-76528586Y-121925879D01*
X-76528586Y-121925879D01*
G37*
G36*
X-76528586Y-118369879D02*
X-76528584Y-118369880D01*
X-76528583Y-118369880D01*
X-76337406Y-118449068D01*
X-76165349Y-118564033D01*
X-76019033Y-118710349D01*
X-75904068Y-118882406D01*
X-75824879Y-119073586D01*
X-75784510Y-119276534D01*
X-75784510Y-119483466D01*
X-75824879Y-119686414D01*
X-75904068Y-119877594D01*
X-76019033Y-120049651D01*
X-76165349Y-120195967D01*
X-76165352Y-120195969D01*
X-76337406Y-120310932D01*
X-76528583Y-120390120D01*
X-76528584Y-120390120D01*
X-76528586Y-120390121D01*
X-76731534Y-120430490D01*
X-76938466Y-120430490D01*
X-77141414Y-120390121D01*
X-77141416Y-120390120D01*
X-77141417Y-120390120D01*
X-77332594Y-120310932D01*
X-77504648Y-120195969D01*
X-77504651Y-120195967D01*
X-77650967Y-120049651D01*
X-77765932Y-119877594D01*
X-77845121Y-119686414D01*
X-77885490Y-119483466D01*
X-77885490Y-119276534D01*
X-77845121Y-119073586D01*
X-77765932Y-118882406D01*
X-77650967Y-118710349D01*
X-77504651Y-118564033D01*
X-77332594Y-118449068D01*
X-77141417Y-118369880D01*
X-77141416Y-118369880D01*
X-77141414Y-118369879D01*
X-76938466Y-118329510D01*
X-76731534Y-118329510D01*
X-76528586Y-118369879D01*
X-76528586Y-118369879D01*
G37*
G36*
X-75911510Y-108746490D02*
X-78012490Y-108746490D01*
X-78012490Y-106645510D01*
X-75911510Y-106645510D01*
X-75911510Y-108746490D01*
X-75911510Y-108746490D01*
G37*
G36*
X-161619790Y-104869662D02*
X-161555912Y-104896121D01*
X-161498423Y-104934534D01*
X-161449534Y-104983423D01*
X-161411121Y-105040912D01*
X-161384662Y-105104790D01*
X-161371173Y-105172603D01*
X-161371173Y-105241743D01*
X-161384662Y-105309556D01*
X-161411121Y-105373434D01*
X-161449534Y-105430923D01*
X-161498423Y-105479812D01*
X-161555912Y-105518225D01*
X-161619790Y-105544684D01*
X-161687603Y-105558173D01*
X-161756743Y-105558173D01*
X-161824556Y-105544684D01*
X-161888434Y-105518225D01*
X-161945923Y-105479812D01*
X-161994812Y-105430923D01*
X-162033225Y-105373434D01*
X-162059684Y-105309556D01*
X-162073173Y-105241743D01*
X-162073173Y-105172603D01*
X-162059684Y-105104790D01*
X-162033225Y-105040912D01*
X-161994812Y-104983423D01*
X-161945923Y-104934534D01*
X-161888434Y-104896121D01*
X-161824556Y-104869662D01*
X-161756743Y-104856173D01*
X-161687603Y-104856173D01*
X-161619790Y-104869662D01*
X-161619790Y-104869662D01*
G37*
G36*
X-76655586Y-102875879D02*
X-76655584Y-102875880D01*
X-76655583Y-102875880D01*
X-76464406Y-102955068D01*
X-76292349Y-103070033D01*
X-76146033Y-103216349D01*
X-76031068Y-103388406D01*
X-75951879Y-103579586D01*
X-75911510Y-103782534D01*
X-75911510Y-103989466D01*
X-75951879Y-104192414D01*
X-76031068Y-104383594D01*
X-76146033Y-104555651D01*
X-76292349Y-104701967D01*
X-76292352Y-104701969D01*
X-76464406Y-104816932D01*
X-76655583Y-104896120D01*
X-76655584Y-104896120D01*
X-76655586Y-104896121D01*
X-76858534Y-104936490D01*
X-77065466Y-104936490D01*
X-77268414Y-104896121D01*
X-77268416Y-104896120D01*
X-77268417Y-104896120D01*
X-77459594Y-104816932D01*
X-77631648Y-104701969D01*
X-77631651Y-104701967D01*
X-77777967Y-104555651D01*
X-77892932Y-104383594D01*
X-77972121Y-104192414D01*
X-78012490Y-103989466D01*
X-78012490Y-103782534D01*
X-77972121Y-103579586D01*
X-77892932Y-103388406D01*
X-77777967Y-103216349D01*
X-77631651Y-103070033D01*
X-77459594Y-102955068D01*
X-77268417Y-102875880D01*
X-77268416Y-102875880D01*
X-77268414Y-102875879D01*
X-77065466Y-102835510D01*
X-76858534Y-102835510D01*
X-76655586Y-102875879D01*
X-76655586Y-102875879D01*
G37*
G36*
X-160806617Y-104056489D02*
X-160742739Y-104082948D01*
X-160685250Y-104121361D01*
X-160636361Y-104170250D01*
X-160597948Y-104227739D01*
X-160571489Y-104291617D01*
X-160558000Y-104359430D01*
X-160558000Y-104428570D01*
X-160571489Y-104496383D01*
X-160597948Y-104560261D01*
X-160636361Y-104617750D01*
X-160685250Y-104666639D01*
X-160738122Y-104701967D01*
X-160742739Y-104705052D01*
X-160806617Y-104731511D01*
X-160874430Y-104745000D01*
X-160943570Y-104745000D01*
X-161011383Y-104731511D01*
X-161075261Y-104705052D01*
X-161079878Y-104701967D01*
X-161132750Y-104666639D01*
X-161181639Y-104617750D01*
X-161220052Y-104560261D01*
X-161246511Y-104496383D01*
X-161260000Y-104428570D01*
X-161260000Y-104359430D01*
X-161246511Y-104291617D01*
X-161220052Y-104227739D01*
X-161181639Y-104170250D01*
X-161132750Y-104121361D01*
X-161075261Y-104082948D01*
X-161011383Y-104056489D01*
X-160943570Y-104043000D01*
X-160874430Y-104043000D01*
X-160806617Y-104056489D01*
X-160806617Y-104056489D01*
G37*
G36*
X-159993444Y-103243316D02*
X-159929566Y-103269775D01*
X-159872077Y-103308188D01*
X-159823188Y-103357077D01*
X-159784775Y-103414566D01*
X-159758316Y-103478444D01*
X-159744827Y-103546257D01*
X-159744827Y-103615397D01*
X-159758316Y-103683210D01*
X-159784775Y-103747088D01*
X-159823188Y-103804577D01*
X-159872077Y-103853466D01*
X-159929566Y-103891879D01*
X-159993444Y-103918338D01*
X-160061257Y-103931827D01*
X-160130397Y-103931827D01*
X-160198210Y-103918338D01*
X-160262088Y-103891879D01*
X-160319577Y-103853466D01*
X-160368466Y-103804577D01*
X-160406879Y-103747088D01*
X-160433338Y-103683210D01*
X-160446827Y-103615397D01*
X-160446827Y-103546257D01*
X-160433338Y-103478444D01*
X-160406879Y-103414566D01*
X-160368466Y-103357077D01*
X-160319577Y-103308188D01*
X-160262088Y-103269775D01*
X-160198210Y-103243316D01*
X-160130397Y-103229827D01*
X-160061257Y-103229827D01*
X-159993444Y-103243316D01*
X-159993444Y-103243316D01*
G37*
G36*
X-76655586Y-99446879D02*
X-76655584Y-99446880D01*
X-76655583Y-99446880D01*
X-76464406Y-99526068D01*
X-76292349Y-99641033D01*
X-76146033Y-99787349D01*
X-76031068Y-99959406D01*
X-75951879Y-100150586D01*
X-75911510Y-100353534D01*
X-75911510Y-100560466D01*
X-75951879Y-100763414D01*
X-76031068Y-100954594D01*
X-76146033Y-101126651D01*
X-76292349Y-101272967D01*
X-76292352Y-101272969D01*
X-76464406Y-101387932D01*
X-76655583Y-101467120D01*
X-76655584Y-101467120D01*
X-76655586Y-101467121D01*
X-76858534Y-101507490D01*
X-77065466Y-101507490D01*
X-77268414Y-101467121D01*
X-77268416Y-101467120D01*
X-77268417Y-101467120D01*
X-77459594Y-101387932D01*
X-77631648Y-101272969D01*
X-77631651Y-101272967D01*
X-77777967Y-101126651D01*
X-77892932Y-100954594D01*
X-77972121Y-100763414D01*
X-78012490Y-100560466D01*
X-78012490Y-100353534D01*
X-77972121Y-100150586D01*
X-77892932Y-99959406D01*
X-77777967Y-99787349D01*
X-77631651Y-99641033D01*
X-77459594Y-99526068D01*
X-77268417Y-99446880D01*
X-77268416Y-99446880D01*
X-77268414Y-99446879D01*
X-77065466Y-99406510D01*
X-76858534Y-99406510D01*
X-76655586Y-99446879D01*
X-76655586Y-99446879D01*
G37*
G36*
X-142721444Y-93439662D02*
X-142657566Y-93466121D01*
X-142600077Y-93504534D01*
X-142551188Y-93553423D01*
X-142512775Y-93610912D01*
X-142486316Y-93674790D01*
X-142472827Y-93742603D01*
X-142472827Y-93811743D01*
X-142486316Y-93879556D01*
X-142512775Y-93943434D01*
X-142551188Y-94000923D01*
X-142600077Y-94049812D01*
X-142657566Y-94088225D01*
X-142721444Y-94114684D01*
X-142789257Y-94128173D01*
X-142858397Y-94128173D01*
X-142926210Y-94114684D01*
X-142990088Y-94088225D01*
X-143047577Y-94049812D01*
X-143096466Y-94000923D01*
X-143134879Y-93943434D01*
X-143161338Y-93879556D01*
X-143174827Y-93811743D01*
X-143174827Y-93742603D01*
X-143161338Y-93674790D01*
X-143134879Y-93610912D01*
X-143096466Y-93553423D01*
X-143047577Y-93504534D01*
X-142990088Y-93466121D01*
X-142926210Y-93439662D01*
X-142858397Y-93426173D01*
X-142789257Y-93426173D01*
X-142721444Y-93439662D01*
X-142721444Y-93439662D01*
G37*
G36*
X-143534617Y-92626489D02*
X-143470739Y-92652948D01*
X-143413250Y-92691361D01*
X-143364361Y-92740250D01*
X-143325948Y-92797739D01*
X-143299489Y-92861617D01*
X-143286000Y-92929430D01*
X-143286000Y-92998570D01*
X-143299489Y-93066383D01*
X-143325948Y-93130261D01*
X-143364361Y-93187750D01*
X-143413250Y-93236639D01*
X-143470739Y-93275052D01*
X-143534617Y-93301511D01*
X-143602430Y-93315000D01*
X-143671570Y-93315000D01*
X-143739383Y-93301511D01*
X-143803261Y-93275052D01*
X-143860750Y-93236639D01*
X-143909639Y-93187750D01*
X-143948052Y-93130261D01*
X-143974511Y-93066383D01*
X-143988000Y-92998570D01*
X-143988000Y-92929430D01*
X-143974511Y-92861617D01*
X-143948052Y-92797739D01*
X-143909639Y-92740250D01*
X-143860750Y-92691361D01*
X-143803261Y-92652948D01*
X-143739383Y-92626489D01*
X-143671570Y-92613000D01*
X-143602430Y-92613000D01*
X-143534617Y-92626489D01*
X-143534617Y-92626489D01*
G37*
G36*
X-144347790Y-91813316D02*
X-144283912Y-91839775D01*
X-144226423Y-91878188D01*
X-144177534Y-91927077D01*
X-144139121Y-91984566D01*
X-144112662Y-92048444D01*
X-144099173Y-92116257D01*
X-144099173Y-92185397D01*
X-144112662Y-92253210D01*
X-144139121Y-92317088D01*
X-144177534Y-92374577D01*
X-144226423Y-92423466D01*
X-144283912Y-92461879D01*
X-144347790Y-92488338D01*
X-144415603Y-92501827D01*
X-144484743Y-92501827D01*
X-144552556Y-92488338D01*
X-144616434Y-92461879D01*
X-144673923Y-92423466D01*
X-144722812Y-92374577D01*
X-144761225Y-92317088D01*
X-144787684Y-92253210D01*
X-144801173Y-92185397D01*
X-144801173Y-92116257D01*
X-144787684Y-92048444D01*
X-144761225Y-91984566D01*
X-144722812Y-91927077D01*
X-144673923Y-91878188D01*
X-144616434Y-91839775D01*
X-144552556Y-91813316D01*
X-144484743Y-91799827D01*
X-144415603Y-91799827D01*
X-144347790Y-91813316D01*
X-144347790Y-91813316D01*
G37*
G36*
X-171423444Y-87597662D02*
X-171359566Y-87624121D01*
X-171302077Y-87662534D01*
X-171253188Y-87711423D01*
X-171214775Y-87768912D01*
X-171188316Y-87832790D01*
X-171174827Y-87900603D01*
X-171174827Y-87969743D01*
X-171188316Y-88037556D01*
X-171214775Y-88101434D01*
X-171253188Y-88158923D01*
X-171302077Y-88207812D01*
X-171359566Y-88246225D01*
X-171423444Y-88272684D01*
X-171491257Y-88286173D01*
X-171560397Y-88286173D01*
X-171628210Y-88272684D01*
X-171692088Y-88246225D01*
X-171749577Y-88207812D01*
X-171798466Y-88158923D01*
X-171836879Y-88101434D01*
X-171863338Y-88037556D01*
X-171876827Y-87969743D01*
X-171876827Y-87900603D01*
X-171863338Y-87832790D01*
X-171836879Y-87768912D01*
X-171798466Y-87711423D01*
X-171749577Y-87662534D01*
X-171692088Y-87624121D01*
X-171628210Y-87597662D01*
X-171560397Y-87584173D01*
X-171491257Y-87584173D01*
X-171423444Y-87597662D01*
X-171423444Y-87597662D01*
G37*
G36*
X-172236617Y-86784489D02*
X-172172739Y-86810948D01*
X-172115250Y-86849361D01*
X-172066361Y-86898250D01*
X-172027948Y-86955739D01*
X-172001489Y-87019617D01*
X-171988000Y-87087430D01*
X-171988000Y-87156570D01*
X-172001489Y-87224383D01*
X-172027948Y-87288261D01*
X-172066361Y-87345750D01*
X-172115250Y-87394639D01*
X-172172739Y-87433052D01*
X-172236617Y-87459511D01*
X-172304430Y-87473000D01*
X-172373570Y-87473000D01*
X-172441383Y-87459511D01*
X-172505261Y-87433052D01*
X-172562750Y-87394639D01*
X-172611639Y-87345750D01*
X-172650052Y-87288261D01*
X-172676511Y-87224383D01*
X-172690000Y-87156570D01*
X-172690000Y-87087430D01*
X-172676511Y-87019617D01*
X-172650052Y-86955739D01*
X-172611639Y-86898250D01*
X-172562750Y-86849361D01*
X-172505261Y-86810948D01*
X-172441383Y-86784489D01*
X-172373570Y-86771000D01*
X-172304430Y-86771000D01*
X-172236617Y-86784489D01*
X-172236617Y-86784489D01*
G37*
G36*
X-173049790Y-85971316D02*
X-172985912Y-85997775D01*
X-172928423Y-86036188D01*
X-172879534Y-86085077D01*
X-172841121Y-86142566D01*
X-172814662Y-86206444D01*
X-172801173Y-86274257D01*
X-172801173Y-86343397D01*
X-172814662Y-86411210D01*
X-172841121Y-86475088D01*
X-172879534Y-86532577D01*
X-172928423Y-86581466D01*
X-172985912Y-86619879D01*
X-173049790Y-86646338D01*
X-173117603Y-86659827D01*
X-173186743Y-86659827D01*
X-173254556Y-86646338D01*
X-173318434Y-86619879D01*
X-173375923Y-86581466D01*
X-173424812Y-86532577D01*
X-173463225Y-86475088D01*
X-173489684Y-86411210D01*
X-173503173Y-86343397D01*
X-173503173Y-86274257D01*
X-173489684Y-86206444D01*
X-173463225Y-86142566D01*
X-173424812Y-86085077D01*
X-173375923Y-86036188D01*
X-173318434Y-85997775D01*
X-173254556Y-85971316D01*
X-173186743Y-85957827D01*
X-173117603Y-85957827D01*
X-173049790Y-85971316D01*
X-173049790Y-85971316D01*
G37*
G36*
X-238707586Y-78618879D02*
X-238707584Y-78618880D01*
X-238707583Y-78618880D01*
X-238516406Y-78698068D01*
X-238344349Y-78813033D01*
X-238198033Y-78959349D01*
X-238083068Y-79131406D01*
X-238003879Y-79322586D01*
X-237963510Y-79525534D01*
X-237963510Y-79732466D01*
X-238003879Y-79935414D01*
X-238083068Y-80126594D01*
X-238198033Y-80298651D01*
X-238344349Y-80444967D01*
X-238344352Y-80444969D01*
X-238516406Y-80559932D01*
X-238707583Y-80639120D01*
X-238707584Y-80639120D01*
X-238707586Y-80639121D01*
X-238910534Y-80679490D01*
X-239117466Y-80679490D01*
X-239320414Y-80639121D01*
X-239320416Y-80639120D01*
X-239320417Y-80639120D01*
X-239511594Y-80559932D01*
X-239683648Y-80444969D01*
X-239683651Y-80444967D01*
X-239829967Y-80298651D01*
X-239944932Y-80126594D01*
X-240024121Y-79935414D01*
X-240064490Y-79732466D01*
X-240064490Y-79525534D01*
X-240024121Y-79322586D01*
X-239944932Y-79131406D01*
X-239829967Y-78959349D01*
X-239683651Y-78813033D01*
X-239511594Y-78698068D01*
X-239320417Y-78618880D01*
X-239320416Y-78618880D01*
X-239320414Y-78618879D01*
X-239117466Y-78578510D01*
X-238910534Y-78578510D01*
X-238707586Y-78618879D01*
X-238707586Y-78618879D01*
G37*
G36*
X-238707586Y-75189879D02*
X-238707584Y-75189880D01*
X-238707583Y-75189880D01*
X-238516406Y-75269068D01*
X-238344349Y-75384033D01*
X-238198033Y-75530349D01*
X-238083068Y-75702406D01*
X-238003879Y-75893586D01*
X-237963510Y-76096534D01*
X-237963510Y-76303466D01*
X-238003879Y-76506414D01*
X-238083068Y-76697594D01*
X-238198033Y-76869651D01*
X-238344349Y-77015967D01*
X-238344352Y-77015969D01*
X-238516406Y-77130932D01*
X-238707583Y-77210120D01*
X-238707584Y-77210120D01*
X-238707586Y-77210121D01*
X-238910534Y-77250490D01*
X-239117466Y-77250490D01*
X-239320414Y-77210121D01*
X-239320416Y-77210120D01*
X-239320417Y-77210120D01*
X-239511594Y-77130932D01*
X-239683648Y-77015969D01*
X-239683651Y-77015967D01*
X-239829967Y-76869651D01*
X-239944932Y-76697594D01*
X-240024121Y-76506414D01*
X-240064490Y-76303466D01*
X-240064490Y-76096534D01*
X-240024121Y-75893586D01*
X-239944932Y-75702406D01*
X-239829967Y-75530349D01*
X-239683651Y-75384033D01*
X-239511594Y-75269068D01*
X-239320417Y-75189880D01*
X-239320416Y-75189880D01*
X-239320414Y-75189879D01*
X-239117466Y-75149510D01*
X-238910534Y-75149510D01*
X-238707586Y-75189879D01*
X-238707586Y-75189879D01*
G37*
G36*
X-155777790Y-76167662D02*
X-155713912Y-76194121D01*
X-155656423Y-76232534D01*
X-155607534Y-76281423D01*
X-155569121Y-76338912D01*
X-155542662Y-76402790D01*
X-155529173Y-76470603D01*
X-155529173Y-76539743D01*
X-155542662Y-76607556D01*
X-155569121Y-76671434D01*
X-155607534Y-76728923D01*
X-155656423Y-76777812D01*
X-155713912Y-76816225D01*
X-155777790Y-76842684D01*
X-155845603Y-76856173D01*
X-155914743Y-76856173D01*
X-155982556Y-76842684D01*
X-156046434Y-76816225D01*
X-156103923Y-76777812D01*
X-156152812Y-76728923D01*
X-156191225Y-76671434D01*
X-156217684Y-76607556D01*
X-156231173Y-76539743D01*
X-156231173Y-76470603D01*
X-156217684Y-76402790D01*
X-156191225Y-76338912D01*
X-156152812Y-76281423D01*
X-156103923Y-76232534D01*
X-156046434Y-76194121D01*
X-155982556Y-76167662D01*
X-155914743Y-76154173D01*
X-155845603Y-76154173D01*
X-155777790Y-76167662D01*
X-155777790Y-76167662D01*
G37*
G36*
X-154964617Y-75354489D02*
X-154900739Y-75380948D01*
X-154843250Y-75419361D01*
X-154794361Y-75468250D01*
X-154755948Y-75525739D01*
X-154729489Y-75589617D01*
X-154716000Y-75657430D01*
X-154716000Y-75726570D01*
X-154729489Y-75794383D01*
X-154755948Y-75858261D01*
X-154794361Y-75915750D01*
X-154843250Y-75964639D01*
X-154900739Y-76003052D01*
X-154964617Y-76029511D01*
X-155032430Y-76043000D01*
X-155101570Y-76043000D01*
X-155169383Y-76029511D01*
X-155233261Y-76003052D01*
X-155290750Y-75964639D01*
X-155339639Y-75915750D01*
X-155378052Y-75858261D01*
X-155404511Y-75794383D01*
X-155418000Y-75726570D01*
X-155418000Y-75657430D01*
X-155404511Y-75589617D01*
X-155378052Y-75525739D01*
X-155339639Y-75468250D01*
X-155290750Y-75419361D01*
X-155233261Y-75380948D01*
X-155169383Y-75354489D01*
X-155101570Y-75341000D01*
X-155032430Y-75341000D01*
X-154964617Y-75354489D01*
X-154964617Y-75354489D01*
G37*
G36*
X-154151444Y-74541316D02*
X-154087566Y-74567775D01*
X-154030077Y-74606188D01*
X-153981188Y-74655077D01*
X-153942775Y-74712566D01*
X-153916316Y-74776444D01*
X-153902827Y-74844257D01*
X-153902827Y-74913397D01*
X-153916316Y-74981210D01*
X-153942775Y-75045088D01*
X-153981188Y-75102577D01*
X-154030077Y-75151466D01*
X-154087566Y-75189879D01*
X-154151444Y-75216338D01*
X-154219257Y-75229827D01*
X-154288397Y-75229827D01*
X-154356210Y-75216338D01*
X-154420088Y-75189879D01*
X-154477577Y-75151466D01*
X-154526466Y-75102577D01*
X-154564879Y-75045088D01*
X-154591338Y-74981210D01*
X-154604827Y-74913397D01*
X-154604827Y-74844257D01*
X-154591338Y-74776444D01*
X-154564879Y-74712566D01*
X-154526466Y-74655077D01*
X-154477577Y-74606188D01*
X-154420088Y-74567775D01*
X-154356210Y-74541316D01*
X-154288397Y-74527827D01*
X-154219257Y-74527827D01*
X-154151444Y-74541316D01*
X-154151444Y-74541316D01*
G37*
G36*
X-237963510Y-73440490D02*
X-240064490Y-73440490D01*
X-240064490Y-71339510D01*
X-237963510Y-71339510D01*
X-237963510Y-73440490D01*
X-237963510Y-73440490D01*
G37*
G36*
X-238834586Y-59695879D02*
X-238834584Y-59695880D01*
X-238834583Y-59695880D01*
X-238643406Y-59775068D01*
X-238471349Y-59890033D01*
X-238325033Y-60036349D01*
X-238210068Y-60208406D01*
X-238130879Y-60399586D01*
X-238090510Y-60602534D01*
X-238090510Y-60809466D01*
X-238130879Y-61012414D01*
X-238210068Y-61203594D01*
X-238325033Y-61375651D01*
X-238471349Y-61521967D01*
X-238471352Y-61521969D01*
X-238643406Y-61636932D01*
X-238834583Y-61716120D01*
X-238834584Y-61716120D01*
X-238834586Y-61716121D01*
X-239037534Y-61756490D01*
X-239244466Y-61756490D01*
X-239447414Y-61716121D01*
X-239447416Y-61716120D01*
X-239447417Y-61716120D01*
X-239638594Y-61636932D01*
X-239810648Y-61521969D01*
X-239810651Y-61521967D01*
X-239956967Y-61375651D01*
X-240071932Y-61203594D01*
X-240151121Y-61012414D01*
X-240191490Y-60809466D01*
X-240191490Y-60602534D01*
X-240151121Y-60399586D01*
X-240071932Y-60208406D01*
X-239956967Y-60036349D01*
X-239810651Y-59890033D01*
X-239638594Y-59775068D01*
X-239447417Y-59695880D01*
X-239447416Y-59695880D01*
X-239447414Y-59695879D01*
X-239244466Y-59655510D01*
X-239037534Y-59655510D01*
X-238834586Y-59695879D01*
X-238834586Y-59695879D01*
G37*
G36*
X-238834586Y-56139879D02*
X-238834584Y-56139880D01*
X-238834583Y-56139880D01*
X-238643406Y-56219068D01*
X-238471349Y-56334033D01*
X-238325033Y-56480349D01*
X-238210068Y-56652406D01*
X-238130879Y-56843586D01*
X-238090510Y-57046534D01*
X-238090510Y-57253466D01*
X-238130879Y-57456414D01*
X-238210068Y-57647594D01*
X-238325033Y-57819651D01*
X-238471349Y-57965967D01*
X-238471352Y-57965969D01*
X-238643406Y-58080932D01*
X-238834583Y-58160120D01*
X-238834584Y-58160120D01*
X-238834586Y-58160121D01*
X-239037534Y-58200490D01*
X-239244466Y-58200490D01*
X-239447414Y-58160121D01*
X-239447416Y-58160120D01*
X-239447417Y-58160120D01*
X-239638594Y-58080932D01*
X-239810648Y-57965969D01*
X-239810651Y-57965967D01*
X-239956967Y-57819651D01*
X-240071932Y-57647594D01*
X-240151121Y-57456414D01*
X-240191490Y-57253466D01*
X-240191490Y-57046534D01*
X-240151121Y-56843586D01*
X-240071932Y-56652406D01*
X-239956967Y-56480349D01*
X-239810651Y-56334033D01*
X-239638594Y-56219068D01*
X-239447417Y-56139880D01*
X-239447416Y-56139880D01*
X-239447414Y-56139879D01*
X-239244466Y-56099510D01*
X-239037534Y-56099510D01*
X-238834586Y-56139879D01*
X-238834586Y-56139879D01*
G37*
G36*
X-238090510Y-54136490D02*
X-240191490Y-54136490D01*
X-240191490Y-52035510D01*
X-238090510Y-52035510D01*
X-238090510Y-54136490D01*
X-238090510Y-54136490D01*
G37*
G36*
X-238834586Y-48265879D02*
X-238834584Y-48265880D01*
X-238834583Y-48265880D01*
X-238643406Y-48345068D01*
X-238471349Y-48460033D01*
X-238325033Y-48606349D01*
X-238210068Y-48778406D01*
X-238130879Y-48969586D01*
X-238090510Y-49172534D01*
X-238090510Y-49379466D01*
X-238130879Y-49582414D01*
X-238210068Y-49773594D01*
X-238325033Y-49945651D01*
X-238471349Y-50091967D01*
X-238471352Y-50091969D01*
X-238643406Y-50206932D01*
X-238834583Y-50286120D01*
X-238834584Y-50286120D01*
X-238834586Y-50286121D01*
X-239037534Y-50326490D01*
X-239244466Y-50326490D01*
X-239447414Y-50286121D01*
X-239447416Y-50286120D01*
X-239447417Y-50286120D01*
X-239638594Y-50206932D01*
X-239810648Y-50091969D01*
X-239810651Y-50091967D01*
X-239956967Y-49945651D01*
X-240071932Y-49773594D01*
X-240151121Y-49582414D01*
X-240191490Y-49379466D01*
X-240191490Y-49172534D01*
X-240151121Y-48969586D01*
X-240071932Y-48778406D01*
X-239956967Y-48606349D01*
X-239810651Y-48460033D01*
X-239638594Y-48345068D01*
X-239447417Y-48265880D01*
X-239447416Y-48265880D01*
X-239447414Y-48265879D01*
X-239244466Y-48225510D01*
X-239037534Y-48225510D01*
X-238834586Y-48265879D01*
X-238834586Y-48265879D01*
G37*
G36*
X-90432912Y-25091658D02*
X-90251644Y-25127714D01*
X-90023976Y-25222017D01*
X-89820005Y-25358307D01*
X-89819078Y-25358926D01*
X-89644834Y-25533170D01*
X-89644832Y-25533173D01*
X-89507925Y-25738068D01*
X-89413622Y-25965736D01*
X-89365547Y-26207426D01*
X-89365547Y-26453852D01*
X-89413622Y-26695542D01*
X-89507925Y-26923210D01*
X-89600071Y-27061115D01*
X-89644834Y-27128108D01*
X-89819078Y-27302352D01*
X-89819081Y-27302354D01*
X-90023976Y-27439261D01*
X-90251644Y-27533564D01*
X-90432911Y-27569620D01*
X-90493333Y-27581639D01*
X-90739761Y-27581639D01*
X-90800183Y-27569620D01*
X-90981450Y-27533564D01*
X-91209118Y-27439261D01*
X-91414013Y-27302354D01*
X-91414016Y-27302352D01*
X-91588260Y-27128108D01*
X-91633023Y-27061115D01*
X-91725169Y-26923210D01*
X-91819472Y-26695542D01*
X-91867547Y-26453852D01*
X-91867547Y-26207426D01*
X-91819472Y-25965736D01*
X-91725169Y-25738068D01*
X-91588262Y-25533173D01*
X-91588260Y-25533170D01*
X-91414016Y-25358926D01*
X-91413089Y-25358307D01*
X-91209118Y-25222017D01*
X-90981450Y-25127714D01*
X-90800183Y-25091658D01*
X-90739761Y-25079639D01*
X-90493333Y-25079639D01*
X-90432912Y-25091658D01*
X-90432912Y-25091658D01*
G37*
G36*
X-225108827Y-25024668D02*
X-224927560Y-25060724D01*
X-224699892Y-25155027D01*
X-224495921Y-25291317D01*
X-224494994Y-25291936D01*
X-224320750Y-25466180D01*
X-224320748Y-25466183D01*
X-224183841Y-25671078D01*
X-224089538Y-25898746D01*
X-224041463Y-26140436D01*
X-224041463Y-26386862D01*
X-224089538Y-26628552D01*
X-224183841Y-26856220D01*
X-224320131Y-27060191D01*
X-224320750Y-27061118D01*
X-224494994Y-27235362D01*
X-224494997Y-27235364D01*
X-224699892Y-27372271D01*
X-224927560Y-27466574D01*
X-225108828Y-27502630D01*
X-225169249Y-27514649D01*
X-225415677Y-27514649D01*
X-225476099Y-27502630D01*
X-225657366Y-27466574D01*
X-225885034Y-27372271D01*
X-226089929Y-27235364D01*
X-226089932Y-27235362D01*
X-226264176Y-27061118D01*
X-226264795Y-27060191D01*
X-226401085Y-26856220D01*
X-226495388Y-26628552D01*
X-226543463Y-26386862D01*
X-226543463Y-26140436D01*
X-226495388Y-25898746D01*
X-226401085Y-25671078D01*
X-226264178Y-25466183D01*
X-226264176Y-25466180D01*
X-226089932Y-25291936D01*
X-226089005Y-25291317D01*
X-225885034Y-25155027D01*
X-225657366Y-25060724D01*
X-225476099Y-25024668D01*
X-225415677Y-25012649D01*
X-225169249Y-25012649D01*
X-225108827Y-25024668D01*
X-225108827Y-25024668D01*
G37*
G36*
X-86860963Y-21495547D02*
X-86659542Y-21535612D01*
X-86431874Y-21629915D01*
X-86240050Y-21758088D01*
X-86226976Y-21766824D01*
X-86052732Y-21941068D01*
X-86052730Y-21941071D01*
X-85915823Y-22145966D01*
X-85821520Y-22373634D01*
X-85773445Y-22615324D01*
X-85773445Y-22861750D01*
X-85821520Y-23103440D01*
X-85915823Y-23331108D01*
X-85976023Y-23421203D01*
X-86052732Y-23536006D01*
X-86226976Y-23710250D01*
X-86226979Y-23710252D01*
X-86431874Y-23847159D01*
X-86659542Y-23941462D01*
X-86840810Y-23977518D01*
X-86901231Y-23989537D01*
X-87147659Y-23989537D01*
X-87208081Y-23977518D01*
X-87389348Y-23941462D01*
X-87617016Y-23847159D01*
X-87821911Y-23710252D01*
X-87821914Y-23710250D01*
X-87996158Y-23536006D01*
X-88072867Y-23421203D01*
X-88133067Y-23331108D01*
X-88227370Y-23103440D01*
X-88275445Y-22861750D01*
X-88275445Y-22615324D01*
X-88227370Y-22373634D01*
X-88133067Y-22145966D01*
X-87996160Y-21941071D01*
X-87996158Y-21941068D01*
X-87821914Y-21766824D01*
X-87808840Y-21758088D01*
X-87617016Y-21629915D01*
X-87389348Y-21535612D01*
X-87187927Y-21495547D01*
X-87147659Y-21487537D01*
X-86901231Y-21487537D01*
X-86860963Y-21495547D01*
X-86860963Y-21495547D01*
G37*
G36*
X-94045167Y-21495547D02*
X-93843746Y-21535612D01*
X-93616078Y-21629915D01*
X-93424254Y-21758088D01*
X-93411180Y-21766824D01*
X-93236936Y-21941068D01*
X-93236934Y-21941071D01*
X-93100027Y-22145966D01*
X-93005724Y-22373634D01*
X-92957649Y-22615324D01*
X-92957649Y-22861750D01*
X-93005724Y-23103440D01*
X-93100027Y-23331108D01*
X-93160227Y-23421203D01*
X-93236936Y-23536006D01*
X-93411180Y-23710250D01*
X-93411183Y-23710252D01*
X-93616078Y-23847159D01*
X-93843746Y-23941462D01*
X-94025014Y-23977518D01*
X-94085435Y-23989537D01*
X-94331863Y-23989537D01*
X-94392285Y-23977518D01*
X-94573552Y-23941462D01*
X-94801220Y-23847159D01*
X-95006115Y-23710252D01*
X-95006118Y-23710250D01*
X-95180362Y-23536006D01*
X-95257071Y-23421203D01*
X-95317271Y-23331108D01*
X-95411574Y-23103440D01*
X-95459649Y-22861750D01*
X-95459649Y-22615324D01*
X-95411574Y-22373634D01*
X-95317271Y-22145966D01*
X-95180364Y-21941071D01*
X-95180362Y-21941068D01*
X-95006118Y-21766824D01*
X-94993044Y-21758088D01*
X-94801220Y-21629915D01*
X-94573552Y-21535612D01*
X-94372131Y-21495547D01*
X-94331863Y-21487537D01*
X-94085435Y-21487537D01*
X-94045167Y-21495547D01*
X-94045167Y-21495547D01*
G37*
G36*
X-221516725Y-21432566D02*
X-221335458Y-21468622D01*
X-221107790Y-21562925D01*
X-220908063Y-21696379D01*
X-220902892Y-21699834D01*
X-220728648Y-21874078D01*
X-220728646Y-21874081D01*
X-220591739Y-22078976D01*
X-220497436Y-22306644D01*
X-220449361Y-22548334D01*
X-220449361Y-22794760D01*
X-220497436Y-23036450D01*
X-220591739Y-23264118D01*
X-220696700Y-23421203D01*
X-220728648Y-23469016D01*
X-220902892Y-23643260D01*
X-220902895Y-23643262D01*
X-221107790Y-23780169D01*
X-221335458Y-23874472D01*
X-221516725Y-23910528D01*
X-221577147Y-23922547D01*
X-221823575Y-23922547D01*
X-221883997Y-23910528D01*
X-222065264Y-23874472D01*
X-222292932Y-23780169D01*
X-222497827Y-23643262D01*
X-222497830Y-23643260D01*
X-222672074Y-23469016D01*
X-222704022Y-23421203D01*
X-222808983Y-23264118D01*
X-222903286Y-23036450D01*
X-222951361Y-22794760D01*
X-222951361Y-22548334D01*
X-222903286Y-22306644D01*
X-222808983Y-22078976D01*
X-222672076Y-21874081D01*
X-222672074Y-21874078D01*
X-222497830Y-21699834D01*
X-222492659Y-21696379D01*
X-222292932Y-21562925D01*
X-222065264Y-21468622D01*
X-221883996Y-21432566D01*
X-221823575Y-21420547D01*
X-221577147Y-21420547D01*
X-221516725Y-21432566D01*
X-221516725Y-21432566D01*
G37*
G36*
X-228700929Y-21432566D02*
X-228519662Y-21468622D01*
X-228291994Y-21562925D01*
X-228092267Y-21696379D01*
X-228087096Y-21699834D01*
X-227912852Y-21874078D01*
X-227912850Y-21874081D01*
X-227775943Y-22078976D01*
X-227681640Y-22306644D01*
X-227633565Y-22548334D01*
X-227633565Y-22794760D01*
X-227681640Y-23036450D01*
X-227775943Y-23264118D01*
X-227880904Y-23421203D01*
X-227912852Y-23469016D01*
X-228087096Y-23643260D01*
X-228087099Y-23643262D01*
X-228291994Y-23780169D01*
X-228519662Y-23874472D01*
X-228700929Y-23910528D01*
X-228761351Y-23922547D01*
X-229007779Y-23922547D01*
X-229068201Y-23910528D01*
X-229249468Y-23874472D01*
X-229477136Y-23780169D01*
X-229682031Y-23643262D01*
X-229682034Y-23643260D01*
X-229856278Y-23469016D01*
X-229888226Y-23421203D01*
X-229993187Y-23264118D01*
X-230087490Y-23036450D01*
X-230135565Y-22794760D01*
X-230135565Y-22548334D01*
X-230087490Y-22306644D01*
X-229993187Y-22078976D01*
X-229856280Y-21874081D01*
X-229856278Y-21874078D01*
X-229682034Y-21699834D01*
X-229676863Y-21696379D01*
X-229477136Y-21562925D01*
X-229249468Y-21468622D01*
X-229068200Y-21432566D01*
X-229007779Y-21420547D01*
X-228761351Y-21420547D01*
X-228700929Y-21432566D01*
X-228700929Y-21432566D01*
G37*
G36*
X-90387121Y-21585133D02*
X-90273520Y-21607730D01*
X-90059502Y-21696379D01*
X-89954077Y-21766822D01*
X-89866888Y-21825080D01*
X-89703090Y-21988878D01*
X-89703088Y-21988881D01*
X-89574389Y-22181492D01*
X-89494800Y-22373637D01*
X-89485740Y-22395511D01*
X-89440547Y-22622710D01*
X-89440547Y-22854364D01*
X-89463144Y-22967964D01*
X-89485740Y-23081564D01*
X-89574389Y-23295582D01*
X-89598127Y-23331108D01*
X-89703090Y-23488196D01*
X-89866888Y-23651994D01*
X-89866891Y-23651996D01*
X-90059502Y-23780695D01*
X-90273520Y-23869344D01*
X-90387120Y-23891940D01*
X-90500720Y-23914537D01*
X-90732374Y-23914537D01*
X-90845974Y-23891940D01*
X-90959574Y-23869344D01*
X-91173592Y-23780695D01*
X-91366203Y-23651996D01*
X-91366206Y-23651994D01*
X-91530004Y-23488196D01*
X-91634967Y-23331108D01*
X-91658705Y-23295582D01*
X-91747354Y-23081564D01*
X-91769950Y-22967964D01*
X-91792547Y-22854364D01*
X-91792547Y-22622710D01*
X-91747354Y-22395511D01*
X-91738294Y-22373637D01*
X-91658705Y-22181492D01*
X-91530006Y-21988881D01*
X-91530004Y-21988878D01*
X-91366206Y-21825080D01*
X-91279017Y-21766822D01*
X-91173592Y-21696379D01*
X-90959574Y-21607730D01*
X-90845973Y-21585133D01*
X-90732374Y-21562537D01*
X-90500720Y-21562537D01*
X-90387121Y-21585133D01*
X-90387121Y-21585133D01*
G37*
G36*
X-225063036Y-21518144D02*
X-224949436Y-21540740D01*
X-224735418Y-21629389D01*
X-224635161Y-21696379D01*
X-224542804Y-21758090D01*
X-224379006Y-21921888D01*
X-224379004Y-21921891D01*
X-224250305Y-22114502D01*
X-224170716Y-22306647D01*
X-224161656Y-22328521D01*
X-224116463Y-22555720D01*
X-224116463Y-22787374D01*
X-224129788Y-22854363D01*
X-224161656Y-23014574D01*
X-224250305Y-23228592D01*
X-224378137Y-23419905D01*
X-224379006Y-23421206D01*
X-224542804Y-23585004D01*
X-224542807Y-23585006D01*
X-224735418Y-23713705D01*
X-224949436Y-23802354D01*
X-225063036Y-23824950D01*
X-225176636Y-23847547D01*
X-225408290Y-23847547D01*
X-225521890Y-23824950D01*
X-225635490Y-23802354D01*
X-225849508Y-23713705D01*
X-226042119Y-23585006D01*
X-226042122Y-23585004D01*
X-226205920Y-23421206D01*
X-226206789Y-23419905D01*
X-226334621Y-23228592D01*
X-226423270Y-23014574D01*
X-226455138Y-22854363D01*
X-226468463Y-22787374D01*
X-226468463Y-22555720D01*
X-226423270Y-22328521D01*
X-226414210Y-22306647D01*
X-226334621Y-22114502D01*
X-226205922Y-21921891D01*
X-226205920Y-21921888D01*
X-226042122Y-21758090D01*
X-225949765Y-21696379D01*
X-225849508Y-21629389D01*
X-225635490Y-21540740D01*
X-225521889Y-21518143D01*
X-225408290Y-21495547D01*
X-225176636Y-21495547D01*
X-225063036Y-21518144D01*
X-225063036Y-21518144D01*
G37*
G36*
X-90432912Y-17907454D02*
X-90251644Y-17943510D01*
X-90023976Y-18037813D01*
X-89820005Y-18174103D01*
X-89819078Y-18174722D01*
X-89644834Y-18348966D01*
X-89644832Y-18348969D01*
X-89507925Y-18553864D01*
X-89413622Y-18781532D01*
X-89365547Y-19023222D01*
X-89365547Y-19269648D01*
X-89413622Y-19511338D01*
X-89507925Y-19739006D01*
X-89600071Y-19876911D01*
X-89644834Y-19943904D01*
X-89819078Y-20118148D01*
X-89819081Y-20118150D01*
X-90023976Y-20255057D01*
X-90251644Y-20349360D01*
X-90432911Y-20385416D01*
X-90493333Y-20397435D01*
X-90739761Y-20397435D01*
X-90800183Y-20385416D01*
X-90981450Y-20349360D01*
X-91209118Y-20255057D01*
X-91414013Y-20118150D01*
X-91414016Y-20118148D01*
X-91588260Y-19943904D01*
X-91633023Y-19876911D01*
X-91725169Y-19739006D01*
X-91819472Y-19511338D01*
X-91867547Y-19269648D01*
X-91867547Y-19023222D01*
X-91819472Y-18781532D01*
X-91725169Y-18553864D01*
X-91588262Y-18348969D01*
X-91588260Y-18348966D01*
X-91414016Y-18174722D01*
X-91413089Y-18174103D01*
X-91209118Y-18037813D01*
X-90981450Y-17943510D01*
X-90800183Y-17907454D01*
X-90739761Y-17895435D01*
X-90493333Y-17895435D01*
X-90432912Y-17907454D01*
X-90432912Y-17907454D01*
G37*
G36*
X-225108827Y-17840464D02*
X-224927560Y-17876520D01*
X-224699892Y-17970823D01*
X-224495921Y-18107113D01*
X-224494994Y-18107732D01*
X-224320750Y-18281976D01*
X-224320748Y-18281979D01*
X-224183841Y-18486874D01*
X-224089538Y-18714542D01*
X-224041463Y-18956232D01*
X-224041463Y-19202658D01*
X-224089538Y-19444348D01*
X-224183841Y-19672016D01*
X-224320131Y-19875987D01*
X-224320750Y-19876914D01*
X-224494994Y-20051158D01*
X-224494997Y-20051160D01*
X-224699892Y-20188067D01*
X-224927560Y-20282370D01*
X-225108827Y-20318426D01*
X-225169249Y-20330445D01*
X-225415677Y-20330445D01*
X-225476099Y-20318426D01*
X-225657366Y-20282370D01*
X-225885034Y-20188067D01*
X-226089929Y-20051160D01*
X-226089932Y-20051158D01*
X-226264176Y-19876914D01*
X-226264795Y-19875987D01*
X-226401085Y-19672016D01*
X-226495388Y-19444348D01*
X-226543463Y-19202658D01*
X-226543463Y-18956232D01*
X-226495388Y-18714542D01*
X-226401085Y-18486874D01*
X-226264178Y-18281979D01*
X-226264176Y-18281976D01*
X-226089932Y-18107732D01*
X-226089005Y-18107113D01*
X-225885034Y-17970823D01*
X-225657366Y-17876520D01*
X-225476099Y-17840464D01*
X-225415677Y-17828445D01*
X-225169249Y-17828445D01*
X-225108827Y-17840464D01*
X-225108827Y-17840464D01*
G37*
G36*
X-143838586Y-8006879D02*
X-143838584Y-8006880D01*
X-143838583Y-8006880D01*
X-143676466Y-8074031D01*
X-143647406Y-8086068D01*
X-143475349Y-8201033D01*
X-143329033Y-8347349D01*
X-143214068Y-8519406D01*
X-143134879Y-8710586D01*
X-143094510Y-8913534D01*
X-143094510Y-9120466D01*
X-143134879Y-9323414D01*
X-143214068Y-9514594D01*
X-143329033Y-9686651D01*
X-143475349Y-9832967D01*
X-143475352Y-9832969D01*
X-143647406Y-9947932D01*
X-143838583Y-10027120D01*
X-143838584Y-10027120D01*
X-143838586Y-10027121D01*
X-144041534Y-10067490D01*
X-144248466Y-10067490D01*
X-144451414Y-10027121D01*
X-144451416Y-10027120D01*
X-144451417Y-10027120D01*
X-144642594Y-9947932D01*
X-144814648Y-9832969D01*
X-144814651Y-9832967D01*
X-144960967Y-9686651D01*
X-145075932Y-9514594D01*
X-145155121Y-9323414D01*
X-145195490Y-9120466D01*
X-145195490Y-8913534D01*
X-145155121Y-8710586D01*
X-145075932Y-8519406D01*
X-144960967Y-8347349D01*
X-144814651Y-8201033D01*
X-144642594Y-8086068D01*
X-144613534Y-8074031D01*
X-144451417Y-8006880D01*
X-144451416Y-8006880D01*
X-144451414Y-8006879D01*
X-144248466Y-7966510D01*
X-144041534Y-7966510D01*
X-143838586Y-8006879D01*
X-143838586Y-8006879D01*
G37*
G36*
X-139284510Y-10067490D02*
X-141385490Y-10067490D01*
X-141385490Y-7966510D01*
X-139284510Y-7966510D01*
X-139284510Y-10067490D01*
X-139284510Y-10067490D01*
G37*
G36*
X-147267586Y-8006879D02*
X-147267584Y-8006880D01*
X-147267583Y-8006880D01*
X-147105466Y-8074031D01*
X-147076406Y-8086068D01*
X-146904349Y-8201033D01*
X-146758033Y-8347349D01*
X-146643068Y-8519406D01*
X-146563879Y-8710586D01*
X-146523510Y-8913534D01*
X-146523510Y-9120466D01*
X-146563879Y-9323414D01*
X-146643068Y-9514594D01*
X-146758033Y-9686651D01*
X-146904349Y-9832967D01*
X-146904352Y-9832969D01*
X-147076406Y-9947932D01*
X-147267583Y-10027120D01*
X-147267584Y-10027120D01*
X-147267586Y-10027121D01*
X-147470534Y-10067490D01*
X-147677466Y-10067490D01*
X-147880414Y-10027121D01*
X-147880416Y-10027120D01*
X-147880417Y-10027120D01*
X-148071594Y-9947932D01*
X-148243648Y-9832969D01*
X-148243651Y-9832967D01*
X-148389967Y-9686651D01*
X-148504932Y-9514594D01*
X-148584121Y-9323414D01*
X-148624490Y-9120466D01*
X-148624490Y-8913534D01*
X-148584121Y-8710586D01*
X-148504932Y-8519406D01*
X-148389967Y-8347349D01*
X-148243651Y-8201033D01*
X-148071594Y-8086068D01*
X-148042534Y-8074031D01*
X-147880417Y-8006880D01*
X-147880416Y-8006880D01*
X-147880414Y-8006879D01*
X-147677466Y-7966510D01*
X-147470534Y-7966510D01*
X-147267586Y-8006879D01*
X-147267586Y-8006879D01*
G37*
G36*
X-116914586Y-7879879D02*
X-116914584Y-7879880D01*
X-116914583Y-7879880D01*
X-116723406Y-7959068D01*
X-116551349Y-8074033D01*
X-116405033Y-8220349D01*
X-116290068Y-8392406D01*
X-116210879Y-8583586D01*
X-116170510Y-8786534D01*
X-116170510Y-8993466D01*
X-116210879Y-9196414D01*
X-116290068Y-9387594D01*
X-116405033Y-9559651D01*
X-116551349Y-9705967D01*
X-116551352Y-9705969D01*
X-116723406Y-9820932D01*
X-116914583Y-9900120D01*
X-116914584Y-9900120D01*
X-116914586Y-9900121D01*
X-117117534Y-9940490D01*
X-117324466Y-9940490D01*
X-117527414Y-9900121D01*
X-117527416Y-9900120D01*
X-117527417Y-9900120D01*
X-117718594Y-9820932D01*
X-117890648Y-9705969D01*
X-117890651Y-9705967D01*
X-118036967Y-9559651D01*
X-118151932Y-9387594D01*
X-118231121Y-9196414D01*
X-118271490Y-8993466D01*
X-118271490Y-8786534D01*
X-118231121Y-8583586D01*
X-118151932Y-8392406D01*
X-118036967Y-8220349D01*
X-117890651Y-8074033D01*
X-117718594Y-7959068D01*
X-117527417Y-7879880D01*
X-117527416Y-7879880D01*
X-117527414Y-7879879D01*
X-117324466Y-7839510D01*
X-117117534Y-7839510D01*
X-116914586Y-7879879D01*
X-116914586Y-7879879D01*
G37*
G36*
X-119980510Y-9940490D02*
X-122081490Y-9940490D01*
X-122081490Y-7839510D01*
X-119980510Y-7839510D01*
X-119980510Y-9940490D01*
X-119980510Y-9940490D01*
G37*
G36*
X-124788586Y-7879879D02*
X-124788584Y-7879880D01*
X-124788583Y-7879880D01*
X-124597406Y-7959068D01*
X-124425349Y-8074033D01*
X-124279033Y-8220349D01*
X-124164068Y-8392406D01*
X-124084879Y-8583586D01*
X-124044510Y-8786534D01*
X-124044510Y-8993466D01*
X-124084879Y-9196414D01*
X-124164068Y-9387594D01*
X-124279033Y-9559651D01*
X-124425349Y-9705967D01*
X-124425352Y-9705969D01*
X-124597406Y-9820932D01*
X-124788583Y-9900120D01*
X-124788584Y-9900120D01*
X-124788586Y-9900121D01*
X-124991534Y-9940490D01*
X-125198466Y-9940490D01*
X-125401414Y-9900121D01*
X-125401416Y-9900120D01*
X-125401417Y-9900120D01*
X-125592594Y-9820932D01*
X-125764648Y-9705969D01*
X-125764651Y-9705967D01*
X-125910967Y-9559651D01*
X-126025932Y-9387594D01*
X-126105121Y-9196414D01*
X-126145490Y-8993466D01*
X-126145490Y-8786534D01*
X-126105121Y-8583586D01*
X-126025932Y-8392406D01*
X-125910967Y-8220349D01*
X-125764651Y-8074033D01*
X-125592594Y-7959068D01*
X-125401417Y-7879880D01*
X-125401416Y-7879880D01*
X-125401414Y-7879879D01*
X-125198466Y-7839510D01*
X-124991534Y-7839510D01*
X-124788586Y-7879879D01*
X-124788586Y-7879879D01*
G37*
G36*
X-128344586Y-7879879D02*
X-128344584Y-7879880D01*
X-128344583Y-7879880D01*
X-128153406Y-7959068D01*
X-127981349Y-8074033D01*
X-127835033Y-8220349D01*
X-127720068Y-8392406D01*
X-127640879Y-8583586D01*
X-127600510Y-8786534D01*
X-127600510Y-8993466D01*
X-127640879Y-9196414D01*
X-127720068Y-9387594D01*
X-127835033Y-9559651D01*
X-127981349Y-9705967D01*
X-127981352Y-9705969D01*
X-128153406Y-9820932D01*
X-128344583Y-9900120D01*
X-128344584Y-9900120D01*
X-128344586Y-9900121D01*
X-128547534Y-9940490D01*
X-128754466Y-9940490D01*
X-128957414Y-9900121D01*
X-128957416Y-9900120D01*
X-128957417Y-9900120D01*
X-129148594Y-9820932D01*
X-129320648Y-9705969D01*
X-129320651Y-9705967D01*
X-129466967Y-9559651D01*
X-129581932Y-9387594D01*
X-129661121Y-9196414D01*
X-129701490Y-8993466D01*
X-129701490Y-8786534D01*
X-129661121Y-8583586D01*
X-129581932Y-8392406D01*
X-129466967Y-8220349D01*
X-129320651Y-8074033D01*
X-129148594Y-7959068D01*
X-128957417Y-7879880D01*
X-128957416Y-7879880D01*
X-128957414Y-7879879D01*
X-128754466Y-7839510D01*
X-128547534Y-7839510D01*
X-128344586Y-7879879D01*
X-128344586Y-7879879D01*
G37*
M02*
