M48
;DRILL file {KiCad 5.0.2-bee76a0~70~ubuntu18.04.1} date Sat 23 Mar 2019 07:21:51 PM EDT
;FORMAT={-:-/ absolute / inch / decimal}
FMAT,2
INCH,TZ
T1C0.0100
T2C0.0157
T3C0.0315
T4C0.0591
T5C0.0630
%
G90
G05
T1
X-9.37Y-3.66
X-9.33Y-3.405
X-9.32Y-2.615
X-9.25Y-0.65
X-9.22Y-2.395
X-9.22Y-6.48
X-9.21Y-0.66
X-9.2Y-6.44
X-9.18Y-3.44
X-9.17Y-0.67
X-9.16Y-3.58
X-9.16Y-6.4
X-9.155Y-2.78
X-9.14Y-0.54
X-9.14Y-0.7
X-9.14Y-3.36
X-9.14Y-6.58
X-9.12Y-0.57
X-9.12Y-3.58
X-9.12Y-6.36
X-9.11Y-0.73
X-9.1Y-3.32
X-9.1Y-3.4
X-9.1Y-3.46
X-9.1Y-6.32
X-9.1Y-6.5
X-9.1Y-6.56
X-9.09Y-0.59
X-9.08Y-0.76
X-9.08Y-3.58
X-9.08Y-6.28
X-9.07Y-4.92
X-9.06Y-0.62
X-9.06Y-2.96
X-9.06Y-6.46
X-9.05Y-0.79
X-9.05Y-4.16
X-9.045Y-3.1
X-9.04Y-3.58
X-9.03Y-0.64
X-9.02Y-0.81
X-9.02Y-3.28
X-9.02Y-6.42
X-9.015Y-2.6
X-9.Y-0.67
X-9.Y-3.58
X-8.98Y-4.52
X-8.98Y-4.64
X-8.98Y-6.38
X-8.96Y-0.68
X-8.96Y-6.34
X-8.94Y-3.02
X-8.94Y-3.22
X-8.94Y-3.58
X-8.94Y-4.54
X-8.94Y-4.62
X-8.93Y-0.7
X-8.9Y-3.12
X-8.9Y-3.58
X-8.9Y-4.54
X-8.9Y-4.62
X-8.86Y-3.58
X-8.86Y-4.34
X-8.86Y-4.54
X-8.86Y-4.62
X-8.84Y-3.02
X-8.82Y-3.58
X-8.82Y-4.4
X-8.82Y-4.54
X-8.82Y-4.62
X-8.8Y-1.14
X-8.8Y-4.28
X-8.79Y-1.06
X-8.78Y-3.14
X-8.78Y-6.02
X-8.76Y-1.09
X-8.76Y-1.17
X-8.74Y-3.06
X-8.74Y-3.305
X-8.72Y-0.97
X-8.72Y-1.13
X-8.72Y-5.94
X-8.705Y-3.585
X-8.705Y-3.68
X-8.7Y-4.72
X-8.7Y-4.76
X-8.7Y-6.12
X-8.69Y-1.
X-8.68Y-4.3
X-8.68Y-4.8
X-8.66Y-1.27
X-8.66Y-6.08
X-8.64Y-3.46
X-8.64Y-3.58
X-8.64Y-4.28
X-8.64Y-4.84
X-8.64Y-5.88
X-8.635Y-2.97
X-8.63Y-1.05
X-8.62Y-6.04
X-8.615Y-3.045
X-8.61Y-1.28
X-8.61Y-1.455
X-8.6Y-4.24
X-8.6Y-4.62
X-8.6Y-4.66
X-8.6Y-4.7
X-8.6Y-4.76
X-8.6Y-4.88
X-8.6Y-5.82
X-8.59Y-1.09
X-8.58Y-2.97
X-8.58Y-3.01
X-8.58Y-3.48
X-8.58Y-4.36
X-8.58Y-4.4
X-8.56Y-1.12
X-8.56Y-3.6
X-8.56Y-4.2
X-8.56Y-4.6
X-8.56Y-4.8
X-8.56Y-4.92
X-8.54Y-4.42
X-8.54Y-5.78
X-8.53Y-3.28
X-8.52Y-1.14
X-8.52Y-3.78
X-8.52Y-4.46
X-8.52Y-4.52
X-8.52Y-4.56
X-8.52Y-4.84
X-8.5Y-3.34
X-8.5Y-3.46
X-8.5Y-3.74
X-8.5Y-5.96
X-8.5Y-6.
X-8.48Y-1.17
X-8.48Y-3.4
X-8.48Y-3.6
X-8.48Y-3.82
X-8.48Y-5.72
X-8.48Y-5.72
X-8.48Y-5.72
X-8.48Y-5.92
X-8.47Y-3.135
X-8.465Y-3.1
X-8.46Y-1.4
X-8.44Y-1.24
X-8.44Y-3.74
X-8.44Y-3.86
X-8.44Y-5.9
X-8.435Y-3.125
X-8.43Y-1.47
X-8.42Y-3.56
X-8.42Y-5.68
X-8.4Y-1.5
X-8.4Y-3.78
X-8.4Y-3.9
X-8.39Y-1.28
X-8.38Y-3.49
X-8.38Y-5.64
X-8.37Y-1.52
X-8.36Y-1.32
X-8.36Y-3.82
X-8.36Y-3.94
X-8.36Y-3.98
X-8.36Y-5.6
X-8.36Y-5.78
X-8.345Y-3.56
X-8.34Y-4.28
X-8.34Y-4.72
X-8.34Y-4.96
X-8.33Y-1.36
X-8.33Y-1.54
X-8.32Y-3.86
X-8.32Y-5.58
X-8.32Y-5.74
X-8.32Y-5.82
X-8.315Y-5.93
X-8.305Y-3.085
X-8.305Y-3.155
X-8.3Y-1.39
X-8.3Y-3.3
X-8.3Y-4.26
X-8.3Y-4.76
X-8.3Y-4.98
X-8.295Y-6.295
X-8.29Y-1.55
X-8.29Y-1.59
X-8.28Y-1.63
X-8.28Y-3.125
X-8.28Y-3.62
X-8.28Y-3.88
X-8.28Y-4.
X-8.28Y-4.06
X-8.28Y-4.1
X-8.28Y-5.48
X-8.28Y-5.54
X-8.28Y-5.74
X-8.28Y-5.86
X-8.27Y-1.42
X-8.26Y-4.16
X-8.26Y-4.24
X-8.26Y-4.78
X-8.26Y-4.9
X-8.26Y-5.02
X-8.255Y-3.02
X-8.255Y-3.5
X-8.25Y-1.65
X-8.24Y-1.45
X-8.24Y-4.86
X-8.24Y-5.44
X-8.24Y-5.7
X-8.23Y-5.
X-8.22Y-1.69
X-8.22Y-3.1
X-8.22Y-4.14
X-8.22Y-4.24
X-8.22Y-4.94
X-8.22Y-5.62
X-8.21Y-1.48
X-8.2Y-4.78
X-8.2Y-5.4
X-8.2Y-5.66
X-8.19Y-1.72
X-8.19Y-3.025
X-8.18Y-3.6
X-8.18Y-4.18
X-8.18Y-4.24
X-8.18Y-4.86
X-8.18Y-4.98
X-8.17Y-1.49
X-8.165Y-3.19
X-8.16Y-3.5
X-8.16Y-4.78
X-8.16Y-5.38
X-8.16Y-5.62
X-8.15Y-1.74
X-8.14Y-3.1
X-8.14Y-4.86
X-8.13Y-1.5
X-8.13Y-1.77
X-8.13Y-3.155
X-8.12Y-3.025
X-8.12Y-5.36
X-8.12Y-5.58
X-8.1Y-1.53
X-8.1Y-1.81
X-8.1Y-3.5
X-8.1Y-3.6
X-8.1Y-4.78
X-8.1Y-4.86
X-8.09Y-0.47
X-8.09Y-3.19
X-8.08Y-5.32
X-8.08Y-5.54
X-8.06Y-1.57
X-8.06Y-1.84
X-8.06Y-4.78
X-8.06Y-5.44
X-8.055Y-3.05
X-8.05Y-1.61
X-8.04Y-3.5
X-8.04Y-3.6
X-8.04Y-4.86
X-8.04Y-5.28
X-8.04Y-5.5
X-8.03Y-1.65
X-8.025Y-3.425
X-8.01Y-3.1
X-8.Y-1.68
X-8.Y-1.86
X-8.Y-4.78
X-8.Y-4.86
X-8.Y-5.26
X-8.Y-5.46
X-7.98Y-2.05
X-7.98Y-2.1
X-7.98Y-2.94
X-7.98Y-3.5
X-7.98Y-3.6
X-7.98Y-4.94
X-7.98Y-5.
X-7.97Y-1.71
X-7.96Y-4.78
X-7.96Y-4.86
X-7.96Y-5.22
X-7.96Y-5.42
X-7.95Y-1.95
X-7.95Y-2.01
X-7.95Y-5.845
X-7.94Y-1.74
X-7.94Y-2.15
X-7.94Y-2.19
X-7.94Y-3.
X-7.94Y-5.04
X-7.94Y-5.18
X-7.94Y-5.32
X-7.92Y-1.98
X-7.92Y-2.68
X-7.92Y-2.74
X-7.92Y-2.84
X-7.92Y-2.96
X-7.92Y-3.48
X-7.92Y-4.92
X-7.92Y-5.14
X-7.92Y-5.38
X-7.91Y-1.78
X-7.9Y-4.78
X-7.9Y-5.08
X-7.9Y-5.3
X-7.88Y-2.86
X-7.88Y-2.98
X-7.88Y-3.6
X-7.88Y-4.94
X-7.86Y-2.72
X-7.86Y-2.82
X-7.86Y-2.94
X-7.86Y-3.14
X-7.86Y-3.38
X-7.86Y-3.48
X-7.86Y-4.8
X-7.86Y-5.32
X-7.85Y-1.83
X-7.84Y-2.12
X-7.84Y-3.34
X-7.84Y-4.98
X-7.82Y-3.08
X-7.82Y-3.44
X-7.82Y-3.6
X-7.82Y-5.3
X-7.81Y-1.84
X-7.81Y-2.09
X-7.8Y-3.4
X-7.8Y-4.96
X-7.8Y-5.02
X-7.8Y-5.26
X-7.78Y-3.12
X-7.77Y-1.85
X-7.76Y-3.6
X-7.76Y-5.24
X-7.73Y-1.84
X-7.72Y-3.515
X-7.72Y-4.86
X-7.71Y-2.23
X-7.7Y-5.12
X-7.69Y-1.81
X-7.69Y-1.95
X-7.68Y-2.12
X-7.68Y-2.26
X-7.68Y-4.82
X-7.68Y-4.88
X-7.68Y-5.16
X-7.67Y-2.07
X-7.66Y-1.79
X-7.66Y-1.93
X-7.66Y-3.62
X-7.66Y-5.12
X-7.64Y-1.96
X-7.64Y-2.1
X-7.64Y-2.23
X-7.64Y-4.86
X-7.62Y-1.78
X-7.62Y-5.18
X-7.605Y-3.525
X-7.58Y-3.62
X-7.5743Y-2.905
X-7.57Y-1.85
X-7.56Y-5.
X-7.55Y-1.76
X-7.54Y-1.83
X-7.54Y-2.07
X-7.54Y-2.12
X-7.54Y-4.72
X-7.54Y-4.96
X-7.53Y-1.71
X-7.53Y-1.79
X-7.52Y-1.66
X-7.52Y-3.52
X-7.52Y-3.62
X-7.52Y-5.04
X-7.51Y-2.09
X-7.5Y-4.72
X-7.5Y-4.98
X-7.48Y-1.69
X-7.48Y-3.48
X-7.47Y-1.91
X-7.46Y-3.52
X-7.46Y-3.62
X-7.46Y-4.7
X-7.45Y-1.72
X-7.45Y-1.87
X-7.44Y-1.77
X-7.44Y-1.82
X-7.42Y-2.43
X-7.42Y-4.66
X-7.4Y-2.26
X-7.4Y-3.52
X-7.4Y-3.62
X-7.39Y-2.21
X-7.39Y-2.47
X-7.38Y-2.3
X-7.38Y-4.62
X-7.36Y-2.5
X-7.36Y-4.58
X-7.35Y-2.2
X-7.34Y-2.16
X-7.34Y-2.34
X-7.34Y-3.52
X-7.34Y-4.78
X-7.32Y-3.62
X-7.32Y-4.72
X-7.3002Y-1.395
X-7.28Y-3.52
X-7.28Y-4.7
X-7.26Y-2.66
X-7.26Y-2.8
X-7.25Y-2.6
X-7.24Y-2.42
X-7.24Y-2.74
X-7.24Y-2.86
X-7.24Y-3.62
X-7.24Y-3.96
X-7.24Y-4.
X-7.24Y-4.04
X-7.24Y-4.08
X-7.24Y-4.48
X-7.24Y-4.66
X-7.22Y-2.44
X-7.22Y-2.7
X-7.22Y-2.92
X-7.22Y-3.92
X-7.22Y-4.12
X-7.22Y-4.32
X-7.2Y-3.52
X-7.2Y-4.38
X-7.2Y-4.44
X-7.18Y-2.5
X-7.18Y-3.62
X-7.18Y-3.9
X-7.16Y-3.52
X-7.14Y-2.54
X-7.14Y-2.88
X-7.14Y-3.86
X-7.14Y-3.98
X-7.14Y-4.02
X-7.14Y-4.06
X-7.12Y-3.62
X-7.12Y-4.22
X-7.12Y-4.58
X-7.1Y-2.56
X-7.1Y-2.84
X-7.1Y-3.52
X-7.1Y-3.94
X-7.1Y-4.28
X-7.08Y-2.8
X-7.08Y-3.82
X-7.08Y-4.54
X-7.08Y-5.24
X-7.06Y-2.58
X-7.06Y-3.52
X-7.06Y-3.62
X-7.06Y-3.9
X-7.06Y-4.24
X-7.06Y-5.82
X-7.04Y-4.04
X-7.04Y-4.5
X-7.04Y-4.58
X-7.04Y-5.2
X-7.02Y-3.82
X-7.02Y-3.9
X-7.Y-2.56
X-7.Y-3.52
X-7.Y-3.62
X-7.Y-5.82
X-6.98Y-2.94
X-6.98Y-3.82
X-6.98Y-3.9
X-6.98Y-4.14
X-6.98Y-4.4
X-6.96Y-2.54
X-6.96Y-2.68
X-6.96Y-2.84
X-6.96Y-3.
X-6.96Y-4.08
X-6.96Y-4.58
X-6.96Y-5.18
X-6.96Y-5.84
X-6.94Y-2.8
X-6.94Y-2.96
X-6.94Y-3.52
X-6.94Y-3.82
X-6.94Y-4.14
X-6.94Y-4.44
X-6.94Y-5.22
X-6.92Y-2.52
X-6.92Y-2.66
X-6.92Y-2.84
X-6.92Y-3.62
X-6.92Y-3.9
X-6.92Y-4.1
X-6.92Y-4.4
X-6.92Y-5.84
X-6.9Y-2.7
X-6.9Y-2.96
X-6.9Y-3.48
X-6.9Y-3.82
X-6.9Y-5.18
X-6.88Y-3.9
X-6.88Y-5.26
X-6.86Y-2.54
X-6.86Y-3.44
X-6.86Y-3.6
X-6.86Y-3.82
X-6.8457Y-4.885
X-6.82Y-3.56
X-6.82Y-3.82
X-6.82Y-3.9
X-6.82Y-4.26
X-6.82Y-5.18
X-6.82Y-5.24
X-6.82Y-5.3
X-6.8Y-2.56
X-6.8Y-2.8
X-6.8Y-2.84
X-6.8Y-3.34
X-6.8Y-4.
X-6.8Y-4.22
X-6.78Y-3.52
X-6.78Y-3.82
X-6.78Y-3.9
X-6.78Y-4.3
X-6.78Y-5.18
X-6.78Y-5.22
X-6.765Y-6.86
X-6.76Y-2.52
X-6.76Y-2.8
X-6.76Y-3.32
X-6.76Y-4.
X-6.76Y-5.26
X-6.74Y-2.64
X-6.74Y-3.82
X-6.74Y-5.22
X-6.72Y-2.55
X-6.72Y-2.72
X-6.72Y-3.14
X-6.72Y-3.3
X-6.72Y-3.9
X-6.72Y-3.98
X-6.7Y-2.6
X-6.7Y-2.66
X-6.7Y-3.18
X-6.7Y-3.22
X-6.7Y-3.26
X-6.7Y-3.42
X-6.7Y-3.82
X-6.69Y-1.71
X-6.68Y-2.92
X-6.68Y-2.96
X-6.68Y-3.
X-6.68Y-3.94
X-6.68Y-4.96
X-6.68Y-5.62
X-6.68Y-5.78
X-6.66Y-3.38
X-6.66Y-3.82
X-6.66Y-3.9
X-6.66Y-5.1
X-6.66Y-5.14
X-6.64Y-2.86
X-6.64Y-2.92
X-6.64Y-3.04
X-6.64Y-4.92
X-6.64Y-5.6
X-6.64Y-5.82
X-6.62Y-3.34
X-6.62Y-3.82
X-6.62Y-3.94
X-6.62Y-4.04
X-6.62Y-5.18
X-6.62Y-5.76
X-6.6Y-3.1
X-6.6Y-3.16
X-6.6Y-3.22
X-6.6Y-3.28
X-6.6Y-3.9
X-6.6Y-5.5
X-6.6Y-5.64
X-6.58Y-3.82
X-6.58Y-4.94
X-6.58Y-5.4
X-6.58Y-5.68
X-6.56Y-3.94
X-6.56Y-4.02
X-6.56Y-5.
X-6.54Y-3.82
X-6.54Y-3.9
X-6.5Y-3.86
X-6.5Y-3.94
X-6.5Y-4.02
X-6.5Y-5.86
X-6.48Y-5.62
X-6.48Y-5.98
X-6.46Y-4.06
X-6.46Y-6.065
X-6.44Y-3.94
X-6.44Y-4.94
X-6.44Y-4.98
X-6.44Y-5.64
X-6.44Y-5.8
X-6.44Y-5.86
X-6.44Y-5.96
X-6.42Y-4.1
X-6.42Y-6.02
X-6.42Y-6.3
X-6.4Y-3.98
X-6.4Y-4.96
X-6.4Y-5.12
X-6.4Y-6.16
X-6.39Y-0.55
X-6.38Y-5.8
X-6.38Y-5.86
X-6.38Y-5.98
X-6.36Y-4.02
X-6.36Y-6.32
X-6.35Y-6.635
X-6.34Y-5.12
X-6.34Y-5.35
X-6.34Y-6.42
X-6.33Y-6.51
X-6.32Y-4.2
X-6.32Y-5.2
X-6.32Y-5.8
X-6.32Y-5.86
X-6.32Y-6.
X-6.32Y-6.14
X-6.3Y-5.28
X-6.3Y-5.48
X-6.3Y-6.42
X-6.28Y-4.22
X-6.28Y-5.12
X-6.28Y-5.18
X-6.28Y-5.24
X-6.28Y-5.9
X-6.28Y-5.94
X-6.28Y-5.98
X-6.275Y-5.705
X-6.265Y-5.58
X-6.26Y-1.06
X-6.26Y-4.26
X-6.26Y-5.3
X-6.26Y-5.34
X-6.26Y-5.38
X-6.26Y-5.42
X-6.26Y-5.46
X-6.25Y-5.045
X-6.24Y-4.14
X-6.24Y-4.3
X-6.24Y-4.36
X-6.24Y-4.42
X-6.24Y-4.46
X-6.24Y-4.52
X-6.24Y-4.56
X-6.24Y-4.6
X-6.24Y-4.66
X-6.24Y-4.72
X-6.24Y-4.76
X-6.24Y-4.8
X-6.24Y-4.84
X-6.24Y-4.93
X-6.22Y-5.74
X-6.2Y-2.16
X-6.2Y-4.18
X-6.2Y-5.9
X-6.2Y-5.94
X-6.2Y-5.98
X-6.2Y-6.34
X-6.2Y-6.38
X-6.2Y-6.42
X-6.19Y-2.045
X-6.18Y-5.02
X-6.18Y-5.08
X-6.18Y-5.78
X-6.18Y-5.82
X-6.18Y-5.86
X-6.18Y-6.03
X-6.18Y-6.14
X-6.18Y-6.18
X-6.18Y-6.24
X-6.18Y-6.3
X-6.175Y-1.51
X-6.165Y-1.385
X-6.16Y-4.22
X-6.16Y-4.26
X-6.16Y-4.3
X-6.16Y-4.36
X-6.16Y-4.4
X-6.16Y-4.44
X-6.16Y-4.5
X-6.16Y-4.54
X-6.16Y-4.6
X-6.16Y-4.64
X-6.16Y-4.64
X-6.16Y-4.64
X-6.16Y-4.68
X-6.16Y-4.72
X-6.16Y-4.76
X-6.16Y-4.8
X-6.16Y-4.84
X-6.16Y-5.24
X-6.16Y-5.3
X-6.16Y-5.34
X-6.16Y-5.38
X-6.16Y-5.42
X-6.16Y-5.46
X-6.16Y-5.5
X-6.16Y-5.54
X-6.16Y-5.58
X-6.16Y-5.62
X-6.14Y-4.94
X-6.14Y-5.
X-6.14Y-5.12
X-6.14Y-5.18
X-6.11Y-6.54
X-6.105Y-0.58
X-6.1Y-1.74
X-6.08Y-0.435
X-5.98Y-1.025
X-5.795Y-6.075
X-5.74Y-4.5
X-5.63Y-1.57
X-5.585Y-3.42
X-5.545Y-5.89
X-5.47Y-0.55
X-5.Y-5.29
X-4.8857Y-4.165
X-4.85Y-6.69
X-4.835Y-3.565
X-4.72Y-3.575
X-4.56Y-2.36
X-4.415Y-3.665
X-4.29Y-2.99
X-4.2Y-2.16
X-4.185Y-3.59
X-4.145Y-1.185
X-4.06Y-3.6
X-3.855Y-5.425
X-3.735Y-3.39
X-3.735Y-3.505
X-3.7Y-3.785
X-3.67Y-5.645
X-3.38Y-2.76
X-3.265Y-2.345
X-3.26Y-3.665
X-3.22Y-4.24
X-3.1Y-3.7
X-3.06Y-1.78
X-2.93Y-4.5
T2
X-5.687Y-3.628
X-5.655Y-3.66
X-5.623Y-3.692
X-6.817Y-3.398
X-6.785Y-3.43
X-6.753Y-3.462
X-6.137Y-3.012
X-6.105Y-2.98
X-6.073Y-2.948
X-6.367Y-4.142
X-6.335Y-4.11
X-6.303Y-4.078
T3
X-6.915Y-6.735
X-6.765Y-6.735
X-9.41Y-3.135
X-7.515Y-6.74
X-4.925Y-0.35
X-7.375Y-6.74
X-5.065Y-0.35
X-3.025Y-5.
X-3.025Y-5.15
X-3.03Y-3.955
X-4.415Y-6.86
X-9.415Y-2.25
X-9.415Y-2.39
X-3.03Y-4.09
X-3.03Y-4.24
X-4.765Y-0.35
X-4.615Y-0.35
X-7.825Y-6.74
X-7.675Y-6.74
X-5.675Y-0.355
X-5.525Y-0.355
X-9.41Y-2.85
X-9.41Y-3.
X-3.025Y-4.84
X-4.56Y-6.86
X-3.025Y-4.7
X-6.63Y-6.735
X-5.81Y-0.355
X-4.7Y-6.86
X-9.415Y-1.94
X-9.415Y-2.09
T4
X-8.8698Y-0.8926
X-3.5676Y-0.8952
X-8.8724Y-6.1948
X-3.5702Y-6.1974
T5
X-9.0112Y-0.8926
X-8.8698Y-0.7512
X-8.8698Y-1.034
X-8.7284Y-0.8926
X-3.709Y-0.8952
X-3.5676Y-0.7538
X-3.5676Y-1.0366
X-3.4262Y-0.8952
X-9.0138Y-6.1948
X-8.8724Y-6.0534
X-8.8724Y-6.3362
X-8.731Y-6.1948
X-3.7116Y-6.1974
X-3.5702Y-6.056
X-3.5702Y-6.3388
X-3.4288Y-6.1974
T0
M30
