G04 #@! TF.GenerationSoftware,KiCad,Pcbnew,5.0.2-bee76a0~70~ubuntu18.04.1*
G04 #@! TF.CreationDate,2019-03-03T20:31:20-05:00*
G04 #@! TF.ProjectId,agc,6167632e-6b69-4636-9164-5f7063625858,rev?*
G04 #@! TF.SameCoordinates,Original*
G04 #@! TF.FileFunction,Copper,L2,Bot*
G04 #@! TF.FilePolarity,Positive*
%FSLAX46Y46*%
G04 Gerber Fmt 4.6, Leading zero omitted, Abs format (unit mm)*
G04 Created by KiCad (PCBNEW 5.0.2-bee76a0~70~ubuntu18.04.1) date Sun 03 Mar 2019 08:31:20 PM EST*
%MOMM*%
%LPD*%
G01*
G04 APERTURE LIST*
G04 #@! TA.AperFunction,ComponentPad*
%ADD10C,1.650000*%
G04 #@! TD*
G04 #@! TA.AperFunction,ComponentPad*
%ADD11C,2.400000*%
G04 #@! TD*
G04 #@! TA.AperFunction,ComponentPad*
%ADD12C,1.998980*%
G04 #@! TD*
G04 #@! TA.AperFunction,ViaPad*
%ADD13C,0.685800*%
G04 #@! TD*
G04 #@! TA.AperFunction,Conductor*
%ADD14C,0.812800*%
G04 #@! TD*
G04 #@! TA.AperFunction,Conductor*
%ADD15C,0.152400*%
G04 #@! TD*
G04 APERTURE END LIST*
D10*
G04 #@! TO.P,J1,1*
G04 #@! TO.N,Net-(C6-Pad2)*
X78740000Y-143764000D03*
D11*
G04 #@! TO.P,J1,2*
G04 #@! TO.N,GND*
X75610000Y-140634000D03*
G04 #@! TO.P,J1,3*
X81870000Y-140634000D03*
G04 #@! TO.P,J1,4*
X81870000Y-146894000D03*
G04 #@! TO.P,J1,5*
X75610000Y-146894000D03*
G04 #@! TD*
G04 #@! TO.P,J2,5*
G04 #@! TO.N,GND*
X81870000Y-128442000D03*
G04 #@! TO.P,J2,4*
X75610000Y-128442000D03*
G04 #@! TO.P,J2,3*
X75610000Y-134702000D03*
G04 #@! TO.P,J2,2*
X81870000Y-134702000D03*
D10*
G04 #@! TO.P,J2,1*
G04 #@! TO.N,Net-(J2-Pad1)*
X78740000Y-131572000D03*
G04 #@! TD*
D12*
G04 #@! TO.P,GND,1*
G04 #@! TO.N,GND*
X84836000Y-127508000D03*
G04 #@! TD*
G04 #@! TO.P,VDD,1*
G04 #@! TO.N,VDD*
X87777702Y-127508000D03*
G04 #@! TD*
G04 #@! TO.P,~SYNC,1*
G04 #@! TO.N,Net-(J5-Pad1)*
X101092000Y-147320000D03*
G04 #@! TD*
G04 #@! TO.P,SCLK,1*
G04 #@! TO.N,Net-(J6-Pad1)*
X105156000Y-147320000D03*
G04 #@! TD*
G04 #@! TO.P,Din,1*
G04 #@! TO.N,Net-(J7-Pad1)*
X108712000Y-147320000D03*
G04 #@! TD*
D13*
G04 #@! TO.N,GND*
X97790000Y-142494000D03*
X102362000Y-130810000D03*
X85852000Y-131064000D03*
X86614000Y-136144000D03*
X94996000Y-133350000D03*
X91694000Y-127254000D03*
X92202000Y-128016000D03*
X94742000Y-127254000D03*
X105918000Y-129032000D03*
X102108000Y-129032000D03*
X102108000Y-135128000D03*
X104648000Y-135128000D03*
X105664000Y-135128000D03*
X102062000Y-134112000D03*
X80010000Y-142748000D03*
X81026000Y-142748000D03*
X82042000Y-142748000D03*
X83058000Y-142748000D03*
X84074000Y-142748000D03*
X85090000Y-142748000D03*
X80010000Y-144780000D03*
X81026000Y-144780000D03*
X82042000Y-144780000D03*
X83058000Y-144780000D03*
X84074000Y-144780000D03*
X85344000Y-145796000D03*
X86360000Y-145796000D03*
X87630000Y-145796000D03*
X88646000Y-145288000D03*
X89662000Y-145288000D03*
X85852000Y-141986000D03*
X90678000Y-141224000D03*
X85852000Y-140970000D03*
X84836000Y-140970000D03*
X83820000Y-140716000D03*
X82550000Y-136398000D03*
X83312000Y-137160000D03*
X84074000Y-137922000D03*
X84836000Y-138684000D03*
X85852000Y-138684000D03*
X86868000Y-138684000D03*
X87884000Y-138684000D03*
X88900000Y-138684000D03*
X89916000Y-138684000D03*
X81788000Y-138684000D03*
X81026000Y-137922000D03*
X80264000Y-137160000D03*
X79502000Y-136398000D03*
X78740000Y-135636000D03*
X77978000Y-135128000D03*
X77724000Y-134112000D03*
X77724000Y-133096000D03*
X80010000Y-133858000D03*
X79756000Y-132842000D03*
X102616000Y-128270000D03*
X102616000Y-129794000D03*
X105664000Y-128270000D03*
X105410000Y-129794000D03*
X94234000Y-126492000D03*
X93980000Y-128016000D03*
X92202000Y-126492000D03*
X96012000Y-129794000D03*
X96012000Y-130556000D03*
X94996000Y-132334000D03*
X87122000Y-135382000D03*
X87122000Y-136906000D03*
X85344000Y-130302000D03*
X85344000Y-131826000D03*
X99060000Y-143002000D03*
X101092000Y-143256000D03*
X95504000Y-140208000D03*
X96774000Y-139700000D03*
X100076000Y-143256000D03*
X103378000Y-130556000D03*
X103124000Y-131572000D03*
X97028000Y-145034000D03*
X98044000Y-145542000D03*
X99314000Y-145542000D03*
X100330000Y-145542000D03*
X101346000Y-145542000D03*
X98552000Y-141986000D03*
X73660000Y-136144000D03*
X74676000Y-136906000D03*
X75946000Y-137668000D03*
X74676000Y-138430000D03*
X73660000Y-138938000D03*
X73660000Y-137668000D03*
X97536000Y-129794000D03*
X97536000Y-131318000D03*
X97536000Y-132842000D03*
X97536000Y-134366000D03*
X100076000Y-126238000D03*
X101854000Y-126238000D03*
X103632000Y-126238000D03*
X105410000Y-126238000D03*
X108204000Y-126238000D03*
X109728000Y-127254000D03*
X109728000Y-129032000D03*
X109728000Y-130302000D03*
X109728000Y-131826000D03*
X109728000Y-133350000D03*
X109728000Y-134620000D03*
X109728000Y-136144000D03*
X109728000Y-142240000D03*
X109728000Y-144018000D03*
X109982000Y-145796000D03*
X109728000Y-149352000D03*
X106934000Y-149352000D03*
X104648000Y-149352000D03*
X103124000Y-149352000D03*
X101092000Y-149352000D03*
X98806000Y-149352000D03*
X97028000Y-149098000D03*
X95250000Y-149098000D03*
X99314000Y-147574000D03*
X103124000Y-147320000D03*
X105918000Y-145542000D03*
X107442000Y-141732000D03*
X106426000Y-141732000D03*
X103886000Y-141224000D03*
X88900000Y-131572000D03*
X90424000Y-131572000D03*
X91186000Y-133604000D03*
X93218000Y-136144000D03*
X84836000Y-134874000D03*
X82042000Y-131572000D03*
X78740000Y-128270000D03*
X75184000Y-131318000D03*
X81280000Y-125984000D03*
X78486000Y-125730000D03*
X74168000Y-125984000D03*
G04 #@! TO.N,VCOM*
X85344000Y-149352000D03*
X89408000Y-149352000D03*
X92964000Y-149352000D03*
X86360000Y-149352000D03*
X88392000Y-149352000D03*
X91948000Y-149352000D03*
G04 #@! TO.N,+5V*
X107899200Y-134188200D03*
X95859600Y-135991600D03*
X107899200Y-133350000D03*
X95859600Y-136906000D03*
X95250000Y-135382000D03*
G04 #@! TO.N,VCOM*
X102616000Y-138176000D03*
X90932000Y-137668000D03*
X88923100Y-141909800D03*
X88961300Y-142748000D03*
X91694000Y-138176000D03*
X101854000Y-138176000D03*
G04 #@! TD*
D14*
G04 #@! TO.N,+5V*
X95250000Y-135382000D02*
X95859600Y-135991600D01*
X95859600Y-135991600D02*
X95859600Y-136906000D01*
X107899200Y-134188200D02*
X107899200Y-133350000D01*
X96202499Y-136334499D02*
X95859600Y-135991600D01*
X107899200Y-135280400D02*
X106845101Y-136334499D01*
X106845101Y-136334499D02*
X96202499Y-136334499D01*
X107899200Y-134188200D02*
X107899200Y-135280400D01*
G04 #@! TO.N,VCOM*
X91440000Y-138176000D02*
X90932000Y-137668000D01*
X102616000Y-138176000D02*
X101854000Y-138176000D01*
X102616000Y-138176000D02*
X100584000Y-138176000D01*
X100584000Y-138176000D02*
X96012000Y-142748000D01*
X90777300Y-143764000D02*
X88923100Y-141909800D01*
X92964000Y-143764000D02*
X92964000Y-149352000D01*
X92964000Y-143764000D02*
X90777300Y-143764000D01*
X94996000Y-143764000D02*
X92964000Y-143764000D01*
X92964000Y-149352000D02*
X85344000Y-149352000D01*
X101854000Y-138176000D02*
X91440000Y-138176000D01*
X88961300Y-141948000D02*
X88923100Y-141909800D01*
X88961300Y-142748000D02*
X88961300Y-141948000D01*
X96012000Y-142748000D02*
X94996000Y-143764000D01*
G04 #@! TD*
D15*
G04 #@! TO.N,GND*
G36*
X110440400Y-150064400D02*
X72947600Y-150064400D01*
X72947600Y-149352000D01*
X84696560Y-149352000D01*
X84745843Y-149599765D01*
X84886191Y-149809809D01*
X85096235Y-149950157D01*
X85281459Y-149987000D01*
X92901459Y-149987000D01*
X92964000Y-149999440D01*
X93211765Y-149950157D01*
X93421809Y-149809809D01*
X93562157Y-149599765D01*
X93599000Y-149414541D01*
X93611440Y-149352000D01*
X93599000Y-149289459D01*
X93599000Y-147075718D01*
X99863910Y-147075718D01*
X99863910Y-147564282D01*
X100050875Y-148015657D01*
X100396343Y-148361125D01*
X100847718Y-148548090D01*
X101336282Y-148548090D01*
X101787657Y-148361125D01*
X102133125Y-148015657D01*
X102320090Y-147564282D01*
X102320090Y-147075718D01*
X103927910Y-147075718D01*
X103927910Y-147564282D01*
X104114875Y-148015657D01*
X104460343Y-148361125D01*
X104911718Y-148548090D01*
X105400282Y-148548090D01*
X105851657Y-148361125D01*
X106197125Y-148015657D01*
X106384090Y-147564282D01*
X106384090Y-147075718D01*
X107483910Y-147075718D01*
X107483910Y-147564282D01*
X107670875Y-148015657D01*
X108016343Y-148361125D01*
X108467718Y-148548090D01*
X108956282Y-148548090D01*
X109407657Y-148361125D01*
X109753125Y-148015657D01*
X109940090Y-147564282D01*
X109940090Y-147075718D01*
X109753125Y-146624343D01*
X109407657Y-146278875D01*
X108956282Y-146091910D01*
X108467718Y-146091910D01*
X108016343Y-146278875D01*
X107670875Y-146624343D01*
X107483910Y-147075718D01*
X106384090Y-147075718D01*
X106197125Y-146624343D01*
X105851657Y-146278875D01*
X105400282Y-146091910D01*
X104911718Y-146091910D01*
X104460343Y-146278875D01*
X104114875Y-146624343D01*
X103927910Y-147075718D01*
X102320090Y-147075718D01*
X102133125Y-146624343D01*
X101787657Y-146278875D01*
X101336282Y-146091910D01*
X100847718Y-146091910D01*
X100396343Y-146278875D01*
X100050875Y-146624343D01*
X99863910Y-147075718D01*
X93599000Y-147075718D01*
X93599000Y-144399000D01*
X94933463Y-144399000D01*
X94996000Y-144411439D01*
X95058537Y-144399000D01*
X95058541Y-144399000D01*
X95243765Y-144362157D01*
X95453809Y-144221809D01*
X95489238Y-144168786D01*
X96505235Y-143152790D01*
X96505237Y-143152787D01*
X100847025Y-138811000D01*
X102678541Y-138811000D01*
X102863765Y-138774157D01*
X103073809Y-138633809D01*
X103214157Y-138423765D01*
X103263440Y-138176000D01*
X103214157Y-137928235D01*
X103073809Y-137718191D01*
X102863765Y-137577843D01*
X102678541Y-137541000D01*
X100646535Y-137541000D01*
X100583999Y-137528561D01*
X100521464Y-137541000D01*
X95922141Y-137541000D01*
X96107365Y-137504157D01*
X96317409Y-137363809D01*
X96457757Y-137153765D01*
X96494409Y-136969499D01*
X106782564Y-136969499D01*
X106845101Y-136981938D01*
X106907638Y-136969499D01*
X106907642Y-136969499D01*
X107092866Y-136932656D01*
X107302910Y-136792308D01*
X107338339Y-136739285D01*
X108303988Y-135773636D01*
X108357009Y-135738209D01*
X108497357Y-135528165D01*
X108534200Y-135342941D01*
X108534200Y-135342938D01*
X108546639Y-135280401D01*
X108534200Y-135217864D01*
X108534200Y-133287459D01*
X108497357Y-133102235D01*
X108357009Y-132892191D01*
X108146965Y-132751843D01*
X107899200Y-132702560D01*
X107651436Y-132751843D01*
X107441392Y-132892191D01*
X107301044Y-133102235D01*
X107264200Y-133287459D01*
X107264200Y-134125660D01*
X107264201Y-135017374D01*
X106582077Y-135699499D01*
X96465523Y-135699499D01*
X96352840Y-135586816D01*
X96352836Y-135586810D01*
X96352834Y-135586808D01*
X96317409Y-135533791D01*
X96264391Y-135498366D01*
X95654789Y-134888765D01*
X95497764Y-134783843D01*
X95250000Y-134734561D01*
X95002236Y-134783843D01*
X94792191Y-134924191D01*
X94651843Y-135134236D01*
X94602561Y-135382000D01*
X94651843Y-135629764D01*
X94756765Y-135786789D01*
X95224600Y-136254626D01*
X95224601Y-136968541D01*
X95261444Y-137153765D01*
X95401792Y-137363809D01*
X95611836Y-137504157D01*
X95797059Y-137541000D01*
X91703025Y-137541000D01*
X91336789Y-137174765D01*
X91179764Y-137069843D01*
X90932000Y-137020561D01*
X90684236Y-137069843D01*
X90474191Y-137210191D01*
X90333843Y-137420236D01*
X90284561Y-137668000D01*
X90333843Y-137915764D01*
X90438765Y-138072789D01*
X90946763Y-138580788D01*
X90982191Y-138633809D01*
X91192235Y-138774157D01*
X91377459Y-138811000D01*
X91377464Y-138811000D01*
X91439999Y-138823439D01*
X91502535Y-138811000D01*
X99050975Y-138811000D01*
X95607213Y-142254763D01*
X95607210Y-142254765D01*
X94732976Y-143129000D01*
X93026541Y-143129000D01*
X92964000Y-143116560D01*
X92901459Y-143129000D01*
X91040326Y-143129000D01*
X89454538Y-141543214D01*
X89419109Y-141490191D01*
X89366087Y-141454762D01*
X89327889Y-141416565D01*
X89170864Y-141311643D01*
X88923100Y-141262361D01*
X88675336Y-141311643D01*
X88465291Y-141451991D01*
X88324943Y-141662036D01*
X88275661Y-141909800D01*
X88324943Y-142157564D01*
X88326300Y-142159595D01*
X88326300Y-142810540D01*
X88363143Y-142995764D01*
X88503491Y-143205809D01*
X88713535Y-143346157D01*
X88961300Y-143395440D01*
X89209064Y-143346157D01*
X89360347Y-143245072D01*
X90284066Y-144168791D01*
X90319491Y-144221809D01*
X90372508Y-144257234D01*
X90372510Y-144257236D01*
X90527528Y-144360816D01*
X90529535Y-144362157D01*
X90714759Y-144399000D01*
X90714763Y-144399000D01*
X90777300Y-144411439D01*
X90839837Y-144399000D01*
X92329000Y-144399000D01*
X92329001Y-148717000D01*
X85281459Y-148717000D01*
X85096235Y-148753843D01*
X84886191Y-148894191D01*
X84745843Y-149104235D01*
X84696560Y-149352000D01*
X72947600Y-149352000D01*
X72947600Y-143554426D01*
X77686400Y-143554426D01*
X77686400Y-143973574D01*
X77846801Y-144360816D01*
X78143184Y-144657199D01*
X78530426Y-144817600D01*
X78949574Y-144817600D01*
X79336816Y-144657199D01*
X79633199Y-144360816D01*
X79793600Y-143973574D01*
X79793600Y-143554426D01*
X79633199Y-143167184D01*
X79336816Y-142870801D01*
X78949574Y-142710400D01*
X78530426Y-142710400D01*
X78143184Y-142870801D01*
X77846801Y-143167184D01*
X77686400Y-143554426D01*
X72947600Y-143554426D01*
X72947600Y-131362426D01*
X77686400Y-131362426D01*
X77686400Y-131781574D01*
X77846801Y-132168816D01*
X78143184Y-132465199D01*
X78530426Y-132625600D01*
X78949574Y-132625600D01*
X79336816Y-132465199D01*
X79633199Y-132168816D01*
X79793600Y-131781574D01*
X79793600Y-131362426D01*
X79633199Y-130975184D01*
X79336816Y-130678801D01*
X78949574Y-130518400D01*
X78530426Y-130518400D01*
X78143184Y-130678801D01*
X77846801Y-130975184D01*
X77686400Y-131362426D01*
X72947600Y-131362426D01*
X72947600Y-127263718D01*
X86549612Y-127263718D01*
X86549612Y-127752282D01*
X86736577Y-128203657D01*
X87082045Y-128549125D01*
X87533420Y-128736090D01*
X88021984Y-128736090D01*
X88473359Y-128549125D01*
X88818827Y-128203657D01*
X89005792Y-127752282D01*
X89005792Y-127263718D01*
X88818827Y-126812343D01*
X88473359Y-126466875D01*
X88021984Y-126279910D01*
X87533420Y-126279910D01*
X87082045Y-126466875D01*
X86736577Y-126812343D01*
X86549612Y-127263718D01*
X72947600Y-127263718D01*
X72947600Y-125271600D01*
X110440401Y-125271600D01*
X110440400Y-150064400D01*
X110440400Y-150064400D01*
G37*
X110440400Y-150064400D02*
X72947600Y-150064400D01*
X72947600Y-149352000D01*
X84696560Y-149352000D01*
X84745843Y-149599765D01*
X84886191Y-149809809D01*
X85096235Y-149950157D01*
X85281459Y-149987000D01*
X92901459Y-149987000D01*
X92964000Y-149999440D01*
X93211765Y-149950157D01*
X93421809Y-149809809D01*
X93562157Y-149599765D01*
X93599000Y-149414541D01*
X93611440Y-149352000D01*
X93599000Y-149289459D01*
X93599000Y-147075718D01*
X99863910Y-147075718D01*
X99863910Y-147564282D01*
X100050875Y-148015657D01*
X100396343Y-148361125D01*
X100847718Y-148548090D01*
X101336282Y-148548090D01*
X101787657Y-148361125D01*
X102133125Y-148015657D01*
X102320090Y-147564282D01*
X102320090Y-147075718D01*
X103927910Y-147075718D01*
X103927910Y-147564282D01*
X104114875Y-148015657D01*
X104460343Y-148361125D01*
X104911718Y-148548090D01*
X105400282Y-148548090D01*
X105851657Y-148361125D01*
X106197125Y-148015657D01*
X106384090Y-147564282D01*
X106384090Y-147075718D01*
X107483910Y-147075718D01*
X107483910Y-147564282D01*
X107670875Y-148015657D01*
X108016343Y-148361125D01*
X108467718Y-148548090D01*
X108956282Y-148548090D01*
X109407657Y-148361125D01*
X109753125Y-148015657D01*
X109940090Y-147564282D01*
X109940090Y-147075718D01*
X109753125Y-146624343D01*
X109407657Y-146278875D01*
X108956282Y-146091910D01*
X108467718Y-146091910D01*
X108016343Y-146278875D01*
X107670875Y-146624343D01*
X107483910Y-147075718D01*
X106384090Y-147075718D01*
X106197125Y-146624343D01*
X105851657Y-146278875D01*
X105400282Y-146091910D01*
X104911718Y-146091910D01*
X104460343Y-146278875D01*
X104114875Y-146624343D01*
X103927910Y-147075718D01*
X102320090Y-147075718D01*
X102133125Y-146624343D01*
X101787657Y-146278875D01*
X101336282Y-146091910D01*
X100847718Y-146091910D01*
X100396343Y-146278875D01*
X100050875Y-146624343D01*
X99863910Y-147075718D01*
X93599000Y-147075718D01*
X93599000Y-144399000D01*
X94933463Y-144399000D01*
X94996000Y-144411439D01*
X95058537Y-144399000D01*
X95058541Y-144399000D01*
X95243765Y-144362157D01*
X95453809Y-144221809D01*
X95489238Y-144168786D01*
X96505235Y-143152790D01*
X96505237Y-143152787D01*
X100847025Y-138811000D01*
X102678541Y-138811000D01*
X102863765Y-138774157D01*
X103073809Y-138633809D01*
X103214157Y-138423765D01*
X103263440Y-138176000D01*
X103214157Y-137928235D01*
X103073809Y-137718191D01*
X102863765Y-137577843D01*
X102678541Y-137541000D01*
X100646535Y-137541000D01*
X100583999Y-137528561D01*
X100521464Y-137541000D01*
X95922141Y-137541000D01*
X96107365Y-137504157D01*
X96317409Y-137363809D01*
X96457757Y-137153765D01*
X96494409Y-136969499D01*
X106782564Y-136969499D01*
X106845101Y-136981938D01*
X106907638Y-136969499D01*
X106907642Y-136969499D01*
X107092866Y-136932656D01*
X107302910Y-136792308D01*
X107338339Y-136739285D01*
X108303988Y-135773636D01*
X108357009Y-135738209D01*
X108497357Y-135528165D01*
X108534200Y-135342941D01*
X108534200Y-135342938D01*
X108546639Y-135280401D01*
X108534200Y-135217864D01*
X108534200Y-133287459D01*
X108497357Y-133102235D01*
X108357009Y-132892191D01*
X108146965Y-132751843D01*
X107899200Y-132702560D01*
X107651436Y-132751843D01*
X107441392Y-132892191D01*
X107301044Y-133102235D01*
X107264200Y-133287459D01*
X107264200Y-134125660D01*
X107264201Y-135017374D01*
X106582077Y-135699499D01*
X96465523Y-135699499D01*
X96352840Y-135586816D01*
X96352836Y-135586810D01*
X96352834Y-135586808D01*
X96317409Y-135533791D01*
X96264391Y-135498366D01*
X95654789Y-134888765D01*
X95497764Y-134783843D01*
X95250000Y-134734561D01*
X95002236Y-134783843D01*
X94792191Y-134924191D01*
X94651843Y-135134236D01*
X94602561Y-135382000D01*
X94651843Y-135629764D01*
X94756765Y-135786789D01*
X95224600Y-136254626D01*
X95224601Y-136968541D01*
X95261444Y-137153765D01*
X95401792Y-137363809D01*
X95611836Y-137504157D01*
X95797059Y-137541000D01*
X91703025Y-137541000D01*
X91336789Y-137174765D01*
X91179764Y-137069843D01*
X90932000Y-137020561D01*
X90684236Y-137069843D01*
X90474191Y-137210191D01*
X90333843Y-137420236D01*
X90284561Y-137668000D01*
X90333843Y-137915764D01*
X90438765Y-138072789D01*
X90946763Y-138580788D01*
X90982191Y-138633809D01*
X91192235Y-138774157D01*
X91377459Y-138811000D01*
X91377464Y-138811000D01*
X91439999Y-138823439D01*
X91502535Y-138811000D01*
X99050975Y-138811000D01*
X95607213Y-142254763D01*
X95607210Y-142254765D01*
X94732976Y-143129000D01*
X93026541Y-143129000D01*
X92964000Y-143116560D01*
X92901459Y-143129000D01*
X91040326Y-143129000D01*
X89454538Y-141543214D01*
X89419109Y-141490191D01*
X89366087Y-141454762D01*
X89327889Y-141416565D01*
X89170864Y-141311643D01*
X88923100Y-141262361D01*
X88675336Y-141311643D01*
X88465291Y-141451991D01*
X88324943Y-141662036D01*
X88275661Y-141909800D01*
X88324943Y-142157564D01*
X88326300Y-142159595D01*
X88326300Y-142810540D01*
X88363143Y-142995764D01*
X88503491Y-143205809D01*
X88713535Y-143346157D01*
X88961300Y-143395440D01*
X89209064Y-143346157D01*
X89360347Y-143245072D01*
X90284066Y-144168791D01*
X90319491Y-144221809D01*
X90372508Y-144257234D01*
X90372510Y-144257236D01*
X90527528Y-144360816D01*
X90529535Y-144362157D01*
X90714759Y-144399000D01*
X90714763Y-144399000D01*
X90777300Y-144411439D01*
X90839837Y-144399000D01*
X92329000Y-144399000D01*
X92329001Y-148717000D01*
X85281459Y-148717000D01*
X85096235Y-148753843D01*
X84886191Y-148894191D01*
X84745843Y-149104235D01*
X84696560Y-149352000D01*
X72947600Y-149352000D01*
X72947600Y-143554426D01*
X77686400Y-143554426D01*
X77686400Y-143973574D01*
X77846801Y-144360816D01*
X78143184Y-144657199D01*
X78530426Y-144817600D01*
X78949574Y-144817600D01*
X79336816Y-144657199D01*
X79633199Y-144360816D01*
X79793600Y-143973574D01*
X79793600Y-143554426D01*
X79633199Y-143167184D01*
X79336816Y-142870801D01*
X78949574Y-142710400D01*
X78530426Y-142710400D01*
X78143184Y-142870801D01*
X77846801Y-143167184D01*
X77686400Y-143554426D01*
X72947600Y-143554426D01*
X72947600Y-131362426D01*
X77686400Y-131362426D01*
X77686400Y-131781574D01*
X77846801Y-132168816D01*
X78143184Y-132465199D01*
X78530426Y-132625600D01*
X78949574Y-132625600D01*
X79336816Y-132465199D01*
X79633199Y-132168816D01*
X79793600Y-131781574D01*
X79793600Y-131362426D01*
X79633199Y-130975184D01*
X79336816Y-130678801D01*
X78949574Y-130518400D01*
X78530426Y-130518400D01*
X78143184Y-130678801D01*
X77846801Y-130975184D01*
X77686400Y-131362426D01*
X72947600Y-131362426D01*
X72947600Y-127263718D01*
X86549612Y-127263718D01*
X86549612Y-127752282D01*
X86736577Y-128203657D01*
X87082045Y-128549125D01*
X87533420Y-128736090D01*
X88021984Y-128736090D01*
X88473359Y-128549125D01*
X88818827Y-128203657D01*
X89005792Y-127752282D01*
X89005792Y-127263718D01*
X88818827Y-126812343D01*
X88473359Y-126466875D01*
X88021984Y-126279910D01*
X87533420Y-126279910D01*
X87082045Y-126466875D01*
X86736577Y-126812343D01*
X86549612Y-127263718D01*
X72947600Y-127263718D01*
X72947600Y-125271600D01*
X110440401Y-125271600D01*
X110440400Y-150064400D01*
G04 #@! TD*
M02*
