G04 #@! TF.GenerationSoftware,KiCad,Pcbnew,5.0.2-bee76a0~70~ubuntu18.04.1*
G04 #@! TF.CreationDate,2019-03-03T20:31:20-05:00*
G04 #@! TF.ProjectId,agc,6167632e-6b69-4636-9164-5f7063625858,rev?*
G04 #@! TF.SameCoordinates,Original*
G04 #@! TF.FileFunction,Soldermask,Top*
G04 #@! TF.FilePolarity,Negative*
%FSLAX46Y46*%
G04 Gerber Fmt 4.6, Leading zero omitted, Abs format (unit mm)*
G04 Created by KiCad (PCBNEW 5.0.2-bee76a0~70~ubuntu18.04.1) date Sun 03 Mar 2019 08:31:20 PM EST*
%MOMM*%
%LPD*%
G01*
G04 APERTURE LIST*
%ADD10C,0.100000*%
G04 APERTURE END LIST*
D10*
G36*
X86233266Y-148688765D02*
X86271937Y-148700496D01*
X86307579Y-148719548D01*
X86338817Y-148745183D01*
X86364452Y-148776421D01*
X86383504Y-148812063D01*
X86395235Y-148850734D01*
X86399800Y-148897088D01*
X86399800Y-149548312D01*
X86395235Y-149594666D01*
X86383504Y-149633337D01*
X86364452Y-149668979D01*
X86338817Y-149700217D01*
X86307579Y-149725852D01*
X86271937Y-149744904D01*
X86233266Y-149756635D01*
X86186912Y-149761200D01*
X85110688Y-149761200D01*
X85064334Y-149756635D01*
X85025663Y-149744904D01*
X84990021Y-149725852D01*
X84958783Y-149700217D01*
X84933148Y-149668979D01*
X84914096Y-149633337D01*
X84902365Y-149594666D01*
X84897800Y-149548312D01*
X84897800Y-148897088D01*
X84902365Y-148850734D01*
X84914096Y-148812063D01*
X84933148Y-148776421D01*
X84958783Y-148745183D01*
X84990021Y-148719548D01*
X85025663Y-148700496D01*
X85064334Y-148688765D01*
X85110688Y-148684200D01*
X86186912Y-148684200D01*
X86233266Y-148688765D01*
X86233266Y-148688765D01*
G37*
G36*
X89484466Y-148612565D02*
X89523137Y-148624296D01*
X89558779Y-148643348D01*
X89590017Y-148668983D01*
X89615652Y-148700221D01*
X89634704Y-148735863D01*
X89646435Y-148774534D01*
X89651000Y-148820888D01*
X89651000Y-149472112D01*
X89646435Y-149518466D01*
X89634704Y-149557137D01*
X89615652Y-149592779D01*
X89590017Y-149624017D01*
X89558779Y-149649652D01*
X89523137Y-149668704D01*
X89484466Y-149680435D01*
X89438112Y-149685000D01*
X88361888Y-149685000D01*
X88315534Y-149680435D01*
X88276863Y-149668704D01*
X88241221Y-149649652D01*
X88209983Y-149624017D01*
X88184348Y-149592779D01*
X88165296Y-149557137D01*
X88153565Y-149518466D01*
X88149000Y-149472112D01*
X88149000Y-148820888D01*
X88153565Y-148774534D01*
X88165296Y-148735863D01*
X88184348Y-148700221D01*
X88209983Y-148668983D01*
X88241221Y-148643348D01*
X88276863Y-148624296D01*
X88315534Y-148612565D01*
X88361888Y-148608000D01*
X89438112Y-148608000D01*
X89484466Y-148612565D01*
X89484466Y-148612565D01*
G37*
G36*
X92913466Y-148561765D02*
X92952137Y-148573496D01*
X92987779Y-148592548D01*
X93019017Y-148618183D01*
X93044652Y-148649421D01*
X93063704Y-148685063D01*
X93075435Y-148723734D01*
X93080000Y-148770088D01*
X93080000Y-149421312D01*
X93075435Y-149467666D01*
X93063704Y-149506337D01*
X93044652Y-149541979D01*
X93019017Y-149573217D01*
X92987779Y-149598852D01*
X92952137Y-149617904D01*
X92913466Y-149629635D01*
X92867112Y-149634200D01*
X91790888Y-149634200D01*
X91744534Y-149629635D01*
X91705863Y-149617904D01*
X91670221Y-149598852D01*
X91638983Y-149573217D01*
X91613348Y-149541979D01*
X91594296Y-149506337D01*
X91582565Y-149467666D01*
X91578000Y-149421312D01*
X91578000Y-148770088D01*
X91582565Y-148723734D01*
X91594296Y-148685063D01*
X91613348Y-148649421D01*
X91638983Y-148618183D01*
X91670221Y-148592548D01*
X91705863Y-148573496D01*
X91744534Y-148561765D01*
X91790888Y-148557200D01*
X92867112Y-148557200D01*
X92913466Y-148561765D01*
X92913466Y-148561765D01*
G37*
G36*
X109018414Y-146309879D02*
X109018416Y-146309880D01*
X109018417Y-146309880D01*
X109209594Y-146389068D01*
X109381651Y-146504033D01*
X109527967Y-146650349D01*
X109527969Y-146650352D01*
X109642932Y-146822406D01*
X109717426Y-147002250D01*
X109722121Y-147013586D01*
X109762490Y-147216534D01*
X109762490Y-147423466D01*
X109724004Y-147616950D01*
X109722120Y-147626417D01*
X109659420Y-147777788D01*
X109642932Y-147817594D01*
X109527967Y-147989651D01*
X109381651Y-148135967D01*
X109381648Y-148135969D01*
X109209594Y-148250932D01*
X109018417Y-148330120D01*
X109018416Y-148330120D01*
X109018414Y-148330121D01*
X108815466Y-148370490D01*
X108608534Y-148370490D01*
X108405586Y-148330121D01*
X108405584Y-148330120D01*
X108405583Y-148330120D01*
X108214406Y-148250932D01*
X108042352Y-148135969D01*
X108042349Y-148135967D01*
X107896033Y-147989651D01*
X107781068Y-147817594D01*
X107764580Y-147777788D01*
X107701880Y-147626417D01*
X107699997Y-147616950D01*
X107661510Y-147423466D01*
X107661510Y-147216534D01*
X107701879Y-147013586D01*
X107706575Y-147002250D01*
X107781068Y-146822406D01*
X107896031Y-146650352D01*
X107896033Y-146650349D01*
X108042349Y-146504033D01*
X108214406Y-146389068D01*
X108405583Y-146309880D01*
X108405584Y-146309880D01*
X108405586Y-146309879D01*
X108608534Y-146269510D01*
X108815466Y-146269510D01*
X109018414Y-146309879D01*
X109018414Y-146309879D01*
G37*
G36*
X105462414Y-146309879D02*
X105462416Y-146309880D01*
X105462417Y-146309880D01*
X105653594Y-146389068D01*
X105825651Y-146504033D01*
X105971967Y-146650349D01*
X105971969Y-146650352D01*
X106086932Y-146822406D01*
X106161426Y-147002250D01*
X106166121Y-147013586D01*
X106206490Y-147216534D01*
X106206490Y-147423466D01*
X106168004Y-147616950D01*
X106166120Y-147626417D01*
X106103420Y-147777788D01*
X106086932Y-147817594D01*
X105971967Y-147989651D01*
X105825651Y-148135967D01*
X105825648Y-148135969D01*
X105653594Y-148250932D01*
X105462417Y-148330120D01*
X105462416Y-148330120D01*
X105462414Y-148330121D01*
X105259466Y-148370490D01*
X105052534Y-148370490D01*
X104849586Y-148330121D01*
X104849584Y-148330120D01*
X104849583Y-148330120D01*
X104658406Y-148250932D01*
X104486352Y-148135969D01*
X104486349Y-148135967D01*
X104340033Y-147989651D01*
X104225068Y-147817594D01*
X104208580Y-147777788D01*
X104145880Y-147626417D01*
X104143997Y-147616950D01*
X104105510Y-147423466D01*
X104105510Y-147216534D01*
X104145879Y-147013586D01*
X104150575Y-147002250D01*
X104225068Y-146822406D01*
X104340031Y-146650352D01*
X104340033Y-146650349D01*
X104486349Y-146504033D01*
X104658406Y-146389068D01*
X104849583Y-146309880D01*
X104849584Y-146309880D01*
X104849586Y-146309879D01*
X105052534Y-146269510D01*
X105259466Y-146269510D01*
X105462414Y-146309879D01*
X105462414Y-146309879D01*
G37*
G36*
X101398414Y-146309879D02*
X101398416Y-146309880D01*
X101398417Y-146309880D01*
X101589594Y-146389068D01*
X101761651Y-146504033D01*
X101907967Y-146650349D01*
X101907969Y-146650352D01*
X102022932Y-146822406D01*
X102097426Y-147002250D01*
X102102121Y-147013586D01*
X102142490Y-147216534D01*
X102142490Y-147423466D01*
X102104004Y-147616950D01*
X102102120Y-147626417D01*
X102039420Y-147777788D01*
X102022932Y-147817594D01*
X101907967Y-147989651D01*
X101761651Y-148135967D01*
X101761648Y-148135969D01*
X101589594Y-148250932D01*
X101398417Y-148330120D01*
X101398416Y-148330120D01*
X101398414Y-148330121D01*
X101195466Y-148370490D01*
X100988534Y-148370490D01*
X100785586Y-148330121D01*
X100785584Y-148330120D01*
X100785583Y-148330120D01*
X100594406Y-148250932D01*
X100422352Y-148135969D01*
X100422349Y-148135967D01*
X100276033Y-147989651D01*
X100161068Y-147817594D01*
X100144580Y-147777788D01*
X100081880Y-147626417D01*
X100079997Y-147616950D01*
X100041510Y-147423466D01*
X100041510Y-147216534D01*
X100081879Y-147013586D01*
X100086575Y-147002250D01*
X100161068Y-146822406D01*
X100276031Y-146650352D01*
X100276033Y-146650349D01*
X100422349Y-146504033D01*
X100594406Y-146389068D01*
X100785583Y-146309880D01*
X100785584Y-146309880D01*
X100785586Y-146309879D01*
X100988534Y-146269510D01*
X101195466Y-146269510D01*
X101398414Y-146309879D01*
X101398414Y-146309879D01*
G37*
G36*
X75793636Y-145655019D02*
X75974903Y-145691075D01*
X76202571Y-145785378D01*
X76406542Y-145921668D01*
X76407469Y-145922287D01*
X76581713Y-146096531D01*
X76581715Y-146096534D01*
X76718622Y-146301429D01*
X76812925Y-146529097D01*
X76828662Y-146608212D01*
X76859066Y-146761061D01*
X76861000Y-146770787D01*
X76861000Y-147017213D01*
X76812925Y-147258903D01*
X76718622Y-147486571D01*
X76598077Y-147666979D01*
X76581713Y-147691469D01*
X76407469Y-147865713D01*
X76407466Y-147865715D01*
X76202571Y-148002622D01*
X75974903Y-148096925D01*
X75793635Y-148132981D01*
X75733214Y-148145000D01*
X75486786Y-148145000D01*
X75426365Y-148132981D01*
X75245097Y-148096925D01*
X75017429Y-148002622D01*
X74812534Y-147865715D01*
X74812531Y-147865713D01*
X74638287Y-147691469D01*
X74621923Y-147666979D01*
X74501378Y-147486571D01*
X74407075Y-147258903D01*
X74359000Y-147017213D01*
X74359000Y-146770787D01*
X74360935Y-146761061D01*
X74391338Y-146608212D01*
X74407075Y-146529097D01*
X74501378Y-146301429D01*
X74638285Y-146096534D01*
X74638287Y-146096531D01*
X74812531Y-145922287D01*
X74813458Y-145921668D01*
X75017429Y-145785378D01*
X75245097Y-145691075D01*
X75426364Y-145655019D01*
X75486786Y-145643000D01*
X75733214Y-145643000D01*
X75793636Y-145655019D01*
X75793636Y-145655019D01*
G37*
G36*
X82053636Y-145655019D02*
X82234903Y-145691075D01*
X82462571Y-145785378D01*
X82666542Y-145921668D01*
X82667469Y-145922287D01*
X82841713Y-146096531D01*
X82841715Y-146096534D01*
X82978622Y-146301429D01*
X83072925Y-146529097D01*
X83088662Y-146608212D01*
X83119066Y-146761061D01*
X83121000Y-146770787D01*
X83121000Y-147017213D01*
X83072925Y-147258903D01*
X82978622Y-147486571D01*
X82858077Y-147666979D01*
X82841713Y-147691469D01*
X82667469Y-147865713D01*
X82667466Y-147865715D01*
X82462571Y-148002622D01*
X82234903Y-148096925D01*
X82053635Y-148132981D01*
X81993214Y-148145000D01*
X81746786Y-148145000D01*
X81686365Y-148132981D01*
X81505097Y-148096925D01*
X81277429Y-148002622D01*
X81072534Y-147865715D01*
X81072531Y-147865713D01*
X80898287Y-147691469D01*
X80881923Y-147666979D01*
X80761378Y-147486571D01*
X80667075Y-147258903D01*
X80619000Y-147017213D01*
X80619000Y-146770787D01*
X80620935Y-146761061D01*
X80651338Y-146608212D01*
X80667075Y-146529097D01*
X80761378Y-146301429D01*
X80898285Y-146096534D01*
X80898287Y-146096531D01*
X81072531Y-145922287D01*
X81073458Y-145921668D01*
X81277429Y-145785378D01*
X81505097Y-145691075D01*
X81686364Y-145655019D01*
X81746786Y-145643000D01*
X81993214Y-145643000D01*
X82053636Y-145655019D01*
X82053636Y-145655019D01*
G37*
G36*
X96183066Y-146446565D02*
X96221737Y-146458296D01*
X96257379Y-146477348D01*
X96288617Y-146502983D01*
X96314252Y-146534221D01*
X96333304Y-146569863D01*
X96345035Y-146608534D01*
X96349600Y-146654888D01*
X96349600Y-147731112D01*
X96345035Y-147777466D01*
X96333304Y-147816137D01*
X96314252Y-147851779D01*
X96288617Y-147883017D01*
X96257379Y-147908652D01*
X96221737Y-147927704D01*
X96183066Y-147939435D01*
X96136712Y-147944000D01*
X95485488Y-147944000D01*
X95439134Y-147939435D01*
X95400463Y-147927704D01*
X95364821Y-147908652D01*
X95333583Y-147883017D01*
X95307948Y-147851779D01*
X95288896Y-147816137D01*
X95277165Y-147777466D01*
X95272600Y-147731112D01*
X95272600Y-146654888D01*
X95277165Y-146608534D01*
X95288896Y-146569863D01*
X95307948Y-146534221D01*
X95333583Y-146502983D01*
X95364821Y-146477348D01*
X95400463Y-146458296D01*
X95439134Y-146446565D01*
X95485488Y-146442000D01*
X96136712Y-146442000D01*
X96183066Y-146446565D01*
X96183066Y-146446565D01*
G37*
G36*
X98058066Y-146446565D02*
X98096737Y-146458296D01*
X98132379Y-146477348D01*
X98163617Y-146502983D01*
X98189252Y-146534221D01*
X98208304Y-146569863D01*
X98220035Y-146608534D01*
X98224600Y-146654888D01*
X98224600Y-147731112D01*
X98220035Y-147777466D01*
X98208304Y-147816137D01*
X98189252Y-147851779D01*
X98163617Y-147883017D01*
X98132379Y-147908652D01*
X98096737Y-147927704D01*
X98058066Y-147939435D01*
X98011712Y-147944000D01*
X97360488Y-147944000D01*
X97314134Y-147939435D01*
X97275463Y-147927704D01*
X97239821Y-147908652D01*
X97208583Y-147883017D01*
X97182948Y-147851779D01*
X97163896Y-147816137D01*
X97152165Y-147777466D01*
X97147600Y-147731112D01*
X97147600Y-146654888D01*
X97152165Y-146608534D01*
X97163896Y-146569863D01*
X97182948Y-146534221D01*
X97208583Y-146502983D01*
X97239821Y-146477348D01*
X97275463Y-146458296D01*
X97314134Y-146446565D01*
X97360488Y-146442000D01*
X98011712Y-146442000D01*
X98058066Y-146446565D01*
X98058066Y-146446565D01*
G37*
G36*
X86233266Y-146813765D02*
X86271937Y-146825496D01*
X86307579Y-146844548D01*
X86338817Y-146870183D01*
X86364452Y-146901421D01*
X86383504Y-146937063D01*
X86395235Y-146975734D01*
X86399800Y-147022088D01*
X86399800Y-147673312D01*
X86395235Y-147719666D01*
X86383504Y-147758337D01*
X86364452Y-147793979D01*
X86338817Y-147825217D01*
X86307579Y-147850852D01*
X86271937Y-147869904D01*
X86233266Y-147881635D01*
X86186912Y-147886200D01*
X85110688Y-147886200D01*
X85064334Y-147881635D01*
X85025663Y-147869904D01*
X84990021Y-147850852D01*
X84958783Y-147825217D01*
X84933148Y-147793979D01*
X84914096Y-147758337D01*
X84902365Y-147719666D01*
X84897800Y-147673312D01*
X84897800Y-147022088D01*
X84902365Y-146975734D01*
X84914096Y-146937063D01*
X84933148Y-146901421D01*
X84958783Y-146870183D01*
X84990021Y-146844548D01*
X85025663Y-146825496D01*
X85064334Y-146813765D01*
X85110688Y-146809200D01*
X86186912Y-146809200D01*
X86233266Y-146813765D01*
X86233266Y-146813765D01*
G37*
G36*
X89484466Y-146737565D02*
X89523137Y-146749296D01*
X89558779Y-146768348D01*
X89590017Y-146793983D01*
X89615652Y-146825221D01*
X89634704Y-146860863D01*
X89646435Y-146899534D01*
X89651000Y-146945888D01*
X89651000Y-147597112D01*
X89646435Y-147643466D01*
X89634704Y-147682137D01*
X89615652Y-147717779D01*
X89590017Y-147749017D01*
X89558779Y-147774652D01*
X89523137Y-147793704D01*
X89484466Y-147805435D01*
X89438112Y-147810000D01*
X88361888Y-147810000D01*
X88315534Y-147805435D01*
X88276863Y-147793704D01*
X88241221Y-147774652D01*
X88209983Y-147749017D01*
X88184348Y-147717779D01*
X88165296Y-147682137D01*
X88153565Y-147643466D01*
X88149000Y-147597112D01*
X88149000Y-146945888D01*
X88153565Y-146899534D01*
X88165296Y-146860863D01*
X88184348Y-146825221D01*
X88209983Y-146793983D01*
X88241221Y-146768348D01*
X88276863Y-146749296D01*
X88315534Y-146737565D01*
X88361888Y-146733000D01*
X89438112Y-146733000D01*
X89484466Y-146737565D01*
X89484466Y-146737565D01*
G37*
G36*
X92913466Y-146686765D02*
X92952137Y-146698496D01*
X92987779Y-146717548D01*
X93019017Y-146743183D01*
X93044652Y-146774421D01*
X93063704Y-146810063D01*
X93075435Y-146848734D01*
X93080000Y-146895088D01*
X93080000Y-147546312D01*
X93075435Y-147592666D01*
X93063704Y-147631337D01*
X93044652Y-147666979D01*
X93019017Y-147698217D01*
X92987779Y-147723852D01*
X92952137Y-147742904D01*
X92913466Y-147754635D01*
X92867112Y-147759200D01*
X91790888Y-147759200D01*
X91744534Y-147754635D01*
X91705863Y-147742904D01*
X91670221Y-147723852D01*
X91638983Y-147698217D01*
X91613348Y-147666979D01*
X91594296Y-147631337D01*
X91582565Y-147592666D01*
X91578000Y-147546312D01*
X91578000Y-146895088D01*
X91582565Y-146848734D01*
X91594296Y-146810063D01*
X91613348Y-146774421D01*
X91638983Y-146743183D01*
X91670221Y-146717548D01*
X91705863Y-146698496D01*
X91744534Y-146686765D01*
X91790888Y-146682200D01*
X92867112Y-146682200D01*
X92913466Y-146686765D01*
X92913466Y-146686765D01*
G37*
G36*
X91913400Y-145207600D02*
X90811400Y-145207600D01*
X90811400Y-143285600D01*
X91913400Y-143285600D01*
X91913400Y-145207600D01*
X91913400Y-145207600D01*
G37*
G36*
X94913400Y-145207600D02*
X93811400Y-145207600D01*
X93811400Y-143285600D01*
X94913400Y-143285600D01*
X94913400Y-145207600D01*
X94913400Y-145207600D01*
G37*
G36*
X87847266Y-143576365D02*
X87885937Y-143588096D01*
X87921579Y-143607148D01*
X87952817Y-143632783D01*
X87978452Y-143664021D01*
X87997504Y-143699663D01*
X88009235Y-143738334D01*
X88013800Y-143784688D01*
X88013800Y-144860912D01*
X88009235Y-144907266D01*
X87997504Y-144945937D01*
X87978452Y-144981579D01*
X87952817Y-145012817D01*
X87921579Y-145038452D01*
X87885937Y-145057504D01*
X87847266Y-145069235D01*
X87800912Y-145073800D01*
X87149688Y-145073800D01*
X87103334Y-145069235D01*
X87064663Y-145057504D01*
X87029021Y-145038452D01*
X86997783Y-145012817D01*
X86972148Y-144981579D01*
X86953096Y-144945937D01*
X86941365Y-144907266D01*
X86936800Y-144860912D01*
X86936800Y-143784688D01*
X86941365Y-143738334D01*
X86953096Y-143699663D01*
X86972148Y-143664021D01*
X86997783Y-143632783D01*
X87029021Y-143607148D01*
X87064663Y-143588096D01*
X87103334Y-143576365D01*
X87149688Y-143571800D01*
X87800912Y-143571800D01*
X87847266Y-143576365D01*
X87847266Y-143576365D01*
G37*
G36*
X85972266Y-143576365D02*
X86010937Y-143588096D01*
X86046579Y-143607148D01*
X86077817Y-143632783D01*
X86103452Y-143664021D01*
X86122504Y-143699663D01*
X86134235Y-143738334D01*
X86138800Y-143784688D01*
X86138800Y-144860912D01*
X86134235Y-144907266D01*
X86122504Y-144945937D01*
X86103452Y-144981579D01*
X86077817Y-145012817D01*
X86046579Y-145038452D01*
X86010937Y-145057504D01*
X85972266Y-145069235D01*
X85925912Y-145073800D01*
X85274688Y-145073800D01*
X85228334Y-145069235D01*
X85189663Y-145057504D01*
X85154021Y-145038452D01*
X85122783Y-145012817D01*
X85097148Y-144981579D01*
X85078096Y-144945937D01*
X85066365Y-144907266D01*
X85061800Y-144860912D01*
X85061800Y-143784688D01*
X85066365Y-143738334D01*
X85078096Y-143699663D01*
X85097148Y-143664021D01*
X85122783Y-143632783D01*
X85154021Y-143607148D01*
X85189663Y-143588096D01*
X85228334Y-143576365D01*
X85274688Y-143571800D01*
X85925912Y-143571800D01*
X85972266Y-143576365D01*
X85972266Y-143576365D01*
G37*
G36*
X78868589Y-142896416D02*
X78995520Y-142921664D01*
X79154942Y-142987699D01*
X79298418Y-143083566D01*
X79420434Y-143205582D01*
X79516301Y-143349058D01*
X79582336Y-143508480D01*
X79599008Y-143592295D01*
X79610618Y-143650661D01*
X79616000Y-143677721D01*
X79616000Y-143850279D01*
X79582336Y-144019520D01*
X79516301Y-144178942D01*
X79420434Y-144322418D01*
X79298418Y-144444434D01*
X79154942Y-144540301D01*
X78995520Y-144606336D01*
X78868589Y-144631584D01*
X78826280Y-144640000D01*
X78653720Y-144640000D01*
X78611411Y-144631584D01*
X78484480Y-144606336D01*
X78325058Y-144540301D01*
X78181582Y-144444434D01*
X78059566Y-144322418D01*
X77963699Y-144178942D01*
X77897664Y-144019520D01*
X77864000Y-143850279D01*
X77864000Y-143677721D01*
X77869383Y-143650661D01*
X77880992Y-143592295D01*
X77897664Y-143508480D01*
X77963699Y-143349058D01*
X78059566Y-143205582D01*
X78181582Y-143083566D01*
X78325058Y-142987699D01*
X78484480Y-142921664D01*
X78611411Y-142896416D01*
X78653720Y-142888000D01*
X78826280Y-142888000D01*
X78868589Y-142896416D01*
X78868589Y-142896416D01*
G37*
G36*
X103175000Y-144500800D02*
X101701400Y-144500800D01*
X101701400Y-142011200D01*
X103175000Y-142011200D01*
X103175000Y-144500800D01*
X103175000Y-144500800D01*
G37*
G36*
X107594600Y-144500800D02*
X106121000Y-144500800D01*
X106121000Y-142011200D01*
X107594600Y-142011200D01*
X107594600Y-144500800D01*
X107594600Y-144500800D01*
G37*
G36*
X98349066Y-143352465D02*
X98387737Y-143364196D01*
X98423379Y-143383248D01*
X98454617Y-143408883D01*
X98480252Y-143440121D01*
X98499304Y-143475763D01*
X98511035Y-143514434D01*
X98515600Y-143560788D01*
X98515600Y-144212012D01*
X98511035Y-144258366D01*
X98499304Y-144297037D01*
X98480252Y-144332679D01*
X98454617Y-144363917D01*
X98423379Y-144389552D01*
X98387737Y-144408604D01*
X98349066Y-144420335D01*
X98302712Y-144424900D01*
X97226488Y-144424900D01*
X97180134Y-144420335D01*
X97141463Y-144408604D01*
X97105821Y-144389552D01*
X97074583Y-144363917D01*
X97048948Y-144332679D01*
X97029896Y-144297037D01*
X97018165Y-144258366D01*
X97013600Y-144212012D01*
X97013600Y-143560788D01*
X97018165Y-143514434D01*
X97029896Y-143475763D01*
X97048948Y-143440121D01*
X97074583Y-143408883D01*
X97105821Y-143383248D01*
X97141463Y-143364196D01*
X97180134Y-143352465D01*
X97226488Y-143347900D01*
X98302712Y-143347900D01*
X98349066Y-143352465D01*
X98349066Y-143352465D01*
G37*
G36*
X89295066Y-141163365D02*
X89333737Y-141175096D01*
X89369379Y-141194148D01*
X89400617Y-141219783D01*
X89426252Y-141251021D01*
X89445304Y-141286663D01*
X89457035Y-141325334D01*
X89461600Y-141371688D01*
X89461600Y-142447912D01*
X89457035Y-142494266D01*
X89445304Y-142532937D01*
X89426252Y-142568579D01*
X89400617Y-142599817D01*
X89369379Y-142625452D01*
X89333737Y-142644504D01*
X89295066Y-142656235D01*
X89248712Y-142660800D01*
X88597488Y-142660800D01*
X88551134Y-142656235D01*
X88512463Y-142644504D01*
X88476821Y-142625452D01*
X88445583Y-142599817D01*
X88419948Y-142568579D01*
X88400896Y-142532937D01*
X88389165Y-142494266D01*
X88384600Y-142447912D01*
X88384600Y-141371688D01*
X88389165Y-141325334D01*
X88400896Y-141286663D01*
X88419948Y-141251021D01*
X88445583Y-141219783D01*
X88476821Y-141194148D01*
X88512463Y-141175096D01*
X88551134Y-141163365D01*
X88597488Y-141158800D01*
X89248712Y-141158800D01*
X89295066Y-141163365D01*
X89295066Y-141163365D01*
G37*
G36*
X87420066Y-141163365D02*
X87458737Y-141175096D01*
X87494379Y-141194148D01*
X87525617Y-141219783D01*
X87551252Y-141251021D01*
X87570304Y-141286663D01*
X87582035Y-141325334D01*
X87586600Y-141371688D01*
X87586600Y-142447912D01*
X87582035Y-142494266D01*
X87570304Y-142532937D01*
X87551252Y-142568579D01*
X87525617Y-142599817D01*
X87494379Y-142625452D01*
X87458737Y-142644504D01*
X87420066Y-142656235D01*
X87373712Y-142660800D01*
X86722488Y-142660800D01*
X86676134Y-142656235D01*
X86637463Y-142644504D01*
X86601821Y-142625452D01*
X86570583Y-142599817D01*
X86544948Y-142568579D01*
X86525896Y-142532937D01*
X86514165Y-142494266D01*
X86509600Y-142447912D01*
X86509600Y-141371688D01*
X86514165Y-141325334D01*
X86525896Y-141286663D01*
X86544948Y-141251021D01*
X86570583Y-141219783D01*
X86601821Y-141194148D01*
X86637463Y-141175096D01*
X86676134Y-141163365D01*
X86722488Y-141158800D01*
X87373712Y-141158800D01*
X87420066Y-141163365D01*
X87420066Y-141163365D01*
G37*
G36*
X98349066Y-141477465D02*
X98387737Y-141489196D01*
X98423379Y-141508248D01*
X98454617Y-141533883D01*
X98480252Y-141565121D01*
X98499304Y-141600763D01*
X98511035Y-141639434D01*
X98515600Y-141685788D01*
X98515600Y-142337012D01*
X98511035Y-142383366D01*
X98499304Y-142422037D01*
X98480252Y-142457679D01*
X98454617Y-142488917D01*
X98423379Y-142514552D01*
X98387737Y-142533604D01*
X98349066Y-142545335D01*
X98302712Y-142549900D01*
X97226488Y-142549900D01*
X97180134Y-142545335D01*
X97141463Y-142533604D01*
X97105821Y-142514552D01*
X97074583Y-142488917D01*
X97048948Y-142457679D01*
X97029896Y-142422037D01*
X97018165Y-142383366D01*
X97013600Y-142337012D01*
X97013600Y-141685788D01*
X97018165Y-141639434D01*
X97029896Y-141600763D01*
X97048948Y-141565121D01*
X97074583Y-141533883D01*
X97105821Y-141508248D01*
X97141463Y-141489196D01*
X97180134Y-141477465D01*
X97226488Y-141472900D01*
X98302712Y-141472900D01*
X98349066Y-141477465D01*
X98349066Y-141477465D01*
G37*
G36*
X92786466Y-141170365D02*
X92825137Y-141182096D01*
X92860779Y-141201148D01*
X92892017Y-141226783D01*
X92917652Y-141258021D01*
X92936704Y-141293663D01*
X92948435Y-141332334D01*
X92953000Y-141378688D01*
X92953000Y-142029912D01*
X92948435Y-142076266D01*
X92936704Y-142114937D01*
X92917652Y-142150579D01*
X92892017Y-142181817D01*
X92860779Y-142207452D01*
X92825137Y-142226504D01*
X92786466Y-142238235D01*
X92740112Y-142242800D01*
X91663888Y-142242800D01*
X91617534Y-142238235D01*
X91578863Y-142226504D01*
X91543221Y-142207452D01*
X91511983Y-142181817D01*
X91486348Y-142150579D01*
X91467296Y-142114937D01*
X91455565Y-142076266D01*
X91451000Y-142029912D01*
X91451000Y-141378688D01*
X91455565Y-141332334D01*
X91467296Y-141293663D01*
X91486348Y-141258021D01*
X91511983Y-141226783D01*
X91543221Y-141201148D01*
X91578863Y-141182096D01*
X91617534Y-141170365D01*
X91663888Y-141165800D01*
X92740112Y-141165800D01*
X92786466Y-141170365D01*
X92786466Y-141170365D01*
G37*
G36*
X96358566Y-140477565D02*
X96397237Y-140489296D01*
X96432879Y-140508348D01*
X96464117Y-140533983D01*
X96489752Y-140565221D01*
X96508804Y-140600863D01*
X96520535Y-140639534D01*
X96525100Y-140685888D01*
X96525100Y-141762112D01*
X96520535Y-141808466D01*
X96508804Y-141847137D01*
X96489752Y-141882779D01*
X96464117Y-141914017D01*
X96432879Y-141939652D01*
X96397237Y-141958704D01*
X96358566Y-141970435D01*
X96312212Y-141975000D01*
X95660988Y-141975000D01*
X95614634Y-141970435D01*
X95575963Y-141958704D01*
X95540321Y-141939652D01*
X95509083Y-141914017D01*
X95483448Y-141882779D01*
X95464396Y-141847137D01*
X95452665Y-141808466D01*
X95448100Y-141762112D01*
X95448100Y-140685888D01*
X95452665Y-140639534D01*
X95464396Y-140600863D01*
X95483448Y-140565221D01*
X95509083Y-140533983D01*
X95540321Y-140508348D01*
X95575963Y-140489296D01*
X95614634Y-140477565D01*
X95660988Y-140473000D01*
X96312212Y-140473000D01*
X96358566Y-140477565D01*
X96358566Y-140477565D01*
G37*
G36*
X94483566Y-140477565D02*
X94522237Y-140489296D01*
X94557879Y-140508348D01*
X94589117Y-140533983D01*
X94614752Y-140565221D01*
X94633804Y-140600863D01*
X94645535Y-140639534D01*
X94650100Y-140685888D01*
X94650100Y-141762112D01*
X94645535Y-141808466D01*
X94633804Y-141847137D01*
X94614752Y-141882779D01*
X94589117Y-141914017D01*
X94557879Y-141939652D01*
X94522237Y-141958704D01*
X94483566Y-141970435D01*
X94437212Y-141975000D01*
X93785988Y-141975000D01*
X93739634Y-141970435D01*
X93700963Y-141958704D01*
X93665321Y-141939652D01*
X93634083Y-141914017D01*
X93608448Y-141882779D01*
X93589396Y-141847137D01*
X93577665Y-141808466D01*
X93573100Y-141762112D01*
X93573100Y-140685888D01*
X93577665Y-140639534D01*
X93589396Y-140600863D01*
X93608448Y-140565221D01*
X93634083Y-140533983D01*
X93665321Y-140508348D01*
X93700963Y-140489296D01*
X93739634Y-140477565D01*
X93785988Y-140473000D01*
X94437212Y-140473000D01*
X94483566Y-140477565D01*
X94483566Y-140477565D01*
G37*
G36*
X75793635Y-139395019D02*
X75974903Y-139431075D01*
X76202571Y-139525378D01*
X76392048Y-139651983D01*
X76407469Y-139662287D01*
X76581713Y-139836531D01*
X76581715Y-139836534D01*
X76718622Y-140041429D01*
X76812925Y-140269097D01*
X76843531Y-140422966D01*
X76857561Y-140493495D01*
X76861000Y-140510787D01*
X76861000Y-140757213D01*
X76812925Y-140998903D01*
X76718622Y-141226571D01*
X76582332Y-141430542D01*
X76581713Y-141431469D01*
X76407469Y-141605713D01*
X76407466Y-141605715D01*
X76202571Y-141742622D01*
X75974903Y-141836925D01*
X75793635Y-141872981D01*
X75733214Y-141885000D01*
X75486786Y-141885000D01*
X75426365Y-141872981D01*
X75245097Y-141836925D01*
X75017429Y-141742622D01*
X74812534Y-141605715D01*
X74812531Y-141605713D01*
X74638287Y-141431469D01*
X74637668Y-141430542D01*
X74501378Y-141226571D01*
X74407075Y-140998903D01*
X74359000Y-140757213D01*
X74359000Y-140510787D01*
X74362440Y-140493495D01*
X74376469Y-140422966D01*
X74407075Y-140269097D01*
X74501378Y-140041429D01*
X74638285Y-139836534D01*
X74638287Y-139836531D01*
X74812531Y-139662287D01*
X74827952Y-139651983D01*
X75017429Y-139525378D01*
X75245097Y-139431075D01*
X75426365Y-139395019D01*
X75486786Y-139383000D01*
X75733214Y-139383000D01*
X75793635Y-139395019D01*
X75793635Y-139395019D01*
G37*
G36*
X82053635Y-139395019D02*
X82234903Y-139431075D01*
X82462571Y-139525378D01*
X82652048Y-139651983D01*
X82667469Y-139662287D01*
X82841713Y-139836531D01*
X82841715Y-139836534D01*
X82978622Y-140041429D01*
X83072925Y-140269097D01*
X83103531Y-140422966D01*
X83117561Y-140493495D01*
X83121000Y-140510787D01*
X83121000Y-140757213D01*
X83072925Y-140998903D01*
X82978622Y-141226571D01*
X82842332Y-141430542D01*
X82841713Y-141431469D01*
X82667469Y-141605713D01*
X82667466Y-141605715D01*
X82462571Y-141742622D01*
X82234903Y-141836925D01*
X82053635Y-141872981D01*
X81993214Y-141885000D01*
X81746786Y-141885000D01*
X81686365Y-141872981D01*
X81505097Y-141836925D01*
X81277429Y-141742622D01*
X81072534Y-141605715D01*
X81072531Y-141605713D01*
X80898287Y-141431469D01*
X80897668Y-141430542D01*
X80761378Y-141226571D01*
X80667075Y-140998903D01*
X80619000Y-140757213D01*
X80619000Y-140510787D01*
X80622440Y-140493495D01*
X80636469Y-140422966D01*
X80667075Y-140269097D01*
X80761378Y-140041429D01*
X80898285Y-139836534D01*
X80898287Y-139836531D01*
X81072531Y-139662287D01*
X81087952Y-139651983D01*
X81277429Y-139525378D01*
X81505097Y-139431075D01*
X81686365Y-139395019D01*
X81746786Y-139383000D01*
X81993214Y-139383000D01*
X82053635Y-139395019D01*
X82053635Y-139395019D01*
G37*
G36*
X108146466Y-139461565D02*
X108185137Y-139473296D01*
X108220779Y-139492348D01*
X108252017Y-139517983D01*
X108277652Y-139549221D01*
X108296704Y-139584863D01*
X108308435Y-139623534D01*
X108313000Y-139669888D01*
X108313000Y-140746112D01*
X108308435Y-140792466D01*
X108296704Y-140831137D01*
X108277652Y-140866779D01*
X108252017Y-140898017D01*
X108220779Y-140923652D01*
X108185137Y-140942704D01*
X108146466Y-140954435D01*
X108100112Y-140959000D01*
X107448888Y-140959000D01*
X107402534Y-140954435D01*
X107363863Y-140942704D01*
X107328221Y-140923652D01*
X107296983Y-140898017D01*
X107271348Y-140866779D01*
X107252296Y-140831137D01*
X107240565Y-140792466D01*
X107236000Y-140746112D01*
X107236000Y-139669888D01*
X107240565Y-139623534D01*
X107252296Y-139584863D01*
X107271348Y-139549221D01*
X107296983Y-139517983D01*
X107328221Y-139492348D01*
X107363863Y-139473296D01*
X107402534Y-139461565D01*
X107448888Y-139457000D01*
X108100112Y-139457000D01*
X108146466Y-139461565D01*
X108146466Y-139461565D01*
G37*
G36*
X110021466Y-139461565D02*
X110060137Y-139473296D01*
X110095779Y-139492348D01*
X110127017Y-139517983D01*
X110152652Y-139549221D01*
X110171704Y-139584863D01*
X110183435Y-139623534D01*
X110188000Y-139669888D01*
X110188000Y-140746112D01*
X110183435Y-140792466D01*
X110171704Y-140831137D01*
X110152652Y-140866779D01*
X110127017Y-140898017D01*
X110095779Y-140923652D01*
X110060137Y-140942704D01*
X110021466Y-140954435D01*
X109975112Y-140959000D01*
X109323888Y-140959000D01*
X109277534Y-140954435D01*
X109238863Y-140942704D01*
X109203221Y-140923652D01*
X109171983Y-140898017D01*
X109146348Y-140866779D01*
X109127296Y-140831137D01*
X109115565Y-140792466D01*
X109111000Y-140746112D01*
X109111000Y-139669888D01*
X109115565Y-139623534D01*
X109127296Y-139584863D01*
X109146348Y-139549221D01*
X109171983Y-139517983D01*
X109203221Y-139492348D01*
X109238863Y-139473296D01*
X109277534Y-139461565D01*
X109323888Y-139457000D01*
X109975112Y-139457000D01*
X110021466Y-139461565D01*
X110021466Y-139461565D01*
G37*
G36*
X106248466Y-139595565D02*
X106287137Y-139607296D01*
X106322779Y-139626348D01*
X106354017Y-139651983D01*
X106379652Y-139683221D01*
X106398704Y-139718863D01*
X106410435Y-139757534D01*
X106415000Y-139803888D01*
X106415000Y-140455112D01*
X106410435Y-140501466D01*
X106398704Y-140540137D01*
X106379652Y-140575779D01*
X106354017Y-140607017D01*
X106322779Y-140632652D01*
X106287137Y-140651704D01*
X106248466Y-140663435D01*
X106202112Y-140668000D01*
X105125888Y-140668000D01*
X105079534Y-140663435D01*
X105040863Y-140651704D01*
X105005221Y-140632652D01*
X104973983Y-140607017D01*
X104948348Y-140575779D01*
X104929296Y-140540137D01*
X104917565Y-140501466D01*
X104913000Y-140455112D01*
X104913000Y-139803888D01*
X104917565Y-139757534D01*
X104929296Y-139718863D01*
X104948348Y-139683221D01*
X104973983Y-139651983D01*
X105005221Y-139626348D01*
X105040863Y-139607296D01*
X105079534Y-139595565D01*
X105125888Y-139591000D01*
X106202112Y-139591000D01*
X106248466Y-139595565D01*
X106248466Y-139595565D01*
G37*
G36*
X98476066Y-139517065D02*
X98514737Y-139528796D01*
X98550379Y-139547848D01*
X98581617Y-139573483D01*
X98607252Y-139604721D01*
X98626304Y-139640363D01*
X98638035Y-139679034D01*
X98642600Y-139725388D01*
X98642600Y-140376612D01*
X98638035Y-140422966D01*
X98626304Y-140461637D01*
X98607252Y-140497279D01*
X98581617Y-140528517D01*
X98550379Y-140554152D01*
X98514737Y-140573204D01*
X98476066Y-140584935D01*
X98429712Y-140589500D01*
X97353488Y-140589500D01*
X97307134Y-140584935D01*
X97268463Y-140573204D01*
X97232821Y-140554152D01*
X97201583Y-140528517D01*
X97175948Y-140497279D01*
X97156896Y-140461637D01*
X97145165Y-140422966D01*
X97140600Y-140376612D01*
X97140600Y-139725388D01*
X97145165Y-139679034D01*
X97156896Y-139640363D01*
X97175948Y-139604721D01*
X97201583Y-139573483D01*
X97232821Y-139547848D01*
X97268463Y-139528796D01*
X97307134Y-139517065D01*
X97353488Y-139512500D01*
X98429712Y-139512500D01*
X98476066Y-139517065D01*
X98476066Y-139517065D01*
G37*
G36*
X103200466Y-139517065D02*
X103239137Y-139528796D01*
X103274779Y-139547848D01*
X103306017Y-139573483D01*
X103331652Y-139604721D01*
X103350704Y-139640363D01*
X103362435Y-139679034D01*
X103367000Y-139725388D01*
X103367000Y-140376612D01*
X103362435Y-140422966D01*
X103350704Y-140461637D01*
X103331652Y-140497279D01*
X103306017Y-140528517D01*
X103274779Y-140554152D01*
X103239137Y-140573204D01*
X103200466Y-140584935D01*
X103154112Y-140589500D01*
X102077888Y-140589500D01*
X102031534Y-140584935D01*
X101992863Y-140573204D01*
X101957221Y-140554152D01*
X101925983Y-140528517D01*
X101900348Y-140497279D01*
X101881296Y-140461637D01*
X101869565Y-140422966D01*
X101865000Y-140376612D01*
X101865000Y-139725388D01*
X101869565Y-139679034D01*
X101881296Y-139640363D01*
X101900348Y-139604721D01*
X101925983Y-139573483D01*
X101957221Y-139547848D01*
X101992863Y-139528796D01*
X102031534Y-139517065D01*
X102077888Y-139512500D01*
X103154112Y-139512500D01*
X103200466Y-139517065D01*
X103200466Y-139517065D01*
G37*
G36*
X92786466Y-139295365D02*
X92825137Y-139307096D01*
X92860779Y-139326148D01*
X92892017Y-139351783D01*
X92917652Y-139383021D01*
X92936704Y-139418663D01*
X92948435Y-139457334D01*
X92953000Y-139503688D01*
X92953000Y-140154912D01*
X92948435Y-140201266D01*
X92936704Y-140239937D01*
X92917652Y-140275579D01*
X92892017Y-140306817D01*
X92860779Y-140332452D01*
X92825137Y-140351504D01*
X92786466Y-140363235D01*
X92740112Y-140367800D01*
X91663888Y-140367800D01*
X91617534Y-140363235D01*
X91578863Y-140351504D01*
X91543221Y-140332452D01*
X91511983Y-140306817D01*
X91486348Y-140275579D01*
X91467296Y-140239937D01*
X91455565Y-140201266D01*
X91451000Y-140154912D01*
X91451000Y-139503688D01*
X91455565Y-139457334D01*
X91467296Y-139418663D01*
X91486348Y-139383021D01*
X91511983Y-139351783D01*
X91543221Y-139326148D01*
X91578863Y-139307096D01*
X91617534Y-139295365D01*
X91663888Y-139290800D01*
X92740112Y-139290800D01*
X92786466Y-139295365D01*
X92786466Y-139295365D01*
G37*
G36*
X110021466Y-137429565D02*
X110060137Y-137441296D01*
X110095779Y-137460348D01*
X110127017Y-137485983D01*
X110152652Y-137517221D01*
X110171704Y-137552863D01*
X110183435Y-137591534D01*
X110188000Y-137637888D01*
X110188000Y-138714112D01*
X110183435Y-138760466D01*
X110171704Y-138799137D01*
X110152652Y-138834779D01*
X110127017Y-138866017D01*
X110095779Y-138891652D01*
X110060137Y-138910704D01*
X110021466Y-138922435D01*
X109975112Y-138927000D01*
X109323888Y-138927000D01*
X109277534Y-138922435D01*
X109238863Y-138910704D01*
X109203221Y-138891652D01*
X109171983Y-138866017D01*
X109146348Y-138834779D01*
X109127296Y-138799137D01*
X109115565Y-138760466D01*
X109111000Y-138714112D01*
X109111000Y-137637888D01*
X109115565Y-137591534D01*
X109127296Y-137552863D01*
X109146348Y-137517221D01*
X109171983Y-137485983D01*
X109203221Y-137460348D01*
X109238863Y-137441296D01*
X109277534Y-137429565D01*
X109323888Y-137425000D01*
X109975112Y-137425000D01*
X110021466Y-137429565D01*
X110021466Y-137429565D01*
G37*
G36*
X108146466Y-137429565D02*
X108185137Y-137441296D01*
X108220779Y-137460348D01*
X108252017Y-137485983D01*
X108277652Y-137517221D01*
X108296704Y-137552863D01*
X108308435Y-137591534D01*
X108313000Y-137637888D01*
X108313000Y-138714112D01*
X108308435Y-138760466D01*
X108296704Y-138799137D01*
X108277652Y-138834779D01*
X108252017Y-138866017D01*
X108220779Y-138891652D01*
X108185137Y-138910704D01*
X108146466Y-138922435D01*
X108100112Y-138927000D01*
X107448888Y-138927000D01*
X107402534Y-138922435D01*
X107363863Y-138910704D01*
X107328221Y-138891652D01*
X107296983Y-138866017D01*
X107271348Y-138834779D01*
X107252296Y-138799137D01*
X107240565Y-138760466D01*
X107236000Y-138714112D01*
X107236000Y-137637888D01*
X107240565Y-137591534D01*
X107252296Y-137552863D01*
X107271348Y-137517221D01*
X107296983Y-137485983D01*
X107328221Y-137460348D01*
X107363863Y-137441296D01*
X107402534Y-137429565D01*
X107448888Y-137425000D01*
X108100112Y-137425000D01*
X108146466Y-137429565D01*
X108146466Y-137429565D01*
G37*
G36*
X106248466Y-137720565D02*
X106287137Y-137732296D01*
X106322779Y-137751348D01*
X106354017Y-137776983D01*
X106379652Y-137808221D01*
X106398704Y-137843863D01*
X106410435Y-137882534D01*
X106415000Y-137928888D01*
X106415000Y-138580112D01*
X106410435Y-138626466D01*
X106398704Y-138665137D01*
X106379652Y-138700779D01*
X106354017Y-138732017D01*
X106322779Y-138757652D01*
X106287137Y-138776704D01*
X106248466Y-138788435D01*
X106202112Y-138793000D01*
X105125888Y-138793000D01*
X105079534Y-138788435D01*
X105040863Y-138776704D01*
X105005221Y-138757652D01*
X104973983Y-138732017D01*
X104948348Y-138700779D01*
X104929296Y-138665137D01*
X104917565Y-138626466D01*
X104913000Y-138580112D01*
X104913000Y-137928888D01*
X104917565Y-137882534D01*
X104929296Y-137843863D01*
X104948348Y-137808221D01*
X104973983Y-137776983D01*
X105005221Y-137751348D01*
X105040863Y-137732296D01*
X105079534Y-137720565D01*
X105125888Y-137716000D01*
X106202112Y-137716000D01*
X106248466Y-137720565D01*
X106248466Y-137720565D01*
G37*
G36*
X103200466Y-137642065D02*
X103239137Y-137653796D01*
X103274779Y-137672848D01*
X103306017Y-137698483D01*
X103331652Y-137729721D01*
X103350704Y-137765363D01*
X103362435Y-137804034D01*
X103367000Y-137850388D01*
X103367000Y-138501612D01*
X103362435Y-138547966D01*
X103350704Y-138586637D01*
X103331652Y-138622279D01*
X103306017Y-138653517D01*
X103274779Y-138679152D01*
X103239137Y-138698204D01*
X103200466Y-138709935D01*
X103154112Y-138714500D01*
X102077888Y-138714500D01*
X102031534Y-138709935D01*
X101992863Y-138698204D01*
X101957221Y-138679152D01*
X101925983Y-138653517D01*
X101900348Y-138622279D01*
X101881296Y-138586637D01*
X101869565Y-138547966D01*
X101865000Y-138501612D01*
X101865000Y-137850388D01*
X101869565Y-137804034D01*
X101881296Y-137765363D01*
X101900348Y-137729721D01*
X101925983Y-137698483D01*
X101957221Y-137672848D01*
X101992863Y-137653796D01*
X102031534Y-137642065D01*
X102077888Y-137637500D01*
X103154112Y-137637500D01*
X103200466Y-137642065D01*
X103200466Y-137642065D01*
G37*
G36*
X98476066Y-137642065D02*
X98514737Y-137653796D01*
X98550379Y-137672848D01*
X98581617Y-137698483D01*
X98607252Y-137729721D01*
X98626304Y-137765363D01*
X98638035Y-137804034D01*
X98642600Y-137850388D01*
X98642600Y-138501612D01*
X98638035Y-138547966D01*
X98626304Y-138586637D01*
X98607252Y-138622279D01*
X98581617Y-138653517D01*
X98550379Y-138679152D01*
X98514737Y-138698204D01*
X98476066Y-138709935D01*
X98429712Y-138714500D01*
X97353488Y-138714500D01*
X97307134Y-138709935D01*
X97268463Y-138698204D01*
X97232821Y-138679152D01*
X97201583Y-138653517D01*
X97175948Y-138622279D01*
X97156896Y-138586637D01*
X97145165Y-138547966D01*
X97140600Y-138501612D01*
X97140600Y-137850388D01*
X97145165Y-137804034D01*
X97156896Y-137765363D01*
X97175948Y-137729721D01*
X97201583Y-137698483D01*
X97232821Y-137672848D01*
X97268463Y-137653796D01*
X97307134Y-137642065D01*
X97353488Y-137637500D01*
X98429712Y-137637500D01*
X98476066Y-137642065D01*
X98476066Y-137642065D01*
G37*
G36*
X96231566Y-137073965D02*
X96270237Y-137085696D01*
X96305879Y-137104748D01*
X96337117Y-137130383D01*
X96362752Y-137161621D01*
X96381804Y-137197263D01*
X96393535Y-137235934D01*
X96398100Y-137282288D01*
X96398100Y-138358512D01*
X96393535Y-138404866D01*
X96381804Y-138443537D01*
X96362752Y-138479179D01*
X96337117Y-138510417D01*
X96305879Y-138536052D01*
X96270237Y-138555104D01*
X96231566Y-138566835D01*
X96185212Y-138571400D01*
X95533988Y-138571400D01*
X95487634Y-138566835D01*
X95448963Y-138555104D01*
X95413321Y-138536052D01*
X95382083Y-138510417D01*
X95356448Y-138479179D01*
X95337396Y-138443537D01*
X95325665Y-138404866D01*
X95321100Y-138358512D01*
X95321100Y-137282288D01*
X95325665Y-137235934D01*
X95337396Y-137197263D01*
X95356448Y-137161621D01*
X95382083Y-137130383D01*
X95413321Y-137104748D01*
X95448963Y-137085696D01*
X95487634Y-137073965D01*
X95533988Y-137069400D01*
X96185212Y-137069400D01*
X96231566Y-137073965D01*
X96231566Y-137073965D01*
G37*
G36*
X94356566Y-137073965D02*
X94395237Y-137085696D01*
X94430879Y-137104748D01*
X94462117Y-137130383D01*
X94487752Y-137161621D01*
X94506804Y-137197263D01*
X94518535Y-137235934D01*
X94523100Y-137282288D01*
X94523100Y-138358512D01*
X94518535Y-138404866D01*
X94506804Y-138443537D01*
X94487752Y-138479179D01*
X94462117Y-138510417D01*
X94430879Y-138536052D01*
X94395237Y-138555104D01*
X94356566Y-138566835D01*
X94310212Y-138571400D01*
X93658988Y-138571400D01*
X93612634Y-138566835D01*
X93573963Y-138555104D01*
X93538321Y-138536052D01*
X93507083Y-138510417D01*
X93481448Y-138479179D01*
X93462396Y-138443537D01*
X93450665Y-138404866D01*
X93446100Y-138358512D01*
X93446100Y-137282288D01*
X93450665Y-137235934D01*
X93462396Y-137197263D01*
X93481448Y-137161621D01*
X93507083Y-137130383D01*
X93538321Y-137104748D01*
X93573963Y-137085696D01*
X93612634Y-137073965D01*
X93658988Y-137069400D01*
X94310212Y-137069400D01*
X94356566Y-137073965D01*
X94356566Y-137073965D01*
G37*
G36*
X91516466Y-137134065D02*
X91555137Y-137145796D01*
X91590779Y-137164848D01*
X91622017Y-137190483D01*
X91647652Y-137221721D01*
X91666704Y-137257363D01*
X91678435Y-137296034D01*
X91683000Y-137342388D01*
X91683000Y-137993612D01*
X91678435Y-138039966D01*
X91666704Y-138078637D01*
X91647652Y-138114279D01*
X91622017Y-138145517D01*
X91590779Y-138171152D01*
X91555137Y-138190204D01*
X91516466Y-138201935D01*
X91470112Y-138206500D01*
X90393888Y-138206500D01*
X90347534Y-138201935D01*
X90308863Y-138190204D01*
X90273221Y-138171152D01*
X90241983Y-138145517D01*
X90216348Y-138114279D01*
X90197296Y-138078637D01*
X90185565Y-138039966D01*
X90181000Y-137993612D01*
X90181000Y-137342388D01*
X90185565Y-137296034D01*
X90197296Y-137257363D01*
X90216348Y-137221721D01*
X90241983Y-137190483D01*
X90273221Y-137164848D01*
X90308863Y-137145796D01*
X90347534Y-137134065D01*
X90393888Y-137129500D01*
X91470112Y-137129500D01*
X91516466Y-137134065D01*
X91516466Y-137134065D01*
G37*
G36*
X87396966Y-135397565D02*
X87435637Y-135409296D01*
X87471279Y-135428348D01*
X87502517Y-135453983D01*
X87528152Y-135485221D01*
X87547204Y-135520863D01*
X87558935Y-135559534D01*
X87563500Y-135605888D01*
X87563500Y-136682112D01*
X87558935Y-136728466D01*
X87547204Y-136767137D01*
X87528152Y-136802779D01*
X87502517Y-136834017D01*
X87471279Y-136859652D01*
X87435637Y-136878704D01*
X87396966Y-136890435D01*
X87350612Y-136895000D01*
X86699388Y-136895000D01*
X86653034Y-136890435D01*
X86614363Y-136878704D01*
X86578721Y-136859652D01*
X86547483Y-136834017D01*
X86521848Y-136802779D01*
X86502796Y-136767137D01*
X86491065Y-136728466D01*
X86486500Y-136682112D01*
X86486500Y-135605888D01*
X86491065Y-135559534D01*
X86502796Y-135520863D01*
X86521848Y-135485221D01*
X86547483Y-135453983D01*
X86578721Y-135428348D01*
X86614363Y-135409296D01*
X86653034Y-135397565D01*
X86699388Y-135393000D01*
X87350612Y-135393000D01*
X87396966Y-135397565D01*
X87396966Y-135397565D01*
G37*
G36*
X89271966Y-135397565D02*
X89310637Y-135409296D01*
X89346279Y-135428348D01*
X89377517Y-135453983D01*
X89403152Y-135485221D01*
X89422204Y-135520863D01*
X89433935Y-135559534D01*
X89438500Y-135605888D01*
X89438500Y-136682112D01*
X89433935Y-136728466D01*
X89422204Y-136767137D01*
X89403152Y-136802779D01*
X89377517Y-136834017D01*
X89346279Y-136859652D01*
X89310637Y-136878704D01*
X89271966Y-136890435D01*
X89225612Y-136895000D01*
X88574388Y-136895000D01*
X88528034Y-136890435D01*
X88489363Y-136878704D01*
X88453721Y-136859652D01*
X88422483Y-136834017D01*
X88396848Y-136802779D01*
X88377796Y-136767137D01*
X88366065Y-136728466D01*
X88361500Y-136682112D01*
X88361500Y-135605888D01*
X88366065Y-135559534D01*
X88377796Y-135520863D01*
X88396848Y-135485221D01*
X88422483Y-135453983D01*
X88453721Y-135428348D01*
X88489363Y-135409296D01*
X88528034Y-135397565D01*
X88574388Y-135393000D01*
X89225612Y-135393000D01*
X89271966Y-135397565D01*
X89271966Y-135397565D01*
G37*
G36*
X106146800Y-136398200D02*
X104774800Y-136398200D01*
X104774800Y-135737400D01*
X106146800Y-135737400D01*
X106146800Y-136398200D01*
X106146800Y-136398200D01*
G37*
G36*
X108585200Y-136398200D02*
X107213200Y-136398200D01*
X107213200Y-135737400D01*
X108585200Y-135737400D01*
X108585200Y-136398200D01*
X108585200Y-136398200D01*
G37*
G36*
X91516466Y-135259065D02*
X91555137Y-135270796D01*
X91590779Y-135289848D01*
X91622017Y-135315483D01*
X91647652Y-135346721D01*
X91666704Y-135382363D01*
X91678435Y-135421034D01*
X91683000Y-135467388D01*
X91683000Y-136118612D01*
X91678435Y-136164966D01*
X91666704Y-136203637D01*
X91647652Y-136239279D01*
X91622017Y-136270517D01*
X91590779Y-136296152D01*
X91555137Y-136315204D01*
X91516466Y-136326935D01*
X91470112Y-136331500D01*
X90393888Y-136331500D01*
X90347534Y-136326935D01*
X90308863Y-136315204D01*
X90273221Y-136296152D01*
X90241983Y-136270517D01*
X90216348Y-136239279D01*
X90197296Y-136203637D01*
X90185565Y-136164966D01*
X90181000Y-136118612D01*
X90181000Y-135467388D01*
X90185565Y-135421034D01*
X90197296Y-135382363D01*
X90216348Y-135346721D01*
X90241983Y-135315483D01*
X90273221Y-135289848D01*
X90308863Y-135270796D01*
X90347534Y-135259065D01*
X90393888Y-135254500D01*
X91470112Y-135254500D01*
X91516466Y-135259065D01*
X91516466Y-135259065D01*
G37*
G36*
X82053636Y-133463019D02*
X82234903Y-133499075D01*
X82462571Y-133593378D01*
X82650782Y-133719137D01*
X82667469Y-133730287D01*
X82841713Y-133904531D01*
X82841715Y-133904534D01*
X82978622Y-134109429D01*
X83072925Y-134337097D01*
X83121000Y-134578787D01*
X83121000Y-134825213D01*
X83072925Y-135066903D01*
X82978622Y-135294571D01*
X82863149Y-135467388D01*
X82841713Y-135499469D01*
X82667469Y-135673713D01*
X82667466Y-135673715D01*
X82462571Y-135810622D01*
X82234903Y-135904925D01*
X82053635Y-135940981D01*
X81993214Y-135953000D01*
X81746786Y-135953000D01*
X81686365Y-135940981D01*
X81505097Y-135904925D01*
X81277429Y-135810622D01*
X81072534Y-135673715D01*
X81072531Y-135673713D01*
X80898287Y-135499469D01*
X80876851Y-135467388D01*
X80761378Y-135294571D01*
X80667075Y-135066903D01*
X80619000Y-134825213D01*
X80619000Y-134578787D01*
X80667075Y-134337097D01*
X80761378Y-134109429D01*
X80898285Y-133904534D01*
X80898287Y-133904531D01*
X81072531Y-133730287D01*
X81089218Y-133719137D01*
X81277429Y-133593378D01*
X81505097Y-133499075D01*
X81686364Y-133463019D01*
X81746786Y-133451000D01*
X81993214Y-133451000D01*
X82053636Y-133463019D01*
X82053636Y-133463019D01*
G37*
G36*
X75793636Y-133463019D02*
X75974903Y-133499075D01*
X76202571Y-133593378D01*
X76390782Y-133719137D01*
X76407469Y-133730287D01*
X76581713Y-133904531D01*
X76581715Y-133904534D01*
X76718622Y-134109429D01*
X76812925Y-134337097D01*
X76861000Y-134578787D01*
X76861000Y-134825213D01*
X76812925Y-135066903D01*
X76718622Y-135294571D01*
X76603149Y-135467388D01*
X76581713Y-135499469D01*
X76407469Y-135673713D01*
X76407466Y-135673715D01*
X76202571Y-135810622D01*
X75974903Y-135904925D01*
X75793635Y-135940981D01*
X75733214Y-135953000D01*
X75486786Y-135953000D01*
X75426365Y-135940981D01*
X75245097Y-135904925D01*
X75017429Y-135810622D01*
X74812534Y-135673715D01*
X74812531Y-135673713D01*
X74638287Y-135499469D01*
X74616851Y-135467388D01*
X74501378Y-135294571D01*
X74407075Y-135066903D01*
X74359000Y-134825213D01*
X74359000Y-134578787D01*
X74407075Y-134337097D01*
X74501378Y-134109429D01*
X74638285Y-133904534D01*
X74638287Y-133904531D01*
X74812531Y-133730287D01*
X74829218Y-133719137D01*
X75017429Y-133593378D01*
X75245097Y-133499075D01*
X75426364Y-133463019D01*
X75486786Y-133451000D01*
X75733214Y-133451000D01*
X75793636Y-133463019D01*
X75793636Y-133463019D01*
G37*
G36*
X106146800Y-135458400D02*
X104774800Y-135458400D01*
X104774800Y-134797600D01*
X106146800Y-134797600D01*
X106146800Y-135458400D01*
X106146800Y-135458400D01*
G37*
G36*
X100558966Y-133873565D02*
X100597637Y-133885296D01*
X100633279Y-133904348D01*
X100664517Y-133929983D01*
X100690152Y-133961221D01*
X100709204Y-133996863D01*
X100720935Y-134035534D01*
X100725500Y-134081888D01*
X100725500Y-135158112D01*
X100720935Y-135204466D01*
X100709204Y-135243137D01*
X100690152Y-135278779D01*
X100664517Y-135310017D01*
X100633279Y-135335652D01*
X100597637Y-135354704D01*
X100558966Y-135366435D01*
X100512612Y-135371000D01*
X99861388Y-135371000D01*
X99815034Y-135366435D01*
X99776363Y-135354704D01*
X99740721Y-135335652D01*
X99709483Y-135310017D01*
X99683848Y-135278779D01*
X99664796Y-135243137D01*
X99653065Y-135204466D01*
X99648500Y-135158112D01*
X99648500Y-134081888D01*
X99653065Y-134035534D01*
X99664796Y-133996863D01*
X99683848Y-133961221D01*
X99709483Y-133929983D01*
X99740721Y-133904348D01*
X99776363Y-133885296D01*
X99815034Y-133873565D01*
X99861388Y-133869000D01*
X100512612Y-133869000D01*
X100558966Y-133873565D01*
X100558966Y-133873565D01*
G37*
G36*
X102433966Y-133873565D02*
X102472637Y-133885296D01*
X102508279Y-133904348D01*
X102539517Y-133929983D01*
X102565152Y-133961221D01*
X102584204Y-133996863D01*
X102595935Y-134035534D01*
X102600500Y-134081888D01*
X102600500Y-135158112D01*
X102595935Y-135204466D01*
X102584204Y-135243137D01*
X102565152Y-135278779D01*
X102539517Y-135310017D01*
X102508279Y-135335652D01*
X102472637Y-135354704D01*
X102433966Y-135366435D01*
X102387612Y-135371000D01*
X101736388Y-135371000D01*
X101690034Y-135366435D01*
X101651363Y-135354704D01*
X101615721Y-135335652D01*
X101584483Y-135310017D01*
X101558848Y-135278779D01*
X101539796Y-135243137D01*
X101528065Y-135204466D01*
X101523500Y-135158112D01*
X101523500Y-134081888D01*
X101528065Y-134035534D01*
X101539796Y-133996863D01*
X101558848Y-133961221D01*
X101584483Y-133929983D01*
X101615721Y-133904348D01*
X101651363Y-133885296D01*
X101690034Y-133873565D01*
X101736388Y-133869000D01*
X102387612Y-133869000D01*
X102433966Y-133873565D01*
X102433966Y-133873565D01*
G37*
G36*
X106146800Y-134518600D02*
X104774800Y-134518600D01*
X104774800Y-133857800D01*
X106146800Y-133857800D01*
X106146800Y-134518600D01*
X106146800Y-134518600D01*
G37*
G36*
X108585200Y-134518600D02*
X107213200Y-134518600D01*
X107213200Y-133857800D01*
X108585200Y-133857800D01*
X108585200Y-134518600D01*
X108585200Y-134518600D01*
G37*
G36*
X88078000Y-134505000D02*
X86786000Y-134505000D01*
X86786000Y-132703000D01*
X88078000Y-132703000D01*
X88078000Y-134505000D01*
X88078000Y-134505000D01*
G37*
G36*
X89998000Y-134505000D02*
X88706000Y-134505000D01*
X88706000Y-134003000D01*
X89998000Y-134003000D01*
X89998000Y-134505000D01*
X89998000Y-134505000D01*
G37*
G36*
X93335966Y-132349565D02*
X93374637Y-132361296D01*
X93410279Y-132380348D01*
X93441517Y-132405983D01*
X93467152Y-132437221D01*
X93486204Y-132472863D01*
X93497935Y-132511534D01*
X93502500Y-132557888D01*
X93502500Y-133634112D01*
X93497935Y-133680466D01*
X93486204Y-133719137D01*
X93467152Y-133754779D01*
X93441517Y-133786017D01*
X93410279Y-133811652D01*
X93374637Y-133830704D01*
X93335966Y-133842435D01*
X93289612Y-133847000D01*
X92638388Y-133847000D01*
X92592034Y-133842435D01*
X92553363Y-133830704D01*
X92517721Y-133811652D01*
X92486483Y-133786017D01*
X92460848Y-133754779D01*
X92441796Y-133719137D01*
X92430065Y-133680466D01*
X92425500Y-133634112D01*
X92425500Y-132557888D01*
X92430065Y-132511534D01*
X92441796Y-132472863D01*
X92460848Y-132437221D01*
X92486483Y-132405983D01*
X92517721Y-132380348D01*
X92553363Y-132361296D01*
X92592034Y-132349565D01*
X92638388Y-132345000D01*
X93289612Y-132345000D01*
X93335966Y-132349565D01*
X93335966Y-132349565D01*
G37*
G36*
X95210966Y-132349565D02*
X95249637Y-132361296D01*
X95285279Y-132380348D01*
X95316517Y-132405983D01*
X95342152Y-132437221D01*
X95361204Y-132472863D01*
X95372935Y-132511534D01*
X95377500Y-132557888D01*
X95377500Y-133634112D01*
X95372935Y-133680466D01*
X95361204Y-133719137D01*
X95342152Y-133754779D01*
X95316517Y-133786017D01*
X95285279Y-133811652D01*
X95249637Y-133830704D01*
X95210966Y-133842435D01*
X95164612Y-133847000D01*
X94513388Y-133847000D01*
X94467034Y-133842435D01*
X94428363Y-133830704D01*
X94392721Y-133811652D01*
X94361483Y-133786017D01*
X94335848Y-133754779D01*
X94316796Y-133719137D01*
X94305065Y-133680466D01*
X94300500Y-133634112D01*
X94300500Y-132557888D01*
X94305065Y-132511534D01*
X94316796Y-132472863D01*
X94335848Y-132437221D01*
X94361483Y-132405983D01*
X94392721Y-132380348D01*
X94428363Y-132361296D01*
X94467034Y-132349565D01*
X94513388Y-132345000D01*
X95164612Y-132345000D01*
X95210966Y-132349565D01*
X95210966Y-132349565D01*
G37*
G36*
X89998000Y-133205000D02*
X88706000Y-133205000D01*
X88706000Y-132703000D01*
X89998000Y-132703000D01*
X89998000Y-133205000D01*
X89998000Y-133205000D01*
G37*
G36*
X100667500Y-133096200D02*
X99244700Y-133096200D01*
X99244700Y-132435400D01*
X100667500Y-132435400D01*
X100667500Y-133096200D01*
X100667500Y-133096200D01*
G37*
G36*
X103004300Y-133096200D02*
X101581500Y-133096200D01*
X101581500Y-132435400D01*
X103004300Y-132435400D01*
X103004300Y-133096200D01*
X103004300Y-133096200D01*
G37*
G36*
X78868589Y-130704416D02*
X78995520Y-130729664D01*
X79154942Y-130795699D01*
X79298418Y-130891566D01*
X79420434Y-131013582D01*
X79516301Y-131157058D01*
X79582336Y-131316480D01*
X79616000Y-131485721D01*
X79616000Y-131658279D01*
X79582336Y-131827520D01*
X79516301Y-131986942D01*
X79420434Y-132130418D01*
X79298418Y-132252434D01*
X79154942Y-132348301D01*
X78995520Y-132414336D01*
X78880469Y-132437221D01*
X78826280Y-132448000D01*
X78653720Y-132448000D01*
X78599531Y-132437221D01*
X78484480Y-132414336D01*
X78325058Y-132348301D01*
X78181582Y-132252434D01*
X78059566Y-132130418D01*
X77963699Y-131986942D01*
X77897664Y-131827520D01*
X77864000Y-131658279D01*
X77864000Y-131485721D01*
X77897664Y-131316480D01*
X77963699Y-131157058D01*
X78059566Y-131013582D01*
X78181582Y-130891566D01*
X78325058Y-130795699D01*
X78484480Y-130729664D01*
X78611411Y-130704416D01*
X78653720Y-130696000D01*
X78826280Y-130696000D01*
X78868589Y-130704416D01*
X78868589Y-130704416D01*
G37*
G36*
X100667500Y-132156400D02*
X99244700Y-132156400D01*
X99244700Y-131495600D01*
X100667500Y-131495600D01*
X100667500Y-132156400D01*
X100667500Y-132156400D01*
G37*
G36*
X87747966Y-130317565D02*
X87786637Y-130329296D01*
X87822279Y-130348348D01*
X87853517Y-130373983D01*
X87879152Y-130405221D01*
X87898204Y-130440863D01*
X87909935Y-130479534D01*
X87914500Y-130525888D01*
X87914500Y-131602112D01*
X87909935Y-131648466D01*
X87898204Y-131687137D01*
X87879152Y-131722779D01*
X87853517Y-131754017D01*
X87822279Y-131779652D01*
X87786637Y-131798704D01*
X87747966Y-131810435D01*
X87701612Y-131815000D01*
X87050388Y-131815000D01*
X87004034Y-131810435D01*
X86965363Y-131798704D01*
X86929721Y-131779652D01*
X86898483Y-131754017D01*
X86872848Y-131722779D01*
X86853796Y-131687137D01*
X86842065Y-131648466D01*
X86837500Y-131602112D01*
X86837500Y-130525888D01*
X86842065Y-130479534D01*
X86853796Y-130440863D01*
X86872848Y-130405221D01*
X86898483Y-130373983D01*
X86929721Y-130348348D01*
X86965363Y-130329296D01*
X87004034Y-130317565D01*
X87050388Y-130313000D01*
X87701612Y-130313000D01*
X87747966Y-130317565D01*
X87747966Y-130317565D01*
G37*
G36*
X85872966Y-130317565D02*
X85911637Y-130329296D01*
X85947279Y-130348348D01*
X85978517Y-130373983D01*
X86004152Y-130405221D01*
X86023204Y-130440863D01*
X86034935Y-130479534D01*
X86039500Y-130525888D01*
X86039500Y-131602112D01*
X86034935Y-131648466D01*
X86023204Y-131687137D01*
X86004152Y-131722779D01*
X85978517Y-131754017D01*
X85947279Y-131779652D01*
X85911637Y-131798704D01*
X85872966Y-131810435D01*
X85826612Y-131815000D01*
X85175388Y-131815000D01*
X85129034Y-131810435D01*
X85090363Y-131798704D01*
X85054721Y-131779652D01*
X85023483Y-131754017D01*
X84997848Y-131722779D01*
X84978796Y-131687137D01*
X84967065Y-131648466D01*
X84962500Y-131602112D01*
X84962500Y-130525888D01*
X84967065Y-130479534D01*
X84978796Y-130440863D01*
X84997848Y-130405221D01*
X85023483Y-130373983D01*
X85054721Y-130348348D01*
X85090363Y-130329296D01*
X85129034Y-130317565D01*
X85175388Y-130313000D01*
X85826612Y-130313000D01*
X85872966Y-130317565D01*
X85872966Y-130317565D01*
G37*
G36*
X95377200Y-131318200D02*
X94005200Y-131318200D01*
X94005200Y-130657400D01*
X95377200Y-130657400D01*
X95377200Y-131318200D01*
X95377200Y-131318200D01*
G37*
G36*
X92938800Y-131318200D02*
X91566800Y-131318200D01*
X91566800Y-130657400D01*
X92938800Y-130657400D01*
X92938800Y-131318200D01*
X92938800Y-131318200D01*
G37*
G36*
X103004300Y-131216600D02*
X101581500Y-131216600D01*
X101581500Y-130555800D01*
X103004300Y-130555800D01*
X103004300Y-131216600D01*
X103004300Y-131216600D01*
G37*
G36*
X100667500Y-131216600D02*
X99244700Y-131216600D01*
X99244700Y-130555800D01*
X100667500Y-130555800D01*
X100667500Y-131216600D01*
X100667500Y-131216600D01*
G37*
G36*
X95377200Y-130378400D02*
X94005200Y-130378400D01*
X94005200Y-129717600D01*
X95377200Y-129717600D01*
X95377200Y-130378400D01*
X95377200Y-130378400D01*
G37*
G36*
X106114466Y-128285565D02*
X106153137Y-128297296D01*
X106188779Y-128316348D01*
X106220017Y-128341983D01*
X106245652Y-128373221D01*
X106264704Y-128408863D01*
X106276435Y-128447534D01*
X106281000Y-128493888D01*
X106281000Y-129570112D01*
X106276435Y-129616466D01*
X106264704Y-129655137D01*
X106245652Y-129690779D01*
X106220017Y-129722017D01*
X106188779Y-129747652D01*
X106153137Y-129766704D01*
X106114466Y-129778435D01*
X106068112Y-129783000D01*
X105416888Y-129783000D01*
X105370534Y-129778435D01*
X105331863Y-129766704D01*
X105296221Y-129747652D01*
X105264983Y-129722017D01*
X105239348Y-129690779D01*
X105220296Y-129655137D01*
X105208565Y-129616466D01*
X105204000Y-129570112D01*
X105204000Y-128493888D01*
X105208565Y-128447534D01*
X105220296Y-128408863D01*
X105239348Y-128373221D01*
X105264983Y-128341983D01*
X105296221Y-128316348D01*
X105331863Y-128297296D01*
X105370534Y-128285565D01*
X105416888Y-128281000D01*
X106068112Y-128281000D01*
X106114466Y-128285565D01*
X106114466Y-128285565D01*
G37*
G36*
X102355466Y-128285565D02*
X102394137Y-128297296D01*
X102429779Y-128316348D01*
X102461017Y-128341983D01*
X102486652Y-128373221D01*
X102505704Y-128408863D01*
X102517435Y-128447534D01*
X102522000Y-128493888D01*
X102522000Y-129570112D01*
X102517435Y-129616466D01*
X102505704Y-129655137D01*
X102486652Y-129690779D01*
X102461017Y-129722017D01*
X102429779Y-129747652D01*
X102394137Y-129766704D01*
X102355466Y-129778435D01*
X102309112Y-129783000D01*
X101657888Y-129783000D01*
X101611534Y-129778435D01*
X101572863Y-129766704D01*
X101537221Y-129747652D01*
X101505983Y-129722017D01*
X101480348Y-129690779D01*
X101461296Y-129655137D01*
X101449565Y-129616466D01*
X101445000Y-129570112D01*
X101445000Y-128493888D01*
X101449565Y-128447534D01*
X101461296Y-128408863D01*
X101480348Y-128373221D01*
X101505983Y-128341983D01*
X101537221Y-128316348D01*
X101572863Y-128297296D01*
X101611534Y-128285565D01*
X101657888Y-128281000D01*
X102309112Y-128281000D01*
X102355466Y-128285565D01*
X102355466Y-128285565D01*
G37*
G36*
X100480466Y-128285565D02*
X100519137Y-128297296D01*
X100554779Y-128316348D01*
X100586017Y-128341983D01*
X100611652Y-128373221D01*
X100630704Y-128408863D01*
X100642435Y-128447534D01*
X100647000Y-128493888D01*
X100647000Y-129570112D01*
X100642435Y-129616466D01*
X100630704Y-129655137D01*
X100611652Y-129690779D01*
X100586017Y-129722017D01*
X100554779Y-129747652D01*
X100519137Y-129766704D01*
X100480466Y-129778435D01*
X100434112Y-129783000D01*
X99782888Y-129783000D01*
X99736534Y-129778435D01*
X99697863Y-129766704D01*
X99662221Y-129747652D01*
X99630983Y-129722017D01*
X99605348Y-129690779D01*
X99586296Y-129655137D01*
X99574565Y-129616466D01*
X99570000Y-129570112D01*
X99570000Y-128493888D01*
X99574565Y-128447534D01*
X99586296Y-128408863D01*
X99605348Y-128373221D01*
X99630983Y-128341983D01*
X99662221Y-128316348D01*
X99697863Y-128297296D01*
X99736534Y-128285565D01*
X99782888Y-128281000D01*
X100434112Y-128281000D01*
X100480466Y-128285565D01*
X100480466Y-128285565D01*
G37*
G36*
X107989466Y-128285565D02*
X108028137Y-128297296D01*
X108063779Y-128316348D01*
X108095017Y-128341983D01*
X108120652Y-128373221D01*
X108139704Y-128408863D01*
X108151435Y-128447534D01*
X108156000Y-128493888D01*
X108156000Y-129570112D01*
X108151435Y-129616466D01*
X108139704Y-129655137D01*
X108120652Y-129690779D01*
X108095017Y-129722017D01*
X108063779Y-129747652D01*
X108028137Y-129766704D01*
X107989466Y-129778435D01*
X107943112Y-129783000D01*
X107291888Y-129783000D01*
X107245534Y-129778435D01*
X107206863Y-129766704D01*
X107171221Y-129747652D01*
X107139983Y-129722017D01*
X107114348Y-129690779D01*
X107095296Y-129655137D01*
X107083565Y-129616466D01*
X107079000Y-129570112D01*
X107079000Y-128493888D01*
X107083565Y-128447534D01*
X107095296Y-128408863D01*
X107114348Y-128373221D01*
X107139983Y-128341983D01*
X107171221Y-128316348D01*
X107206863Y-128297296D01*
X107245534Y-128285565D01*
X107291888Y-128281000D01*
X107943112Y-128281000D01*
X107989466Y-128285565D01*
X107989466Y-128285565D01*
G37*
G36*
X75786433Y-127201586D02*
X75974903Y-127239075D01*
X76202571Y-127333378D01*
X76406542Y-127469668D01*
X76407469Y-127470287D01*
X76581713Y-127644531D01*
X76581715Y-127644534D01*
X76718622Y-127849429D01*
X76812925Y-128077097D01*
X76845031Y-128238505D01*
X76857561Y-128301495D01*
X76861000Y-128318787D01*
X76861000Y-128565213D01*
X76812925Y-128806903D01*
X76718622Y-129034571D01*
X76582332Y-129238542D01*
X76581713Y-129239469D01*
X76407469Y-129413713D01*
X76407466Y-129413715D01*
X76202571Y-129550622D01*
X75974903Y-129644925D01*
X75793635Y-129680981D01*
X75733214Y-129693000D01*
X75486786Y-129693000D01*
X75426365Y-129680981D01*
X75245097Y-129644925D01*
X75017429Y-129550622D01*
X74812534Y-129413715D01*
X74812531Y-129413713D01*
X74638287Y-129239469D01*
X74637668Y-129238542D01*
X74501378Y-129034571D01*
X74407075Y-128806903D01*
X74359000Y-128565213D01*
X74359000Y-128318787D01*
X74362440Y-128301495D01*
X74374969Y-128238505D01*
X74407075Y-128077097D01*
X74501378Y-127849429D01*
X74638285Y-127644534D01*
X74638287Y-127644531D01*
X74812531Y-127470287D01*
X74813458Y-127469668D01*
X75017429Y-127333378D01*
X75245097Y-127239075D01*
X75433567Y-127201586D01*
X75486786Y-127191000D01*
X75733214Y-127191000D01*
X75786433Y-127201586D01*
X75786433Y-127201586D01*
G37*
G36*
X82046433Y-127201586D02*
X82234903Y-127239075D01*
X82462571Y-127333378D01*
X82666542Y-127469668D01*
X82667469Y-127470287D01*
X82841713Y-127644531D01*
X82841715Y-127644534D01*
X82978622Y-127849429D01*
X83072925Y-128077097D01*
X83105031Y-128238505D01*
X83117561Y-128301495D01*
X83121000Y-128318787D01*
X83121000Y-128565213D01*
X83072925Y-128806903D01*
X82978622Y-129034571D01*
X82842332Y-129238542D01*
X82841713Y-129239469D01*
X82667469Y-129413713D01*
X82667466Y-129413715D01*
X82462571Y-129550622D01*
X82234903Y-129644925D01*
X82053635Y-129680981D01*
X81993214Y-129693000D01*
X81746786Y-129693000D01*
X81686365Y-129680981D01*
X81505097Y-129644925D01*
X81277429Y-129550622D01*
X81072534Y-129413715D01*
X81072531Y-129413713D01*
X80898287Y-129239469D01*
X80897668Y-129238542D01*
X80761378Y-129034571D01*
X80667075Y-128806903D01*
X80619000Y-128565213D01*
X80619000Y-128318787D01*
X80622440Y-128301495D01*
X80634969Y-128238505D01*
X80667075Y-128077097D01*
X80761378Y-127849429D01*
X80898285Y-127644534D01*
X80898287Y-127644531D01*
X81072531Y-127470287D01*
X81073458Y-127469668D01*
X81277429Y-127333378D01*
X81505097Y-127239075D01*
X81693567Y-127201586D01*
X81746786Y-127191000D01*
X81993214Y-127191000D01*
X82046433Y-127201586D01*
X82046433Y-127201586D01*
G37*
G36*
X92938800Y-129438600D02*
X91566800Y-129438600D01*
X91566800Y-128777800D01*
X92938800Y-128777800D01*
X92938800Y-129438600D01*
X92938800Y-129438600D01*
G37*
G36*
X95377200Y-129438600D02*
X94005200Y-129438600D01*
X94005200Y-128777800D01*
X95377200Y-128777800D01*
X95377200Y-129438600D01*
X95377200Y-129438600D01*
G37*
G36*
X88084116Y-126497879D02*
X88084118Y-126497880D01*
X88084119Y-126497880D01*
X88275296Y-126577068D01*
X88447353Y-126692033D01*
X88593669Y-126838349D01*
X88593671Y-126838352D01*
X88708634Y-127010406D01*
X88787822Y-127201583D01*
X88828192Y-127404536D01*
X88828192Y-127611464D01*
X88787822Y-127814417D01*
X88715197Y-127989750D01*
X88708634Y-128005594D01*
X88593669Y-128177651D01*
X88447353Y-128323967D01*
X88447350Y-128323969D01*
X88275296Y-128438932D01*
X88084119Y-128518120D01*
X88084118Y-128518120D01*
X88084116Y-128518121D01*
X87881168Y-128558490D01*
X87674236Y-128558490D01*
X87471288Y-128518121D01*
X87471286Y-128518120D01*
X87471285Y-128518120D01*
X87280108Y-128438932D01*
X87108054Y-128323969D01*
X87108051Y-128323967D01*
X86961735Y-128177651D01*
X86846770Y-128005594D01*
X86840207Y-127989750D01*
X86767582Y-127814417D01*
X86727212Y-127611464D01*
X86727212Y-127404536D01*
X86767582Y-127201583D01*
X86846770Y-127010406D01*
X86961733Y-126838352D01*
X86961735Y-126838349D01*
X87108051Y-126692033D01*
X87280108Y-126577068D01*
X87471285Y-126497880D01*
X87471286Y-126497880D01*
X87471288Y-126497879D01*
X87674236Y-126457510D01*
X87881168Y-126457510D01*
X88084116Y-126497879D01*
X88084116Y-126497879D01*
G37*
G36*
X85142414Y-126497879D02*
X85142416Y-126497880D01*
X85142417Y-126497880D01*
X85333594Y-126577068D01*
X85505651Y-126692033D01*
X85651967Y-126838349D01*
X85651969Y-126838352D01*
X85766932Y-127010406D01*
X85846120Y-127201583D01*
X85886490Y-127404536D01*
X85886490Y-127611464D01*
X85846120Y-127814417D01*
X85773495Y-127989750D01*
X85766932Y-128005594D01*
X85651967Y-128177651D01*
X85505651Y-128323967D01*
X85505648Y-128323969D01*
X85333594Y-128438932D01*
X85142417Y-128518120D01*
X85142416Y-128518120D01*
X85142414Y-128518121D01*
X84939466Y-128558490D01*
X84732534Y-128558490D01*
X84529586Y-128518121D01*
X84529584Y-128518120D01*
X84529583Y-128518120D01*
X84338406Y-128438932D01*
X84166352Y-128323969D01*
X84166349Y-128323967D01*
X84020033Y-128177651D01*
X83905068Y-128005594D01*
X83898505Y-127989750D01*
X83825880Y-127814417D01*
X83785510Y-127611464D01*
X83785510Y-127404536D01*
X83825880Y-127201583D01*
X83905068Y-127010406D01*
X84020031Y-126838352D01*
X84020033Y-126838349D01*
X84166349Y-126692033D01*
X84338406Y-126577068D01*
X84529583Y-126497880D01*
X84529584Y-126497880D01*
X84529586Y-126497879D01*
X84732534Y-126457510D01*
X84939466Y-126457510D01*
X85142414Y-126497879D01*
X85142414Y-126497879D01*
G37*
G36*
X96891966Y-126761565D02*
X96930637Y-126773296D01*
X96966279Y-126792348D01*
X96997517Y-126817983D01*
X97023152Y-126849221D01*
X97042204Y-126884863D01*
X97053935Y-126923534D01*
X97058500Y-126969888D01*
X97058500Y-128046112D01*
X97053935Y-128092466D01*
X97042204Y-128131137D01*
X97023152Y-128166779D01*
X96997517Y-128198017D01*
X96966279Y-128223652D01*
X96930637Y-128242704D01*
X96891966Y-128254435D01*
X96845612Y-128259000D01*
X96194388Y-128259000D01*
X96148034Y-128254435D01*
X96109363Y-128242704D01*
X96073721Y-128223652D01*
X96042483Y-128198017D01*
X96016848Y-128166779D01*
X95997796Y-128131137D01*
X95986065Y-128092466D01*
X95981500Y-128046112D01*
X95981500Y-126969888D01*
X95986065Y-126923534D01*
X95997796Y-126884863D01*
X96016848Y-126849221D01*
X96042483Y-126817983D01*
X96073721Y-126792348D01*
X96109363Y-126773296D01*
X96148034Y-126761565D01*
X96194388Y-126757000D01*
X96845612Y-126757000D01*
X96891966Y-126761565D01*
X96891966Y-126761565D01*
G37*
G36*
X95016966Y-126761565D02*
X95055637Y-126773296D01*
X95091279Y-126792348D01*
X95122517Y-126817983D01*
X95148152Y-126849221D01*
X95167204Y-126884863D01*
X95178935Y-126923534D01*
X95183500Y-126969888D01*
X95183500Y-128046112D01*
X95178935Y-128092466D01*
X95167204Y-128131137D01*
X95148152Y-128166779D01*
X95122517Y-128198017D01*
X95091279Y-128223652D01*
X95055637Y-128242704D01*
X95016966Y-128254435D01*
X94970612Y-128259000D01*
X94319388Y-128259000D01*
X94273034Y-128254435D01*
X94234363Y-128242704D01*
X94198721Y-128223652D01*
X94167483Y-128198017D01*
X94141848Y-128166779D01*
X94122796Y-128131137D01*
X94111065Y-128092466D01*
X94106500Y-128046112D01*
X94106500Y-126969888D01*
X94111065Y-126923534D01*
X94122796Y-126884863D01*
X94141848Y-126849221D01*
X94167483Y-126817983D01*
X94198721Y-126792348D01*
X94234363Y-126773296D01*
X94273034Y-126761565D01*
X94319388Y-126757000D01*
X94970612Y-126757000D01*
X95016966Y-126761565D01*
X95016966Y-126761565D01*
G37*
G36*
X92319966Y-126761565D02*
X92358637Y-126773296D01*
X92394279Y-126792348D01*
X92425517Y-126817983D01*
X92451152Y-126849221D01*
X92470204Y-126884863D01*
X92481935Y-126923534D01*
X92486500Y-126969888D01*
X92486500Y-128046112D01*
X92481935Y-128092466D01*
X92470204Y-128131137D01*
X92451152Y-128166779D01*
X92425517Y-128198017D01*
X92394279Y-128223652D01*
X92358637Y-128242704D01*
X92319966Y-128254435D01*
X92273612Y-128259000D01*
X91622388Y-128259000D01*
X91576034Y-128254435D01*
X91537363Y-128242704D01*
X91501721Y-128223652D01*
X91470483Y-128198017D01*
X91444848Y-128166779D01*
X91425796Y-128131137D01*
X91414065Y-128092466D01*
X91409500Y-128046112D01*
X91409500Y-126969888D01*
X91414065Y-126923534D01*
X91425796Y-126884863D01*
X91444848Y-126849221D01*
X91470483Y-126817983D01*
X91501721Y-126792348D01*
X91537363Y-126773296D01*
X91576034Y-126761565D01*
X91622388Y-126757000D01*
X92273612Y-126757000D01*
X92319966Y-126761565D01*
X92319966Y-126761565D01*
G37*
G36*
X90444966Y-126761565D02*
X90483637Y-126773296D01*
X90519279Y-126792348D01*
X90550517Y-126817983D01*
X90576152Y-126849221D01*
X90595204Y-126884863D01*
X90606935Y-126923534D01*
X90611500Y-126969888D01*
X90611500Y-128046112D01*
X90606935Y-128092466D01*
X90595204Y-128131137D01*
X90576152Y-128166779D01*
X90550517Y-128198017D01*
X90519279Y-128223652D01*
X90483637Y-128242704D01*
X90444966Y-128254435D01*
X90398612Y-128259000D01*
X89747388Y-128259000D01*
X89701034Y-128254435D01*
X89662363Y-128242704D01*
X89626721Y-128223652D01*
X89595483Y-128198017D01*
X89569848Y-128166779D01*
X89550796Y-128131137D01*
X89539065Y-128092466D01*
X89534500Y-128046112D01*
X89534500Y-126969888D01*
X89539065Y-126923534D01*
X89550796Y-126884863D01*
X89569848Y-126849221D01*
X89595483Y-126817983D01*
X89626721Y-126792348D01*
X89662363Y-126773296D01*
X89701034Y-126761565D01*
X89747388Y-126757000D01*
X90398612Y-126757000D01*
X90444966Y-126761565D01*
X90444966Y-126761565D01*
G37*
M02*
