G04 #@! TF.GenerationSoftware,KiCad,Pcbnew,5.0.2-bee76a0~70~ubuntu18.04.1*
G04 #@! TF.CreationDate,2019-03-03T20:31:20-05:00*
G04 #@! TF.ProjectId,agc,6167632e-6b69-4636-9164-5f7063625858,rev?*
G04 #@! TF.SameCoordinates,Original*
G04 #@! TF.FileFunction,Soldermask,Bot*
G04 #@! TF.FilePolarity,Negative*
%FSLAX46Y46*%
G04 Gerber Fmt 4.6, Leading zero omitted, Abs format (unit mm)*
G04 Created by KiCad (PCBNEW 5.0.2-bee76a0~70~ubuntu18.04.1) date Sun 03 Mar 2019 08:31:20 PM EST*
%MOMM*%
%LPD*%
G01*
G04 APERTURE LIST*
%ADD10C,0.100000*%
G04 APERTURE END LIST*
D10*
G36*
X105462414Y-146309879D02*
X105462416Y-146309880D01*
X105462417Y-146309880D01*
X105653594Y-146389068D01*
X105825651Y-146504033D01*
X105971967Y-146650349D01*
X106086932Y-146822406D01*
X106166121Y-147013586D01*
X106206490Y-147216534D01*
X106206490Y-147423466D01*
X106193938Y-147486571D01*
X106166120Y-147626417D01*
X106086932Y-147817594D01*
X105971967Y-147989651D01*
X105825651Y-148135967D01*
X105825648Y-148135969D01*
X105653594Y-148250932D01*
X105462417Y-148330120D01*
X105462416Y-148330120D01*
X105462414Y-148330121D01*
X105259466Y-148370490D01*
X105052534Y-148370490D01*
X104849586Y-148330121D01*
X104849584Y-148330120D01*
X104849583Y-148330120D01*
X104658406Y-148250932D01*
X104486352Y-148135969D01*
X104486349Y-148135967D01*
X104340033Y-147989651D01*
X104225068Y-147817594D01*
X104145880Y-147626417D01*
X104118063Y-147486571D01*
X104105510Y-147423466D01*
X104105510Y-147216534D01*
X104145879Y-147013586D01*
X104225068Y-146822406D01*
X104340033Y-146650349D01*
X104486349Y-146504033D01*
X104658406Y-146389068D01*
X104849583Y-146309880D01*
X104849584Y-146309880D01*
X104849586Y-146309879D01*
X105052534Y-146269510D01*
X105259466Y-146269510D01*
X105462414Y-146309879D01*
X105462414Y-146309879D01*
G37*
G36*
X109018414Y-146309879D02*
X109018416Y-146309880D01*
X109018417Y-146309880D01*
X109209594Y-146389068D01*
X109381651Y-146504033D01*
X109527967Y-146650349D01*
X109642932Y-146822406D01*
X109722121Y-147013586D01*
X109762490Y-147216534D01*
X109762490Y-147423466D01*
X109749938Y-147486571D01*
X109722120Y-147626417D01*
X109642932Y-147817594D01*
X109527967Y-147989651D01*
X109381651Y-148135967D01*
X109381648Y-148135969D01*
X109209594Y-148250932D01*
X109018417Y-148330120D01*
X109018416Y-148330120D01*
X109018414Y-148330121D01*
X108815466Y-148370490D01*
X108608534Y-148370490D01*
X108405586Y-148330121D01*
X108405584Y-148330120D01*
X108405583Y-148330120D01*
X108214406Y-148250932D01*
X108042352Y-148135969D01*
X108042349Y-148135967D01*
X107896033Y-147989651D01*
X107781068Y-147817594D01*
X107701880Y-147626417D01*
X107674063Y-147486571D01*
X107661510Y-147423466D01*
X107661510Y-147216534D01*
X107701879Y-147013586D01*
X107781068Y-146822406D01*
X107896033Y-146650349D01*
X108042349Y-146504033D01*
X108214406Y-146389068D01*
X108405583Y-146309880D01*
X108405584Y-146309880D01*
X108405586Y-146309879D01*
X108608534Y-146269510D01*
X108815466Y-146269510D01*
X109018414Y-146309879D01*
X109018414Y-146309879D01*
G37*
G36*
X101398414Y-146309879D02*
X101398416Y-146309880D01*
X101398417Y-146309880D01*
X101589594Y-146389068D01*
X101761651Y-146504033D01*
X101907967Y-146650349D01*
X102022932Y-146822406D01*
X102102121Y-147013586D01*
X102142490Y-147216534D01*
X102142490Y-147423466D01*
X102129938Y-147486571D01*
X102102120Y-147626417D01*
X102022932Y-147817594D01*
X101907967Y-147989651D01*
X101761651Y-148135967D01*
X101761648Y-148135969D01*
X101589594Y-148250932D01*
X101398417Y-148330120D01*
X101398416Y-148330120D01*
X101398414Y-148330121D01*
X101195466Y-148370490D01*
X100988534Y-148370490D01*
X100785586Y-148330121D01*
X100785584Y-148330120D01*
X100785583Y-148330120D01*
X100594406Y-148250932D01*
X100422352Y-148135969D01*
X100422349Y-148135967D01*
X100276033Y-147989651D01*
X100161068Y-147817594D01*
X100081880Y-147626417D01*
X100054063Y-147486571D01*
X100041510Y-147423466D01*
X100041510Y-147216534D01*
X100081879Y-147013586D01*
X100161068Y-146822406D01*
X100276033Y-146650349D01*
X100422349Y-146504033D01*
X100594406Y-146389068D01*
X100785583Y-146309880D01*
X100785584Y-146309880D01*
X100785586Y-146309879D01*
X100988534Y-146269510D01*
X101195466Y-146269510D01*
X101398414Y-146309879D01*
X101398414Y-146309879D01*
G37*
G36*
X75793636Y-145655019D02*
X75974903Y-145691075D01*
X76202571Y-145785378D01*
X76406542Y-145921668D01*
X76407469Y-145922287D01*
X76581713Y-146096531D01*
X76581715Y-146096534D01*
X76718622Y-146301429D01*
X76812925Y-146529097D01*
X76861000Y-146770787D01*
X76861000Y-147017213D01*
X76812925Y-147258903D01*
X76718622Y-147486571D01*
X76582332Y-147690542D01*
X76581713Y-147691469D01*
X76407469Y-147865713D01*
X76407466Y-147865715D01*
X76202571Y-148002622D01*
X75974903Y-148096925D01*
X75793635Y-148132981D01*
X75733214Y-148145000D01*
X75486786Y-148145000D01*
X75426365Y-148132981D01*
X75245097Y-148096925D01*
X75017429Y-148002622D01*
X74812534Y-147865715D01*
X74812531Y-147865713D01*
X74638287Y-147691469D01*
X74637668Y-147690542D01*
X74501378Y-147486571D01*
X74407075Y-147258903D01*
X74359000Y-147017213D01*
X74359000Y-146770787D01*
X74407075Y-146529097D01*
X74501378Y-146301429D01*
X74638285Y-146096534D01*
X74638287Y-146096531D01*
X74812531Y-145922287D01*
X74813458Y-145921668D01*
X75017429Y-145785378D01*
X75245097Y-145691075D01*
X75426364Y-145655019D01*
X75486786Y-145643000D01*
X75733214Y-145643000D01*
X75793636Y-145655019D01*
X75793636Y-145655019D01*
G37*
G36*
X82053636Y-145655019D02*
X82234903Y-145691075D01*
X82462571Y-145785378D01*
X82666542Y-145921668D01*
X82667469Y-145922287D01*
X82841713Y-146096531D01*
X82841715Y-146096534D01*
X82978622Y-146301429D01*
X83072925Y-146529097D01*
X83121000Y-146770787D01*
X83121000Y-147017213D01*
X83072925Y-147258903D01*
X82978622Y-147486571D01*
X82842332Y-147690542D01*
X82841713Y-147691469D01*
X82667469Y-147865713D01*
X82667466Y-147865715D01*
X82462571Y-148002622D01*
X82234903Y-148096925D01*
X82053635Y-148132981D01*
X81993214Y-148145000D01*
X81746786Y-148145000D01*
X81686365Y-148132981D01*
X81505097Y-148096925D01*
X81277429Y-148002622D01*
X81072534Y-147865715D01*
X81072531Y-147865713D01*
X80898287Y-147691469D01*
X80897668Y-147690542D01*
X80761378Y-147486571D01*
X80667075Y-147258903D01*
X80619000Y-147017213D01*
X80619000Y-146770787D01*
X80667075Y-146529097D01*
X80761378Y-146301429D01*
X80898285Y-146096534D01*
X80898287Y-146096531D01*
X81072531Y-145922287D01*
X81073458Y-145921668D01*
X81277429Y-145785378D01*
X81505097Y-145691075D01*
X81686364Y-145655019D01*
X81746786Y-145643000D01*
X81993214Y-145643000D01*
X82053636Y-145655019D01*
X82053636Y-145655019D01*
G37*
G36*
X78868589Y-142896416D02*
X78995520Y-142921664D01*
X79154942Y-142987699D01*
X79298418Y-143083566D01*
X79420434Y-143205582D01*
X79516301Y-143349058D01*
X79582336Y-143508480D01*
X79616000Y-143677721D01*
X79616000Y-143850279D01*
X79582336Y-144019520D01*
X79516301Y-144178942D01*
X79420434Y-144322418D01*
X79298418Y-144444434D01*
X79154942Y-144540301D01*
X78995520Y-144606336D01*
X78868589Y-144631584D01*
X78826280Y-144640000D01*
X78653720Y-144640000D01*
X78611411Y-144631584D01*
X78484480Y-144606336D01*
X78325058Y-144540301D01*
X78181582Y-144444434D01*
X78059566Y-144322418D01*
X77963699Y-144178942D01*
X77897664Y-144019520D01*
X77864000Y-143850279D01*
X77864000Y-143677721D01*
X77897664Y-143508480D01*
X77963699Y-143349058D01*
X78059566Y-143205582D01*
X78181582Y-143083566D01*
X78325058Y-142987699D01*
X78484480Y-142921664D01*
X78611411Y-142896416D01*
X78653720Y-142888000D01*
X78826280Y-142888000D01*
X78868589Y-142896416D01*
X78868589Y-142896416D01*
G37*
G36*
X82053635Y-139395019D02*
X82234903Y-139431075D01*
X82462571Y-139525378D01*
X82666542Y-139661668D01*
X82667469Y-139662287D01*
X82841713Y-139836531D01*
X82841715Y-139836534D01*
X82978622Y-140041429D01*
X83072925Y-140269097D01*
X83121000Y-140510787D01*
X83121000Y-140757213D01*
X83072925Y-140998903D01*
X82978622Y-141226571D01*
X82842332Y-141430542D01*
X82841713Y-141431469D01*
X82667469Y-141605713D01*
X82667466Y-141605715D01*
X82462571Y-141742622D01*
X82234903Y-141836925D01*
X82053635Y-141872981D01*
X81993214Y-141885000D01*
X81746786Y-141885000D01*
X81686365Y-141872981D01*
X81505097Y-141836925D01*
X81277429Y-141742622D01*
X81072534Y-141605715D01*
X81072531Y-141605713D01*
X80898287Y-141431469D01*
X80897668Y-141430542D01*
X80761378Y-141226571D01*
X80667075Y-140998903D01*
X80619000Y-140757213D01*
X80619000Y-140510787D01*
X80667075Y-140269097D01*
X80761378Y-140041429D01*
X80898285Y-139836534D01*
X80898287Y-139836531D01*
X81072531Y-139662287D01*
X81073458Y-139661668D01*
X81277429Y-139525378D01*
X81505097Y-139431075D01*
X81686365Y-139395019D01*
X81746786Y-139383000D01*
X81993214Y-139383000D01*
X82053635Y-139395019D01*
X82053635Y-139395019D01*
G37*
G36*
X75793635Y-139395019D02*
X75974903Y-139431075D01*
X76202571Y-139525378D01*
X76406542Y-139661668D01*
X76407469Y-139662287D01*
X76581713Y-139836531D01*
X76581715Y-139836534D01*
X76718622Y-140041429D01*
X76812925Y-140269097D01*
X76861000Y-140510787D01*
X76861000Y-140757213D01*
X76812925Y-140998903D01*
X76718622Y-141226571D01*
X76582332Y-141430542D01*
X76581713Y-141431469D01*
X76407469Y-141605713D01*
X76407466Y-141605715D01*
X76202571Y-141742622D01*
X75974903Y-141836925D01*
X75793635Y-141872981D01*
X75733214Y-141885000D01*
X75486786Y-141885000D01*
X75426365Y-141872981D01*
X75245097Y-141836925D01*
X75017429Y-141742622D01*
X74812534Y-141605715D01*
X74812531Y-141605713D01*
X74638287Y-141431469D01*
X74637668Y-141430542D01*
X74501378Y-141226571D01*
X74407075Y-140998903D01*
X74359000Y-140757213D01*
X74359000Y-140510787D01*
X74407075Y-140269097D01*
X74501378Y-140041429D01*
X74638285Y-139836534D01*
X74638287Y-139836531D01*
X74812531Y-139662287D01*
X74813458Y-139661668D01*
X75017429Y-139525378D01*
X75245097Y-139431075D01*
X75426365Y-139395019D01*
X75486786Y-139383000D01*
X75733214Y-139383000D01*
X75793635Y-139395019D01*
X75793635Y-139395019D01*
G37*
G36*
X82053636Y-133463019D02*
X82234903Y-133499075D01*
X82462571Y-133593378D01*
X82666542Y-133729668D01*
X82667469Y-133730287D01*
X82841713Y-133904531D01*
X82841715Y-133904534D01*
X82978622Y-134109429D01*
X83072925Y-134337097D01*
X83121000Y-134578787D01*
X83121000Y-134825213D01*
X83072925Y-135066903D01*
X82978622Y-135294571D01*
X82842332Y-135498542D01*
X82841713Y-135499469D01*
X82667469Y-135673713D01*
X82667466Y-135673715D01*
X82462571Y-135810622D01*
X82234903Y-135904925D01*
X82053635Y-135940981D01*
X81993214Y-135953000D01*
X81746786Y-135953000D01*
X81686365Y-135940981D01*
X81505097Y-135904925D01*
X81277429Y-135810622D01*
X81072534Y-135673715D01*
X81072531Y-135673713D01*
X80898287Y-135499469D01*
X80897668Y-135498542D01*
X80761378Y-135294571D01*
X80667075Y-135066903D01*
X80619000Y-134825213D01*
X80619000Y-134578787D01*
X80667075Y-134337097D01*
X80761378Y-134109429D01*
X80898285Y-133904534D01*
X80898287Y-133904531D01*
X81072531Y-133730287D01*
X81073458Y-133729668D01*
X81277429Y-133593378D01*
X81505097Y-133499075D01*
X81686364Y-133463019D01*
X81746786Y-133451000D01*
X81993214Y-133451000D01*
X82053636Y-133463019D01*
X82053636Y-133463019D01*
G37*
G36*
X75793636Y-133463019D02*
X75974903Y-133499075D01*
X76202571Y-133593378D01*
X76406542Y-133729668D01*
X76407469Y-133730287D01*
X76581713Y-133904531D01*
X76581715Y-133904534D01*
X76718622Y-134109429D01*
X76812925Y-134337097D01*
X76861000Y-134578787D01*
X76861000Y-134825213D01*
X76812925Y-135066903D01*
X76718622Y-135294571D01*
X76582332Y-135498542D01*
X76581713Y-135499469D01*
X76407469Y-135673713D01*
X76407466Y-135673715D01*
X76202571Y-135810622D01*
X75974903Y-135904925D01*
X75793635Y-135940981D01*
X75733214Y-135953000D01*
X75486786Y-135953000D01*
X75426365Y-135940981D01*
X75245097Y-135904925D01*
X75017429Y-135810622D01*
X74812534Y-135673715D01*
X74812531Y-135673713D01*
X74638287Y-135499469D01*
X74637668Y-135498542D01*
X74501378Y-135294571D01*
X74407075Y-135066903D01*
X74359000Y-134825213D01*
X74359000Y-134578787D01*
X74407075Y-134337097D01*
X74501378Y-134109429D01*
X74638285Y-133904534D01*
X74638287Y-133904531D01*
X74812531Y-133730287D01*
X74813458Y-133729668D01*
X75017429Y-133593378D01*
X75245097Y-133499075D01*
X75426364Y-133463019D01*
X75486786Y-133451000D01*
X75733214Y-133451000D01*
X75793636Y-133463019D01*
X75793636Y-133463019D01*
G37*
G36*
X78868589Y-130704416D02*
X78995520Y-130729664D01*
X79154942Y-130795699D01*
X79298418Y-130891566D01*
X79420434Y-131013582D01*
X79516301Y-131157058D01*
X79582336Y-131316480D01*
X79616000Y-131485721D01*
X79616000Y-131658279D01*
X79582336Y-131827520D01*
X79516301Y-131986942D01*
X79420434Y-132130418D01*
X79298418Y-132252434D01*
X79154942Y-132348301D01*
X78995520Y-132414336D01*
X78868589Y-132439584D01*
X78826280Y-132448000D01*
X78653720Y-132448000D01*
X78611411Y-132439584D01*
X78484480Y-132414336D01*
X78325058Y-132348301D01*
X78181582Y-132252434D01*
X78059566Y-132130418D01*
X77963699Y-131986942D01*
X77897664Y-131827520D01*
X77864000Y-131658279D01*
X77864000Y-131485721D01*
X77897664Y-131316480D01*
X77963699Y-131157058D01*
X78059566Y-131013582D01*
X78181582Y-130891566D01*
X78325058Y-130795699D01*
X78484480Y-130729664D01*
X78611411Y-130704416D01*
X78653720Y-130696000D01*
X78826280Y-130696000D01*
X78868589Y-130704416D01*
X78868589Y-130704416D01*
G37*
G36*
X75786433Y-127201586D02*
X75974903Y-127239075D01*
X76202571Y-127333378D01*
X76406542Y-127469668D01*
X76407469Y-127470287D01*
X76581713Y-127644531D01*
X76581715Y-127644534D01*
X76718622Y-127849429D01*
X76812925Y-128077097D01*
X76861000Y-128318787D01*
X76861000Y-128565213D01*
X76812925Y-128806903D01*
X76718622Y-129034571D01*
X76582332Y-129238542D01*
X76581713Y-129239469D01*
X76407469Y-129413713D01*
X76407466Y-129413715D01*
X76202571Y-129550622D01*
X75974903Y-129644925D01*
X75793635Y-129680981D01*
X75733214Y-129693000D01*
X75486786Y-129693000D01*
X75426365Y-129680981D01*
X75245097Y-129644925D01*
X75017429Y-129550622D01*
X74812534Y-129413715D01*
X74812531Y-129413713D01*
X74638287Y-129239469D01*
X74637668Y-129238542D01*
X74501378Y-129034571D01*
X74407075Y-128806903D01*
X74359000Y-128565213D01*
X74359000Y-128318787D01*
X74407075Y-128077097D01*
X74501378Y-127849429D01*
X74638285Y-127644534D01*
X74638287Y-127644531D01*
X74812531Y-127470287D01*
X74813458Y-127469668D01*
X75017429Y-127333378D01*
X75245097Y-127239075D01*
X75433567Y-127201586D01*
X75486786Y-127191000D01*
X75733214Y-127191000D01*
X75786433Y-127201586D01*
X75786433Y-127201586D01*
G37*
G36*
X82046433Y-127201586D02*
X82234903Y-127239075D01*
X82462571Y-127333378D01*
X82666542Y-127469668D01*
X82667469Y-127470287D01*
X82841713Y-127644531D01*
X82841715Y-127644534D01*
X82978622Y-127849429D01*
X83072925Y-128077097D01*
X83121000Y-128318787D01*
X83121000Y-128565213D01*
X83072925Y-128806903D01*
X82978622Y-129034571D01*
X82842332Y-129238542D01*
X82841713Y-129239469D01*
X82667469Y-129413713D01*
X82667466Y-129413715D01*
X82462571Y-129550622D01*
X82234903Y-129644925D01*
X82053635Y-129680981D01*
X81993214Y-129693000D01*
X81746786Y-129693000D01*
X81686365Y-129680981D01*
X81505097Y-129644925D01*
X81277429Y-129550622D01*
X81072534Y-129413715D01*
X81072531Y-129413713D01*
X80898287Y-129239469D01*
X80897668Y-129238542D01*
X80761378Y-129034571D01*
X80667075Y-128806903D01*
X80619000Y-128565213D01*
X80619000Y-128318787D01*
X80667075Y-128077097D01*
X80761378Y-127849429D01*
X80898285Y-127644534D01*
X80898287Y-127644531D01*
X81072531Y-127470287D01*
X81073458Y-127469668D01*
X81277429Y-127333378D01*
X81505097Y-127239075D01*
X81693567Y-127201586D01*
X81746786Y-127191000D01*
X81993214Y-127191000D01*
X82046433Y-127201586D01*
X82046433Y-127201586D01*
G37*
G36*
X85142414Y-126497879D02*
X85142416Y-126497880D01*
X85142417Y-126497880D01*
X85333594Y-126577068D01*
X85505651Y-126692033D01*
X85651967Y-126838349D01*
X85651969Y-126838352D01*
X85766932Y-127010406D01*
X85846120Y-127201583D01*
X85886490Y-127404536D01*
X85886490Y-127611464D01*
X85846120Y-127814417D01*
X85766932Y-128005594D01*
X85651967Y-128177651D01*
X85505651Y-128323967D01*
X85505648Y-128323969D01*
X85333594Y-128438932D01*
X85142417Y-128518120D01*
X85142416Y-128518120D01*
X85142414Y-128518121D01*
X84939466Y-128558490D01*
X84732534Y-128558490D01*
X84529586Y-128518121D01*
X84529584Y-128518120D01*
X84529583Y-128518120D01*
X84338406Y-128438932D01*
X84166352Y-128323969D01*
X84166349Y-128323967D01*
X84020033Y-128177651D01*
X83905068Y-128005594D01*
X83825880Y-127814417D01*
X83785510Y-127611464D01*
X83785510Y-127404536D01*
X83825880Y-127201583D01*
X83905068Y-127010406D01*
X84020031Y-126838352D01*
X84020033Y-126838349D01*
X84166349Y-126692033D01*
X84338406Y-126577068D01*
X84529583Y-126497880D01*
X84529584Y-126497880D01*
X84529586Y-126497879D01*
X84732534Y-126457510D01*
X84939466Y-126457510D01*
X85142414Y-126497879D01*
X85142414Y-126497879D01*
G37*
G36*
X88084116Y-126497879D02*
X88084118Y-126497880D01*
X88084119Y-126497880D01*
X88275296Y-126577068D01*
X88447353Y-126692033D01*
X88593669Y-126838349D01*
X88593671Y-126838352D01*
X88708634Y-127010406D01*
X88787822Y-127201583D01*
X88828192Y-127404536D01*
X88828192Y-127611464D01*
X88787822Y-127814417D01*
X88708634Y-128005594D01*
X88593669Y-128177651D01*
X88447353Y-128323967D01*
X88447350Y-128323969D01*
X88275296Y-128438932D01*
X88084119Y-128518120D01*
X88084118Y-128518120D01*
X88084116Y-128518121D01*
X87881168Y-128558490D01*
X87674236Y-128558490D01*
X87471288Y-128518121D01*
X87471286Y-128518120D01*
X87471285Y-128518120D01*
X87280108Y-128438932D01*
X87108054Y-128323969D01*
X87108051Y-128323967D01*
X86961735Y-128177651D01*
X86846770Y-128005594D01*
X86767582Y-127814417D01*
X86727212Y-127611464D01*
X86727212Y-127404536D01*
X86767582Y-127201583D01*
X86846770Y-127010406D01*
X86961733Y-126838352D01*
X86961735Y-126838349D01*
X87108051Y-126692033D01*
X87280108Y-126577068D01*
X87471285Y-126497880D01*
X87471286Y-126497880D01*
X87471288Y-126497879D01*
X87674236Y-126457510D01*
X87881168Y-126457510D01*
X88084116Y-126497879D01*
X88084116Y-126497879D01*
G37*
M02*
