G04 #@! TF.GenerationSoftware,KiCad,Pcbnew,5.0.2-bee76a0~70~ubuntu18.04.1*
G04 #@! TF.CreationDate,2019-03-03T20:31:20-05:00*
G04 #@! TF.ProjectId,agc,6167632e-6b69-4636-9164-5f7063625858,rev?*
G04 #@! TF.SameCoordinates,Original*
G04 #@! TF.FileFunction,Copper,L1,Top*
G04 #@! TF.FilePolarity,Positive*
%FSLAX46Y46*%
G04 Gerber Fmt 4.6, Leading zero omitted, Abs format (unit mm)*
G04 Created by KiCad (PCBNEW 5.0.2-bee76a0~70~ubuntu18.04.1) date Sun 03 Mar 2019 08:31:20 PM EST*
%MOMM*%
%LPD*%
G01*
G04 APERTURE LIST*
G04 #@! TA.AperFunction,EtchedComponent*
%ADD10C,0.100000*%
G04 #@! TD*
G04 #@! TA.AperFunction,Conductor*
%ADD11C,0.100000*%
G04 #@! TD*
G04 #@! TA.AperFunction,SMDPad,CuDef*
%ADD12C,0.975000*%
G04 #@! TD*
G04 #@! TA.AperFunction,ComponentPad*
%ADD13C,1.650000*%
G04 #@! TD*
G04 #@! TA.AperFunction,ComponentPad*
%ADD14C,2.400000*%
G04 #@! TD*
G04 #@! TA.AperFunction,ComponentPad*
%ADD15C,1.998980*%
G04 #@! TD*
G04 #@! TA.AperFunction,SMDPad,CuDef*
%ADD16R,1.270000X0.558800*%
G04 #@! TD*
G04 #@! TA.AperFunction,SMDPad,CuDef*
%ADD17R,1.000000X0.320000*%
G04 #@! TD*
G04 #@! TA.AperFunction,SMDPad,CuDef*
%ADD18R,1.320800X0.558800*%
G04 #@! TD*
G04 #@! TA.AperFunction,SMDPad,CuDef*
%ADD19R,1.371600X0.457200*%
G04 #@! TD*
G04 #@! TA.AperFunction,SMDPad,CuDef*
%ADD20R,1.190000X0.400000*%
G04 #@! TD*
G04 #@! TA.AperFunction,ViaPad*
%ADD21C,0.685800*%
G04 #@! TD*
G04 #@! TA.AperFunction,Conductor*
%ADD22C,0.812800*%
G04 #@! TD*
G04 #@! TA.AperFunction,Conductor*
%ADD23C,0.508000*%
G04 #@! TD*
G04 #@! TA.AperFunction,Conductor*
%ADD24C,0.254000*%
G04 #@! TD*
G04 #@! TA.AperFunction,Conductor*
%ADD25C,0.381000*%
G04 #@! TD*
G04 #@! TA.AperFunction,Conductor*
%ADD26C,0.152400*%
G04 #@! TD*
G04 APERTURE END LIST*
D10*
G04 #@! TO.C,U2*
G36*
X92062400Y-143296600D02*
X93662400Y-143296600D01*
X93662400Y-145196600D01*
X92062400Y-145196600D01*
X92062400Y-143296600D01*
G37*
G04 #@! TD*
D11*
G04 #@! TO.N,GND*
G04 #@! TO.C,C1*
G36*
X98371742Y-139564674D02*
X98395403Y-139568184D01*
X98418607Y-139573996D01*
X98441129Y-139582054D01*
X98462753Y-139592282D01*
X98483270Y-139604579D01*
X98502483Y-139618829D01*
X98520207Y-139634893D01*
X98536271Y-139652617D01*
X98550521Y-139671830D01*
X98562818Y-139692347D01*
X98573046Y-139713971D01*
X98581104Y-139736493D01*
X98586916Y-139759697D01*
X98590426Y-139783358D01*
X98591600Y-139807250D01*
X98591600Y-140294750D01*
X98590426Y-140318642D01*
X98586916Y-140342303D01*
X98581104Y-140365507D01*
X98573046Y-140388029D01*
X98562818Y-140409653D01*
X98550521Y-140430170D01*
X98536271Y-140449383D01*
X98520207Y-140467107D01*
X98502483Y-140483171D01*
X98483270Y-140497421D01*
X98462753Y-140509718D01*
X98441129Y-140519946D01*
X98418607Y-140528004D01*
X98395403Y-140533816D01*
X98371742Y-140537326D01*
X98347850Y-140538500D01*
X97435350Y-140538500D01*
X97411458Y-140537326D01*
X97387797Y-140533816D01*
X97364593Y-140528004D01*
X97342071Y-140519946D01*
X97320447Y-140509718D01*
X97299930Y-140497421D01*
X97280717Y-140483171D01*
X97262993Y-140467107D01*
X97246929Y-140449383D01*
X97232679Y-140430170D01*
X97220382Y-140409653D01*
X97210154Y-140388029D01*
X97202096Y-140365507D01*
X97196284Y-140342303D01*
X97192774Y-140318642D01*
X97191600Y-140294750D01*
X97191600Y-139807250D01*
X97192774Y-139783358D01*
X97196284Y-139759697D01*
X97202096Y-139736493D01*
X97210154Y-139713971D01*
X97220382Y-139692347D01*
X97232679Y-139671830D01*
X97246929Y-139652617D01*
X97262993Y-139634893D01*
X97280717Y-139618829D01*
X97299930Y-139604579D01*
X97320447Y-139592282D01*
X97342071Y-139582054D01*
X97364593Y-139573996D01*
X97387797Y-139568184D01*
X97411458Y-139564674D01*
X97435350Y-139563500D01*
X98347850Y-139563500D01*
X98371742Y-139564674D01*
X98371742Y-139564674D01*
G37*
D12*
G04 #@! TD*
G04 #@! TO.P,C1,2*
G04 #@! TO.N,GND*
X97891600Y-140051000D03*
D11*
G04 #@! TO.N,+5V*
G04 #@! TO.C,C1*
G36*
X98371742Y-137689674D02*
X98395403Y-137693184D01*
X98418607Y-137698996D01*
X98441129Y-137707054D01*
X98462753Y-137717282D01*
X98483270Y-137729579D01*
X98502483Y-137743829D01*
X98520207Y-137759893D01*
X98536271Y-137777617D01*
X98550521Y-137796830D01*
X98562818Y-137817347D01*
X98573046Y-137838971D01*
X98581104Y-137861493D01*
X98586916Y-137884697D01*
X98590426Y-137908358D01*
X98591600Y-137932250D01*
X98591600Y-138419750D01*
X98590426Y-138443642D01*
X98586916Y-138467303D01*
X98581104Y-138490507D01*
X98573046Y-138513029D01*
X98562818Y-138534653D01*
X98550521Y-138555170D01*
X98536271Y-138574383D01*
X98520207Y-138592107D01*
X98502483Y-138608171D01*
X98483270Y-138622421D01*
X98462753Y-138634718D01*
X98441129Y-138644946D01*
X98418607Y-138653004D01*
X98395403Y-138658816D01*
X98371742Y-138662326D01*
X98347850Y-138663500D01*
X97435350Y-138663500D01*
X97411458Y-138662326D01*
X97387797Y-138658816D01*
X97364593Y-138653004D01*
X97342071Y-138644946D01*
X97320447Y-138634718D01*
X97299930Y-138622421D01*
X97280717Y-138608171D01*
X97262993Y-138592107D01*
X97246929Y-138574383D01*
X97232679Y-138555170D01*
X97220382Y-138534653D01*
X97210154Y-138513029D01*
X97202096Y-138490507D01*
X97196284Y-138467303D01*
X97192774Y-138443642D01*
X97191600Y-138419750D01*
X97191600Y-137932250D01*
X97192774Y-137908358D01*
X97196284Y-137884697D01*
X97202096Y-137861493D01*
X97210154Y-137838971D01*
X97220382Y-137817347D01*
X97232679Y-137796830D01*
X97246929Y-137777617D01*
X97262993Y-137759893D01*
X97280717Y-137743829D01*
X97299930Y-137729579D01*
X97320447Y-137717282D01*
X97342071Y-137707054D01*
X97364593Y-137698996D01*
X97387797Y-137693184D01*
X97411458Y-137689674D01*
X97435350Y-137688500D01*
X98347850Y-137688500D01*
X98371742Y-137689674D01*
X98371742Y-137689674D01*
G37*
D12*
G04 #@! TD*
G04 #@! TO.P,C1,1*
G04 #@! TO.N,+5V*
X97891600Y-138176000D03*
D11*
G04 #@! TO.N,GND*
G04 #@! TO.C,C2*
G36*
X86128942Y-146861374D02*
X86152603Y-146864884D01*
X86175807Y-146870696D01*
X86198329Y-146878754D01*
X86219953Y-146888982D01*
X86240470Y-146901279D01*
X86259683Y-146915529D01*
X86277407Y-146931593D01*
X86293471Y-146949317D01*
X86307721Y-146968530D01*
X86320018Y-146989047D01*
X86330246Y-147010671D01*
X86338304Y-147033193D01*
X86344116Y-147056397D01*
X86347626Y-147080058D01*
X86348800Y-147103950D01*
X86348800Y-147591450D01*
X86347626Y-147615342D01*
X86344116Y-147639003D01*
X86338304Y-147662207D01*
X86330246Y-147684729D01*
X86320018Y-147706353D01*
X86307721Y-147726870D01*
X86293471Y-147746083D01*
X86277407Y-147763807D01*
X86259683Y-147779871D01*
X86240470Y-147794121D01*
X86219953Y-147806418D01*
X86198329Y-147816646D01*
X86175807Y-147824704D01*
X86152603Y-147830516D01*
X86128942Y-147834026D01*
X86105050Y-147835200D01*
X85192550Y-147835200D01*
X85168658Y-147834026D01*
X85144997Y-147830516D01*
X85121793Y-147824704D01*
X85099271Y-147816646D01*
X85077647Y-147806418D01*
X85057130Y-147794121D01*
X85037917Y-147779871D01*
X85020193Y-147763807D01*
X85004129Y-147746083D01*
X84989879Y-147726870D01*
X84977582Y-147706353D01*
X84967354Y-147684729D01*
X84959296Y-147662207D01*
X84953484Y-147639003D01*
X84949974Y-147615342D01*
X84948800Y-147591450D01*
X84948800Y-147103950D01*
X84949974Y-147080058D01*
X84953484Y-147056397D01*
X84959296Y-147033193D01*
X84967354Y-147010671D01*
X84977582Y-146989047D01*
X84989879Y-146968530D01*
X85004129Y-146949317D01*
X85020193Y-146931593D01*
X85037917Y-146915529D01*
X85057130Y-146901279D01*
X85077647Y-146888982D01*
X85099271Y-146878754D01*
X85121793Y-146870696D01*
X85144997Y-146864884D01*
X85168658Y-146861374D01*
X85192550Y-146860200D01*
X86105050Y-146860200D01*
X86128942Y-146861374D01*
X86128942Y-146861374D01*
G37*
D12*
G04 #@! TD*
G04 #@! TO.P,C2,1*
G04 #@! TO.N,GND*
X85648800Y-147347700D03*
D11*
G04 #@! TO.N,VCOM*
G04 #@! TO.C,C2*
G36*
X86128942Y-148736374D02*
X86152603Y-148739884D01*
X86175807Y-148745696D01*
X86198329Y-148753754D01*
X86219953Y-148763982D01*
X86240470Y-148776279D01*
X86259683Y-148790529D01*
X86277407Y-148806593D01*
X86293471Y-148824317D01*
X86307721Y-148843530D01*
X86320018Y-148864047D01*
X86330246Y-148885671D01*
X86338304Y-148908193D01*
X86344116Y-148931397D01*
X86347626Y-148955058D01*
X86348800Y-148978950D01*
X86348800Y-149466450D01*
X86347626Y-149490342D01*
X86344116Y-149514003D01*
X86338304Y-149537207D01*
X86330246Y-149559729D01*
X86320018Y-149581353D01*
X86307721Y-149601870D01*
X86293471Y-149621083D01*
X86277407Y-149638807D01*
X86259683Y-149654871D01*
X86240470Y-149669121D01*
X86219953Y-149681418D01*
X86198329Y-149691646D01*
X86175807Y-149699704D01*
X86152603Y-149705516D01*
X86128942Y-149709026D01*
X86105050Y-149710200D01*
X85192550Y-149710200D01*
X85168658Y-149709026D01*
X85144997Y-149705516D01*
X85121793Y-149699704D01*
X85099271Y-149691646D01*
X85077647Y-149681418D01*
X85057130Y-149669121D01*
X85037917Y-149654871D01*
X85020193Y-149638807D01*
X85004129Y-149621083D01*
X84989879Y-149601870D01*
X84977582Y-149581353D01*
X84967354Y-149559729D01*
X84959296Y-149537207D01*
X84953484Y-149514003D01*
X84949974Y-149490342D01*
X84948800Y-149466450D01*
X84948800Y-148978950D01*
X84949974Y-148955058D01*
X84953484Y-148931397D01*
X84959296Y-148908193D01*
X84967354Y-148885671D01*
X84977582Y-148864047D01*
X84989879Y-148843530D01*
X85004129Y-148824317D01*
X85020193Y-148806593D01*
X85037917Y-148790529D01*
X85057130Y-148776279D01*
X85077647Y-148763982D01*
X85099271Y-148753754D01*
X85121793Y-148745696D01*
X85144997Y-148739884D01*
X85168658Y-148736374D01*
X85192550Y-148735200D01*
X86105050Y-148735200D01*
X86128942Y-148736374D01*
X86128942Y-148736374D01*
G37*
D12*
G04 #@! TD*
G04 #@! TO.P,C2,2*
G04 #@! TO.N,VCOM*
X85648800Y-149222700D03*
D11*
G04 #@! TO.N,GND*
G04 #@! TO.C,C3*
G36*
X96254242Y-140525174D02*
X96277903Y-140528684D01*
X96301107Y-140534496D01*
X96323629Y-140542554D01*
X96345253Y-140552782D01*
X96365770Y-140565079D01*
X96384983Y-140579329D01*
X96402707Y-140595393D01*
X96418771Y-140613117D01*
X96433021Y-140632330D01*
X96445318Y-140652847D01*
X96455546Y-140674471D01*
X96463604Y-140696993D01*
X96469416Y-140720197D01*
X96472926Y-140743858D01*
X96474100Y-140767750D01*
X96474100Y-141680250D01*
X96472926Y-141704142D01*
X96469416Y-141727803D01*
X96463604Y-141751007D01*
X96455546Y-141773529D01*
X96445318Y-141795153D01*
X96433021Y-141815670D01*
X96418771Y-141834883D01*
X96402707Y-141852607D01*
X96384983Y-141868671D01*
X96365770Y-141882921D01*
X96345253Y-141895218D01*
X96323629Y-141905446D01*
X96301107Y-141913504D01*
X96277903Y-141919316D01*
X96254242Y-141922826D01*
X96230350Y-141924000D01*
X95742850Y-141924000D01*
X95718958Y-141922826D01*
X95695297Y-141919316D01*
X95672093Y-141913504D01*
X95649571Y-141905446D01*
X95627947Y-141895218D01*
X95607430Y-141882921D01*
X95588217Y-141868671D01*
X95570493Y-141852607D01*
X95554429Y-141834883D01*
X95540179Y-141815670D01*
X95527882Y-141795153D01*
X95517654Y-141773529D01*
X95509596Y-141751007D01*
X95503784Y-141727803D01*
X95500274Y-141704142D01*
X95499100Y-141680250D01*
X95499100Y-140767750D01*
X95500274Y-140743858D01*
X95503784Y-140720197D01*
X95509596Y-140696993D01*
X95517654Y-140674471D01*
X95527882Y-140652847D01*
X95540179Y-140632330D01*
X95554429Y-140613117D01*
X95570493Y-140595393D01*
X95588217Y-140579329D01*
X95607430Y-140565079D01*
X95627947Y-140552782D01*
X95649571Y-140542554D01*
X95672093Y-140534496D01*
X95695297Y-140528684D01*
X95718958Y-140525174D01*
X95742850Y-140524000D01*
X96230350Y-140524000D01*
X96254242Y-140525174D01*
X96254242Y-140525174D01*
G37*
D12*
G04 #@! TD*
G04 #@! TO.P,C3,2*
G04 #@! TO.N,GND*
X95986600Y-141224000D03*
D11*
G04 #@! TO.N,Net-(C3-Pad1)*
G04 #@! TO.C,C3*
G36*
X94379242Y-140525174D02*
X94402903Y-140528684D01*
X94426107Y-140534496D01*
X94448629Y-140542554D01*
X94470253Y-140552782D01*
X94490770Y-140565079D01*
X94509983Y-140579329D01*
X94527707Y-140595393D01*
X94543771Y-140613117D01*
X94558021Y-140632330D01*
X94570318Y-140652847D01*
X94580546Y-140674471D01*
X94588604Y-140696993D01*
X94594416Y-140720197D01*
X94597926Y-140743858D01*
X94599100Y-140767750D01*
X94599100Y-141680250D01*
X94597926Y-141704142D01*
X94594416Y-141727803D01*
X94588604Y-141751007D01*
X94580546Y-141773529D01*
X94570318Y-141795153D01*
X94558021Y-141815670D01*
X94543771Y-141834883D01*
X94527707Y-141852607D01*
X94509983Y-141868671D01*
X94490770Y-141882921D01*
X94470253Y-141895218D01*
X94448629Y-141905446D01*
X94426107Y-141913504D01*
X94402903Y-141919316D01*
X94379242Y-141922826D01*
X94355350Y-141924000D01*
X93867850Y-141924000D01*
X93843958Y-141922826D01*
X93820297Y-141919316D01*
X93797093Y-141913504D01*
X93774571Y-141905446D01*
X93752947Y-141895218D01*
X93732430Y-141882921D01*
X93713217Y-141868671D01*
X93695493Y-141852607D01*
X93679429Y-141834883D01*
X93665179Y-141815670D01*
X93652882Y-141795153D01*
X93642654Y-141773529D01*
X93634596Y-141751007D01*
X93628784Y-141727803D01*
X93625274Y-141704142D01*
X93624100Y-141680250D01*
X93624100Y-140767750D01*
X93625274Y-140743858D01*
X93628784Y-140720197D01*
X93634596Y-140696993D01*
X93642654Y-140674471D01*
X93652882Y-140652847D01*
X93665179Y-140632330D01*
X93679429Y-140613117D01*
X93695493Y-140595393D01*
X93713217Y-140579329D01*
X93732430Y-140565079D01*
X93752947Y-140552782D01*
X93774571Y-140542554D01*
X93797093Y-140534496D01*
X93820297Y-140528684D01*
X93843958Y-140525174D01*
X93867850Y-140524000D01*
X94355350Y-140524000D01*
X94379242Y-140525174D01*
X94379242Y-140525174D01*
G37*
D12*
G04 #@! TD*
G04 #@! TO.P,C3,1*
G04 #@! TO.N,Net-(C3-Pad1)*
X94111600Y-141224000D03*
D11*
G04 #@! TO.N,GND*
G04 #@! TO.C,C4*
G36*
X85768642Y-130365174D02*
X85792303Y-130368684D01*
X85815507Y-130374496D01*
X85838029Y-130382554D01*
X85859653Y-130392782D01*
X85880170Y-130405079D01*
X85899383Y-130419329D01*
X85917107Y-130435393D01*
X85933171Y-130453117D01*
X85947421Y-130472330D01*
X85959718Y-130492847D01*
X85969946Y-130514471D01*
X85978004Y-130536993D01*
X85983816Y-130560197D01*
X85987326Y-130583858D01*
X85988500Y-130607750D01*
X85988500Y-131520250D01*
X85987326Y-131544142D01*
X85983816Y-131567803D01*
X85978004Y-131591007D01*
X85969946Y-131613529D01*
X85959718Y-131635153D01*
X85947421Y-131655670D01*
X85933171Y-131674883D01*
X85917107Y-131692607D01*
X85899383Y-131708671D01*
X85880170Y-131722921D01*
X85859653Y-131735218D01*
X85838029Y-131745446D01*
X85815507Y-131753504D01*
X85792303Y-131759316D01*
X85768642Y-131762826D01*
X85744750Y-131764000D01*
X85257250Y-131764000D01*
X85233358Y-131762826D01*
X85209697Y-131759316D01*
X85186493Y-131753504D01*
X85163971Y-131745446D01*
X85142347Y-131735218D01*
X85121830Y-131722921D01*
X85102617Y-131708671D01*
X85084893Y-131692607D01*
X85068829Y-131674883D01*
X85054579Y-131655670D01*
X85042282Y-131635153D01*
X85032054Y-131613529D01*
X85023996Y-131591007D01*
X85018184Y-131567803D01*
X85014674Y-131544142D01*
X85013500Y-131520250D01*
X85013500Y-130607750D01*
X85014674Y-130583858D01*
X85018184Y-130560197D01*
X85023996Y-130536993D01*
X85032054Y-130514471D01*
X85042282Y-130492847D01*
X85054579Y-130472330D01*
X85068829Y-130453117D01*
X85084893Y-130435393D01*
X85102617Y-130419329D01*
X85121830Y-130405079D01*
X85142347Y-130392782D01*
X85163971Y-130382554D01*
X85186493Y-130374496D01*
X85209697Y-130368684D01*
X85233358Y-130365174D01*
X85257250Y-130364000D01*
X85744750Y-130364000D01*
X85768642Y-130365174D01*
X85768642Y-130365174D01*
G37*
D12*
G04 #@! TD*
G04 #@! TO.P,C4,1*
G04 #@! TO.N,GND*
X85501000Y-131064000D03*
D11*
G04 #@! TO.N,VDD*
G04 #@! TO.C,C4*
G36*
X87643642Y-130365174D02*
X87667303Y-130368684D01*
X87690507Y-130374496D01*
X87713029Y-130382554D01*
X87734653Y-130392782D01*
X87755170Y-130405079D01*
X87774383Y-130419329D01*
X87792107Y-130435393D01*
X87808171Y-130453117D01*
X87822421Y-130472330D01*
X87834718Y-130492847D01*
X87844946Y-130514471D01*
X87853004Y-130536993D01*
X87858816Y-130560197D01*
X87862326Y-130583858D01*
X87863500Y-130607750D01*
X87863500Y-131520250D01*
X87862326Y-131544142D01*
X87858816Y-131567803D01*
X87853004Y-131591007D01*
X87844946Y-131613529D01*
X87834718Y-131635153D01*
X87822421Y-131655670D01*
X87808171Y-131674883D01*
X87792107Y-131692607D01*
X87774383Y-131708671D01*
X87755170Y-131722921D01*
X87734653Y-131735218D01*
X87713029Y-131745446D01*
X87690507Y-131753504D01*
X87667303Y-131759316D01*
X87643642Y-131762826D01*
X87619750Y-131764000D01*
X87132250Y-131764000D01*
X87108358Y-131762826D01*
X87084697Y-131759316D01*
X87061493Y-131753504D01*
X87038971Y-131745446D01*
X87017347Y-131735218D01*
X86996830Y-131722921D01*
X86977617Y-131708671D01*
X86959893Y-131692607D01*
X86943829Y-131674883D01*
X86929579Y-131655670D01*
X86917282Y-131635153D01*
X86907054Y-131613529D01*
X86898996Y-131591007D01*
X86893184Y-131567803D01*
X86889674Y-131544142D01*
X86888500Y-131520250D01*
X86888500Y-130607750D01*
X86889674Y-130583858D01*
X86893184Y-130560197D01*
X86898996Y-130536993D01*
X86907054Y-130514471D01*
X86917282Y-130492847D01*
X86929579Y-130472330D01*
X86943829Y-130453117D01*
X86959893Y-130435393D01*
X86977617Y-130419329D01*
X86996830Y-130405079D01*
X87017347Y-130392782D01*
X87038971Y-130382554D01*
X87061493Y-130374496D01*
X87084697Y-130368684D01*
X87108358Y-130365174D01*
X87132250Y-130364000D01*
X87619750Y-130364000D01*
X87643642Y-130365174D01*
X87643642Y-130365174D01*
G37*
D12*
G04 #@! TD*
G04 #@! TO.P,C4,2*
G04 #@! TO.N,VDD*
X87376000Y-131064000D03*
D11*
G04 #@! TO.N,VCOM*
G04 #@! TO.C,C5*
G36*
X89380142Y-148660174D02*
X89403803Y-148663684D01*
X89427007Y-148669496D01*
X89449529Y-148677554D01*
X89471153Y-148687782D01*
X89491670Y-148700079D01*
X89510883Y-148714329D01*
X89528607Y-148730393D01*
X89544671Y-148748117D01*
X89558921Y-148767330D01*
X89571218Y-148787847D01*
X89581446Y-148809471D01*
X89589504Y-148831993D01*
X89595316Y-148855197D01*
X89598826Y-148878858D01*
X89600000Y-148902750D01*
X89600000Y-149390250D01*
X89598826Y-149414142D01*
X89595316Y-149437803D01*
X89589504Y-149461007D01*
X89581446Y-149483529D01*
X89571218Y-149505153D01*
X89558921Y-149525670D01*
X89544671Y-149544883D01*
X89528607Y-149562607D01*
X89510883Y-149578671D01*
X89491670Y-149592921D01*
X89471153Y-149605218D01*
X89449529Y-149615446D01*
X89427007Y-149623504D01*
X89403803Y-149629316D01*
X89380142Y-149632826D01*
X89356250Y-149634000D01*
X88443750Y-149634000D01*
X88419858Y-149632826D01*
X88396197Y-149629316D01*
X88372993Y-149623504D01*
X88350471Y-149615446D01*
X88328847Y-149605218D01*
X88308330Y-149592921D01*
X88289117Y-149578671D01*
X88271393Y-149562607D01*
X88255329Y-149544883D01*
X88241079Y-149525670D01*
X88228782Y-149505153D01*
X88218554Y-149483529D01*
X88210496Y-149461007D01*
X88204684Y-149437803D01*
X88201174Y-149414142D01*
X88200000Y-149390250D01*
X88200000Y-148902750D01*
X88201174Y-148878858D01*
X88204684Y-148855197D01*
X88210496Y-148831993D01*
X88218554Y-148809471D01*
X88228782Y-148787847D01*
X88241079Y-148767330D01*
X88255329Y-148748117D01*
X88271393Y-148730393D01*
X88289117Y-148714329D01*
X88308330Y-148700079D01*
X88328847Y-148687782D01*
X88350471Y-148677554D01*
X88372993Y-148669496D01*
X88396197Y-148663684D01*
X88419858Y-148660174D01*
X88443750Y-148659000D01*
X89356250Y-148659000D01*
X89380142Y-148660174D01*
X89380142Y-148660174D01*
G37*
D12*
G04 #@! TD*
G04 #@! TO.P,C5,2*
G04 #@! TO.N,VCOM*
X88900000Y-149146500D03*
D11*
G04 #@! TO.N,GND*
G04 #@! TO.C,C5*
G36*
X89380142Y-146785174D02*
X89403803Y-146788684D01*
X89427007Y-146794496D01*
X89449529Y-146802554D01*
X89471153Y-146812782D01*
X89491670Y-146825079D01*
X89510883Y-146839329D01*
X89528607Y-146855393D01*
X89544671Y-146873117D01*
X89558921Y-146892330D01*
X89571218Y-146912847D01*
X89581446Y-146934471D01*
X89589504Y-146956993D01*
X89595316Y-146980197D01*
X89598826Y-147003858D01*
X89600000Y-147027750D01*
X89600000Y-147515250D01*
X89598826Y-147539142D01*
X89595316Y-147562803D01*
X89589504Y-147586007D01*
X89581446Y-147608529D01*
X89571218Y-147630153D01*
X89558921Y-147650670D01*
X89544671Y-147669883D01*
X89528607Y-147687607D01*
X89510883Y-147703671D01*
X89491670Y-147717921D01*
X89471153Y-147730218D01*
X89449529Y-147740446D01*
X89427007Y-147748504D01*
X89403803Y-147754316D01*
X89380142Y-147757826D01*
X89356250Y-147759000D01*
X88443750Y-147759000D01*
X88419858Y-147757826D01*
X88396197Y-147754316D01*
X88372993Y-147748504D01*
X88350471Y-147740446D01*
X88328847Y-147730218D01*
X88308330Y-147717921D01*
X88289117Y-147703671D01*
X88271393Y-147687607D01*
X88255329Y-147669883D01*
X88241079Y-147650670D01*
X88228782Y-147630153D01*
X88218554Y-147608529D01*
X88210496Y-147586007D01*
X88204684Y-147562803D01*
X88201174Y-147539142D01*
X88200000Y-147515250D01*
X88200000Y-147027750D01*
X88201174Y-147003858D01*
X88204684Y-146980197D01*
X88210496Y-146956993D01*
X88218554Y-146934471D01*
X88228782Y-146912847D01*
X88241079Y-146892330D01*
X88255329Y-146873117D01*
X88271393Y-146855393D01*
X88289117Y-146839329D01*
X88308330Y-146825079D01*
X88328847Y-146812782D01*
X88350471Y-146802554D01*
X88372993Y-146794496D01*
X88396197Y-146788684D01*
X88419858Y-146785174D01*
X88443750Y-146784000D01*
X89356250Y-146784000D01*
X89380142Y-146785174D01*
X89380142Y-146785174D01*
G37*
D12*
G04 #@! TD*
G04 #@! TO.P,C5,1*
G04 #@! TO.N,GND*
X88900000Y-147271500D03*
D11*
G04 #@! TO.N,Net-(C6-Pad1)*
G04 #@! TO.C,C6*
G36*
X87742942Y-143623974D02*
X87766603Y-143627484D01*
X87789807Y-143633296D01*
X87812329Y-143641354D01*
X87833953Y-143651582D01*
X87854470Y-143663879D01*
X87873683Y-143678129D01*
X87891407Y-143694193D01*
X87907471Y-143711917D01*
X87921721Y-143731130D01*
X87934018Y-143751647D01*
X87944246Y-143773271D01*
X87952304Y-143795793D01*
X87958116Y-143818997D01*
X87961626Y-143842658D01*
X87962800Y-143866550D01*
X87962800Y-144779050D01*
X87961626Y-144802942D01*
X87958116Y-144826603D01*
X87952304Y-144849807D01*
X87944246Y-144872329D01*
X87934018Y-144893953D01*
X87921721Y-144914470D01*
X87907471Y-144933683D01*
X87891407Y-144951407D01*
X87873683Y-144967471D01*
X87854470Y-144981721D01*
X87833953Y-144994018D01*
X87812329Y-145004246D01*
X87789807Y-145012304D01*
X87766603Y-145018116D01*
X87742942Y-145021626D01*
X87719050Y-145022800D01*
X87231550Y-145022800D01*
X87207658Y-145021626D01*
X87183997Y-145018116D01*
X87160793Y-145012304D01*
X87138271Y-145004246D01*
X87116647Y-144994018D01*
X87096130Y-144981721D01*
X87076917Y-144967471D01*
X87059193Y-144951407D01*
X87043129Y-144933683D01*
X87028879Y-144914470D01*
X87016582Y-144893953D01*
X87006354Y-144872329D01*
X86998296Y-144849807D01*
X86992484Y-144826603D01*
X86988974Y-144802942D01*
X86987800Y-144779050D01*
X86987800Y-143866550D01*
X86988974Y-143842658D01*
X86992484Y-143818997D01*
X86998296Y-143795793D01*
X87006354Y-143773271D01*
X87016582Y-143751647D01*
X87028879Y-143731130D01*
X87043129Y-143711917D01*
X87059193Y-143694193D01*
X87076917Y-143678129D01*
X87096130Y-143663879D01*
X87116647Y-143651582D01*
X87138271Y-143641354D01*
X87160793Y-143633296D01*
X87183997Y-143627484D01*
X87207658Y-143623974D01*
X87231550Y-143622800D01*
X87719050Y-143622800D01*
X87742942Y-143623974D01*
X87742942Y-143623974D01*
G37*
D12*
G04 #@! TD*
G04 #@! TO.P,C6,1*
G04 #@! TO.N,Net-(C6-Pad1)*
X87475300Y-144322800D03*
D11*
G04 #@! TO.N,Net-(C6-Pad2)*
G04 #@! TO.C,C6*
G36*
X85867942Y-143623974D02*
X85891603Y-143627484D01*
X85914807Y-143633296D01*
X85937329Y-143641354D01*
X85958953Y-143651582D01*
X85979470Y-143663879D01*
X85998683Y-143678129D01*
X86016407Y-143694193D01*
X86032471Y-143711917D01*
X86046721Y-143731130D01*
X86059018Y-143751647D01*
X86069246Y-143773271D01*
X86077304Y-143795793D01*
X86083116Y-143818997D01*
X86086626Y-143842658D01*
X86087800Y-143866550D01*
X86087800Y-144779050D01*
X86086626Y-144802942D01*
X86083116Y-144826603D01*
X86077304Y-144849807D01*
X86069246Y-144872329D01*
X86059018Y-144893953D01*
X86046721Y-144914470D01*
X86032471Y-144933683D01*
X86016407Y-144951407D01*
X85998683Y-144967471D01*
X85979470Y-144981721D01*
X85958953Y-144994018D01*
X85937329Y-145004246D01*
X85914807Y-145012304D01*
X85891603Y-145018116D01*
X85867942Y-145021626D01*
X85844050Y-145022800D01*
X85356550Y-145022800D01*
X85332658Y-145021626D01*
X85308997Y-145018116D01*
X85285793Y-145012304D01*
X85263271Y-145004246D01*
X85241647Y-144994018D01*
X85221130Y-144981721D01*
X85201917Y-144967471D01*
X85184193Y-144951407D01*
X85168129Y-144933683D01*
X85153879Y-144914470D01*
X85141582Y-144893953D01*
X85131354Y-144872329D01*
X85123296Y-144849807D01*
X85117484Y-144826603D01*
X85113974Y-144802942D01*
X85112800Y-144779050D01*
X85112800Y-143866550D01*
X85113974Y-143842658D01*
X85117484Y-143818997D01*
X85123296Y-143795793D01*
X85131354Y-143773271D01*
X85141582Y-143751647D01*
X85153879Y-143731130D01*
X85168129Y-143711917D01*
X85184193Y-143694193D01*
X85201917Y-143678129D01*
X85221130Y-143663879D01*
X85241647Y-143651582D01*
X85263271Y-143641354D01*
X85285793Y-143633296D01*
X85308997Y-143627484D01*
X85332658Y-143623974D01*
X85356550Y-143622800D01*
X85844050Y-143622800D01*
X85867942Y-143623974D01*
X85867942Y-143623974D01*
G37*
D12*
G04 #@! TD*
G04 #@! TO.P,C6,2*
G04 #@! TO.N,Net-(C6-Pad2)*
X85600300Y-144322800D03*
D11*
G04 #@! TO.N,+5V*
G04 #@! TO.C,C7*
G36*
X107885142Y-128333174D02*
X107908803Y-128336684D01*
X107932007Y-128342496D01*
X107954529Y-128350554D01*
X107976153Y-128360782D01*
X107996670Y-128373079D01*
X108015883Y-128387329D01*
X108033607Y-128403393D01*
X108049671Y-128421117D01*
X108063921Y-128440330D01*
X108076218Y-128460847D01*
X108086446Y-128482471D01*
X108094504Y-128504993D01*
X108100316Y-128528197D01*
X108103826Y-128551858D01*
X108105000Y-128575750D01*
X108105000Y-129488250D01*
X108103826Y-129512142D01*
X108100316Y-129535803D01*
X108094504Y-129559007D01*
X108086446Y-129581529D01*
X108076218Y-129603153D01*
X108063921Y-129623670D01*
X108049671Y-129642883D01*
X108033607Y-129660607D01*
X108015883Y-129676671D01*
X107996670Y-129690921D01*
X107976153Y-129703218D01*
X107954529Y-129713446D01*
X107932007Y-129721504D01*
X107908803Y-129727316D01*
X107885142Y-129730826D01*
X107861250Y-129732000D01*
X107373750Y-129732000D01*
X107349858Y-129730826D01*
X107326197Y-129727316D01*
X107302993Y-129721504D01*
X107280471Y-129713446D01*
X107258847Y-129703218D01*
X107238330Y-129690921D01*
X107219117Y-129676671D01*
X107201393Y-129660607D01*
X107185329Y-129642883D01*
X107171079Y-129623670D01*
X107158782Y-129603153D01*
X107148554Y-129581529D01*
X107140496Y-129559007D01*
X107134684Y-129535803D01*
X107131174Y-129512142D01*
X107130000Y-129488250D01*
X107130000Y-128575750D01*
X107131174Y-128551858D01*
X107134684Y-128528197D01*
X107140496Y-128504993D01*
X107148554Y-128482471D01*
X107158782Y-128460847D01*
X107171079Y-128440330D01*
X107185329Y-128421117D01*
X107201393Y-128403393D01*
X107219117Y-128387329D01*
X107238330Y-128373079D01*
X107258847Y-128360782D01*
X107280471Y-128350554D01*
X107302993Y-128342496D01*
X107326197Y-128336684D01*
X107349858Y-128333174D01*
X107373750Y-128332000D01*
X107861250Y-128332000D01*
X107885142Y-128333174D01*
X107885142Y-128333174D01*
G37*
D12*
G04 #@! TD*
G04 #@! TO.P,C7,1*
G04 #@! TO.N,+5V*
X107617500Y-129032000D03*
D11*
G04 #@! TO.N,GND*
G04 #@! TO.C,C7*
G36*
X106010142Y-128333174D02*
X106033803Y-128336684D01*
X106057007Y-128342496D01*
X106079529Y-128350554D01*
X106101153Y-128360782D01*
X106121670Y-128373079D01*
X106140883Y-128387329D01*
X106158607Y-128403393D01*
X106174671Y-128421117D01*
X106188921Y-128440330D01*
X106201218Y-128460847D01*
X106211446Y-128482471D01*
X106219504Y-128504993D01*
X106225316Y-128528197D01*
X106228826Y-128551858D01*
X106230000Y-128575750D01*
X106230000Y-129488250D01*
X106228826Y-129512142D01*
X106225316Y-129535803D01*
X106219504Y-129559007D01*
X106211446Y-129581529D01*
X106201218Y-129603153D01*
X106188921Y-129623670D01*
X106174671Y-129642883D01*
X106158607Y-129660607D01*
X106140883Y-129676671D01*
X106121670Y-129690921D01*
X106101153Y-129703218D01*
X106079529Y-129713446D01*
X106057007Y-129721504D01*
X106033803Y-129727316D01*
X106010142Y-129730826D01*
X105986250Y-129732000D01*
X105498750Y-129732000D01*
X105474858Y-129730826D01*
X105451197Y-129727316D01*
X105427993Y-129721504D01*
X105405471Y-129713446D01*
X105383847Y-129703218D01*
X105363330Y-129690921D01*
X105344117Y-129676671D01*
X105326393Y-129660607D01*
X105310329Y-129642883D01*
X105296079Y-129623670D01*
X105283782Y-129603153D01*
X105273554Y-129581529D01*
X105265496Y-129559007D01*
X105259684Y-129535803D01*
X105256174Y-129512142D01*
X105255000Y-129488250D01*
X105255000Y-128575750D01*
X105256174Y-128551858D01*
X105259684Y-128528197D01*
X105265496Y-128504993D01*
X105273554Y-128482471D01*
X105283782Y-128460847D01*
X105296079Y-128440330D01*
X105310329Y-128421117D01*
X105326393Y-128403393D01*
X105344117Y-128387329D01*
X105363330Y-128373079D01*
X105383847Y-128360782D01*
X105405471Y-128350554D01*
X105427993Y-128342496D01*
X105451197Y-128336684D01*
X105474858Y-128333174D01*
X105498750Y-128332000D01*
X105986250Y-128332000D01*
X106010142Y-128333174D01*
X106010142Y-128333174D01*
G37*
D12*
G04 #@! TD*
G04 #@! TO.P,C7,2*
G04 #@! TO.N,GND*
X105742500Y-129032000D03*
D11*
G04 #@! TO.N,Net-(C8-Pad2)*
G04 #@! TO.C,C8*
G36*
X108042142Y-137477174D02*
X108065803Y-137480684D01*
X108089007Y-137486496D01*
X108111529Y-137494554D01*
X108133153Y-137504782D01*
X108153670Y-137517079D01*
X108172883Y-137531329D01*
X108190607Y-137547393D01*
X108206671Y-137565117D01*
X108220921Y-137584330D01*
X108233218Y-137604847D01*
X108243446Y-137626471D01*
X108251504Y-137648993D01*
X108257316Y-137672197D01*
X108260826Y-137695858D01*
X108262000Y-137719750D01*
X108262000Y-138632250D01*
X108260826Y-138656142D01*
X108257316Y-138679803D01*
X108251504Y-138703007D01*
X108243446Y-138725529D01*
X108233218Y-138747153D01*
X108220921Y-138767670D01*
X108206671Y-138786883D01*
X108190607Y-138804607D01*
X108172883Y-138820671D01*
X108153670Y-138834921D01*
X108133153Y-138847218D01*
X108111529Y-138857446D01*
X108089007Y-138865504D01*
X108065803Y-138871316D01*
X108042142Y-138874826D01*
X108018250Y-138876000D01*
X107530750Y-138876000D01*
X107506858Y-138874826D01*
X107483197Y-138871316D01*
X107459993Y-138865504D01*
X107437471Y-138857446D01*
X107415847Y-138847218D01*
X107395330Y-138834921D01*
X107376117Y-138820671D01*
X107358393Y-138804607D01*
X107342329Y-138786883D01*
X107328079Y-138767670D01*
X107315782Y-138747153D01*
X107305554Y-138725529D01*
X107297496Y-138703007D01*
X107291684Y-138679803D01*
X107288174Y-138656142D01*
X107287000Y-138632250D01*
X107287000Y-137719750D01*
X107288174Y-137695858D01*
X107291684Y-137672197D01*
X107297496Y-137648993D01*
X107305554Y-137626471D01*
X107315782Y-137604847D01*
X107328079Y-137584330D01*
X107342329Y-137565117D01*
X107358393Y-137547393D01*
X107376117Y-137531329D01*
X107395330Y-137517079D01*
X107415847Y-137504782D01*
X107437471Y-137494554D01*
X107459993Y-137486496D01*
X107483197Y-137480684D01*
X107506858Y-137477174D01*
X107530750Y-137476000D01*
X108018250Y-137476000D01*
X108042142Y-137477174D01*
X108042142Y-137477174D01*
G37*
D12*
G04 #@! TD*
G04 #@! TO.P,C8,2*
G04 #@! TO.N,Net-(C8-Pad2)*
X107774500Y-138176000D03*
D11*
G04 #@! TO.N,Net-(C8-Pad1)*
G04 #@! TO.C,C8*
G36*
X109917142Y-137477174D02*
X109940803Y-137480684D01*
X109964007Y-137486496D01*
X109986529Y-137494554D01*
X110008153Y-137504782D01*
X110028670Y-137517079D01*
X110047883Y-137531329D01*
X110065607Y-137547393D01*
X110081671Y-137565117D01*
X110095921Y-137584330D01*
X110108218Y-137604847D01*
X110118446Y-137626471D01*
X110126504Y-137648993D01*
X110132316Y-137672197D01*
X110135826Y-137695858D01*
X110137000Y-137719750D01*
X110137000Y-138632250D01*
X110135826Y-138656142D01*
X110132316Y-138679803D01*
X110126504Y-138703007D01*
X110118446Y-138725529D01*
X110108218Y-138747153D01*
X110095921Y-138767670D01*
X110081671Y-138786883D01*
X110065607Y-138804607D01*
X110047883Y-138820671D01*
X110028670Y-138834921D01*
X110008153Y-138847218D01*
X109986529Y-138857446D01*
X109964007Y-138865504D01*
X109940803Y-138871316D01*
X109917142Y-138874826D01*
X109893250Y-138876000D01*
X109405750Y-138876000D01*
X109381858Y-138874826D01*
X109358197Y-138871316D01*
X109334993Y-138865504D01*
X109312471Y-138857446D01*
X109290847Y-138847218D01*
X109270330Y-138834921D01*
X109251117Y-138820671D01*
X109233393Y-138804607D01*
X109217329Y-138786883D01*
X109203079Y-138767670D01*
X109190782Y-138747153D01*
X109180554Y-138725529D01*
X109172496Y-138703007D01*
X109166684Y-138679803D01*
X109163174Y-138656142D01*
X109162000Y-138632250D01*
X109162000Y-137719750D01*
X109163174Y-137695858D01*
X109166684Y-137672197D01*
X109172496Y-137648993D01*
X109180554Y-137626471D01*
X109190782Y-137604847D01*
X109203079Y-137584330D01*
X109217329Y-137565117D01*
X109233393Y-137547393D01*
X109251117Y-137531329D01*
X109270330Y-137517079D01*
X109290847Y-137504782D01*
X109312471Y-137494554D01*
X109334993Y-137486496D01*
X109358197Y-137480684D01*
X109381858Y-137477174D01*
X109405750Y-137476000D01*
X109893250Y-137476000D01*
X109917142Y-137477174D01*
X109917142Y-137477174D01*
G37*
D12*
G04 #@! TD*
G04 #@! TO.P,C8,1*
G04 #@! TO.N,Net-(C8-Pad1)*
X109649500Y-138176000D03*
D11*
G04 #@! TO.N,2_5*
G04 #@! TO.C,C9*
G36*
X100454642Y-133921174D02*
X100478303Y-133924684D01*
X100501507Y-133930496D01*
X100524029Y-133938554D01*
X100545653Y-133948782D01*
X100566170Y-133961079D01*
X100585383Y-133975329D01*
X100603107Y-133991393D01*
X100619171Y-134009117D01*
X100633421Y-134028330D01*
X100645718Y-134048847D01*
X100655946Y-134070471D01*
X100664004Y-134092993D01*
X100669816Y-134116197D01*
X100673326Y-134139858D01*
X100674500Y-134163750D01*
X100674500Y-135076250D01*
X100673326Y-135100142D01*
X100669816Y-135123803D01*
X100664004Y-135147007D01*
X100655946Y-135169529D01*
X100645718Y-135191153D01*
X100633421Y-135211670D01*
X100619171Y-135230883D01*
X100603107Y-135248607D01*
X100585383Y-135264671D01*
X100566170Y-135278921D01*
X100545653Y-135291218D01*
X100524029Y-135301446D01*
X100501507Y-135309504D01*
X100478303Y-135315316D01*
X100454642Y-135318826D01*
X100430750Y-135320000D01*
X99943250Y-135320000D01*
X99919358Y-135318826D01*
X99895697Y-135315316D01*
X99872493Y-135309504D01*
X99849971Y-135301446D01*
X99828347Y-135291218D01*
X99807830Y-135278921D01*
X99788617Y-135264671D01*
X99770893Y-135248607D01*
X99754829Y-135230883D01*
X99740579Y-135211670D01*
X99728282Y-135191153D01*
X99718054Y-135169529D01*
X99709996Y-135147007D01*
X99704184Y-135123803D01*
X99700674Y-135100142D01*
X99699500Y-135076250D01*
X99699500Y-134163750D01*
X99700674Y-134139858D01*
X99704184Y-134116197D01*
X99709996Y-134092993D01*
X99718054Y-134070471D01*
X99728282Y-134048847D01*
X99740579Y-134028330D01*
X99754829Y-134009117D01*
X99770893Y-133991393D01*
X99788617Y-133975329D01*
X99807830Y-133961079D01*
X99828347Y-133948782D01*
X99849971Y-133938554D01*
X99872493Y-133930496D01*
X99895697Y-133924684D01*
X99919358Y-133921174D01*
X99943250Y-133920000D01*
X100430750Y-133920000D01*
X100454642Y-133921174D01*
X100454642Y-133921174D01*
G37*
D12*
G04 #@! TD*
G04 #@! TO.P,C9,2*
G04 #@! TO.N,2_5*
X100187000Y-134620000D03*
D11*
G04 #@! TO.N,GND*
G04 #@! TO.C,C9*
G36*
X102329642Y-133921174D02*
X102353303Y-133924684D01*
X102376507Y-133930496D01*
X102399029Y-133938554D01*
X102420653Y-133948782D01*
X102441170Y-133961079D01*
X102460383Y-133975329D01*
X102478107Y-133991393D01*
X102494171Y-134009117D01*
X102508421Y-134028330D01*
X102520718Y-134048847D01*
X102530946Y-134070471D01*
X102539004Y-134092993D01*
X102544816Y-134116197D01*
X102548326Y-134139858D01*
X102549500Y-134163750D01*
X102549500Y-135076250D01*
X102548326Y-135100142D01*
X102544816Y-135123803D01*
X102539004Y-135147007D01*
X102530946Y-135169529D01*
X102520718Y-135191153D01*
X102508421Y-135211670D01*
X102494171Y-135230883D01*
X102478107Y-135248607D01*
X102460383Y-135264671D01*
X102441170Y-135278921D01*
X102420653Y-135291218D01*
X102399029Y-135301446D01*
X102376507Y-135309504D01*
X102353303Y-135315316D01*
X102329642Y-135318826D01*
X102305750Y-135320000D01*
X101818250Y-135320000D01*
X101794358Y-135318826D01*
X101770697Y-135315316D01*
X101747493Y-135309504D01*
X101724971Y-135301446D01*
X101703347Y-135291218D01*
X101682830Y-135278921D01*
X101663617Y-135264671D01*
X101645893Y-135248607D01*
X101629829Y-135230883D01*
X101615579Y-135211670D01*
X101603282Y-135191153D01*
X101593054Y-135169529D01*
X101584996Y-135147007D01*
X101579184Y-135123803D01*
X101575674Y-135100142D01*
X101574500Y-135076250D01*
X101574500Y-134163750D01*
X101575674Y-134139858D01*
X101579184Y-134116197D01*
X101584996Y-134092993D01*
X101593054Y-134070471D01*
X101603282Y-134048847D01*
X101615579Y-134028330D01*
X101629829Y-134009117D01*
X101645893Y-133991393D01*
X101663617Y-133975329D01*
X101682830Y-133961079D01*
X101703347Y-133948782D01*
X101724971Y-133938554D01*
X101747493Y-133930496D01*
X101770697Y-133924684D01*
X101794358Y-133921174D01*
X101818250Y-133920000D01*
X102305750Y-133920000D01*
X102329642Y-133921174D01*
X102329642Y-133921174D01*
G37*
D12*
G04 #@! TD*
G04 #@! TO.P,C9,1*
G04 #@! TO.N,GND*
X102062000Y-134620000D03*
D11*
G04 #@! TO.N,GND*
G04 #@! TO.C,C10*
G36*
X102251142Y-128333174D02*
X102274803Y-128336684D01*
X102298007Y-128342496D01*
X102320529Y-128350554D01*
X102342153Y-128360782D01*
X102362670Y-128373079D01*
X102381883Y-128387329D01*
X102399607Y-128403393D01*
X102415671Y-128421117D01*
X102429921Y-128440330D01*
X102442218Y-128460847D01*
X102452446Y-128482471D01*
X102460504Y-128504993D01*
X102466316Y-128528197D01*
X102469826Y-128551858D01*
X102471000Y-128575750D01*
X102471000Y-129488250D01*
X102469826Y-129512142D01*
X102466316Y-129535803D01*
X102460504Y-129559007D01*
X102452446Y-129581529D01*
X102442218Y-129603153D01*
X102429921Y-129623670D01*
X102415671Y-129642883D01*
X102399607Y-129660607D01*
X102381883Y-129676671D01*
X102362670Y-129690921D01*
X102342153Y-129703218D01*
X102320529Y-129713446D01*
X102298007Y-129721504D01*
X102274803Y-129727316D01*
X102251142Y-129730826D01*
X102227250Y-129732000D01*
X101739750Y-129732000D01*
X101715858Y-129730826D01*
X101692197Y-129727316D01*
X101668993Y-129721504D01*
X101646471Y-129713446D01*
X101624847Y-129703218D01*
X101604330Y-129690921D01*
X101585117Y-129676671D01*
X101567393Y-129660607D01*
X101551329Y-129642883D01*
X101537079Y-129623670D01*
X101524782Y-129603153D01*
X101514554Y-129581529D01*
X101506496Y-129559007D01*
X101500684Y-129535803D01*
X101497174Y-129512142D01*
X101496000Y-129488250D01*
X101496000Y-128575750D01*
X101497174Y-128551858D01*
X101500684Y-128528197D01*
X101506496Y-128504993D01*
X101514554Y-128482471D01*
X101524782Y-128460847D01*
X101537079Y-128440330D01*
X101551329Y-128421117D01*
X101567393Y-128403393D01*
X101585117Y-128387329D01*
X101604330Y-128373079D01*
X101624847Y-128360782D01*
X101646471Y-128350554D01*
X101668993Y-128342496D01*
X101692197Y-128336684D01*
X101715858Y-128333174D01*
X101739750Y-128332000D01*
X102227250Y-128332000D01*
X102251142Y-128333174D01*
X102251142Y-128333174D01*
G37*
D12*
G04 #@! TD*
G04 #@! TO.P,C10,1*
G04 #@! TO.N,GND*
X101983500Y-129032000D03*
D11*
G04 #@! TO.N,VDD*
G04 #@! TO.C,C10*
G36*
X100376142Y-128333174D02*
X100399803Y-128336684D01*
X100423007Y-128342496D01*
X100445529Y-128350554D01*
X100467153Y-128360782D01*
X100487670Y-128373079D01*
X100506883Y-128387329D01*
X100524607Y-128403393D01*
X100540671Y-128421117D01*
X100554921Y-128440330D01*
X100567218Y-128460847D01*
X100577446Y-128482471D01*
X100585504Y-128504993D01*
X100591316Y-128528197D01*
X100594826Y-128551858D01*
X100596000Y-128575750D01*
X100596000Y-129488250D01*
X100594826Y-129512142D01*
X100591316Y-129535803D01*
X100585504Y-129559007D01*
X100577446Y-129581529D01*
X100567218Y-129603153D01*
X100554921Y-129623670D01*
X100540671Y-129642883D01*
X100524607Y-129660607D01*
X100506883Y-129676671D01*
X100487670Y-129690921D01*
X100467153Y-129703218D01*
X100445529Y-129713446D01*
X100423007Y-129721504D01*
X100399803Y-129727316D01*
X100376142Y-129730826D01*
X100352250Y-129732000D01*
X99864750Y-129732000D01*
X99840858Y-129730826D01*
X99817197Y-129727316D01*
X99793993Y-129721504D01*
X99771471Y-129713446D01*
X99749847Y-129703218D01*
X99729330Y-129690921D01*
X99710117Y-129676671D01*
X99692393Y-129660607D01*
X99676329Y-129642883D01*
X99662079Y-129623670D01*
X99649782Y-129603153D01*
X99639554Y-129581529D01*
X99631496Y-129559007D01*
X99625684Y-129535803D01*
X99622174Y-129512142D01*
X99621000Y-129488250D01*
X99621000Y-128575750D01*
X99622174Y-128551858D01*
X99625684Y-128528197D01*
X99631496Y-128504993D01*
X99639554Y-128482471D01*
X99649782Y-128460847D01*
X99662079Y-128440330D01*
X99676329Y-128421117D01*
X99692393Y-128403393D01*
X99710117Y-128387329D01*
X99729330Y-128373079D01*
X99749847Y-128360782D01*
X99771471Y-128350554D01*
X99793993Y-128342496D01*
X99817197Y-128336684D01*
X99840858Y-128333174D01*
X99864750Y-128332000D01*
X100352250Y-128332000D01*
X100376142Y-128333174D01*
X100376142Y-128333174D01*
G37*
D12*
G04 #@! TD*
G04 #@! TO.P,C10,2*
G04 #@! TO.N,VDD*
X100108500Y-129032000D03*
D11*
G04 #@! TO.N,VDD*
G04 #@! TO.C,C11*
G36*
X96787642Y-126809174D02*
X96811303Y-126812684D01*
X96834507Y-126818496D01*
X96857029Y-126826554D01*
X96878653Y-126836782D01*
X96899170Y-126849079D01*
X96918383Y-126863329D01*
X96936107Y-126879393D01*
X96952171Y-126897117D01*
X96966421Y-126916330D01*
X96978718Y-126936847D01*
X96988946Y-126958471D01*
X96997004Y-126980993D01*
X97002816Y-127004197D01*
X97006326Y-127027858D01*
X97007500Y-127051750D01*
X97007500Y-127964250D01*
X97006326Y-127988142D01*
X97002816Y-128011803D01*
X96997004Y-128035007D01*
X96988946Y-128057529D01*
X96978718Y-128079153D01*
X96966421Y-128099670D01*
X96952171Y-128118883D01*
X96936107Y-128136607D01*
X96918383Y-128152671D01*
X96899170Y-128166921D01*
X96878653Y-128179218D01*
X96857029Y-128189446D01*
X96834507Y-128197504D01*
X96811303Y-128203316D01*
X96787642Y-128206826D01*
X96763750Y-128208000D01*
X96276250Y-128208000D01*
X96252358Y-128206826D01*
X96228697Y-128203316D01*
X96205493Y-128197504D01*
X96182971Y-128189446D01*
X96161347Y-128179218D01*
X96140830Y-128166921D01*
X96121617Y-128152671D01*
X96103893Y-128136607D01*
X96087829Y-128118883D01*
X96073579Y-128099670D01*
X96061282Y-128079153D01*
X96051054Y-128057529D01*
X96042996Y-128035007D01*
X96037184Y-128011803D01*
X96033674Y-127988142D01*
X96032500Y-127964250D01*
X96032500Y-127051750D01*
X96033674Y-127027858D01*
X96037184Y-127004197D01*
X96042996Y-126980993D01*
X96051054Y-126958471D01*
X96061282Y-126936847D01*
X96073579Y-126916330D01*
X96087829Y-126897117D01*
X96103893Y-126879393D01*
X96121617Y-126863329D01*
X96140830Y-126849079D01*
X96161347Y-126836782D01*
X96182971Y-126826554D01*
X96205493Y-126818496D01*
X96228697Y-126812684D01*
X96252358Y-126809174D01*
X96276250Y-126808000D01*
X96763750Y-126808000D01*
X96787642Y-126809174D01*
X96787642Y-126809174D01*
G37*
D12*
G04 #@! TD*
G04 #@! TO.P,C11,2*
G04 #@! TO.N,VDD*
X96520000Y-127508000D03*
D11*
G04 #@! TO.N,GND*
G04 #@! TO.C,C11*
G36*
X94912642Y-126809174D02*
X94936303Y-126812684D01*
X94959507Y-126818496D01*
X94982029Y-126826554D01*
X95003653Y-126836782D01*
X95024170Y-126849079D01*
X95043383Y-126863329D01*
X95061107Y-126879393D01*
X95077171Y-126897117D01*
X95091421Y-126916330D01*
X95103718Y-126936847D01*
X95113946Y-126958471D01*
X95122004Y-126980993D01*
X95127816Y-127004197D01*
X95131326Y-127027858D01*
X95132500Y-127051750D01*
X95132500Y-127964250D01*
X95131326Y-127988142D01*
X95127816Y-128011803D01*
X95122004Y-128035007D01*
X95113946Y-128057529D01*
X95103718Y-128079153D01*
X95091421Y-128099670D01*
X95077171Y-128118883D01*
X95061107Y-128136607D01*
X95043383Y-128152671D01*
X95024170Y-128166921D01*
X95003653Y-128179218D01*
X94982029Y-128189446D01*
X94959507Y-128197504D01*
X94936303Y-128203316D01*
X94912642Y-128206826D01*
X94888750Y-128208000D01*
X94401250Y-128208000D01*
X94377358Y-128206826D01*
X94353697Y-128203316D01*
X94330493Y-128197504D01*
X94307971Y-128189446D01*
X94286347Y-128179218D01*
X94265830Y-128166921D01*
X94246617Y-128152671D01*
X94228893Y-128136607D01*
X94212829Y-128118883D01*
X94198579Y-128099670D01*
X94186282Y-128079153D01*
X94176054Y-128057529D01*
X94167996Y-128035007D01*
X94162184Y-128011803D01*
X94158674Y-127988142D01*
X94157500Y-127964250D01*
X94157500Y-127051750D01*
X94158674Y-127027858D01*
X94162184Y-127004197D01*
X94167996Y-126980993D01*
X94176054Y-126958471D01*
X94186282Y-126936847D01*
X94198579Y-126916330D01*
X94212829Y-126897117D01*
X94228893Y-126879393D01*
X94246617Y-126863329D01*
X94265830Y-126849079D01*
X94286347Y-126836782D01*
X94307971Y-126826554D01*
X94330493Y-126818496D01*
X94353697Y-126812684D01*
X94377358Y-126809174D01*
X94401250Y-126808000D01*
X94888750Y-126808000D01*
X94912642Y-126809174D01*
X94912642Y-126809174D01*
G37*
D12*
G04 #@! TD*
G04 #@! TO.P,C11,1*
G04 #@! TO.N,GND*
X94645000Y-127508000D03*
D11*
G04 #@! TO.N,Net-(C12-Pad2)*
G04 #@! TO.C,C12*
G36*
X90340642Y-126809174D02*
X90364303Y-126812684D01*
X90387507Y-126818496D01*
X90410029Y-126826554D01*
X90431653Y-126836782D01*
X90452170Y-126849079D01*
X90471383Y-126863329D01*
X90489107Y-126879393D01*
X90505171Y-126897117D01*
X90519421Y-126916330D01*
X90531718Y-126936847D01*
X90541946Y-126958471D01*
X90550004Y-126980993D01*
X90555816Y-127004197D01*
X90559326Y-127027858D01*
X90560500Y-127051750D01*
X90560500Y-127964250D01*
X90559326Y-127988142D01*
X90555816Y-128011803D01*
X90550004Y-128035007D01*
X90541946Y-128057529D01*
X90531718Y-128079153D01*
X90519421Y-128099670D01*
X90505171Y-128118883D01*
X90489107Y-128136607D01*
X90471383Y-128152671D01*
X90452170Y-128166921D01*
X90431653Y-128179218D01*
X90410029Y-128189446D01*
X90387507Y-128197504D01*
X90364303Y-128203316D01*
X90340642Y-128206826D01*
X90316750Y-128208000D01*
X89829250Y-128208000D01*
X89805358Y-128206826D01*
X89781697Y-128203316D01*
X89758493Y-128197504D01*
X89735971Y-128189446D01*
X89714347Y-128179218D01*
X89693830Y-128166921D01*
X89674617Y-128152671D01*
X89656893Y-128136607D01*
X89640829Y-128118883D01*
X89626579Y-128099670D01*
X89614282Y-128079153D01*
X89604054Y-128057529D01*
X89595996Y-128035007D01*
X89590184Y-128011803D01*
X89586674Y-127988142D01*
X89585500Y-127964250D01*
X89585500Y-127051750D01*
X89586674Y-127027858D01*
X89590184Y-127004197D01*
X89595996Y-126980993D01*
X89604054Y-126958471D01*
X89614282Y-126936847D01*
X89626579Y-126916330D01*
X89640829Y-126897117D01*
X89656893Y-126879393D01*
X89674617Y-126863329D01*
X89693830Y-126849079D01*
X89714347Y-126836782D01*
X89735971Y-126826554D01*
X89758493Y-126818496D01*
X89781697Y-126812684D01*
X89805358Y-126809174D01*
X89829250Y-126808000D01*
X90316750Y-126808000D01*
X90340642Y-126809174D01*
X90340642Y-126809174D01*
G37*
D12*
G04 #@! TD*
G04 #@! TO.P,C12,2*
G04 #@! TO.N,Net-(C12-Pad2)*
X90073000Y-127508000D03*
D11*
G04 #@! TO.N,GND*
G04 #@! TO.C,C12*
G36*
X92215642Y-126809174D02*
X92239303Y-126812684D01*
X92262507Y-126818496D01*
X92285029Y-126826554D01*
X92306653Y-126836782D01*
X92327170Y-126849079D01*
X92346383Y-126863329D01*
X92364107Y-126879393D01*
X92380171Y-126897117D01*
X92394421Y-126916330D01*
X92406718Y-126936847D01*
X92416946Y-126958471D01*
X92425004Y-126980993D01*
X92430816Y-127004197D01*
X92434326Y-127027858D01*
X92435500Y-127051750D01*
X92435500Y-127964250D01*
X92434326Y-127988142D01*
X92430816Y-128011803D01*
X92425004Y-128035007D01*
X92416946Y-128057529D01*
X92406718Y-128079153D01*
X92394421Y-128099670D01*
X92380171Y-128118883D01*
X92364107Y-128136607D01*
X92346383Y-128152671D01*
X92327170Y-128166921D01*
X92306653Y-128179218D01*
X92285029Y-128189446D01*
X92262507Y-128197504D01*
X92239303Y-128203316D01*
X92215642Y-128206826D01*
X92191750Y-128208000D01*
X91704250Y-128208000D01*
X91680358Y-128206826D01*
X91656697Y-128203316D01*
X91633493Y-128197504D01*
X91610971Y-128189446D01*
X91589347Y-128179218D01*
X91568830Y-128166921D01*
X91549617Y-128152671D01*
X91531893Y-128136607D01*
X91515829Y-128118883D01*
X91501579Y-128099670D01*
X91489282Y-128079153D01*
X91479054Y-128057529D01*
X91470996Y-128035007D01*
X91465184Y-128011803D01*
X91461674Y-127988142D01*
X91460500Y-127964250D01*
X91460500Y-127051750D01*
X91461674Y-127027858D01*
X91465184Y-127004197D01*
X91470996Y-126980993D01*
X91479054Y-126958471D01*
X91489282Y-126936847D01*
X91501579Y-126916330D01*
X91515829Y-126897117D01*
X91531893Y-126879393D01*
X91549617Y-126863329D01*
X91568830Y-126849079D01*
X91589347Y-126836782D01*
X91610971Y-126826554D01*
X91633493Y-126818496D01*
X91656697Y-126812684D01*
X91680358Y-126809174D01*
X91704250Y-126808000D01*
X92191750Y-126808000D01*
X92215642Y-126809174D01*
X92215642Y-126809174D01*
G37*
D12*
G04 #@! TD*
G04 #@! TO.P,C12,1*
G04 #@! TO.N,GND*
X91948000Y-127508000D03*
D11*
G04 #@! TO.N,GND*
G04 #@! TO.C,C13*
G36*
X87292642Y-135445174D02*
X87316303Y-135448684D01*
X87339507Y-135454496D01*
X87362029Y-135462554D01*
X87383653Y-135472782D01*
X87404170Y-135485079D01*
X87423383Y-135499329D01*
X87441107Y-135515393D01*
X87457171Y-135533117D01*
X87471421Y-135552330D01*
X87483718Y-135572847D01*
X87493946Y-135594471D01*
X87502004Y-135616993D01*
X87507816Y-135640197D01*
X87511326Y-135663858D01*
X87512500Y-135687750D01*
X87512500Y-136600250D01*
X87511326Y-136624142D01*
X87507816Y-136647803D01*
X87502004Y-136671007D01*
X87493946Y-136693529D01*
X87483718Y-136715153D01*
X87471421Y-136735670D01*
X87457171Y-136754883D01*
X87441107Y-136772607D01*
X87423383Y-136788671D01*
X87404170Y-136802921D01*
X87383653Y-136815218D01*
X87362029Y-136825446D01*
X87339507Y-136833504D01*
X87316303Y-136839316D01*
X87292642Y-136842826D01*
X87268750Y-136844000D01*
X86781250Y-136844000D01*
X86757358Y-136842826D01*
X86733697Y-136839316D01*
X86710493Y-136833504D01*
X86687971Y-136825446D01*
X86666347Y-136815218D01*
X86645830Y-136802921D01*
X86626617Y-136788671D01*
X86608893Y-136772607D01*
X86592829Y-136754883D01*
X86578579Y-136735670D01*
X86566282Y-136715153D01*
X86556054Y-136693529D01*
X86547996Y-136671007D01*
X86542184Y-136647803D01*
X86538674Y-136624142D01*
X86537500Y-136600250D01*
X86537500Y-135687750D01*
X86538674Y-135663858D01*
X86542184Y-135640197D01*
X86547996Y-135616993D01*
X86556054Y-135594471D01*
X86566282Y-135572847D01*
X86578579Y-135552330D01*
X86592829Y-135533117D01*
X86608893Y-135515393D01*
X86626617Y-135499329D01*
X86645830Y-135485079D01*
X86666347Y-135472782D01*
X86687971Y-135462554D01*
X86710493Y-135454496D01*
X86733697Y-135448684D01*
X86757358Y-135445174D01*
X86781250Y-135444000D01*
X87268750Y-135444000D01*
X87292642Y-135445174D01*
X87292642Y-135445174D01*
G37*
D12*
G04 #@! TD*
G04 #@! TO.P,C13,1*
G04 #@! TO.N,GND*
X87025000Y-136144000D03*
D11*
G04 #@! TO.N,Net-(C13-Pad2)*
G04 #@! TO.C,C13*
G36*
X89167642Y-135445174D02*
X89191303Y-135448684D01*
X89214507Y-135454496D01*
X89237029Y-135462554D01*
X89258653Y-135472782D01*
X89279170Y-135485079D01*
X89298383Y-135499329D01*
X89316107Y-135515393D01*
X89332171Y-135533117D01*
X89346421Y-135552330D01*
X89358718Y-135572847D01*
X89368946Y-135594471D01*
X89377004Y-135616993D01*
X89382816Y-135640197D01*
X89386326Y-135663858D01*
X89387500Y-135687750D01*
X89387500Y-136600250D01*
X89386326Y-136624142D01*
X89382816Y-136647803D01*
X89377004Y-136671007D01*
X89368946Y-136693529D01*
X89358718Y-136715153D01*
X89346421Y-136735670D01*
X89332171Y-136754883D01*
X89316107Y-136772607D01*
X89298383Y-136788671D01*
X89279170Y-136802921D01*
X89258653Y-136815218D01*
X89237029Y-136825446D01*
X89214507Y-136833504D01*
X89191303Y-136839316D01*
X89167642Y-136842826D01*
X89143750Y-136844000D01*
X88656250Y-136844000D01*
X88632358Y-136842826D01*
X88608697Y-136839316D01*
X88585493Y-136833504D01*
X88562971Y-136825446D01*
X88541347Y-136815218D01*
X88520830Y-136802921D01*
X88501617Y-136788671D01*
X88483893Y-136772607D01*
X88467829Y-136754883D01*
X88453579Y-136735670D01*
X88441282Y-136715153D01*
X88431054Y-136693529D01*
X88422996Y-136671007D01*
X88417184Y-136647803D01*
X88413674Y-136624142D01*
X88412500Y-136600250D01*
X88412500Y-135687750D01*
X88413674Y-135663858D01*
X88417184Y-135640197D01*
X88422996Y-135616993D01*
X88431054Y-135594471D01*
X88441282Y-135572847D01*
X88453579Y-135552330D01*
X88467829Y-135533117D01*
X88483893Y-135515393D01*
X88501617Y-135499329D01*
X88520830Y-135485079D01*
X88541347Y-135472782D01*
X88562971Y-135462554D01*
X88585493Y-135454496D01*
X88608697Y-135448684D01*
X88632358Y-135445174D01*
X88656250Y-135444000D01*
X89143750Y-135444000D01*
X89167642Y-135445174D01*
X89167642Y-135445174D01*
G37*
D12*
G04 #@! TD*
G04 #@! TO.P,C13,2*
G04 #@! TO.N,Net-(C13-Pad2)*
X88900000Y-136144000D03*
D11*
G04 #@! TO.N,GND*
G04 #@! TO.C,C14*
G36*
X95106642Y-132397174D02*
X95130303Y-132400684D01*
X95153507Y-132406496D01*
X95176029Y-132414554D01*
X95197653Y-132424782D01*
X95218170Y-132437079D01*
X95237383Y-132451329D01*
X95255107Y-132467393D01*
X95271171Y-132485117D01*
X95285421Y-132504330D01*
X95297718Y-132524847D01*
X95307946Y-132546471D01*
X95316004Y-132568993D01*
X95321816Y-132592197D01*
X95325326Y-132615858D01*
X95326500Y-132639750D01*
X95326500Y-133552250D01*
X95325326Y-133576142D01*
X95321816Y-133599803D01*
X95316004Y-133623007D01*
X95307946Y-133645529D01*
X95297718Y-133667153D01*
X95285421Y-133687670D01*
X95271171Y-133706883D01*
X95255107Y-133724607D01*
X95237383Y-133740671D01*
X95218170Y-133754921D01*
X95197653Y-133767218D01*
X95176029Y-133777446D01*
X95153507Y-133785504D01*
X95130303Y-133791316D01*
X95106642Y-133794826D01*
X95082750Y-133796000D01*
X94595250Y-133796000D01*
X94571358Y-133794826D01*
X94547697Y-133791316D01*
X94524493Y-133785504D01*
X94501971Y-133777446D01*
X94480347Y-133767218D01*
X94459830Y-133754921D01*
X94440617Y-133740671D01*
X94422893Y-133724607D01*
X94406829Y-133706883D01*
X94392579Y-133687670D01*
X94380282Y-133667153D01*
X94370054Y-133645529D01*
X94361996Y-133623007D01*
X94356184Y-133599803D01*
X94352674Y-133576142D01*
X94351500Y-133552250D01*
X94351500Y-132639750D01*
X94352674Y-132615858D01*
X94356184Y-132592197D01*
X94361996Y-132568993D01*
X94370054Y-132546471D01*
X94380282Y-132524847D01*
X94392579Y-132504330D01*
X94406829Y-132485117D01*
X94422893Y-132467393D01*
X94440617Y-132451329D01*
X94459830Y-132437079D01*
X94480347Y-132424782D01*
X94501971Y-132414554D01*
X94524493Y-132406496D01*
X94547697Y-132400684D01*
X94571358Y-132397174D01*
X94595250Y-132396000D01*
X95082750Y-132396000D01*
X95106642Y-132397174D01*
X95106642Y-132397174D01*
G37*
D12*
G04 #@! TD*
G04 #@! TO.P,C14,1*
G04 #@! TO.N,GND*
X94839000Y-133096000D03*
D11*
G04 #@! TO.N,+5V*
G04 #@! TO.C,C14*
G36*
X93231642Y-132397174D02*
X93255303Y-132400684D01*
X93278507Y-132406496D01*
X93301029Y-132414554D01*
X93322653Y-132424782D01*
X93343170Y-132437079D01*
X93362383Y-132451329D01*
X93380107Y-132467393D01*
X93396171Y-132485117D01*
X93410421Y-132504330D01*
X93422718Y-132524847D01*
X93432946Y-132546471D01*
X93441004Y-132568993D01*
X93446816Y-132592197D01*
X93450326Y-132615858D01*
X93451500Y-132639750D01*
X93451500Y-133552250D01*
X93450326Y-133576142D01*
X93446816Y-133599803D01*
X93441004Y-133623007D01*
X93432946Y-133645529D01*
X93422718Y-133667153D01*
X93410421Y-133687670D01*
X93396171Y-133706883D01*
X93380107Y-133724607D01*
X93362383Y-133740671D01*
X93343170Y-133754921D01*
X93322653Y-133767218D01*
X93301029Y-133777446D01*
X93278507Y-133785504D01*
X93255303Y-133791316D01*
X93231642Y-133794826D01*
X93207750Y-133796000D01*
X92720250Y-133796000D01*
X92696358Y-133794826D01*
X92672697Y-133791316D01*
X92649493Y-133785504D01*
X92626971Y-133777446D01*
X92605347Y-133767218D01*
X92584830Y-133754921D01*
X92565617Y-133740671D01*
X92547893Y-133724607D01*
X92531829Y-133706883D01*
X92517579Y-133687670D01*
X92505282Y-133667153D01*
X92495054Y-133645529D01*
X92486996Y-133623007D01*
X92481184Y-133599803D01*
X92477674Y-133576142D01*
X92476500Y-133552250D01*
X92476500Y-132639750D01*
X92477674Y-132615858D01*
X92481184Y-132592197D01*
X92486996Y-132568993D01*
X92495054Y-132546471D01*
X92505282Y-132524847D01*
X92517579Y-132504330D01*
X92531829Y-132485117D01*
X92547893Y-132467393D01*
X92565617Y-132451329D01*
X92584830Y-132437079D01*
X92605347Y-132424782D01*
X92626971Y-132414554D01*
X92649493Y-132406496D01*
X92672697Y-132400684D01*
X92696358Y-132397174D01*
X92720250Y-132396000D01*
X93207750Y-132396000D01*
X93231642Y-132397174D01*
X93231642Y-132397174D01*
G37*
D12*
G04 #@! TD*
G04 #@! TO.P,C14,2*
G04 #@! TO.N,+5V*
X92964000Y-133096000D03*
D11*
G04 #@! TO.N,GAIN*
G04 #@! TO.C,CG1*
G36*
X98244742Y-143400074D02*
X98268403Y-143403584D01*
X98291607Y-143409396D01*
X98314129Y-143417454D01*
X98335753Y-143427682D01*
X98356270Y-143439979D01*
X98375483Y-143454229D01*
X98393207Y-143470293D01*
X98409271Y-143488017D01*
X98423521Y-143507230D01*
X98435818Y-143527747D01*
X98446046Y-143549371D01*
X98454104Y-143571893D01*
X98459916Y-143595097D01*
X98463426Y-143618758D01*
X98464600Y-143642650D01*
X98464600Y-144130150D01*
X98463426Y-144154042D01*
X98459916Y-144177703D01*
X98454104Y-144200907D01*
X98446046Y-144223429D01*
X98435818Y-144245053D01*
X98423521Y-144265570D01*
X98409271Y-144284783D01*
X98393207Y-144302507D01*
X98375483Y-144318571D01*
X98356270Y-144332821D01*
X98335753Y-144345118D01*
X98314129Y-144355346D01*
X98291607Y-144363404D01*
X98268403Y-144369216D01*
X98244742Y-144372726D01*
X98220850Y-144373900D01*
X97308350Y-144373900D01*
X97284458Y-144372726D01*
X97260797Y-144369216D01*
X97237593Y-144363404D01*
X97215071Y-144355346D01*
X97193447Y-144345118D01*
X97172930Y-144332821D01*
X97153717Y-144318571D01*
X97135993Y-144302507D01*
X97119929Y-144284783D01*
X97105679Y-144265570D01*
X97093382Y-144245053D01*
X97083154Y-144223429D01*
X97075096Y-144200907D01*
X97069284Y-144177703D01*
X97065774Y-144154042D01*
X97064600Y-144130150D01*
X97064600Y-143642650D01*
X97065774Y-143618758D01*
X97069284Y-143595097D01*
X97075096Y-143571893D01*
X97083154Y-143549371D01*
X97093382Y-143527747D01*
X97105679Y-143507230D01*
X97119929Y-143488017D01*
X97135993Y-143470293D01*
X97153717Y-143454229D01*
X97172930Y-143439979D01*
X97193447Y-143427682D01*
X97215071Y-143417454D01*
X97237593Y-143409396D01*
X97260797Y-143403584D01*
X97284458Y-143400074D01*
X97308350Y-143398900D01*
X98220850Y-143398900D01*
X98244742Y-143400074D01*
X98244742Y-143400074D01*
G37*
D12*
G04 #@! TD*
G04 #@! TO.P,CG1,2*
G04 #@! TO.N,GAIN*
X97764600Y-143886400D03*
D11*
G04 #@! TO.N,GND*
G04 #@! TO.C,CG1*
G36*
X98244742Y-141525074D02*
X98268403Y-141528584D01*
X98291607Y-141534396D01*
X98314129Y-141542454D01*
X98335753Y-141552682D01*
X98356270Y-141564979D01*
X98375483Y-141579229D01*
X98393207Y-141595293D01*
X98409271Y-141613017D01*
X98423521Y-141632230D01*
X98435818Y-141652747D01*
X98446046Y-141674371D01*
X98454104Y-141696893D01*
X98459916Y-141720097D01*
X98463426Y-141743758D01*
X98464600Y-141767650D01*
X98464600Y-142255150D01*
X98463426Y-142279042D01*
X98459916Y-142302703D01*
X98454104Y-142325907D01*
X98446046Y-142348429D01*
X98435818Y-142370053D01*
X98423521Y-142390570D01*
X98409271Y-142409783D01*
X98393207Y-142427507D01*
X98375483Y-142443571D01*
X98356270Y-142457821D01*
X98335753Y-142470118D01*
X98314129Y-142480346D01*
X98291607Y-142488404D01*
X98268403Y-142494216D01*
X98244742Y-142497726D01*
X98220850Y-142498900D01*
X97308350Y-142498900D01*
X97284458Y-142497726D01*
X97260797Y-142494216D01*
X97237593Y-142488404D01*
X97215071Y-142480346D01*
X97193447Y-142470118D01*
X97172930Y-142457821D01*
X97153717Y-142443571D01*
X97135993Y-142427507D01*
X97119929Y-142409783D01*
X97105679Y-142390570D01*
X97093382Y-142370053D01*
X97083154Y-142348429D01*
X97075096Y-142325907D01*
X97069284Y-142302703D01*
X97065774Y-142279042D01*
X97064600Y-142255150D01*
X97064600Y-141767650D01*
X97065774Y-141743758D01*
X97069284Y-141720097D01*
X97075096Y-141696893D01*
X97083154Y-141674371D01*
X97093382Y-141652747D01*
X97105679Y-141632230D01*
X97119929Y-141613017D01*
X97135993Y-141595293D01*
X97153717Y-141579229D01*
X97172930Y-141564979D01*
X97193447Y-141552682D01*
X97215071Y-141542454D01*
X97237593Y-141534396D01*
X97260797Y-141528584D01*
X97284458Y-141525074D01*
X97308350Y-141523900D01*
X98220850Y-141523900D01*
X98244742Y-141525074D01*
X98244742Y-141525074D01*
G37*
D12*
G04 #@! TD*
G04 #@! TO.P,CG1,1*
G04 #@! TO.N,GND*
X97764600Y-142011400D03*
D13*
G04 #@! TO.P,J1,1*
G04 #@! TO.N,Net-(C6-Pad2)*
X78740000Y-143764000D03*
D14*
G04 #@! TO.P,J1,2*
G04 #@! TO.N,GND*
X75610000Y-140634000D03*
G04 #@! TO.P,J1,3*
X81870000Y-140634000D03*
G04 #@! TO.P,J1,4*
X81870000Y-146894000D03*
G04 #@! TO.P,J1,5*
X75610000Y-146894000D03*
G04 #@! TD*
G04 #@! TO.P,J2,5*
G04 #@! TO.N,GND*
X81870000Y-128442000D03*
G04 #@! TO.P,J2,4*
X75610000Y-128442000D03*
G04 #@! TO.P,J2,3*
X75610000Y-134702000D03*
G04 #@! TO.P,J2,2*
X81870000Y-134702000D03*
D13*
G04 #@! TO.P,J2,1*
G04 #@! TO.N,Net-(J2-Pad1)*
X78740000Y-131572000D03*
G04 #@! TD*
D15*
G04 #@! TO.P,GND,1*
G04 #@! TO.N,GND*
X84836000Y-127508000D03*
G04 #@! TD*
G04 #@! TO.P,VDD,1*
G04 #@! TO.N,VDD*
X87777702Y-127508000D03*
G04 #@! TD*
G04 #@! TO.P,~SYNC,1*
G04 #@! TO.N,Net-(J5-Pad1)*
X101092000Y-147320000D03*
G04 #@! TD*
G04 #@! TO.P,SCLK,1*
G04 #@! TO.N,Net-(J6-Pad1)*
X105156000Y-147320000D03*
G04 #@! TD*
G04 #@! TO.P,Din,1*
G04 #@! TO.N,Net-(J7-Pad1)*
X108712000Y-147320000D03*
G04 #@! TD*
D11*
G04 #@! TO.N,+5V*
G04 #@! TO.C,L1*
G36*
X96127242Y-137121574D02*
X96150903Y-137125084D01*
X96174107Y-137130896D01*
X96196629Y-137138954D01*
X96218253Y-137149182D01*
X96238770Y-137161479D01*
X96257983Y-137175729D01*
X96275707Y-137191793D01*
X96291771Y-137209517D01*
X96306021Y-137228730D01*
X96318318Y-137249247D01*
X96328546Y-137270871D01*
X96336604Y-137293393D01*
X96342416Y-137316597D01*
X96345926Y-137340258D01*
X96347100Y-137364150D01*
X96347100Y-138276650D01*
X96345926Y-138300542D01*
X96342416Y-138324203D01*
X96336604Y-138347407D01*
X96328546Y-138369929D01*
X96318318Y-138391553D01*
X96306021Y-138412070D01*
X96291771Y-138431283D01*
X96275707Y-138449007D01*
X96257983Y-138465071D01*
X96238770Y-138479321D01*
X96218253Y-138491618D01*
X96196629Y-138501846D01*
X96174107Y-138509904D01*
X96150903Y-138515716D01*
X96127242Y-138519226D01*
X96103350Y-138520400D01*
X95615850Y-138520400D01*
X95591958Y-138519226D01*
X95568297Y-138515716D01*
X95545093Y-138509904D01*
X95522571Y-138501846D01*
X95500947Y-138491618D01*
X95480430Y-138479321D01*
X95461217Y-138465071D01*
X95443493Y-138449007D01*
X95427429Y-138431283D01*
X95413179Y-138412070D01*
X95400882Y-138391553D01*
X95390654Y-138369929D01*
X95382596Y-138347407D01*
X95376784Y-138324203D01*
X95373274Y-138300542D01*
X95372100Y-138276650D01*
X95372100Y-137364150D01*
X95373274Y-137340258D01*
X95376784Y-137316597D01*
X95382596Y-137293393D01*
X95390654Y-137270871D01*
X95400882Y-137249247D01*
X95413179Y-137228730D01*
X95427429Y-137209517D01*
X95443493Y-137191793D01*
X95461217Y-137175729D01*
X95480430Y-137161479D01*
X95500947Y-137149182D01*
X95522571Y-137138954D01*
X95545093Y-137130896D01*
X95568297Y-137125084D01*
X95591958Y-137121574D01*
X95615850Y-137120400D01*
X96103350Y-137120400D01*
X96127242Y-137121574D01*
X96127242Y-137121574D01*
G37*
D12*
G04 #@! TD*
G04 #@! TO.P,L1,1*
G04 #@! TO.N,+5V*
X95859600Y-137820400D03*
D11*
G04 #@! TO.N,Net-(C3-Pad1)*
G04 #@! TO.C,L1*
G36*
X94252242Y-137121574D02*
X94275903Y-137125084D01*
X94299107Y-137130896D01*
X94321629Y-137138954D01*
X94343253Y-137149182D01*
X94363770Y-137161479D01*
X94382983Y-137175729D01*
X94400707Y-137191793D01*
X94416771Y-137209517D01*
X94431021Y-137228730D01*
X94443318Y-137249247D01*
X94453546Y-137270871D01*
X94461604Y-137293393D01*
X94467416Y-137316597D01*
X94470926Y-137340258D01*
X94472100Y-137364150D01*
X94472100Y-138276650D01*
X94470926Y-138300542D01*
X94467416Y-138324203D01*
X94461604Y-138347407D01*
X94453546Y-138369929D01*
X94443318Y-138391553D01*
X94431021Y-138412070D01*
X94416771Y-138431283D01*
X94400707Y-138449007D01*
X94382983Y-138465071D01*
X94363770Y-138479321D01*
X94343253Y-138491618D01*
X94321629Y-138501846D01*
X94299107Y-138509904D01*
X94275903Y-138515716D01*
X94252242Y-138519226D01*
X94228350Y-138520400D01*
X93740850Y-138520400D01*
X93716958Y-138519226D01*
X93693297Y-138515716D01*
X93670093Y-138509904D01*
X93647571Y-138501846D01*
X93625947Y-138491618D01*
X93605430Y-138479321D01*
X93586217Y-138465071D01*
X93568493Y-138449007D01*
X93552429Y-138431283D01*
X93538179Y-138412070D01*
X93525882Y-138391553D01*
X93515654Y-138369929D01*
X93507596Y-138347407D01*
X93501784Y-138324203D01*
X93498274Y-138300542D01*
X93497100Y-138276650D01*
X93497100Y-137364150D01*
X93498274Y-137340258D01*
X93501784Y-137316597D01*
X93507596Y-137293393D01*
X93515654Y-137270871D01*
X93525882Y-137249247D01*
X93538179Y-137228730D01*
X93552429Y-137209517D01*
X93568493Y-137191793D01*
X93586217Y-137175729D01*
X93605430Y-137161479D01*
X93625947Y-137149182D01*
X93647571Y-137138954D01*
X93670093Y-137130896D01*
X93693297Y-137125084D01*
X93716958Y-137121574D01*
X93740850Y-137120400D01*
X94228350Y-137120400D01*
X94252242Y-137121574D01*
X94252242Y-137121574D01*
G37*
D12*
G04 #@! TD*
G04 #@! TO.P,L1,2*
G04 #@! TO.N,Net-(C3-Pad1)*
X93984600Y-137820400D03*
D11*
G04 #@! TO.N,VCOM*
G04 #@! TO.C,R1*
G36*
X89190742Y-141210974D02*
X89214403Y-141214484D01*
X89237607Y-141220296D01*
X89260129Y-141228354D01*
X89281753Y-141238582D01*
X89302270Y-141250879D01*
X89321483Y-141265129D01*
X89339207Y-141281193D01*
X89355271Y-141298917D01*
X89369521Y-141318130D01*
X89381818Y-141338647D01*
X89392046Y-141360271D01*
X89400104Y-141382793D01*
X89405916Y-141405997D01*
X89409426Y-141429658D01*
X89410600Y-141453550D01*
X89410600Y-142366050D01*
X89409426Y-142389942D01*
X89405916Y-142413603D01*
X89400104Y-142436807D01*
X89392046Y-142459329D01*
X89381818Y-142480953D01*
X89369521Y-142501470D01*
X89355271Y-142520683D01*
X89339207Y-142538407D01*
X89321483Y-142554471D01*
X89302270Y-142568721D01*
X89281753Y-142581018D01*
X89260129Y-142591246D01*
X89237607Y-142599304D01*
X89214403Y-142605116D01*
X89190742Y-142608626D01*
X89166850Y-142609800D01*
X88679350Y-142609800D01*
X88655458Y-142608626D01*
X88631797Y-142605116D01*
X88608593Y-142599304D01*
X88586071Y-142591246D01*
X88564447Y-142581018D01*
X88543930Y-142568721D01*
X88524717Y-142554471D01*
X88506993Y-142538407D01*
X88490929Y-142520683D01*
X88476679Y-142501470D01*
X88464382Y-142480953D01*
X88454154Y-142459329D01*
X88446096Y-142436807D01*
X88440284Y-142413603D01*
X88436774Y-142389942D01*
X88435600Y-142366050D01*
X88435600Y-141453550D01*
X88436774Y-141429658D01*
X88440284Y-141405997D01*
X88446096Y-141382793D01*
X88454154Y-141360271D01*
X88464382Y-141338647D01*
X88476679Y-141318130D01*
X88490929Y-141298917D01*
X88506993Y-141281193D01*
X88524717Y-141265129D01*
X88543930Y-141250879D01*
X88564447Y-141238582D01*
X88586071Y-141228354D01*
X88608593Y-141220296D01*
X88631797Y-141214484D01*
X88655458Y-141210974D01*
X88679350Y-141209800D01*
X89166850Y-141209800D01*
X89190742Y-141210974D01*
X89190742Y-141210974D01*
G37*
D12*
G04 #@! TD*
G04 #@! TO.P,R1,2*
G04 #@! TO.N,VCOM*
X88923100Y-141909800D03*
D11*
G04 #@! TO.N,Net-(C6-Pad1)*
G04 #@! TO.C,R1*
G36*
X87315742Y-141210974D02*
X87339403Y-141214484D01*
X87362607Y-141220296D01*
X87385129Y-141228354D01*
X87406753Y-141238582D01*
X87427270Y-141250879D01*
X87446483Y-141265129D01*
X87464207Y-141281193D01*
X87480271Y-141298917D01*
X87494521Y-141318130D01*
X87506818Y-141338647D01*
X87517046Y-141360271D01*
X87525104Y-141382793D01*
X87530916Y-141405997D01*
X87534426Y-141429658D01*
X87535600Y-141453550D01*
X87535600Y-142366050D01*
X87534426Y-142389942D01*
X87530916Y-142413603D01*
X87525104Y-142436807D01*
X87517046Y-142459329D01*
X87506818Y-142480953D01*
X87494521Y-142501470D01*
X87480271Y-142520683D01*
X87464207Y-142538407D01*
X87446483Y-142554471D01*
X87427270Y-142568721D01*
X87406753Y-142581018D01*
X87385129Y-142591246D01*
X87362607Y-142599304D01*
X87339403Y-142605116D01*
X87315742Y-142608626D01*
X87291850Y-142609800D01*
X86804350Y-142609800D01*
X86780458Y-142608626D01*
X86756797Y-142605116D01*
X86733593Y-142599304D01*
X86711071Y-142591246D01*
X86689447Y-142581018D01*
X86668930Y-142568721D01*
X86649717Y-142554471D01*
X86631993Y-142538407D01*
X86615929Y-142520683D01*
X86601679Y-142501470D01*
X86589382Y-142480953D01*
X86579154Y-142459329D01*
X86571096Y-142436807D01*
X86565284Y-142413603D01*
X86561774Y-142389942D01*
X86560600Y-142366050D01*
X86560600Y-141453550D01*
X86561774Y-141429658D01*
X86565284Y-141405997D01*
X86571096Y-141382793D01*
X86579154Y-141360271D01*
X86589382Y-141338647D01*
X86601679Y-141318130D01*
X86615929Y-141298917D01*
X86631993Y-141281193D01*
X86649717Y-141265129D01*
X86668930Y-141250879D01*
X86689447Y-141238582D01*
X86711071Y-141228354D01*
X86733593Y-141220296D01*
X86756797Y-141214484D01*
X86780458Y-141210974D01*
X86804350Y-141209800D01*
X87291850Y-141209800D01*
X87315742Y-141210974D01*
X87315742Y-141210974D01*
G37*
D12*
G04 #@! TD*
G04 #@! TO.P,R1,1*
G04 #@! TO.N,Net-(C6-Pad1)*
X87048100Y-141909800D03*
D11*
G04 #@! TO.N,Net-(R2-Pad1)*
G04 #@! TO.C,R2*
G36*
X103096142Y-139564674D02*
X103119803Y-139568184D01*
X103143007Y-139573996D01*
X103165529Y-139582054D01*
X103187153Y-139592282D01*
X103207670Y-139604579D01*
X103226883Y-139618829D01*
X103244607Y-139634893D01*
X103260671Y-139652617D01*
X103274921Y-139671830D01*
X103287218Y-139692347D01*
X103297446Y-139713971D01*
X103305504Y-139736493D01*
X103311316Y-139759697D01*
X103314826Y-139783358D01*
X103316000Y-139807250D01*
X103316000Y-140294750D01*
X103314826Y-140318642D01*
X103311316Y-140342303D01*
X103305504Y-140365507D01*
X103297446Y-140388029D01*
X103287218Y-140409653D01*
X103274921Y-140430170D01*
X103260671Y-140449383D01*
X103244607Y-140467107D01*
X103226883Y-140483171D01*
X103207670Y-140497421D01*
X103187153Y-140509718D01*
X103165529Y-140519946D01*
X103143007Y-140528004D01*
X103119803Y-140533816D01*
X103096142Y-140537326D01*
X103072250Y-140538500D01*
X102159750Y-140538500D01*
X102135858Y-140537326D01*
X102112197Y-140533816D01*
X102088993Y-140528004D01*
X102066471Y-140519946D01*
X102044847Y-140509718D01*
X102024330Y-140497421D01*
X102005117Y-140483171D01*
X101987393Y-140467107D01*
X101971329Y-140449383D01*
X101957079Y-140430170D01*
X101944782Y-140409653D01*
X101934554Y-140388029D01*
X101926496Y-140365507D01*
X101920684Y-140342303D01*
X101917174Y-140318642D01*
X101916000Y-140294750D01*
X101916000Y-139807250D01*
X101917174Y-139783358D01*
X101920684Y-139759697D01*
X101926496Y-139736493D01*
X101934554Y-139713971D01*
X101944782Y-139692347D01*
X101957079Y-139671830D01*
X101971329Y-139652617D01*
X101987393Y-139634893D01*
X102005117Y-139618829D01*
X102024330Y-139604579D01*
X102044847Y-139592282D01*
X102066471Y-139582054D01*
X102088993Y-139573996D01*
X102112197Y-139568184D01*
X102135858Y-139564674D01*
X102159750Y-139563500D01*
X103072250Y-139563500D01*
X103096142Y-139564674D01*
X103096142Y-139564674D01*
G37*
D12*
G04 #@! TD*
G04 #@! TO.P,R2,1*
G04 #@! TO.N,Net-(R2-Pad1)*
X102616000Y-140051000D03*
D11*
G04 #@! TO.N,VCOM*
G04 #@! TO.C,R2*
G36*
X103096142Y-137689674D02*
X103119803Y-137693184D01*
X103143007Y-137698996D01*
X103165529Y-137707054D01*
X103187153Y-137717282D01*
X103207670Y-137729579D01*
X103226883Y-137743829D01*
X103244607Y-137759893D01*
X103260671Y-137777617D01*
X103274921Y-137796830D01*
X103287218Y-137817347D01*
X103297446Y-137838971D01*
X103305504Y-137861493D01*
X103311316Y-137884697D01*
X103314826Y-137908358D01*
X103316000Y-137932250D01*
X103316000Y-138419750D01*
X103314826Y-138443642D01*
X103311316Y-138467303D01*
X103305504Y-138490507D01*
X103297446Y-138513029D01*
X103287218Y-138534653D01*
X103274921Y-138555170D01*
X103260671Y-138574383D01*
X103244607Y-138592107D01*
X103226883Y-138608171D01*
X103207670Y-138622421D01*
X103187153Y-138634718D01*
X103165529Y-138644946D01*
X103143007Y-138653004D01*
X103119803Y-138658816D01*
X103096142Y-138662326D01*
X103072250Y-138663500D01*
X102159750Y-138663500D01*
X102135858Y-138662326D01*
X102112197Y-138658816D01*
X102088993Y-138653004D01*
X102066471Y-138644946D01*
X102044847Y-138634718D01*
X102024330Y-138622421D01*
X102005117Y-138608171D01*
X101987393Y-138592107D01*
X101971329Y-138574383D01*
X101957079Y-138555170D01*
X101944782Y-138534653D01*
X101934554Y-138513029D01*
X101926496Y-138490507D01*
X101920684Y-138467303D01*
X101917174Y-138443642D01*
X101916000Y-138419750D01*
X101916000Y-137932250D01*
X101917174Y-137908358D01*
X101920684Y-137884697D01*
X101926496Y-137861493D01*
X101934554Y-137838971D01*
X101944782Y-137817347D01*
X101957079Y-137796830D01*
X101971329Y-137777617D01*
X101987393Y-137759893D01*
X102005117Y-137743829D01*
X102024330Y-137729579D01*
X102044847Y-137717282D01*
X102066471Y-137707054D01*
X102088993Y-137698996D01*
X102112197Y-137693184D01*
X102135858Y-137689674D01*
X102159750Y-137688500D01*
X103072250Y-137688500D01*
X103096142Y-137689674D01*
X103096142Y-137689674D01*
G37*
D12*
G04 #@! TD*
G04 #@! TO.P,R2,2*
G04 #@! TO.N,VCOM*
X102616000Y-138176000D03*
D11*
G04 #@! TO.N,VCOM*
G04 #@! TO.C,R3*
G36*
X91412142Y-137181674D02*
X91435803Y-137185184D01*
X91459007Y-137190996D01*
X91481529Y-137199054D01*
X91503153Y-137209282D01*
X91523670Y-137221579D01*
X91542883Y-137235829D01*
X91560607Y-137251893D01*
X91576671Y-137269617D01*
X91590921Y-137288830D01*
X91603218Y-137309347D01*
X91613446Y-137330971D01*
X91621504Y-137353493D01*
X91627316Y-137376697D01*
X91630826Y-137400358D01*
X91632000Y-137424250D01*
X91632000Y-137911750D01*
X91630826Y-137935642D01*
X91627316Y-137959303D01*
X91621504Y-137982507D01*
X91613446Y-138005029D01*
X91603218Y-138026653D01*
X91590921Y-138047170D01*
X91576671Y-138066383D01*
X91560607Y-138084107D01*
X91542883Y-138100171D01*
X91523670Y-138114421D01*
X91503153Y-138126718D01*
X91481529Y-138136946D01*
X91459007Y-138145004D01*
X91435803Y-138150816D01*
X91412142Y-138154326D01*
X91388250Y-138155500D01*
X90475750Y-138155500D01*
X90451858Y-138154326D01*
X90428197Y-138150816D01*
X90404993Y-138145004D01*
X90382471Y-138136946D01*
X90360847Y-138126718D01*
X90340330Y-138114421D01*
X90321117Y-138100171D01*
X90303393Y-138084107D01*
X90287329Y-138066383D01*
X90273079Y-138047170D01*
X90260782Y-138026653D01*
X90250554Y-138005029D01*
X90242496Y-137982507D01*
X90236684Y-137959303D01*
X90233174Y-137935642D01*
X90232000Y-137911750D01*
X90232000Y-137424250D01*
X90233174Y-137400358D01*
X90236684Y-137376697D01*
X90242496Y-137353493D01*
X90250554Y-137330971D01*
X90260782Y-137309347D01*
X90273079Y-137288830D01*
X90287329Y-137269617D01*
X90303393Y-137251893D01*
X90321117Y-137235829D01*
X90340330Y-137221579D01*
X90360847Y-137209282D01*
X90382471Y-137199054D01*
X90404993Y-137190996D01*
X90428197Y-137185184D01*
X90451858Y-137181674D01*
X90475750Y-137180500D01*
X91388250Y-137180500D01*
X91412142Y-137181674D01*
X91412142Y-137181674D01*
G37*
D12*
G04 #@! TD*
G04 #@! TO.P,R3,2*
G04 #@! TO.N,VCOM*
X90932000Y-137668000D03*
D11*
G04 #@! TO.N,Net-(C13-Pad2)*
G04 #@! TO.C,R3*
G36*
X91412142Y-135306674D02*
X91435803Y-135310184D01*
X91459007Y-135315996D01*
X91481529Y-135324054D01*
X91503153Y-135334282D01*
X91523670Y-135346579D01*
X91542883Y-135360829D01*
X91560607Y-135376893D01*
X91576671Y-135394617D01*
X91590921Y-135413830D01*
X91603218Y-135434347D01*
X91613446Y-135455971D01*
X91621504Y-135478493D01*
X91627316Y-135501697D01*
X91630826Y-135525358D01*
X91632000Y-135549250D01*
X91632000Y-136036750D01*
X91630826Y-136060642D01*
X91627316Y-136084303D01*
X91621504Y-136107507D01*
X91613446Y-136130029D01*
X91603218Y-136151653D01*
X91590921Y-136172170D01*
X91576671Y-136191383D01*
X91560607Y-136209107D01*
X91542883Y-136225171D01*
X91523670Y-136239421D01*
X91503153Y-136251718D01*
X91481529Y-136261946D01*
X91459007Y-136270004D01*
X91435803Y-136275816D01*
X91412142Y-136279326D01*
X91388250Y-136280500D01*
X90475750Y-136280500D01*
X90451858Y-136279326D01*
X90428197Y-136275816D01*
X90404993Y-136270004D01*
X90382471Y-136261946D01*
X90360847Y-136251718D01*
X90340330Y-136239421D01*
X90321117Y-136225171D01*
X90303393Y-136209107D01*
X90287329Y-136191383D01*
X90273079Y-136172170D01*
X90260782Y-136151653D01*
X90250554Y-136130029D01*
X90242496Y-136107507D01*
X90236684Y-136084303D01*
X90233174Y-136060642D01*
X90232000Y-136036750D01*
X90232000Y-135549250D01*
X90233174Y-135525358D01*
X90236684Y-135501697D01*
X90242496Y-135478493D01*
X90250554Y-135455971D01*
X90260782Y-135434347D01*
X90273079Y-135413830D01*
X90287329Y-135394617D01*
X90303393Y-135376893D01*
X90321117Y-135360829D01*
X90340330Y-135346579D01*
X90360847Y-135334282D01*
X90382471Y-135324054D01*
X90404993Y-135315996D01*
X90428197Y-135310184D01*
X90451858Y-135306674D01*
X90475750Y-135305500D01*
X91388250Y-135305500D01*
X91412142Y-135306674D01*
X91412142Y-135306674D01*
G37*
D12*
G04 #@! TD*
G04 #@! TO.P,R3,1*
G04 #@! TO.N,Net-(C13-Pad2)*
X90932000Y-135793000D03*
D11*
G04 #@! TO.N,Net-(R2-Pad1)*
G04 #@! TO.C,R4*
G36*
X108042142Y-139509174D02*
X108065803Y-139512684D01*
X108089007Y-139518496D01*
X108111529Y-139526554D01*
X108133153Y-139536782D01*
X108153670Y-139549079D01*
X108172883Y-139563329D01*
X108190607Y-139579393D01*
X108206671Y-139597117D01*
X108220921Y-139616330D01*
X108233218Y-139636847D01*
X108243446Y-139658471D01*
X108251504Y-139680993D01*
X108257316Y-139704197D01*
X108260826Y-139727858D01*
X108262000Y-139751750D01*
X108262000Y-140664250D01*
X108260826Y-140688142D01*
X108257316Y-140711803D01*
X108251504Y-140735007D01*
X108243446Y-140757529D01*
X108233218Y-140779153D01*
X108220921Y-140799670D01*
X108206671Y-140818883D01*
X108190607Y-140836607D01*
X108172883Y-140852671D01*
X108153670Y-140866921D01*
X108133153Y-140879218D01*
X108111529Y-140889446D01*
X108089007Y-140897504D01*
X108065803Y-140903316D01*
X108042142Y-140906826D01*
X108018250Y-140908000D01*
X107530750Y-140908000D01*
X107506858Y-140906826D01*
X107483197Y-140903316D01*
X107459993Y-140897504D01*
X107437471Y-140889446D01*
X107415847Y-140879218D01*
X107395330Y-140866921D01*
X107376117Y-140852671D01*
X107358393Y-140836607D01*
X107342329Y-140818883D01*
X107328079Y-140799670D01*
X107315782Y-140779153D01*
X107305554Y-140757529D01*
X107297496Y-140735007D01*
X107291684Y-140711803D01*
X107288174Y-140688142D01*
X107287000Y-140664250D01*
X107287000Y-139751750D01*
X107288174Y-139727858D01*
X107291684Y-139704197D01*
X107297496Y-139680993D01*
X107305554Y-139658471D01*
X107315782Y-139636847D01*
X107328079Y-139616330D01*
X107342329Y-139597117D01*
X107358393Y-139579393D01*
X107376117Y-139563329D01*
X107395330Y-139549079D01*
X107415847Y-139536782D01*
X107437471Y-139526554D01*
X107459993Y-139518496D01*
X107483197Y-139512684D01*
X107506858Y-139509174D01*
X107530750Y-139508000D01*
X108018250Y-139508000D01*
X108042142Y-139509174D01*
X108042142Y-139509174D01*
G37*
D12*
G04 #@! TD*
G04 #@! TO.P,R4,1*
G04 #@! TO.N,Net-(R2-Pad1)*
X107774500Y-140208000D03*
D11*
G04 #@! TO.N,Net-(C8-Pad1)*
G04 #@! TO.C,R4*
G36*
X109917142Y-139509174D02*
X109940803Y-139512684D01*
X109964007Y-139518496D01*
X109986529Y-139526554D01*
X110008153Y-139536782D01*
X110028670Y-139549079D01*
X110047883Y-139563329D01*
X110065607Y-139579393D01*
X110081671Y-139597117D01*
X110095921Y-139616330D01*
X110108218Y-139636847D01*
X110118446Y-139658471D01*
X110126504Y-139680993D01*
X110132316Y-139704197D01*
X110135826Y-139727858D01*
X110137000Y-139751750D01*
X110137000Y-140664250D01*
X110135826Y-140688142D01*
X110132316Y-140711803D01*
X110126504Y-140735007D01*
X110118446Y-140757529D01*
X110108218Y-140779153D01*
X110095921Y-140799670D01*
X110081671Y-140818883D01*
X110065607Y-140836607D01*
X110047883Y-140852671D01*
X110028670Y-140866921D01*
X110008153Y-140879218D01*
X109986529Y-140889446D01*
X109964007Y-140897504D01*
X109940803Y-140903316D01*
X109917142Y-140906826D01*
X109893250Y-140908000D01*
X109405750Y-140908000D01*
X109381858Y-140906826D01*
X109358197Y-140903316D01*
X109334993Y-140897504D01*
X109312471Y-140889446D01*
X109290847Y-140879218D01*
X109270330Y-140866921D01*
X109251117Y-140852671D01*
X109233393Y-140836607D01*
X109217329Y-140818883D01*
X109203079Y-140799670D01*
X109190782Y-140779153D01*
X109180554Y-140757529D01*
X109172496Y-140735007D01*
X109166684Y-140711803D01*
X109163174Y-140688142D01*
X109162000Y-140664250D01*
X109162000Y-139751750D01*
X109163174Y-139727858D01*
X109166684Y-139704197D01*
X109172496Y-139680993D01*
X109180554Y-139658471D01*
X109190782Y-139636847D01*
X109203079Y-139616330D01*
X109217329Y-139597117D01*
X109233393Y-139579393D01*
X109251117Y-139563329D01*
X109270330Y-139549079D01*
X109290847Y-139536782D01*
X109312471Y-139526554D01*
X109334993Y-139518496D01*
X109358197Y-139512684D01*
X109381858Y-139509174D01*
X109405750Y-139508000D01*
X109893250Y-139508000D01*
X109917142Y-139509174D01*
X109917142Y-139509174D01*
G37*
D12*
G04 #@! TD*
G04 #@! TO.P,R4,2*
G04 #@! TO.N,Net-(C8-Pad1)*
X109649500Y-140208000D03*
D11*
G04 #@! TO.N,Net-(C8-Pad2)*
G04 #@! TO.C,R6*
G36*
X106144142Y-137768174D02*
X106167803Y-137771684D01*
X106191007Y-137777496D01*
X106213529Y-137785554D01*
X106235153Y-137795782D01*
X106255670Y-137808079D01*
X106274883Y-137822329D01*
X106292607Y-137838393D01*
X106308671Y-137856117D01*
X106322921Y-137875330D01*
X106335218Y-137895847D01*
X106345446Y-137917471D01*
X106353504Y-137939993D01*
X106359316Y-137963197D01*
X106362826Y-137986858D01*
X106364000Y-138010750D01*
X106364000Y-138498250D01*
X106362826Y-138522142D01*
X106359316Y-138545803D01*
X106353504Y-138569007D01*
X106345446Y-138591529D01*
X106335218Y-138613153D01*
X106322921Y-138633670D01*
X106308671Y-138652883D01*
X106292607Y-138670607D01*
X106274883Y-138686671D01*
X106255670Y-138700921D01*
X106235153Y-138713218D01*
X106213529Y-138723446D01*
X106191007Y-138731504D01*
X106167803Y-138737316D01*
X106144142Y-138740826D01*
X106120250Y-138742000D01*
X105207750Y-138742000D01*
X105183858Y-138740826D01*
X105160197Y-138737316D01*
X105136993Y-138731504D01*
X105114471Y-138723446D01*
X105092847Y-138713218D01*
X105072330Y-138700921D01*
X105053117Y-138686671D01*
X105035393Y-138670607D01*
X105019329Y-138652883D01*
X105005079Y-138633670D01*
X104992782Y-138613153D01*
X104982554Y-138591529D01*
X104974496Y-138569007D01*
X104968684Y-138545803D01*
X104965174Y-138522142D01*
X104964000Y-138498250D01*
X104964000Y-138010750D01*
X104965174Y-137986858D01*
X104968684Y-137963197D01*
X104974496Y-137939993D01*
X104982554Y-137917471D01*
X104992782Y-137895847D01*
X105005079Y-137875330D01*
X105019329Y-137856117D01*
X105035393Y-137838393D01*
X105053117Y-137822329D01*
X105072330Y-137808079D01*
X105092847Y-137795782D01*
X105114471Y-137785554D01*
X105136993Y-137777496D01*
X105160197Y-137771684D01*
X105183858Y-137768174D01*
X105207750Y-137767000D01*
X106120250Y-137767000D01*
X106144142Y-137768174D01*
X106144142Y-137768174D01*
G37*
D12*
G04 #@! TD*
G04 #@! TO.P,R6,1*
G04 #@! TO.N,Net-(C8-Pad2)*
X105664000Y-138254500D03*
D11*
G04 #@! TO.N,Net-(R2-Pad1)*
G04 #@! TO.C,R6*
G36*
X106144142Y-139643174D02*
X106167803Y-139646684D01*
X106191007Y-139652496D01*
X106213529Y-139660554D01*
X106235153Y-139670782D01*
X106255670Y-139683079D01*
X106274883Y-139697329D01*
X106292607Y-139713393D01*
X106308671Y-139731117D01*
X106322921Y-139750330D01*
X106335218Y-139770847D01*
X106345446Y-139792471D01*
X106353504Y-139814993D01*
X106359316Y-139838197D01*
X106362826Y-139861858D01*
X106364000Y-139885750D01*
X106364000Y-140373250D01*
X106362826Y-140397142D01*
X106359316Y-140420803D01*
X106353504Y-140444007D01*
X106345446Y-140466529D01*
X106335218Y-140488153D01*
X106322921Y-140508670D01*
X106308671Y-140527883D01*
X106292607Y-140545607D01*
X106274883Y-140561671D01*
X106255670Y-140575921D01*
X106235153Y-140588218D01*
X106213529Y-140598446D01*
X106191007Y-140606504D01*
X106167803Y-140612316D01*
X106144142Y-140615826D01*
X106120250Y-140617000D01*
X105207750Y-140617000D01*
X105183858Y-140615826D01*
X105160197Y-140612316D01*
X105136993Y-140606504D01*
X105114471Y-140598446D01*
X105092847Y-140588218D01*
X105072330Y-140575921D01*
X105053117Y-140561671D01*
X105035393Y-140545607D01*
X105019329Y-140527883D01*
X105005079Y-140508670D01*
X104992782Y-140488153D01*
X104982554Y-140466529D01*
X104974496Y-140444007D01*
X104968684Y-140420803D01*
X104965174Y-140397142D01*
X104964000Y-140373250D01*
X104964000Y-139885750D01*
X104965174Y-139861858D01*
X104968684Y-139838197D01*
X104974496Y-139814993D01*
X104982554Y-139792471D01*
X104992782Y-139770847D01*
X105005079Y-139750330D01*
X105019329Y-139731117D01*
X105035393Y-139713393D01*
X105053117Y-139697329D01*
X105072330Y-139683079D01*
X105092847Y-139670782D01*
X105114471Y-139660554D01*
X105136993Y-139652496D01*
X105160197Y-139646684D01*
X105183858Y-139643174D01*
X105207750Y-139642000D01*
X106120250Y-139642000D01*
X106144142Y-139643174D01*
X106144142Y-139643174D01*
G37*
D12*
G04 #@! TD*
G04 #@! TO.P,R6,2*
G04 #@! TO.N,Net-(R2-Pad1)*
X105664000Y-140129500D03*
D11*
G04 #@! TO.N,Net-(RFB1-Pad1)*
G04 #@! TO.C,RFB1*
G36*
X92809142Y-146734374D02*
X92832803Y-146737884D01*
X92856007Y-146743696D01*
X92878529Y-146751754D01*
X92900153Y-146761982D01*
X92920670Y-146774279D01*
X92939883Y-146788529D01*
X92957607Y-146804593D01*
X92973671Y-146822317D01*
X92987921Y-146841530D01*
X93000218Y-146862047D01*
X93010446Y-146883671D01*
X93018504Y-146906193D01*
X93024316Y-146929397D01*
X93027826Y-146953058D01*
X93029000Y-146976950D01*
X93029000Y-147464450D01*
X93027826Y-147488342D01*
X93024316Y-147512003D01*
X93018504Y-147535207D01*
X93010446Y-147557729D01*
X93000218Y-147579353D01*
X92987921Y-147599870D01*
X92973671Y-147619083D01*
X92957607Y-147636807D01*
X92939883Y-147652871D01*
X92920670Y-147667121D01*
X92900153Y-147679418D01*
X92878529Y-147689646D01*
X92856007Y-147697704D01*
X92832803Y-147703516D01*
X92809142Y-147707026D01*
X92785250Y-147708200D01*
X91872750Y-147708200D01*
X91848858Y-147707026D01*
X91825197Y-147703516D01*
X91801993Y-147697704D01*
X91779471Y-147689646D01*
X91757847Y-147679418D01*
X91737330Y-147667121D01*
X91718117Y-147652871D01*
X91700393Y-147636807D01*
X91684329Y-147619083D01*
X91670079Y-147599870D01*
X91657782Y-147579353D01*
X91647554Y-147557729D01*
X91639496Y-147535207D01*
X91633684Y-147512003D01*
X91630174Y-147488342D01*
X91629000Y-147464450D01*
X91629000Y-146976950D01*
X91630174Y-146953058D01*
X91633684Y-146929397D01*
X91639496Y-146906193D01*
X91647554Y-146883671D01*
X91657782Y-146862047D01*
X91670079Y-146841530D01*
X91684329Y-146822317D01*
X91700393Y-146804593D01*
X91718117Y-146788529D01*
X91737330Y-146774279D01*
X91757847Y-146761982D01*
X91779471Y-146751754D01*
X91801993Y-146743696D01*
X91825197Y-146737884D01*
X91848858Y-146734374D01*
X91872750Y-146733200D01*
X92785250Y-146733200D01*
X92809142Y-146734374D01*
X92809142Y-146734374D01*
G37*
D12*
G04 #@! TD*
G04 #@! TO.P,RFB1,1*
G04 #@! TO.N,Net-(RFB1-Pad1)*
X92329000Y-147220700D03*
D11*
G04 #@! TO.N,VCOM*
G04 #@! TO.C,RFB1*
G36*
X92809142Y-148609374D02*
X92832803Y-148612884D01*
X92856007Y-148618696D01*
X92878529Y-148626754D01*
X92900153Y-148636982D01*
X92920670Y-148649279D01*
X92939883Y-148663529D01*
X92957607Y-148679593D01*
X92973671Y-148697317D01*
X92987921Y-148716530D01*
X93000218Y-148737047D01*
X93010446Y-148758671D01*
X93018504Y-148781193D01*
X93024316Y-148804397D01*
X93027826Y-148828058D01*
X93029000Y-148851950D01*
X93029000Y-149339450D01*
X93027826Y-149363342D01*
X93024316Y-149387003D01*
X93018504Y-149410207D01*
X93010446Y-149432729D01*
X93000218Y-149454353D01*
X92987921Y-149474870D01*
X92973671Y-149494083D01*
X92957607Y-149511807D01*
X92939883Y-149527871D01*
X92920670Y-149542121D01*
X92900153Y-149554418D01*
X92878529Y-149564646D01*
X92856007Y-149572704D01*
X92832803Y-149578516D01*
X92809142Y-149582026D01*
X92785250Y-149583200D01*
X91872750Y-149583200D01*
X91848858Y-149582026D01*
X91825197Y-149578516D01*
X91801993Y-149572704D01*
X91779471Y-149564646D01*
X91757847Y-149554418D01*
X91737330Y-149542121D01*
X91718117Y-149527871D01*
X91700393Y-149511807D01*
X91684329Y-149494083D01*
X91670079Y-149474870D01*
X91657782Y-149454353D01*
X91647554Y-149432729D01*
X91639496Y-149410207D01*
X91633684Y-149387003D01*
X91630174Y-149363342D01*
X91629000Y-149339450D01*
X91629000Y-148851950D01*
X91630174Y-148828058D01*
X91633684Y-148804397D01*
X91639496Y-148781193D01*
X91647554Y-148758671D01*
X91657782Y-148737047D01*
X91670079Y-148716530D01*
X91684329Y-148697317D01*
X91700393Y-148679593D01*
X91718117Y-148663529D01*
X91737330Y-148649279D01*
X91757847Y-148636982D01*
X91779471Y-148626754D01*
X91801993Y-148618696D01*
X91825197Y-148612884D01*
X91848858Y-148609374D01*
X91872750Y-148608200D01*
X92785250Y-148608200D01*
X92809142Y-148609374D01*
X92809142Y-148609374D01*
G37*
D12*
G04 #@! TD*
G04 #@! TO.P,RFB1,2*
G04 #@! TO.N,VCOM*
X92329000Y-149095700D03*
D11*
G04 #@! TO.N,Net-(RFB2-Pad2)*
G04 #@! TO.C,RFB2*
G36*
X97953742Y-146494174D02*
X97977403Y-146497684D01*
X98000607Y-146503496D01*
X98023129Y-146511554D01*
X98044753Y-146521782D01*
X98065270Y-146534079D01*
X98084483Y-146548329D01*
X98102207Y-146564393D01*
X98118271Y-146582117D01*
X98132521Y-146601330D01*
X98144818Y-146621847D01*
X98155046Y-146643471D01*
X98163104Y-146665993D01*
X98168916Y-146689197D01*
X98172426Y-146712858D01*
X98173600Y-146736750D01*
X98173600Y-147649250D01*
X98172426Y-147673142D01*
X98168916Y-147696803D01*
X98163104Y-147720007D01*
X98155046Y-147742529D01*
X98144818Y-147764153D01*
X98132521Y-147784670D01*
X98118271Y-147803883D01*
X98102207Y-147821607D01*
X98084483Y-147837671D01*
X98065270Y-147851921D01*
X98044753Y-147864218D01*
X98023129Y-147874446D01*
X98000607Y-147882504D01*
X97977403Y-147888316D01*
X97953742Y-147891826D01*
X97929850Y-147893000D01*
X97442350Y-147893000D01*
X97418458Y-147891826D01*
X97394797Y-147888316D01*
X97371593Y-147882504D01*
X97349071Y-147874446D01*
X97327447Y-147864218D01*
X97306930Y-147851921D01*
X97287717Y-147837671D01*
X97269993Y-147821607D01*
X97253929Y-147803883D01*
X97239679Y-147784670D01*
X97227382Y-147764153D01*
X97217154Y-147742529D01*
X97209096Y-147720007D01*
X97203284Y-147696803D01*
X97199774Y-147673142D01*
X97198600Y-147649250D01*
X97198600Y-146736750D01*
X97199774Y-146712858D01*
X97203284Y-146689197D01*
X97209096Y-146665993D01*
X97217154Y-146643471D01*
X97227382Y-146621847D01*
X97239679Y-146601330D01*
X97253929Y-146582117D01*
X97269993Y-146564393D01*
X97287717Y-146548329D01*
X97306930Y-146534079D01*
X97327447Y-146521782D01*
X97349071Y-146511554D01*
X97371593Y-146503496D01*
X97394797Y-146497684D01*
X97418458Y-146494174D01*
X97442350Y-146493000D01*
X97929850Y-146493000D01*
X97953742Y-146494174D01*
X97953742Y-146494174D01*
G37*
D12*
G04 #@! TD*
G04 #@! TO.P,RFB2,2*
G04 #@! TO.N,Net-(RFB2-Pad2)*
X97686100Y-147193000D03*
D11*
G04 #@! TO.N,Net-(RFB1-Pad1)*
G04 #@! TO.C,RFB2*
G36*
X96078742Y-146494174D02*
X96102403Y-146497684D01*
X96125607Y-146503496D01*
X96148129Y-146511554D01*
X96169753Y-146521782D01*
X96190270Y-146534079D01*
X96209483Y-146548329D01*
X96227207Y-146564393D01*
X96243271Y-146582117D01*
X96257521Y-146601330D01*
X96269818Y-146621847D01*
X96280046Y-146643471D01*
X96288104Y-146665993D01*
X96293916Y-146689197D01*
X96297426Y-146712858D01*
X96298600Y-146736750D01*
X96298600Y-147649250D01*
X96297426Y-147673142D01*
X96293916Y-147696803D01*
X96288104Y-147720007D01*
X96280046Y-147742529D01*
X96269818Y-147764153D01*
X96257521Y-147784670D01*
X96243271Y-147803883D01*
X96227207Y-147821607D01*
X96209483Y-147837671D01*
X96190270Y-147851921D01*
X96169753Y-147864218D01*
X96148129Y-147874446D01*
X96125607Y-147882504D01*
X96102403Y-147888316D01*
X96078742Y-147891826D01*
X96054850Y-147893000D01*
X95567350Y-147893000D01*
X95543458Y-147891826D01*
X95519797Y-147888316D01*
X95496593Y-147882504D01*
X95474071Y-147874446D01*
X95452447Y-147864218D01*
X95431930Y-147851921D01*
X95412717Y-147837671D01*
X95394993Y-147821607D01*
X95378929Y-147803883D01*
X95364679Y-147784670D01*
X95352382Y-147764153D01*
X95342154Y-147742529D01*
X95334096Y-147720007D01*
X95328284Y-147696803D01*
X95324774Y-147673142D01*
X95323600Y-147649250D01*
X95323600Y-146736750D01*
X95324774Y-146712858D01*
X95328284Y-146689197D01*
X95334096Y-146665993D01*
X95342154Y-146643471D01*
X95352382Y-146621847D01*
X95364679Y-146601330D01*
X95378929Y-146582117D01*
X95394993Y-146564393D01*
X95412717Y-146548329D01*
X95431930Y-146534079D01*
X95452447Y-146521782D01*
X95474071Y-146511554D01*
X95496593Y-146503496D01*
X95519797Y-146497684D01*
X95543458Y-146494174D01*
X95567350Y-146493000D01*
X96054850Y-146493000D01*
X96078742Y-146494174D01*
X96078742Y-146494174D01*
G37*
D12*
G04 #@! TD*
G04 #@! TO.P,RFB2,1*
G04 #@! TO.N,Net-(RFB1-Pad1)*
X95811100Y-147193000D03*
D11*
G04 #@! TO.N,Net-(J2-Pad1)*
G04 #@! TO.C,RV1*
G36*
X92682142Y-139342974D02*
X92705803Y-139346484D01*
X92729007Y-139352296D01*
X92751529Y-139360354D01*
X92773153Y-139370582D01*
X92793670Y-139382879D01*
X92812883Y-139397129D01*
X92830607Y-139413193D01*
X92846671Y-139430917D01*
X92860921Y-139450130D01*
X92873218Y-139470647D01*
X92883446Y-139492271D01*
X92891504Y-139514793D01*
X92897316Y-139537997D01*
X92900826Y-139561658D01*
X92902000Y-139585550D01*
X92902000Y-140073050D01*
X92900826Y-140096942D01*
X92897316Y-140120603D01*
X92891504Y-140143807D01*
X92883446Y-140166329D01*
X92873218Y-140187953D01*
X92860921Y-140208470D01*
X92846671Y-140227683D01*
X92830607Y-140245407D01*
X92812883Y-140261471D01*
X92793670Y-140275721D01*
X92773153Y-140288018D01*
X92751529Y-140298246D01*
X92729007Y-140306304D01*
X92705803Y-140312116D01*
X92682142Y-140315626D01*
X92658250Y-140316800D01*
X91745750Y-140316800D01*
X91721858Y-140315626D01*
X91698197Y-140312116D01*
X91674993Y-140306304D01*
X91652471Y-140298246D01*
X91630847Y-140288018D01*
X91610330Y-140275721D01*
X91591117Y-140261471D01*
X91573393Y-140245407D01*
X91557329Y-140227683D01*
X91543079Y-140208470D01*
X91530782Y-140187953D01*
X91520554Y-140166329D01*
X91512496Y-140143807D01*
X91506684Y-140120603D01*
X91503174Y-140096942D01*
X91502000Y-140073050D01*
X91502000Y-139585550D01*
X91503174Y-139561658D01*
X91506684Y-139537997D01*
X91512496Y-139514793D01*
X91520554Y-139492271D01*
X91530782Y-139470647D01*
X91543079Y-139450130D01*
X91557329Y-139430917D01*
X91573393Y-139413193D01*
X91591117Y-139397129D01*
X91610330Y-139382879D01*
X91630847Y-139370582D01*
X91652471Y-139360354D01*
X91674993Y-139352296D01*
X91698197Y-139346484D01*
X91721858Y-139342974D01*
X91745750Y-139341800D01*
X92658250Y-139341800D01*
X92682142Y-139342974D01*
X92682142Y-139342974D01*
G37*
D12*
G04 #@! TD*
G04 #@! TO.P,RV1,2*
G04 #@! TO.N,Net-(J2-Pad1)*
X92202000Y-139829300D03*
D11*
G04 #@! TO.N,Net-(RV1-Pad1)*
G04 #@! TO.C,RV1*
G36*
X92682142Y-141217974D02*
X92705803Y-141221484D01*
X92729007Y-141227296D01*
X92751529Y-141235354D01*
X92773153Y-141245582D01*
X92793670Y-141257879D01*
X92812883Y-141272129D01*
X92830607Y-141288193D01*
X92846671Y-141305917D01*
X92860921Y-141325130D01*
X92873218Y-141345647D01*
X92883446Y-141367271D01*
X92891504Y-141389793D01*
X92897316Y-141412997D01*
X92900826Y-141436658D01*
X92902000Y-141460550D01*
X92902000Y-141948050D01*
X92900826Y-141971942D01*
X92897316Y-141995603D01*
X92891504Y-142018807D01*
X92883446Y-142041329D01*
X92873218Y-142062953D01*
X92860921Y-142083470D01*
X92846671Y-142102683D01*
X92830607Y-142120407D01*
X92812883Y-142136471D01*
X92793670Y-142150721D01*
X92773153Y-142163018D01*
X92751529Y-142173246D01*
X92729007Y-142181304D01*
X92705803Y-142187116D01*
X92682142Y-142190626D01*
X92658250Y-142191800D01*
X91745750Y-142191800D01*
X91721858Y-142190626D01*
X91698197Y-142187116D01*
X91674993Y-142181304D01*
X91652471Y-142173246D01*
X91630847Y-142163018D01*
X91610330Y-142150721D01*
X91591117Y-142136471D01*
X91573393Y-142120407D01*
X91557329Y-142102683D01*
X91543079Y-142083470D01*
X91530782Y-142062953D01*
X91520554Y-142041329D01*
X91512496Y-142018807D01*
X91506684Y-141995603D01*
X91503174Y-141971942D01*
X91502000Y-141948050D01*
X91502000Y-141460550D01*
X91503174Y-141436658D01*
X91506684Y-141412997D01*
X91512496Y-141389793D01*
X91520554Y-141367271D01*
X91530782Y-141345647D01*
X91543079Y-141325130D01*
X91557329Y-141305917D01*
X91573393Y-141288193D01*
X91591117Y-141272129D01*
X91610330Y-141257879D01*
X91630847Y-141245582D01*
X91652471Y-141235354D01*
X91674993Y-141227296D01*
X91698197Y-141221484D01*
X91721858Y-141217974D01*
X91745750Y-141216800D01*
X92658250Y-141216800D01*
X92682142Y-141217974D01*
X92682142Y-141217974D01*
G37*
D12*
G04 #@! TD*
G04 #@! TO.P,RV1,1*
G04 #@! TO.N,Net-(RV1-Pad1)*
X92202000Y-141704300D03*
D16*
G04 #@! TO.P,U1,1*
G04 #@! TO.N,Net-(C8-Pad2)*
X105460800Y-134188200D03*
G04 #@! TO.P,U1,2*
G04 #@! TO.N,GND*
X105460800Y-135128000D03*
G04 #@! TO.P,U1,3*
G04 #@! TO.N,2_5*
X105460800Y-136067800D03*
G04 #@! TO.P,U1,4*
G04 #@! TO.N,Net-(C8-Pad1)*
X107899200Y-136067800D03*
G04 #@! TO.P,U1,5*
G04 #@! TO.N,+5V*
X107899200Y-134188200D03*
G04 #@! TD*
D17*
G04 #@! TO.P,U2,1*
G04 #@! TO.N,Net-(RV1-Pad1)*
X91362400Y-143496600D03*
G04 #@! TO.P,U2,2*
G04 #@! TO.N,VCOM*
X91362400Y-143996600D03*
G04 #@! TO.P,U2,3*
G04 #@! TO.N,Net-(C6-Pad1)*
X91362400Y-144496600D03*
G04 #@! TO.P,U2,4*
G04 #@! TO.N,Net-(RFB1-Pad1)*
X91362400Y-144996600D03*
G04 #@! TO.P,U2,7*
G04 #@! TO.N,GAIN*
X94362400Y-143996600D03*
G04 #@! TO.P,U2,5*
G04 #@! TO.N,Net-(RFB2-Pad2)*
X94362400Y-144996600D03*
G04 #@! TO.P,U2,8*
G04 #@! TO.N,Net-(C3-Pad1)*
X94362400Y-143496600D03*
G04 #@! TO.P,U2,6*
G04 #@! TO.N,GND*
X94362400Y-144496600D03*
G04 #@! TD*
D18*
G04 #@! TO.P,U3,1*
G04 #@! TO.N,VDD*
X99956100Y-130886200D03*
G04 #@! TO.P,U3,2*
X99956100Y-131826000D03*
G04 #@! TO.P,U3,3*
G04 #@! TO.N,2_5*
X99956100Y-132765800D03*
G04 #@! TO.P,U3,4*
X102292900Y-132765800D03*
G04 #@! TO.P,U3,5*
G04 #@! TO.N,GND*
X102292900Y-130886200D03*
G04 #@! TD*
D19*
G04 #@! TO.P,U4,1*
G04 #@! TO.N,+5V*
X102438200Y-142290800D03*
G04 #@! TO.P,U4,2*
G04 #@! TO.N,Net-(U4-Pad2)*
X102438200Y-142925800D03*
G04 #@! TO.P,U4,3*
G04 #@! TO.N,Net-(U4-Pad3)*
X102438200Y-143586200D03*
G04 #@! TO.P,U4,4*
G04 #@! TO.N,GAIN*
X102438200Y-144221200D03*
G04 #@! TO.P,U4,5*
G04 #@! TO.N,Net-(J5-Pad1)*
X106857800Y-144221200D03*
G04 #@! TO.P,U4,6*
G04 #@! TO.N,Net-(J6-Pad1)*
X106857800Y-143586200D03*
G04 #@! TO.P,U4,7*
G04 #@! TO.N,Net-(J7-Pad1)*
X106857800Y-142925800D03*
G04 #@! TO.P,U4,8*
G04 #@! TO.N,GND*
X106857800Y-142290800D03*
G04 #@! TD*
D20*
G04 #@! TO.P,U5,1*
G04 #@! TO.N,VDD*
X87432000Y-132954000D03*
G04 #@! TO.P,U5,2*
G04 #@! TO.N,GND*
X87432000Y-133604000D03*
G04 #@! TO.P,U5,3*
G04 #@! TO.N,VDD*
X87432000Y-134254000D03*
G04 #@! TO.P,U5,4*
G04 #@! TO.N,Net-(C13-Pad2)*
X89352000Y-134254000D03*
G04 #@! TO.P,U5,5*
X89352000Y-132954000D03*
G04 #@! TD*
D16*
G04 #@! TO.P,U6,5*
G04 #@! TO.N,+5V*
X92252800Y-130987800D03*
G04 #@! TO.P,U6,4*
G04 #@! TO.N,Net-(C12-Pad2)*
X92252800Y-129108200D03*
G04 #@! TO.P,U6,3*
G04 #@! TO.N,VDD*
X94691200Y-129108200D03*
G04 #@! TO.P,U6,2*
G04 #@! TO.N,GND*
X94691200Y-130048000D03*
G04 #@! TO.P,U6,1*
G04 #@! TO.N,VDD*
X94691200Y-130987800D03*
G04 #@! TD*
D21*
G04 #@! TO.N,GND*
X97790000Y-142494000D03*
X102362000Y-130810000D03*
X85852000Y-131064000D03*
X86614000Y-136144000D03*
X94996000Y-133350000D03*
X91694000Y-127254000D03*
X92202000Y-128016000D03*
X94742000Y-127254000D03*
X105918000Y-129032000D03*
X102108000Y-129032000D03*
X102108000Y-135128000D03*
X104648000Y-135128000D03*
X105664000Y-135128000D03*
X102062000Y-134112000D03*
X80010000Y-142748000D03*
X81026000Y-142748000D03*
X82042000Y-142748000D03*
X83058000Y-142748000D03*
X84074000Y-142748000D03*
X85090000Y-142748000D03*
X80010000Y-144780000D03*
X81026000Y-144780000D03*
X82042000Y-144780000D03*
X83058000Y-144780000D03*
X84074000Y-144780000D03*
X85344000Y-145796000D03*
X86360000Y-145796000D03*
X87630000Y-145796000D03*
X88646000Y-145288000D03*
X89662000Y-145288000D03*
X85852000Y-141986000D03*
X90678000Y-141224000D03*
X85852000Y-140970000D03*
X84836000Y-140970000D03*
X83820000Y-140716000D03*
X82550000Y-136398000D03*
X83312000Y-137160000D03*
X84074000Y-137922000D03*
X84836000Y-138684000D03*
X85852000Y-138684000D03*
X86868000Y-138684000D03*
X87884000Y-138684000D03*
X88900000Y-138684000D03*
X89916000Y-138684000D03*
X81788000Y-138684000D03*
X81026000Y-137922000D03*
X80264000Y-137160000D03*
X79502000Y-136398000D03*
X78740000Y-135636000D03*
X77978000Y-135128000D03*
X77724000Y-134112000D03*
X77724000Y-133096000D03*
X80010000Y-133858000D03*
X79756000Y-132842000D03*
X102616000Y-128270000D03*
X102616000Y-129794000D03*
X105664000Y-128270000D03*
X105410000Y-129794000D03*
X94234000Y-126492000D03*
X93980000Y-128016000D03*
X92202000Y-126492000D03*
X96012000Y-129794000D03*
X96012000Y-130556000D03*
X94996000Y-132334000D03*
X87122000Y-135382000D03*
X87122000Y-136906000D03*
X85344000Y-130302000D03*
X85344000Y-131826000D03*
X99060000Y-143002000D03*
X101092000Y-143256000D03*
X95504000Y-140208000D03*
X96774000Y-139700000D03*
X100076000Y-143256000D03*
X103378000Y-130556000D03*
X103124000Y-131572000D03*
X97028000Y-145034000D03*
X98044000Y-145542000D03*
X99314000Y-145542000D03*
X100330000Y-145542000D03*
X101346000Y-145542000D03*
X98552000Y-141986000D03*
X73660000Y-136144000D03*
X74676000Y-136906000D03*
X75946000Y-137668000D03*
X74676000Y-138430000D03*
X73660000Y-138938000D03*
X73660000Y-137668000D03*
X97536000Y-129794000D03*
X97536000Y-131318000D03*
X97536000Y-132842000D03*
X97536000Y-134366000D03*
X100076000Y-126238000D03*
X101854000Y-126238000D03*
X103632000Y-126238000D03*
X105410000Y-126238000D03*
X108204000Y-126238000D03*
X109728000Y-127254000D03*
X109728000Y-129032000D03*
X109728000Y-130302000D03*
X109728000Y-131826000D03*
X109728000Y-133350000D03*
X109728000Y-134620000D03*
X109728000Y-136144000D03*
X109728000Y-142240000D03*
X109728000Y-144018000D03*
X109982000Y-145796000D03*
X109728000Y-149352000D03*
X106934000Y-149352000D03*
X104648000Y-149352000D03*
X103124000Y-149352000D03*
X101092000Y-149352000D03*
X98806000Y-149352000D03*
X97028000Y-149098000D03*
X95250000Y-149098000D03*
X99314000Y-147574000D03*
X103124000Y-147320000D03*
X105918000Y-145542000D03*
X107442000Y-141732000D03*
X106426000Y-141732000D03*
X103886000Y-141224000D03*
X88900000Y-131572000D03*
X90424000Y-131572000D03*
X91186000Y-133604000D03*
X93218000Y-136144000D03*
X84836000Y-134874000D03*
X82042000Y-131572000D03*
X78740000Y-128270000D03*
X75184000Y-131318000D03*
X81280000Y-125984000D03*
X78486000Y-125730000D03*
X74168000Y-125984000D03*
G04 #@! TO.N,VCOM*
X85344000Y-149352000D03*
X89408000Y-149352000D03*
X92964000Y-149352000D03*
X86360000Y-149352000D03*
X88392000Y-149352000D03*
X91948000Y-149352000D03*
G04 #@! TO.N,+5V*
X107899200Y-134188200D03*
X95859600Y-135991600D03*
X107899200Y-133350000D03*
X95859600Y-136906000D03*
X95250000Y-135382000D03*
G04 #@! TO.N,VCOM*
X102616000Y-138176000D03*
X90932000Y-137668000D03*
X88923100Y-141909800D03*
X88961300Y-142748000D03*
X91694000Y-138176000D03*
X101854000Y-138176000D03*
G04 #@! TD*
D22*
G04 #@! TO.N,+5V*
X97536000Y-137820400D02*
X97891600Y-138176000D01*
X95859600Y-137820400D02*
X97536000Y-137820400D01*
X95859600Y-137820400D02*
X95859600Y-136906000D01*
X92252800Y-132384800D02*
X92964000Y-133096000D01*
X92252800Y-130987800D02*
X92252800Y-132384800D01*
X107899200Y-129313700D02*
X107617500Y-129032000D01*
D23*
X97891600Y-138201400D02*
X97891600Y-138176000D01*
X101981000Y-142290800D02*
X97891600Y-138201400D01*
X102438200Y-142290800D02*
X101981000Y-142290800D01*
D22*
X107899200Y-133350000D02*
X107899200Y-129313700D01*
X95250000Y-135382000D02*
X92964000Y-133096000D01*
D24*
G04 #@! TO.N,VCOM*
X91362400Y-143996600D02*
X90725233Y-143996600D01*
D22*
X88923100Y-141909800D02*
X88923100Y-141909800D01*
D25*
X89723290Y-143509990D02*
X90238623Y-143509990D01*
D24*
X90725233Y-143996600D02*
X90454523Y-143725890D01*
D25*
X90238623Y-143509990D02*
X90454523Y-143725890D01*
D24*
X90454523Y-143725890D02*
X90492633Y-143764000D01*
D22*
X88961300Y-142748000D02*
X89723290Y-143509990D01*
D23*
G04 #@! TO.N,Net-(C3-Pad1)*
X93984600Y-137820400D02*
X93984600Y-142752600D01*
X94362400Y-143130400D02*
X94362400Y-143430199D01*
X93984600Y-142752600D02*
X94362400Y-143130400D01*
D22*
G04 #@! TO.N,VDD*
X94691200Y-129108200D02*
X93710758Y-129108200D01*
X93710758Y-129108200D02*
X93497399Y-129321559D01*
X93903800Y-130987800D02*
X94691200Y-130987800D01*
X93497399Y-130581399D02*
X93903800Y-130987800D01*
X93471989Y-130022590D02*
X88417410Y-130022590D01*
X93497399Y-130048000D02*
X93471989Y-130022590D01*
X87932237Y-130507763D02*
X87376000Y-131064000D01*
X88417410Y-130022590D02*
X87932237Y-130507763D01*
X93497399Y-130048000D02*
X93497399Y-130581399D01*
X93497399Y-129321559D02*
X93497399Y-130048000D01*
X99956100Y-129184400D02*
X100108500Y-129032000D01*
X99956100Y-130886200D02*
X99956100Y-129184400D01*
X99956100Y-131826000D02*
X99956100Y-130886200D01*
D24*
X88306401Y-134228599D02*
X88281000Y-134254000D01*
X88306401Y-132979401D02*
X88306401Y-134228599D01*
X88281000Y-134254000D02*
X87432000Y-134254000D01*
X88281000Y-132954000D02*
X88306401Y-132979401D01*
X87432000Y-132954000D02*
X88281000Y-132954000D01*
D23*
X87432000Y-131120000D02*
X87376000Y-131064000D01*
X87432000Y-132954000D02*
X87432000Y-131120000D01*
D22*
X94919800Y-129108200D02*
X96520000Y-127508000D01*
X94691200Y-129108200D02*
X94919800Y-129108200D01*
X98584500Y-127508000D02*
X100108500Y-129032000D01*
X96520000Y-127508000D02*
X98584500Y-127508000D01*
X87777702Y-130662298D02*
X87376000Y-131064000D01*
X87777702Y-129540000D02*
X87934820Y-129540000D01*
X87777702Y-129540000D02*
X87777702Y-130662298D01*
X87934820Y-129540000D02*
X88417410Y-130022590D01*
X87777702Y-127508000D02*
X87777702Y-129540000D01*
D23*
G04 #@! TO.N,Net-(C6-Pad1)*
X87475300Y-144322800D02*
X90297078Y-144322800D01*
D24*
X90608400Y-144496600D02*
X90434600Y-144322800D01*
X90434600Y-144322800D02*
X90297078Y-144322800D01*
X91362400Y-144496600D02*
X90608400Y-144496600D01*
D22*
X87048100Y-143895600D02*
X87475300Y-144322800D01*
X87048100Y-141909800D02*
X87048100Y-143895600D01*
G04 #@! TO.N,Net-(C6-Pad2)*
X85041500Y-143764000D02*
X85600300Y-144322800D01*
X78740000Y-143764000D02*
X85041500Y-143764000D01*
D23*
G04 #@! TO.N,Net-(C8-Pad2)*
X106502201Y-134523479D02*
X106502201Y-137416299D01*
X106166922Y-134188200D02*
X106502201Y-134523479D01*
X105460800Y-134188200D02*
X106166922Y-134188200D01*
D22*
X107014799Y-137416299D02*
X107774500Y-138176000D01*
X106502201Y-137416299D02*
X107014799Y-137416299D01*
X106502201Y-137416299D02*
X105664000Y-138254500D01*
G04 #@! TO.N,Net-(C8-Pad1)*
X109649500Y-137818100D02*
X109649500Y-140208000D01*
X107899200Y-136067800D02*
X109649500Y-137818100D01*
G04 #@! TO.N,2_5*
X100187000Y-133022110D02*
X99956100Y-132791210D01*
X100187000Y-134620000D02*
X100187000Y-133022110D01*
X100355903Y-132791210D02*
X99956100Y-132791210D01*
X100381313Y-132765800D02*
X100355903Y-132791210D01*
X102292900Y-132765800D02*
X100381313Y-132765800D01*
X102292900Y-132765800D02*
X102673900Y-132765800D01*
D23*
X102673900Y-132765800D02*
X103124000Y-133215900D01*
X104317800Y-136067800D02*
X105460800Y-136067800D01*
X103124000Y-134874000D02*
X104317800Y-136067800D01*
X103124000Y-133215900D02*
X103124000Y-134874000D01*
D22*
G04 #@! TO.N,Net-(C12-Pad2)*
X90073000Y-128308000D02*
X90822380Y-129057380D01*
X90073000Y-127508000D02*
X90073000Y-128308000D01*
D23*
X90873200Y-129108200D02*
X92252800Y-129108200D01*
X90822380Y-129057380D02*
X90873200Y-129108200D01*
D22*
G04 #@! TO.N,Net-(C13-Pad2)*
X90581000Y-136144000D02*
X90932000Y-135793000D01*
X88900000Y-136144000D02*
X90581000Y-136144000D01*
X89352000Y-135692000D02*
X88900000Y-136144000D01*
X89352000Y-132954000D02*
X89352000Y-135692000D01*
G04 #@! TO.N,GAIN*
X101498399Y-144373601D02*
X102438200Y-144373601D01*
X98320837Y-144442637D02*
X101429363Y-144442637D01*
X101429363Y-144442637D02*
X101498399Y-144373601D01*
X97764600Y-143886400D02*
X98320837Y-144442637D01*
X95424360Y-143886400D02*
X95421201Y-143889559D01*
X97764600Y-143886400D02*
X95424360Y-143886400D01*
D24*
X95314160Y-143996600D02*
X95424360Y-143886400D01*
X94362400Y-143996600D02*
X95314160Y-143996600D01*
D22*
G04 #@! TO.N,Net-(J2-Pad1)*
X78740000Y-132738726D02*
X78740000Y-131572000D01*
X78740000Y-134175026D02*
X78740000Y-132738726D01*
X84394274Y-139829300D02*
X78740000Y-134175026D01*
X92202000Y-139829300D02*
X84394274Y-139829300D01*
D23*
G04 #@! TO.N,Net-(J5-Pad1)*
X104190800Y-144221200D02*
X101092000Y-147320000D01*
X106857800Y-144221200D02*
X104190800Y-144221200D01*
D25*
G04 #@! TO.N,Net-(J6-Pad1)*
X107886501Y-146002991D02*
X106569492Y-147320000D01*
X106569492Y-147320000D02*
X105156000Y-147320000D01*
X107886501Y-143718279D02*
X107886501Y-146002991D01*
X107754422Y-143586200D02*
X107886501Y-143718279D01*
X106857800Y-143586200D02*
X107754422Y-143586200D01*
G04 #@! TO.N,Net-(J7-Pad1)*
X108712000Y-145906508D02*
X108712000Y-147320000D01*
X108712000Y-143713200D02*
X108712000Y-145906508D01*
X107924600Y-142925800D02*
X108712000Y-143713200D01*
X106857800Y-142925800D02*
X107924600Y-142925800D01*
D23*
G04 #@! TO.N,Net-(R2-Pad1)*
X102773000Y-140208000D02*
X102616000Y-140051000D01*
X107774500Y-140208000D02*
X102773000Y-140208000D01*
D22*
G04 #@! TO.N,Net-(RFB1-Pad1)*
X91362400Y-145666600D02*
X91362400Y-145215401D01*
X92329000Y-146633200D02*
X91362400Y-145666600D01*
X92329000Y-147220700D02*
X92329000Y-146633200D01*
X95783400Y-147220700D02*
X95811100Y-147193000D01*
X92329000Y-147220700D02*
X95783400Y-147220700D01*
G04 #@! TO.N,Net-(RFB2-Pad2)*
X95309441Y-145215401D02*
X94362400Y-145215401D01*
X95668493Y-145215401D02*
X95309441Y-145215401D01*
X97646092Y-147193000D02*
X95668493Y-145215401D01*
X97686100Y-147193000D02*
X97646092Y-147193000D01*
D25*
G04 #@! TO.N,Net-(RV1-Pad1)*
X92202000Y-141704300D02*
X92202000Y-142494000D01*
X91362400Y-143333600D02*
X91362400Y-143493699D01*
X92202000Y-142494000D02*
X91362400Y-143333600D01*
G04 #@! TD*
D26*
G04 #@! TO.N,GND*
G36*
X110440400Y-150064400D02*
X72947600Y-150064400D01*
X72947600Y-148978950D01*
X84715722Y-148978950D01*
X84715722Y-149466450D01*
X84752018Y-149648924D01*
X84855382Y-149803618D01*
X85010076Y-149906982D01*
X85192550Y-149943278D01*
X86105050Y-149943278D01*
X86232748Y-149917878D01*
X86246322Y-149923500D01*
X86473678Y-149923500D01*
X86683729Y-149836494D01*
X86844494Y-149675729D01*
X86931500Y-149465678D01*
X86931500Y-149238322D01*
X87820500Y-149238322D01*
X87820500Y-149465678D01*
X87907506Y-149675729D01*
X88068271Y-149836494D01*
X88278322Y-149923500D01*
X88505678Y-149923500D01*
X88641893Y-149867078D01*
X89158107Y-149867078D01*
X89294322Y-149923500D01*
X89521678Y-149923500D01*
X89731729Y-149836494D01*
X89892494Y-149675729D01*
X89979500Y-149465678D01*
X89979500Y-149238322D01*
X91376500Y-149238322D01*
X91376500Y-149465678D01*
X91463506Y-149675729D01*
X91624271Y-149836494D01*
X91834322Y-149923500D01*
X92061678Y-149923500D01*
X92271729Y-149836494D01*
X92291945Y-149816278D01*
X92620055Y-149816278D01*
X92640271Y-149836494D01*
X92850322Y-149923500D01*
X93077678Y-149923500D01*
X93287729Y-149836494D01*
X93448494Y-149675729D01*
X93535500Y-149465678D01*
X93535500Y-149238322D01*
X93448494Y-149028271D01*
X93287729Y-148867506D01*
X93262078Y-148856881D01*
X93262078Y-148851950D01*
X93225782Y-148669476D01*
X93122418Y-148514782D01*
X92967724Y-148411418D01*
X92785250Y-148375122D01*
X91872750Y-148375122D01*
X91690276Y-148411418D01*
X91535582Y-148514782D01*
X91432218Y-148669476D01*
X91395922Y-148851950D01*
X91395922Y-149191433D01*
X91376500Y-149238322D01*
X89979500Y-149238322D01*
X89892494Y-149028271D01*
X89833078Y-148968855D01*
X89833078Y-148902750D01*
X89796782Y-148720276D01*
X89693418Y-148565582D01*
X89538724Y-148462218D01*
X89356250Y-148425922D01*
X88443750Y-148425922D01*
X88261276Y-148462218D01*
X88106582Y-148565582D01*
X88003218Y-148720276D01*
X87966922Y-148902750D01*
X87966922Y-148968855D01*
X87907506Y-149028271D01*
X87820500Y-149238322D01*
X86931500Y-149238322D01*
X86844494Y-149028271D01*
X86683729Y-148867506D01*
X86548575Y-148811523D01*
X86545582Y-148796476D01*
X86442218Y-148641782D01*
X86287524Y-148538418D01*
X86105050Y-148502122D01*
X85192550Y-148502122D01*
X85010076Y-148538418D01*
X84855382Y-148641782D01*
X84752018Y-148796476D01*
X84715722Y-148978950D01*
X72947600Y-148978950D01*
X72947600Y-143554426D01*
X77686400Y-143554426D01*
X77686400Y-143973574D01*
X77846801Y-144360816D01*
X78143184Y-144657199D01*
X78530426Y-144817600D01*
X78949574Y-144817600D01*
X79336816Y-144657199D01*
X79595015Y-144399000D01*
X84778475Y-144399000D01*
X84879722Y-144500247D01*
X84879722Y-144779050D01*
X84916018Y-144961524D01*
X85019382Y-145116218D01*
X85174076Y-145219582D01*
X85356550Y-145255878D01*
X85844050Y-145255878D01*
X86026524Y-145219582D01*
X86181218Y-145116218D01*
X86284582Y-144961524D01*
X86320878Y-144779050D01*
X86320878Y-143866550D01*
X86284582Y-143684076D01*
X86181218Y-143529382D01*
X86026524Y-143426018D01*
X85844050Y-143389722D01*
X85565246Y-143389722D01*
X85534738Y-143359214D01*
X85499309Y-143306191D01*
X85289265Y-143165843D01*
X85104041Y-143129000D01*
X85104037Y-143129000D01*
X85041500Y-143116561D01*
X84978963Y-143129000D01*
X79595015Y-143129000D01*
X79336816Y-142870801D01*
X78949574Y-142710400D01*
X78530426Y-142710400D01*
X78143184Y-142870801D01*
X77846801Y-143167184D01*
X77686400Y-143554426D01*
X72947600Y-143554426D01*
X72947600Y-141453550D01*
X86327522Y-141453550D01*
X86327522Y-142366050D01*
X86363818Y-142548524D01*
X86413100Y-142622280D01*
X86413101Y-143833059D01*
X86400661Y-143895600D01*
X86449943Y-144143364D01*
X86458787Y-144156600D01*
X86590292Y-144353409D01*
X86643312Y-144388836D01*
X86754722Y-144500246D01*
X86754722Y-144779050D01*
X86791018Y-144961524D01*
X86894382Y-145116218D01*
X87049076Y-145219582D01*
X87231550Y-145255878D01*
X87719050Y-145255878D01*
X87901524Y-145219582D01*
X88056218Y-145116218D01*
X88159582Y-144961524D01*
X88190637Y-144805400D01*
X90344607Y-144805400D01*
X90410788Y-144792236D01*
X90469652Y-144831567D01*
X90573380Y-144852200D01*
X90573384Y-144852200D01*
X90608399Y-144859165D01*
X90629322Y-144855003D01*
X90629322Y-145156600D01*
X90647064Y-145245795D01*
X90697589Y-145321411D01*
X90727400Y-145341330D01*
X90727400Y-145604063D01*
X90714961Y-145666600D01*
X90727400Y-145729137D01*
X90727400Y-145729140D01*
X90764243Y-145914364D01*
X90904591Y-146124409D01*
X90957614Y-146159838D01*
X91496318Y-146698544D01*
X91432218Y-146794476D01*
X91395922Y-146976950D01*
X91395922Y-147464450D01*
X91432218Y-147646924D01*
X91535582Y-147801618D01*
X91690276Y-147904982D01*
X91872750Y-147941278D01*
X92785250Y-147941278D01*
X92967724Y-147904982D01*
X93041479Y-147855700D01*
X95142838Y-147855700D01*
X95230182Y-147986418D01*
X95384876Y-148089782D01*
X95567350Y-148126078D01*
X96054850Y-148126078D01*
X96237324Y-148089782D01*
X96392018Y-147986418D01*
X96495382Y-147831724D01*
X96531678Y-147649250D01*
X96531678Y-146976611D01*
X96965522Y-147410455D01*
X96965522Y-147649250D01*
X97001818Y-147831724D01*
X97105182Y-147986418D01*
X97259876Y-148089782D01*
X97442350Y-148126078D01*
X97929850Y-148126078D01*
X98112324Y-148089782D01*
X98267018Y-147986418D01*
X98370382Y-147831724D01*
X98406678Y-147649250D01*
X98406678Y-146736750D01*
X98370382Y-146554276D01*
X98267018Y-146399582D01*
X98112324Y-146296218D01*
X97929850Y-146259922D01*
X97611039Y-146259922D01*
X96161731Y-144810615D01*
X96126302Y-144757592D01*
X95916258Y-144617244D01*
X95731034Y-144580401D01*
X95731030Y-144580401D01*
X95668493Y-144567962D01*
X95605956Y-144580401D01*
X94299859Y-144580401D01*
X94183621Y-144603522D01*
X93891000Y-144603522D01*
X93891000Y-144389678D01*
X94862400Y-144389678D01*
X94951595Y-144371936D01*
X94975878Y-144355711D01*
X95173437Y-144487716D01*
X95421201Y-144536998D01*
X95499620Y-144521400D01*
X97052121Y-144521400D01*
X97125876Y-144570682D01*
X97308350Y-144606978D01*
X97587153Y-144606978D01*
X97827602Y-144847428D01*
X97863028Y-144900446D01*
X97916045Y-144935871D01*
X97916047Y-144935873D01*
X97967481Y-144970240D01*
X98073072Y-145040794D01*
X98258296Y-145077637D01*
X98258300Y-145077637D01*
X98320837Y-145090076D01*
X98383374Y-145077637D01*
X101366826Y-145077637D01*
X101429363Y-145090076D01*
X101491900Y-145077637D01*
X101491904Y-145077637D01*
X101677128Y-145040794D01*
X101725308Y-145008601D01*
X102500741Y-145008601D01*
X102685965Y-144971758D01*
X102896009Y-144831410D01*
X102995256Y-144682878D01*
X103046623Y-144682878D01*
X101549340Y-146180161D01*
X101336282Y-146091910D01*
X100847718Y-146091910D01*
X100396343Y-146278875D01*
X100050875Y-146624343D01*
X99863910Y-147075718D01*
X99863910Y-147564282D01*
X100050875Y-148015657D01*
X100396343Y-148361125D01*
X100847718Y-148548090D01*
X101336282Y-148548090D01*
X101787657Y-148361125D01*
X102133125Y-148015657D01*
X102320090Y-147564282D01*
X102320090Y-147075718D01*
X102231839Y-146862660D01*
X104390699Y-144703800D01*
X106905329Y-144703800D01*
X107010512Y-144682878D01*
X107467401Y-144682878D01*
X107467402Y-145829393D01*
X106395896Y-146900900D01*
X106311678Y-146900900D01*
X106197125Y-146624343D01*
X105851657Y-146278875D01*
X105400282Y-146091910D01*
X104911718Y-146091910D01*
X104460343Y-146278875D01*
X104114875Y-146624343D01*
X103927910Y-147075718D01*
X103927910Y-147564282D01*
X104114875Y-148015657D01*
X104460343Y-148361125D01*
X104911718Y-148548090D01*
X105400282Y-148548090D01*
X105851657Y-148361125D01*
X106197125Y-148015657D01*
X106311678Y-147739100D01*
X106528219Y-147739100D01*
X106569492Y-147747310D01*
X106610765Y-147739100D01*
X106610766Y-147739100D01*
X106733016Y-147714783D01*
X106871646Y-147622154D01*
X106895028Y-147587160D01*
X107538668Y-146943521D01*
X107483910Y-147075718D01*
X107483910Y-147564282D01*
X107670875Y-148015657D01*
X108016343Y-148361125D01*
X108467718Y-148548090D01*
X108956282Y-148548090D01*
X109407657Y-148361125D01*
X109753125Y-148015657D01*
X109940090Y-147564282D01*
X109940090Y-147075718D01*
X109753125Y-146624343D01*
X109407657Y-146278875D01*
X109131100Y-146164322D01*
X109131100Y-143754473D01*
X109139310Y-143713200D01*
X109131073Y-143671789D01*
X109106783Y-143549676D01*
X109014154Y-143411046D01*
X108979163Y-143387666D01*
X108250136Y-142658640D01*
X108226754Y-142623646D01*
X108088124Y-142531017D01*
X107965874Y-142506700D01*
X107965873Y-142506700D01*
X107924600Y-142498490D01*
X107883327Y-142506700D01*
X107669965Y-142506700D01*
X107632795Y-142481864D01*
X107543600Y-142464122D01*
X106172000Y-142464122D01*
X106082805Y-142481864D01*
X106007189Y-142532389D01*
X105956664Y-142608005D01*
X105938922Y-142697200D01*
X105938922Y-143154400D01*
X105956664Y-143243595D01*
X105964953Y-143256000D01*
X105956664Y-143268405D01*
X105938922Y-143357600D01*
X105938922Y-143738600D01*
X104238328Y-143738600D01*
X104190800Y-143729146D01*
X104143272Y-143738600D01*
X104143271Y-143738600D01*
X104002499Y-143766601D01*
X103842865Y-143873265D01*
X103815940Y-143913561D01*
X103357078Y-144372423D01*
X103357078Y-143992600D01*
X103339395Y-143903700D01*
X103357078Y-143814800D01*
X103357078Y-143357600D01*
X103339336Y-143268405D01*
X103331047Y-143256000D01*
X103339336Y-143243595D01*
X103357078Y-143154400D01*
X103357078Y-142697200D01*
X103339395Y-142608300D01*
X103357078Y-142519400D01*
X103357078Y-142062200D01*
X103339336Y-141973005D01*
X103288811Y-141897389D01*
X103213195Y-141846864D01*
X103124000Y-141829122D01*
X102590912Y-141829122D01*
X102485729Y-141808200D01*
X102180899Y-141808200D01*
X100179949Y-139807250D01*
X101682922Y-139807250D01*
X101682922Y-140294750D01*
X101719218Y-140477224D01*
X101822582Y-140631918D01*
X101977276Y-140735282D01*
X102159750Y-140771578D01*
X103072250Y-140771578D01*
X103254724Y-140735282D01*
X103321595Y-140690600D01*
X104857340Y-140690600D01*
X104870582Y-140710418D01*
X105025276Y-140813782D01*
X105207750Y-140850078D01*
X106120250Y-140850078D01*
X106302724Y-140813782D01*
X106457418Y-140710418D01*
X106470660Y-140690600D01*
X107059163Y-140690600D01*
X107090218Y-140846724D01*
X107193582Y-141001418D01*
X107348276Y-141104782D01*
X107530750Y-141141078D01*
X108018250Y-141141078D01*
X108200724Y-141104782D01*
X108355418Y-141001418D01*
X108458782Y-140846724D01*
X108495078Y-140664250D01*
X108495078Y-139751750D01*
X108458782Y-139569276D01*
X108355418Y-139414582D01*
X108200724Y-139311218D01*
X108018250Y-139274922D01*
X107530750Y-139274922D01*
X107348276Y-139311218D01*
X107193582Y-139414582D01*
X107090218Y-139569276D01*
X107059163Y-139725400D01*
X106565183Y-139725400D01*
X106560782Y-139703276D01*
X106457418Y-139548582D01*
X106302724Y-139445218D01*
X106120250Y-139408922D01*
X105207750Y-139408922D01*
X105025276Y-139445218D01*
X104870582Y-139548582D01*
X104767218Y-139703276D01*
X104762817Y-139725400D01*
X103532797Y-139725400D01*
X103512782Y-139624776D01*
X103409418Y-139470082D01*
X103254724Y-139366718D01*
X103072250Y-139330422D01*
X102159750Y-139330422D01*
X101977276Y-139366718D01*
X101822582Y-139470082D01*
X101719218Y-139624776D01*
X101682922Y-139807250D01*
X100179949Y-139807250D01*
X98819331Y-138446633D01*
X98824678Y-138419750D01*
X98824678Y-138062322D01*
X101282500Y-138062322D01*
X101282500Y-138289678D01*
X101369506Y-138499729D01*
X101530271Y-138660494D01*
X101740322Y-138747500D01*
X101816289Y-138747500D01*
X101822582Y-138756918D01*
X101977276Y-138860282D01*
X102159750Y-138896578D01*
X103072250Y-138896578D01*
X103254724Y-138860282D01*
X103409418Y-138756918D01*
X103512782Y-138602224D01*
X103549078Y-138419750D01*
X103549078Y-137932250D01*
X103512782Y-137749776D01*
X103409418Y-137595082D01*
X103254724Y-137491718D01*
X103072250Y-137455422D01*
X102159750Y-137455422D01*
X101977276Y-137491718D01*
X101822582Y-137595082D01*
X101816289Y-137604500D01*
X101740322Y-137604500D01*
X101530271Y-137691506D01*
X101369506Y-137852271D01*
X101282500Y-138062322D01*
X98824678Y-138062322D01*
X98824678Y-137932250D01*
X98788382Y-137749776D01*
X98685018Y-137595082D01*
X98530324Y-137491718D01*
X98347850Y-137455422D01*
X98069046Y-137455422D01*
X98029238Y-137415614D01*
X97993809Y-137362591D01*
X97783765Y-137222243D01*
X97598541Y-137185400D01*
X97598537Y-137185400D01*
X97536000Y-137172961D01*
X97473463Y-137185400D01*
X96544623Y-137185400D01*
X96543882Y-137181676D01*
X96494600Y-137107921D01*
X96494600Y-136843459D01*
X96457757Y-136658235D01*
X96317409Y-136448191D01*
X96253761Y-136405662D01*
X96344094Y-136315329D01*
X96431100Y-136105278D01*
X96431100Y-135877922D01*
X96344094Y-135667871D01*
X96183329Y-135507106D01*
X95973278Y-135420100D01*
X95889860Y-135420100D01*
X95897439Y-135381999D01*
X95848157Y-135134235D01*
X95743235Y-134977210D01*
X93684578Y-132918554D01*
X93684578Y-132639750D01*
X93648282Y-132457276D01*
X93544918Y-132302582D01*
X93390224Y-132199218D01*
X93207750Y-132162922D01*
X92928947Y-132162922D01*
X92887800Y-132121775D01*
X92887800Y-131500278D01*
X92976995Y-131482536D01*
X93052611Y-131432011D01*
X93103136Y-131356395D01*
X93120878Y-131267200D01*
X93120878Y-131102902D01*
X93410565Y-131392591D01*
X93445991Y-131445609D01*
X93499008Y-131481034D01*
X93499010Y-131481036D01*
X93613050Y-131557235D01*
X93656035Y-131585957D01*
X93841259Y-131622800D01*
X93841263Y-131622800D01*
X93903800Y-131635239D01*
X93966337Y-131622800D01*
X94753741Y-131622800D01*
X94938965Y-131585957D01*
X95067192Y-131500278D01*
X95326200Y-131500278D01*
X95415395Y-131482536D01*
X95491011Y-131432011D01*
X95541536Y-131356395D01*
X95559278Y-131267200D01*
X95559278Y-130708400D01*
X95541536Y-130619205D01*
X95491011Y-130543589D01*
X95415395Y-130493064D01*
X95326200Y-130475322D01*
X95067192Y-130475322D01*
X94938965Y-130389643D01*
X94753741Y-130352800D01*
X94166825Y-130352800D01*
X94132399Y-130318374D01*
X94132399Y-130110536D01*
X94144838Y-130047999D01*
X94132399Y-129985460D01*
X94132399Y-129743200D01*
X94857263Y-129743200D01*
X94919800Y-129755639D01*
X94982337Y-129743200D01*
X94982341Y-129743200D01*
X95167565Y-129706357D01*
X95295792Y-129620678D01*
X95326200Y-129620678D01*
X95415395Y-129602936D01*
X95491011Y-129552411D01*
X95541536Y-129476795D01*
X95559278Y-129387600D01*
X95559278Y-129366746D01*
X96484947Y-128441078D01*
X96763750Y-128441078D01*
X96946224Y-128404782D01*
X97100918Y-128301418D01*
X97204282Y-128146724D01*
X97205023Y-128143000D01*
X98321476Y-128143000D01*
X99317656Y-129139180D01*
X99308661Y-129184400D01*
X99321101Y-129246941D01*
X99321100Y-130373722D01*
X99295700Y-130373722D01*
X99206505Y-130391464D01*
X99130889Y-130441989D01*
X99080364Y-130517605D01*
X99062622Y-130606800D01*
X99062622Y-131165600D01*
X99080364Y-131254795D01*
X99130889Y-131330411D01*
X99169335Y-131356100D01*
X99130889Y-131381789D01*
X99080364Y-131457405D01*
X99062622Y-131546600D01*
X99062622Y-132105400D01*
X99080364Y-132194595D01*
X99130889Y-132270211D01*
X99169335Y-132295900D01*
X99130889Y-132321589D01*
X99080364Y-132397205D01*
X99062622Y-132486400D01*
X99062622Y-133045200D01*
X99080364Y-133134395D01*
X99130889Y-133210011D01*
X99206505Y-133260536D01*
X99295700Y-133278278D01*
X99542080Y-133278278D01*
X99551313Y-133284448D01*
X99552001Y-133285135D01*
X99552000Y-133907520D01*
X99502718Y-133981276D01*
X99466422Y-134163750D01*
X99466422Y-135076250D01*
X99502718Y-135258724D01*
X99606082Y-135413418D01*
X99760776Y-135516782D01*
X99943250Y-135553078D01*
X100430750Y-135553078D01*
X100613224Y-135516782D01*
X100767918Y-135413418D01*
X100871282Y-135258724D01*
X100907578Y-135076250D01*
X100907578Y-134163750D01*
X100871282Y-133981276D01*
X100822000Y-133907521D01*
X100822000Y-133400800D01*
X102626401Y-133400800D01*
X102641400Y-133415799D01*
X102641401Y-134826468D01*
X102631946Y-134874000D01*
X102652649Y-134978077D01*
X102669402Y-135062301D01*
X102776066Y-135221935D01*
X102816362Y-135248860D01*
X103942940Y-136375439D01*
X103969865Y-136415735D01*
X104129499Y-136522399D01*
X104270271Y-136550400D01*
X104317799Y-136559854D01*
X104365327Y-136550400D01*
X104718442Y-136550400D01*
X104736605Y-136562536D01*
X104825800Y-136580278D01*
X106019602Y-136580278D01*
X106019602Y-136995591D01*
X106008964Y-137011511D01*
X105486554Y-137533922D01*
X105207750Y-137533922D01*
X105025276Y-137570218D01*
X104870582Y-137673582D01*
X104767218Y-137828276D01*
X104730922Y-138010750D01*
X104730922Y-138498250D01*
X104767218Y-138680724D01*
X104870582Y-138835418D01*
X105025276Y-138938782D01*
X105207750Y-138975078D01*
X106120250Y-138975078D01*
X106302724Y-138938782D01*
X106457418Y-138835418D01*
X106560782Y-138680724D01*
X106597078Y-138498250D01*
X106597078Y-138219447D01*
X106758500Y-138058025D01*
X107053922Y-138353447D01*
X107053922Y-138632250D01*
X107090218Y-138814724D01*
X107193582Y-138969418D01*
X107348276Y-139072782D01*
X107530750Y-139109078D01*
X108018250Y-139109078D01*
X108200724Y-139072782D01*
X108355418Y-138969418D01*
X108458782Y-138814724D01*
X108495078Y-138632250D01*
X108495078Y-137719750D01*
X108458782Y-137537276D01*
X108434880Y-137501505D01*
X108928922Y-137995547D01*
X108928922Y-138632250D01*
X108965218Y-138814724D01*
X109014500Y-138888480D01*
X109014501Y-139495520D01*
X108965218Y-139569276D01*
X108928922Y-139751750D01*
X108928922Y-140664250D01*
X108965218Y-140846724D01*
X109068582Y-141001418D01*
X109223276Y-141104782D01*
X109405750Y-141141078D01*
X109893250Y-141141078D01*
X110075724Y-141104782D01*
X110230418Y-141001418D01*
X110333782Y-140846724D01*
X110370078Y-140664250D01*
X110370078Y-139751750D01*
X110333782Y-139569276D01*
X110284500Y-139495521D01*
X110284500Y-138888479D01*
X110333782Y-138814724D01*
X110370078Y-138632250D01*
X110370078Y-137719750D01*
X110333782Y-137537276D01*
X110230418Y-137382582D01*
X110075724Y-137279218D01*
X109991987Y-137262562D01*
X108767278Y-136037854D01*
X108767278Y-135788400D01*
X108749536Y-135699205D01*
X108699011Y-135623589D01*
X108623395Y-135573064D01*
X108534200Y-135555322D01*
X108275190Y-135555322D01*
X108146964Y-135469643D01*
X107899200Y-135420361D01*
X107651436Y-135469643D01*
X107523209Y-135555322D01*
X107264200Y-135555322D01*
X107175005Y-135573064D01*
X107099389Y-135623589D01*
X107048864Y-135699205D01*
X107031122Y-135788400D01*
X107031122Y-136347200D01*
X107048864Y-136436395D01*
X107099389Y-136512011D01*
X107175005Y-136562536D01*
X107264200Y-136580278D01*
X107513654Y-136580278D01*
X108236495Y-137303120D01*
X108200724Y-137279218D01*
X108018250Y-137242922D01*
X107739446Y-137242922D01*
X107508037Y-137011513D01*
X107472608Y-136958490D01*
X107262564Y-136818142D01*
X107077340Y-136781299D01*
X107077336Y-136781299D01*
X107014799Y-136768860D01*
X106984801Y-136774827D01*
X106984801Y-134571006D01*
X106994255Y-134523478D01*
X106968251Y-134392747D01*
X106956800Y-134335178D01*
X106850136Y-134175544D01*
X106809840Y-134148619D01*
X106541783Y-133880563D01*
X106514857Y-133840265D01*
X106355223Y-133733601D01*
X106214451Y-133705600D01*
X106214450Y-133705600D01*
X106198371Y-133702402D01*
X106184995Y-133693464D01*
X106095800Y-133675722D01*
X104825800Y-133675722D01*
X104736605Y-133693464D01*
X104660989Y-133743989D01*
X104610464Y-133819605D01*
X104592722Y-133908800D01*
X104592722Y-134467600D01*
X104610464Y-134556795D01*
X104660989Y-134632411D01*
X104736605Y-134682936D01*
X104825800Y-134700678D01*
X105996901Y-134700678D01*
X106019601Y-134723378D01*
X106019601Y-135555322D01*
X104825800Y-135555322D01*
X104736605Y-135573064D01*
X104718442Y-135585200D01*
X104517699Y-135585200D01*
X103606600Y-134674102D01*
X103606600Y-133263429D01*
X103616054Y-133215900D01*
X103578599Y-133027599D01*
X103498858Y-132908258D01*
X103471935Y-132867965D01*
X103431642Y-132841042D01*
X103312635Y-132722036D01*
X103272057Y-132518035D01*
X103131709Y-132307991D01*
X102921665Y-132167643D01*
X102736441Y-132130800D01*
X100844526Y-132130800D01*
X100849578Y-132105400D01*
X100849578Y-131546600D01*
X100831836Y-131457405D01*
X100781311Y-131381789D01*
X100742865Y-131356100D01*
X100781311Y-131330411D01*
X100831836Y-131254795D01*
X100849578Y-131165600D01*
X100849578Y-130606800D01*
X100831836Y-130517605D01*
X100781311Y-130441989D01*
X100705695Y-130391464D01*
X100616500Y-130373722D01*
X100591100Y-130373722D01*
X100591100Y-129891112D01*
X100689418Y-129825418D01*
X100792782Y-129670724D01*
X100829078Y-129488250D01*
X100829078Y-128575750D01*
X106896922Y-128575750D01*
X106896922Y-129488250D01*
X106933218Y-129670724D01*
X107036582Y-129825418D01*
X107191276Y-129928782D01*
X107264201Y-129943288D01*
X107264200Y-133412540D01*
X107301043Y-133597764D01*
X107353133Y-133675722D01*
X107264200Y-133675722D01*
X107175005Y-133693464D01*
X107099389Y-133743989D01*
X107048864Y-133819605D01*
X107031122Y-133908800D01*
X107031122Y-134467600D01*
X107048864Y-134556795D01*
X107099389Y-134632411D01*
X107175005Y-134682936D01*
X107264200Y-134700678D01*
X107643030Y-134700678D01*
X107785522Y-134759700D01*
X108012878Y-134759700D01*
X108155370Y-134700678D01*
X108534200Y-134700678D01*
X108623395Y-134682936D01*
X108699011Y-134632411D01*
X108749536Y-134556795D01*
X108767278Y-134467600D01*
X108767278Y-133908800D01*
X108749536Y-133819605D01*
X108699011Y-133743989D01*
X108623395Y-133693464D01*
X108534200Y-133675722D01*
X108445267Y-133675722D01*
X108497357Y-133597765D01*
X108534200Y-133412541D01*
X108534200Y-129376237D01*
X108546639Y-129313700D01*
X108534200Y-129251163D01*
X108534200Y-129251159D01*
X108497357Y-129065935D01*
X108357009Y-128855891D01*
X108338078Y-128843242D01*
X108338078Y-128575750D01*
X108301782Y-128393276D01*
X108198418Y-128238582D01*
X108043724Y-128135218D01*
X107861250Y-128098922D01*
X107373750Y-128098922D01*
X107191276Y-128135218D01*
X107036582Y-128238582D01*
X106933218Y-128393276D01*
X106896922Y-128575750D01*
X100829078Y-128575750D01*
X100792782Y-128393276D01*
X100689418Y-128238582D01*
X100534724Y-128135218D01*
X100352250Y-128098922D01*
X100073447Y-128098922D01*
X99077738Y-127103214D01*
X99042309Y-127050191D01*
X98832265Y-126909843D01*
X98647041Y-126873000D01*
X98647037Y-126873000D01*
X98584500Y-126860561D01*
X98521963Y-126873000D01*
X97205023Y-126873000D01*
X97204282Y-126869276D01*
X97100918Y-126714582D01*
X96946224Y-126611218D01*
X96763750Y-126574922D01*
X96276250Y-126574922D01*
X96093776Y-126611218D01*
X95939082Y-126714582D01*
X95835718Y-126869276D01*
X95799422Y-127051750D01*
X95799422Y-127330552D01*
X94656776Y-128473200D01*
X93773294Y-128473200D01*
X93710757Y-128460761D01*
X93648220Y-128473200D01*
X93648217Y-128473200D01*
X93462993Y-128510043D01*
X93252949Y-128650391D01*
X93217520Y-128703414D01*
X93116109Y-128804825D01*
X93103136Y-128739605D01*
X93052611Y-128663989D01*
X92976995Y-128613464D01*
X92887800Y-128595722D01*
X91617800Y-128595722D01*
X91528605Y-128613464D01*
X91510442Y-128625600D01*
X91288625Y-128625600D01*
X90765987Y-128102962D01*
X90793578Y-127964250D01*
X90793578Y-127051750D01*
X90757282Y-126869276D01*
X90653918Y-126714582D01*
X90499224Y-126611218D01*
X90316750Y-126574922D01*
X89829250Y-126574922D01*
X89646776Y-126611218D01*
X89492082Y-126714582D01*
X89388718Y-126869276D01*
X89352422Y-127051750D01*
X89352422Y-127964250D01*
X89388718Y-128146724D01*
X89438000Y-128220479D01*
X89438000Y-128245463D01*
X89425561Y-128308000D01*
X89438000Y-128370537D01*
X89438000Y-128370541D01*
X89450592Y-128433843D01*
X89474843Y-128555764D01*
X89548675Y-128666260D01*
X89615192Y-128765809D01*
X89668212Y-128801236D01*
X90254565Y-129387590D01*
X88680435Y-129387590D01*
X88428058Y-129135214D01*
X88412702Y-129112232D01*
X88412702Y-128574250D01*
X88473359Y-128549125D01*
X88818827Y-128203657D01*
X89005792Y-127752282D01*
X89005792Y-127263718D01*
X88818827Y-126812343D01*
X88473359Y-126466875D01*
X88021984Y-126279910D01*
X87533420Y-126279910D01*
X87082045Y-126466875D01*
X86736577Y-126812343D01*
X86549612Y-127263718D01*
X86549612Y-127752282D01*
X86736577Y-128203657D01*
X87082045Y-128549125D01*
X87142703Y-128574250D01*
X87142703Y-129477454D01*
X87130262Y-129540000D01*
X87142702Y-129602541D01*
X87142703Y-130130922D01*
X87132250Y-130130922D01*
X86949776Y-130167218D01*
X86795082Y-130270582D01*
X86691718Y-130425276D01*
X86655422Y-130607750D01*
X86655422Y-131520250D01*
X86691718Y-131702724D01*
X86795082Y-131857418D01*
X86949401Y-131960531D01*
X86949400Y-132520922D01*
X86837000Y-132520922D01*
X86747805Y-132538664D01*
X86672189Y-132589189D01*
X86621664Y-132664805D01*
X86603922Y-132754000D01*
X86603922Y-133154000D01*
X86621664Y-133243195D01*
X86672189Y-133318811D01*
X86747805Y-133369336D01*
X86837000Y-133387078D01*
X87211491Y-133387078D01*
X87243699Y-133408599D01*
X87432000Y-133446054D01*
X87620300Y-133408599D01*
X87652509Y-133387078D01*
X87950801Y-133387078D01*
X87950802Y-133820922D01*
X86837000Y-133820922D01*
X86747805Y-133838664D01*
X86672189Y-133889189D01*
X86621664Y-133964805D01*
X86603922Y-134054000D01*
X86603922Y-134454000D01*
X86621664Y-134543195D01*
X86672189Y-134618811D01*
X86747805Y-134669336D01*
X86837000Y-134687078D01*
X88027000Y-134687078D01*
X88116195Y-134669336D01*
X88191811Y-134618811D01*
X88197966Y-134609600D01*
X88245980Y-134609600D01*
X88281000Y-134616566D01*
X88316020Y-134609600D01*
X88419748Y-134588967D01*
X88535398Y-134511693D01*
X88541664Y-134543195D01*
X88592189Y-134618811D01*
X88667805Y-134669336D01*
X88717001Y-134679122D01*
X88717001Y-135210922D01*
X88656250Y-135210922D01*
X88473776Y-135247218D01*
X88319082Y-135350582D01*
X88215718Y-135505276D01*
X88179422Y-135687750D01*
X88179422Y-136600250D01*
X88215718Y-136782724D01*
X88319082Y-136937418D01*
X88473776Y-137040782D01*
X88656250Y-137077078D01*
X89143750Y-137077078D01*
X89326224Y-137040782D01*
X89480918Y-136937418D01*
X89584282Y-136782724D01*
X89585023Y-136779000D01*
X90518463Y-136779000D01*
X90581000Y-136791439D01*
X90643537Y-136779000D01*
X90643541Y-136779000D01*
X90828765Y-136742157D01*
X91038809Y-136601809D01*
X91074238Y-136548786D01*
X91109446Y-136513578D01*
X91388250Y-136513578D01*
X91570724Y-136477282D01*
X91725418Y-136373918D01*
X91828782Y-136219224D01*
X91865078Y-136036750D01*
X91865078Y-135549250D01*
X91828782Y-135366776D01*
X91725418Y-135212082D01*
X91570724Y-135108718D01*
X91388250Y-135072422D01*
X90475750Y-135072422D01*
X90293276Y-135108718D01*
X90138582Y-135212082D01*
X90035218Y-135366776D01*
X90006928Y-135509000D01*
X89987000Y-135509000D01*
X89987000Y-134679122D01*
X90036195Y-134669336D01*
X90111811Y-134618811D01*
X90162336Y-134543195D01*
X90180078Y-134454000D01*
X90180078Y-134054000D01*
X90162336Y-133964805D01*
X90111811Y-133889189D01*
X90036195Y-133838664D01*
X89987000Y-133828878D01*
X89987000Y-133379122D01*
X90036195Y-133369336D01*
X90111811Y-133318811D01*
X90162336Y-133243195D01*
X90180078Y-133154000D01*
X90180078Y-132754000D01*
X90162336Y-132664805D01*
X90111811Y-132589189D01*
X90036195Y-132538664D01*
X89947000Y-132520922D01*
X89826334Y-132520922D01*
X89809809Y-132496191D01*
X89599764Y-132355843D01*
X89352000Y-132306560D01*
X89104235Y-132355843D01*
X88894191Y-132496191D01*
X88877666Y-132520922D01*
X88757000Y-132520922D01*
X88667805Y-132538664D01*
X88592189Y-132589189D01*
X88541664Y-132664805D01*
X88535398Y-132696307D01*
X88419748Y-132619033D01*
X88316020Y-132598400D01*
X88281000Y-132591434D01*
X88245980Y-132598400D01*
X88197966Y-132598400D01*
X88191811Y-132589189D01*
X88116195Y-132538664D01*
X88027000Y-132520922D01*
X87914600Y-132520922D01*
X87914600Y-131885694D01*
X87956918Y-131857418D01*
X88060282Y-131702724D01*
X88096578Y-131520250D01*
X88096578Y-131241447D01*
X88182491Y-131155534D01*
X88235511Y-131120107D01*
X88270937Y-131067088D01*
X88425473Y-130912553D01*
X88425477Y-130912547D01*
X88680435Y-130657590D01*
X91394829Y-130657590D01*
X91384722Y-130708400D01*
X91384722Y-131267200D01*
X91402464Y-131356395D01*
X91452989Y-131432011D01*
X91528605Y-131482536D01*
X91617800Y-131500278D01*
X91617801Y-132322259D01*
X91605361Y-132384800D01*
X91654643Y-132632564D01*
X91698117Y-132697627D01*
X91794992Y-132842609D01*
X91848012Y-132878036D01*
X92243422Y-133273447D01*
X92243422Y-133552250D01*
X92279718Y-133734724D01*
X92383082Y-133889418D01*
X92537776Y-133992782D01*
X92720250Y-134029078D01*
X92999054Y-134029078D01*
X94845210Y-135875235D01*
X95002235Y-135980157D01*
X95249999Y-136029439D01*
X95288100Y-136021860D01*
X95288100Y-136105278D01*
X95375106Y-136315329D01*
X95465440Y-136405663D01*
X95401792Y-136448191D01*
X95261444Y-136658235D01*
X95224601Y-136843459D01*
X95224601Y-137107920D01*
X95175318Y-137181676D01*
X95139022Y-137364150D01*
X95139022Y-138276650D01*
X95175318Y-138459124D01*
X95278682Y-138613818D01*
X95433376Y-138717182D01*
X95615850Y-138753478D01*
X96103350Y-138753478D01*
X96285824Y-138717182D01*
X96440518Y-138613818D01*
X96543882Y-138459124D01*
X96544623Y-138455400D01*
X96965613Y-138455400D01*
X96994818Y-138602224D01*
X97098182Y-138756918D01*
X97252876Y-138860282D01*
X97435350Y-138896578D01*
X97904280Y-138896578D01*
X101519322Y-142511621D01*
X101519322Y-142519400D01*
X101537005Y-142608300D01*
X101519322Y-142697200D01*
X101519322Y-143154400D01*
X101537064Y-143243595D01*
X101545353Y-143256000D01*
X101537064Y-143268405D01*
X101519322Y-143357600D01*
X101519322Y-143730324D01*
X101498399Y-143726162D01*
X101435862Y-143738601D01*
X101435858Y-143738601D01*
X101250634Y-143775444D01*
X101202454Y-143807637D01*
X98697678Y-143807637D01*
X98697678Y-143642650D01*
X98661382Y-143460176D01*
X98558018Y-143305482D01*
X98403324Y-143202118D01*
X98220850Y-143165822D01*
X97308350Y-143165822D01*
X97125876Y-143202118D01*
X97052121Y-143251400D01*
X95486901Y-143251400D01*
X95424360Y-143238960D01*
X95361819Y-143251400D01*
X95176595Y-143288243D01*
X95095478Y-143342444D01*
X95095478Y-143336600D01*
X95077736Y-143247405D01*
X95027211Y-143171789D01*
X94951595Y-143121264D01*
X94862400Y-143103522D01*
X94849108Y-143103522D01*
X94816999Y-142942098D01*
X94763263Y-142861678D01*
X94710335Y-142782465D01*
X94670039Y-142755540D01*
X94467200Y-142552702D01*
X94467200Y-142134830D01*
X94537824Y-142120782D01*
X94692518Y-142017418D01*
X94795882Y-141862724D01*
X94832178Y-141680250D01*
X94832178Y-140767750D01*
X94795882Y-140585276D01*
X94692518Y-140430582D01*
X94537824Y-140327218D01*
X94467200Y-140313170D01*
X94467200Y-138679512D01*
X94565518Y-138613818D01*
X94668882Y-138459124D01*
X94705178Y-138276650D01*
X94705178Y-137364150D01*
X94668882Y-137181676D01*
X94565518Y-137026982D01*
X94410824Y-136923618D01*
X94228350Y-136887322D01*
X93740850Y-136887322D01*
X93558376Y-136923618D01*
X93403682Y-137026982D01*
X93300318Y-137181676D01*
X93264022Y-137364150D01*
X93264022Y-138276650D01*
X93300318Y-138459124D01*
X93403682Y-138613818D01*
X93502000Y-138679513D01*
X93502001Y-140473507D01*
X93427318Y-140585276D01*
X93391022Y-140767750D01*
X93391022Y-141680250D01*
X93427318Y-141862724D01*
X93502001Y-141974494D01*
X93502001Y-142705067D01*
X93492546Y-142752600D01*
X93526105Y-142921310D01*
X93530002Y-142940901D01*
X93614927Y-143068000D01*
X92220697Y-143068000D01*
X92469163Y-142819534D01*
X92504154Y-142796154D01*
X92596783Y-142657524D01*
X92621100Y-142535274D01*
X92621100Y-142535273D01*
X92629310Y-142494000D01*
X92621100Y-142452727D01*
X92621100Y-142424878D01*
X92658250Y-142424878D01*
X92840724Y-142388582D01*
X92995418Y-142285218D01*
X93098782Y-142130524D01*
X93135078Y-141948050D01*
X93135078Y-141460550D01*
X93098782Y-141278076D01*
X92995418Y-141123382D01*
X92840724Y-141020018D01*
X92658250Y-140983722D01*
X91745750Y-140983722D01*
X91563276Y-141020018D01*
X91408582Y-141123382D01*
X91305218Y-141278076D01*
X91268922Y-141460550D01*
X91268922Y-141948050D01*
X91305218Y-142130524D01*
X91408582Y-142285218D01*
X91563276Y-142388582D01*
X91689595Y-142413708D01*
X91095240Y-143008064D01*
X91060246Y-143031446D01*
X91012087Y-143103522D01*
X90862400Y-143103522D01*
X90773205Y-143121264D01*
X90697589Y-143171789D01*
X90647064Y-143247405D01*
X90634068Y-143312739D01*
X90564159Y-143242830D01*
X90540777Y-143207836D01*
X90402147Y-143115207D01*
X90279897Y-143090890D01*
X90279896Y-143090890D01*
X90238623Y-143082680D01*
X90201409Y-143090083D01*
X89616087Y-142504762D01*
X89643678Y-142366050D01*
X89643678Y-141453550D01*
X89607382Y-141271076D01*
X89504018Y-141116382D01*
X89349324Y-141013018D01*
X89166850Y-140976722D01*
X88679350Y-140976722D01*
X88496876Y-141013018D01*
X88342182Y-141116382D01*
X88238818Y-141271076D01*
X88202522Y-141453550D01*
X88202522Y-142366050D01*
X88238818Y-142548524D01*
X88327222Y-142680829D01*
X88313861Y-142748000D01*
X88363143Y-142995764D01*
X88468065Y-143152789D01*
X89155474Y-143840200D01*
X88190637Y-143840200D01*
X88159582Y-143684076D01*
X88056218Y-143529382D01*
X87901524Y-143426018D01*
X87719050Y-143389722D01*
X87683100Y-143389722D01*
X87683100Y-142622279D01*
X87732382Y-142548524D01*
X87768678Y-142366050D01*
X87768678Y-141453550D01*
X87732382Y-141271076D01*
X87629018Y-141116382D01*
X87474324Y-141013018D01*
X87291850Y-140976722D01*
X86804350Y-140976722D01*
X86621876Y-141013018D01*
X86467182Y-141116382D01*
X86363818Y-141271076D01*
X86327522Y-141453550D01*
X72947600Y-141453550D01*
X72947600Y-131362426D01*
X77686400Y-131362426D01*
X77686400Y-131781574D01*
X77846801Y-132168816D01*
X78105000Y-132427015D01*
X78105000Y-132801266D01*
X78105001Y-132801271D01*
X78105000Y-134112489D01*
X78092561Y-134175026D01*
X78105000Y-134237563D01*
X78105000Y-134237566D01*
X78141843Y-134422790D01*
X78282191Y-134632835D01*
X78335214Y-134668264D01*
X83901038Y-140234089D01*
X83936465Y-140287109D01*
X84146509Y-140427457D01*
X84331733Y-140464300D01*
X84331737Y-140464300D01*
X84394274Y-140476739D01*
X84456811Y-140464300D01*
X91489521Y-140464300D01*
X91563276Y-140513582D01*
X91745750Y-140549878D01*
X92658250Y-140549878D01*
X92840724Y-140513582D01*
X92995418Y-140410218D01*
X93098782Y-140255524D01*
X93135078Y-140073050D01*
X93135078Y-139585550D01*
X93098782Y-139403076D01*
X92995418Y-139248382D01*
X92840724Y-139145018D01*
X92658250Y-139108722D01*
X91745750Y-139108722D01*
X91563276Y-139145018D01*
X91489521Y-139194300D01*
X84657299Y-139194300D01*
X82887249Y-137424250D01*
X89998922Y-137424250D01*
X89998922Y-137911750D01*
X90035218Y-138094224D01*
X90138582Y-138248918D01*
X90293276Y-138352282D01*
X90475750Y-138388578D01*
X91163466Y-138388578D01*
X91209506Y-138499729D01*
X91370271Y-138660494D01*
X91580322Y-138747500D01*
X91807678Y-138747500D01*
X92017729Y-138660494D01*
X92178494Y-138499729D01*
X92265500Y-138289678D01*
X92265500Y-138062322D01*
X92178494Y-137852271D01*
X92017729Y-137691506D01*
X91865078Y-137628276D01*
X91865078Y-137424250D01*
X91828782Y-137241776D01*
X91725418Y-137087082D01*
X91570724Y-136983718D01*
X91388250Y-136947422D01*
X90475750Y-136947422D01*
X90293276Y-136983718D01*
X90138582Y-137087082D01*
X90035218Y-137241776D01*
X89998922Y-137424250D01*
X82887249Y-137424250D01*
X79375000Y-133912002D01*
X79375000Y-132427015D01*
X79633199Y-132168816D01*
X79793600Y-131781574D01*
X79793600Y-131362426D01*
X79633199Y-130975184D01*
X79336816Y-130678801D01*
X78949574Y-130518400D01*
X78530426Y-130518400D01*
X78143184Y-130678801D01*
X77846801Y-130975184D01*
X77686400Y-131362426D01*
X72947600Y-131362426D01*
X72947600Y-125271600D01*
X110440401Y-125271600D01*
X110440400Y-150064400D01*
X110440400Y-150064400D01*
G37*
X110440400Y-150064400D02*
X72947600Y-150064400D01*
X72947600Y-148978950D01*
X84715722Y-148978950D01*
X84715722Y-149466450D01*
X84752018Y-149648924D01*
X84855382Y-149803618D01*
X85010076Y-149906982D01*
X85192550Y-149943278D01*
X86105050Y-149943278D01*
X86232748Y-149917878D01*
X86246322Y-149923500D01*
X86473678Y-149923500D01*
X86683729Y-149836494D01*
X86844494Y-149675729D01*
X86931500Y-149465678D01*
X86931500Y-149238322D01*
X87820500Y-149238322D01*
X87820500Y-149465678D01*
X87907506Y-149675729D01*
X88068271Y-149836494D01*
X88278322Y-149923500D01*
X88505678Y-149923500D01*
X88641893Y-149867078D01*
X89158107Y-149867078D01*
X89294322Y-149923500D01*
X89521678Y-149923500D01*
X89731729Y-149836494D01*
X89892494Y-149675729D01*
X89979500Y-149465678D01*
X89979500Y-149238322D01*
X91376500Y-149238322D01*
X91376500Y-149465678D01*
X91463506Y-149675729D01*
X91624271Y-149836494D01*
X91834322Y-149923500D01*
X92061678Y-149923500D01*
X92271729Y-149836494D01*
X92291945Y-149816278D01*
X92620055Y-149816278D01*
X92640271Y-149836494D01*
X92850322Y-149923500D01*
X93077678Y-149923500D01*
X93287729Y-149836494D01*
X93448494Y-149675729D01*
X93535500Y-149465678D01*
X93535500Y-149238322D01*
X93448494Y-149028271D01*
X93287729Y-148867506D01*
X93262078Y-148856881D01*
X93262078Y-148851950D01*
X93225782Y-148669476D01*
X93122418Y-148514782D01*
X92967724Y-148411418D01*
X92785250Y-148375122D01*
X91872750Y-148375122D01*
X91690276Y-148411418D01*
X91535582Y-148514782D01*
X91432218Y-148669476D01*
X91395922Y-148851950D01*
X91395922Y-149191433D01*
X91376500Y-149238322D01*
X89979500Y-149238322D01*
X89892494Y-149028271D01*
X89833078Y-148968855D01*
X89833078Y-148902750D01*
X89796782Y-148720276D01*
X89693418Y-148565582D01*
X89538724Y-148462218D01*
X89356250Y-148425922D01*
X88443750Y-148425922D01*
X88261276Y-148462218D01*
X88106582Y-148565582D01*
X88003218Y-148720276D01*
X87966922Y-148902750D01*
X87966922Y-148968855D01*
X87907506Y-149028271D01*
X87820500Y-149238322D01*
X86931500Y-149238322D01*
X86844494Y-149028271D01*
X86683729Y-148867506D01*
X86548575Y-148811523D01*
X86545582Y-148796476D01*
X86442218Y-148641782D01*
X86287524Y-148538418D01*
X86105050Y-148502122D01*
X85192550Y-148502122D01*
X85010076Y-148538418D01*
X84855382Y-148641782D01*
X84752018Y-148796476D01*
X84715722Y-148978950D01*
X72947600Y-148978950D01*
X72947600Y-143554426D01*
X77686400Y-143554426D01*
X77686400Y-143973574D01*
X77846801Y-144360816D01*
X78143184Y-144657199D01*
X78530426Y-144817600D01*
X78949574Y-144817600D01*
X79336816Y-144657199D01*
X79595015Y-144399000D01*
X84778475Y-144399000D01*
X84879722Y-144500247D01*
X84879722Y-144779050D01*
X84916018Y-144961524D01*
X85019382Y-145116218D01*
X85174076Y-145219582D01*
X85356550Y-145255878D01*
X85844050Y-145255878D01*
X86026524Y-145219582D01*
X86181218Y-145116218D01*
X86284582Y-144961524D01*
X86320878Y-144779050D01*
X86320878Y-143866550D01*
X86284582Y-143684076D01*
X86181218Y-143529382D01*
X86026524Y-143426018D01*
X85844050Y-143389722D01*
X85565246Y-143389722D01*
X85534738Y-143359214D01*
X85499309Y-143306191D01*
X85289265Y-143165843D01*
X85104041Y-143129000D01*
X85104037Y-143129000D01*
X85041500Y-143116561D01*
X84978963Y-143129000D01*
X79595015Y-143129000D01*
X79336816Y-142870801D01*
X78949574Y-142710400D01*
X78530426Y-142710400D01*
X78143184Y-142870801D01*
X77846801Y-143167184D01*
X77686400Y-143554426D01*
X72947600Y-143554426D01*
X72947600Y-141453550D01*
X86327522Y-141453550D01*
X86327522Y-142366050D01*
X86363818Y-142548524D01*
X86413100Y-142622280D01*
X86413101Y-143833059D01*
X86400661Y-143895600D01*
X86449943Y-144143364D01*
X86458787Y-144156600D01*
X86590292Y-144353409D01*
X86643312Y-144388836D01*
X86754722Y-144500246D01*
X86754722Y-144779050D01*
X86791018Y-144961524D01*
X86894382Y-145116218D01*
X87049076Y-145219582D01*
X87231550Y-145255878D01*
X87719050Y-145255878D01*
X87901524Y-145219582D01*
X88056218Y-145116218D01*
X88159582Y-144961524D01*
X88190637Y-144805400D01*
X90344607Y-144805400D01*
X90410788Y-144792236D01*
X90469652Y-144831567D01*
X90573380Y-144852200D01*
X90573384Y-144852200D01*
X90608399Y-144859165D01*
X90629322Y-144855003D01*
X90629322Y-145156600D01*
X90647064Y-145245795D01*
X90697589Y-145321411D01*
X90727400Y-145341330D01*
X90727400Y-145604063D01*
X90714961Y-145666600D01*
X90727400Y-145729137D01*
X90727400Y-145729140D01*
X90764243Y-145914364D01*
X90904591Y-146124409D01*
X90957614Y-146159838D01*
X91496318Y-146698544D01*
X91432218Y-146794476D01*
X91395922Y-146976950D01*
X91395922Y-147464450D01*
X91432218Y-147646924D01*
X91535582Y-147801618D01*
X91690276Y-147904982D01*
X91872750Y-147941278D01*
X92785250Y-147941278D01*
X92967724Y-147904982D01*
X93041479Y-147855700D01*
X95142838Y-147855700D01*
X95230182Y-147986418D01*
X95384876Y-148089782D01*
X95567350Y-148126078D01*
X96054850Y-148126078D01*
X96237324Y-148089782D01*
X96392018Y-147986418D01*
X96495382Y-147831724D01*
X96531678Y-147649250D01*
X96531678Y-146976611D01*
X96965522Y-147410455D01*
X96965522Y-147649250D01*
X97001818Y-147831724D01*
X97105182Y-147986418D01*
X97259876Y-148089782D01*
X97442350Y-148126078D01*
X97929850Y-148126078D01*
X98112324Y-148089782D01*
X98267018Y-147986418D01*
X98370382Y-147831724D01*
X98406678Y-147649250D01*
X98406678Y-146736750D01*
X98370382Y-146554276D01*
X98267018Y-146399582D01*
X98112324Y-146296218D01*
X97929850Y-146259922D01*
X97611039Y-146259922D01*
X96161731Y-144810615D01*
X96126302Y-144757592D01*
X95916258Y-144617244D01*
X95731034Y-144580401D01*
X95731030Y-144580401D01*
X95668493Y-144567962D01*
X95605956Y-144580401D01*
X94299859Y-144580401D01*
X94183621Y-144603522D01*
X93891000Y-144603522D01*
X93891000Y-144389678D01*
X94862400Y-144389678D01*
X94951595Y-144371936D01*
X94975878Y-144355711D01*
X95173437Y-144487716D01*
X95421201Y-144536998D01*
X95499620Y-144521400D01*
X97052121Y-144521400D01*
X97125876Y-144570682D01*
X97308350Y-144606978D01*
X97587153Y-144606978D01*
X97827602Y-144847428D01*
X97863028Y-144900446D01*
X97916045Y-144935871D01*
X97916047Y-144935873D01*
X97967481Y-144970240D01*
X98073072Y-145040794D01*
X98258296Y-145077637D01*
X98258300Y-145077637D01*
X98320837Y-145090076D01*
X98383374Y-145077637D01*
X101366826Y-145077637D01*
X101429363Y-145090076D01*
X101491900Y-145077637D01*
X101491904Y-145077637D01*
X101677128Y-145040794D01*
X101725308Y-145008601D01*
X102500741Y-145008601D01*
X102685965Y-144971758D01*
X102896009Y-144831410D01*
X102995256Y-144682878D01*
X103046623Y-144682878D01*
X101549340Y-146180161D01*
X101336282Y-146091910D01*
X100847718Y-146091910D01*
X100396343Y-146278875D01*
X100050875Y-146624343D01*
X99863910Y-147075718D01*
X99863910Y-147564282D01*
X100050875Y-148015657D01*
X100396343Y-148361125D01*
X100847718Y-148548090D01*
X101336282Y-148548090D01*
X101787657Y-148361125D01*
X102133125Y-148015657D01*
X102320090Y-147564282D01*
X102320090Y-147075718D01*
X102231839Y-146862660D01*
X104390699Y-144703800D01*
X106905329Y-144703800D01*
X107010512Y-144682878D01*
X107467401Y-144682878D01*
X107467402Y-145829393D01*
X106395896Y-146900900D01*
X106311678Y-146900900D01*
X106197125Y-146624343D01*
X105851657Y-146278875D01*
X105400282Y-146091910D01*
X104911718Y-146091910D01*
X104460343Y-146278875D01*
X104114875Y-146624343D01*
X103927910Y-147075718D01*
X103927910Y-147564282D01*
X104114875Y-148015657D01*
X104460343Y-148361125D01*
X104911718Y-148548090D01*
X105400282Y-148548090D01*
X105851657Y-148361125D01*
X106197125Y-148015657D01*
X106311678Y-147739100D01*
X106528219Y-147739100D01*
X106569492Y-147747310D01*
X106610765Y-147739100D01*
X106610766Y-147739100D01*
X106733016Y-147714783D01*
X106871646Y-147622154D01*
X106895028Y-147587160D01*
X107538668Y-146943521D01*
X107483910Y-147075718D01*
X107483910Y-147564282D01*
X107670875Y-148015657D01*
X108016343Y-148361125D01*
X108467718Y-148548090D01*
X108956282Y-148548090D01*
X109407657Y-148361125D01*
X109753125Y-148015657D01*
X109940090Y-147564282D01*
X109940090Y-147075718D01*
X109753125Y-146624343D01*
X109407657Y-146278875D01*
X109131100Y-146164322D01*
X109131100Y-143754473D01*
X109139310Y-143713200D01*
X109131073Y-143671789D01*
X109106783Y-143549676D01*
X109014154Y-143411046D01*
X108979163Y-143387666D01*
X108250136Y-142658640D01*
X108226754Y-142623646D01*
X108088124Y-142531017D01*
X107965874Y-142506700D01*
X107965873Y-142506700D01*
X107924600Y-142498490D01*
X107883327Y-142506700D01*
X107669965Y-142506700D01*
X107632795Y-142481864D01*
X107543600Y-142464122D01*
X106172000Y-142464122D01*
X106082805Y-142481864D01*
X106007189Y-142532389D01*
X105956664Y-142608005D01*
X105938922Y-142697200D01*
X105938922Y-143154400D01*
X105956664Y-143243595D01*
X105964953Y-143256000D01*
X105956664Y-143268405D01*
X105938922Y-143357600D01*
X105938922Y-143738600D01*
X104238328Y-143738600D01*
X104190800Y-143729146D01*
X104143272Y-143738600D01*
X104143271Y-143738600D01*
X104002499Y-143766601D01*
X103842865Y-143873265D01*
X103815940Y-143913561D01*
X103357078Y-144372423D01*
X103357078Y-143992600D01*
X103339395Y-143903700D01*
X103357078Y-143814800D01*
X103357078Y-143357600D01*
X103339336Y-143268405D01*
X103331047Y-143256000D01*
X103339336Y-143243595D01*
X103357078Y-143154400D01*
X103357078Y-142697200D01*
X103339395Y-142608300D01*
X103357078Y-142519400D01*
X103357078Y-142062200D01*
X103339336Y-141973005D01*
X103288811Y-141897389D01*
X103213195Y-141846864D01*
X103124000Y-141829122D01*
X102590912Y-141829122D01*
X102485729Y-141808200D01*
X102180899Y-141808200D01*
X100179949Y-139807250D01*
X101682922Y-139807250D01*
X101682922Y-140294750D01*
X101719218Y-140477224D01*
X101822582Y-140631918D01*
X101977276Y-140735282D01*
X102159750Y-140771578D01*
X103072250Y-140771578D01*
X103254724Y-140735282D01*
X103321595Y-140690600D01*
X104857340Y-140690600D01*
X104870582Y-140710418D01*
X105025276Y-140813782D01*
X105207750Y-140850078D01*
X106120250Y-140850078D01*
X106302724Y-140813782D01*
X106457418Y-140710418D01*
X106470660Y-140690600D01*
X107059163Y-140690600D01*
X107090218Y-140846724D01*
X107193582Y-141001418D01*
X107348276Y-141104782D01*
X107530750Y-141141078D01*
X108018250Y-141141078D01*
X108200724Y-141104782D01*
X108355418Y-141001418D01*
X108458782Y-140846724D01*
X108495078Y-140664250D01*
X108495078Y-139751750D01*
X108458782Y-139569276D01*
X108355418Y-139414582D01*
X108200724Y-139311218D01*
X108018250Y-139274922D01*
X107530750Y-139274922D01*
X107348276Y-139311218D01*
X107193582Y-139414582D01*
X107090218Y-139569276D01*
X107059163Y-139725400D01*
X106565183Y-139725400D01*
X106560782Y-139703276D01*
X106457418Y-139548582D01*
X106302724Y-139445218D01*
X106120250Y-139408922D01*
X105207750Y-139408922D01*
X105025276Y-139445218D01*
X104870582Y-139548582D01*
X104767218Y-139703276D01*
X104762817Y-139725400D01*
X103532797Y-139725400D01*
X103512782Y-139624776D01*
X103409418Y-139470082D01*
X103254724Y-139366718D01*
X103072250Y-139330422D01*
X102159750Y-139330422D01*
X101977276Y-139366718D01*
X101822582Y-139470082D01*
X101719218Y-139624776D01*
X101682922Y-139807250D01*
X100179949Y-139807250D01*
X98819331Y-138446633D01*
X98824678Y-138419750D01*
X98824678Y-138062322D01*
X101282500Y-138062322D01*
X101282500Y-138289678D01*
X101369506Y-138499729D01*
X101530271Y-138660494D01*
X101740322Y-138747500D01*
X101816289Y-138747500D01*
X101822582Y-138756918D01*
X101977276Y-138860282D01*
X102159750Y-138896578D01*
X103072250Y-138896578D01*
X103254724Y-138860282D01*
X103409418Y-138756918D01*
X103512782Y-138602224D01*
X103549078Y-138419750D01*
X103549078Y-137932250D01*
X103512782Y-137749776D01*
X103409418Y-137595082D01*
X103254724Y-137491718D01*
X103072250Y-137455422D01*
X102159750Y-137455422D01*
X101977276Y-137491718D01*
X101822582Y-137595082D01*
X101816289Y-137604500D01*
X101740322Y-137604500D01*
X101530271Y-137691506D01*
X101369506Y-137852271D01*
X101282500Y-138062322D01*
X98824678Y-138062322D01*
X98824678Y-137932250D01*
X98788382Y-137749776D01*
X98685018Y-137595082D01*
X98530324Y-137491718D01*
X98347850Y-137455422D01*
X98069046Y-137455422D01*
X98029238Y-137415614D01*
X97993809Y-137362591D01*
X97783765Y-137222243D01*
X97598541Y-137185400D01*
X97598537Y-137185400D01*
X97536000Y-137172961D01*
X97473463Y-137185400D01*
X96544623Y-137185400D01*
X96543882Y-137181676D01*
X96494600Y-137107921D01*
X96494600Y-136843459D01*
X96457757Y-136658235D01*
X96317409Y-136448191D01*
X96253761Y-136405662D01*
X96344094Y-136315329D01*
X96431100Y-136105278D01*
X96431100Y-135877922D01*
X96344094Y-135667871D01*
X96183329Y-135507106D01*
X95973278Y-135420100D01*
X95889860Y-135420100D01*
X95897439Y-135381999D01*
X95848157Y-135134235D01*
X95743235Y-134977210D01*
X93684578Y-132918554D01*
X93684578Y-132639750D01*
X93648282Y-132457276D01*
X93544918Y-132302582D01*
X93390224Y-132199218D01*
X93207750Y-132162922D01*
X92928947Y-132162922D01*
X92887800Y-132121775D01*
X92887800Y-131500278D01*
X92976995Y-131482536D01*
X93052611Y-131432011D01*
X93103136Y-131356395D01*
X93120878Y-131267200D01*
X93120878Y-131102902D01*
X93410565Y-131392591D01*
X93445991Y-131445609D01*
X93499008Y-131481034D01*
X93499010Y-131481036D01*
X93613050Y-131557235D01*
X93656035Y-131585957D01*
X93841259Y-131622800D01*
X93841263Y-131622800D01*
X93903800Y-131635239D01*
X93966337Y-131622800D01*
X94753741Y-131622800D01*
X94938965Y-131585957D01*
X95067192Y-131500278D01*
X95326200Y-131500278D01*
X95415395Y-131482536D01*
X95491011Y-131432011D01*
X95541536Y-131356395D01*
X95559278Y-131267200D01*
X95559278Y-130708400D01*
X95541536Y-130619205D01*
X95491011Y-130543589D01*
X95415395Y-130493064D01*
X95326200Y-130475322D01*
X95067192Y-130475322D01*
X94938965Y-130389643D01*
X94753741Y-130352800D01*
X94166825Y-130352800D01*
X94132399Y-130318374D01*
X94132399Y-130110536D01*
X94144838Y-130047999D01*
X94132399Y-129985460D01*
X94132399Y-129743200D01*
X94857263Y-129743200D01*
X94919800Y-129755639D01*
X94982337Y-129743200D01*
X94982341Y-129743200D01*
X95167565Y-129706357D01*
X95295792Y-129620678D01*
X95326200Y-129620678D01*
X95415395Y-129602936D01*
X95491011Y-129552411D01*
X95541536Y-129476795D01*
X95559278Y-129387600D01*
X95559278Y-129366746D01*
X96484947Y-128441078D01*
X96763750Y-128441078D01*
X96946224Y-128404782D01*
X97100918Y-128301418D01*
X97204282Y-128146724D01*
X97205023Y-128143000D01*
X98321476Y-128143000D01*
X99317656Y-129139180D01*
X99308661Y-129184400D01*
X99321101Y-129246941D01*
X99321100Y-130373722D01*
X99295700Y-130373722D01*
X99206505Y-130391464D01*
X99130889Y-130441989D01*
X99080364Y-130517605D01*
X99062622Y-130606800D01*
X99062622Y-131165600D01*
X99080364Y-131254795D01*
X99130889Y-131330411D01*
X99169335Y-131356100D01*
X99130889Y-131381789D01*
X99080364Y-131457405D01*
X99062622Y-131546600D01*
X99062622Y-132105400D01*
X99080364Y-132194595D01*
X99130889Y-132270211D01*
X99169335Y-132295900D01*
X99130889Y-132321589D01*
X99080364Y-132397205D01*
X99062622Y-132486400D01*
X99062622Y-133045200D01*
X99080364Y-133134395D01*
X99130889Y-133210011D01*
X99206505Y-133260536D01*
X99295700Y-133278278D01*
X99542080Y-133278278D01*
X99551313Y-133284448D01*
X99552001Y-133285135D01*
X99552000Y-133907520D01*
X99502718Y-133981276D01*
X99466422Y-134163750D01*
X99466422Y-135076250D01*
X99502718Y-135258724D01*
X99606082Y-135413418D01*
X99760776Y-135516782D01*
X99943250Y-135553078D01*
X100430750Y-135553078D01*
X100613224Y-135516782D01*
X100767918Y-135413418D01*
X100871282Y-135258724D01*
X100907578Y-135076250D01*
X100907578Y-134163750D01*
X100871282Y-133981276D01*
X100822000Y-133907521D01*
X100822000Y-133400800D01*
X102626401Y-133400800D01*
X102641400Y-133415799D01*
X102641401Y-134826468D01*
X102631946Y-134874000D01*
X102652649Y-134978077D01*
X102669402Y-135062301D01*
X102776066Y-135221935D01*
X102816362Y-135248860D01*
X103942940Y-136375439D01*
X103969865Y-136415735D01*
X104129499Y-136522399D01*
X104270271Y-136550400D01*
X104317799Y-136559854D01*
X104365327Y-136550400D01*
X104718442Y-136550400D01*
X104736605Y-136562536D01*
X104825800Y-136580278D01*
X106019602Y-136580278D01*
X106019602Y-136995591D01*
X106008964Y-137011511D01*
X105486554Y-137533922D01*
X105207750Y-137533922D01*
X105025276Y-137570218D01*
X104870582Y-137673582D01*
X104767218Y-137828276D01*
X104730922Y-138010750D01*
X104730922Y-138498250D01*
X104767218Y-138680724D01*
X104870582Y-138835418D01*
X105025276Y-138938782D01*
X105207750Y-138975078D01*
X106120250Y-138975078D01*
X106302724Y-138938782D01*
X106457418Y-138835418D01*
X106560782Y-138680724D01*
X106597078Y-138498250D01*
X106597078Y-138219447D01*
X106758500Y-138058025D01*
X107053922Y-138353447D01*
X107053922Y-138632250D01*
X107090218Y-138814724D01*
X107193582Y-138969418D01*
X107348276Y-139072782D01*
X107530750Y-139109078D01*
X108018250Y-139109078D01*
X108200724Y-139072782D01*
X108355418Y-138969418D01*
X108458782Y-138814724D01*
X108495078Y-138632250D01*
X108495078Y-137719750D01*
X108458782Y-137537276D01*
X108434880Y-137501505D01*
X108928922Y-137995547D01*
X108928922Y-138632250D01*
X108965218Y-138814724D01*
X109014500Y-138888480D01*
X109014501Y-139495520D01*
X108965218Y-139569276D01*
X108928922Y-139751750D01*
X108928922Y-140664250D01*
X108965218Y-140846724D01*
X109068582Y-141001418D01*
X109223276Y-141104782D01*
X109405750Y-141141078D01*
X109893250Y-141141078D01*
X110075724Y-141104782D01*
X110230418Y-141001418D01*
X110333782Y-140846724D01*
X110370078Y-140664250D01*
X110370078Y-139751750D01*
X110333782Y-139569276D01*
X110284500Y-139495521D01*
X110284500Y-138888479D01*
X110333782Y-138814724D01*
X110370078Y-138632250D01*
X110370078Y-137719750D01*
X110333782Y-137537276D01*
X110230418Y-137382582D01*
X110075724Y-137279218D01*
X109991987Y-137262562D01*
X108767278Y-136037854D01*
X108767278Y-135788400D01*
X108749536Y-135699205D01*
X108699011Y-135623589D01*
X108623395Y-135573064D01*
X108534200Y-135555322D01*
X108275190Y-135555322D01*
X108146964Y-135469643D01*
X107899200Y-135420361D01*
X107651436Y-135469643D01*
X107523209Y-135555322D01*
X107264200Y-135555322D01*
X107175005Y-135573064D01*
X107099389Y-135623589D01*
X107048864Y-135699205D01*
X107031122Y-135788400D01*
X107031122Y-136347200D01*
X107048864Y-136436395D01*
X107099389Y-136512011D01*
X107175005Y-136562536D01*
X107264200Y-136580278D01*
X107513654Y-136580278D01*
X108236495Y-137303120D01*
X108200724Y-137279218D01*
X108018250Y-137242922D01*
X107739446Y-137242922D01*
X107508037Y-137011513D01*
X107472608Y-136958490D01*
X107262564Y-136818142D01*
X107077340Y-136781299D01*
X107077336Y-136781299D01*
X107014799Y-136768860D01*
X106984801Y-136774827D01*
X106984801Y-134571006D01*
X106994255Y-134523478D01*
X106968251Y-134392747D01*
X106956800Y-134335178D01*
X106850136Y-134175544D01*
X106809840Y-134148619D01*
X106541783Y-133880563D01*
X106514857Y-133840265D01*
X106355223Y-133733601D01*
X106214451Y-133705600D01*
X106214450Y-133705600D01*
X106198371Y-133702402D01*
X106184995Y-133693464D01*
X106095800Y-133675722D01*
X104825800Y-133675722D01*
X104736605Y-133693464D01*
X104660989Y-133743989D01*
X104610464Y-133819605D01*
X104592722Y-133908800D01*
X104592722Y-134467600D01*
X104610464Y-134556795D01*
X104660989Y-134632411D01*
X104736605Y-134682936D01*
X104825800Y-134700678D01*
X105996901Y-134700678D01*
X106019601Y-134723378D01*
X106019601Y-135555322D01*
X104825800Y-135555322D01*
X104736605Y-135573064D01*
X104718442Y-135585200D01*
X104517699Y-135585200D01*
X103606600Y-134674102D01*
X103606600Y-133263429D01*
X103616054Y-133215900D01*
X103578599Y-133027599D01*
X103498858Y-132908258D01*
X103471935Y-132867965D01*
X103431642Y-132841042D01*
X103312635Y-132722036D01*
X103272057Y-132518035D01*
X103131709Y-132307991D01*
X102921665Y-132167643D01*
X102736441Y-132130800D01*
X100844526Y-132130800D01*
X100849578Y-132105400D01*
X100849578Y-131546600D01*
X100831836Y-131457405D01*
X100781311Y-131381789D01*
X100742865Y-131356100D01*
X100781311Y-131330411D01*
X100831836Y-131254795D01*
X100849578Y-131165600D01*
X100849578Y-130606800D01*
X100831836Y-130517605D01*
X100781311Y-130441989D01*
X100705695Y-130391464D01*
X100616500Y-130373722D01*
X100591100Y-130373722D01*
X100591100Y-129891112D01*
X100689418Y-129825418D01*
X100792782Y-129670724D01*
X100829078Y-129488250D01*
X100829078Y-128575750D01*
X106896922Y-128575750D01*
X106896922Y-129488250D01*
X106933218Y-129670724D01*
X107036582Y-129825418D01*
X107191276Y-129928782D01*
X107264201Y-129943288D01*
X107264200Y-133412540D01*
X107301043Y-133597764D01*
X107353133Y-133675722D01*
X107264200Y-133675722D01*
X107175005Y-133693464D01*
X107099389Y-133743989D01*
X107048864Y-133819605D01*
X107031122Y-133908800D01*
X107031122Y-134467600D01*
X107048864Y-134556795D01*
X107099389Y-134632411D01*
X107175005Y-134682936D01*
X107264200Y-134700678D01*
X107643030Y-134700678D01*
X107785522Y-134759700D01*
X108012878Y-134759700D01*
X108155370Y-134700678D01*
X108534200Y-134700678D01*
X108623395Y-134682936D01*
X108699011Y-134632411D01*
X108749536Y-134556795D01*
X108767278Y-134467600D01*
X108767278Y-133908800D01*
X108749536Y-133819605D01*
X108699011Y-133743989D01*
X108623395Y-133693464D01*
X108534200Y-133675722D01*
X108445267Y-133675722D01*
X108497357Y-133597765D01*
X108534200Y-133412541D01*
X108534200Y-129376237D01*
X108546639Y-129313700D01*
X108534200Y-129251163D01*
X108534200Y-129251159D01*
X108497357Y-129065935D01*
X108357009Y-128855891D01*
X108338078Y-128843242D01*
X108338078Y-128575750D01*
X108301782Y-128393276D01*
X108198418Y-128238582D01*
X108043724Y-128135218D01*
X107861250Y-128098922D01*
X107373750Y-128098922D01*
X107191276Y-128135218D01*
X107036582Y-128238582D01*
X106933218Y-128393276D01*
X106896922Y-128575750D01*
X100829078Y-128575750D01*
X100792782Y-128393276D01*
X100689418Y-128238582D01*
X100534724Y-128135218D01*
X100352250Y-128098922D01*
X100073447Y-128098922D01*
X99077738Y-127103214D01*
X99042309Y-127050191D01*
X98832265Y-126909843D01*
X98647041Y-126873000D01*
X98647037Y-126873000D01*
X98584500Y-126860561D01*
X98521963Y-126873000D01*
X97205023Y-126873000D01*
X97204282Y-126869276D01*
X97100918Y-126714582D01*
X96946224Y-126611218D01*
X96763750Y-126574922D01*
X96276250Y-126574922D01*
X96093776Y-126611218D01*
X95939082Y-126714582D01*
X95835718Y-126869276D01*
X95799422Y-127051750D01*
X95799422Y-127330552D01*
X94656776Y-128473200D01*
X93773294Y-128473200D01*
X93710757Y-128460761D01*
X93648220Y-128473200D01*
X93648217Y-128473200D01*
X93462993Y-128510043D01*
X93252949Y-128650391D01*
X93217520Y-128703414D01*
X93116109Y-128804825D01*
X93103136Y-128739605D01*
X93052611Y-128663989D01*
X92976995Y-128613464D01*
X92887800Y-128595722D01*
X91617800Y-128595722D01*
X91528605Y-128613464D01*
X91510442Y-128625600D01*
X91288625Y-128625600D01*
X90765987Y-128102962D01*
X90793578Y-127964250D01*
X90793578Y-127051750D01*
X90757282Y-126869276D01*
X90653918Y-126714582D01*
X90499224Y-126611218D01*
X90316750Y-126574922D01*
X89829250Y-126574922D01*
X89646776Y-126611218D01*
X89492082Y-126714582D01*
X89388718Y-126869276D01*
X89352422Y-127051750D01*
X89352422Y-127964250D01*
X89388718Y-128146724D01*
X89438000Y-128220479D01*
X89438000Y-128245463D01*
X89425561Y-128308000D01*
X89438000Y-128370537D01*
X89438000Y-128370541D01*
X89450592Y-128433843D01*
X89474843Y-128555764D01*
X89548675Y-128666260D01*
X89615192Y-128765809D01*
X89668212Y-128801236D01*
X90254565Y-129387590D01*
X88680435Y-129387590D01*
X88428058Y-129135214D01*
X88412702Y-129112232D01*
X88412702Y-128574250D01*
X88473359Y-128549125D01*
X88818827Y-128203657D01*
X89005792Y-127752282D01*
X89005792Y-127263718D01*
X88818827Y-126812343D01*
X88473359Y-126466875D01*
X88021984Y-126279910D01*
X87533420Y-126279910D01*
X87082045Y-126466875D01*
X86736577Y-126812343D01*
X86549612Y-127263718D01*
X86549612Y-127752282D01*
X86736577Y-128203657D01*
X87082045Y-128549125D01*
X87142703Y-128574250D01*
X87142703Y-129477454D01*
X87130262Y-129540000D01*
X87142702Y-129602541D01*
X87142703Y-130130922D01*
X87132250Y-130130922D01*
X86949776Y-130167218D01*
X86795082Y-130270582D01*
X86691718Y-130425276D01*
X86655422Y-130607750D01*
X86655422Y-131520250D01*
X86691718Y-131702724D01*
X86795082Y-131857418D01*
X86949401Y-131960531D01*
X86949400Y-132520922D01*
X86837000Y-132520922D01*
X86747805Y-132538664D01*
X86672189Y-132589189D01*
X86621664Y-132664805D01*
X86603922Y-132754000D01*
X86603922Y-133154000D01*
X86621664Y-133243195D01*
X86672189Y-133318811D01*
X86747805Y-133369336D01*
X86837000Y-133387078D01*
X87211491Y-133387078D01*
X87243699Y-133408599D01*
X87432000Y-133446054D01*
X87620300Y-133408599D01*
X87652509Y-133387078D01*
X87950801Y-133387078D01*
X87950802Y-133820922D01*
X86837000Y-133820922D01*
X86747805Y-133838664D01*
X86672189Y-133889189D01*
X86621664Y-133964805D01*
X86603922Y-134054000D01*
X86603922Y-134454000D01*
X86621664Y-134543195D01*
X86672189Y-134618811D01*
X86747805Y-134669336D01*
X86837000Y-134687078D01*
X88027000Y-134687078D01*
X88116195Y-134669336D01*
X88191811Y-134618811D01*
X88197966Y-134609600D01*
X88245980Y-134609600D01*
X88281000Y-134616566D01*
X88316020Y-134609600D01*
X88419748Y-134588967D01*
X88535398Y-134511693D01*
X88541664Y-134543195D01*
X88592189Y-134618811D01*
X88667805Y-134669336D01*
X88717001Y-134679122D01*
X88717001Y-135210922D01*
X88656250Y-135210922D01*
X88473776Y-135247218D01*
X88319082Y-135350582D01*
X88215718Y-135505276D01*
X88179422Y-135687750D01*
X88179422Y-136600250D01*
X88215718Y-136782724D01*
X88319082Y-136937418D01*
X88473776Y-137040782D01*
X88656250Y-137077078D01*
X89143750Y-137077078D01*
X89326224Y-137040782D01*
X89480918Y-136937418D01*
X89584282Y-136782724D01*
X89585023Y-136779000D01*
X90518463Y-136779000D01*
X90581000Y-136791439D01*
X90643537Y-136779000D01*
X90643541Y-136779000D01*
X90828765Y-136742157D01*
X91038809Y-136601809D01*
X91074238Y-136548786D01*
X91109446Y-136513578D01*
X91388250Y-136513578D01*
X91570724Y-136477282D01*
X91725418Y-136373918D01*
X91828782Y-136219224D01*
X91865078Y-136036750D01*
X91865078Y-135549250D01*
X91828782Y-135366776D01*
X91725418Y-135212082D01*
X91570724Y-135108718D01*
X91388250Y-135072422D01*
X90475750Y-135072422D01*
X90293276Y-135108718D01*
X90138582Y-135212082D01*
X90035218Y-135366776D01*
X90006928Y-135509000D01*
X89987000Y-135509000D01*
X89987000Y-134679122D01*
X90036195Y-134669336D01*
X90111811Y-134618811D01*
X90162336Y-134543195D01*
X90180078Y-134454000D01*
X90180078Y-134054000D01*
X90162336Y-133964805D01*
X90111811Y-133889189D01*
X90036195Y-133838664D01*
X89987000Y-133828878D01*
X89987000Y-133379122D01*
X90036195Y-133369336D01*
X90111811Y-133318811D01*
X90162336Y-133243195D01*
X90180078Y-133154000D01*
X90180078Y-132754000D01*
X90162336Y-132664805D01*
X90111811Y-132589189D01*
X90036195Y-132538664D01*
X89947000Y-132520922D01*
X89826334Y-132520922D01*
X89809809Y-132496191D01*
X89599764Y-132355843D01*
X89352000Y-132306560D01*
X89104235Y-132355843D01*
X88894191Y-132496191D01*
X88877666Y-132520922D01*
X88757000Y-132520922D01*
X88667805Y-132538664D01*
X88592189Y-132589189D01*
X88541664Y-132664805D01*
X88535398Y-132696307D01*
X88419748Y-132619033D01*
X88316020Y-132598400D01*
X88281000Y-132591434D01*
X88245980Y-132598400D01*
X88197966Y-132598400D01*
X88191811Y-132589189D01*
X88116195Y-132538664D01*
X88027000Y-132520922D01*
X87914600Y-132520922D01*
X87914600Y-131885694D01*
X87956918Y-131857418D01*
X88060282Y-131702724D01*
X88096578Y-131520250D01*
X88096578Y-131241447D01*
X88182491Y-131155534D01*
X88235511Y-131120107D01*
X88270937Y-131067088D01*
X88425473Y-130912553D01*
X88425477Y-130912547D01*
X88680435Y-130657590D01*
X91394829Y-130657590D01*
X91384722Y-130708400D01*
X91384722Y-131267200D01*
X91402464Y-131356395D01*
X91452989Y-131432011D01*
X91528605Y-131482536D01*
X91617800Y-131500278D01*
X91617801Y-132322259D01*
X91605361Y-132384800D01*
X91654643Y-132632564D01*
X91698117Y-132697627D01*
X91794992Y-132842609D01*
X91848012Y-132878036D01*
X92243422Y-133273447D01*
X92243422Y-133552250D01*
X92279718Y-133734724D01*
X92383082Y-133889418D01*
X92537776Y-133992782D01*
X92720250Y-134029078D01*
X92999054Y-134029078D01*
X94845210Y-135875235D01*
X95002235Y-135980157D01*
X95249999Y-136029439D01*
X95288100Y-136021860D01*
X95288100Y-136105278D01*
X95375106Y-136315329D01*
X95465440Y-136405663D01*
X95401792Y-136448191D01*
X95261444Y-136658235D01*
X95224601Y-136843459D01*
X95224601Y-137107920D01*
X95175318Y-137181676D01*
X95139022Y-137364150D01*
X95139022Y-138276650D01*
X95175318Y-138459124D01*
X95278682Y-138613818D01*
X95433376Y-138717182D01*
X95615850Y-138753478D01*
X96103350Y-138753478D01*
X96285824Y-138717182D01*
X96440518Y-138613818D01*
X96543882Y-138459124D01*
X96544623Y-138455400D01*
X96965613Y-138455400D01*
X96994818Y-138602224D01*
X97098182Y-138756918D01*
X97252876Y-138860282D01*
X97435350Y-138896578D01*
X97904280Y-138896578D01*
X101519322Y-142511621D01*
X101519322Y-142519400D01*
X101537005Y-142608300D01*
X101519322Y-142697200D01*
X101519322Y-143154400D01*
X101537064Y-143243595D01*
X101545353Y-143256000D01*
X101537064Y-143268405D01*
X101519322Y-143357600D01*
X101519322Y-143730324D01*
X101498399Y-143726162D01*
X101435862Y-143738601D01*
X101435858Y-143738601D01*
X101250634Y-143775444D01*
X101202454Y-143807637D01*
X98697678Y-143807637D01*
X98697678Y-143642650D01*
X98661382Y-143460176D01*
X98558018Y-143305482D01*
X98403324Y-143202118D01*
X98220850Y-143165822D01*
X97308350Y-143165822D01*
X97125876Y-143202118D01*
X97052121Y-143251400D01*
X95486901Y-143251400D01*
X95424360Y-143238960D01*
X95361819Y-143251400D01*
X95176595Y-143288243D01*
X95095478Y-143342444D01*
X95095478Y-143336600D01*
X95077736Y-143247405D01*
X95027211Y-143171789D01*
X94951595Y-143121264D01*
X94862400Y-143103522D01*
X94849108Y-143103522D01*
X94816999Y-142942098D01*
X94763263Y-142861678D01*
X94710335Y-142782465D01*
X94670039Y-142755540D01*
X94467200Y-142552702D01*
X94467200Y-142134830D01*
X94537824Y-142120782D01*
X94692518Y-142017418D01*
X94795882Y-141862724D01*
X94832178Y-141680250D01*
X94832178Y-140767750D01*
X94795882Y-140585276D01*
X94692518Y-140430582D01*
X94537824Y-140327218D01*
X94467200Y-140313170D01*
X94467200Y-138679512D01*
X94565518Y-138613818D01*
X94668882Y-138459124D01*
X94705178Y-138276650D01*
X94705178Y-137364150D01*
X94668882Y-137181676D01*
X94565518Y-137026982D01*
X94410824Y-136923618D01*
X94228350Y-136887322D01*
X93740850Y-136887322D01*
X93558376Y-136923618D01*
X93403682Y-137026982D01*
X93300318Y-137181676D01*
X93264022Y-137364150D01*
X93264022Y-138276650D01*
X93300318Y-138459124D01*
X93403682Y-138613818D01*
X93502000Y-138679513D01*
X93502001Y-140473507D01*
X93427318Y-140585276D01*
X93391022Y-140767750D01*
X93391022Y-141680250D01*
X93427318Y-141862724D01*
X93502001Y-141974494D01*
X93502001Y-142705067D01*
X93492546Y-142752600D01*
X93526105Y-142921310D01*
X93530002Y-142940901D01*
X93614927Y-143068000D01*
X92220697Y-143068000D01*
X92469163Y-142819534D01*
X92504154Y-142796154D01*
X92596783Y-142657524D01*
X92621100Y-142535274D01*
X92621100Y-142535273D01*
X92629310Y-142494000D01*
X92621100Y-142452727D01*
X92621100Y-142424878D01*
X92658250Y-142424878D01*
X92840724Y-142388582D01*
X92995418Y-142285218D01*
X93098782Y-142130524D01*
X93135078Y-141948050D01*
X93135078Y-141460550D01*
X93098782Y-141278076D01*
X92995418Y-141123382D01*
X92840724Y-141020018D01*
X92658250Y-140983722D01*
X91745750Y-140983722D01*
X91563276Y-141020018D01*
X91408582Y-141123382D01*
X91305218Y-141278076D01*
X91268922Y-141460550D01*
X91268922Y-141948050D01*
X91305218Y-142130524D01*
X91408582Y-142285218D01*
X91563276Y-142388582D01*
X91689595Y-142413708D01*
X91095240Y-143008064D01*
X91060246Y-143031446D01*
X91012087Y-143103522D01*
X90862400Y-143103522D01*
X90773205Y-143121264D01*
X90697589Y-143171789D01*
X90647064Y-143247405D01*
X90634068Y-143312739D01*
X90564159Y-143242830D01*
X90540777Y-143207836D01*
X90402147Y-143115207D01*
X90279897Y-143090890D01*
X90279896Y-143090890D01*
X90238623Y-143082680D01*
X90201409Y-143090083D01*
X89616087Y-142504762D01*
X89643678Y-142366050D01*
X89643678Y-141453550D01*
X89607382Y-141271076D01*
X89504018Y-141116382D01*
X89349324Y-141013018D01*
X89166850Y-140976722D01*
X88679350Y-140976722D01*
X88496876Y-141013018D01*
X88342182Y-141116382D01*
X88238818Y-141271076D01*
X88202522Y-141453550D01*
X88202522Y-142366050D01*
X88238818Y-142548524D01*
X88327222Y-142680829D01*
X88313861Y-142748000D01*
X88363143Y-142995764D01*
X88468065Y-143152789D01*
X89155474Y-143840200D01*
X88190637Y-143840200D01*
X88159582Y-143684076D01*
X88056218Y-143529382D01*
X87901524Y-143426018D01*
X87719050Y-143389722D01*
X87683100Y-143389722D01*
X87683100Y-142622279D01*
X87732382Y-142548524D01*
X87768678Y-142366050D01*
X87768678Y-141453550D01*
X87732382Y-141271076D01*
X87629018Y-141116382D01*
X87474324Y-141013018D01*
X87291850Y-140976722D01*
X86804350Y-140976722D01*
X86621876Y-141013018D01*
X86467182Y-141116382D01*
X86363818Y-141271076D01*
X86327522Y-141453550D01*
X72947600Y-141453550D01*
X72947600Y-131362426D01*
X77686400Y-131362426D01*
X77686400Y-131781574D01*
X77846801Y-132168816D01*
X78105000Y-132427015D01*
X78105000Y-132801266D01*
X78105001Y-132801271D01*
X78105000Y-134112489D01*
X78092561Y-134175026D01*
X78105000Y-134237563D01*
X78105000Y-134237566D01*
X78141843Y-134422790D01*
X78282191Y-134632835D01*
X78335214Y-134668264D01*
X83901038Y-140234089D01*
X83936465Y-140287109D01*
X84146509Y-140427457D01*
X84331733Y-140464300D01*
X84331737Y-140464300D01*
X84394274Y-140476739D01*
X84456811Y-140464300D01*
X91489521Y-140464300D01*
X91563276Y-140513582D01*
X91745750Y-140549878D01*
X92658250Y-140549878D01*
X92840724Y-140513582D01*
X92995418Y-140410218D01*
X93098782Y-140255524D01*
X93135078Y-140073050D01*
X93135078Y-139585550D01*
X93098782Y-139403076D01*
X92995418Y-139248382D01*
X92840724Y-139145018D01*
X92658250Y-139108722D01*
X91745750Y-139108722D01*
X91563276Y-139145018D01*
X91489521Y-139194300D01*
X84657299Y-139194300D01*
X82887249Y-137424250D01*
X89998922Y-137424250D01*
X89998922Y-137911750D01*
X90035218Y-138094224D01*
X90138582Y-138248918D01*
X90293276Y-138352282D01*
X90475750Y-138388578D01*
X91163466Y-138388578D01*
X91209506Y-138499729D01*
X91370271Y-138660494D01*
X91580322Y-138747500D01*
X91807678Y-138747500D01*
X92017729Y-138660494D01*
X92178494Y-138499729D01*
X92265500Y-138289678D01*
X92265500Y-138062322D01*
X92178494Y-137852271D01*
X92017729Y-137691506D01*
X91865078Y-137628276D01*
X91865078Y-137424250D01*
X91828782Y-137241776D01*
X91725418Y-137087082D01*
X91570724Y-136983718D01*
X91388250Y-136947422D01*
X90475750Y-136947422D01*
X90293276Y-136983718D01*
X90138582Y-137087082D01*
X90035218Y-137241776D01*
X89998922Y-137424250D01*
X82887249Y-137424250D01*
X79375000Y-133912002D01*
X79375000Y-132427015D01*
X79633199Y-132168816D01*
X79793600Y-131781574D01*
X79793600Y-131362426D01*
X79633199Y-130975184D01*
X79336816Y-130678801D01*
X78949574Y-130518400D01*
X78530426Y-130518400D01*
X78143184Y-130678801D01*
X77846801Y-130975184D01*
X77686400Y-131362426D01*
X72947600Y-131362426D01*
X72947600Y-125271600D01*
X110440401Y-125271600D01*
X110440400Y-150064400D01*
G04 #@! TD*
M02*
