G04 #@! TF.GenerationSoftware,KiCad,Pcbnew,5.0.2-bee76a0~70~ubuntu18.04.1*
G04 #@! TF.CreationDate,2019-03-03T20:31:20-05:00*
G04 #@! TF.ProjectId,agc,6167632e-6b69-4636-9164-5f7063625858,rev?*
G04 #@! TF.SameCoordinates,Original*
G04 #@! TF.FileFunction,Legend,Top*
G04 #@! TF.FilePolarity,Positive*
%FSLAX46Y46*%
G04 Gerber Fmt 4.6, Leading zero omitted, Abs format (unit mm)*
G04 Created by KiCad (PCBNEW 5.0.2-bee76a0~70~ubuntu18.04.1) date Sun 03 Mar 2019 08:31:20 PM EST*
%MOMM*%
%LPD*%
G01*
G04 APERTURE LIST*
%ADD10C,0.120000*%
%ADD11C,0.127000*%
%ADD12C,0.150000*%
%ADD13C,0.200000*%
%ADD14C,0.100000*%
%ADD15C,0.152400*%
%ADD16C,0.050000*%
%ADD17C,0.125000*%
G04 APERTURE END LIST*
D10*
G04 #@! TO.C,C1*
X97181600Y-138854922D02*
X97181600Y-139372078D01*
X98601600Y-138854922D02*
X98601600Y-139372078D01*
G04 #@! TO.C,C2*
X86358800Y-148026622D02*
X86358800Y-148543778D01*
X84938800Y-148026622D02*
X84938800Y-148543778D01*
G04 #@! TO.C,C3*
X94790522Y-141934000D02*
X95307678Y-141934000D01*
X94790522Y-140514000D02*
X95307678Y-140514000D01*
G04 #@! TO.C,C4*
X86179922Y-130354000D02*
X86697078Y-130354000D01*
X86179922Y-131774000D02*
X86697078Y-131774000D01*
G04 #@! TO.C,C5*
X88190000Y-147950422D02*
X88190000Y-148467578D01*
X89610000Y-147950422D02*
X89610000Y-148467578D01*
G04 #@! TO.C,C6*
X86796378Y-145032800D02*
X86279222Y-145032800D01*
X86796378Y-143612800D02*
X86279222Y-143612800D01*
G04 #@! TO.C,C7*
X106938578Y-129742000D02*
X106421422Y-129742000D01*
X106938578Y-128322000D02*
X106421422Y-128322000D01*
G04 #@! TO.C,C8*
X108970578Y-137466000D02*
X108453422Y-137466000D01*
X108970578Y-138886000D02*
X108453422Y-138886000D01*
G04 #@! TO.C,C9*
X101383078Y-133910000D02*
X100865922Y-133910000D01*
X101383078Y-135330000D02*
X100865922Y-135330000D01*
G04 #@! TO.C,C10*
X101304578Y-129742000D02*
X100787422Y-129742000D01*
X101304578Y-128322000D02*
X100787422Y-128322000D01*
G04 #@! TO.C,C11*
X95323922Y-128218000D02*
X95841078Y-128218000D01*
X95323922Y-126798000D02*
X95841078Y-126798000D01*
G04 #@! TO.C,C12*
X91269078Y-126798000D02*
X90751922Y-126798000D01*
X91269078Y-128218000D02*
X90751922Y-128218000D01*
G04 #@! TO.C,C13*
X87703922Y-135434000D02*
X88221078Y-135434000D01*
X87703922Y-136854000D02*
X88221078Y-136854000D01*
G04 #@! TO.C,C14*
X94160078Y-133806000D02*
X93642922Y-133806000D01*
X94160078Y-132386000D02*
X93642922Y-132386000D01*
G04 #@! TO.C,CG1*
X97054600Y-142690322D02*
X97054600Y-143207478D01*
X98474600Y-142690322D02*
X98474600Y-143207478D01*
D11*
G04 #@! TO.C,J1*
X76125498Y-138911681D02*
G75*
G02X81386000Y-138937000I2607128J-4816911D01*
G01*
X73935942Y-146456600D02*
G75*
G02X73913000Y-141118000I4915015J2690471D01*
G01*
X81432600Y-148568058D02*
G75*
G02X76094000Y-148591000I-2690471J4915015D01*
G01*
X83569378Y-141145856D02*
G75*
G02X83591400Y-146380200I-4819268J-2637494D01*
G01*
G04 #@! TO.C,J2*
X73910622Y-134190144D02*
G75*
G02X73888600Y-128955800I4819268J2637494D01*
G01*
X76047400Y-126767942D02*
G75*
G02X81386000Y-126745000I2690471J-4915015D01*
G01*
X83544058Y-128879400D02*
G75*
G02X83567000Y-134218000I-4915015J-2690471D01*
G01*
X81354502Y-136424319D02*
G75*
G02X76094000Y-136399000I-2607128J4816911D01*
G01*
D10*
G04 #@! TO.C,L1*
X95180678Y-138530400D02*
X94663522Y-138530400D01*
X95180678Y-137110400D02*
X94663522Y-137110400D01*
G04 #@! TO.C,R1*
X87727022Y-142619800D02*
X88244178Y-142619800D01*
X87727022Y-141199800D02*
X88244178Y-141199800D01*
G04 #@! TO.C,R2*
X101906000Y-139372078D02*
X101906000Y-138854922D01*
X103326000Y-139372078D02*
X103326000Y-138854922D01*
G04 #@! TO.C,R3*
X90222000Y-136471922D02*
X90222000Y-136989078D01*
X91642000Y-136471922D02*
X91642000Y-136989078D01*
G04 #@! TO.C,R4*
X108453422Y-139498000D02*
X108970578Y-139498000D01*
X108453422Y-140918000D02*
X108970578Y-140918000D01*
G04 #@! TO.C,R6*
X106374000Y-138933422D02*
X106374000Y-139450578D01*
X104954000Y-138933422D02*
X104954000Y-139450578D01*
G04 #@! TO.C,RFB1*
X93039000Y-147899622D02*
X93039000Y-148416778D01*
X91619000Y-147899622D02*
X91619000Y-148416778D01*
G04 #@! TO.C,RFB2*
X96490022Y-147903000D02*
X97007178Y-147903000D01*
X96490022Y-146483000D02*
X97007178Y-146483000D01*
G04 #@! TO.C,RV1*
X92912000Y-141025378D02*
X92912000Y-140508222D01*
X91492000Y-141025378D02*
X91492000Y-140508222D01*
D12*
G04 #@! TO.C,U2*
X90662400Y-143046600D02*
X95062400Y-143046600D01*
X95062400Y-143046600D02*
X95062400Y-145446600D01*
X95062400Y-145446600D02*
X90662400Y-145446600D01*
X90662400Y-145446600D02*
X90662400Y-143046600D01*
D13*
X90262400Y-143446600D02*
G75*
G03X90262400Y-143446600I-100000J0D01*
G01*
D14*
G04 #@! TO.C,U3*
X101302304Y-130632198D02*
G75*
G02X100946700Y-130632200I-177804J249268D01*
G01*
D15*
G04 #@! TO.C,U4*
X103276400Y-144754600D02*
X106019600Y-144754600D01*
X106019600Y-141757400D02*
X104952800Y-141757400D01*
X104952800Y-141757400D02*
X104343200Y-141757400D01*
X104343200Y-141757400D02*
X103276400Y-141757400D01*
D14*
X104952800Y-141757400D02*
G75*
G02X104343200Y-141757400I-304800J0D01*
G01*
D13*
G04 #@! TO.C,U5*
X86242000Y-132904000D02*
G75*
G03X86242000Y-132904000I-100000J0D01*
G01*
D11*
X87692000Y-132440000D02*
X89092000Y-132440000D01*
X89092000Y-134768000D02*
X87692000Y-134768000D01*
G04 #@! TO.C,C1*
D12*
X99898742Y-139280166D02*
X99946361Y-139327785D01*
X99993980Y-139470642D01*
X99993980Y-139565880D01*
X99946361Y-139708738D01*
X99851123Y-139803976D01*
X99755885Y-139851595D01*
X99565409Y-139899214D01*
X99422552Y-139899214D01*
X99232076Y-139851595D01*
X99136838Y-139803976D01*
X99041600Y-139708738D01*
X98993980Y-139565880D01*
X98993980Y-139470642D01*
X99041600Y-139327785D01*
X99089219Y-139280166D01*
X99993980Y-138327785D02*
X99993980Y-138899214D01*
X99993980Y-138613500D02*
X98993980Y-138613500D01*
X99136838Y-138708738D01*
X99232076Y-138803976D01*
X99279695Y-138899214D01*
G04 #@! TO.C,C2*
X87655942Y-148451866D02*
X87703561Y-148499485D01*
X87751180Y-148642342D01*
X87751180Y-148737580D01*
X87703561Y-148880438D01*
X87608323Y-148975676D01*
X87513085Y-149023295D01*
X87322609Y-149070914D01*
X87179752Y-149070914D01*
X86989276Y-149023295D01*
X86894038Y-148975676D01*
X86798800Y-148880438D01*
X86751180Y-148737580D01*
X86751180Y-148642342D01*
X86798800Y-148499485D01*
X86846419Y-148451866D01*
X86846419Y-148070914D02*
X86798800Y-148023295D01*
X86751180Y-147928057D01*
X86751180Y-147689961D01*
X86798800Y-147594723D01*
X86846419Y-147547104D01*
X86941657Y-147499485D01*
X87036895Y-147499485D01*
X87179752Y-147547104D01*
X87751180Y-148118533D01*
X87751180Y-147499485D01*
G04 #@! TO.C,C3*
X94882433Y-139931142D02*
X94834814Y-139978761D01*
X94691957Y-140026380D01*
X94596719Y-140026380D01*
X94453861Y-139978761D01*
X94358623Y-139883523D01*
X94311004Y-139788285D01*
X94263385Y-139597809D01*
X94263385Y-139454952D01*
X94311004Y-139264476D01*
X94358623Y-139169238D01*
X94453861Y-139074000D01*
X94596719Y-139026380D01*
X94691957Y-139026380D01*
X94834814Y-139074000D01*
X94882433Y-139121619D01*
X95215766Y-139026380D02*
X95834814Y-139026380D01*
X95501480Y-139407333D01*
X95644338Y-139407333D01*
X95739576Y-139454952D01*
X95787195Y-139502571D01*
X95834814Y-139597809D01*
X95834814Y-139835904D01*
X95787195Y-139931142D01*
X95739576Y-139978761D01*
X95644338Y-140026380D01*
X95358623Y-140026380D01*
X95263385Y-139978761D01*
X95215766Y-139931142D01*
G04 #@! TO.C,C4*
X86271833Y-129771142D02*
X86224214Y-129818761D01*
X86081357Y-129866380D01*
X85986119Y-129866380D01*
X85843261Y-129818761D01*
X85748023Y-129723523D01*
X85700404Y-129628285D01*
X85652785Y-129437809D01*
X85652785Y-129294952D01*
X85700404Y-129104476D01*
X85748023Y-129009238D01*
X85843261Y-128914000D01*
X85986119Y-128866380D01*
X86081357Y-128866380D01*
X86224214Y-128914000D01*
X86271833Y-128961619D01*
X87128976Y-129199714D02*
X87128976Y-129866380D01*
X86890880Y-128818761D02*
X86652785Y-129533047D01*
X87271833Y-129533047D01*
G04 #@! TO.C,C5*
X90907142Y-148375666D02*
X90954761Y-148423285D01*
X91002380Y-148566142D01*
X91002380Y-148661380D01*
X90954761Y-148804238D01*
X90859523Y-148899476D01*
X90764285Y-148947095D01*
X90573809Y-148994714D01*
X90430952Y-148994714D01*
X90240476Y-148947095D01*
X90145238Y-148899476D01*
X90050000Y-148804238D01*
X90002380Y-148661380D01*
X90002380Y-148566142D01*
X90050000Y-148423285D01*
X90097619Y-148375666D01*
X90002380Y-147470904D02*
X90002380Y-147947095D01*
X90478571Y-147994714D01*
X90430952Y-147947095D01*
X90383333Y-147851857D01*
X90383333Y-147613761D01*
X90430952Y-147518523D01*
X90478571Y-147470904D01*
X90573809Y-147423285D01*
X90811904Y-147423285D01*
X90907142Y-147470904D01*
X90954761Y-147518523D01*
X91002380Y-147613761D01*
X91002380Y-147851857D01*
X90954761Y-147947095D01*
X90907142Y-147994714D01*
G04 #@! TO.C,C6*
X86371133Y-146329942D02*
X86323514Y-146377561D01*
X86180657Y-146425180D01*
X86085419Y-146425180D01*
X85942561Y-146377561D01*
X85847323Y-146282323D01*
X85799704Y-146187085D01*
X85752085Y-145996609D01*
X85752085Y-145853752D01*
X85799704Y-145663276D01*
X85847323Y-145568038D01*
X85942561Y-145472800D01*
X86085419Y-145425180D01*
X86180657Y-145425180D01*
X86323514Y-145472800D01*
X86371133Y-145520419D01*
X87228276Y-145425180D02*
X87037800Y-145425180D01*
X86942561Y-145472800D01*
X86894942Y-145520419D01*
X86799704Y-145663276D01*
X86752085Y-145853752D01*
X86752085Y-146234704D01*
X86799704Y-146329942D01*
X86847323Y-146377561D01*
X86942561Y-146425180D01*
X87133038Y-146425180D01*
X87228276Y-146377561D01*
X87275895Y-146329942D01*
X87323514Y-146234704D01*
X87323514Y-145996609D01*
X87275895Y-145901371D01*
X87228276Y-145853752D01*
X87133038Y-145806133D01*
X86942561Y-145806133D01*
X86847323Y-145853752D01*
X86799704Y-145901371D01*
X86752085Y-145996609D01*
G04 #@! TO.C,C7*
X106591833Y-127865142D02*
X106544214Y-127912761D01*
X106401357Y-127960380D01*
X106306119Y-127960380D01*
X106163261Y-127912761D01*
X106068023Y-127817523D01*
X106020404Y-127722285D01*
X105972785Y-127531809D01*
X105972785Y-127388952D01*
X106020404Y-127198476D01*
X106068023Y-127103238D01*
X106163261Y-127008000D01*
X106306119Y-126960380D01*
X106401357Y-126960380D01*
X106544214Y-127008000D01*
X106591833Y-127055619D01*
X106925166Y-126960380D02*
X107591833Y-126960380D01*
X107163261Y-127960380D01*
G04 #@! TO.C,C8*
X109307333Y-137009142D02*
X109259714Y-137056761D01*
X109116857Y-137104380D01*
X109021619Y-137104380D01*
X108878761Y-137056761D01*
X108783523Y-136961523D01*
X108735904Y-136866285D01*
X108688285Y-136675809D01*
X108688285Y-136532952D01*
X108735904Y-136342476D01*
X108783523Y-136247238D01*
X108878761Y-136152000D01*
X109021619Y-136104380D01*
X109116857Y-136104380D01*
X109259714Y-136152000D01*
X109307333Y-136199619D01*
X109878761Y-136532952D02*
X109783523Y-136485333D01*
X109735904Y-136437714D01*
X109688285Y-136342476D01*
X109688285Y-136294857D01*
X109735904Y-136199619D01*
X109783523Y-136152000D01*
X109878761Y-136104380D01*
X110069238Y-136104380D01*
X110164476Y-136152000D01*
X110212095Y-136199619D01*
X110259714Y-136294857D01*
X110259714Y-136342476D01*
X110212095Y-136437714D01*
X110164476Y-136485333D01*
X110069238Y-136532952D01*
X109878761Y-136532952D01*
X109783523Y-136580571D01*
X109735904Y-136628190D01*
X109688285Y-136723428D01*
X109688285Y-136913904D01*
X109735904Y-137009142D01*
X109783523Y-137056761D01*
X109878761Y-137104380D01*
X110069238Y-137104380D01*
X110164476Y-137056761D01*
X110212095Y-137009142D01*
X110259714Y-136913904D01*
X110259714Y-136723428D01*
X110212095Y-136628190D01*
X110164476Y-136580571D01*
X110069238Y-136532952D01*
G04 #@! TO.C,C9*
X100957833Y-136627142D02*
X100910214Y-136674761D01*
X100767357Y-136722380D01*
X100672119Y-136722380D01*
X100529261Y-136674761D01*
X100434023Y-136579523D01*
X100386404Y-136484285D01*
X100338785Y-136293809D01*
X100338785Y-136150952D01*
X100386404Y-135960476D01*
X100434023Y-135865238D01*
X100529261Y-135770000D01*
X100672119Y-135722380D01*
X100767357Y-135722380D01*
X100910214Y-135770000D01*
X100957833Y-135817619D01*
X101434023Y-136722380D02*
X101624500Y-136722380D01*
X101719738Y-136674761D01*
X101767357Y-136627142D01*
X101862595Y-136484285D01*
X101910214Y-136293809D01*
X101910214Y-135912857D01*
X101862595Y-135817619D01*
X101814976Y-135770000D01*
X101719738Y-135722380D01*
X101529261Y-135722380D01*
X101434023Y-135770000D01*
X101386404Y-135817619D01*
X101338785Y-135912857D01*
X101338785Y-136150952D01*
X101386404Y-136246190D01*
X101434023Y-136293809D01*
X101529261Y-136341428D01*
X101719738Y-136341428D01*
X101814976Y-136293809D01*
X101862595Y-136246190D01*
X101910214Y-136150952D01*
G04 #@! TO.C,C10*
X100403142Y-127865142D02*
X100355523Y-127912761D01*
X100212666Y-127960380D01*
X100117428Y-127960380D01*
X99974571Y-127912761D01*
X99879333Y-127817523D01*
X99831714Y-127722285D01*
X99784095Y-127531809D01*
X99784095Y-127388952D01*
X99831714Y-127198476D01*
X99879333Y-127103238D01*
X99974571Y-127008000D01*
X100117428Y-126960380D01*
X100212666Y-126960380D01*
X100355523Y-127008000D01*
X100403142Y-127055619D01*
X101355523Y-127960380D02*
X100784095Y-127960380D01*
X101069809Y-127960380D02*
X101069809Y-126960380D01*
X100974571Y-127103238D01*
X100879333Y-127198476D01*
X100784095Y-127246095D01*
X101974571Y-126960380D02*
X102069809Y-126960380D01*
X102165047Y-127008000D01*
X102212666Y-127055619D01*
X102260285Y-127150857D01*
X102307904Y-127341333D01*
X102307904Y-127579428D01*
X102260285Y-127769904D01*
X102212666Y-127865142D01*
X102165047Y-127912761D01*
X102069809Y-127960380D01*
X101974571Y-127960380D01*
X101879333Y-127912761D01*
X101831714Y-127865142D01*
X101784095Y-127769904D01*
X101736476Y-127579428D01*
X101736476Y-127341333D01*
X101784095Y-127150857D01*
X101831714Y-127055619D01*
X101879333Y-127008000D01*
X101974571Y-126960380D01*
G04 #@! TO.C,C11*
X94939642Y-126215142D02*
X94892023Y-126262761D01*
X94749166Y-126310380D01*
X94653928Y-126310380D01*
X94511071Y-126262761D01*
X94415833Y-126167523D01*
X94368214Y-126072285D01*
X94320595Y-125881809D01*
X94320595Y-125738952D01*
X94368214Y-125548476D01*
X94415833Y-125453238D01*
X94511071Y-125358000D01*
X94653928Y-125310380D01*
X94749166Y-125310380D01*
X94892023Y-125358000D01*
X94939642Y-125405619D01*
X95892023Y-126310380D02*
X95320595Y-126310380D01*
X95606309Y-126310380D02*
X95606309Y-125310380D01*
X95511071Y-125453238D01*
X95415833Y-125548476D01*
X95320595Y-125596095D01*
X96844404Y-126310380D02*
X96272976Y-126310380D01*
X96558690Y-126310380D02*
X96558690Y-125310380D01*
X96463452Y-125453238D01*
X96368214Y-125548476D01*
X96272976Y-125596095D01*
G04 #@! TO.C,C12*
X90367642Y-126341142D02*
X90320023Y-126388761D01*
X90177166Y-126436380D01*
X90081928Y-126436380D01*
X89939071Y-126388761D01*
X89843833Y-126293523D01*
X89796214Y-126198285D01*
X89748595Y-126007809D01*
X89748595Y-125864952D01*
X89796214Y-125674476D01*
X89843833Y-125579238D01*
X89939071Y-125484000D01*
X90081928Y-125436380D01*
X90177166Y-125436380D01*
X90320023Y-125484000D01*
X90367642Y-125531619D01*
X91320023Y-126436380D02*
X90748595Y-126436380D01*
X91034309Y-126436380D02*
X91034309Y-125436380D01*
X90939071Y-125579238D01*
X90843833Y-125674476D01*
X90748595Y-125722095D01*
X91700976Y-125531619D02*
X91748595Y-125484000D01*
X91843833Y-125436380D01*
X92081928Y-125436380D01*
X92177166Y-125484000D01*
X92224785Y-125531619D01*
X92272404Y-125626857D01*
X92272404Y-125722095D01*
X92224785Y-125864952D01*
X91653357Y-126436380D01*
X92272404Y-126436380D01*
G04 #@! TO.C,C13*
X87241142Y-138025142D02*
X87193523Y-138072761D01*
X87050666Y-138120380D01*
X86955428Y-138120380D01*
X86812571Y-138072761D01*
X86717333Y-137977523D01*
X86669714Y-137882285D01*
X86622095Y-137691809D01*
X86622095Y-137548952D01*
X86669714Y-137358476D01*
X86717333Y-137263238D01*
X86812571Y-137168000D01*
X86955428Y-137120380D01*
X87050666Y-137120380D01*
X87193523Y-137168000D01*
X87241142Y-137215619D01*
X88193523Y-138120380D02*
X87622095Y-138120380D01*
X87907809Y-138120380D02*
X87907809Y-137120380D01*
X87812571Y-137263238D01*
X87717333Y-137358476D01*
X87622095Y-137406095D01*
X88526857Y-137120380D02*
X89145904Y-137120380D01*
X88812571Y-137501333D01*
X88955428Y-137501333D01*
X89050666Y-137548952D01*
X89098285Y-137596571D01*
X89145904Y-137691809D01*
X89145904Y-137929904D01*
X89098285Y-138025142D01*
X89050666Y-138072761D01*
X88955428Y-138120380D01*
X88669714Y-138120380D01*
X88574476Y-138072761D01*
X88526857Y-138025142D01*
G04 #@! TO.C,C14*
X93258642Y-135103142D02*
X93211023Y-135150761D01*
X93068166Y-135198380D01*
X92972928Y-135198380D01*
X92830071Y-135150761D01*
X92734833Y-135055523D01*
X92687214Y-134960285D01*
X92639595Y-134769809D01*
X92639595Y-134626952D01*
X92687214Y-134436476D01*
X92734833Y-134341238D01*
X92830071Y-134246000D01*
X92972928Y-134198380D01*
X93068166Y-134198380D01*
X93211023Y-134246000D01*
X93258642Y-134293619D01*
X94211023Y-135198380D02*
X93639595Y-135198380D01*
X93925309Y-135198380D02*
X93925309Y-134198380D01*
X93830071Y-134341238D01*
X93734833Y-134436476D01*
X93639595Y-134484095D01*
X95068166Y-134531714D02*
X95068166Y-135198380D01*
X94830071Y-134150761D02*
X94591976Y-134865047D01*
X95211023Y-134865047D01*
G04 #@! TO.C,CG1*
X99771742Y-143615566D02*
X99819361Y-143663185D01*
X99866980Y-143806042D01*
X99866980Y-143901280D01*
X99819361Y-144044138D01*
X99724123Y-144139376D01*
X99628885Y-144186995D01*
X99438409Y-144234614D01*
X99295552Y-144234614D01*
X99105076Y-144186995D01*
X99009838Y-144139376D01*
X98914600Y-144044138D01*
X98866980Y-143901280D01*
X98866980Y-143806042D01*
X98914600Y-143663185D01*
X98962219Y-143615566D01*
X98914600Y-142663185D02*
X98866980Y-142758423D01*
X98866980Y-142901280D01*
X98914600Y-143044138D01*
X99009838Y-143139376D01*
X99105076Y-143186995D01*
X99295552Y-143234614D01*
X99438409Y-143234614D01*
X99628885Y-143186995D01*
X99724123Y-143139376D01*
X99819361Y-143044138D01*
X99866980Y-142901280D01*
X99866980Y-142806042D01*
X99819361Y-142663185D01*
X99771742Y-142615566D01*
X99438409Y-142615566D01*
X99438409Y-142806042D01*
X99866980Y-141663185D02*
X99866980Y-142234614D01*
X99866980Y-141948900D02*
X98866980Y-141948900D01*
X99009838Y-142044138D01*
X99105076Y-142139376D01*
X99152695Y-142234614D01*
G04 #@! TO.C,J1*
D16*
X78269818Y-139413787D02*
X78269818Y-139985890D01*
X78231678Y-140100311D01*
X78155397Y-140176592D01*
X78040976Y-140214732D01*
X77964696Y-140214732D01*
X79070763Y-140214732D02*
X78613080Y-140214732D01*
X78841921Y-140214732D02*
X78841921Y-139413787D01*
X78765641Y-139528207D01*
X78689360Y-139604488D01*
X78613080Y-139642628D01*
X73291637Y-148913818D02*
X73558356Y-149713975D01*
X73825075Y-148913818D01*
X74091794Y-149713975D02*
X74091794Y-148913818D01*
X74472821Y-149713975D02*
X74472821Y-148913818D01*
X74930054Y-149713975D01*
X74930054Y-148913818D01*
G04 #@! TO.C,J2*
X78473018Y-135197387D02*
X78473018Y-135769490D01*
X78434878Y-135883911D01*
X78358597Y-135960192D01*
X78244176Y-135998332D01*
X78167896Y-135998332D01*
X78816280Y-135273667D02*
X78854420Y-135235527D01*
X78930701Y-135197387D01*
X79121402Y-135197387D01*
X79197682Y-135235527D01*
X79235823Y-135273667D01*
X79273963Y-135349948D01*
X79273963Y-135426228D01*
X79235823Y-135540649D01*
X78778140Y-135998332D01*
X79273963Y-135998332D01*
X73012199Y-125799818D02*
X73278918Y-126599975D01*
X73545637Y-125799818D01*
X73964767Y-125799818D02*
X74117178Y-125799818D01*
X74193383Y-125837921D01*
X74269589Y-125914126D01*
X74307691Y-126066537D01*
X74307691Y-126333256D01*
X74269589Y-126485667D01*
X74193383Y-126561873D01*
X74117178Y-126599975D01*
X73964767Y-126599975D01*
X73888562Y-126561873D01*
X73812356Y-126485667D01*
X73774253Y-126333256D01*
X73774253Y-126066537D01*
X73812356Y-125914126D01*
X73888562Y-125837921D01*
X73964767Y-125799818D01*
X74650616Y-125799818D02*
X74650616Y-126447564D01*
X74688719Y-126523770D01*
X74726821Y-126561873D01*
X74803027Y-126599975D01*
X74955438Y-126599975D01*
X75031643Y-126561873D01*
X75069746Y-126523770D01*
X75107848Y-126447564D01*
X75107848Y-125799818D01*
X75374567Y-125799818D02*
X75831800Y-125799818D01*
X75603184Y-126599975D02*
X75603184Y-125799818D01*
G04 #@! TO.C,GND*
D12*
X83058095Y-125484000D02*
X82962857Y-125436380D01*
X82820000Y-125436380D01*
X82677142Y-125484000D01*
X82581904Y-125579238D01*
X82534285Y-125674476D01*
X82486666Y-125864952D01*
X82486666Y-126007809D01*
X82534285Y-126198285D01*
X82581904Y-126293523D01*
X82677142Y-126388761D01*
X82820000Y-126436380D01*
X82915238Y-126436380D01*
X83058095Y-126388761D01*
X83105714Y-126341142D01*
X83105714Y-126007809D01*
X82915238Y-126007809D01*
X83534285Y-126436380D02*
X83534285Y-125436380D01*
X84105714Y-126436380D01*
X84105714Y-125436380D01*
X84581904Y-126436380D02*
X84581904Y-125436380D01*
X84820000Y-125436380D01*
X84962857Y-125484000D01*
X85058095Y-125579238D01*
X85105714Y-125674476D01*
X85153333Y-125864952D01*
X85153333Y-126007809D01*
X85105714Y-126198285D01*
X85058095Y-126293523D01*
X84962857Y-126388761D01*
X84820000Y-126436380D01*
X84581904Y-126436380D01*
G04 #@! TO.C,VDD*
X86042666Y-125436380D02*
X86376000Y-126436380D01*
X86709333Y-125436380D01*
X87042666Y-126436380D02*
X87042666Y-125436380D01*
X87280761Y-125436380D01*
X87423619Y-125484000D01*
X87518857Y-125579238D01*
X87566476Y-125674476D01*
X87614095Y-125864952D01*
X87614095Y-126007809D01*
X87566476Y-126198285D01*
X87518857Y-126293523D01*
X87423619Y-126388761D01*
X87280761Y-126436380D01*
X87042666Y-126436380D01*
X88042666Y-126436380D02*
X88042666Y-125436380D01*
X88280761Y-125436380D01*
X88423619Y-125484000D01*
X88518857Y-125579238D01*
X88566476Y-125674476D01*
X88614095Y-125864952D01*
X88614095Y-126007809D01*
X88566476Y-126198285D01*
X88518857Y-126293523D01*
X88423619Y-126388761D01*
X88280761Y-126436380D01*
X88042666Y-126436380D01*
G04 #@! TO.C,~SYNC*
X99163428Y-148437000D02*
X100115809Y-148437000D01*
X99353904Y-149756761D02*
X99496761Y-149804380D01*
X99734857Y-149804380D01*
X99830095Y-149756761D01*
X99877714Y-149709142D01*
X99925333Y-149613904D01*
X99925333Y-149518666D01*
X99877714Y-149423428D01*
X99830095Y-149375809D01*
X99734857Y-149328190D01*
X99544380Y-149280571D01*
X99449142Y-149232952D01*
X99401523Y-149185333D01*
X99353904Y-149090095D01*
X99353904Y-148994857D01*
X99401523Y-148899619D01*
X99449142Y-148852000D01*
X99544380Y-148804380D01*
X99782476Y-148804380D01*
X99925333Y-148852000D01*
X100115809Y-148437000D02*
X100972952Y-148437000D01*
X100544380Y-149328190D02*
X100544380Y-149804380D01*
X100211047Y-148804380D02*
X100544380Y-149328190D01*
X100877714Y-148804380D01*
X100972952Y-148437000D02*
X102020571Y-148437000D01*
X101211047Y-149804380D02*
X101211047Y-148804380D01*
X101782476Y-149804380D01*
X101782476Y-148804380D01*
X102020571Y-148437000D02*
X103020571Y-148437000D01*
X102830095Y-149709142D02*
X102782476Y-149756761D01*
X102639619Y-149804380D01*
X102544380Y-149804380D01*
X102401523Y-149756761D01*
X102306285Y-149661523D01*
X102258666Y-149566285D01*
X102211047Y-149375809D01*
X102211047Y-149232952D01*
X102258666Y-149042476D01*
X102306285Y-148947238D01*
X102401523Y-148852000D01*
X102544380Y-148804380D01*
X102639619Y-148804380D01*
X102782476Y-148852000D01*
X102830095Y-148899619D01*
G04 #@! TO.C,SCLK*
X103465523Y-149756761D02*
X103608380Y-149804380D01*
X103846476Y-149804380D01*
X103941714Y-149756761D01*
X103989333Y-149709142D01*
X104036952Y-149613904D01*
X104036952Y-149518666D01*
X103989333Y-149423428D01*
X103941714Y-149375809D01*
X103846476Y-149328190D01*
X103656000Y-149280571D01*
X103560761Y-149232952D01*
X103513142Y-149185333D01*
X103465523Y-149090095D01*
X103465523Y-148994857D01*
X103513142Y-148899619D01*
X103560761Y-148852000D01*
X103656000Y-148804380D01*
X103894095Y-148804380D01*
X104036952Y-148852000D01*
X105036952Y-149709142D02*
X104989333Y-149756761D01*
X104846476Y-149804380D01*
X104751238Y-149804380D01*
X104608380Y-149756761D01*
X104513142Y-149661523D01*
X104465523Y-149566285D01*
X104417904Y-149375809D01*
X104417904Y-149232952D01*
X104465523Y-149042476D01*
X104513142Y-148947238D01*
X104608380Y-148852000D01*
X104751238Y-148804380D01*
X104846476Y-148804380D01*
X104989333Y-148852000D01*
X105036952Y-148899619D01*
X105941714Y-149804380D02*
X105465523Y-149804380D01*
X105465523Y-148804380D01*
X106275047Y-149804380D02*
X106275047Y-148804380D01*
X106846476Y-149804380D02*
X106417904Y-149232952D01*
X106846476Y-148804380D02*
X106275047Y-149375809D01*
G04 #@! TO.C,Din*
X107759619Y-149728180D02*
X107759619Y-148728180D01*
X107997714Y-148728180D01*
X108140571Y-148775800D01*
X108235809Y-148871038D01*
X108283428Y-148966276D01*
X108331047Y-149156752D01*
X108331047Y-149299609D01*
X108283428Y-149490085D01*
X108235809Y-149585323D01*
X108140571Y-149680561D01*
X107997714Y-149728180D01*
X107759619Y-149728180D01*
X108759619Y-149728180D02*
X108759619Y-149061514D01*
X108759619Y-148728180D02*
X108712000Y-148775800D01*
X108759619Y-148823419D01*
X108807238Y-148775800D01*
X108759619Y-148728180D01*
X108759619Y-148823419D01*
X109235809Y-149061514D02*
X109235809Y-149728180D01*
X109235809Y-149156752D02*
X109283428Y-149109133D01*
X109378666Y-149061514D01*
X109521523Y-149061514D01*
X109616761Y-149109133D01*
X109664380Y-149204371D01*
X109664380Y-149728180D01*
G04 #@! TO.C,L1*
X94808533Y-136545580D02*
X94332342Y-136545580D01*
X94332342Y-135545580D01*
X95665676Y-136545580D02*
X95094247Y-136545580D01*
X95379961Y-136545580D02*
X95379961Y-135545580D01*
X95284723Y-135688438D01*
X95189485Y-135783676D01*
X95094247Y-135831295D01*
G04 #@! TO.C,R1*
X87818933Y-140712180D02*
X87485600Y-140235990D01*
X87247504Y-140712180D02*
X87247504Y-139712180D01*
X87628457Y-139712180D01*
X87723695Y-139759800D01*
X87771314Y-139807419D01*
X87818933Y-139902657D01*
X87818933Y-140045514D01*
X87771314Y-140140752D01*
X87723695Y-140188371D01*
X87628457Y-140235990D01*
X87247504Y-140235990D01*
X88771314Y-140712180D02*
X88199885Y-140712180D01*
X88485600Y-140712180D02*
X88485600Y-139712180D01*
X88390361Y-139855038D01*
X88295123Y-139950276D01*
X88199885Y-139997895D01*
G04 #@! TO.C,R2*
X101418380Y-139280166D02*
X100942190Y-139613500D01*
X101418380Y-139851595D02*
X100418380Y-139851595D01*
X100418380Y-139470642D01*
X100466000Y-139375404D01*
X100513619Y-139327785D01*
X100608857Y-139280166D01*
X100751714Y-139280166D01*
X100846952Y-139327785D01*
X100894571Y-139375404D01*
X100942190Y-139470642D01*
X100942190Y-139851595D01*
X100513619Y-138899214D02*
X100466000Y-138851595D01*
X100418380Y-138756357D01*
X100418380Y-138518261D01*
X100466000Y-138423023D01*
X100513619Y-138375404D01*
X100608857Y-138327785D01*
X100704095Y-138327785D01*
X100846952Y-138375404D01*
X101418380Y-138946833D01*
X101418380Y-138327785D01*
G04 #@! TO.C,R3*
X92908380Y-136897166D02*
X92432190Y-137230500D01*
X92908380Y-137468595D02*
X91908380Y-137468595D01*
X91908380Y-137087642D01*
X91956000Y-136992404D01*
X92003619Y-136944785D01*
X92098857Y-136897166D01*
X92241714Y-136897166D01*
X92336952Y-136944785D01*
X92384571Y-136992404D01*
X92432190Y-137087642D01*
X92432190Y-137468595D01*
X91908380Y-136563833D02*
X91908380Y-135944785D01*
X92289333Y-136278119D01*
X92289333Y-136135261D01*
X92336952Y-136040023D01*
X92384571Y-135992404D01*
X92479809Y-135944785D01*
X92717904Y-135944785D01*
X92813142Y-135992404D01*
X92860761Y-136040023D01*
X92908380Y-136135261D01*
X92908380Y-136420976D01*
X92860761Y-136516214D01*
X92813142Y-136563833D01*
G04 #@! TO.C,R4*
X108466833Y-142184380D02*
X108133500Y-141708190D01*
X107895404Y-142184380D02*
X107895404Y-141184380D01*
X108276357Y-141184380D01*
X108371595Y-141232000D01*
X108419214Y-141279619D01*
X108466833Y-141374857D01*
X108466833Y-141517714D01*
X108419214Y-141612952D01*
X108371595Y-141660571D01*
X108276357Y-141708190D01*
X107895404Y-141708190D01*
X109323976Y-141517714D02*
X109323976Y-142184380D01*
X109085880Y-141136761D02*
X108847785Y-141851047D01*
X109466833Y-141851047D01*
G04 #@! TO.C,R6*
X104592380Y-139280166D02*
X104116190Y-139613500D01*
X104592380Y-139851595D02*
X103592380Y-139851595D01*
X103592380Y-139470642D01*
X103640000Y-139375404D01*
X103687619Y-139327785D01*
X103782857Y-139280166D01*
X103925714Y-139280166D01*
X104020952Y-139327785D01*
X104068571Y-139375404D01*
X104116190Y-139470642D01*
X104116190Y-139851595D01*
X103592380Y-138423023D02*
X103592380Y-138613500D01*
X103640000Y-138708738D01*
X103687619Y-138756357D01*
X103830476Y-138851595D01*
X104020952Y-138899214D01*
X104401904Y-138899214D01*
X104497142Y-138851595D01*
X104544761Y-138803976D01*
X104592380Y-138708738D01*
X104592380Y-138518261D01*
X104544761Y-138423023D01*
X104497142Y-138375404D01*
X104401904Y-138327785D01*
X104163809Y-138327785D01*
X104068571Y-138375404D01*
X104020952Y-138423023D01*
X103973333Y-138518261D01*
X103973333Y-138708738D01*
X104020952Y-138803976D01*
X104068571Y-138851595D01*
X104163809Y-138899214D01*
G04 #@! TO.C,RFB1*
X94431380Y-149253438D02*
X93955190Y-149586771D01*
X94431380Y-149824866D02*
X93431380Y-149824866D01*
X93431380Y-149443914D01*
X93479000Y-149348676D01*
X93526619Y-149301057D01*
X93621857Y-149253438D01*
X93764714Y-149253438D01*
X93859952Y-149301057D01*
X93907571Y-149348676D01*
X93955190Y-149443914D01*
X93955190Y-149824866D01*
X93907571Y-148491533D02*
X93907571Y-148824866D01*
X94431380Y-148824866D02*
X93431380Y-148824866D01*
X93431380Y-148348676D01*
X93907571Y-147634390D02*
X93955190Y-147491533D01*
X94002809Y-147443914D01*
X94098047Y-147396295D01*
X94240904Y-147396295D01*
X94336142Y-147443914D01*
X94383761Y-147491533D01*
X94431380Y-147586771D01*
X94431380Y-147967723D01*
X93431380Y-147967723D01*
X93431380Y-147634390D01*
X93479000Y-147539152D01*
X93526619Y-147491533D01*
X93621857Y-147443914D01*
X93717095Y-147443914D01*
X93812333Y-147491533D01*
X93859952Y-147539152D01*
X93907571Y-147634390D01*
X93907571Y-147967723D01*
X94431380Y-146443914D02*
X94431380Y-147015342D01*
X94431380Y-146729628D02*
X93431380Y-146729628D01*
X93574238Y-146824866D01*
X93669476Y-146920104D01*
X93717095Y-147015342D01*
G04 #@! TO.C,RFB2*
X95528661Y-149601180D02*
X95195328Y-149124990D01*
X94957233Y-149601180D02*
X94957233Y-148601180D01*
X95338185Y-148601180D01*
X95433423Y-148648800D01*
X95481042Y-148696419D01*
X95528661Y-148791657D01*
X95528661Y-148934514D01*
X95481042Y-149029752D01*
X95433423Y-149077371D01*
X95338185Y-149124990D01*
X94957233Y-149124990D01*
X96290566Y-149077371D02*
X95957233Y-149077371D01*
X95957233Y-149601180D02*
X95957233Y-148601180D01*
X96433423Y-148601180D01*
X97147709Y-149077371D02*
X97290566Y-149124990D01*
X97338185Y-149172609D01*
X97385804Y-149267847D01*
X97385804Y-149410704D01*
X97338185Y-149505942D01*
X97290566Y-149553561D01*
X97195328Y-149601180D01*
X96814376Y-149601180D01*
X96814376Y-148601180D01*
X97147709Y-148601180D01*
X97242947Y-148648800D01*
X97290566Y-148696419D01*
X97338185Y-148791657D01*
X97338185Y-148886895D01*
X97290566Y-148982133D01*
X97242947Y-149029752D01*
X97147709Y-149077371D01*
X96814376Y-149077371D01*
X97766757Y-148696419D02*
X97814376Y-148648800D01*
X97909614Y-148601180D01*
X98147709Y-148601180D01*
X98242947Y-148648800D01*
X98290566Y-148696419D01*
X98338185Y-148791657D01*
X98338185Y-148886895D01*
X98290566Y-149029752D01*
X97719138Y-149601180D01*
X98338185Y-149601180D01*
G04 #@! TO.C,RV1*
X91004380Y-141362038D02*
X90528190Y-141695371D01*
X91004380Y-141933466D02*
X90004380Y-141933466D01*
X90004380Y-141552514D01*
X90052000Y-141457276D01*
X90099619Y-141409657D01*
X90194857Y-141362038D01*
X90337714Y-141362038D01*
X90432952Y-141409657D01*
X90480571Y-141457276D01*
X90528190Y-141552514D01*
X90528190Y-141933466D01*
X90004380Y-141076323D02*
X91004380Y-140742990D01*
X90004380Y-140409657D01*
X91004380Y-139552514D02*
X91004380Y-140123942D01*
X91004380Y-139838228D02*
X90004380Y-139838228D01*
X90147238Y-139933466D01*
X90242476Y-140028704D01*
X90290095Y-140123942D01*
G04 #@! TO.C,U1*
D16*
X105428853Y-130672738D02*
X105428853Y-132002081D01*
X105507050Y-132158475D01*
X105585246Y-132236671D01*
X105741640Y-132314868D01*
X106054426Y-132314868D01*
X106210820Y-132236671D01*
X106289016Y-132158475D01*
X106367213Y-132002081D01*
X106367213Y-130672738D01*
X108009343Y-132314868D02*
X107070983Y-132314868D01*
X107540163Y-132314868D02*
X107540163Y-130672738D01*
X107383770Y-130907328D01*
X107227376Y-131063721D01*
X107070983Y-131141918D01*
X109747775Y-135151289D02*
X109747775Y-134369075D01*
X110217103Y-135307732D02*
X108574453Y-134760182D01*
X110217103Y-134212632D01*
X110217103Y-133665082D02*
X108574453Y-133665082D01*
X108574453Y-133273975D01*
X108652675Y-133039310D01*
X108809117Y-132882867D01*
X108965560Y-132804646D01*
X109278446Y-132726425D01*
X109513110Y-132726425D01*
X109825996Y-132804646D01*
X109982439Y-132882867D01*
X110138882Y-133039310D01*
X110217103Y-133273975D01*
X110217103Y-133665082D01*
X109278446Y-131787767D02*
X109200225Y-131944210D01*
X109122003Y-132022432D01*
X108965560Y-132100653D01*
X108887339Y-132100653D01*
X108730896Y-132022432D01*
X108652675Y-131944210D01*
X108574453Y-131787767D01*
X108574453Y-131474882D01*
X108652675Y-131318439D01*
X108730896Y-131240217D01*
X108887339Y-131161996D01*
X108965560Y-131161996D01*
X109122003Y-131240217D01*
X109200225Y-131318439D01*
X109278446Y-131474882D01*
X109278446Y-131787767D01*
X109356667Y-131944210D01*
X109434889Y-132022432D01*
X109591332Y-132100653D01*
X109904217Y-132100653D01*
X110060660Y-132022432D01*
X110138882Y-131944210D01*
X110217103Y-131787767D01*
X110217103Y-131474882D01*
X110138882Y-131318439D01*
X110060660Y-131240217D01*
X109904217Y-131161996D01*
X109591332Y-131161996D01*
X109434889Y-131240217D01*
X109356667Y-131318439D01*
X109278446Y-131474882D01*
X108574453Y-129675789D02*
X108574453Y-130458003D01*
X109356667Y-130536225D01*
X109278446Y-130458003D01*
X109200225Y-130301560D01*
X109200225Y-129910453D01*
X109278446Y-129754010D01*
X109356667Y-129675789D01*
X109513110Y-129597567D01*
X109904217Y-129597567D01*
X110060660Y-129675789D01*
X110138882Y-129754010D01*
X110217103Y-129910453D01*
X110217103Y-130301560D01*
X110138882Y-130458003D01*
X110060660Y-130536225D01*
X109122003Y-128189582D02*
X110217103Y-128189582D01*
X108496232Y-128580689D02*
X109669553Y-128971796D01*
X109669553Y-127954917D01*
X110217103Y-126468710D02*
X110217103Y-127407367D01*
X110217103Y-126938039D02*
X108574453Y-126938039D01*
X108809117Y-127094482D01*
X108965560Y-127250925D01*
X109043782Y-127407367D01*
G04 #@! TO.C,U2*
D17*
X92481447Y-145872790D02*
X92481447Y-146277552D01*
X92505257Y-146325171D01*
X92529066Y-146348980D01*
X92576685Y-146372790D01*
X92671923Y-146372790D01*
X92719542Y-146348980D01*
X92743352Y-146325171D01*
X92767161Y-146277552D01*
X92767161Y-145872790D01*
X92981447Y-145920409D02*
X93005257Y-145896600D01*
X93052876Y-145872790D01*
X93171923Y-145872790D01*
X93219542Y-145896600D01*
X93243352Y-145920409D01*
X93267161Y-145968028D01*
X93267161Y-146015647D01*
X93243352Y-146087076D01*
X92957638Y-146372790D01*
X93267161Y-146372790D01*
G04 #@! TO.C,U3*
D16*
X97177555Y-133330704D02*
X98506429Y-133330704D01*
X98662767Y-133252535D01*
X98740936Y-133174366D01*
X98819105Y-133018028D01*
X98819105Y-132705352D01*
X98740936Y-132549014D01*
X98662767Y-132470845D01*
X98506429Y-132392676D01*
X97177555Y-132392676D01*
X97177555Y-131767323D02*
X97177555Y-130751126D01*
X97802908Y-131298309D01*
X97802908Y-131063802D01*
X97881077Y-130907464D01*
X97959246Y-130829295D01*
X98115584Y-130751126D01*
X98506429Y-130751126D01*
X98662767Y-130829295D01*
X98740936Y-130907464D01*
X98819105Y-131063802D01*
X98819105Y-131532816D01*
X98740936Y-131689154D01*
X98662767Y-131767323D01*
X104299500Y-133604000D02*
X104299500Y-133241142D01*
X104517214Y-133676571D02*
X103755214Y-133422571D01*
X104517214Y-133168571D01*
X104517214Y-132914571D02*
X103755214Y-132914571D01*
X103755214Y-132733142D01*
X103791500Y-132624285D01*
X103864071Y-132551714D01*
X103936642Y-132515428D01*
X104081785Y-132479142D01*
X104190642Y-132479142D01*
X104335785Y-132515428D01*
X104408357Y-132551714D01*
X104480928Y-132624285D01*
X104517214Y-132733142D01*
X104517214Y-132914571D01*
X104517214Y-131717142D02*
X104154357Y-131971142D01*
X104517214Y-132152571D02*
X103755214Y-132152571D01*
X103755214Y-131862285D01*
X103791500Y-131789714D01*
X103827785Y-131753428D01*
X103900357Y-131717142D01*
X104009214Y-131717142D01*
X104081785Y-131753428D01*
X104118071Y-131789714D01*
X104154357Y-131862285D01*
X104154357Y-132152571D01*
X103755214Y-131463142D02*
X103755214Y-130991428D01*
X104045500Y-131245428D01*
X104045500Y-131136571D01*
X104081785Y-131064000D01*
X104118071Y-131027714D01*
X104190642Y-130991428D01*
X104372071Y-130991428D01*
X104444642Y-131027714D01*
X104480928Y-131064000D01*
X104517214Y-131136571D01*
X104517214Y-131354285D01*
X104480928Y-131426857D01*
X104444642Y-131463142D01*
X104517214Y-130628571D02*
X104517214Y-130483428D01*
X104480928Y-130410857D01*
X104444642Y-130374571D01*
X104335785Y-130302000D01*
X104190642Y-130265714D01*
X103900357Y-130265714D01*
X103827785Y-130302000D01*
X103791500Y-130338285D01*
X103755214Y-130410857D01*
X103755214Y-130556000D01*
X103791500Y-130628571D01*
X103827785Y-130664857D01*
X103900357Y-130701142D01*
X104081785Y-130701142D01*
X104154357Y-130664857D01*
X104190642Y-130628571D01*
X104226928Y-130556000D01*
X104226928Y-130410857D01*
X104190642Y-130338285D01*
X104154357Y-130302000D01*
X104081785Y-130265714D01*
X104517214Y-129540000D02*
X104517214Y-129975428D01*
X104517214Y-129757714D02*
X103755214Y-129757714D01*
X103864071Y-129830285D01*
X103936642Y-129902857D01*
X103972928Y-129975428D01*
G04 #@! TO.C,U4*
X107937904Y-143207619D02*
X107937904Y-144030095D01*
X107986285Y-144126857D01*
X108034666Y-144175238D01*
X108131428Y-144223619D01*
X108324952Y-144223619D01*
X108421714Y-144175238D01*
X108470095Y-144126857D01*
X108518476Y-144030095D01*
X108518476Y-143207619D01*
X109437714Y-143546285D02*
X109437714Y-144223619D01*
X109195809Y-143159238D02*
X108953904Y-143884952D01*
X109582857Y-143884952D01*
X101200857Y-145810514D02*
X101200857Y-145048514D01*
X101382285Y-145048514D01*
X101491142Y-145084800D01*
X101563714Y-145157371D01*
X101600000Y-145229942D01*
X101636285Y-145375085D01*
X101636285Y-145483942D01*
X101600000Y-145629085D01*
X101563714Y-145701657D01*
X101491142Y-145774228D01*
X101382285Y-145810514D01*
X101200857Y-145810514D01*
X101926571Y-145592800D02*
X102289428Y-145592800D01*
X101854000Y-145810514D02*
X102108000Y-145048514D01*
X102362000Y-145810514D01*
X103051428Y-145737942D02*
X103015142Y-145774228D01*
X102906285Y-145810514D01*
X102833714Y-145810514D01*
X102724857Y-145774228D01*
X102652285Y-145701657D01*
X102616000Y-145629085D01*
X102579714Y-145483942D01*
X102579714Y-145375085D01*
X102616000Y-145229942D01*
X102652285Y-145157371D01*
X102724857Y-145084800D01*
X102833714Y-145048514D01*
X102906285Y-145048514D01*
X103015142Y-145084800D01*
X103051428Y-145121085D01*
X103523142Y-145048514D02*
X103595714Y-145048514D01*
X103668285Y-145084800D01*
X103704571Y-145121085D01*
X103740857Y-145193657D01*
X103777142Y-145338800D01*
X103777142Y-145520228D01*
X103740857Y-145665371D01*
X103704571Y-145737942D01*
X103668285Y-145774228D01*
X103595714Y-145810514D01*
X103523142Y-145810514D01*
X103450571Y-145774228D01*
X103414285Y-145737942D01*
X103378000Y-145665371D01*
X103341714Y-145520228D01*
X103341714Y-145338800D01*
X103378000Y-145193657D01*
X103414285Y-145121085D01*
X103450571Y-145084800D01*
X103523142Y-145048514D01*
X104212571Y-145375085D02*
X104140000Y-145338800D01*
X104103714Y-145302514D01*
X104067428Y-145229942D01*
X104067428Y-145193657D01*
X104103714Y-145121085D01*
X104140000Y-145084800D01*
X104212571Y-145048514D01*
X104357714Y-145048514D01*
X104430285Y-145084800D01*
X104466571Y-145121085D01*
X104502857Y-145193657D01*
X104502857Y-145229942D01*
X104466571Y-145302514D01*
X104430285Y-145338800D01*
X104357714Y-145375085D01*
X104212571Y-145375085D01*
X104140000Y-145411371D01*
X104103714Y-145447657D01*
X104067428Y-145520228D01*
X104067428Y-145665371D01*
X104103714Y-145737942D01*
X104140000Y-145774228D01*
X104212571Y-145810514D01*
X104357714Y-145810514D01*
X104430285Y-145774228D01*
X104466571Y-145737942D01*
X104502857Y-145665371D01*
X104502857Y-145520228D01*
X104466571Y-145447657D01*
X104430285Y-145411371D01*
X104357714Y-145375085D01*
X105228571Y-145810514D02*
X104793142Y-145810514D01*
X105010857Y-145810514D02*
X105010857Y-145048514D01*
X104938285Y-145157371D01*
X104865714Y-145229942D01*
X104793142Y-145266228D01*
X105518857Y-145774228D02*
X105627714Y-145810514D01*
X105809142Y-145810514D01*
X105881714Y-145774228D01*
X105918000Y-145737942D01*
X105954285Y-145665371D01*
X105954285Y-145592800D01*
X105918000Y-145520228D01*
X105881714Y-145483942D01*
X105809142Y-145447657D01*
X105664000Y-145411371D01*
X105591428Y-145375085D01*
X105555142Y-145338800D01*
X105518857Y-145266228D01*
X105518857Y-145193657D01*
X105555142Y-145121085D01*
X105591428Y-145084800D01*
X105664000Y-145048514D01*
X105845428Y-145048514D01*
X105954285Y-145084800D01*
X106680000Y-145810514D02*
X106244571Y-145810514D01*
X106462285Y-145810514D02*
X106462285Y-145048514D01*
X106389714Y-145157371D01*
X106317142Y-145229942D01*
X106244571Y-145266228D01*
X107151714Y-145048514D02*
X107224285Y-145048514D01*
X107296857Y-145084800D01*
X107333142Y-145121085D01*
X107369428Y-145193657D01*
X107405714Y-145338800D01*
X107405714Y-145520228D01*
X107369428Y-145665371D01*
X107333142Y-145737942D01*
X107296857Y-145774228D01*
X107224285Y-145810514D01*
X107151714Y-145810514D01*
X107079142Y-145774228D01*
X107042857Y-145737942D01*
X107006571Y-145665371D01*
X106970285Y-145520228D01*
X106970285Y-145338800D01*
X107006571Y-145193657D01*
X107042857Y-145121085D01*
X107079142Y-145084800D01*
X107151714Y-145048514D01*
X108131428Y-145810514D02*
X107696000Y-145810514D01*
X107913714Y-145810514D02*
X107913714Y-145048514D01*
X107841142Y-145157371D01*
X107768571Y-145229942D01*
X107696000Y-145266228D01*
G04 #@! TO.C,U5*
X90170095Y-133056380D02*
X90170095Y-133865904D01*
X90217714Y-133961142D01*
X90265333Y-134008761D01*
X90360571Y-134056380D01*
X90551047Y-134056380D01*
X90646285Y-134008761D01*
X90693904Y-133961142D01*
X90741523Y-133865904D01*
X90741523Y-133056380D01*
X91693904Y-133056380D02*
X91217714Y-133056380D01*
X91170095Y-133532571D01*
X91217714Y-133484952D01*
X91312952Y-133437333D01*
X91551047Y-133437333D01*
X91646285Y-133484952D01*
X91693904Y-133532571D01*
X91741523Y-133627809D01*
X91741523Y-133865904D01*
X91693904Y-133961142D01*
X91646285Y-134008761D01*
X91551047Y-134056380D01*
X91312952Y-134056380D01*
X91217714Y-134008761D01*
X91170095Y-133961142D01*
X85796380Y-137842285D02*
X84796380Y-137842285D01*
X85796380Y-137270857D01*
X84796380Y-137270857D01*
X85701142Y-136223238D02*
X85748761Y-136270857D01*
X85796380Y-136413714D01*
X85796380Y-136508952D01*
X85748761Y-136651809D01*
X85653523Y-136747047D01*
X85558285Y-136794666D01*
X85367809Y-136842285D01*
X85224952Y-136842285D01*
X85034476Y-136794666D01*
X84939238Y-136747047D01*
X84844000Y-136651809D01*
X84796380Y-136508952D01*
X84796380Y-136413714D01*
X84844000Y-136270857D01*
X84891619Y-136223238D01*
X85796380Y-135794666D02*
X84796380Y-135794666D01*
X84796380Y-135413714D01*
X84844000Y-135318476D01*
X84891619Y-135270857D01*
X84986857Y-135223238D01*
X85129714Y-135223238D01*
X85224952Y-135270857D01*
X85272571Y-135318476D01*
X85320190Y-135413714D01*
X85320190Y-135794666D01*
X84796380Y-134318476D02*
X84796380Y-134794666D01*
X85272571Y-134842285D01*
X85224952Y-134794666D01*
X85177333Y-134699428D01*
X85177333Y-134461333D01*
X85224952Y-134366095D01*
X85272571Y-134318476D01*
X85367809Y-134270857D01*
X85605904Y-134270857D01*
X85701142Y-134318476D01*
X85748761Y-134366095D01*
X85796380Y-134461333D01*
X85796380Y-134699428D01*
X85748761Y-134794666D01*
X85701142Y-134842285D01*
X84796380Y-133651809D02*
X84796380Y-133556571D01*
X84844000Y-133461333D01*
X84891619Y-133413714D01*
X84986857Y-133366095D01*
X85177333Y-133318476D01*
X85415428Y-133318476D01*
X85605904Y-133366095D01*
X85701142Y-133413714D01*
X85748761Y-133461333D01*
X85796380Y-133556571D01*
X85796380Y-133651809D01*
X85748761Y-133747047D01*
X85701142Y-133794666D01*
X85605904Y-133842285D01*
X85415428Y-133889904D01*
X85177333Y-133889904D01*
X84986857Y-133842285D01*
X84891619Y-133794666D01*
X84844000Y-133747047D01*
X84796380Y-133651809D01*
X85224952Y-132747047D02*
X85177333Y-132842285D01*
X85129714Y-132889904D01*
X85034476Y-132937523D01*
X84986857Y-132937523D01*
X84891619Y-132889904D01*
X84844000Y-132842285D01*
X84796380Y-132747047D01*
X84796380Y-132556571D01*
X84844000Y-132461333D01*
X84891619Y-132413714D01*
X84986857Y-132366095D01*
X85034476Y-132366095D01*
X85129714Y-132413714D01*
X85177333Y-132461333D01*
X85224952Y-132556571D01*
X85224952Y-132747047D01*
X85272571Y-132842285D01*
X85320190Y-132889904D01*
X85415428Y-132937523D01*
X85605904Y-132937523D01*
X85701142Y-132889904D01*
X85748761Y-132842285D01*
X85796380Y-132747047D01*
X85796380Y-132556571D01*
X85748761Y-132461333D01*
X85701142Y-132413714D01*
X85605904Y-132366095D01*
X85415428Y-132366095D01*
X85320190Y-132413714D01*
X85272571Y-132461333D01*
X85224952Y-132556571D01*
G04 #@! TO.C,U6*
X89524738Y-131299146D02*
X90854081Y-131299146D01*
X91010475Y-131220950D01*
X91088671Y-131142753D01*
X91166868Y-130986360D01*
X91166868Y-130673573D01*
X91088671Y-130517180D01*
X91010475Y-130438983D01*
X90854081Y-130360786D01*
X89524738Y-130360786D01*
X89524738Y-128875050D02*
X89524738Y-129187836D01*
X89602935Y-129344230D01*
X89681131Y-129422426D01*
X89915721Y-129578820D01*
X90228508Y-129657016D01*
X90854081Y-129657016D01*
X91010475Y-129578820D01*
X91088671Y-129500623D01*
X91166868Y-129344230D01*
X91166868Y-129031443D01*
X91088671Y-128875050D01*
X91010475Y-128796853D01*
X90854081Y-128718656D01*
X90463098Y-128718656D01*
X90306705Y-128796853D01*
X90228508Y-128875050D01*
X90150311Y-129031443D01*
X90150311Y-129344230D01*
X90228508Y-129500623D01*
X90306705Y-129578820D01*
X90463098Y-129657016D01*
X96356714Y-136543142D02*
X96356714Y-136906000D01*
X95594714Y-136906000D01*
X96356714Y-136289142D02*
X95594714Y-136289142D01*
X95594714Y-135998857D01*
X95631000Y-135926285D01*
X95667285Y-135890000D01*
X95739857Y-135853714D01*
X95848714Y-135853714D01*
X95921285Y-135890000D01*
X95957571Y-135926285D01*
X95993857Y-135998857D01*
X95993857Y-136289142D01*
X95594714Y-135599714D02*
X95594714Y-135128000D01*
X95885000Y-135382000D01*
X95885000Y-135273142D01*
X95921285Y-135200571D01*
X95957571Y-135164285D01*
X96030142Y-135128000D01*
X96211571Y-135128000D01*
X96284142Y-135164285D01*
X96320428Y-135200571D01*
X96356714Y-135273142D01*
X96356714Y-135490857D01*
X96320428Y-135563428D01*
X96284142Y-135599714D01*
X96356714Y-134765142D02*
X96356714Y-134620000D01*
X96320428Y-134547428D01*
X96284142Y-134511142D01*
X96175285Y-134438571D01*
X96030142Y-134402285D01*
X95739857Y-134402285D01*
X95667285Y-134438571D01*
X95631000Y-134474857D01*
X95594714Y-134547428D01*
X95594714Y-134692571D01*
X95631000Y-134765142D01*
X95667285Y-134801428D01*
X95739857Y-134837714D01*
X95921285Y-134837714D01*
X95993857Y-134801428D01*
X96030142Y-134765142D01*
X96066428Y-134692571D01*
X96066428Y-134547428D01*
X96030142Y-134474857D01*
X95993857Y-134438571D01*
X95921285Y-134402285D01*
X95921285Y-133966857D02*
X95885000Y-134039428D01*
X95848714Y-134075714D01*
X95776142Y-134112000D01*
X95739857Y-134112000D01*
X95667285Y-134075714D01*
X95631000Y-134039428D01*
X95594714Y-133966857D01*
X95594714Y-133821714D01*
X95631000Y-133749142D01*
X95667285Y-133712857D01*
X95739857Y-133676571D01*
X95776142Y-133676571D01*
X95848714Y-133712857D01*
X95885000Y-133749142D01*
X95921285Y-133821714D01*
X95921285Y-133966857D01*
X95957571Y-134039428D01*
X95993857Y-134075714D01*
X96066428Y-134112000D01*
X96211571Y-134112000D01*
X96284142Y-134075714D01*
X96320428Y-134039428D01*
X96356714Y-133966857D01*
X96356714Y-133821714D01*
X96320428Y-133749142D01*
X96284142Y-133712857D01*
X96211571Y-133676571D01*
X96066428Y-133676571D01*
X95993857Y-133712857D01*
X95957571Y-133749142D01*
X95921285Y-133821714D01*
X95594714Y-132987142D02*
X95594714Y-133350000D01*
X95957571Y-133386285D01*
X95921285Y-133350000D01*
X95885000Y-133277428D01*
X95885000Y-133096000D01*
X95921285Y-133023428D01*
X95957571Y-132987142D01*
X96030142Y-132950857D01*
X96211571Y-132950857D01*
X96284142Y-132987142D01*
X96320428Y-133023428D01*
X96356714Y-133096000D01*
X96356714Y-133277428D01*
X96320428Y-133350000D01*
X96284142Y-133386285D01*
X96356714Y-132624285D02*
X95594714Y-132624285D01*
X96356714Y-132261428D02*
X95594714Y-132261428D01*
X96139000Y-132007428D01*
X95594714Y-131753428D01*
X96356714Y-131753428D01*
X95594714Y-131027714D02*
X95594714Y-131390571D01*
X95957571Y-131426857D01*
X95921285Y-131390571D01*
X95885000Y-131318000D01*
X95885000Y-131136571D01*
X95921285Y-131064000D01*
X95957571Y-131027714D01*
X96030142Y-130991428D01*
X96211571Y-130991428D01*
X96284142Y-131027714D01*
X96320428Y-131064000D01*
X96356714Y-131136571D01*
X96356714Y-131318000D01*
X96320428Y-131390571D01*
X96284142Y-131426857D01*
X96066428Y-130664857D02*
X96066428Y-130084285D01*
X95594714Y-129358571D02*
X95594714Y-129721428D01*
X95957571Y-129757714D01*
X95921285Y-129721428D01*
X95885000Y-129648857D01*
X95885000Y-129467428D01*
X95921285Y-129394857D01*
X95957571Y-129358571D01*
X96030142Y-129322285D01*
X96211571Y-129322285D01*
X96284142Y-129358571D01*
X96320428Y-129394857D01*
X96356714Y-129467428D01*
X96356714Y-129648857D01*
X96320428Y-129721428D01*
X96284142Y-129757714D01*
X96284142Y-128995714D02*
X96320428Y-128959428D01*
X96356714Y-128995714D01*
X96320428Y-129032000D01*
X96284142Y-128995714D01*
X96356714Y-128995714D01*
X95594714Y-128487714D02*
X95594714Y-128415142D01*
X95631000Y-128342571D01*
X95667285Y-128306285D01*
X95739857Y-128270000D01*
X95885000Y-128233714D01*
X96066428Y-128233714D01*
X96211571Y-128270000D01*
X96284142Y-128306285D01*
X96320428Y-128342571D01*
X96356714Y-128415142D01*
X96356714Y-128487714D01*
X96320428Y-128560285D01*
X96284142Y-128596571D01*
X96211571Y-128632857D01*
X96066428Y-128669142D01*
X95885000Y-128669142D01*
X95739857Y-128632857D01*
X95667285Y-128596571D01*
X95631000Y-128560285D01*
X95594714Y-128487714D01*
G04 #@! TD*
M02*
