M48
;DRILL file {KiCad 5.0.2-bee76a0~70~ubuntu18.04.1} date Sun 03 Mar 2019 08:31:26 PM EST
;FORMAT={-:-/ absolute / inch / decimal}
FMAT,2
INCH,TZ
T1C0.0130
T2C0.0315
T3C0.0433
T4C0.0630
%
G90
G05
T1
X2.9Y-5.36
X2.9Y-5.42
X2.9Y-5.47
X2.92Y-4.96
X2.94Y-5.39
X2.94Y-5.45
X2.96Y-5.17
X2.99Y-5.42
X3.06Y-5.24
X3.06Y-5.28
X3.07Y-5.32
X3.09Y-4.95
X3.1Y-5.05
X3.1Y-5.34
X3.13Y-5.37
X3.14Y-5.23
X3.15Y-5.27
X3.15Y-5.62
X3.15Y-5.7
X3.16Y-5.4
X3.19Y-5.43
X3.19Y-5.62
X3.19Y-5.7
X3.2Y-4.96
X3.22Y-5.46
X3.23Y-5.18
X3.23Y-5.62
X3.23Y-5.7
X3.25Y-5.37
X3.27Y-5.62
X3.27Y-5.7
X3.28Y-5.4
X3.3Y-5.54
X3.31Y-5.43
X3.31Y-5.62
X3.31Y-5.7
X3.34Y-5.31
X3.34Y-5.46
X3.34Y-5.55
X3.35Y-5.62
X3.36Y-5.13
X3.36Y-5.19
X3.36Y-5.74
X3.36Y-5.88
X3.38Y-5.16
X3.38Y-5.46
X3.38Y-5.55
X3.38Y-5.59
X3.4Y-5.74
X3.4Y-5.88
X3.41Y-5.36
X3.42Y-5.46
X3.43Y-5.33
X3.43Y-5.39
X3.45Y-5.74
X3.46Y-5.46
X3.48Y-5.88
X3.49Y-5.72
X3.5Y-5.18
X3.5Y-5.46
X3.5009Y-5.587
X3.5024Y-5.62
X3.52Y-5.88
X3.53Y-5.72
X3.54Y-5.46
X3.56Y-5.18
X3.57Y-5.56
X3.58Y-5.42
X3.59Y-5.26
X3.61Y-5.01
X3.61Y-5.44
X3.62Y-5.88
X3.63Y-4.98
X3.63Y-5.04
X3.66Y-5.88
X3.67Y-5.36
X3.7Y-5.04
X3.71Y-4.98
X3.73Y-5.01
X3.74Y-5.21
X3.74Y-5.25
X3.75Y-5.33
X3.75Y-5.87
X3.76Y-5.52
X3.774Y-5.354
X3.774Y-5.39
X3.78Y-5.11
X3.78Y-5.14
X3.81Y-5.5
X3.82Y-5.71
X3.82Y-5.87
X3.84Y-5.11
X3.84Y-5.17
X3.84Y-5.23
X3.84Y-5.29
X3.85Y-5.61
X3.86Y-5.73
X3.88Y-5.59
X3.89Y-5.88
X3.9Y-5.63
X3.91Y-5.73
X3.91Y-5.81
X3.94Y-4.97
X3.94Y-5.64
X3.95Y-5.73
X3.98Y-5.64
X3.98Y-5.88
X3.99Y-5.73
X4.01Y-4.97
X4.01Y-5.44
X4.0182Y-5.28
X4.02Y-5.08
X4.02Y-5.32
X4.03Y-5.15
X4.04Y-5.05
X4.04Y-5.11
X4.04Y-5.44
X4.06Y-5.18
X4.06Y-5.8
X4.06Y-5.88
X4.07Y-5.14
X4.08Y-4.97
X4.09Y-5.56
X4.12Y-5.32
X4.12Y-5.88
X4.15Y-4.97
X4.15Y-5.11
X4.16Y-5.05
X4.16Y-5.32
X4.17Y-5.08
X4.17Y-5.73
X4.19Y-5.58
X4.21Y-5.88
X4.23Y-5.58
X4.248Y-5.25
X4.248Y-5.283
X4.26Y-4.97
X4.32Y-5.01
X4.32Y-5.08
X4.32Y-5.13
X4.32Y-5.19
X4.32Y-5.25
X4.32Y-5.3
X4.32Y-5.36
X4.32Y-5.6
X4.32Y-5.67
X4.32Y-5.88
X4.33Y-5.74
T2
X4.14Y-5.8
X3.34Y-5.02
X3.4558Y-5.02
X4.28Y-5.8
X3.98Y-5.8
T3
X3.1Y-5.18
X3.1Y-5.66
T4
X2.9768Y-5.0568
X2.9768Y-5.3032
X3.2232Y-5.0568
X3.2232Y-5.3032
X2.9768Y-5.5368
X2.9768Y-5.7832
X3.2232Y-5.5368
X3.2232Y-5.7832
T0
M30
