G04 #@! TF.GenerationSoftware,KiCad,Pcbnew,5.0.2-bee76a0~70~ubuntu16.04.1*
G04 #@! TF.CreationDate,2019-03-07T18:54:15-05:00*
G04 #@! TF.ProjectId,lna,6c6e612e-6b69-4636-9164-5f7063625858,rev?*
G04 #@! TF.SameCoordinates,Original*
G04 #@! TF.FileFunction,Legend,Top*
G04 #@! TF.FilePolarity,Positive*
%FSLAX46Y46*%
G04 Gerber Fmt 4.6, Leading zero omitted, Abs format (unit mm)*
G04 Created by KiCad (PCBNEW 5.0.2-bee76a0~70~ubuntu16.04.1) date Thu 07 Mar 2019 06:54:15 PM EST*
%MOMM*%
%LPD*%
G01*
G04 APERTURE LIST*
%ADD10C,0.120000*%
%ADD11C,0.150000*%
%ADD12C,0.127000*%
%ADD13C,0.050000*%
G04 APERTURE END LIST*
D10*
G04 #@! TO.C,C1*
X79331078Y-73966000D02*
X78813922Y-73966000D01*
X79331078Y-75386000D02*
X78813922Y-75386000D01*
G04 #@! TO.C,C2*
X83893922Y-78942000D02*
X84411078Y-78942000D01*
X83893922Y-77522000D02*
X84411078Y-77522000D01*
G04 #@! TO.C,C3*
X101858578Y-76506000D02*
X101341422Y-76506000D01*
X101858578Y-77926000D02*
X101341422Y-77926000D01*
G04 #@! TO.C,C4*
X101858578Y-73966000D02*
X101341422Y-73966000D01*
X101858578Y-75386000D02*
X101341422Y-75386000D01*
G04 #@! TO.C,C5*
X87713078Y-79808000D02*
X87195922Y-79808000D01*
X87713078Y-81228000D02*
X87195922Y-81228000D01*
G04 #@! TO.C,C6*
X101858578Y-81586000D02*
X101341422Y-81586000D01*
X101858578Y-83006000D02*
X101341422Y-83006000D01*
G04 #@! TO.C,C7*
X101858578Y-79046000D02*
X101341422Y-79046000D01*
X101858578Y-80466000D02*
X101341422Y-80466000D01*
G04 #@! TO.C,L1*
X84411078Y-73966000D02*
X83893922Y-73966000D01*
X84411078Y-75386000D02*
X83893922Y-75386000D01*
G04 #@! TO.C,L2*
X87174000Y-75511922D02*
X87174000Y-76029078D01*
X88594000Y-75511922D02*
X88594000Y-76029078D01*
G04 #@! TO.C,L3*
X98500000Y-76029078D02*
X98500000Y-75511922D01*
X97080000Y-76029078D02*
X97080000Y-75511922D01*
G04 #@! TO.C,R1*
X90878922Y-79196000D02*
X91396078Y-79196000D01*
X90878922Y-77776000D02*
X91396078Y-77776000D01*
D11*
G04 #@! TO.C,U1*
X91141000Y-74180000D02*
G75*
G03X91141000Y-74180000I-50000J0D01*
G01*
D12*
X91710000Y-76000000D02*
X93710000Y-76000000D01*
X91710000Y-73860000D02*
X93710000Y-73860000D01*
G04 #@! TO.C,C1*
D11*
X78905833Y-76683142D02*
X78858214Y-76730761D01*
X78715357Y-76778380D01*
X78620119Y-76778380D01*
X78477261Y-76730761D01*
X78382023Y-76635523D01*
X78334404Y-76540285D01*
X78286785Y-76349809D01*
X78286785Y-76206952D01*
X78334404Y-76016476D01*
X78382023Y-75921238D01*
X78477261Y-75826000D01*
X78620119Y-75778380D01*
X78715357Y-75778380D01*
X78858214Y-75826000D01*
X78905833Y-75873619D01*
X79858214Y-76778380D02*
X79286785Y-76778380D01*
X79572500Y-76778380D02*
X79572500Y-75778380D01*
X79477261Y-75921238D01*
X79382023Y-76016476D01*
X79286785Y-76064095D01*
G04 #@! TO.C,C2*
X83985833Y-80494142D02*
X83938214Y-80541761D01*
X83795357Y-80589380D01*
X83700119Y-80589380D01*
X83557261Y-80541761D01*
X83462023Y-80446523D01*
X83414404Y-80351285D01*
X83366785Y-80160809D01*
X83366785Y-80017952D01*
X83414404Y-79827476D01*
X83462023Y-79732238D01*
X83557261Y-79637000D01*
X83700119Y-79589380D01*
X83795357Y-79589380D01*
X83938214Y-79637000D01*
X83985833Y-79684619D01*
X84366785Y-79684619D02*
X84414404Y-79637000D01*
X84509642Y-79589380D01*
X84747738Y-79589380D01*
X84842976Y-79637000D01*
X84890595Y-79684619D01*
X84938214Y-79779857D01*
X84938214Y-79875095D01*
X84890595Y-80017952D01*
X84319166Y-80589380D01*
X84938214Y-80589380D01*
G04 #@! TO.C,C3*
X103973333Y-77573142D02*
X103925714Y-77620761D01*
X103782857Y-77668380D01*
X103687619Y-77668380D01*
X103544761Y-77620761D01*
X103449523Y-77525523D01*
X103401904Y-77430285D01*
X103354285Y-77239809D01*
X103354285Y-77096952D01*
X103401904Y-76906476D01*
X103449523Y-76811238D01*
X103544761Y-76716000D01*
X103687619Y-76668380D01*
X103782857Y-76668380D01*
X103925714Y-76716000D01*
X103973333Y-76763619D01*
X104306666Y-76668380D02*
X104925714Y-76668380D01*
X104592380Y-77049333D01*
X104735238Y-77049333D01*
X104830476Y-77096952D01*
X104878095Y-77144571D01*
X104925714Y-77239809D01*
X104925714Y-77477904D01*
X104878095Y-77573142D01*
X104830476Y-77620761D01*
X104735238Y-77668380D01*
X104449523Y-77668380D01*
X104354285Y-77620761D01*
X104306666Y-77573142D01*
G04 #@! TO.C,C4*
X101433333Y-73128142D02*
X101385714Y-73175761D01*
X101242857Y-73223380D01*
X101147619Y-73223380D01*
X101004761Y-73175761D01*
X100909523Y-73080523D01*
X100861904Y-72985285D01*
X100814285Y-72794809D01*
X100814285Y-72651952D01*
X100861904Y-72461476D01*
X100909523Y-72366238D01*
X101004761Y-72271000D01*
X101147619Y-72223380D01*
X101242857Y-72223380D01*
X101385714Y-72271000D01*
X101433333Y-72318619D01*
X102290476Y-72556714D02*
X102290476Y-73223380D01*
X102052380Y-72175761D02*
X101814285Y-72890047D01*
X102433333Y-72890047D01*
G04 #@! TO.C,C5*
X87287833Y-82525142D02*
X87240214Y-82572761D01*
X87097357Y-82620380D01*
X87002119Y-82620380D01*
X86859261Y-82572761D01*
X86764023Y-82477523D01*
X86716404Y-82382285D01*
X86668785Y-82191809D01*
X86668785Y-82048952D01*
X86716404Y-81858476D01*
X86764023Y-81763238D01*
X86859261Y-81668000D01*
X87002119Y-81620380D01*
X87097357Y-81620380D01*
X87240214Y-81668000D01*
X87287833Y-81715619D01*
X88192595Y-81620380D02*
X87716404Y-81620380D01*
X87668785Y-82096571D01*
X87716404Y-82048952D01*
X87811642Y-82001333D01*
X88049738Y-82001333D01*
X88144976Y-82048952D01*
X88192595Y-82096571D01*
X88240214Y-82191809D01*
X88240214Y-82429904D01*
X88192595Y-82525142D01*
X88144976Y-82572761D01*
X88049738Y-82620380D01*
X87811642Y-82620380D01*
X87716404Y-82572761D01*
X87668785Y-82525142D01*
G04 #@! TO.C,C6*
X103973333Y-82653142D02*
X103925714Y-82700761D01*
X103782857Y-82748380D01*
X103687619Y-82748380D01*
X103544761Y-82700761D01*
X103449523Y-82605523D01*
X103401904Y-82510285D01*
X103354285Y-82319809D01*
X103354285Y-82176952D01*
X103401904Y-81986476D01*
X103449523Y-81891238D01*
X103544761Y-81796000D01*
X103687619Y-81748380D01*
X103782857Y-81748380D01*
X103925714Y-81796000D01*
X103973333Y-81843619D01*
X104830476Y-81748380D02*
X104640000Y-81748380D01*
X104544761Y-81796000D01*
X104497142Y-81843619D01*
X104401904Y-81986476D01*
X104354285Y-82176952D01*
X104354285Y-82557904D01*
X104401904Y-82653142D01*
X104449523Y-82700761D01*
X104544761Y-82748380D01*
X104735238Y-82748380D01*
X104830476Y-82700761D01*
X104878095Y-82653142D01*
X104925714Y-82557904D01*
X104925714Y-82319809D01*
X104878095Y-82224571D01*
X104830476Y-82176952D01*
X104735238Y-82129333D01*
X104544761Y-82129333D01*
X104449523Y-82176952D01*
X104401904Y-82224571D01*
X104354285Y-82319809D01*
G04 #@! TO.C,C7*
X103973333Y-80113142D02*
X103925714Y-80160761D01*
X103782857Y-80208380D01*
X103687619Y-80208380D01*
X103544761Y-80160761D01*
X103449523Y-80065523D01*
X103401904Y-79970285D01*
X103354285Y-79779809D01*
X103354285Y-79636952D01*
X103401904Y-79446476D01*
X103449523Y-79351238D01*
X103544761Y-79256000D01*
X103687619Y-79208380D01*
X103782857Y-79208380D01*
X103925714Y-79256000D01*
X103973333Y-79303619D01*
X104306666Y-79208380D02*
X104973333Y-79208380D01*
X104544761Y-80208380D01*
G04 #@! TO.C,J1*
X73326666Y-80578380D02*
X73326666Y-81292666D01*
X73279047Y-81435523D01*
X73183809Y-81530761D01*
X73040952Y-81578380D01*
X72945714Y-81578380D01*
X74326666Y-81578380D02*
X73755238Y-81578380D01*
X74040952Y-81578380D02*
X74040952Y-80578380D01*
X73945714Y-80721238D01*
X73850476Y-80816476D01*
X73755238Y-80864095D01*
G04 #@! TO.C,J2*
X107616666Y-80578380D02*
X107616666Y-81292666D01*
X107569047Y-81435523D01*
X107473809Y-81530761D01*
X107330952Y-81578380D01*
X107235714Y-81578380D01*
X108045238Y-80673619D02*
X108092857Y-80626000D01*
X108188095Y-80578380D01*
X108426190Y-80578380D01*
X108521428Y-80626000D01*
X108569047Y-80673619D01*
X108616666Y-80768857D01*
X108616666Y-80864095D01*
X108569047Y-81006952D01*
X107997619Y-81578380D01*
X108616666Y-81578380D01*
G04 #@! TO.C,GND*
X81915095Y-70366000D02*
X81819857Y-70318380D01*
X81677000Y-70318380D01*
X81534142Y-70366000D01*
X81438904Y-70461238D01*
X81391285Y-70556476D01*
X81343666Y-70746952D01*
X81343666Y-70889809D01*
X81391285Y-71080285D01*
X81438904Y-71175523D01*
X81534142Y-71270761D01*
X81677000Y-71318380D01*
X81772238Y-71318380D01*
X81915095Y-71270761D01*
X81962714Y-71223142D01*
X81962714Y-70889809D01*
X81772238Y-70889809D01*
X82391285Y-71318380D02*
X82391285Y-70318380D01*
X82962714Y-71318380D01*
X82962714Y-70318380D01*
X83438904Y-71318380D02*
X83438904Y-70318380D01*
X83677000Y-70318380D01*
X83819857Y-70366000D01*
X83915095Y-70461238D01*
X83962714Y-70556476D01*
X84010333Y-70746952D01*
X84010333Y-70889809D01*
X83962714Y-71080285D01*
X83915095Y-71175523D01*
X83819857Y-71270761D01*
X83677000Y-71318380D01*
X83438904Y-71318380D01*
G04 #@! TO.C,VDD*
X78168666Y-77684380D02*
X78502000Y-78684380D01*
X78835333Y-77684380D01*
X79168666Y-78684380D02*
X79168666Y-77684380D01*
X79406761Y-77684380D01*
X79549619Y-77732000D01*
X79644857Y-77827238D01*
X79692476Y-77922476D01*
X79740095Y-78112952D01*
X79740095Y-78255809D01*
X79692476Y-78446285D01*
X79644857Y-78541523D01*
X79549619Y-78636761D01*
X79406761Y-78684380D01*
X79168666Y-78684380D01*
X80168666Y-78684380D02*
X80168666Y-77684380D01*
X80406761Y-77684380D01*
X80549619Y-77732000D01*
X80644857Y-77827238D01*
X80692476Y-77922476D01*
X80740095Y-78112952D01*
X80740095Y-78255809D01*
X80692476Y-78446285D01*
X80644857Y-78541523D01*
X80549619Y-78636761D01*
X80406761Y-78684380D01*
X80168666Y-78684380D01*
G04 #@! TO.C,L1*
X83985833Y-76778380D02*
X83509642Y-76778380D01*
X83509642Y-75778380D01*
X84842976Y-76778380D02*
X84271547Y-76778380D01*
X84557261Y-76778380D02*
X84557261Y-75778380D01*
X84462023Y-75921238D01*
X84366785Y-76016476D01*
X84271547Y-76064095D01*
G04 #@! TO.C,L2*
X87717333Y-73403480D02*
X87241142Y-73403480D01*
X87241142Y-72403480D01*
X88003047Y-72498719D02*
X88050666Y-72451100D01*
X88145904Y-72403480D01*
X88384000Y-72403480D01*
X88479238Y-72451100D01*
X88526857Y-72498719D01*
X88574476Y-72593957D01*
X88574476Y-72689195D01*
X88526857Y-72832052D01*
X87955428Y-73403480D01*
X88574476Y-73403480D01*
G04 #@! TO.C,L3*
X97623333Y-73682880D02*
X97147142Y-73682880D01*
X97147142Y-72682880D01*
X97861428Y-72682880D02*
X98480476Y-72682880D01*
X98147142Y-73063833D01*
X98290000Y-73063833D01*
X98385238Y-73111452D01*
X98432857Y-73159071D01*
X98480476Y-73254309D01*
X98480476Y-73492404D01*
X98432857Y-73587642D01*
X98385238Y-73635261D01*
X98290000Y-73682880D01*
X98004285Y-73682880D01*
X97909047Y-73635261D01*
X97861428Y-73587642D01*
G04 #@! TO.C,R1*
X90970833Y-77288380D02*
X90637500Y-76812190D01*
X90399404Y-77288380D02*
X90399404Y-76288380D01*
X90780357Y-76288380D01*
X90875595Y-76336000D01*
X90923214Y-76383619D01*
X90970833Y-76478857D01*
X90970833Y-76621714D01*
X90923214Y-76716952D01*
X90875595Y-76764571D01*
X90780357Y-76812190D01*
X90399404Y-76812190D01*
X91923214Y-77288380D02*
X91351785Y-77288380D01*
X91637500Y-77288380D02*
X91637500Y-76288380D01*
X91542261Y-76431238D01*
X91447023Y-76526476D01*
X91351785Y-76574095D01*
G04 #@! TO.C,U1*
D13*
X92221987Y-71404241D02*
X92221987Y-71922754D01*
X92252488Y-71983755D01*
X92282989Y-72014256D01*
X92343990Y-72044757D01*
X92465993Y-72044757D01*
X92526995Y-72014256D01*
X92557496Y-71983755D01*
X92587996Y-71922754D01*
X92587996Y-71404241D01*
X93228512Y-72044757D02*
X92862503Y-72044757D01*
X93045508Y-72044757D02*
X93045508Y-71404241D01*
X92984506Y-71495743D01*
X92923505Y-71556745D01*
X92862503Y-71587245D01*
G04 #@! TO.C,U2*
X95745904Y-77675619D02*
X95745904Y-78498095D01*
X95794285Y-78594857D01*
X95842666Y-78643238D01*
X95939428Y-78691619D01*
X96132952Y-78691619D01*
X96229714Y-78643238D01*
X96278095Y-78594857D01*
X96326476Y-78498095D01*
X96326476Y-77675619D01*
X96761904Y-77772380D02*
X96810285Y-77724000D01*
X96907047Y-77675619D01*
X97148952Y-77675619D01*
X97245714Y-77724000D01*
X97294095Y-77772380D01*
X97342476Y-77869142D01*
X97342476Y-77965904D01*
X97294095Y-78111047D01*
X96713523Y-78691619D01*
X97342476Y-78691619D01*
G04 #@! TD*
M02*
