G04 #@! TF.GenerationSoftware,KiCad,Pcbnew,5.0.2-bee76a0~70~ubuntu16.04.1*
G04 #@! TF.CreationDate,2019-03-07T18:54:15-05:00*
G04 #@! TF.ProjectId,lna,6c6e612e-6b69-4636-9164-5f7063625858,rev?*
G04 #@! TF.SameCoordinates,Original*
G04 #@! TF.FileFunction,Copper,L1,Top*
G04 #@! TF.FilePolarity,Positive*
%FSLAX46Y46*%
G04 Gerber Fmt 4.6, Leading zero omitted, Abs format (unit mm)*
G04 Created by KiCad (PCBNEW 5.0.2-bee76a0~70~ubuntu16.04.1) date Thu 07 Mar 2019 06:54:15 PM EST*
%MOMM*%
%LPD*%
G01*
G04 APERTURE LIST*
G04 #@! TA.AperFunction,Conductor*
%ADD10C,0.100000*%
G04 #@! TD*
G04 #@! TA.AperFunction,SMDPad,CuDef*
%ADD11C,0.975000*%
G04 #@! TD*
G04 #@! TA.AperFunction,SMDPad,CuDef*
%ADD12R,5.000000X2.500000*%
G04 #@! TD*
G04 #@! TA.AperFunction,SMDPad,CuDef*
%ADD13R,5.000000X3.000000*%
G04 #@! TD*
G04 #@! TA.AperFunction,ComponentPad*
%ADD14C,1.998980*%
G04 #@! TD*
G04 #@! TA.AperFunction,SMDPad,CuDef*
%ADD15R,0.900000X1.700000*%
G04 #@! TD*
G04 #@! TA.AperFunction,SMDPad,CuDef*
%ADD16R,0.710000X0.260000*%
G04 #@! TD*
G04 #@! TA.AperFunction,SMDPad,CuDef*
%ADD17R,1.270000X0.558800*%
G04 #@! TD*
G04 #@! TA.AperFunction,ViaPad*
%ADD18C,0.685800*%
G04 #@! TD*
G04 #@! TA.AperFunction,Conductor*
%ADD19C,0.812800*%
G04 #@! TD*
G04 #@! TA.AperFunction,Conductor*
%ADD20C,0.254000*%
G04 #@! TD*
G04 #@! TA.AperFunction,Conductor*
%ADD21C,1.270000*%
G04 #@! TD*
G04 #@! TA.AperFunction,Conductor*
%ADD22C,0.152400*%
G04 #@! TD*
G04 APERTURE END LIST*
D10*
G04 #@! TO.N,Net-(C1-Pad2)*
G04 #@! TO.C,C1*
G36*
X78402642Y-73977174D02*
X78426303Y-73980684D01*
X78449507Y-73986496D01*
X78472029Y-73994554D01*
X78493653Y-74004782D01*
X78514170Y-74017079D01*
X78533383Y-74031329D01*
X78551107Y-74047393D01*
X78567171Y-74065117D01*
X78581421Y-74084330D01*
X78593718Y-74104847D01*
X78603946Y-74126471D01*
X78612004Y-74148993D01*
X78617816Y-74172197D01*
X78621326Y-74195858D01*
X78622500Y-74219750D01*
X78622500Y-75132250D01*
X78621326Y-75156142D01*
X78617816Y-75179803D01*
X78612004Y-75203007D01*
X78603946Y-75225529D01*
X78593718Y-75247153D01*
X78581421Y-75267670D01*
X78567171Y-75286883D01*
X78551107Y-75304607D01*
X78533383Y-75320671D01*
X78514170Y-75334921D01*
X78493653Y-75347218D01*
X78472029Y-75357446D01*
X78449507Y-75365504D01*
X78426303Y-75371316D01*
X78402642Y-75374826D01*
X78378750Y-75376000D01*
X77891250Y-75376000D01*
X77867358Y-75374826D01*
X77843697Y-75371316D01*
X77820493Y-75365504D01*
X77797971Y-75357446D01*
X77776347Y-75347218D01*
X77755830Y-75334921D01*
X77736617Y-75320671D01*
X77718893Y-75304607D01*
X77702829Y-75286883D01*
X77688579Y-75267670D01*
X77676282Y-75247153D01*
X77666054Y-75225529D01*
X77657996Y-75203007D01*
X77652184Y-75179803D01*
X77648674Y-75156142D01*
X77647500Y-75132250D01*
X77647500Y-74219750D01*
X77648674Y-74195858D01*
X77652184Y-74172197D01*
X77657996Y-74148993D01*
X77666054Y-74126471D01*
X77676282Y-74104847D01*
X77688579Y-74084330D01*
X77702829Y-74065117D01*
X77718893Y-74047393D01*
X77736617Y-74031329D01*
X77755830Y-74017079D01*
X77776347Y-74004782D01*
X77797971Y-73994554D01*
X77820493Y-73986496D01*
X77843697Y-73980684D01*
X77867358Y-73977174D01*
X77891250Y-73976000D01*
X78378750Y-73976000D01*
X78402642Y-73977174D01*
X78402642Y-73977174D01*
G37*
D11*
G04 #@! TD*
G04 #@! TO.P,C1,2*
G04 #@! TO.N,Net-(C1-Pad2)*
X78135000Y-74676000D03*
D10*
G04 #@! TO.N,Net-(C1-Pad1)*
G04 #@! TO.C,C1*
G36*
X80277642Y-73977174D02*
X80301303Y-73980684D01*
X80324507Y-73986496D01*
X80347029Y-73994554D01*
X80368653Y-74004782D01*
X80389170Y-74017079D01*
X80408383Y-74031329D01*
X80426107Y-74047393D01*
X80442171Y-74065117D01*
X80456421Y-74084330D01*
X80468718Y-74104847D01*
X80478946Y-74126471D01*
X80487004Y-74148993D01*
X80492816Y-74172197D01*
X80496326Y-74195858D01*
X80497500Y-74219750D01*
X80497500Y-75132250D01*
X80496326Y-75156142D01*
X80492816Y-75179803D01*
X80487004Y-75203007D01*
X80478946Y-75225529D01*
X80468718Y-75247153D01*
X80456421Y-75267670D01*
X80442171Y-75286883D01*
X80426107Y-75304607D01*
X80408383Y-75320671D01*
X80389170Y-75334921D01*
X80368653Y-75347218D01*
X80347029Y-75357446D01*
X80324507Y-75365504D01*
X80301303Y-75371316D01*
X80277642Y-75374826D01*
X80253750Y-75376000D01*
X79766250Y-75376000D01*
X79742358Y-75374826D01*
X79718697Y-75371316D01*
X79695493Y-75365504D01*
X79672971Y-75357446D01*
X79651347Y-75347218D01*
X79630830Y-75334921D01*
X79611617Y-75320671D01*
X79593893Y-75304607D01*
X79577829Y-75286883D01*
X79563579Y-75267670D01*
X79551282Y-75247153D01*
X79541054Y-75225529D01*
X79532996Y-75203007D01*
X79527184Y-75179803D01*
X79523674Y-75156142D01*
X79522500Y-75132250D01*
X79522500Y-74219750D01*
X79523674Y-74195858D01*
X79527184Y-74172197D01*
X79532996Y-74148993D01*
X79541054Y-74126471D01*
X79551282Y-74104847D01*
X79563579Y-74084330D01*
X79577829Y-74065117D01*
X79593893Y-74047393D01*
X79611617Y-74031329D01*
X79630830Y-74017079D01*
X79651347Y-74004782D01*
X79672971Y-73994554D01*
X79695493Y-73986496D01*
X79718697Y-73980684D01*
X79742358Y-73977174D01*
X79766250Y-73976000D01*
X80253750Y-73976000D01*
X80277642Y-73977174D01*
X80277642Y-73977174D01*
G37*
D11*
G04 #@! TD*
G04 #@! TO.P,C1,1*
G04 #@! TO.N,Net-(C1-Pad1)*
X80010000Y-74676000D03*
D10*
G04 #@! TO.N,Net-(C2-Pad2)*
G04 #@! TO.C,C2*
G36*
X85357642Y-77533174D02*
X85381303Y-77536684D01*
X85404507Y-77542496D01*
X85427029Y-77550554D01*
X85448653Y-77560782D01*
X85469170Y-77573079D01*
X85488383Y-77587329D01*
X85506107Y-77603393D01*
X85522171Y-77621117D01*
X85536421Y-77640330D01*
X85548718Y-77660847D01*
X85558946Y-77682471D01*
X85567004Y-77704993D01*
X85572816Y-77728197D01*
X85576326Y-77751858D01*
X85577500Y-77775750D01*
X85577500Y-78688250D01*
X85576326Y-78712142D01*
X85572816Y-78735803D01*
X85567004Y-78759007D01*
X85558946Y-78781529D01*
X85548718Y-78803153D01*
X85536421Y-78823670D01*
X85522171Y-78842883D01*
X85506107Y-78860607D01*
X85488383Y-78876671D01*
X85469170Y-78890921D01*
X85448653Y-78903218D01*
X85427029Y-78913446D01*
X85404507Y-78921504D01*
X85381303Y-78927316D01*
X85357642Y-78930826D01*
X85333750Y-78932000D01*
X84846250Y-78932000D01*
X84822358Y-78930826D01*
X84798697Y-78927316D01*
X84775493Y-78921504D01*
X84752971Y-78913446D01*
X84731347Y-78903218D01*
X84710830Y-78890921D01*
X84691617Y-78876671D01*
X84673893Y-78860607D01*
X84657829Y-78842883D01*
X84643579Y-78823670D01*
X84631282Y-78803153D01*
X84621054Y-78781529D01*
X84612996Y-78759007D01*
X84607184Y-78735803D01*
X84603674Y-78712142D01*
X84602500Y-78688250D01*
X84602500Y-77775750D01*
X84603674Y-77751858D01*
X84607184Y-77728197D01*
X84612996Y-77704993D01*
X84621054Y-77682471D01*
X84631282Y-77660847D01*
X84643579Y-77640330D01*
X84657829Y-77621117D01*
X84673893Y-77603393D01*
X84691617Y-77587329D01*
X84710830Y-77573079D01*
X84731347Y-77560782D01*
X84752971Y-77550554D01*
X84775493Y-77542496D01*
X84798697Y-77536684D01*
X84822358Y-77533174D01*
X84846250Y-77532000D01*
X85333750Y-77532000D01*
X85357642Y-77533174D01*
X85357642Y-77533174D01*
G37*
D11*
G04 #@! TD*
G04 #@! TO.P,C2,2*
G04 #@! TO.N,Net-(C2-Pad2)*
X85090000Y-78232000D03*
D10*
G04 #@! TO.N,GND*
G04 #@! TO.C,C2*
G36*
X83482642Y-77533174D02*
X83506303Y-77536684D01*
X83529507Y-77542496D01*
X83552029Y-77550554D01*
X83573653Y-77560782D01*
X83594170Y-77573079D01*
X83613383Y-77587329D01*
X83631107Y-77603393D01*
X83647171Y-77621117D01*
X83661421Y-77640330D01*
X83673718Y-77660847D01*
X83683946Y-77682471D01*
X83692004Y-77704993D01*
X83697816Y-77728197D01*
X83701326Y-77751858D01*
X83702500Y-77775750D01*
X83702500Y-78688250D01*
X83701326Y-78712142D01*
X83697816Y-78735803D01*
X83692004Y-78759007D01*
X83683946Y-78781529D01*
X83673718Y-78803153D01*
X83661421Y-78823670D01*
X83647171Y-78842883D01*
X83631107Y-78860607D01*
X83613383Y-78876671D01*
X83594170Y-78890921D01*
X83573653Y-78903218D01*
X83552029Y-78913446D01*
X83529507Y-78921504D01*
X83506303Y-78927316D01*
X83482642Y-78930826D01*
X83458750Y-78932000D01*
X82971250Y-78932000D01*
X82947358Y-78930826D01*
X82923697Y-78927316D01*
X82900493Y-78921504D01*
X82877971Y-78913446D01*
X82856347Y-78903218D01*
X82835830Y-78890921D01*
X82816617Y-78876671D01*
X82798893Y-78860607D01*
X82782829Y-78842883D01*
X82768579Y-78823670D01*
X82756282Y-78803153D01*
X82746054Y-78781529D01*
X82737996Y-78759007D01*
X82732184Y-78735803D01*
X82728674Y-78712142D01*
X82727500Y-78688250D01*
X82727500Y-77775750D01*
X82728674Y-77751858D01*
X82732184Y-77728197D01*
X82737996Y-77704993D01*
X82746054Y-77682471D01*
X82756282Y-77660847D01*
X82768579Y-77640330D01*
X82782829Y-77621117D01*
X82798893Y-77603393D01*
X82816617Y-77587329D01*
X82835830Y-77573079D01*
X82856347Y-77560782D01*
X82877971Y-77550554D01*
X82900493Y-77542496D01*
X82923697Y-77536684D01*
X82947358Y-77533174D01*
X82971250Y-77532000D01*
X83458750Y-77532000D01*
X83482642Y-77533174D01*
X83482642Y-77533174D01*
G37*
D11*
G04 #@! TD*
G04 #@! TO.P,C2,1*
G04 #@! TO.N,GND*
X83215000Y-78232000D03*
D10*
G04 #@! TO.N,+3V3*
G04 #@! TO.C,C3*
G36*
X100930142Y-76517174D02*
X100953803Y-76520684D01*
X100977007Y-76526496D01*
X100999529Y-76534554D01*
X101021153Y-76544782D01*
X101041670Y-76557079D01*
X101060883Y-76571329D01*
X101078607Y-76587393D01*
X101094671Y-76605117D01*
X101108921Y-76624330D01*
X101121218Y-76644847D01*
X101131446Y-76666471D01*
X101139504Y-76688993D01*
X101145316Y-76712197D01*
X101148826Y-76735858D01*
X101150000Y-76759750D01*
X101150000Y-77672250D01*
X101148826Y-77696142D01*
X101145316Y-77719803D01*
X101139504Y-77743007D01*
X101131446Y-77765529D01*
X101121218Y-77787153D01*
X101108921Y-77807670D01*
X101094671Y-77826883D01*
X101078607Y-77844607D01*
X101060883Y-77860671D01*
X101041670Y-77874921D01*
X101021153Y-77887218D01*
X100999529Y-77897446D01*
X100977007Y-77905504D01*
X100953803Y-77911316D01*
X100930142Y-77914826D01*
X100906250Y-77916000D01*
X100418750Y-77916000D01*
X100394858Y-77914826D01*
X100371197Y-77911316D01*
X100347993Y-77905504D01*
X100325471Y-77897446D01*
X100303847Y-77887218D01*
X100283330Y-77874921D01*
X100264117Y-77860671D01*
X100246393Y-77844607D01*
X100230329Y-77826883D01*
X100216079Y-77807670D01*
X100203782Y-77787153D01*
X100193554Y-77765529D01*
X100185496Y-77743007D01*
X100179684Y-77719803D01*
X100176174Y-77696142D01*
X100175000Y-77672250D01*
X100175000Y-76759750D01*
X100176174Y-76735858D01*
X100179684Y-76712197D01*
X100185496Y-76688993D01*
X100193554Y-76666471D01*
X100203782Y-76644847D01*
X100216079Y-76624330D01*
X100230329Y-76605117D01*
X100246393Y-76587393D01*
X100264117Y-76571329D01*
X100283330Y-76557079D01*
X100303847Y-76544782D01*
X100325471Y-76534554D01*
X100347993Y-76526496D01*
X100371197Y-76520684D01*
X100394858Y-76517174D01*
X100418750Y-76516000D01*
X100906250Y-76516000D01*
X100930142Y-76517174D01*
X100930142Y-76517174D01*
G37*
D11*
G04 #@! TD*
G04 #@! TO.P,C3,2*
G04 #@! TO.N,+3V3*
X100662500Y-77216000D03*
D10*
G04 #@! TO.N,GND*
G04 #@! TO.C,C3*
G36*
X102805142Y-76517174D02*
X102828803Y-76520684D01*
X102852007Y-76526496D01*
X102874529Y-76534554D01*
X102896153Y-76544782D01*
X102916670Y-76557079D01*
X102935883Y-76571329D01*
X102953607Y-76587393D01*
X102969671Y-76605117D01*
X102983921Y-76624330D01*
X102996218Y-76644847D01*
X103006446Y-76666471D01*
X103014504Y-76688993D01*
X103020316Y-76712197D01*
X103023826Y-76735858D01*
X103025000Y-76759750D01*
X103025000Y-77672250D01*
X103023826Y-77696142D01*
X103020316Y-77719803D01*
X103014504Y-77743007D01*
X103006446Y-77765529D01*
X102996218Y-77787153D01*
X102983921Y-77807670D01*
X102969671Y-77826883D01*
X102953607Y-77844607D01*
X102935883Y-77860671D01*
X102916670Y-77874921D01*
X102896153Y-77887218D01*
X102874529Y-77897446D01*
X102852007Y-77905504D01*
X102828803Y-77911316D01*
X102805142Y-77914826D01*
X102781250Y-77916000D01*
X102293750Y-77916000D01*
X102269858Y-77914826D01*
X102246197Y-77911316D01*
X102222993Y-77905504D01*
X102200471Y-77897446D01*
X102178847Y-77887218D01*
X102158330Y-77874921D01*
X102139117Y-77860671D01*
X102121393Y-77844607D01*
X102105329Y-77826883D01*
X102091079Y-77807670D01*
X102078782Y-77787153D01*
X102068554Y-77765529D01*
X102060496Y-77743007D01*
X102054684Y-77719803D01*
X102051174Y-77696142D01*
X102050000Y-77672250D01*
X102050000Y-76759750D01*
X102051174Y-76735858D01*
X102054684Y-76712197D01*
X102060496Y-76688993D01*
X102068554Y-76666471D01*
X102078782Y-76644847D01*
X102091079Y-76624330D01*
X102105329Y-76605117D01*
X102121393Y-76587393D01*
X102139117Y-76571329D01*
X102158330Y-76557079D01*
X102178847Y-76544782D01*
X102200471Y-76534554D01*
X102222993Y-76526496D01*
X102246197Y-76520684D01*
X102269858Y-76517174D01*
X102293750Y-76516000D01*
X102781250Y-76516000D01*
X102805142Y-76517174D01*
X102805142Y-76517174D01*
G37*
D11*
G04 #@! TD*
G04 #@! TO.P,C3,1*
G04 #@! TO.N,GND*
X102537500Y-77216000D03*
D10*
G04 #@! TO.N,Net-(C4-Pad2)*
G04 #@! TO.C,C4*
G36*
X100930142Y-73977174D02*
X100953803Y-73980684D01*
X100977007Y-73986496D01*
X100999529Y-73994554D01*
X101021153Y-74004782D01*
X101041670Y-74017079D01*
X101060883Y-74031329D01*
X101078607Y-74047393D01*
X101094671Y-74065117D01*
X101108921Y-74084330D01*
X101121218Y-74104847D01*
X101131446Y-74126471D01*
X101139504Y-74148993D01*
X101145316Y-74172197D01*
X101148826Y-74195858D01*
X101150000Y-74219750D01*
X101150000Y-75132250D01*
X101148826Y-75156142D01*
X101145316Y-75179803D01*
X101139504Y-75203007D01*
X101131446Y-75225529D01*
X101121218Y-75247153D01*
X101108921Y-75267670D01*
X101094671Y-75286883D01*
X101078607Y-75304607D01*
X101060883Y-75320671D01*
X101041670Y-75334921D01*
X101021153Y-75347218D01*
X100999529Y-75357446D01*
X100977007Y-75365504D01*
X100953803Y-75371316D01*
X100930142Y-75374826D01*
X100906250Y-75376000D01*
X100418750Y-75376000D01*
X100394858Y-75374826D01*
X100371197Y-75371316D01*
X100347993Y-75365504D01*
X100325471Y-75357446D01*
X100303847Y-75347218D01*
X100283330Y-75334921D01*
X100264117Y-75320671D01*
X100246393Y-75304607D01*
X100230329Y-75286883D01*
X100216079Y-75267670D01*
X100203782Y-75247153D01*
X100193554Y-75225529D01*
X100185496Y-75203007D01*
X100179684Y-75179803D01*
X100176174Y-75156142D01*
X100175000Y-75132250D01*
X100175000Y-74219750D01*
X100176174Y-74195858D01*
X100179684Y-74172197D01*
X100185496Y-74148993D01*
X100193554Y-74126471D01*
X100203782Y-74104847D01*
X100216079Y-74084330D01*
X100230329Y-74065117D01*
X100246393Y-74047393D01*
X100264117Y-74031329D01*
X100283330Y-74017079D01*
X100303847Y-74004782D01*
X100325471Y-73994554D01*
X100347993Y-73986496D01*
X100371197Y-73980684D01*
X100394858Y-73977174D01*
X100418750Y-73976000D01*
X100906250Y-73976000D01*
X100930142Y-73977174D01*
X100930142Y-73977174D01*
G37*
D11*
G04 #@! TD*
G04 #@! TO.P,C4,2*
G04 #@! TO.N,Net-(C4-Pad2)*
X100662500Y-74676000D03*
D10*
G04 #@! TO.N,Net-(C4-Pad1)*
G04 #@! TO.C,C4*
G36*
X102805142Y-73977174D02*
X102828803Y-73980684D01*
X102852007Y-73986496D01*
X102874529Y-73994554D01*
X102896153Y-74004782D01*
X102916670Y-74017079D01*
X102935883Y-74031329D01*
X102953607Y-74047393D01*
X102969671Y-74065117D01*
X102983921Y-74084330D01*
X102996218Y-74104847D01*
X103006446Y-74126471D01*
X103014504Y-74148993D01*
X103020316Y-74172197D01*
X103023826Y-74195858D01*
X103025000Y-74219750D01*
X103025000Y-75132250D01*
X103023826Y-75156142D01*
X103020316Y-75179803D01*
X103014504Y-75203007D01*
X103006446Y-75225529D01*
X102996218Y-75247153D01*
X102983921Y-75267670D01*
X102969671Y-75286883D01*
X102953607Y-75304607D01*
X102935883Y-75320671D01*
X102916670Y-75334921D01*
X102896153Y-75347218D01*
X102874529Y-75357446D01*
X102852007Y-75365504D01*
X102828803Y-75371316D01*
X102805142Y-75374826D01*
X102781250Y-75376000D01*
X102293750Y-75376000D01*
X102269858Y-75374826D01*
X102246197Y-75371316D01*
X102222993Y-75365504D01*
X102200471Y-75357446D01*
X102178847Y-75347218D01*
X102158330Y-75334921D01*
X102139117Y-75320671D01*
X102121393Y-75304607D01*
X102105329Y-75286883D01*
X102091079Y-75267670D01*
X102078782Y-75247153D01*
X102068554Y-75225529D01*
X102060496Y-75203007D01*
X102054684Y-75179803D01*
X102051174Y-75156142D01*
X102050000Y-75132250D01*
X102050000Y-74219750D01*
X102051174Y-74195858D01*
X102054684Y-74172197D01*
X102060496Y-74148993D01*
X102068554Y-74126471D01*
X102078782Y-74104847D01*
X102091079Y-74084330D01*
X102105329Y-74065117D01*
X102121393Y-74047393D01*
X102139117Y-74031329D01*
X102158330Y-74017079D01*
X102178847Y-74004782D01*
X102200471Y-73994554D01*
X102222993Y-73986496D01*
X102246197Y-73980684D01*
X102269858Y-73977174D01*
X102293750Y-73976000D01*
X102781250Y-73976000D01*
X102805142Y-73977174D01*
X102805142Y-73977174D01*
G37*
D11*
G04 #@! TD*
G04 #@! TO.P,C4,1*
G04 #@! TO.N,Net-(C4-Pad1)*
X102537500Y-74676000D03*
D10*
G04 #@! TO.N,GND*
G04 #@! TO.C,C5*
G36*
X86784642Y-79819174D02*
X86808303Y-79822684D01*
X86831507Y-79828496D01*
X86854029Y-79836554D01*
X86875653Y-79846782D01*
X86896170Y-79859079D01*
X86915383Y-79873329D01*
X86933107Y-79889393D01*
X86949171Y-79907117D01*
X86963421Y-79926330D01*
X86975718Y-79946847D01*
X86985946Y-79968471D01*
X86994004Y-79990993D01*
X86999816Y-80014197D01*
X87003326Y-80037858D01*
X87004500Y-80061750D01*
X87004500Y-80974250D01*
X87003326Y-80998142D01*
X86999816Y-81021803D01*
X86994004Y-81045007D01*
X86985946Y-81067529D01*
X86975718Y-81089153D01*
X86963421Y-81109670D01*
X86949171Y-81128883D01*
X86933107Y-81146607D01*
X86915383Y-81162671D01*
X86896170Y-81176921D01*
X86875653Y-81189218D01*
X86854029Y-81199446D01*
X86831507Y-81207504D01*
X86808303Y-81213316D01*
X86784642Y-81216826D01*
X86760750Y-81218000D01*
X86273250Y-81218000D01*
X86249358Y-81216826D01*
X86225697Y-81213316D01*
X86202493Y-81207504D01*
X86179971Y-81199446D01*
X86158347Y-81189218D01*
X86137830Y-81176921D01*
X86118617Y-81162671D01*
X86100893Y-81146607D01*
X86084829Y-81128883D01*
X86070579Y-81109670D01*
X86058282Y-81089153D01*
X86048054Y-81067529D01*
X86039996Y-81045007D01*
X86034184Y-81021803D01*
X86030674Y-80998142D01*
X86029500Y-80974250D01*
X86029500Y-80061750D01*
X86030674Y-80037858D01*
X86034184Y-80014197D01*
X86039996Y-79990993D01*
X86048054Y-79968471D01*
X86058282Y-79946847D01*
X86070579Y-79926330D01*
X86084829Y-79907117D01*
X86100893Y-79889393D01*
X86118617Y-79873329D01*
X86137830Y-79859079D01*
X86158347Y-79846782D01*
X86179971Y-79836554D01*
X86202493Y-79828496D01*
X86225697Y-79822684D01*
X86249358Y-79819174D01*
X86273250Y-79818000D01*
X86760750Y-79818000D01*
X86784642Y-79819174D01*
X86784642Y-79819174D01*
G37*
D11*
G04 #@! TD*
G04 #@! TO.P,C5,2*
G04 #@! TO.N,GND*
X86517000Y-80518000D03*
D10*
G04 #@! TO.N,VDD*
G04 #@! TO.C,C5*
G36*
X88659642Y-79819174D02*
X88683303Y-79822684D01*
X88706507Y-79828496D01*
X88729029Y-79836554D01*
X88750653Y-79846782D01*
X88771170Y-79859079D01*
X88790383Y-79873329D01*
X88808107Y-79889393D01*
X88824171Y-79907117D01*
X88838421Y-79926330D01*
X88850718Y-79946847D01*
X88860946Y-79968471D01*
X88869004Y-79990993D01*
X88874816Y-80014197D01*
X88878326Y-80037858D01*
X88879500Y-80061750D01*
X88879500Y-80974250D01*
X88878326Y-80998142D01*
X88874816Y-81021803D01*
X88869004Y-81045007D01*
X88860946Y-81067529D01*
X88850718Y-81089153D01*
X88838421Y-81109670D01*
X88824171Y-81128883D01*
X88808107Y-81146607D01*
X88790383Y-81162671D01*
X88771170Y-81176921D01*
X88750653Y-81189218D01*
X88729029Y-81199446D01*
X88706507Y-81207504D01*
X88683303Y-81213316D01*
X88659642Y-81216826D01*
X88635750Y-81218000D01*
X88148250Y-81218000D01*
X88124358Y-81216826D01*
X88100697Y-81213316D01*
X88077493Y-81207504D01*
X88054971Y-81199446D01*
X88033347Y-81189218D01*
X88012830Y-81176921D01*
X87993617Y-81162671D01*
X87975893Y-81146607D01*
X87959829Y-81128883D01*
X87945579Y-81109670D01*
X87933282Y-81089153D01*
X87923054Y-81067529D01*
X87914996Y-81045007D01*
X87909184Y-81021803D01*
X87905674Y-80998142D01*
X87904500Y-80974250D01*
X87904500Y-80061750D01*
X87905674Y-80037858D01*
X87909184Y-80014197D01*
X87914996Y-79990993D01*
X87923054Y-79968471D01*
X87933282Y-79946847D01*
X87945579Y-79926330D01*
X87959829Y-79907117D01*
X87975893Y-79889393D01*
X87993617Y-79873329D01*
X88012830Y-79859079D01*
X88033347Y-79846782D01*
X88054971Y-79836554D01*
X88077493Y-79828496D01*
X88100697Y-79822684D01*
X88124358Y-79819174D01*
X88148250Y-79818000D01*
X88635750Y-79818000D01*
X88659642Y-79819174D01*
X88659642Y-79819174D01*
G37*
D11*
G04 #@! TD*
G04 #@! TO.P,C5,1*
G04 #@! TO.N,VDD*
X88392000Y-80518000D03*
D10*
G04 #@! TO.N,Net-(C6-Pad2)*
G04 #@! TO.C,C6*
G36*
X100930142Y-81597174D02*
X100953803Y-81600684D01*
X100977007Y-81606496D01*
X100999529Y-81614554D01*
X101021153Y-81624782D01*
X101041670Y-81637079D01*
X101060883Y-81651329D01*
X101078607Y-81667393D01*
X101094671Y-81685117D01*
X101108921Y-81704330D01*
X101121218Y-81724847D01*
X101131446Y-81746471D01*
X101139504Y-81768993D01*
X101145316Y-81792197D01*
X101148826Y-81815858D01*
X101150000Y-81839750D01*
X101150000Y-82752250D01*
X101148826Y-82776142D01*
X101145316Y-82799803D01*
X101139504Y-82823007D01*
X101131446Y-82845529D01*
X101121218Y-82867153D01*
X101108921Y-82887670D01*
X101094671Y-82906883D01*
X101078607Y-82924607D01*
X101060883Y-82940671D01*
X101041670Y-82954921D01*
X101021153Y-82967218D01*
X100999529Y-82977446D01*
X100977007Y-82985504D01*
X100953803Y-82991316D01*
X100930142Y-82994826D01*
X100906250Y-82996000D01*
X100418750Y-82996000D01*
X100394858Y-82994826D01*
X100371197Y-82991316D01*
X100347993Y-82985504D01*
X100325471Y-82977446D01*
X100303847Y-82967218D01*
X100283330Y-82954921D01*
X100264117Y-82940671D01*
X100246393Y-82924607D01*
X100230329Y-82906883D01*
X100216079Y-82887670D01*
X100203782Y-82867153D01*
X100193554Y-82845529D01*
X100185496Y-82823007D01*
X100179684Y-82799803D01*
X100176174Y-82776142D01*
X100175000Y-82752250D01*
X100175000Y-81839750D01*
X100176174Y-81815858D01*
X100179684Y-81792197D01*
X100185496Y-81768993D01*
X100193554Y-81746471D01*
X100203782Y-81724847D01*
X100216079Y-81704330D01*
X100230329Y-81685117D01*
X100246393Y-81667393D01*
X100264117Y-81651329D01*
X100283330Y-81637079D01*
X100303847Y-81624782D01*
X100325471Y-81614554D01*
X100347993Y-81606496D01*
X100371197Y-81600684D01*
X100394858Y-81597174D01*
X100418750Y-81596000D01*
X100906250Y-81596000D01*
X100930142Y-81597174D01*
X100930142Y-81597174D01*
G37*
D11*
G04 #@! TD*
G04 #@! TO.P,C6,2*
G04 #@! TO.N,Net-(C6-Pad2)*
X100662500Y-82296000D03*
D10*
G04 #@! TO.N,GND*
G04 #@! TO.C,C6*
G36*
X102805142Y-81597174D02*
X102828803Y-81600684D01*
X102852007Y-81606496D01*
X102874529Y-81614554D01*
X102896153Y-81624782D01*
X102916670Y-81637079D01*
X102935883Y-81651329D01*
X102953607Y-81667393D01*
X102969671Y-81685117D01*
X102983921Y-81704330D01*
X102996218Y-81724847D01*
X103006446Y-81746471D01*
X103014504Y-81768993D01*
X103020316Y-81792197D01*
X103023826Y-81815858D01*
X103025000Y-81839750D01*
X103025000Y-82752250D01*
X103023826Y-82776142D01*
X103020316Y-82799803D01*
X103014504Y-82823007D01*
X103006446Y-82845529D01*
X102996218Y-82867153D01*
X102983921Y-82887670D01*
X102969671Y-82906883D01*
X102953607Y-82924607D01*
X102935883Y-82940671D01*
X102916670Y-82954921D01*
X102896153Y-82967218D01*
X102874529Y-82977446D01*
X102852007Y-82985504D01*
X102828803Y-82991316D01*
X102805142Y-82994826D01*
X102781250Y-82996000D01*
X102293750Y-82996000D01*
X102269858Y-82994826D01*
X102246197Y-82991316D01*
X102222993Y-82985504D01*
X102200471Y-82977446D01*
X102178847Y-82967218D01*
X102158330Y-82954921D01*
X102139117Y-82940671D01*
X102121393Y-82924607D01*
X102105329Y-82906883D01*
X102091079Y-82887670D01*
X102078782Y-82867153D01*
X102068554Y-82845529D01*
X102060496Y-82823007D01*
X102054684Y-82799803D01*
X102051174Y-82776142D01*
X102050000Y-82752250D01*
X102050000Y-81839750D01*
X102051174Y-81815858D01*
X102054684Y-81792197D01*
X102060496Y-81768993D01*
X102068554Y-81746471D01*
X102078782Y-81724847D01*
X102091079Y-81704330D01*
X102105329Y-81685117D01*
X102121393Y-81667393D01*
X102139117Y-81651329D01*
X102158330Y-81637079D01*
X102178847Y-81624782D01*
X102200471Y-81614554D01*
X102222993Y-81606496D01*
X102246197Y-81600684D01*
X102269858Y-81597174D01*
X102293750Y-81596000D01*
X102781250Y-81596000D01*
X102805142Y-81597174D01*
X102805142Y-81597174D01*
G37*
D11*
G04 #@! TD*
G04 #@! TO.P,C6,1*
G04 #@! TO.N,GND*
X102537500Y-82296000D03*
D10*
G04 #@! TO.N,+3V3*
G04 #@! TO.C,C7*
G36*
X100930142Y-79057174D02*
X100953803Y-79060684D01*
X100977007Y-79066496D01*
X100999529Y-79074554D01*
X101021153Y-79084782D01*
X101041670Y-79097079D01*
X101060883Y-79111329D01*
X101078607Y-79127393D01*
X101094671Y-79145117D01*
X101108921Y-79164330D01*
X101121218Y-79184847D01*
X101131446Y-79206471D01*
X101139504Y-79228993D01*
X101145316Y-79252197D01*
X101148826Y-79275858D01*
X101150000Y-79299750D01*
X101150000Y-80212250D01*
X101148826Y-80236142D01*
X101145316Y-80259803D01*
X101139504Y-80283007D01*
X101131446Y-80305529D01*
X101121218Y-80327153D01*
X101108921Y-80347670D01*
X101094671Y-80366883D01*
X101078607Y-80384607D01*
X101060883Y-80400671D01*
X101041670Y-80414921D01*
X101021153Y-80427218D01*
X100999529Y-80437446D01*
X100977007Y-80445504D01*
X100953803Y-80451316D01*
X100930142Y-80454826D01*
X100906250Y-80456000D01*
X100418750Y-80456000D01*
X100394858Y-80454826D01*
X100371197Y-80451316D01*
X100347993Y-80445504D01*
X100325471Y-80437446D01*
X100303847Y-80427218D01*
X100283330Y-80414921D01*
X100264117Y-80400671D01*
X100246393Y-80384607D01*
X100230329Y-80366883D01*
X100216079Y-80347670D01*
X100203782Y-80327153D01*
X100193554Y-80305529D01*
X100185496Y-80283007D01*
X100179684Y-80259803D01*
X100176174Y-80236142D01*
X100175000Y-80212250D01*
X100175000Y-79299750D01*
X100176174Y-79275858D01*
X100179684Y-79252197D01*
X100185496Y-79228993D01*
X100193554Y-79206471D01*
X100203782Y-79184847D01*
X100216079Y-79164330D01*
X100230329Y-79145117D01*
X100246393Y-79127393D01*
X100264117Y-79111329D01*
X100283330Y-79097079D01*
X100303847Y-79084782D01*
X100325471Y-79074554D01*
X100347993Y-79066496D01*
X100371197Y-79060684D01*
X100394858Y-79057174D01*
X100418750Y-79056000D01*
X100906250Y-79056000D01*
X100930142Y-79057174D01*
X100930142Y-79057174D01*
G37*
D11*
G04 #@! TD*
G04 #@! TO.P,C7,2*
G04 #@! TO.N,+3V3*
X100662500Y-79756000D03*
D10*
G04 #@! TO.N,GND*
G04 #@! TO.C,C7*
G36*
X102805142Y-79057174D02*
X102828803Y-79060684D01*
X102852007Y-79066496D01*
X102874529Y-79074554D01*
X102896153Y-79084782D01*
X102916670Y-79097079D01*
X102935883Y-79111329D01*
X102953607Y-79127393D01*
X102969671Y-79145117D01*
X102983921Y-79164330D01*
X102996218Y-79184847D01*
X103006446Y-79206471D01*
X103014504Y-79228993D01*
X103020316Y-79252197D01*
X103023826Y-79275858D01*
X103025000Y-79299750D01*
X103025000Y-80212250D01*
X103023826Y-80236142D01*
X103020316Y-80259803D01*
X103014504Y-80283007D01*
X103006446Y-80305529D01*
X102996218Y-80327153D01*
X102983921Y-80347670D01*
X102969671Y-80366883D01*
X102953607Y-80384607D01*
X102935883Y-80400671D01*
X102916670Y-80414921D01*
X102896153Y-80427218D01*
X102874529Y-80437446D01*
X102852007Y-80445504D01*
X102828803Y-80451316D01*
X102805142Y-80454826D01*
X102781250Y-80456000D01*
X102293750Y-80456000D01*
X102269858Y-80454826D01*
X102246197Y-80451316D01*
X102222993Y-80445504D01*
X102200471Y-80437446D01*
X102178847Y-80427218D01*
X102158330Y-80414921D01*
X102139117Y-80400671D01*
X102121393Y-80384607D01*
X102105329Y-80366883D01*
X102091079Y-80347670D01*
X102078782Y-80327153D01*
X102068554Y-80305529D01*
X102060496Y-80283007D01*
X102054684Y-80259803D01*
X102051174Y-80236142D01*
X102050000Y-80212250D01*
X102050000Y-79299750D01*
X102051174Y-79275858D01*
X102054684Y-79252197D01*
X102060496Y-79228993D01*
X102068554Y-79206471D01*
X102078782Y-79184847D01*
X102091079Y-79164330D01*
X102105329Y-79145117D01*
X102121393Y-79127393D01*
X102139117Y-79111329D01*
X102158330Y-79097079D01*
X102178847Y-79084782D01*
X102200471Y-79074554D01*
X102222993Y-79066496D01*
X102246197Y-79060684D01*
X102269858Y-79057174D01*
X102293750Y-79056000D01*
X102781250Y-79056000D01*
X102805142Y-79057174D01*
X102805142Y-79057174D01*
G37*
D11*
G04 #@! TD*
G04 #@! TO.P,C7,1*
G04 #@! TO.N,GND*
X102537500Y-79756000D03*
D12*
G04 #@! TO.P,J1,1*
G04 #@! TO.N,Net-(C1-Pad2)*
X73660000Y-74676000D03*
D13*
G04 #@! TO.P,J1,2*
G04 #@! TO.N,GND*
X73660000Y-70926000D03*
X73660000Y-78426000D03*
G04 #@! TD*
D12*
G04 #@! TO.P,J2,1*
G04 #@! TO.N,Net-(C4-Pad1)*
X107950000Y-74676000D03*
D13*
G04 #@! TO.P,J2,2*
G04 #@! TO.N,GND*
X107950000Y-70926000D03*
X107950000Y-78426000D03*
G04 #@! TD*
D14*
G04 #@! TO.P,GND,1*
G04 #@! TO.N,GND*
X79502000Y-70866000D03*
G04 #@! TD*
G04 #@! TO.P,VDD,1*
G04 #@! TO.N,VDD*
X79502000Y-80772000D03*
G04 #@! TD*
D10*
G04 #@! TO.N,Net-(C1-Pad1)*
G04 #@! TO.C,L1*
G36*
X83482642Y-73977174D02*
X83506303Y-73980684D01*
X83529507Y-73986496D01*
X83552029Y-73994554D01*
X83573653Y-74004782D01*
X83594170Y-74017079D01*
X83613383Y-74031329D01*
X83631107Y-74047393D01*
X83647171Y-74065117D01*
X83661421Y-74084330D01*
X83673718Y-74104847D01*
X83683946Y-74126471D01*
X83692004Y-74148993D01*
X83697816Y-74172197D01*
X83701326Y-74195858D01*
X83702500Y-74219750D01*
X83702500Y-75132250D01*
X83701326Y-75156142D01*
X83697816Y-75179803D01*
X83692004Y-75203007D01*
X83683946Y-75225529D01*
X83673718Y-75247153D01*
X83661421Y-75267670D01*
X83647171Y-75286883D01*
X83631107Y-75304607D01*
X83613383Y-75320671D01*
X83594170Y-75334921D01*
X83573653Y-75347218D01*
X83552029Y-75357446D01*
X83529507Y-75365504D01*
X83506303Y-75371316D01*
X83482642Y-75374826D01*
X83458750Y-75376000D01*
X82971250Y-75376000D01*
X82947358Y-75374826D01*
X82923697Y-75371316D01*
X82900493Y-75365504D01*
X82877971Y-75357446D01*
X82856347Y-75347218D01*
X82835830Y-75334921D01*
X82816617Y-75320671D01*
X82798893Y-75304607D01*
X82782829Y-75286883D01*
X82768579Y-75267670D01*
X82756282Y-75247153D01*
X82746054Y-75225529D01*
X82737996Y-75203007D01*
X82732184Y-75179803D01*
X82728674Y-75156142D01*
X82727500Y-75132250D01*
X82727500Y-74219750D01*
X82728674Y-74195858D01*
X82732184Y-74172197D01*
X82737996Y-74148993D01*
X82746054Y-74126471D01*
X82756282Y-74104847D01*
X82768579Y-74084330D01*
X82782829Y-74065117D01*
X82798893Y-74047393D01*
X82816617Y-74031329D01*
X82835830Y-74017079D01*
X82856347Y-74004782D01*
X82877971Y-73994554D01*
X82900493Y-73986496D01*
X82923697Y-73980684D01*
X82947358Y-73977174D01*
X82971250Y-73976000D01*
X83458750Y-73976000D01*
X83482642Y-73977174D01*
X83482642Y-73977174D01*
G37*
D11*
G04 #@! TD*
G04 #@! TO.P,L1,2*
G04 #@! TO.N,Net-(C1-Pad1)*
X83215000Y-74676000D03*
D10*
G04 #@! TO.N,Net-(L1-Pad1)*
G04 #@! TO.C,L1*
G36*
X85357642Y-73977174D02*
X85381303Y-73980684D01*
X85404507Y-73986496D01*
X85427029Y-73994554D01*
X85448653Y-74004782D01*
X85469170Y-74017079D01*
X85488383Y-74031329D01*
X85506107Y-74047393D01*
X85522171Y-74065117D01*
X85536421Y-74084330D01*
X85548718Y-74104847D01*
X85558946Y-74126471D01*
X85567004Y-74148993D01*
X85572816Y-74172197D01*
X85576326Y-74195858D01*
X85577500Y-74219750D01*
X85577500Y-75132250D01*
X85576326Y-75156142D01*
X85572816Y-75179803D01*
X85567004Y-75203007D01*
X85558946Y-75225529D01*
X85548718Y-75247153D01*
X85536421Y-75267670D01*
X85522171Y-75286883D01*
X85506107Y-75304607D01*
X85488383Y-75320671D01*
X85469170Y-75334921D01*
X85448653Y-75347218D01*
X85427029Y-75357446D01*
X85404507Y-75365504D01*
X85381303Y-75371316D01*
X85357642Y-75374826D01*
X85333750Y-75376000D01*
X84846250Y-75376000D01*
X84822358Y-75374826D01*
X84798697Y-75371316D01*
X84775493Y-75365504D01*
X84752971Y-75357446D01*
X84731347Y-75347218D01*
X84710830Y-75334921D01*
X84691617Y-75320671D01*
X84673893Y-75304607D01*
X84657829Y-75286883D01*
X84643579Y-75267670D01*
X84631282Y-75247153D01*
X84621054Y-75225529D01*
X84612996Y-75203007D01*
X84607184Y-75179803D01*
X84603674Y-75156142D01*
X84602500Y-75132250D01*
X84602500Y-74219750D01*
X84603674Y-74195858D01*
X84607184Y-74172197D01*
X84612996Y-74148993D01*
X84621054Y-74126471D01*
X84631282Y-74104847D01*
X84643579Y-74084330D01*
X84657829Y-74065117D01*
X84673893Y-74047393D01*
X84691617Y-74031329D01*
X84710830Y-74017079D01*
X84731347Y-74004782D01*
X84752971Y-73994554D01*
X84775493Y-73986496D01*
X84798697Y-73980684D01*
X84822358Y-73977174D01*
X84846250Y-73976000D01*
X85333750Y-73976000D01*
X85357642Y-73977174D01*
X85357642Y-73977174D01*
G37*
D11*
G04 #@! TD*
G04 #@! TO.P,L1,1*
G04 #@! TO.N,Net-(L1-Pad1)*
X85090000Y-74676000D03*
D10*
G04 #@! TO.N,Net-(C2-Pad2)*
G04 #@! TO.C,L2*
G36*
X88364142Y-76221674D02*
X88387803Y-76225184D01*
X88411007Y-76230996D01*
X88433529Y-76239054D01*
X88455153Y-76249282D01*
X88475670Y-76261579D01*
X88494883Y-76275829D01*
X88512607Y-76291893D01*
X88528671Y-76309617D01*
X88542921Y-76328830D01*
X88555218Y-76349347D01*
X88565446Y-76370971D01*
X88573504Y-76393493D01*
X88579316Y-76416697D01*
X88582826Y-76440358D01*
X88584000Y-76464250D01*
X88584000Y-76951750D01*
X88582826Y-76975642D01*
X88579316Y-76999303D01*
X88573504Y-77022507D01*
X88565446Y-77045029D01*
X88555218Y-77066653D01*
X88542921Y-77087170D01*
X88528671Y-77106383D01*
X88512607Y-77124107D01*
X88494883Y-77140171D01*
X88475670Y-77154421D01*
X88455153Y-77166718D01*
X88433529Y-77176946D01*
X88411007Y-77185004D01*
X88387803Y-77190816D01*
X88364142Y-77194326D01*
X88340250Y-77195500D01*
X87427750Y-77195500D01*
X87403858Y-77194326D01*
X87380197Y-77190816D01*
X87356993Y-77185004D01*
X87334471Y-77176946D01*
X87312847Y-77166718D01*
X87292330Y-77154421D01*
X87273117Y-77140171D01*
X87255393Y-77124107D01*
X87239329Y-77106383D01*
X87225079Y-77087170D01*
X87212782Y-77066653D01*
X87202554Y-77045029D01*
X87194496Y-77022507D01*
X87188684Y-76999303D01*
X87185174Y-76975642D01*
X87184000Y-76951750D01*
X87184000Y-76464250D01*
X87185174Y-76440358D01*
X87188684Y-76416697D01*
X87194496Y-76393493D01*
X87202554Y-76370971D01*
X87212782Y-76349347D01*
X87225079Y-76328830D01*
X87239329Y-76309617D01*
X87255393Y-76291893D01*
X87273117Y-76275829D01*
X87292330Y-76261579D01*
X87312847Y-76249282D01*
X87334471Y-76239054D01*
X87356993Y-76230996D01*
X87380197Y-76225184D01*
X87403858Y-76221674D01*
X87427750Y-76220500D01*
X88340250Y-76220500D01*
X88364142Y-76221674D01*
X88364142Y-76221674D01*
G37*
D11*
G04 #@! TD*
G04 #@! TO.P,L2,2*
G04 #@! TO.N,Net-(C2-Pad2)*
X87884000Y-76708000D03*
D10*
G04 #@! TO.N,Net-(L1-Pad1)*
G04 #@! TO.C,L2*
G36*
X88364142Y-74346674D02*
X88387803Y-74350184D01*
X88411007Y-74355996D01*
X88433529Y-74364054D01*
X88455153Y-74374282D01*
X88475670Y-74386579D01*
X88494883Y-74400829D01*
X88512607Y-74416893D01*
X88528671Y-74434617D01*
X88542921Y-74453830D01*
X88555218Y-74474347D01*
X88565446Y-74495971D01*
X88573504Y-74518493D01*
X88579316Y-74541697D01*
X88582826Y-74565358D01*
X88584000Y-74589250D01*
X88584000Y-75076750D01*
X88582826Y-75100642D01*
X88579316Y-75124303D01*
X88573504Y-75147507D01*
X88565446Y-75170029D01*
X88555218Y-75191653D01*
X88542921Y-75212170D01*
X88528671Y-75231383D01*
X88512607Y-75249107D01*
X88494883Y-75265171D01*
X88475670Y-75279421D01*
X88455153Y-75291718D01*
X88433529Y-75301946D01*
X88411007Y-75310004D01*
X88387803Y-75315816D01*
X88364142Y-75319326D01*
X88340250Y-75320500D01*
X87427750Y-75320500D01*
X87403858Y-75319326D01*
X87380197Y-75315816D01*
X87356993Y-75310004D01*
X87334471Y-75301946D01*
X87312847Y-75291718D01*
X87292330Y-75279421D01*
X87273117Y-75265171D01*
X87255393Y-75249107D01*
X87239329Y-75231383D01*
X87225079Y-75212170D01*
X87212782Y-75191653D01*
X87202554Y-75170029D01*
X87194496Y-75147507D01*
X87188684Y-75124303D01*
X87185174Y-75100642D01*
X87184000Y-75076750D01*
X87184000Y-74589250D01*
X87185174Y-74565358D01*
X87188684Y-74541697D01*
X87194496Y-74518493D01*
X87202554Y-74495971D01*
X87212782Y-74474347D01*
X87225079Y-74453830D01*
X87239329Y-74434617D01*
X87255393Y-74416893D01*
X87273117Y-74400829D01*
X87292330Y-74386579D01*
X87312847Y-74374282D01*
X87334471Y-74364054D01*
X87356993Y-74355996D01*
X87380197Y-74350184D01*
X87403858Y-74346674D01*
X87427750Y-74345500D01*
X88340250Y-74345500D01*
X88364142Y-74346674D01*
X88364142Y-74346674D01*
G37*
D11*
G04 #@! TD*
G04 #@! TO.P,L2,1*
G04 #@! TO.N,Net-(L1-Pad1)*
X87884000Y-74833000D03*
D10*
G04 #@! TO.N,Net-(C4-Pad2)*
G04 #@! TO.C,L3*
G36*
X98270142Y-74346674D02*
X98293803Y-74350184D01*
X98317007Y-74355996D01*
X98339529Y-74364054D01*
X98361153Y-74374282D01*
X98381670Y-74386579D01*
X98400883Y-74400829D01*
X98418607Y-74416893D01*
X98434671Y-74434617D01*
X98448921Y-74453830D01*
X98461218Y-74474347D01*
X98471446Y-74495971D01*
X98479504Y-74518493D01*
X98485316Y-74541697D01*
X98488826Y-74565358D01*
X98490000Y-74589250D01*
X98490000Y-75076750D01*
X98488826Y-75100642D01*
X98485316Y-75124303D01*
X98479504Y-75147507D01*
X98471446Y-75170029D01*
X98461218Y-75191653D01*
X98448921Y-75212170D01*
X98434671Y-75231383D01*
X98418607Y-75249107D01*
X98400883Y-75265171D01*
X98381670Y-75279421D01*
X98361153Y-75291718D01*
X98339529Y-75301946D01*
X98317007Y-75310004D01*
X98293803Y-75315816D01*
X98270142Y-75319326D01*
X98246250Y-75320500D01*
X97333750Y-75320500D01*
X97309858Y-75319326D01*
X97286197Y-75315816D01*
X97262993Y-75310004D01*
X97240471Y-75301946D01*
X97218847Y-75291718D01*
X97198330Y-75279421D01*
X97179117Y-75265171D01*
X97161393Y-75249107D01*
X97145329Y-75231383D01*
X97131079Y-75212170D01*
X97118782Y-75191653D01*
X97108554Y-75170029D01*
X97100496Y-75147507D01*
X97094684Y-75124303D01*
X97091174Y-75100642D01*
X97090000Y-75076750D01*
X97090000Y-74589250D01*
X97091174Y-74565358D01*
X97094684Y-74541697D01*
X97100496Y-74518493D01*
X97108554Y-74495971D01*
X97118782Y-74474347D01*
X97131079Y-74453830D01*
X97145329Y-74434617D01*
X97161393Y-74416893D01*
X97179117Y-74400829D01*
X97198330Y-74386579D01*
X97218847Y-74374282D01*
X97240471Y-74364054D01*
X97262993Y-74355996D01*
X97286197Y-74350184D01*
X97309858Y-74346674D01*
X97333750Y-74345500D01*
X98246250Y-74345500D01*
X98270142Y-74346674D01*
X98270142Y-74346674D01*
G37*
D11*
G04 #@! TD*
G04 #@! TO.P,L3,2*
G04 #@! TO.N,Net-(C4-Pad2)*
X97790000Y-74833000D03*
D10*
G04 #@! TO.N,+3V3*
G04 #@! TO.C,L3*
G36*
X98270142Y-76221674D02*
X98293803Y-76225184D01*
X98317007Y-76230996D01*
X98339529Y-76239054D01*
X98361153Y-76249282D01*
X98381670Y-76261579D01*
X98400883Y-76275829D01*
X98418607Y-76291893D01*
X98434671Y-76309617D01*
X98448921Y-76328830D01*
X98461218Y-76349347D01*
X98471446Y-76370971D01*
X98479504Y-76393493D01*
X98485316Y-76416697D01*
X98488826Y-76440358D01*
X98490000Y-76464250D01*
X98490000Y-76951750D01*
X98488826Y-76975642D01*
X98485316Y-76999303D01*
X98479504Y-77022507D01*
X98471446Y-77045029D01*
X98461218Y-77066653D01*
X98448921Y-77087170D01*
X98434671Y-77106383D01*
X98418607Y-77124107D01*
X98400883Y-77140171D01*
X98381670Y-77154421D01*
X98361153Y-77166718D01*
X98339529Y-77176946D01*
X98317007Y-77185004D01*
X98293803Y-77190816D01*
X98270142Y-77194326D01*
X98246250Y-77195500D01*
X97333750Y-77195500D01*
X97309858Y-77194326D01*
X97286197Y-77190816D01*
X97262993Y-77185004D01*
X97240471Y-77176946D01*
X97218847Y-77166718D01*
X97198330Y-77154421D01*
X97179117Y-77140171D01*
X97161393Y-77124107D01*
X97145329Y-77106383D01*
X97131079Y-77087170D01*
X97118782Y-77066653D01*
X97108554Y-77045029D01*
X97100496Y-77022507D01*
X97094684Y-76999303D01*
X97091174Y-76975642D01*
X97090000Y-76951750D01*
X97090000Y-76464250D01*
X97091174Y-76440358D01*
X97094684Y-76416697D01*
X97100496Y-76393493D01*
X97108554Y-76370971D01*
X97118782Y-76349347D01*
X97131079Y-76328830D01*
X97145329Y-76309617D01*
X97161393Y-76291893D01*
X97179117Y-76275829D01*
X97198330Y-76261579D01*
X97218847Y-76249282D01*
X97240471Y-76239054D01*
X97262993Y-76230996D01*
X97286197Y-76225184D01*
X97309858Y-76221674D01*
X97333750Y-76220500D01*
X98246250Y-76220500D01*
X98270142Y-76221674D01*
X98270142Y-76221674D01*
G37*
D11*
G04 #@! TD*
G04 #@! TO.P,L3,1*
G04 #@! TO.N,+3V3*
X97790000Y-76708000D03*
D10*
G04 #@! TO.N,+3V3*
G04 #@! TO.C,R1*
G36*
X92342642Y-77787174D02*
X92366303Y-77790684D01*
X92389507Y-77796496D01*
X92412029Y-77804554D01*
X92433653Y-77814782D01*
X92454170Y-77827079D01*
X92473383Y-77841329D01*
X92491107Y-77857393D01*
X92507171Y-77875117D01*
X92521421Y-77894330D01*
X92533718Y-77914847D01*
X92543946Y-77936471D01*
X92552004Y-77958993D01*
X92557816Y-77982197D01*
X92561326Y-78005858D01*
X92562500Y-78029750D01*
X92562500Y-78942250D01*
X92561326Y-78966142D01*
X92557816Y-78989803D01*
X92552004Y-79013007D01*
X92543946Y-79035529D01*
X92533718Y-79057153D01*
X92521421Y-79077670D01*
X92507171Y-79096883D01*
X92491107Y-79114607D01*
X92473383Y-79130671D01*
X92454170Y-79144921D01*
X92433653Y-79157218D01*
X92412029Y-79167446D01*
X92389507Y-79175504D01*
X92366303Y-79181316D01*
X92342642Y-79184826D01*
X92318750Y-79186000D01*
X91831250Y-79186000D01*
X91807358Y-79184826D01*
X91783697Y-79181316D01*
X91760493Y-79175504D01*
X91737971Y-79167446D01*
X91716347Y-79157218D01*
X91695830Y-79144921D01*
X91676617Y-79130671D01*
X91658893Y-79114607D01*
X91642829Y-79096883D01*
X91628579Y-79077670D01*
X91616282Y-79057153D01*
X91606054Y-79035529D01*
X91597996Y-79013007D01*
X91592184Y-78989803D01*
X91588674Y-78966142D01*
X91587500Y-78942250D01*
X91587500Y-78029750D01*
X91588674Y-78005858D01*
X91592184Y-77982197D01*
X91597996Y-77958993D01*
X91606054Y-77936471D01*
X91616282Y-77914847D01*
X91628579Y-77894330D01*
X91642829Y-77875117D01*
X91658893Y-77857393D01*
X91676617Y-77841329D01*
X91695830Y-77827079D01*
X91716347Y-77814782D01*
X91737971Y-77804554D01*
X91760493Y-77796496D01*
X91783697Y-77790684D01*
X91807358Y-77787174D01*
X91831250Y-77786000D01*
X92318750Y-77786000D01*
X92342642Y-77787174D01*
X92342642Y-77787174D01*
G37*
D11*
G04 #@! TD*
G04 #@! TO.P,R1,2*
G04 #@! TO.N,+3V3*
X92075000Y-78486000D03*
D10*
G04 #@! TO.N,Net-(C2-Pad2)*
G04 #@! TO.C,R1*
G36*
X90467642Y-77787174D02*
X90491303Y-77790684D01*
X90514507Y-77796496D01*
X90537029Y-77804554D01*
X90558653Y-77814782D01*
X90579170Y-77827079D01*
X90598383Y-77841329D01*
X90616107Y-77857393D01*
X90632171Y-77875117D01*
X90646421Y-77894330D01*
X90658718Y-77914847D01*
X90668946Y-77936471D01*
X90677004Y-77958993D01*
X90682816Y-77982197D01*
X90686326Y-78005858D01*
X90687500Y-78029750D01*
X90687500Y-78942250D01*
X90686326Y-78966142D01*
X90682816Y-78989803D01*
X90677004Y-79013007D01*
X90668946Y-79035529D01*
X90658718Y-79057153D01*
X90646421Y-79077670D01*
X90632171Y-79096883D01*
X90616107Y-79114607D01*
X90598383Y-79130671D01*
X90579170Y-79144921D01*
X90558653Y-79157218D01*
X90537029Y-79167446D01*
X90514507Y-79175504D01*
X90491303Y-79181316D01*
X90467642Y-79184826D01*
X90443750Y-79186000D01*
X89956250Y-79186000D01*
X89932358Y-79184826D01*
X89908697Y-79181316D01*
X89885493Y-79175504D01*
X89862971Y-79167446D01*
X89841347Y-79157218D01*
X89820830Y-79144921D01*
X89801617Y-79130671D01*
X89783893Y-79114607D01*
X89767829Y-79096883D01*
X89753579Y-79077670D01*
X89741282Y-79057153D01*
X89731054Y-79035529D01*
X89722996Y-79013007D01*
X89717184Y-78989803D01*
X89713674Y-78966142D01*
X89712500Y-78942250D01*
X89712500Y-78029750D01*
X89713674Y-78005858D01*
X89717184Y-77982197D01*
X89722996Y-77958993D01*
X89731054Y-77936471D01*
X89741282Y-77914847D01*
X89753579Y-77894330D01*
X89767829Y-77875117D01*
X89783893Y-77857393D01*
X89801617Y-77841329D01*
X89820830Y-77827079D01*
X89841347Y-77814782D01*
X89862971Y-77804554D01*
X89885493Y-77796496D01*
X89908697Y-77790684D01*
X89932358Y-77787174D01*
X89956250Y-77786000D01*
X90443750Y-77786000D01*
X90467642Y-77787174D01*
X90467642Y-77787174D01*
G37*
D11*
G04 #@! TD*
G04 #@! TO.P,R1,1*
G04 #@! TO.N,Net-(C2-Pad2)*
X90200000Y-78486000D03*
D15*
G04 #@! TO.P,U1,9*
G04 #@! TO.N,GND*
X92710000Y-74930000D03*
D16*
G04 #@! TO.P,U1,8*
G04 #@! TO.N,Net-(U1-Pad8)*
X93715000Y-74180000D03*
G04 #@! TO.P,U1,7*
G04 #@! TO.N,Net-(C4-Pad2)*
X93715000Y-74680000D03*
G04 #@! TO.P,U1,6*
G04 #@! TO.N,GND*
X93715000Y-75180000D03*
G04 #@! TO.P,U1,5*
G04 #@! TO.N,Net-(U1-Pad5)*
X93715000Y-75680000D03*
G04 #@! TO.P,U1,4*
G04 #@! TO.N,Net-(U1-Pad4)*
X91705000Y-75680000D03*
G04 #@! TO.P,U1,3*
G04 #@! TO.N,Net-(C2-Pad2)*
X91705000Y-75180000D03*
G04 #@! TO.P,U1,2*
G04 #@! TO.N,Net-(L1-Pad1)*
X91705000Y-74680000D03*
G04 #@! TO.P,U1,1*
G04 #@! TO.N,Net-(U1-Pad1)*
X91705000Y-74180000D03*
G04 #@! TD*
D17*
G04 #@! TO.P,U2,5*
G04 #@! TO.N,+3V3*
X97739200Y-79578200D03*
G04 #@! TO.P,U2,4*
G04 #@! TO.N,Net-(C6-Pad2)*
X97739200Y-81457800D03*
G04 #@! TO.P,U2,3*
G04 #@! TO.N,VDD*
X95300800Y-81457800D03*
G04 #@! TO.P,U2,2*
G04 #@! TO.N,GND*
X95300800Y-80518000D03*
G04 #@! TO.P,U2,1*
G04 #@! TO.N,VDD*
X95300800Y-79578200D03*
G04 #@! TD*
D18*
G04 #@! TO.N,GND*
X106680000Y-78740000D03*
X73660000Y-78740000D03*
X71755000Y-79375000D03*
X71755000Y-78105000D03*
X71755000Y-72390000D03*
X73660000Y-72390000D03*
X74930000Y-72390000D03*
X71755000Y-71120000D03*
X71755000Y-69850000D03*
X73660000Y-69850000D03*
X75565000Y-69850000D03*
X106045000Y-69850000D03*
X107315000Y-69850000D03*
X108585000Y-69850000D03*
X109855000Y-69850000D03*
X109855000Y-71120000D03*
X109855000Y-72390000D03*
X109855000Y-77470000D03*
X109855000Y-78740000D03*
X102616000Y-82296000D03*
X102616000Y-79756000D03*
X102616000Y-77216000D03*
X95504000Y-80518000D03*
X94996000Y-75692000D03*
X96012000Y-75692000D03*
X94996000Y-73406000D03*
X96012000Y-73406000D03*
X97028000Y-73406000D03*
X98044000Y-73406000D03*
X99314000Y-73406000D03*
X100584000Y-73152000D03*
X101600000Y-73152000D03*
X102616000Y-73152000D03*
X103632000Y-73406000D03*
X96520000Y-80518000D03*
X104394000Y-75692000D03*
X103378000Y-75946000D03*
X102362000Y-76200000D03*
X103632000Y-77216000D03*
X103632000Y-79756000D03*
X103632000Y-82296000D03*
X104775000Y-82550000D03*
X106045000Y-82550000D03*
X107315000Y-82550000D03*
X108585000Y-82550000D03*
X109855000Y-82550000D03*
X109855000Y-81280000D03*
X109855000Y-80010000D03*
X92710000Y-73406000D03*
X93726000Y-73152000D03*
X91694000Y-73152000D03*
X90678000Y-73406000D03*
X89662000Y-73406000D03*
X88646000Y-73406000D03*
X87630000Y-73406000D03*
X86614000Y-73406000D03*
X85344000Y-73152000D03*
X84074000Y-73152000D03*
X82804000Y-73152000D03*
X81534000Y-73406000D03*
X80264000Y-73152000D03*
X79248000Y-73152000D03*
X77724000Y-73152000D03*
X84836000Y-76200000D03*
X83566000Y-76200000D03*
X82296000Y-75946000D03*
X81026000Y-75946000D03*
X79756000Y-76200000D03*
X78486000Y-76200000D03*
X77216000Y-75946000D03*
X92710000Y-76454000D03*
X104648000Y-69850000D03*
X103124000Y-69850000D03*
X101600000Y-69850000D03*
X99695000Y-69850000D03*
X97790000Y-69850000D03*
X95885000Y-69850000D03*
X93980000Y-69850000D03*
X92075000Y-69850000D03*
X90170000Y-69850000D03*
X88265000Y-69850000D03*
X86360000Y-69850000D03*
X84455000Y-69850000D03*
X81915000Y-69850000D03*
X77470000Y-69850000D03*
X71755000Y-76835000D03*
X73025000Y-76835000D03*
X74295000Y-76835000D03*
X75565000Y-76835000D03*
X76200000Y-72390000D03*
X71755000Y-80645000D03*
X71755000Y-81915000D03*
X73025000Y-82550000D03*
X74295000Y-82550000D03*
X76200000Y-82550000D03*
X78105000Y-82550000D03*
X76200000Y-78740000D03*
X78740000Y-78740000D03*
X81280000Y-78740000D03*
X83820000Y-71120000D03*
X88900000Y-71120000D03*
X93980000Y-71120000D03*
X99060000Y-71120000D03*
X104140000Y-71120000D03*
X106680000Y-81280000D03*
G04 #@! TD*
D19*
G04 #@! TO.N,Net-(C1-Pad2)*
X78127200Y-74683800D02*
X78135000Y-74676000D01*
X78135000Y-74676000D02*
X73660000Y-74676000D01*
G04 #@! TO.N,Net-(C1-Pad1)*
X80010000Y-74676000D02*
X83215000Y-74676000D01*
G04 #@! TO.N,GND*
X96520000Y-80518000D02*
X95726013Y-80518000D01*
G04 #@! TO.N,Net-(C2-Pad2)*
X88422000Y-76708000D02*
X90200000Y-78486000D01*
X87884000Y-76708000D02*
X88422000Y-76708000D01*
X86614000Y-76708000D02*
X85090000Y-78232000D01*
X87884000Y-76708000D02*
X86614000Y-76708000D01*
X90200000Y-78486000D02*
X90200000Y-76119210D01*
X90200000Y-76119210D02*
X90678000Y-75641210D01*
D20*
X90317870Y-76119210D02*
X90200000Y-76119210D01*
X91257080Y-75180000D02*
X90317870Y-76119210D01*
X91705000Y-75180000D02*
X91257080Y-75180000D01*
D21*
G04 #@! TO.N,+3V3*
X100662500Y-79756000D02*
X100662500Y-77216000D01*
X100484700Y-79578200D02*
X100662500Y-79756000D01*
X97739200Y-79578200D02*
X100484700Y-79578200D01*
X97790000Y-79527400D02*
X97739200Y-79578200D01*
X97790000Y-76708000D02*
X97790000Y-79527400D01*
X97790000Y-76708000D02*
X96520000Y-77978000D01*
X92631237Y-77929763D02*
X92075000Y-78486000D01*
X96471763Y-77929763D02*
X92631237Y-77929763D01*
X96520000Y-77978000D02*
X96471763Y-77929763D01*
D19*
G04 #@! TO.N,Net-(C4-Pad2)*
X100662500Y-74676000D02*
X94628801Y-74676000D01*
D20*
X94624801Y-74680000D02*
X94628801Y-74676000D01*
X93715000Y-74680000D02*
X94624801Y-74680000D01*
D19*
G04 #@! TO.N,Net-(C4-Pad1)*
X102537500Y-74676000D02*
X107950000Y-74676000D01*
G04 #@! TO.N,VDD*
X94320358Y-79578200D02*
X95300800Y-79578200D01*
X93380558Y-80518000D02*
X94320358Y-79578200D01*
X88392000Y-80518000D02*
X93380558Y-80518000D01*
X93380558Y-80985358D02*
X93380558Y-80518000D01*
X93853000Y-81457800D02*
X93380558Y-80985358D01*
X95300800Y-81457800D02*
X93853000Y-81457800D01*
D21*
X88392000Y-81318000D02*
X88392000Y-80518000D01*
X87704590Y-82005410D02*
X88392000Y-81318000D01*
X80735410Y-82005410D02*
X87704590Y-82005410D01*
X79502000Y-80772000D02*
X80735410Y-82005410D01*
D19*
G04 #@! TO.N,Net-(C6-Pad2)*
X99824300Y-81457800D02*
X100662500Y-82296000D01*
X97739200Y-81457800D02*
X99824300Y-81457800D01*
G04 #@! TO.N,Net-(L1-Pad1)*
X85090000Y-74676000D02*
X90791199Y-74676000D01*
D20*
X90795199Y-74680000D02*
X91705000Y-74680000D01*
X90791199Y-74676000D02*
X90795199Y-74680000D01*
G04 #@! TD*
D22*
G04 #@! TO.N,GND*
G36*
X105216922Y-74041000D02*
X103222523Y-74041000D01*
X103221782Y-74037276D01*
X103118418Y-73882582D01*
X102963724Y-73779218D01*
X102781250Y-73742922D01*
X102293750Y-73742922D01*
X102111276Y-73779218D01*
X101956582Y-73882582D01*
X101853218Y-74037276D01*
X101816922Y-74219750D01*
X101816922Y-75132250D01*
X101853218Y-75314724D01*
X101956582Y-75469418D01*
X102111276Y-75572782D01*
X102293750Y-75609078D01*
X102781250Y-75609078D01*
X102963724Y-75572782D01*
X103118418Y-75469418D01*
X103221782Y-75314724D01*
X103222523Y-75311000D01*
X105216922Y-75311000D01*
X105216922Y-75926000D01*
X105234664Y-76015195D01*
X105285189Y-76090811D01*
X105360805Y-76141336D01*
X105450000Y-76159078D01*
X110450000Y-76159078D01*
X110539195Y-76141336D01*
X110614811Y-76090811D01*
X110665336Y-76015195D01*
X110683078Y-75926000D01*
X110683078Y-73482200D01*
X110694400Y-73482200D01*
X110694401Y-76885800D01*
X101477338Y-76885800D01*
X101475993Y-76879040D01*
X101377480Y-76731605D01*
X101346782Y-76577276D01*
X101243418Y-76422582D01*
X101088724Y-76319218D01*
X100906250Y-76282922D01*
X100418750Y-76282922D01*
X100236276Y-76319218D01*
X100081582Y-76422582D01*
X99978218Y-76577276D01*
X99947520Y-76731607D01*
X99849008Y-76879040D01*
X99847663Y-76885800D01*
X98723078Y-76885800D01*
X98723078Y-76464250D01*
X98686782Y-76281776D01*
X98583418Y-76127082D01*
X98428724Y-76023718D01*
X98274394Y-75993020D01*
X98126959Y-75894507D01*
X97790000Y-75827482D01*
X97453040Y-75894507D01*
X97305605Y-75993020D01*
X97151276Y-76023718D01*
X96996582Y-76127082D01*
X96893218Y-76281776D01*
X96867968Y-76408718D01*
X96390886Y-76885800D01*
X90835000Y-76885800D01*
X90835000Y-76382234D01*
X91171235Y-76046000D01*
X91208427Y-75990338D01*
X91260805Y-76025336D01*
X91350000Y-76043078D01*
X92060000Y-76043078D01*
X92149195Y-76025336D01*
X92224811Y-75974811D01*
X92275336Y-75899195D01*
X92293078Y-75810000D01*
X92293078Y-75550000D01*
X93126922Y-75550000D01*
X93126922Y-75810000D01*
X93144664Y-75899195D01*
X93195189Y-75974811D01*
X93270805Y-76025336D01*
X93360000Y-76043078D01*
X94070000Y-76043078D01*
X94159195Y-76025336D01*
X94234811Y-75974811D01*
X94285336Y-75899195D01*
X94303078Y-75810000D01*
X94303078Y-75550000D01*
X94285336Y-75460805D01*
X94234811Y-75385189D01*
X94159195Y-75334664D01*
X94070000Y-75316922D01*
X93360000Y-75316922D01*
X93270805Y-75334664D01*
X93195189Y-75385189D01*
X93144664Y-75460805D01*
X93126922Y-75550000D01*
X92293078Y-75550000D01*
X92275336Y-75460805D01*
X92254753Y-75430000D01*
X92275336Y-75399195D01*
X92293078Y-75310000D01*
X92293078Y-75050000D01*
X92275336Y-74960805D01*
X92254753Y-74930000D01*
X92275336Y-74899195D01*
X92293078Y-74810000D01*
X92293078Y-74550000D01*
X92275336Y-74460805D01*
X92254753Y-74430000D01*
X92275336Y-74399195D01*
X92293078Y-74310000D01*
X92293078Y-74050000D01*
X93126922Y-74050000D01*
X93126922Y-74310000D01*
X93144664Y-74399195D01*
X93165247Y-74430000D01*
X93144664Y-74460805D01*
X93126922Y-74550000D01*
X93126922Y-74810000D01*
X93144664Y-74899195D01*
X93195189Y-74974811D01*
X93270805Y-75025336D01*
X93360000Y-75043078D01*
X94070000Y-75043078D01*
X94105631Y-75035990D01*
X94170992Y-75133809D01*
X94381036Y-75274157D01*
X94566260Y-75311000D01*
X96927814Y-75311000D01*
X96996582Y-75413918D01*
X97151276Y-75517282D01*
X97333750Y-75553578D01*
X98246250Y-75553578D01*
X98428724Y-75517282D01*
X98583418Y-75413918D01*
X98652186Y-75311000D01*
X99977477Y-75311000D01*
X99978218Y-75314724D01*
X100081582Y-75469418D01*
X100236276Y-75572782D01*
X100418750Y-75609078D01*
X100906250Y-75609078D01*
X101088724Y-75572782D01*
X101243418Y-75469418D01*
X101346782Y-75314724D01*
X101383078Y-75132250D01*
X101383078Y-74219750D01*
X101346782Y-74037276D01*
X101243418Y-73882582D01*
X101088724Y-73779218D01*
X100906250Y-73742922D01*
X100418750Y-73742922D01*
X100236276Y-73779218D01*
X100081582Y-73882582D01*
X99978218Y-74037276D01*
X99977477Y-74041000D01*
X94566260Y-74041000D01*
X94381036Y-74077843D01*
X94303078Y-74129933D01*
X94303078Y-74050000D01*
X94285336Y-73960805D01*
X94234811Y-73885189D01*
X94159195Y-73834664D01*
X94070000Y-73816922D01*
X93360000Y-73816922D01*
X93270805Y-73834664D01*
X93195189Y-73885189D01*
X93144664Y-73960805D01*
X93126922Y-74050000D01*
X92293078Y-74050000D01*
X92275336Y-73960805D01*
X92224811Y-73885189D01*
X92149195Y-73834664D01*
X92060000Y-73816922D01*
X91350000Y-73816922D01*
X91260805Y-73834664D01*
X91185189Y-73885189D01*
X91134664Y-73960805D01*
X91116922Y-74050000D01*
X91116922Y-74129933D01*
X91038964Y-74077843D01*
X90853740Y-74041000D01*
X85775023Y-74041000D01*
X85774282Y-74037276D01*
X85670918Y-73882582D01*
X85516224Y-73779218D01*
X85333750Y-73742922D01*
X84846250Y-73742922D01*
X84663776Y-73779218D01*
X84509082Y-73882582D01*
X84405718Y-74037276D01*
X84369422Y-74219750D01*
X84369422Y-75132250D01*
X84405718Y-75314724D01*
X84509082Y-75469418D01*
X84663776Y-75572782D01*
X84846250Y-75609078D01*
X85333750Y-75609078D01*
X85516224Y-75572782D01*
X85670918Y-75469418D01*
X85774282Y-75314724D01*
X85775023Y-75311000D01*
X87021814Y-75311000D01*
X87090582Y-75413918D01*
X87245276Y-75517282D01*
X87427750Y-75553578D01*
X88340250Y-75553578D01*
X88522724Y-75517282D01*
X88677418Y-75413918D01*
X88746186Y-75311000D01*
X90110185Y-75311000D01*
X89795212Y-75625974D01*
X89742192Y-75661401D01*
X89706765Y-75714421D01*
X89601843Y-75871446D01*
X89552561Y-76119210D01*
X89565001Y-76181752D01*
X89565001Y-76885800D01*
X89497825Y-76885800D01*
X88915238Y-76303214D01*
X88879809Y-76250191D01*
X88669765Y-76109843D01*
X88643926Y-76104703D01*
X88522724Y-76023718D01*
X88340250Y-75987422D01*
X87427750Y-75987422D01*
X87245276Y-76023718D01*
X87171521Y-76073000D01*
X86676535Y-76073000D01*
X86613999Y-76060561D01*
X86551464Y-76073000D01*
X86551459Y-76073000D01*
X86366235Y-76109843D01*
X86156191Y-76250191D01*
X86120764Y-76303211D01*
X85538175Y-76885800D01*
X71825951Y-76885800D01*
X71774042Y-76159078D01*
X76160000Y-76159078D01*
X76249195Y-76141336D01*
X76324811Y-76090811D01*
X76375336Y-76015195D01*
X76393078Y-75926000D01*
X76393078Y-75311000D01*
X77449977Y-75311000D01*
X77450718Y-75314724D01*
X77554082Y-75469418D01*
X77708776Y-75572782D01*
X77891250Y-75609078D01*
X78378750Y-75609078D01*
X78561224Y-75572782D01*
X78715918Y-75469418D01*
X78819282Y-75314724D01*
X78855578Y-75132250D01*
X78855578Y-74219750D01*
X79289422Y-74219750D01*
X79289422Y-75132250D01*
X79325718Y-75314724D01*
X79429082Y-75469418D01*
X79583776Y-75572782D01*
X79766250Y-75609078D01*
X80253750Y-75609078D01*
X80436224Y-75572782D01*
X80590918Y-75469418D01*
X80694282Y-75314724D01*
X80695023Y-75311000D01*
X82529977Y-75311000D01*
X82530718Y-75314724D01*
X82634082Y-75469418D01*
X82788776Y-75572782D01*
X82971250Y-75609078D01*
X83458750Y-75609078D01*
X83641224Y-75572782D01*
X83795918Y-75469418D01*
X83899282Y-75314724D01*
X83935578Y-75132250D01*
X83935578Y-74219750D01*
X83899282Y-74037276D01*
X83795918Y-73882582D01*
X83641224Y-73779218D01*
X83458750Y-73742922D01*
X82971250Y-73742922D01*
X82788776Y-73779218D01*
X82634082Y-73882582D01*
X82530718Y-74037276D01*
X82529977Y-74041000D01*
X80695023Y-74041000D01*
X80694282Y-74037276D01*
X80590918Y-73882582D01*
X80436224Y-73779218D01*
X80253750Y-73742922D01*
X79766250Y-73742922D01*
X79583776Y-73779218D01*
X79429082Y-73882582D01*
X79325718Y-74037276D01*
X79289422Y-74219750D01*
X78855578Y-74219750D01*
X78819282Y-74037276D01*
X78715918Y-73882582D01*
X78561224Y-73779218D01*
X78378750Y-73742922D01*
X77891250Y-73742922D01*
X77708776Y-73779218D01*
X77554082Y-73882582D01*
X77450718Y-74037276D01*
X77449977Y-74041000D01*
X76393078Y-74041000D01*
X76393078Y-73482200D01*
X105216922Y-73482200D01*
X105216922Y-74041000D01*
X105216922Y-74041000D01*
G37*
X105216922Y-74041000D02*
X103222523Y-74041000D01*
X103221782Y-74037276D01*
X103118418Y-73882582D01*
X102963724Y-73779218D01*
X102781250Y-73742922D01*
X102293750Y-73742922D01*
X102111276Y-73779218D01*
X101956582Y-73882582D01*
X101853218Y-74037276D01*
X101816922Y-74219750D01*
X101816922Y-75132250D01*
X101853218Y-75314724D01*
X101956582Y-75469418D01*
X102111276Y-75572782D01*
X102293750Y-75609078D01*
X102781250Y-75609078D01*
X102963724Y-75572782D01*
X103118418Y-75469418D01*
X103221782Y-75314724D01*
X103222523Y-75311000D01*
X105216922Y-75311000D01*
X105216922Y-75926000D01*
X105234664Y-76015195D01*
X105285189Y-76090811D01*
X105360805Y-76141336D01*
X105450000Y-76159078D01*
X110450000Y-76159078D01*
X110539195Y-76141336D01*
X110614811Y-76090811D01*
X110665336Y-76015195D01*
X110683078Y-75926000D01*
X110683078Y-73482200D01*
X110694400Y-73482200D01*
X110694401Y-76885800D01*
X101477338Y-76885800D01*
X101475993Y-76879040D01*
X101377480Y-76731605D01*
X101346782Y-76577276D01*
X101243418Y-76422582D01*
X101088724Y-76319218D01*
X100906250Y-76282922D01*
X100418750Y-76282922D01*
X100236276Y-76319218D01*
X100081582Y-76422582D01*
X99978218Y-76577276D01*
X99947520Y-76731607D01*
X99849008Y-76879040D01*
X99847663Y-76885800D01*
X98723078Y-76885800D01*
X98723078Y-76464250D01*
X98686782Y-76281776D01*
X98583418Y-76127082D01*
X98428724Y-76023718D01*
X98274394Y-75993020D01*
X98126959Y-75894507D01*
X97790000Y-75827482D01*
X97453040Y-75894507D01*
X97305605Y-75993020D01*
X97151276Y-76023718D01*
X96996582Y-76127082D01*
X96893218Y-76281776D01*
X96867968Y-76408718D01*
X96390886Y-76885800D01*
X90835000Y-76885800D01*
X90835000Y-76382234D01*
X91171235Y-76046000D01*
X91208427Y-75990338D01*
X91260805Y-76025336D01*
X91350000Y-76043078D01*
X92060000Y-76043078D01*
X92149195Y-76025336D01*
X92224811Y-75974811D01*
X92275336Y-75899195D01*
X92293078Y-75810000D01*
X92293078Y-75550000D01*
X93126922Y-75550000D01*
X93126922Y-75810000D01*
X93144664Y-75899195D01*
X93195189Y-75974811D01*
X93270805Y-76025336D01*
X93360000Y-76043078D01*
X94070000Y-76043078D01*
X94159195Y-76025336D01*
X94234811Y-75974811D01*
X94285336Y-75899195D01*
X94303078Y-75810000D01*
X94303078Y-75550000D01*
X94285336Y-75460805D01*
X94234811Y-75385189D01*
X94159195Y-75334664D01*
X94070000Y-75316922D01*
X93360000Y-75316922D01*
X93270805Y-75334664D01*
X93195189Y-75385189D01*
X93144664Y-75460805D01*
X93126922Y-75550000D01*
X92293078Y-75550000D01*
X92275336Y-75460805D01*
X92254753Y-75430000D01*
X92275336Y-75399195D01*
X92293078Y-75310000D01*
X92293078Y-75050000D01*
X92275336Y-74960805D01*
X92254753Y-74930000D01*
X92275336Y-74899195D01*
X92293078Y-74810000D01*
X92293078Y-74550000D01*
X92275336Y-74460805D01*
X92254753Y-74430000D01*
X92275336Y-74399195D01*
X92293078Y-74310000D01*
X92293078Y-74050000D01*
X93126922Y-74050000D01*
X93126922Y-74310000D01*
X93144664Y-74399195D01*
X93165247Y-74430000D01*
X93144664Y-74460805D01*
X93126922Y-74550000D01*
X93126922Y-74810000D01*
X93144664Y-74899195D01*
X93195189Y-74974811D01*
X93270805Y-75025336D01*
X93360000Y-75043078D01*
X94070000Y-75043078D01*
X94105631Y-75035990D01*
X94170992Y-75133809D01*
X94381036Y-75274157D01*
X94566260Y-75311000D01*
X96927814Y-75311000D01*
X96996582Y-75413918D01*
X97151276Y-75517282D01*
X97333750Y-75553578D01*
X98246250Y-75553578D01*
X98428724Y-75517282D01*
X98583418Y-75413918D01*
X98652186Y-75311000D01*
X99977477Y-75311000D01*
X99978218Y-75314724D01*
X100081582Y-75469418D01*
X100236276Y-75572782D01*
X100418750Y-75609078D01*
X100906250Y-75609078D01*
X101088724Y-75572782D01*
X101243418Y-75469418D01*
X101346782Y-75314724D01*
X101383078Y-75132250D01*
X101383078Y-74219750D01*
X101346782Y-74037276D01*
X101243418Y-73882582D01*
X101088724Y-73779218D01*
X100906250Y-73742922D01*
X100418750Y-73742922D01*
X100236276Y-73779218D01*
X100081582Y-73882582D01*
X99978218Y-74037276D01*
X99977477Y-74041000D01*
X94566260Y-74041000D01*
X94381036Y-74077843D01*
X94303078Y-74129933D01*
X94303078Y-74050000D01*
X94285336Y-73960805D01*
X94234811Y-73885189D01*
X94159195Y-73834664D01*
X94070000Y-73816922D01*
X93360000Y-73816922D01*
X93270805Y-73834664D01*
X93195189Y-73885189D01*
X93144664Y-73960805D01*
X93126922Y-74050000D01*
X92293078Y-74050000D01*
X92275336Y-73960805D01*
X92224811Y-73885189D01*
X92149195Y-73834664D01*
X92060000Y-73816922D01*
X91350000Y-73816922D01*
X91260805Y-73834664D01*
X91185189Y-73885189D01*
X91134664Y-73960805D01*
X91116922Y-74050000D01*
X91116922Y-74129933D01*
X91038964Y-74077843D01*
X90853740Y-74041000D01*
X85775023Y-74041000D01*
X85774282Y-74037276D01*
X85670918Y-73882582D01*
X85516224Y-73779218D01*
X85333750Y-73742922D01*
X84846250Y-73742922D01*
X84663776Y-73779218D01*
X84509082Y-73882582D01*
X84405718Y-74037276D01*
X84369422Y-74219750D01*
X84369422Y-75132250D01*
X84405718Y-75314724D01*
X84509082Y-75469418D01*
X84663776Y-75572782D01*
X84846250Y-75609078D01*
X85333750Y-75609078D01*
X85516224Y-75572782D01*
X85670918Y-75469418D01*
X85774282Y-75314724D01*
X85775023Y-75311000D01*
X87021814Y-75311000D01*
X87090582Y-75413918D01*
X87245276Y-75517282D01*
X87427750Y-75553578D01*
X88340250Y-75553578D01*
X88522724Y-75517282D01*
X88677418Y-75413918D01*
X88746186Y-75311000D01*
X90110185Y-75311000D01*
X89795212Y-75625974D01*
X89742192Y-75661401D01*
X89706765Y-75714421D01*
X89601843Y-75871446D01*
X89552561Y-76119210D01*
X89565001Y-76181752D01*
X89565001Y-76885800D01*
X89497825Y-76885800D01*
X88915238Y-76303214D01*
X88879809Y-76250191D01*
X88669765Y-76109843D01*
X88643926Y-76104703D01*
X88522724Y-76023718D01*
X88340250Y-75987422D01*
X87427750Y-75987422D01*
X87245276Y-76023718D01*
X87171521Y-76073000D01*
X86676535Y-76073000D01*
X86613999Y-76060561D01*
X86551464Y-76073000D01*
X86551459Y-76073000D01*
X86366235Y-76109843D01*
X86156191Y-76250191D01*
X86120764Y-76303211D01*
X85538175Y-76885800D01*
X71825951Y-76885800D01*
X71774042Y-76159078D01*
X76160000Y-76159078D01*
X76249195Y-76141336D01*
X76324811Y-76090811D01*
X76375336Y-76015195D01*
X76393078Y-75926000D01*
X76393078Y-75311000D01*
X77449977Y-75311000D01*
X77450718Y-75314724D01*
X77554082Y-75469418D01*
X77708776Y-75572782D01*
X77891250Y-75609078D01*
X78378750Y-75609078D01*
X78561224Y-75572782D01*
X78715918Y-75469418D01*
X78819282Y-75314724D01*
X78855578Y-75132250D01*
X78855578Y-74219750D01*
X79289422Y-74219750D01*
X79289422Y-75132250D01*
X79325718Y-75314724D01*
X79429082Y-75469418D01*
X79583776Y-75572782D01*
X79766250Y-75609078D01*
X80253750Y-75609078D01*
X80436224Y-75572782D01*
X80590918Y-75469418D01*
X80694282Y-75314724D01*
X80695023Y-75311000D01*
X82529977Y-75311000D01*
X82530718Y-75314724D01*
X82634082Y-75469418D01*
X82788776Y-75572782D01*
X82971250Y-75609078D01*
X83458750Y-75609078D01*
X83641224Y-75572782D01*
X83795918Y-75469418D01*
X83899282Y-75314724D01*
X83935578Y-75132250D01*
X83935578Y-74219750D01*
X83899282Y-74037276D01*
X83795918Y-73882582D01*
X83641224Y-73779218D01*
X83458750Y-73742922D01*
X82971250Y-73742922D01*
X82788776Y-73779218D01*
X82634082Y-73882582D01*
X82530718Y-74037276D01*
X82529977Y-74041000D01*
X80695023Y-74041000D01*
X80694282Y-74037276D01*
X80590918Y-73882582D01*
X80436224Y-73779218D01*
X80253750Y-73742922D01*
X79766250Y-73742922D01*
X79583776Y-73779218D01*
X79429082Y-73882582D01*
X79325718Y-74037276D01*
X79289422Y-74219750D01*
X78855578Y-74219750D01*
X78819282Y-74037276D01*
X78715918Y-73882582D01*
X78561224Y-73779218D01*
X78378750Y-73742922D01*
X77891250Y-73742922D01*
X77708776Y-73779218D01*
X77554082Y-73882582D01*
X77450718Y-74037276D01*
X77449977Y-74041000D01*
X76393078Y-74041000D01*
X76393078Y-73482200D01*
X105216922Y-73482200D01*
X105216922Y-74041000D01*
D20*
G36*
X101670208Y-75755792D02*
X101803836Y-75865458D01*
X101956291Y-75946947D01*
X102121715Y-75997128D01*
X102293750Y-76014072D01*
X102781250Y-76014072D01*
X102953285Y-75997128D01*
X103118709Y-75946947D01*
X103271164Y-75865458D01*
X103404792Y-75755792D01*
X103436300Y-75717400D01*
X104811928Y-75717400D01*
X104811928Y-75926000D01*
X104824188Y-76050482D01*
X104860498Y-76170180D01*
X104919463Y-76280494D01*
X104998815Y-76377185D01*
X105095506Y-76456537D01*
X105205820Y-76515502D01*
X105325518Y-76551812D01*
X105450000Y-76564072D01*
X110288001Y-76564072D01*
X110288001Y-83110000D01*
X101710101Y-83110000D01*
X101720947Y-83089709D01*
X101771128Y-82924285D01*
X101788072Y-82752250D01*
X101788072Y-81839750D01*
X101771128Y-81667715D01*
X101720947Y-81502291D01*
X101639458Y-81349836D01*
X101529792Y-81216208D01*
X101396164Y-81106542D01*
X101245481Y-81026000D01*
X101396164Y-80945458D01*
X101529792Y-80835792D01*
X101639458Y-80702164D01*
X101720947Y-80549709D01*
X101771128Y-80384285D01*
X101772126Y-80374156D01*
X101841503Y-80244359D01*
X101914123Y-80004963D01*
X101932500Y-79818380D01*
X101932500Y-79818372D01*
X101938643Y-79755999D01*
X101932500Y-79693627D01*
X101932500Y-77153620D01*
X101914123Y-76967037D01*
X101841503Y-76727641D01*
X101772126Y-76597844D01*
X101771128Y-76587715D01*
X101720947Y-76422291D01*
X101639458Y-76269836D01*
X101529792Y-76136208D01*
X101396164Y-76026542D01*
X101245481Y-75946000D01*
X101396164Y-75865458D01*
X101529792Y-75755792D01*
X101600000Y-75670244D01*
X101670208Y-75755792D01*
X101670208Y-75755792D01*
G37*
X101670208Y-75755792D02*
X101803836Y-75865458D01*
X101956291Y-75946947D01*
X102121715Y-75997128D01*
X102293750Y-76014072D01*
X102781250Y-76014072D01*
X102953285Y-75997128D01*
X103118709Y-75946947D01*
X103271164Y-75865458D01*
X103404792Y-75755792D01*
X103436300Y-75717400D01*
X104811928Y-75717400D01*
X104811928Y-75926000D01*
X104824188Y-76050482D01*
X104860498Y-76170180D01*
X104919463Y-76280494D01*
X104998815Y-76377185D01*
X105095506Y-76456537D01*
X105205820Y-76515502D01*
X105325518Y-76551812D01*
X105450000Y-76564072D01*
X110288001Y-76564072D01*
X110288001Y-83110000D01*
X101710101Y-83110000D01*
X101720947Y-83089709D01*
X101771128Y-82924285D01*
X101788072Y-82752250D01*
X101788072Y-81839750D01*
X101771128Y-81667715D01*
X101720947Y-81502291D01*
X101639458Y-81349836D01*
X101529792Y-81216208D01*
X101396164Y-81106542D01*
X101245481Y-81026000D01*
X101396164Y-80945458D01*
X101529792Y-80835792D01*
X101639458Y-80702164D01*
X101720947Y-80549709D01*
X101771128Y-80384285D01*
X101772126Y-80374156D01*
X101841503Y-80244359D01*
X101914123Y-80004963D01*
X101932500Y-79818380D01*
X101932500Y-79818372D01*
X101938643Y-79755999D01*
X101932500Y-79693627D01*
X101932500Y-77153620D01*
X101914123Y-76967037D01*
X101841503Y-76727641D01*
X101772126Y-76597844D01*
X101771128Y-76587715D01*
X101720947Y-76422291D01*
X101639458Y-76269836D01*
X101529792Y-76136208D01*
X101396164Y-76026542D01*
X101245481Y-75946000D01*
X101396164Y-75865458D01*
X101529792Y-75755792D01*
X101600000Y-75670244D01*
X101670208Y-75755792D01*
G36*
X84222708Y-75755792D02*
X84356336Y-75865458D01*
X84508791Y-75946947D01*
X84674215Y-75997128D01*
X84846250Y-76014072D01*
X85333750Y-76014072D01*
X85505785Y-75997128D01*
X85671209Y-75946947D01*
X85823664Y-75865458D01*
X85957292Y-75755792D01*
X85988800Y-75717400D01*
X86292060Y-75717400D01*
X86213546Y-75741217D01*
X86213544Y-75741218D01*
X86032629Y-75837919D01*
X85913788Y-75935450D01*
X85913785Y-75935453D01*
X85874057Y-75968057D01*
X85841452Y-76007786D01*
X84955311Y-76893928D01*
X84846250Y-76893928D01*
X84674215Y-76910872D01*
X84508791Y-76961053D01*
X84356336Y-77042542D01*
X84222708Y-77152208D01*
X84113042Y-77285836D01*
X84031553Y-77438291D01*
X83981372Y-77603715D01*
X83964428Y-77775750D01*
X83964428Y-78688250D01*
X83981372Y-78860285D01*
X84031553Y-79025709D01*
X84113042Y-79178164D01*
X84222708Y-79311792D01*
X84356336Y-79421458D01*
X84508791Y-79502947D01*
X84674215Y-79553128D01*
X84846250Y-79570072D01*
X85333750Y-79570072D01*
X85505785Y-79553128D01*
X85671209Y-79502947D01*
X85823664Y-79421458D01*
X85957292Y-79311792D01*
X86066958Y-79178164D01*
X86148447Y-79025709D01*
X86198628Y-78860285D01*
X86215572Y-78688250D01*
X86215572Y-78579189D01*
X87045362Y-77749400D01*
X87058398Y-77749400D01*
X87090291Y-77766447D01*
X87255715Y-77816628D01*
X87427750Y-77833572D01*
X88074811Y-77833572D01*
X89074428Y-78833190D01*
X89074428Y-78942250D01*
X89091372Y-79114285D01*
X89141553Y-79279709D01*
X89200469Y-79389933D01*
X89125664Y-79328542D01*
X88973209Y-79247053D01*
X88807785Y-79196872D01*
X88635750Y-79179928D01*
X88148250Y-79179928D01*
X87976215Y-79196872D01*
X87810791Y-79247053D01*
X87658336Y-79328542D01*
X87524708Y-79438208D01*
X87415042Y-79571836D01*
X87333553Y-79724291D01*
X87283372Y-79889715D01*
X87282374Y-79899844D01*
X87212997Y-80029641D01*
X87140377Y-80269037D01*
X87122000Y-80455620D01*
X87122000Y-80735410D01*
X81261461Y-80735410D01*
X81136347Y-80610296D01*
X81073678Y-80295237D01*
X80950467Y-79997778D01*
X80771592Y-79730073D01*
X80543927Y-79502408D01*
X80276222Y-79323533D01*
X79978763Y-79200322D01*
X79662983Y-79137510D01*
X79341017Y-79137510D01*
X79025237Y-79200322D01*
X78727778Y-79323533D01*
X78460073Y-79502408D01*
X78232408Y-79730073D01*
X78053533Y-79997778D01*
X77930322Y-80295237D01*
X77867510Y-80611017D01*
X77867510Y-80932983D01*
X77930322Y-81248763D01*
X78053533Y-81546222D01*
X78232408Y-81813927D01*
X78460073Y-82041592D01*
X78727778Y-82220467D01*
X79025237Y-82343678D01*
X79340296Y-82406347D01*
X79793273Y-82859324D01*
X79833040Y-82907780D01*
X80026422Y-83066485D01*
X80107833Y-83110000D01*
X71322000Y-83110000D01*
X71322000Y-76564072D01*
X76160000Y-76564072D01*
X76284482Y-76551812D01*
X76404180Y-76515502D01*
X76514494Y-76456537D01*
X76611185Y-76377185D01*
X76690537Y-76280494D01*
X76749502Y-76170180D01*
X76785812Y-76050482D01*
X76798072Y-75926000D01*
X76798072Y-75717400D01*
X77236200Y-75717400D01*
X77267708Y-75755792D01*
X77401336Y-75865458D01*
X77553791Y-75946947D01*
X77719215Y-75997128D01*
X77891250Y-76014072D01*
X78378750Y-76014072D01*
X78550785Y-75997128D01*
X78716209Y-75946947D01*
X78868664Y-75865458D01*
X79002292Y-75755792D01*
X79072500Y-75670244D01*
X79142708Y-75755792D01*
X79276336Y-75865458D01*
X79428791Y-75946947D01*
X79594215Y-75997128D01*
X79766250Y-76014072D01*
X80253750Y-76014072D01*
X80425785Y-75997128D01*
X80591209Y-75946947D01*
X80743664Y-75865458D01*
X80877292Y-75755792D01*
X80908800Y-75717400D01*
X82316200Y-75717400D01*
X82347708Y-75755792D01*
X82481336Y-75865458D01*
X82633791Y-75946947D01*
X82799215Y-75997128D01*
X82971250Y-76014072D01*
X83458750Y-76014072D01*
X83630785Y-75997128D01*
X83796209Y-75946947D01*
X83948664Y-75865458D01*
X84082292Y-75755792D01*
X84152500Y-75670244D01*
X84222708Y-75755792D01*
X84222708Y-75755792D01*
G37*
X84222708Y-75755792D02*
X84356336Y-75865458D01*
X84508791Y-75946947D01*
X84674215Y-75997128D01*
X84846250Y-76014072D01*
X85333750Y-76014072D01*
X85505785Y-75997128D01*
X85671209Y-75946947D01*
X85823664Y-75865458D01*
X85957292Y-75755792D01*
X85988800Y-75717400D01*
X86292060Y-75717400D01*
X86213546Y-75741217D01*
X86213544Y-75741218D01*
X86032629Y-75837919D01*
X85913788Y-75935450D01*
X85913785Y-75935453D01*
X85874057Y-75968057D01*
X85841452Y-76007786D01*
X84955311Y-76893928D01*
X84846250Y-76893928D01*
X84674215Y-76910872D01*
X84508791Y-76961053D01*
X84356336Y-77042542D01*
X84222708Y-77152208D01*
X84113042Y-77285836D01*
X84031553Y-77438291D01*
X83981372Y-77603715D01*
X83964428Y-77775750D01*
X83964428Y-78688250D01*
X83981372Y-78860285D01*
X84031553Y-79025709D01*
X84113042Y-79178164D01*
X84222708Y-79311792D01*
X84356336Y-79421458D01*
X84508791Y-79502947D01*
X84674215Y-79553128D01*
X84846250Y-79570072D01*
X85333750Y-79570072D01*
X85505785Y-79553128D01*
X85671209Y-79502947D01*
X85823664Y-79421458D01*
X85957292Y-79311792D01*
X86066958Y-79178164D01*
X86148447Y-79025709D01*
X86198628Y-78860285D01*
X86215572Y-78688250D01*
X86215572Y-78579189D01*
X87045362Y-77749400D01*
X87058398Y-77749400D01*
X87090291Y-77766447D01*
X87255715Y-77816628D01*
X87427750Y-77833572D01*
X88074811Y-77833572D01*
X89074428Y-78833190D01*
X89074428Y-78942250D01*
X89091372Y-79114285D01*
X89141553Y-79279709D01*
X89200469Y-79389933D01*
X89125664Y-79328542D01*
X88973209Y-79247053D01*
X88807785Y-79196872D01*
X88635750Y-79179928D01*
X88148250Y-79179928D01*
X87976215Y-79196872D01*
X87810791Y-79247053D01*
X87658336Y-79328542D01*
X87524708Y-79438208D01*
X87415042Y-79571836D01*
X87333553Y-79724291D01*
X87283372Y-79889715D01*
X87282374Y-79899844D01*
X87212997Y-80029641D01*
X87140377Y-80269037D01*
X87122000Y-80455620D01*
X87122000Y-80735410D01*
X81261461Y-80735410D01*
X81136347Y-80610296D01*
X81073678Y-80295237D01*
X80950467Y-79997778D01*
X80771592Y-79730073D01*
X80543927Y-79502408D01*
X80276222Y-79323533D01*
X79978763Y-79200322D01*
X79662983Y-79137510D01*
X79341017Y-79137510D01*
X79025237Y-79200322D01*
X78727778Y-79323533D01*
X78460073Y-79502408D01*
X78232408Y-79730073D01*
X78053533Y-79997778D01*
X77930322Y-80295237D01*
X77867510Y-80611017D01*
X77867510Y-80932983D01*
X77930322Y-81248763D01*
X78053533Y-81546222D01*
X78232408Y-81813927D01*
X78460073Y-82041592D01*
X78727778Y-82220467D01*
X79025237Y-82343678D01*
X79340296Y-82406347D01*
X79793273Y-82859324D01*
X79833040Y-82907780D01*
X80026422Y-83066485D01*
X80107833Y-83110000D01*
X71322000Y-83110000D01*
X71322000Y-76564072D01*
X76160000Y-76564072D01*
X76284482Y-76551812D01*
X76404180Y-76515502D01*
X76514494Y-76456537D01*
X76611185Y-76377185D01*
X76690537Y-76280494D01*
X76749502Y-76170180D01*
X76785812Y-76050482D01*
X76798072Y-75926000D01*
X76798072Y-75717400D01*
X77236200Y-75717400D01*
X77267708Y-75755792D01*
X77401336Y-75865458D01*
X77553791Y-75946947D01*
X77719215Y-75997128D01*
X77891250Y-76014072D01*
X78378750Y-76014072D01*
X78550785Y-75997128D01*
X78716209Y-75946947D01*
X78868664Y-75865458D01*
X79002292Y-75755792D01*
X79072500Y-75670244D01*
X79142708Y-75755792D01*
X79276336Y-75865458D01*
X79428791Y-75946947D01*
X79594215Y-75997128D01*
X79766250Y-76014072D01*
X80253750Y-76014072D01*
X80425785Y-75997128D01*
X80591209Y-75946947D01*
X80743664Y-75865458D01*
X80877292Y-75755792D01*
X80908800Y-75717400D01*
X82316200Y-75717400D01*
X82347708Y-75755792D01*
X82481336Y-75865458D01*
X82633791Y-75946947D01*
X82799215Y-75997128D01*
X82971250Y-76014072D01*
X83458750Y-76014072D01*
X83630785Y-75997128D01*
X83796209Y-75946947D01*
X83948664Y-75865458D01*
X84082292Y-75755792D01*
X84152500Y-75670244D01*
X84222708Y-75755792D01*
G36*
X96573663Y-80212094D02*
X96653015Y-80308785D01*
X96749706Y-80388137D01*
X96769776Y-80398865D01*
X96836830Y-80480570D01*
X96939463Y-80564799D01*
X96860020Y-80588898D01*
X96749706Y-80647863D01*
X96653015Y-80727215D01*
X96573663Y-80823906D01*
X96520000Y-80924301D01*
X96466337Y-80823906D01*
X96386985Y-80727215D01*
X96290294Y-80647863D01*
X96179980Y-80588898D01*
X96060282Y-80552588D01*
X95935800Y-80540328D01*
X95793508Y-80540328D01*
X95751735Y-80518000D01*
X95793508Y-80495672D01*
X95935800Y-80495672D01*
X96060282Y-80483412D01*
X96179980Y-80447102D01*
X96290294Y-80388137D01*
X96386985Y-80308785D01*
X96466337Y-80212094D01*
X96520000Y-80111699D01*
X96573663Y-80212094D01*
X96573663Y-80212094D01*
G37*
X96573663Y-80212094D02*
X96653015Y-80308785D01*
X96749706Y-80388137D01*
X96769776Y-80398865D01*
X96836830Y-80480570D01*
X96939463Y-80564799D01*
X96860020Y-80588898D01*
X96749706Y-80647863D01*
X96653015Y-80727215D01*
X96573663Y-80823906D01*
X96520000Y-80924301D01*
X96466337Y-80823906D01*
X96386985Y-80727215D01*
X96290294Y-80647863D01*
X96179980Y-80588898D01*
X96060282Y-80552588D01*
X95935800Y-80540328D01*
X95793508Y-80540328D01*
X95751735Y-80518000D01*
X95793508Y-80495672D01*
X95935800Y-80495672D01*
X96060282Y-80483412D01*
X96179980Y-80447102D01*
X96290294Y-80388137D01*
X96386985Y-80308785D01*
X96466337Y-80212094D01*
X96520000Y-80111699D01*
X96573663Y-80212094D01*
G36*
X99795208Y-75755792D02*
X99928836Y-75865458D01*
X100079519Y-75946000D01*
X99928836Y-76026542D01*
X99795208Y-76136208D01*
X99685542Y-76269836D01*
X99604053Y-76422291D01*
X99553872Y-76587715D01*
X99552874Y-76597847D01*
X99483498Y-76727641D01*
X99410878Y-76967037D01*
X99392501Y-77153620D01*
X99392501Y-78308200D01*
X99060000Y-78308200D01*
X99060000Y-77290981D01*
X99060947Y-77289209D01*
X99111128Y-77123785D01*
X99128072Y-76951750D01*
X99128072Y-76464250D01*
X99111128Y-76292215D01*
X99060947Y-76126791D01*
X98979458Y-75974336D01*
X98869792Y-75840708D01*
X98784244Y-75770500D01*
X98848946Y-75717400D01*
X99763700Y-75717400D01*
X99795208Y-75755792D01*
X99795208Y-75755792D01*
G37*
X99795208Y-75755792D02*
X99928836Y-75865458D01*
X100079519Y-75946000D01*
X99928836Y-76026542D01*
X99795208Y-76136208D01*
X99685542Y-76269836D01*
X99604053Y-76422291D01*
X99553872Y-76587715D01*
X99552874Y-76597847D01*
X99483498Y-76727641D01*
X99410878Y-76967037D01*
X99392501Y-77153620D01*
X99392501Y-78308200D01*
X99060000Y-78308200D01*
X99060000Y-77290981D01*
X99060947Y-77289209D01*
X99111128Y-77123785D01*
X99128072Y-76951750D01*
X99128072Y-76464250D01*
X99111128Y-76292215D01*
X99060947Y-76126791D01*
X98979458Y-75974336D01*
X98869792Y-75840708D01*
X98784244Y-75770500D01*
X98848946Y-75717400D01*
X99763700Y-75717400D01*
X99795208Y-75755792D01*
G36*
X110288000Y-72787928D02*
X105450000Y-72787928D01*
X105325518Y-72800188D01*
X105205820Y-72836498D01*
X105095506Y-72895463D01*
X104998815Y-72974815D01*
X104919463Y-73071506D01*
X104860498Y-73181820D01*
X104824188Y-73301518D01*
X104811928Y-73426000D01*
X104811928Y-73634600D01*
X103436300Y-73634600D01*
X103404792Y-73596208D01*
X103271164Y-73486542D01*
X103118709Y-73405053D01*
X102953285Y-73354872D01*
X102781250Y-73337928D01*
X102293750Y-73337928D01*
X102121715Y-73354872D01*
X101956291Y-73405053D01*
X101803836Y-73486542D01*
X101670208Y-73596208D01*
X101600000Y-73681756D01*
X101529792Y-73596208D01*
X101396164Y-73486542D01*
X101243709Y-73405053D01*
X101078285Y-73354872D01*
X100906250Y-73337928D01*
X100418750Y-73337928D01*
X100246715Y-73354872D01*
X100081291Y-73405053D01*
X99928836Y-73486542D01*
X99795208Y-73596208D01*
X99763700Y-73634600D01*
X94577649Y-73634600D01*
X94552579Y-73637069D01*
X94521185Y-73598815D01*
X94424494Y-73519463D01*
X94314180Y-73460498D01*
X94194482Y-73424188D01*
X94070000Y-73411928D01*
X93360000Y-73411928D01*
X93235518Y-73424188D01*
X93115820Y-73460498D01*
X93005506Y-73519463D01*
X92908815Y-73598815D01*
X92829463Y-73695506D01*
X92770498Y-73805820D01*
X92734188Y-73925518D01*
X92721928Y-74050000D01*
X92721928Y-74310000D01*
X92733747Y-74430000D01*
X92721928Y-74550000D01*
X92721928Y-74810000D01*
X92734188Y-74934482D01*
X92770498Y-75054180D01*
X92829463Y-75164494D01*
X92842188Y-75180000D01*
X92829463Y-75195506D01*
X92770498Y-75305820D01*
X92734188Y-75425518D01*
X92721928Y-75550000D01*
X92721928Y-75810000D01*
X92734188Y-75934482D01*
X92770498Y-76054180D01*
X92829463Y-76164494D01*
X92908815Y-76261185D01*
X93005506Y-76340537D01*
X93115820Y-76399502D01*
X93235518Y-76435812D01*
X93360000Y-76448072D01*
X94070000Y-76448072D01*
X94194482Y-76435812D01*
X94314180Y-76399502D01*
X94424494Y-76340537D01*
X94521185Y-76261185D01*
X94600537Y-76164494D01*
X94659502Y-76054180D01*
X94695812Y-75934482D01*
X94708072Y-75810000D01*
X94708072Y-75717400D01*
X96731054Y-75717400D01*
X96795756Y-75770500D01*
X96710208Y-75840708D01*
X96600542Y-75974336D01*
X96519053Y-76126791D01*
X96494623Y-76207327D01*
X96042187Y-76659763D01*
X92693610Y-76659763D01*
X92631237Y-76653620D01*
X92568864Y-76659763D01*
X92568857Y-76659763D01*
X92405584Y-76675844D01*
X92382273Y-76678140D01*
X92283835Y-76708001D01*
X92142878Y-76750760D01*
X91922249Y-76868688D01*
X91728867Y-77027393D01*
X91689096Y-77075854D01*
X91574328Y-77190622D01*
X91493791Y-77215053D01*
X91341336Y-77296542D01*
X91241400Y-77378558D01*
X91241400Y-76550571D01*
X91344446Y-76447525D01*
X91350000Y-76448072D01*
X92060000Y-76448072D01*
X92184482Y-76435812D01*
X92304180Y-76399502D01*
X92414494Y-76340537D01*
X92511185Y-76261185D01*
X92590537Y-76164494D01*
X92649502Y-76054180D01*
X92685812Y-75934482D01*
X92698072Y-75810000D01*
X92698072Y-75550000D01*
X92686253Y-75430000D01*
X92698072Y-75310000D01*
X92698072Y-75050000D01*
X92686253Y-74930000D01*
X92698072Y-74810000D01*
X92698072Y-74550000D01*
X92686253Y-74430000D01*
X92698072Y-74310000D01*
X92698072Y-74050000D01*
X92685812Y-73925518D01*
X92649502Y-73805820D01*
X92590537Y-73695506D01*
X92511185Y-73598815D01*
X92414494Y-73519463D01*
X92304180Y-73460498D01*
X92184482Y-73424188D01*
X92060000Y-73411928D01*
X91350000Y-73411928D01*
X91225518Y-73424188D01*
X91105820Y-73460498D01*
X90995506Y-73519463D01*
X90898815Y-73598815D01*
X90867421Y-73637069D01*
X90842351Y-73634600D01*
X85988800Y-73634600D01*
X85957292Y-73596208D01*
X85823664Y-73486542D01*
X85671209Y-73405053D01*
X85505785Y-73354872D01*
X85333750Y-73337928D01*
X84846250Y-73337928D01*
X84674215Y-73354872D01*
X84508791Y-73405053D01*
X84356336Y-73486542D01*
X84222708Y-73596208D01*
X84152500Y-73681756D01*
X84082292Y-73596208D01*
X83948664Y-73486542D01*
X83796209Y-73405053D01*
X83630785Y-73354872D01*
X83458750Y-73337928D01*
X82971250Y-73337928D01*
X82799215Y-73354872D01*
X82633791Y-73405053D01*
X82481336Y-73486542D01*
X82347708Y-73596208D01*
X82316200Y-73634600D01*
X80908800Y-73634600D01*
X80877292Y-73596208D01*
X80743664Y-73486542D01*
X80591209Y-73405053D01*
X80425785Y-73354872D01*
X80253750Y-73337928D01*
X79766250Y-73337928D01*
X79594215Y-73354872D01*
X79428791Y-73405053D01*
X79276336Y-73486542D01*
X79142708Y-73596208D01*
X79072500Y-73681756D01*
X79002292Y-73596208D01*
X78868664Y-73486542D01*
X78716209Y-73405053D01*
X78550785Y-73354872D01*
X78378750Y-73337928D01*
X77891250Y-73337928D01*
X77719215Y-73354872D01*
X77553791Y-73405053D01*
X77401336Y-73486542D01*
X77267708Y-73596208D01*
X77236200Y-73634600D01*
X76798072Y-73634600D01*
X76798072Y-73426000D01*
X76785812Y-73301518D01*
X76749502Y-73181820D01*
X76690537Y-73071506D01*
X76611185Y-72974815D01*
X76514494Y-72895463D01*
X76404180Y-72836498D01*
X76284482Y-72800188D01*
X76160000Y-72787928D01*
X71322000Y-72787928D01*
X71322000Y-69544000D01*
X110288000Y-69544000D01*
X110288000Y-72787928D01*
X110288000Y-72787928D01*
G37*
X110288000Y-72787928D02*
X105450000Y-72787928D01*
X105325518Y-72800188D01*
X105205820Y-72836498D01*
X105095506Y-72895463D01*
X104998815Y-72974815D01*
X104919463Y-73071506D01*
X104860498Y-73181820D01*
X104824188Y-73301518D01*
X104811928Y-73426000D01*
X104811928Y-73634600D01*
X103436300Y-73634600D01*
X103404792Y-73596208D01*
X103271164Y-73486542D01*
X103118709Y-73405053D01*
X102953285Y-73354872D01*
X102781250Y-73337928D01*
X102293750Y-73337928D01*
X102121715Y-73354872D01*
X101956291Y-73405053D01*
X101803836Y-73486542D01*
X101670208Y-73596208D01*
X101600000Y-73681756D01*
X101529792Y-73596208D01*
X101396164Y-73486542D01*
X101243709Y-73405053D01*
X101078285Y-73354872D01*
X100906250Y-73337928D01*
X100418750Y-73337928D01*
X100246715Y-73354872D01*
X100081291Y-73405053D01*
X99928836Y-73486542D01*
X99795208Y-73596208D01*
X99763700Y-73634600D01*
X94577649Y-73634600D01*
X94552579Y-73637069D01*
X94521185Y-73598815D01*
X94424494Y-73519463D01*
X94314180Y-73460498D01*
X94194482Y-73424188D01*
X94070000Y-73411928D01*
X93360000Y-73411928D01*
X93235518Y-73424188D01*
X93115820Y-73460498D01*
X93005506Y-73519463D01*
X92908815Y-73598815D01*
X92829463Y-73695506D01*
X92770498Y-73805820D01*
X92734188Y-73925518D01*
X92721928Y-74050000D01*
X92721928Y-74310000D01*
X92733747Y-74430000D01*
X92721928Y-74550000D01*
X92721928Y-74810000D01*
X92734188Y-74934482D01*
X92770498Y-75054180D01*
X92829463Y-75164494D01*
X92842188Y-75180000D01*
X92829463Y-75195506D01*
X92770498Y-75305820D01*
X92734188Y-75425518D01*
X92721928Y-75550000D01*
X92721928Y-75810000D01*
X92734188Y-75934482D01*
X92770498Y-76054180D01*
X92829463Y-76164494D01*
X92908815Y-76261185D01*
X93005506Y-76340537D01*
X93115820Y-76399502D01*
X93235518Y-76435812D01*
X93360000Y-76448072D01*
X94070000Y-76448072D01*
X94194482Y-76435812D01*
X94314180Y-76399502D01*
X94424494Y-76340537D01*
X94521185Y-76261185D01*
X94600537Y-76164494D01*
X94659502Y-76054180D01*
X94695812Y-75934482D01*
X94708072Y-75810000D01*
X94708072Y-75717400D01*
X96731054Y-75717400D01*
X96795756Y-75770500D01*
X96710208Y-75840708D01*
X96600542Y-75974336D01*
X96519053Y-76126791D01*
X96494623Y-76207327D01*
X96042187Y-76659763D01*
X92693610Y-76659763D01*
X92631237Y-76653620D01*
X92568864Y-76659763D01*
X92568857Y-76659763D01*
X92405584Y-76675844D01*
X92382273Y-76678140D01*
X92283835Y-76708001D01*
X92142878Y-76750760D01*
X91922249Y-76868688D01*
X91728867Y-77027393D01*
X91689096Y-77075854D01*
X91574328Y-77190622D01*
X91493791Y-77215053D01*
X91341336Y-77296542D01*
X91241400Y-77378558D01*
X91241400Y-76550571D01*
X91344446Y-76447525D01*
X91350000Y-76448072D01*
X92060000Y-76448072D01*
X92184482Y-76435812D01*
X92304180Y-76399502D01*
X92414494Y-76340537D01*
X92511185Y-76261185D01*
X92590537Y-76164494D01*
X92649502Y-76054180D01*
X92685812Y-75934482D01*
X92698072Y-75810000D01*
X92698072Y-75550000D01*
X92686253Y-75430000D01*
X92698072Y-75310000D01*
X92698072Y-75050000D01*
X92686253Y-74930000D01*
X92698072Y-74810000D01*
X92698072Y-74550000D01*
X92686253Y-74430000D01*
X92698072Y-74310000D01*
X92698072Y-74050000D01*
X92685812Y-73925518D01*
X92649502Y-73805820D01*
X92590537Y-73695506D01*
X92511185Y-73598815D01*
X92414494Y-73519463D01*
X92304180Y-73460498D01*
X92184482Y-73424188D01*
X92060000Y-73411928D01*
X91350000Y-73411928D01*
X91225518Y-73424188D01*
X91105820Y-73460498D01*
X90995506Y-73519463D01*
X90898815Y-73598815D01*
X90867421Y-73637069D01*
X90842351Y-73634600D01*
X85988800Y-73634600D01*
X85957292Y-73596208D01*
X85823664Y-73486542D01*
X85671209Y-73405053D01*
X85505785Y-73354872D01*
X85333750Y-73337928D01*
X84846250Y-73337928D01*
X84674215Y-73354872D01*
X84508791Y-73405053D01*
X84356336Y-73486542D01*
X84222708Y-73596208D01*
X84152500Y-73681756D01*
X84082292Y-73596208D01*
X83948664Y-73486542D01*
X83796209Y-73405053D01*
X83630785Y-73354872D01*
X83458750Y-73337928D01*
X82971250Y-73337928D01*
X82799215Y-73354872D01*
X82633791Y-73405053D01*
X82481336Y-73486542D01*
X82347708Y-73596208D01*
X82316200Y-73634600D01*
X80908800Y-73634600D01*
X80877292Y-73596208D01*
X80743664Y-73486542D01*
X80591209Y-73405053D01*
X80425785Y-73354872D01*
X80253750Y-73337928D01*
X79766250Y-73337928D01*
X79594215Y-73354872D01*
X79428791Y-73405053D01*
X79276336Y-73486542D01*
X79142708Y-73596208D01*
X79072500Y-73681756D01*
X79002292Y-73596208D01*
X78868664Y-73486542D01*
X78716209Y-73405053D01*
X78550785Y-73354872D01*
X78378750Y-73337928D01*
X77891250Y-73337928D01*
X77719215Y-73354872D01*
X77553791Y-73405053D01*
X77401336Y-73486542D01*
X77267708Y-73596208D01*
X77236200Y-73634600D01*
X76798072Y-73634600D01*
X76798072Y-73426000D01*
X76785812Y-73301518D01*
X76749502Y-73181820D01*
X76690537Y-73071506D01*
X76611185Y-72974815D01*
X76514494Y-72895463D01*
X76404180Y-72836498D01*
X76284482Y-72800188D01*
X76160000Y-72787928D01*
X71322000Y-72787928D01*
X71322000Y-69544000D01*
X110288000Y-69544000D01*
X110288000Y-72787928D01*
G36*
X89233218Y-75718755D02*
X89203524Y-75816645D01*
X89173670Y-75915060D01*
X89167753Y-75975136D01*
X89161943Y-75968057D01*
X89003370Y-75837919D01*
X88880121Y-75772041D01*
X88878244Y-75770500D01*
X88942946Y-75717400D01*
X89233942Y-75717400D01*
X89233218Y-75718755D01*
X89233218Y-75718755D01*
G37*
X89233218Y-75718755D02*
X89203524Y-75816645D01*
X89173670Y-75915060D01*
X89167753Y-75975136D01*
X89161943Y-75968057D01*
X89003370Y-75837919D01*
X88880121Y-75772041D01*
X88878244Y-75770500D01*
X88942946Y-75717400D01*
X89233942Y-75717400D01*
X89233218Y-75718755D01*
G04 #@! TD*
M02*
