M48
;DRILL file {KiCad 5.0.2-bee76a0~70~ubuntu16.04.1} date Thu 07 Mar 2019 06:54:29 PM EST
;FORMAT={-:-/ absolute / inch / decimal}
FMAT,2
INCH,TZ
T1C0.0130
T2C0.0315
%
G90
G05
T1
X2.825Y-2.75
X2.825Y-2.8
X2.825Y-2.85
X2.825Y-3.025
X2.825Y-3.075
X2.825Y-3.125
X2.825Y-3.175
X2.825Y-3.225
X2.875Y-3.025
X2.875Y-3.25
X2.9Y-2.75
X2.9Y-2.85
X2.9Y-3.1
X2.925Y-3.025
X2.925Y-3.25
X2.95Y-2.85
X2.975Y-2.75
X2.975Y-3.025
X3.Y-2.85
X3.Y-3.1
X3.Y-3.25
X3.04Y-2.99
X3.05Y-2.75
X3.06Y-2.88
X3.075Y-3.25
X3.09Y-3.
X3.1Y-3.1
X3.12Y-2.88
X3.14Y-3.
X3.16Y-2.88
X3.19Y-2.99
X3.2Y-3.1
X3.21Y-2.89
X3.225Y-2.75
X3.24Y-2.99
X3.26Y-2.88
X3.29Y-3.
X3.3Y-2.8
X3.31Y-2.88
X3.325Y-2.75
X3.34Y-3.
X3.36Y-2.88
X3.4Y-2.75
X3.41Y-2.89
X3.45Y-2.89
X3.475Y-2.75
X3.49Y-2.89
X3.5Y-2.8
X3.53Y-2.89
X3.55Y-2.75
X3.57Y-2.89
X3.61Y-2.88
X3.625Y-2.75
X3.65Y-2.89
X3.65Y-3.01
X3.69Y-2.88
X3.7Y-2.75
X3.7Y-2.8
X3.74Y-2.89
X3.74Y-2.98
X3.76Y-3.17
X3.775Y-2.75
X3.78Y-2.89
X3.78Y-2.98
X3.8Y-3.17
X3.82Y-2.89
X3.85Y-2.75
X3.86Y-2.89
X3.9Y-2.8
X3.91Y-2.89
X3.925Y-2.75
X3.96Y-2.88
X4.Y-2.75
X4.Y-2.88
X4.03Y-3.
X4.04Y-2.88
X4.04Y-3.04
X4.04Y-3.14
X4.04Y-3.24
X4.06Y-2.75
X4.07Y-2.99
X4.08Y-2.89
X4.08Y-3.04
X4.08Y-3.14
X4.08Y-3.24
X4.1Y-2.8
X4.11Y-2.98
X4.12Y-2.75
X4.125Y-3.25
X4.175Y-2.75
X4.175Y-3.25
X4.2Y-3.1
X4.2Y-3.2
X4.225Y-2.75
X4.225Y-3.25
X4.275Y-2.75
X4.275Y-3.25
X4.325Y-2.75
X4.325Y-2.8
X4.325Y-2.85
X4.325Y-3.05
X4.325Y-3.1
X4.325Y-3.15
X4.325Y-3.2
X4.325Y-3.25
T2
X3.13Y-2.79
X3.13Y-3.18
T0
M30
