M48
;DRILL file {KiCad 5.0.2-bee76a0~70~ubuntu16.04.1} date Sun 24 Feb 2019 06:58:35 PM EST
;FORMAT={-:-/ absolute / inch / decimal}
FMAT,2
INCH,TZ
T1C0.0130
T2C0.0157
T3C0.0315
T4C0.0433
T5C0.0591
T6C0.0630
%
G90
G05
T1
X1.65Y-2.6
X1.65Y-2.65
X1.65Y-2.7
X1.65Y-2.75
X1.65Y-2.8
X1.65Y-2.85
X1.65Y-3.325
X1.65Y-3.375
X1.65Y-3.425
X1.65Y-3.475
X1.65Y-3.525
X1.65Y-3.58
X1.65Y-3.625
X1.65Y-3.675
X1.65Y-3.725
X1.65Y-3.825
X1.65Y-3.875
X1.65Y-4.
X1.65Y-4.05
X1.65Y-4.1
X1.65Y-4.15
X1.66Y-3.77
X1.66Y-3.95
X1.675Y-4.175
X1.7Y-2.6
X1.7Y-3.34
X1.7Y-3.38
X1.725Y-4.175
X1.73Y-3.42
X1.75Y-2.6
X1.75Y-2.64
X1.775Y-4.175
X1.8Y-2.6
X1.82Y-3.42
X1.82Y-3.94
X1.825Y-4.175
X1.825Y-4.175
X1.825Y-4.175
X1.83Y-3.75
X1.85Y-2.6
X1.87Y-3.55
X1.875Y-4.175
X1.89Y-3.82
X1.9Y-2.6
X1.91Y-2.86
X1.91Y-3.94
X1.92Y-3.89
X1.925Y-4.175
X1.975Y-4.175
X1.98Y-3.56
X1.98Y-3.9
X1.99Y-2.8
X2.Y-2.875
X2.025Y-4.175
X2.04Y-3.05
X2.04Y-3.14
X2.075Y-4.175
X2.08Y-3.05
X2.08Y-3.14
X2.09Y-3.29
X2.09Y-3.46
X2.09Y-3.55
X2.1Y-3.225
X2.125Y-4.175
X2.13Y-3.29
X2.13Y-3.33
X2.13Y-3.51
X2.15Y-3.625
X2.16Y-3.17
X2.175Y-4.175
X2.2Y-4.075
X2.21Y-3.56
X2.225Y-3.25
X2.225Y-3.475
X2.225Y-4.175
X2.23Y-3.16
X2.24Y-3.07
X2.27Y-3.16
X2.28Y-3.07
X2.28Y-4.
X2.28Y-4.175
X2.3Y-3.46
X2.3Y-4.03
X2.31Y-3.16
X2.31Y-3.3
X2.32Y-3.07
X2.325Y-4.175
X2.33Y-4.06
X2.35Y-2.95
X2.35Y-3.16
X2.36Y-3.07
X2.37Y-3.22
X2.37Y-4.07
X2.375Y-4.175
X2.38Y-3.97
X2.39Y-2.91
X2.39Y-3.16
X2.4Y-3.07
X2.4Y-3.2
X2.4Y-3.65
X2.41Y-3.31
X2.41Y-4.07
X2.42Y-3.98
X2.425Y-2.95
X2.425Y-4.175
X2.44Y-3.07
X2.45Y-2.775
X2.45Y-3.31
X2.45Y-4.07
X2.46Y-3.98
X2.475Y-4.175
X2.48Y-3.08
X2.49Y-3.3
X2.49Y-4.07
X2.5Y-3.98
X2.52Y-3.19
X2.53Y-4.07
X2.54Y-2.78
X2.54Y-2.96
X2.54Y-3.98
X2.54Y-4.175
X2.55Y-2.87
X2.57Y-3.2
X2.57Y-4.07
X2.58Y-2.78
X2.58Y-2.85
X2.58Y-2.89
X2.58Y-2.96
X2.58Y-3.98
X2.6Y-3.46
X2.6Y-4.175
X2.61Y-2.83
X2.61Y-2.91
X2.61Y-3.91
X2.61Y-4.07
X2.62Y-2.78
X2.62Y-2.96
X2.62Y-3.2
X2.62Y-3.98
X2.64Y-2.81
X2.64Y-2.93
X2.65Y-3.07
X2.65Y-4.07
X2.65Y-4.175
X2.6513Y-3.6401
X2.66Y-2.78
X2.66Y-2.96
X2.66Y-3.98
X2.6611Y-3.7419
X2.67Y-3.31
X2.68Y-3.08
X2.69Y-4.07
X2.6933Y-3.6446
X2.6987Y-3.7375
X2.7Y-3.18
X2.7Y-3.98
X2.7Y-4.175
X2.72Y-3.064
X2.72Y-3.27
X2.73Y-4.07
X2.7371Y-3.6446
X2.74Y-3.98
X2.7415Y-3.7375
X2.75Y-3.42
X2.75Y-4.175
X2.76Y-3.07
X2.77Y-4.07
X2.78Y-3.98
X2.7826Y-3.6446
X2.7871Y-3.741
X2.79Y-2.84
X2.8Y-2.75
X2.8Y-2.95
X2.8Y-3.07
X2.8Y-3.16
X2.81Y-4.07
X2.82Y-3.98
X2.82Y-4.175
X2.8237Y-3.6455
X2.8264Y-3.7384
X2.85Y-4.07
X2.86Y-3.98
X2.8657Y-3.6464
X2.8711Y-3.7375
X2.875Y-4.175
X2.89Y-3.27
X2.89Y-4.07
X2.9Y-3.98
X2.9077Y-3.6464
X2.91Y-2.81
X2.91Y-3.432
X2.914Y-3.7366
X2.925Y-4.175
X2.93Y-4.07
X2.94Y-3.98
X2.96Y-3.07
X2.96Y-3.16
X2.97Y-4.07
X2.975Y-4.175
X2.978Y-3.464
X2.98Y-3.87
X2.98Y-3.98
X3.Y-3.42
X3.01Y-3.2
X3.01Y-4.07
X3.02Y-3.03
X3.02Y-3.26
X3.02Y-3.65
X3.02Y-3.98
X3.025Y-4.175
X3.03Y-3.73
X3.05Y-4.07
X3.06Y-3.65
X3.06Y-3.98
X3.062Y-3.594
X3.07Y-2.8
X3.07Y-3.73
X3.09Y-4.07
X3.1Y-3.646
X3.1Y-3.98
X3.1Y-4.175
X3.11Y-2.96
X3.11Y-3.03
X3.11Y-3.2
X3.11Y-3.51
X3.11Y-3.55
X3.11Y-3.73
X3.13Y-4.07
X3.14Y-3.64
X3.14Y-3.88
X3.14Y-3.98
X3.146Y-3.426
X3.15Y-2.88
X3.15Y-3.03
X3.15Y-3.73
X3.15Y-4.175
X3.16Y-3.16
X3.17Y-4.07
X3.18Y-3.07
X3.18Y-3.52
X3.18Y-3.57
X3.18Y-3.61
X3.18Y-3.98
X3.19Y-3.24
X3.19Y-3.72
X3.2Y-2.6
X3.2Y-2.69
X3.2Y-2.95
X3.2Y-3.46
X3.2Y-4.175
X3.21Y-3.16
X3.21Y-4.07
X3.22Y-3.07
X3.22Y-3.51
X3.22Y-3.69
X3.22Y-3.98
X3.24Y-2.6
X3.24Y-2.69
X3.25Y-4.07
X3.25Y-4.175
X3.252Y-3.422
X3.26Y-3.52
X3.26Y-3.67
X3.26Y-3.98
X3.27Y-3.6
X3.28Y-2.6
X3.28Y-2.69
X3.28Y-3.86
X3.29Y-4.07
X3.3Y-3.51
X3.3Y-3.66
X3.3Y-3.7
X3.3Y-3.98
X3.3Y-4.175
X3.304Y-3.276
X3.306Y-3.458
X3.31Y-3.23
X3.31Y-3.6
X3.32Y-2.6
X3.32Y-2.69
X3.33Y-2.83
X3.33Y-2.89
X3.33Y-3.57
X3.33Y-4.07
X3.34Y-3.07
X3.34Y-3.2
X3.34Y-3.98
X3.35Y-3.434
X3.35Y-4.175
X3.36Y-2.6
X3.36Y-2.69
X3.36Y-3.16
X3.36Y-3.336
X3.36Y-3.54
X3.37Y-3.67
X3.37Y-3.7
X3.37Y-4.07
X3.38Y-3.07
X3.38Y-3.58
X3.38Y-3.98
X3.388Y-3.454
X3.39Y-2.83
X3.39Y-2.89
X3.4Y-2.6
X3.4Y-2.69
X3.4Y-3.3
X3.4Y-3.54
X3.4Y-3.88
X3.41Y-4.07
X3.42Y-3.062
X3.42Y-3.57
X3.42Y-3.64
X3.42Y-3.7
X3.425Y-3.975
X3.43Y-4.175
X3.44Y-2.6
X3.44Y-2.69
X3.45Y-3.29
X3.45Y-3.68
X3.45Y-3.93
X3.45Y-4.07
X3.46Y-3.01
X3.46Y-3.08
X3.46Y-3.64
X3.46Y-3.98
X3.47Y-3.34
X3.48Y-2.6
X3.48Y-2.7
X3.48Y-3.79
X3.48Y-3.83
X3.49Y-3.67
X3.49Y-3.75
X3.49Y-4.07
X3.5Y-2.97
X3.5Y-3.98
X3.5Y-4.175
X3.504Y-3.88
X3.51Y-2.72
X3.51Y-3.6
X3.52Y-2.61
X3.53Y-2.75
X3.53Y-4.07
X3.54Y-3.01
X3.54Y-3.09
X3.54Y-3.63
X3.54Y-3.97
X3.55Y-2.64
X3.55Y-4.175
X3.552Y-3.258
X3.56Y-2.78
X3.56Y-3.54
X3.57Y-3.5
X3.57Y-3.94
X3.57Y-4.07
X3.58Y-2.67
X3.58Y-3.59
X3.582Y-3.008
X3.584Y-2.958
X3.59Y-2.8
X3.59Y-2.84
X3.59Y-2.88
X3.59Y-2.92
X3.59Y-3.8
X3.6Y-2.6
X3.6Y-3.04
X3.6Y-3.35
X3.61Y-2.7
X3.61Y-3.9
X3.61Y-4.07
X3.62Y-3.87
X3.624Y-3.666
X3.624Y-3.714
X3.624Y-3.714
X3.624Y-3.714
X3.625Y-3.13
X3.625Y-3.18
X3.625Y-4.175
X3.64Y-2.72
X3.65Y-3.38
X3.65Y-4.07
X3.66Y-3.98
X3.672Y-3.666
X3.674Y-3.002
X3.675Y-2.6
X3.675Y-3.13
X3.675Y-3.18
X3.675Y-3.715
X3.678Y-2.952
X3.678Y-4.175
X3.68Y-2.72
X3.68Y-2.84
X3.68Y-2.88
X3.68Y-2.92
X3.68Y-3.95
X3.69Y-4.07
X3.7Y-3.34
X3.7Y-3.81
X3.7Y-3.92
X3.71Y-2.82
X3.71Y-3.98
X3.712Y-3.844
X3.712Y-3.882
X3.72Y-2.72
X3.722Y-3.498
X3.725Y-2.6
X3.725Y-4.175
X3.73Y-3.04
X3.73Y-4.07
X3.74Y-3.57
X3.74Y-3.61
X3.744Y-3.29
X3.75Y-2.82
X3.75Y-3.98
X3.76Y-2.73
X3.76Y-3.25
X3.766Y-3.756
X3.77Y-3.33
X3.77Y-4.07
X3.774Y-3.464
X3.775Y-4.175
X3.79Y-2.82
X3.79Y-3.98
X3.8Y-2.6
X3.8Y-2.73
X3.8Y-2.96
X3.8Y-3.11
X3.81Y-3.34
X3.81Y-3.64
X3.81Y-4.07
X3.82Y-3.83
X3.825Y-4.175
X3.828Y-3.496
X3.83Y-2.82
X3.83Y-3.08
X3.83Y-3.2
X3.83Y-3.24
X3.83Y-3.97
X3.84Y-2.73
X3.84Y-3.39
X3.84Y-3.54
X3.84Y-3.8
X3.85Y-3.01
X3.85Y-3.34
X3.85Y-4.07
X3.86Y-3.27
X3.86Y-3.94
X3.87Y-2.82
X3.87Y-3.2
X3.875Y-2.6
X3.875Y-2.9
X3.875Y-4.175
X3.88Y-2.73
X3.88Y-3.8
X3.88Y-4.05
X3.888Y-3.024
X3.89Y-3.43
X3.9Y-3.92
X3.91Y-2.82
X3.91Y-4.02
X3.92Y-2.73
X3.92Y-3.63
X3.92Y-3.76
X3.925Y-2.6
X3.93Y-3.31
X3.932Y-3.038
X3.936Y-3.272
X3.938Y-3.346
X3.94Y-3.39
X3.94Y-3.72
X3.94Y-3.92
X3.95Y-2.82
X3.95Y-3.6
X3.95Y-4.01
X3.95Y-4.175
X3.96Y-2.73
X3.96Y-3.08
X3.96Y-3.2
X3.96Y-3.24
X3.97Y-2.94
X3.975Y-2.6
X3.98Y-3.11
X3.98Y-3.7
X3.99Y-2.82
X3.99Y-3.92
X3.99Y-4.01
X4.Y-2.73
X4.Y-3.2
X4.01Y-2.98
X4.01Y-3.36
X4.01Y-3.67
X4.02Y-3.11
X4.02Y-3.32
X4.02Y-3.4
X4.025Y-2.6
X4.025Y-4.175
X4.03Y-2.82
X4.03Y-3.92
X4.032Y-3.212
X4.04Y-2.73
X4.04Y-3.25
X4.04Y-3.29
X4.04Y-3.43
X4.04Y-3.47
X4.04Y-3.51
X4.04Y-3.69
X4.04Y-3.73
X4.04Y-3.77
X4.04Y-3.81
X4.04Y-3.85
X4.04Y-3.89
X4.04Y-4.01
X4.045Y-2.9
X4.06Y-3.11
X4.075Y-2.6
X4.075Y-2.975
X4.075Y-4.175
X4.08Y-2.73
X4.08Y-2.82
X4.09Y-3.13
X4.12Y-2.73
X4.12Y-2.82
X4.12Y-3.16
X4.12Y-3.68
X4.12Y-3.72
X4.12Y-3.76
X4.12Y-3.8
X4.12Y-3.84
X4.12Y-3.88
X4.12Y-3.92
X4.13Y-2.6
X4.13Y-2.66
X4.13Y-2.89
X4.13Y-3.24
X4.13Y-3.28
X4.13Y-3.32
X4.13Y-3.44
X4.13Y-3.48
X4.13Y-3.52
X4.13Y-3.56
X4.13Y-3.6
X4.13Y-3.64
X4.138Y-3.202
X4.14Y-3.4
X4.15Y-3.025
X4.15Y-3.36
X4.15Y-4.175
X4.2Y-2.6
X4.2Y-2.655
X4.2Y-2.9
X4.2Y-2.95
X4.225Y-3.2
X4.225Y-3.475
X4.225Y-3.55
X4.225Y-3.65
X4.225Y-4.175
X4.24Y-3.09
X4.25Y-2.9
X4.25Y-2.95
X4.25Y-3.32
X4.255Y-2.6
X4.255Y-2.655
X4.275Y-4.175
X4.3Y-2.9
X4.3Y-2.95
X4.3Y-3.
X4.3Y-3.05
X4.3Y-3.1
X4.3Y-3.15
X4.3Y-3.2
X4.3Y-3.25
X4.3Y-3.3
X4.3Y-3.35
X4.3Y-3.4
X4.3Y-3.4
X4.3Y-3.4
X4.3Y-3.45
X4.3Y-3.525
X4.3Y-3.575
X4.3Y-3.625
X4.3Y-3.675
X4.3Y-3.725
X4.3Y-3.775
X4.3Y-3.825
X4.3Y-3.875
X4.3Y-3.925
X4.3Y-3.975
X4.3Y-4.025
X4.3Y-4.075
X4.305Y-2.6
X4.305Y-2.655
T2
X2.955Y-3.6447
X2.955Y-3.69
X2.955Y-3.7353
T3
X2.3Y-2.785
X1.74Y-4.02
X1.74Y-3.84
X2.15Y-2.785
X1.74Y-3.66
T4
X2.615Y-3.69
X4.085Y-3.965
T5
X1.86Y-3.095
T6
X2.4918Y-3.5668
X2.4918Y-3.8132
X2.7382Y-3.5668
X2.7382Y-3.8132
X3.9618Y-3.8418
X3.9618Y-4.0882
X4.2082Y-3.8418
X4.2082Y-4.0882
X1.76Y-2.995
X1.76Y-3.195
X1.96Y-2.995
X1.96Y-3.195
T0
M30
