G04 #@! TF.GenerationSoftware,KiCad,Pcbnew,5.0.2-bee76a0~70~ubuntu16.04.1*
G04 #@! TF.CreationDate,2019-02-24T18:58:32-05:00*
G04 #@! TF.ProjectId,chain_v03,63686169-6e5f-4763-9033-2e6b69636164,rev?*
G04 #@! TF.SameCoordinates,Original*
G04 #@! TF.FileFunction,Copper,L2,Bot*
G04 #@! TF.FilePolarity,Positive*
%FSLAX46Y46*%
G04 Gerber Fmt 4.6, Leading zero omitted, Abs format (unit mm)*
G04 Created by KiCad (PCBNEW 5.0.2-bee76a0~70~ubuntu16.04.1) date Sun 24 Feb 2019 06:58:32 PM EST*
%MOMM*%
%LPD*%
G01*
G04 APERTURE LIST*
G04 #@! TA.AperFunction,SMDPad,CuDef*
%ADD10R,5.000000X3.000000*%
G04 #@! TD*
G04 #@! TA.AperFunction,ComponentPad*
%ADD11C,0.600000*%
G04 #@! TD*
G04 #@! TA.AperFunction,ComponentPad*
%ADD12C,1.650000*%
G04 #@! TD*
G04 #@! TA.AperFunction,ComponentPad*
%ADD13C,2.400000*%
G04 #@! TD*
G04 #@! TA.AperFunction,ComponentPad*
%ADD14C,2.250000*%
G04 #@! TD*
G04 #@! TA.AperFunction,ComponentPad*
%ADD15C,1.998980*%
G04 #@! TD*
G04 #@! TA.AperFunction,ViaPad*
%ADD16C,0.685800*%
G04 #@! TD*
G04 #@! TA.AperFunction,Conductor*
%ADD17C,0.457200*%
G04 #@! TD*
G04 #@! TA.AperFunction,Conductor*
%ADD18C,0.152400*%
G04 #@! TD*
G04 APERTURE END LIST*
D10*
G04 #@! TO.P,LO1 Test,4*
G04 #@! TO.N,GND*
X107950000Y-66735000D03*
G04 #@! TO.P,LO1 Test,5*
X107950000Y-74235000D03*
G04 #@! TD*
D11*
G04 #@! TO.P,U12,S2*
G04 #@! TO.N,GND*
X75057000Y-93726000D03*
G04 #@! TO.P,U12,S1*
X75057000Y-94876000D03*
G04 #@! TO.P,U12,S3*
X75057000Y-92576000D03*
G04 #@! TD*
D12*
G04 #@! TO.P,J7,1*
G04 #@! TO.N,Net-(J7-Pad1)*
X103759000Y-100711000D03*
D13*
G04 #@! TO.P,J7,2*
G04 #@! TO.N,GND*
X100629000Y-97581000D03*
G04 #@! TO.P,J7,3*
X106889000Y-97581000D03*
G04 #@! TO.P,J7,4*
X106889000Y-103841000D03*
G04 #@! TO.P,J7,5*
X100629000Y-103841000D03*
G04 #@! TD*
G04 #@! TO.P,J11,5*
G04 #@! TO.N,GND*
X63291000Y-96856000D03*
G04 #@! TO.P,J11,4*
X69551000Y-96856000D03*
G04 #@! TO.P,J11,3*
X69551000Y-90596000D03*
G04 #@! TO.P,J11,2*
X63291000Y-90596000D03*
D12*
G04 #@! TO.P,J11,1*
G04 #@! TO.N,Net-(J11-Pad1)*
X66421000Y-93726000D03*
G04 #@! TD*
D14*
G04 #@! TO.P,U14,1*
G04 #@! TO.N,Net-(U14-Pad1)*
X47244000Y-78613000D03*
D13*
G04 #@! TO.P,U14,2*
G04 #@! TO.N,GND*
X49784000Y-76073000D03*
G04 #@! TO.P,U14,3*
X49784000Y-81153000D03*
G04 #@! TO.P,U14,5*
X44704000Y-81153000D03*
G04 #@! TO.P,U14,4*
X44704000Y-76073000D03*
G04 #@! TD*
D15*
G04 #@! TO.P,V2,1*
G04 #@! TO.N,Net-(J2-Pad1)*
X54610000Y-70739000D03*
G04 #@! TD*
G04 #@! TO.P,V1,1*
G04 #@! TO.N,Net-(J3-Pad1)*
X58420000Y-70739000D03*
G04 #@! TD*
G04 #@! TO.P,Vctrl,1*
G04 #@! TO.N,Net-(J5-Pad1)*
X44196000Y-102108000D03*
G04 #@! TD*
G04 #@! TO.P,Vin,1*
G04 #@! TO.N,Net-(C19-Pad2)*
X44196000Y-92964000D03*
G04 #@! TD*
G04 #@! TO.P,GND,1*
G04 #@! TO.N,GND*
X44196000Y-97536000D03*
G04 #@! TD*
D16*
G04 #@! TO.N,GND*
X109220000Y-73660000D03*
X106680000Y-74930000D03*
X106680000Y-66040000D03*
X109347000Y-67437000D03*
X108077000Y-67437000D03*
X106680000Y-67437000D03*
X106680000Y-73660000D03*
X107950000Y-73660000D03*
X92075000Y-80772000D03*
X93345000Y-80772000D03*
X93345000Y-79502000D03*
X92075000Y-79502000D03*
X92049600Y-94335600D03*
X93345000Y-94361000D03*
X93268800Y-93116400D03*
X92049600Y-93116400D03*
X92049600Y-94335600D03*
X92049600Y-94335600D03*
X60452000Y-100838000D03*
X61468000Y-101092000D03*
X62484000Y-101092000D03*
X63500000Y-101092000D03*
X64516000Y-101092000D03*
X65532000Y-101092000D03*
X66548000Y-101092000D03*
X67564000Y-101092000D03*
X68580000Y-101092000D03*
X69596000Y-101092000D03*
X70612000Y-101092000D03*
X71628000Y-101092000D03*
X72644000Y-101092000D03*
X73660000Y-101092000D03*
X74676000Y-101092000D03*
X75692000Y-101092000D03*
X76708000Y-101092000D03*
X77724000Y-101092000D03*
X78740000Y-101092000D03*
X79756000Y-101092000D03*
X80772000Y-101092000D03*
X81788000Y-101092000D03*
X82804000Y-101092000D03*
X83820000Y-101092000D03*
X84836000Y-101092000D03*
X85852000Y-101092000D03*
X87884000Y-101092000D03*
X88900000Y-101092000D03*
X89916000Y-100838000D03*
X90678000Y-100076000D03*
X91694000Y-99060000D03*
X91948000Y-98298000D03*
X92964000Y-101092000D03*
X93472000Y-100330000D03*
X93980000Y-99568000D03*
X94284800Y-98602800D03*
X94284800Y-97637600D03*
X93980000Y-96774000D03*
X91186000Y-96520000D03*
X88646000Y-95250000D03*
X88392000Y-96266000D03*
X88392000Y-97282000D03*
X86360000Y-98552000D03*
X87630000Y-99822000D03*
X89001600Y-98552000D03*
X89916000Y-92202000D03*
X89154000Y-91440000D03*
X88646000Y-93218000D03*
X87884000Y-92456000D03*
X86868000Y-92456000D03*
X87630000Y-93472000D03*
X86868000Y-93980000D03*
X85598000Y-93980000D03*
X85598000Y-93218000D03*
X83820000Y-92964000D03*
X83820000Y-93980000D03*
X84074000Y-91440000D03*
X83058000Y-91440000D03*
X84582000Y-90678000D03*
X85344000Y-89916000D03*
X86360000Y-89916000D03*
X86868000Y-90678000D03*
X85852000Y-90932000D03*
X101854000Y-93218000D03*
X101092000Y-93980000D03*
X100076000Y-94488000D03*
X100330000Y-91440000D03*
X99568000Y-92202000D03*
X102616000Y-93726000D03*
X102616000Y-94742000D03*
X102616000Y-95758000D03*
X102616000Y-96774000D03*
X102616000Y-97790000D03*
X102616000Y-98806000D03*
X94234000Y-101092000D03*
X95250000Y-101092000D03*
X96266000Y-101092000D03*
X97282000Y-100838000D03*
X98044000Y-100076000D03*
X99060000Y-99568000D03*
X100076000Y-99568000D03*
X101346000Y-99568000D03*
X102362000Y-99568000D03*
X57912000Y-101600000D03*
X58420000Y-102362000D03*
X59182000Y-103124000D03*
X60198000Y-103378000D03*
X61214000Y-103378000D03*
X62230000Y-103378000D03*
X63246000Y-103378000D03*
X64262000Y-103378000D03*
X65278000Y-103378000D03*
X66294000Y-103378000D03*
X67310000Y-103378000D03*
X68326000Y-103378000D03*
X69342000Y-103378000D03*
X70358000Y-103378000D03*
X71374000Y-103378000D03*
X72390000Y-103378000D03*
X73406000Y-103378000D03*
X74422000Y-103378000D03*
X75438000Y-103378000D03*
X76454000Y-103378000D03*
X77470000Y-103378000D03*
X78486000Y-103378000D03*
X79502000Y-103378000D03*
X80518000Y-103378000D03*
X81534000Y-103378000D03*
X82550000Y-103378000D03*
X83566000Y-103378000D03*
X84582000Y-103378000D03*
X85598000Y-103378000D03*
X86614000Y-103378000D03*
X87630000Y-103378000D03*
X88646000Y-103378000D03*
X89662000Y-103378000D03*
X90678000Y-103378000D03*
X91694000Y-103378000D03*
X92710000Y-103378000D03*
X93726000Y-103378000D03*
X94742000Y-103378000D03*
X95758000Y-103378000D03*
X96774000Y-103378000D03*
X97790000Y-103378000D03*
X98552000Y-102870000D03*
X99314000Y-102108000D03*
X100330000Y-101854000D03*
X101346000Y-101854000D03*
X102616000Y-101854000D03*
X104648000Y-99568000D03*
X104648000Y-98552000D03*
X104648000Y-97536000D03*
X104648000Y-96520000D03*
X104648000Y-95504000D03*
X104648000Y-94488000D03*
X104648000Y-93472000D03*
X104902000Y-92456000D03*
X104902000Y-91440000D03*
X104902000Y-90424000D03*
X104902000Y-89408000D03*
X104902000Y-88392000D03*
X104902000Y-87376000D03*
X105156000Y-86360000D03*
X105410000Y-85344000D03*
X104902000Y-84328000D03*
X104902000Y-83312000D03*
X104902000Y-82296000D03*
X105105200Y-81330800D03*
X104648000Y-80264000D03*
X103886000Y-79502000D03*
X103124000Y-78994000D03*
X102108000Y-78994000D03*
X101092000Y-78994000D03*
X100584000Y-78232000D03*
X99872800Y-77165200D03*
X98755200Y-76809600D03*
X97790000Y-76454000D03*
X96520000Y-75184000D03*
X97282000Y-78232000D03*
X96520000Y-78994000D03*
X94742000Y-77216000D03*
X93319600Y-76250800D03*
X91440000Y-77216000D03*
X90982800Y-76403200D03*
X91033600Y-75133200D03*
X91186000Y-74168000D03*
X91186000Y-73152000D03*
X93472000Y-73152000D03*
X93472000Y-74168000D03*
X93421200Y-74980800D03*
X102616000Y-89154000D03*
X102616000Y-88138000D03*
X102616000Y-87122000D03*
X102108000Y-86360000D03*
X101854000Y-85344000D03*
X102108000Y-84328000D03*
X102616000Y-83566000D03*
X102616000Y-82550000D03*
X102412800Y-81584800D03*
X101600000Y-81280000D03*
X100584000Y-81280000D03*
X100584000Y-82296000D03*
X99974400Y-83108800D03*
X99822000Y-84074000D03*
X100025200Y-84988400D03*
X100076000Y-86106000D03*
X98806000Y-87122000D03*
X97536000Y-86106000D03*
X97790000Y-84836000D03*
X96774000Y-84836000D03*
X95758000Y-84582000D03*
X95097600Y-83566000D03*
X95504000Y-82550000D03*
X85090000Y-87223600D03*
X83972400Y-87833200D03*
X86055200Y-87731600D03*
X83820000Y-89154000D03*
X82804000Y-89408000D03*
X82804000Y-93218000D03*
X81788000Y-93726000D03*
X81026000Y-94488000D03*
X80010000Y-94742000D03*
X78994000Y-94742000D03*
X77978000Y-94742000D03*
X76962000Y-94742000D03*
X76708000Y-92710000D03*
X77724000Y-92710000D03*
X78740000Y-92608400D03*
X79756000Y-92456000D03*
X80772000Y-91694000D03*
X80772000Y-90678000D03*
X80772000Y-89408000D03*
X81788000Y-89154000D03*
X92710000Y-85852000D03*
X93980000Y-84836000D03*
X91440000Y-85090000D03*
X90220800Y-82753200D03*
X87630000Y-83566000D03*
X88138000Y-84836000D03*
X85344000Y-84734400D03*
X86360000Y-83820000D03*
X83921600Y-83210400D03*
X80264000Y-80264000D03*
X78994000Y-81280000D03*
X76454000Y-81280000D03*
X75184000Y-80264000D03*
X75184000Y-77978000D03*
X76708000Y-76962000D03*
X78994000Y-76962000D03*
X81280000Y-74930000D03*
X80010000Y-76962000D03*
X78994000Y-75184000D03*
X80010000Y-73152000D03*
X91186000Y-72136000D03*
X93472000Y-72136000D03*
X91186000Y-71120000D03*
X90424000Y-70612000D03*
X89662000Y-69850000D03*
X89154000Y-69088000D03*
X88392000Y-68580000D03*
X87376000Y-68326000D03*
X86360000Y-68326000D03*
X85344000Y-68326000D03*
X84328000Y-68326000D03*
X83312000Y-68326000D03*
X82296000Y-68326000D03*
X81280000Y-68326000D03*
X81280000Y-66040000D03*
X82296000Y-66040000D03*
X83312000Y-66040000D03*
X84328000Y-66040000D03*
X85344000Y-66040000D03*
X86360000Y-66040000D03*
X87376000Y-66040000D03*
X88392000Y-66040000D03*
X89408000Y-66294000D03*
X90170000Y-67056000D03*
X90932000Y-67818000D03*
X91694000Y-68580000D03*
X92456000Y-69088000D03*
X93472000Y-69088000D03*
X94488000Y-69088000D03*
X95504000Y-69342000D03*
X96520000Y-69342000D03*
X97536000Y-69342000D03*
X98552000Y-69342000D03*
X99568000Y-69342000D03*
X100584000Y-69342000D03*
X101600000Y-69342000D03*
X102616000Y-69342000D03*
X103632000Y-69342000D03*
X104648000Y-69342000D03*
X104648000Y-71628000D03*
X103632000Y-71628000D03*
X102362000Y-71628000D03*
X101346000Y-71628000D03*
X100330000Y-71628000D03*
X99314000Y-71628000D03*
X98298000Y-71628000D03*
X97282000Y-71628000D03*
X96266000Y-71628000D03*
X95250000Y-71628000D03*
X94234000Y-71628000D03*
X107950000Y-74930000D03*
X104902000Y-73406000D03*
X104902000Y-67564000D03*
X109347000Y-66040000D03*
X89916000Y-78486000D03*
X87884000Y-78232000D03*
X85344000Y-80264000D03*
X81534000Y-80264000D03*
X84836000Y-81280000D03*
X84074000Y-82042000D03*
X86868000Y-77774800D03*
X85852000Y-77978000D03*
X84836000Y-77978000D03*
X81788000Y-77978000D03*
X80772000Y-77978000D03*
X71120000Y-80264000D03*
X71120000Y-77978000D03*
X70104000Y-77978000D03*
X69088000Y-77825600D03*
X68072000Y-78232000D03*
X67310000Y-77978000D03*
X68580000Y-80772000D03*
X64008000Y-81026000D03*
X65278000Y-81280000D03*
X66548000Y-81280000D03*
X62992000Y-78232000D03*
X60706000Y-80264000D03*
X60960000Y-81280000D03*
X60198000Y-81788000D03*
X61214000Y-84074000D03*
X62230000Y-84074000D03*
X63246000Y-83820000D03*
X61976000Y-77978000D03*
X60960000Y-77978000D03*
X59944000Y-77978000D03*
X58928000Y-77978000D03*
X57912000Y-77978000D03*
X56896000Y-77978000D03*
X56642000Y-80264000D03*
X57658000Y-80264000D03*
X58674000Y-80264000D03*
X59690000Y-80264000D03*
X54864000Y-80518000D03*
X52832000Y-77470000D03*
X51816000Y-77470000D03*
X52832000Y-79756000D03*
X51816000Y-79756000D03*
X48514000Y-100076000D03*
X50292000Y-99060000D03*
X48768000Y-98806000D03*
X43942000Y-86868000D03*
X43180000Y-85852000D03*
X43180000Y-84836000D03*
X46228000Y-86868000D03*
X54102000Y-89154000D03*
X53086000Y-87884000D03*
X53086000Y-90170000D03*
X69088000Y-83058000D03*
X67818000Y-84074000D03*
X54102000Y-84582000D03*
X53086000Y-83566000D03*
X54102000Y-83566000D03*
X87884000Y-76454000D03*
X88900000Y-75438000D03*
X89916000Y-76454000D03*
X97231200Y-88798400D03*
X95859600Y-87985600D03*
X94538800Y-88849200D03*
X90424000Y-89916000D03*
X90932000Y-91186000D03*
X90678000Y-88900000D03*
X95656400Y-95402400D03*
X97536000Y-96520000D03*
X97028000Y-97282000D03*
X99568000Y-95504000D03*
X98552000Y-96520000D03*
X96774000Y-92456000D03*
X97536000Y-89916000D03*
X94996000Y-90678000D03*
X94996000Y-91694000D03*
X78994000Y-90170000D03*
X77774800Y-91287600D03*
X78994000Y-89154000D03*
X81280000Y-87884000D03*
X82600800Y-86918800D03*
X79908400Y-87020400D03*
X73914000Y-87172800D03*
X75641200Y-87985600D03*
X76200000Y-86868000D03*
X58674000Y-83820000D03*
X64516000Y-70612000D03*
X65532000Y-70612000D03*
X66548000Y-70612000D03*
X67564000Y-70612000D03*
X67056000Y-71374000D03*
X66294000Y-71882000D03*
X65532000Y-72390000D03*
X65532000Y-73406000D03*
X64770000Y-72898000D03*
X67056000Y-74422000D03*
X66294000Y-73914000D03*
X67564000Y-75184000D03*
X66548000Y-75184000D03*
X65532000Y-75184000D03*
X64516000Y-75184000D03*
X84582000Y-71882000D03*
X86106000Y-71882000D03*
X84582000Y-73406000D03*
X86106000Y-73406000D03*
X100838000Y-74676000D03*
X107696000Y-78486000D03*
X107950000Y-84328000D03*
X109220000Y-90805000D03*
X109220000Y-100965000D03*
X93421200Y-106045000D03*
X87122000Y-106045000D03*
X78740000Y-106045000D03*
X71628000Y-106045000D03*
X64516000Y-106045000D03*
X57912000Y-106045000D03*
X51435000Y-106045000D03*
X45085000Y-106045000D03*
X75692000Y-98298000D03*
X79756000Y-98552000D03*
X83312000Y-98044000D03*
X66040000Y-87884000D03*
X69850000Y-86868000D03*
X73406000Y-83058000D03*
X76708000Y-82804000D03*
X81026000Y-82296000D03*
X77978000Y-71120000D03*
X73914000Y-71374000D03*
X70866000Y-72136000D03*
X60706000Y-73914000D03*
X44450000Y-67056000D03*
X48514000Y-72644000D03*
X50546000Y-71120000D03*
X58420000Y-87884000D03*
X56134000Y-90424000D03*
X47498000Y-90170000D03*
X50292000Y-90424000D03*
X46482000Y-95250000D03*
X48006000Y-97028000D03*
X46228000Y-100076000D03*
X42164000Y-100330000D03*
X42164000Y-95758000D03*
X41910000Y-90932000D03*
X66294000Y-99314000D03*
X73855580Y-92618560D03*
X74015600Y-94909640D03*
X72925940Y-94932500D03*
X72788780Y-92618560D03*
X71721980Y-92595700D03*
X70678040Y-92572840D03*
X69522340Y-92572840D03*
X68409820Y-92572840D03*
X71790560Y-94955360D03*
X70792340Y-95021400D03*
X69634100Y-94932500D03*
X68546980Y-94932500D03*
X67591940Y-95044260D03*
X67343020Y-92458540D03*
X41910000Y-66040000D03*
X41910000Y-67310000D03*
X41910000Y-68580000D03*
X41910000Y-69850000D03*
X41910000Y-71120000D03*
X41910000Y-72390000D03*
X41910000Y-84455000D03*
X41910000Y-85725000D03*
X41910000Y-86995000D03*
X41910000Y-88265000D03*
X41910000Y-89535000D03*
X41910000Y-92075000D03*
X41910000Y-93345000D03*
X41910000Y-94615000D03*
X41910000Y-97155000D03*
X41910000Y-98425000D03*
X41910000Y-101600000D03*
X41910000Y-102870000D03*
X41910000Y-104140000D03*
X41910000Y-105410000D03*
X42545000Y-106045000D03*
X43815000Y-106045000D03*
X46355000Y-106045000D03*
X46355000Y-106045000D03*
X46355000Y-106045000D03*
X47625000Y-106045000D03*
X48895000Y-106045000D03*
X50165000Y-106045000D03*
X52705000Y-106045000D03*
X53975000Y-106045000D03*
X55245000Y-106045000D03*
X56515000Y-106045000D03*
X59055000Y-106045000D03*
X60325000Y-106045000D03*
X61595000Y-106045000D03*
X62865000Y-106045000D03*
X66040000Y-106045000D03*
X67310000Y-106045000D03*
X68580000Y-106045000D03*
X69850000Y-106045000D03*
X73025000Y-106045000D03*
X74295000Y-106045000D03*
X75565000Y-106045000D03*
X76835000Y-106045000D03*
X80010000Y-106045000D03*
X81280000Y-106045000D03*
X82550000Y-106045000D03*
X83820000Y-106045000D03*
X85090000Y-106045000D03*
X88900000Y-106045000D03*
X90170000Y-106045000D03*
X92075000Y-106045000D03*
X94615000Y-106045000D03*
X95885000Y-106045000D03*
X97155000Y-106045000D03*
X98425000Y-106045000D03*
X100330000Y-106045000D03*
X102235000Y-106045000D03*
X103505000Y-106045000D03*
X105410000Y-106045000D03*
X107315000Y-106045000D03*
X108585000Y-106045000D03*
X109220000Y-103505000D03*
X109220000Y-102235000D03*
X109220000Y-99695000D03*
X109220000Y-98425000D03*
X109220000Y-97155000D03*
X109220000Y-95885000D03*
X109220000Y-94615000D03*
X109220000Y-93345000D03*
X109220000Y-92075000D03*
X109220000Y-89535000D03*
X107315000Y-88265000D03*
X109220000Y-87630000D03*
X109220000Y-86360000D03*
X109220000Y-86360000D03*
X109220000Y-86360000D03*
X109220000Y-83820000D03*
X109220000Y-85090000D03*
X109220000Y-82550000D03*
X109220000Y-81280000D03*
X109220000Y-80010000D03*
X109220000Y-78740000D03*
X109220000Y-77470000D03*
X109220000Y-76200000D03*
X109220000Y-74930000D03*
X102743000Y-73660000D03*
X101854000Y-75692000D03*
X108077000Y-66040000D03*
X104902000Y-66040000D03*
X103505000Y-66040000D03*
X102235000Y-66040000D03*
X100965000Y-66040000D03*
X99695000Y-66040000D03*
X98425000Y-66040000D03*
X96520000Y-66040000D03*
X94615000Y-66040000D03*
X93345000Y-66040000D03*
X91440000Y-66040000D03*
X59690000Y-74930000D03*
X61595000Y-74930000D03*
X43180000Y-66040000D03*
X44450000Y-66040000D03*
X45720000Y-66040000D03*
X46990000Y-66040000D03*
X48260000Y-66040000D03*
X50800000Y-73025000D03*
X71120000Y-74930000D03*
X71120000Y-69850000D03*
X62230000Y-70485000D03*
X56515000Y-82550000D03*
X53340000Y-81915000D03*
X56515000Y-88265000D03*
X54610000Y-92075000D03*
X60960000Y-92710000D03*
X55880000Y-103505000D03*
X107315000Y-92710000D03*
X105410000Y-76835000D03*
X103505000Y-75565000D03*
X98425000Y-73660000D03*
X107315000Y-81280000D03*
X107315000Y-90170000D03*
X97282000Y-82296000D03*
X98044000Y-83058000D03*
X97282000Y-81280000D03*
X98298000Y-81280000D03*
X86995000Y-100965000D03*
G04 #@! TD*
D17*
G04 #@! TO.N,GND*
X69551000Y-90596000D02*
X69551000Y-90469000D01*
G04 #@! TD*
D18*
G04 #@! TO.N,GND*
G36*
X110186401Y-107011400D02*
X40943600Y-107011400D01*
X40943600Y-101863718D01*
X42967910Y-101863718D01*
X42967910Y-102352282D01*
X43154875Y-102803657D01*
X43500343Y-103149125D01*
X43951718Y-103336090D01*
X44440282Y-103336090D01*
X44891657Y-103149125D01*
X45237125Y-102803657D01*
X45424090Y-102352282D01*
X45424090Y-101863718D01*
X45237125Y-101412343D01*
X44891657Y-101066875D01*
X44440282Y-100879910D01*
X43951718Y-100879910D01*
X43500343Y-101066875D01*
X43154875Y-101412343D01*
X42967910Y-101863718D01*
X40943600Y-101863718D01*
X40943600Y-100501426D01*
X102705400Y-100501426D01*
X102705400Y-100920574D01*
X102865801Y-101307816D01*
X103162184Y-101604199D01*
X103549426Y-101764600D01*
X103968574Y-101764600D01*
X104355816Y-101604199D01*
X104652199Y-101307816D01*
X104812600Y-100920574D01*
X104812600Y-100501426D01*
X104652199Y-100114184D01*
X104355816Y-99817801D01*
X103968574Y-99657400D01*
X103549426Y-99657400D01*
X103162184Y-99817801D01*
X102865801Y-100114184D01*
X102705400Y-100501426D01*
X40943600Y-100501426D01*
X40943600Y-92719718D01*
X42967910Y-92719718D01*
X42967910Y-93208282D01*
X43154875Y-93659657D01*
X43500343Y-94005125D01*
X43951718Y-94192090D01*
X44440282Y-94192090D01*
X44891657Y-94005125D01*
X45237125Y-93659657D01*
X45296453Y-93516426D01*
X65367400Y-93516426D01*
X65367400Y-93935574D01*
X65527801Y-94322816D01*
X65824184Y-94619199D01*
X66211426Y-94779600D01*
X66630574Y-94779600D01*
X67017816Y-94619199D01*
X67314199Y-94322816D01*
X67474600Y-93935574D01*
X67474600Y-93516426D01*
X67314199Y-93129184D01*
X67017816Y-92832801D01*
X66630574Y-92672400D01*
X66211426Y-92672400D01*
X65824184Y-92832801D01*
X65527801Y-93129184D01*
X65367400Y-93516426D01*
X45296453Y-93516426D01*
X45424090Y-93208282D01*
X45424090Y-92719718D01*
X45237125Y-92268343D01*
X44891657Y-91922875D01*
X44440282Y-91735910D01*
X43951718Y-91735910D01*
X43500343Y-91922875D01*
X43154875Y-92268343D01*
X42967910Y-92719718D01*
X40943600Y-92719718D01*
X40943600Y-78343752D01*
X45890400Y-78343752D01*
X45890400Y-78882248D01*
X46096473Y-79379753D01*
X46477247Y-79760527D01*
X46974752Y-79966600D01*
X47513248Y-79966600D01*
X48010753Y-79760527D01*
X48391527Y-79379753D01*
X48597600Y-78882248D01*
X48597600Y-78343752D01*
X48391527Y-77846247D01*
X48010753Y-77465473D01*
X47513248Y-77259400D01*
X46974752Y-77259400D01*
X46477247Y-77465473D01*
X46096473Y-77846247D01*
X45890400Y-78343752D01*
X40943600Y-78343752D01*
X40943600Y-70494718D01*
X53381910Y-70494718D01*
X53381910Y-70983282D01*
X53568875Y-71434657D01*
X53914343Y-71780125D01*
X54365718Y-71967090D01*
X54854282Y-71967090D01*
X55305657Y-71780125D01*
X55651125Y-71434657D01*
X55838090Y-70983282D01*
X55838090Y-70494718D01*
X57191910Y-70494718D01*
X57191910Y-70983282D01*
X57378875Y-71434657D01*
X57724343Y-71780125D01*
X58175718Y-71967090D01*
X58664282Y-71967090D01*
X59115657Y-71780125D01*
X59461125Y-71434657D01*
X59648090Y-70983282D01*
X59648090Y-70494718D01*
X59461125Y-70043343D01*
X59115657Y-69697875D01*
X58664282Y-69510910D01*
X58175718Y-69510910D01*
X57724343Y-69697875D01*
X57378875Y-70043343D01*
X57191910Y-70494718D01*
X55838090Y-70494718D01*
X55651125Y-70043343D01*
X55305657Y-69697875D01*
X54854282Y-69510910D01*
X54365718Y-69510910D01*
X53914343Y-69697875D01*
X53568875Y-70043343D01*
X53381910Y-70494718D01*
X40943600Y-70494718D01*
X40943600Y-65073600D01*
X110186400Y-65073600D01*
X110186401Y-107011400D01*
X110186401Y-107011400D01*
G37*
X110186401Y-107011400D02*
X40943600Y-107011400D01*
X40943600Y-101863718D01*
X42967910Y-101863718D01*
X42967910Y-102352282D01*
X43154875Y-102803657D01*
X43500343Y-103149125D01*
X43951718Y-103336090D01*
X44440282Y-103336090D01*
X44891657Y-103149125D01*
X45237125Y-102803657D01*
X45424090Y-102352282D01*
X45424090Y-101863718D01*
X45237125Y-101412343D01*
X44891657Y-101066875D01*
X44440282Y-100879910D01*
X43951718Y-100879910D01*
X43500343Y-101066875D01*
X43154875Y-101412343D01*
X42967910Y-101863718D01*
X40943600Y-101863718D01*
X40943600Y-100501426D01*
X102705400Y-100501426D01*
X102705400Y-100920574D01*
X102865801Y-101307816D01*
X103162184Y-101604199D01*
X103549426Y-101764600D01*
X103968574Y-101764600D01*
X104355816Y-101604199D01*
X104652199Y-101307816D01*
X104812600Y-100920574D01*
X104812600Y-100501426D01*
X104652199Y-100114184D01*
X104355816Y-99817801D01*
X103968574Y-99657400D01*
X103549426Y-99657400D01*
X103162184Y-99817801D01*
X102865801Y-100114184D01*
X102705400Y-100501426D01*
X40943600Y-100501426D01*
X40943600Y-92719718D01*
X42967910Y-92719718D01*
X42967910Y-93208282D01*
X43154875Y-93659657D01*
X43500343Y-94005125D01*
X43951718Y-94192090D01*
X44440282Y-94192090D01*
X44891657Y-94005125D01*
X45237125Y-93659657D01*
X45296453Y-93516426D01*
X65367400Y-93516426D01*
X65367400Y-93935574D01*
X65527801Y-94322816D01*
X65824184Y-94619199D01*
X66211426Y-94779600D01*
X66630574Y-94779600D01*
X67017816Y-94619199D01*
X67314199Y-94322816D01*
X67474600Y-93935574D01*
X67474600Y-93516426D01*
X67314199Y-93129184D01*
X67017816Y-92832801D01*
X66630574Y-92672400D01*
X66211426Y-92672400D01*
X65824184Y-92832801D01*
X65527801Y-93129184D01*
X65367400Y-93516426D01*
X45296453Y-93516426D01*
X45424090Y-93208282D01*
X45424090Y-92719718D01*
X45237125Y-92268343D01*
X44891657Y-91922875D01*
X44440282Y-91735910D01*
X43951718Y-91735910D01*
X43500343Y-91922875D01*
X43154875Y-92268343D01*
X42967910Y-92719718D01*
X40943600Y-92719718D01*
X40943600Y-78343752D01*
X45890400Y-78343752D01*
X45890400Y-78882248D01*
X46096473Y-79379753D01*
X46477247Y-79760527D01*
X46974752Y-79966600D01*
X47513248Y-79966600D01*
X48010753Y-79760527D01*
X48391527Y-79379753D01*
X48597600Y-78882248D01*
X48597600Y-78343752D01*
X48391527Y-77846247D01*
X48010753Y-77465473D01*
X47513248Y-77259400D01*
X46974752Y-77259400D01*
X46477247Y-77465473D01*
X46096473Y-77846247D01*
X45890400Y-78343752D01*
X40943600Y-78343752D01*
X40943600Y-70494718D01*
X53381910Y-70494718D01*
X53381910Y-70983282D01*
X53568875Y-71434657D01*
X53914343Y-71780125D01*
X54365718Y-71967090D01*
X54854282Y-71967090D01*
X55305657Y-71780125D01*
X55651125Y-71434657D01*
X55838090Y-70983282D01*
X55838090Y-70494718D01*
X57191910Y-70494718D01*
X57191910Y-70983282D01*
X57378875Y-71434657D01*
X57724343Y-71780125D01*
X58175718Y-71967090D01*
X58664282Y-71967090D01*
X59115657Y-71780125D01*
X59461125Y-71434657D01*
X59648090Y-70983282D01*
X59648090Y-70494718D01*
X59461125Y-70043343D01*
X59115657Y-69697875D01*
X58664282Y-69510910D01*
X58175718Y-69510910D01*
X57724343Y-69697875D01*
X57378875Y-70043343D01*
X57191910Y-70494718D01*
X55838090Y-70494718D01*
X55651125Y-70043343D01*
X55305657Y-69697875D01*
X54854282Y-69510910D01*
X54365718Y-69510910D01*
X53914343Y-69697875D01*
X53568875Y-70043343D01*
X53381910Y-70494718D01*
X40943600Y-70494718D01*
X40943600Y-65073600D01*
X110186400Y-65073600D01*
X110186401Y-107011400D01*
G04 #@! TD*
M02*
