G04 #@! TF.GenerationSoftware,KiCad,Pcbnew,5.0.2-bee76a0~70~ubuntu16.04.1*
G04 #@! TF.CreationDate,2019-02-24T18:58:32-05:00*
G04 #@! TF.ProjectId,chain_v03,63686169-6e5f-4763-9033-2e6b69636164,rev?*
G04 #@! TF.SameCoordinates,Original*
G04 #@! TF.FileFunction,Legend,Bot*
G04 #@! TF.FilePolarity,Positive*
%FSLAX46Y46*%
G04 Gerber Fmt 4.6, Leading zero omitted, Abs format (unit mm)*
G04 Created by KiCad (PCBNEW 5.0.2-bee76a0~70~ubuntu16.04.1) date Sun 24 Feb 2019 06:58:32 PM EST*
%MOMM*%
%LPD*%
G01*
G04 APERTURE LIST*
%ADD10C,0.300000*%
%ADD11C,0.762000*%
%ADD12C,0.508000*%
G04 APERTURE END LIST*
D10*
X86550900Y-86152111D02*
X86550900Y-84652111D01*
X85693757Y-86152111D01*
X85693757Y-84652111D01*
X84979471Y-86152111D02*
X84979471Y-85152111D01*
X84979471Y-84652111D02*
X85050900Y-84723540D01*
X84979471Y-84794968D01*
X84908042Y-84723540D01*
X84979471Y-84652111D01*
X84979471Y-84794968D01*
X84265185Y-86152111D02*
X84265185Y-84652111D01*
X84122328Y-85580682D02*
X83693757Y-86152111D01*
X83693757Y-85152111D02*
X84265185Y-85723540D01*
X82836614Y-86152111D02*
X82979471Y-86080682D01*
X83050900Y-86009254D01*
X83122328Y-85866397D01*
X83122328Y-85437825D01*
X83050900Y-85294968D01*
X82979471Y-85223540D01*
X82836614Y-85152111D01*
X82622328Y-85152111D01*
X82479471Y-85223540D01*
X82408042Y-85294968D01*
X82336614Y-85437825D01*
X82336614Y-85866397D01*
X82408042Y-86009254D01*
X82479471Y-86080682D01*
X82622328Y-86152111D01*
X82836614Y-86152111D01*
X81479471Y-86152111D02*
X81622328Y-86080682D01*
X81693757Y-85937825D01*
X81693757Y-84652111D01*
X80265185Y-86152111D02*
X80265185Y-85366397D01*
X80336614Y-85223540D01*
X80479471Y-85152111D01*
X80765185Y-85152111D01*
X80908042Y-85223540D01*
X80265185Y-86080682D02*
X80408042Y-86152111D01*
X80765185Y-86152111D01*
X80908042Y-86080682D01*
X80979471Y-85937825D01*
X80979471Y-85794968D01*
X80908042Y-85652111D01*
X80765185Y-85580682D01*
X80408042Y-85580682D01*
X80265185Y-85509254D01*
X77979471Y-84652111D02*
X77979471Y-85723540D01*
X78050900Y-85937825D01*
X78193757Y-86080682D01*
X78408042Y-86152111D01*
X78550900Y-86152111D01*
X76622328Y-86152111D02*
X76622328Y-85366397D01*
X76693757Y-85223540D01*
X76836614Y-85152111D01*
X77122328Y-85152111D01*
X77265185Y-85223540D01*
X76622328Y-86080682D02*
X76765185Y-86152111D01*
X77122328Y-86152111D01*
X77265185Y-86080682D01*
X77336614Y-85937825D01*
X77336614Y-85794968D01*
X77265185Y-85652111D01*
X77122328Y-85580682D01*
X76765185Y-85580682D01*
X76622328Y-85509254D01*
X75908042Y-85152111D02*
X75908042Y-86152111D01*
X75908042Y-85294968D02*
X75836614Y-85223540D01*
X75693757Y-85152111D01*
X75479471Y-85152111D01*
X75336614Y-85223540D01*
X75265185Y-85366397D01*
X75265185Y-86152111D01*
X74550900Y-85152111D02*
X74550900Y-86437825D01*
X74622328Y-86580682D01*
X74765185Y-86652111D01*
X74836614Y-86652111D01*
X74550900Y-84652111D02*
X74622328Y-84723540D01*
X74550900Y-84794968D01*
X74479471Y-84723540D01*
X74550900Y-84652111D01*
X74550900Y-84794968D01*
X73193757Y-85152111D02*
X73193757Y-86152111D01*
X73836614Y-85152111D02*
X73836614Y-85937825D01*
X73765185Y-86080682D01*
X73622328Y-86152111D01*
X73408042Y-86152111D01*
X73265185Y-86080682D01*
X73193757Y-86009254D01*
X72550900Y-86080682D02*
X72408042Y-86152111D01*
X72122328Y-86152111D01*
X71979471Y-86080682D01*
X71908042Y-85937825D01*
X71908042Y-85866397D01*
X71979471Y-85723540D01*
X72122328Y-85652111D01*
X72336614Y-85652111D01*
X72479471Y-85580682D01*
X72550900Y-85437825D01*
X72550900Y-85366397D01*
X72479471Y-85223540D01*
X72336614Y-85152111D01*
X72122328Y-85152111D01*
X71979471Y-85223540D01*
X70693757Y-86080682D02*
X70836614Y-86152111D01*
X71122328Y-86152111D01*
X71265185Y-86080682D01*
X71336614Y-85937825D01*
X71336614Y-85366397D01*
X71265185Y-85223540D01*
X71122328Y-85152111D01*
X70836614Y-85152111D01*
X70693757Y-85223540D01*
X70622328Y-85366397D01*
X70622328Y-85509254D01*
X71336614Y-85652111D01*
X70122328Y-85152111D02*
X69765185Y-86152111D01*
X69408042Y-85152111D01*
X68836614Y-86152111D02*
X68836614Y-85152111D01*
X68836614Y-84652111D02*
X68908042Y-84723540D01*
X68836614Y-84794968D01*
X68765185Y-84723540D01*
X68836614Y-84652111D01*
X68836614Y-84794968D01*
X67479471Y-86080682D02*
X67622328Y-86152111D01*
X67908042Y-86152111D01*
X68050900Y-86080682D01*
X68122328Y-86009254D01*
X68193757Y-85866397D01*
X68193757Y-85437825D01*
X68122328Y-85294968D01*
X68050900Y-85223540D01*
X67908042Y-85152111D01*
X67622328Y-85152111D01*
X67479471Y-85223540D01*
D11*
X84720369Y-78620015D02*
X86413702Y-76200967D01*
X87623226Y-78620015D02*
X87623226Y-73540015D01*
X85687988Y-73540015D01*
X85204179Y-73781920D01*
X84962274Y-74023824D01*
X84720369Y-74507634D01*
X84720369Y-75233348D01*
X84962274Y-75717158D01*
X85204179Y-75959062D01*
X85687988Y-76200967D01*
X87623226Y-76200967D01*
X83027036Y-73540015D02*
X79882274Y-73540015D01*
X81575607Y-75475253D01*
X80849893Y-75475253D01*
X80366083Y-75717158D01*
X80124179Y-75959062D01*
X79882274Y-76442872D01*
X79882274Y-77652396D01*
X80124179Y-78136205D01*
X80366083Y-78378110D01*
X80849893Y-78620015D01*
X82301321Y-78620015D01*
X82785131Y-78378110D01*
X83027036Y-78136205D01*
X74802274Y-78136205D02*
X75044179Y-78378110D01*
X75769893Y-78620015D01*
X76253702Y-78620015D01*
X76979417Y-78378110D01*
X77463226Y-77894300D01*
X77705131Y-77410491D01*
X77947036Y-76442872D01*
X77947036Y-75717158D01*
X77705131Y-74749539D01*
X77463226Y-74265729D01*
X76979417Y-73781920D01*
X76253702Y-73540015D01*
X75769893Y-73540015D01*
X75044179Y-73781920D01*
X74802274Y-74023824D01*
X72867036Y-77168586D02*
X70447988Y-77168586D01*
X73350845Y-78620015D02*
X71657512Y-73540015D01*
X69964179Y-78620015D01*
X68270845Y-78620015D02*
X68270845Y-73540015D01*
X66335607Y-73540015D01*
X65851798Y-73781920D01*
X65609893Y-74023824D01*
X65367988Y-74507634D01*
X65367988Y-75233348D01*
X65609893Y-75717158D01*
X65851798Y-75959062D01*
X66335607Y-76200967D01*
X68270845Y-76200967D01*
D12*
X91541358Y-83135167D02*
X92388024Y-81925643D01*
X92992786Y-83135167D02*
X92992786Y-80595167D01*
X92025167Y-80595167D01*
X91783262Y-80716120D01*
X91662310Y-80837072D01*
X91541358Y-81078977D01*
X91541358Y-81441834D01*
X91662310Y-81683739D01*
X91783262Y-81804691D01*
X92025167Y-81925643D01*
X92992786Y-81925643D01*
X90694691Y-83135167D02*
X89364215Y-81441834D01*
X90694691Y-81441834D02*
X89364215Y-83135167D01*
X85614691Y-81804691D02*
X85251834Y-81925643D01*
X85130881Y-82046596D01*
X85009929Y-82288500D01*
X85009929Y-82651358D01*
X85130881Y-82893262D01*
X85251834Y-83014215D01*
X85493739Y-83135167D01*
X86461358Y-83135167D01*
X86461358Y-80595167D01*
X85614691Y-80595167D01*
X85372786Y-80716120D01*
X85251834Y-80837072D01*
X85130881Y-81078977D01*
X85130881Y-81320881D01*
X85251834Y-81562786D01*
X85372786Y-81683739D01*
X85614691Y-81804691D01*
X86461358Y-81804691D01*
X82832786Y-83135167D02*
X82832786Y-81804691D01*
X82953739Y-81562786D01*
X83195643Y-81441834D01*
X83679453Y-81441834D01*
X83921358Y-81562786D01*
X82832786Y-83014215D02*
X83074691Y-83135167D01*
X83679453Y-83135167D01*
X83921358Y-83014215D01*
X84042310Y-82772310D01*
X84042310Y-82530405D01*
X83921358Y-82288500D01*
X83679453Y-82167548D01*
X83074691Y-82167548D01*
X82832786Y-82046596D01*
X80534691Y-83014215D02*
X80776596Y-83135167D01*
X81260405Y-83135167D01*
X81502310Y-83014215D01*
X81623262Y-82893262D01*
X81744215Y-82651358D01*
X81744215Y-81925643D01*
X81623262Y-81683739D01*
X81502310Y-81562786D01*
X81260405Y-81441834D01*
X80776596Y-81441834D01*
X80534691Y-81562786D01*
X79446120Y-83135167D02*
X79446120Y-80595167D01*
X79204215Y-82167548D02*
X78478500Y-83135167D01*
X78478500Y-81441834D02*
X79446120Y-82409453D01*
X77389929Y-83135167D02*
X77389929Y-80595167D01*
X77389929Y-81562786D02*
X77148024Y-81441834D01*
X76664215Y-81441834D01*
X76422310Y-81562786D01*
X76301358Y-81683739D01*
X76180405Y-81925643D01*
X76180405Y-82651358D01*
X76301358Y-82893262D01*
X76422310Y-83014215D01*
X76664215Y-83135167D01*
X77148024Y-83135167D01*
X77389929Y-83014215D01*
X74728977Y-83135167D02*
X74970881Y-83014215D01*
X75091834Y-82893262D01*
X75212786Y-82651358D01*
X75212786Y-81925643D01*
X75091834Y-81683739D01*
X74970881Y-81562786D01*
X74728977Y-81441834D01*
X74366120Y-81441834D01*
X74124215Y-81562786D01*
X74003262Y-81683739D01*
X73882310Y-81925643D01*
X73882310Y-82651358D01*
X74003262Y-82893262D01*
X74124215Y-83014215D01*
X74366120Y-83135167D01*
X74728977Y-83135167D01*
X72793739Y-81441834D02*
X72793739Y-83135167D01*
X72793739Y-81683739D02*
X72672786Y-81562786D01*
X72430881Y-81441834D01*
X72068024Y-81441834D01*
X71826120Y-81562786D01*
X71705167Y-81804691D01*
X71705167Y-83135167D01*
X69528024Y-83014215D02*
X69769929Y-83135167D01*
X70253739Y-83135167D01*
X70495643Y-83014215D01*
X70616596Y-82772310D01*
X70616596Y-81804691D01*
X70495643Y-81562786D01*
X70253739Y-81441834D01*
X69769929Y-81441834D01*
X69528024Y-81562786D01*
X69407072Y-81804691D01*
X69407072Y-82046596D01*
X70616596Y-82288500D01*
X66625167Y-81441834D02*
X66020405Y-83135167D01*
X65415643Y-81441834D01*
X63964215Y-80595167D02*
X63722310Y-80595167D01*
X63480405Y-80716120D01*
X63359453Y-80837072D01*
X63238500Y-81078977D01*
X63117548Y-81562786D01*
X63117548Y-82167548D01*
X63238500Y-82651358D01*
X63359453Y-82893262D01*
X63480405Y-83014215D01*
X63722310Y-83135167D01*
X63964215Y-83135167D01*
X64206119Y-83014215D01*
X64327072Y-82893262D01*
X64448024Y-82651358D01*
X64568977Y-82167548D01*
X64568977Y-81562786D01*
X64448024Y-81078977D01*
X64327072Y-80837072D01*
X64206119Y-80716120D01*
X63964215Y-80595167D01*
X60698500Y-83135167D02*
X62149929Y-83135167D01*
X61424215Y-83135167D02*
X61424215Y-80595167D01*
X61666119Y-80958024D01*
X61908024Y-81199929D01*
X62149929Y-81320881D01*
M02*
