G04 #@! TF.GenerationSoftware,KiCad,Pcbnew,5.0.2-bee76a0~70~ubuntu18.04.1*
G04 #@! TF.CreationDate,2019-03-07T22:18:03-05:00*
G04 #@! TF.ProjectId,mixer,6d697865-722e-46b6-9963-61645f706362,rev?*
G04 #@! TF.SameCoordinates,Original*
G04 #@! TF.FileFunction,Copper,L1,Top*
G04 #@! TF.FilePolarity,Positive*
%FSLAX46Y46*%
G04 Gerber Fmt 4.6, Leading zero omitted, Abs format (unit mm)*
G04 Created by KiCad (PCBNEW 5.0.2-bee76a0~70~ubuntu18.04.1) date Thu 07 Mar 2019 10:18:03 PM EST*
%MOMM*%
%LPD*%
G01*
G04 APERTURE LIST*
G04 #@! TA.AperFunction,Conductor*
%ADD10C,0.100000*%
G04 #@! TD*
G04 #@! TA.AperFunction,SMDPad,CuDef*
%ADD11C,0.975000*%
G04 #@! TD*
G04 #@! TA.AperFunction,SMDPad,CuDef*
%ADD12R,5.000000X3.000000*%
G04 #@! TD*
G04 #@! TA.AperFunction,SMDPad,CuDef*
%ADD13R,5.000000X2.500000*%
G04 #@! TD*
G04 #@! TA.AperFunction,SMDPad,CuDef*
%ADD14R,3.000000X5.000000*%
G04 #@! TD*
G04 #@! TA.AperFunction,SMDPad,CuDef*
%ADD15R,2.500000X5.000000*%
G04 #@! TD*
G04 #@! TA.AperFunction,ComponentPad*
%ADD16C,1.998980*%
G04 #@! TD*
G04 #@! TA.AperFunction,SMDPad,CuDef*
%ADD17R,1.066800X0.355600*%
G04 #@! TD*
G04 #@! TA.AperFunction,SMDPad,CuDef*
%ADD18R,0.355600X1.066800*%
G04 #@! TD*
G04 #@! TA.AperFunction,SMDPad,CuDef*
%ADD19R,1.955800X1.955800*%
G04 #@! TD*
G04 #@! TA.AperFunction,SMDPad,CuDef*
%ADD20R,1.270000X0.558800*%
G04 #@! TD*
G04 #@! TA.AperFunction,ViaPad*
%ADD21C,0.685800*%
G04 #@! TD*
G04 #@! TA.AperFunction,Conductor*
%ADD22C,1.270000*%
G04 #@! TD*
G04 #@! TA.AperFunction,Conductor*
%ADD23C,0.508000*%
G04 #@! TD*
G04 #@! TA.AperFunction,Conductor*
%ADD24C,0.812800*%
G04 #@! TD*
G04 APERTURE END LIST*
D10*
G04 #@! TO.N,Net-(C1-Pad2)*
G04 #@! TO.C,C1*
G36*
X126662642Y-78295174D02*
X126686303Y-78298684D01*
X126709507Y-78304496D01*
X126732029Y-78312554D01*
X126753653Y-78322782D01*
X126774170Y-78335079D01*
X126793383Y-78349329D01*
X126811107Y-78365393D01*
X126827171Y-78383117D01*
X126841421Y-78402330D01*
X126853718Y-78422847D01*
X126863946Y-78444471D01*
X126872004Y-78466993D01*
X126877816Y-78490197D01*
X126881326Y-78513858D01*
X126882500Y-78537750D01*
X126882500Y-79450250D01*
X126881326Y-79474142D01*
X126877816Y-79497803D01*
X126872004Y-79521007D01*
X126863946Y-79543529D01*
X126853718Y-79565153D01*
X126841421Y-79585670D01*
X126827171Y-79604883D01*
X126811107Y-79622607D01*
X126793383Y-79638671D01*
X126774170Y-79652921D01*
X126753653Y-79665218D01*
X126732029Y-79675446D01*
X126709507Y-79683504D01*
X126686303Y-79689316D01*
X126662642Y-79692826D01*
X126638750Y-79694000D01*
X126151250Y-79694000D01*
X126127358Y-79692826D01*
X126103697Y-79689316D01*
X126080493Y-79683504D01*
X126057971Y-79675446D01*
X126036347Y-79665218D01*
X126015830Y-79652921D01*
X125996617Y-79638671D01*
X125978893Y-79622607D01*
X125962829Y-79604883D01*
X125948579Y-79585670D01*
X125936282Y-79565153D01*
X125926054Y-79543529D01*
X125917996Y-79521007D01*
X125912184Y-79497803D01*
X125908674Y-79474142D01*
X125907500Y-79450250D01*
X125907500Y-78537750D01*
X125908674Y-78513858D01*
X125912184Y-78490197D01*
X125917996Y-78466993D01*
X125926054Y-78444471D01*
X125936282Y-78422847D01*
X125948579Y-78402330D01*
X125962829Y-78383117D01*
X125978893Y-78365393D01*
X125996617Y-78349329D01*
X126015830Y-78335079D01*
X126036347Y-78322782D01*
X126057971Y-78312554D01*
X126080493Y-78304496D01*
X126103697Y-78298684D01*
X126127358Y-78295174D01*
X126151250Y-78294000D01*
X126638750Y-78294000D01*
X126662642Y-78295174D01*
X126662642Y-78295174D01*
G37*
D11*
G04 #@! TD*
G04 #@! TO.P,C1,2*
G04 #@! TO.N,Net-(C1-Pad2)*
X126395000Y-78994000D03*
D10*
G04 #@! TO.N,Net-(C1-Pad1)*
G04 #@! TO.C,C1*
G36*
X128537642Y-78295174D02*
X128561303Y-78298684D01*
X128584507Y-78304496D01*
X128607029Y-78312554D01*
X128628653Y-78322782D01*
X128649170Y-78335079D01*
X128668383Y-78349329D01*
X128686107Y-78365393D01*
X128702171Y-78383117D01*
X128716421Y-78402330D01*
X128728718Y-78422847D01*
X128738946Y-78444471D01*
X128747004Y-78466993D01*
X128752816Y-78490197D01*
X128756326Y-78513858D01*
X128757500Y-78537750D01*
X128757500Y-79450250D01*
X128756326Y-79474142D01*
X128752816Y-79497803D01*
X128747004Y-79521007D01*
X128738946Y-79543529D01*
X128728718Y-79565153D01*
X128716421Y-79585670D01*
X128702171Y-79604883D01*
X128686107Y-79622607D01*
X128668383Y-79638671D01*
X128649170Y-79652921D01*
X128628653Y-79665218D01*
X128607029Y-79675446D01*
X128584507Y-79683504D01*
X128561303Y-79689316D01*
X128537642Y-79692826D01*
X128513750Y-79694000D01*
X128026250Y-79694000D01*
X128002358Y-79692826D01*
X127978697Y-79689316D01*
X127955493Y-79683504D01*
X127932971Y-79675446D01*
X127911347Y-79665218D01*
X127890830Y-79652921D01*
X127871617Y-79638671D01*
X127853893Y-79622607D01*
X127837829Y-79604883D01*
X127823579Y-79585670D01*
X127811282Y-79565153D01*
X127801054Y-79543529D01*
X127792996Y-79521007D01*
X127787184Y-79497803D01*
X127783674Y-79474142D01*
X127782500Y-79450250D01*
X127782500Y-78537750D01*
X127783674Y-78513858D01*
X127787184Y-78490197D01*
X127792996Y-78466993D01*
X127801054Y-78444471D01*
X127811282Y-78422847D01*
X127823579Y-78402330D01*
X127837829Y-78383117D01*
X127853893Y-78365393D01*
X127871617Y-78349329D01*
X127890830Y-78335079D01*
X127911347Y-78322782D01*
X127932971Y-78312554D01*
X127955493Y-78304496D01*
X127978697Y-78298684D01*
X128002358Y-78295174D01*
X128026250Y-78294000D01*
X128513750Y-78294000D01*
X128537642Y-78295174D01*
X128537642Y-78295174D01*
G37*
D11*
G04 #@! TD*
G04 #@! TO.P,C1,1*
G04 #@! TO.N,Net-(C1-Pad1)*
X128270000Y-78994000D03*
D10*
G04 #@! TO.N,GND*
G04 #@! TO.C,C2*
G36*
X131290142Y-83938674D02*
X131313803Y-83942184D01*
X131337007Y-83947996D01*
X131359529Y-83956054D01*
X131381153Y-83966282D01*
X131401670Y-83978579D01*
X131420883Y-83992829D01*
X131438607Y-84008893D01*
X131454671Y-84026617D01*
X131468921Y-84045830D01*
X131481218Y-84066347D01*
X131491446Y-84087971D01*
X131499504Y-84110493D01*
X131505316Y-84133697D01*
X131508826Y-84157358D01*
X131510000Y-84181250D01*
X131510000Y-84668750D01*
X131508826Y-84692642D01*
X131505316Y-84716303D01*
X131499504Y-84739507D01*
X131491446Y-84762029D01*
X131481218Y-84783653D01*
X131468921Y-84804170D01*
X131454671Y-84823383D01*
X131438607Y-84841107D01*
X131420883Y-84857171D01*
X131401670Y-84871421D01*
X131381153Y-84883718D01*
X131359529Y-84893946D01*
X131337007Y-84902004D01*
X131313803Y-84907816D01*
X131290142Y-84911326D01*
X131266250Y-84912500D01*
X130353750Y-84912500D01*
X130329858Y-84911326D01*
X130306197Y-84907816D01*
X130282993Y-84902004D01*
X130260471Y-84893946D01*
X130238847Y-84883718D01*
X130218330Y-84871421D01*
X130199117Y-84857171D01*
X130181393Y-84841107D01*
X130165329Y-84823383D01*
X130151079Y-84804170D01*
X130138782Y-84783653D01*
X130128554Y-84762029D01*
X130120496Y-84739507D01*
X130114684Y-84716303D01*
X130111174Y-84692642D01*
X130110000Y-84668750D01*
X130110000Y-84181250D01*
X130111174Y-84157358D01*
X130114684Y-84133697D01*
X130120496Y-84110493D01*
X130128554Y-84087971D01*
X130138782Y-84066347D01*
X130151079Y-84045830D01*
X130165329Y-84026617D01*
X130181393Y-84008893D01*
X130199117Y-83992829D01*
X130218330Y-83978579D01*
X130238847Y-83966282D01*
X130260471Y-83956054D01*
X130282993Y-83947996D01*
X130306197Y-83942184D01*
X130329858Y-83938674D01*
X130353750Y-83937500D01*
X131266250Y-83937500D01*
X131290142Y-83938674D01*
X131290142Y-83938674D01*
G37*
D11*
G04 #@! TD*
G04 #@! TO.P,C2,1*
G04 #@! TO.N,GND*
X130810000Y-84425000D03*
D10*
G04 #@! TO.N,Net-(C2-Pad2)*
G04 #@! TO.C,C2*
G36*
X131290142Y-82063674D02*
X131313803Y-82067184D01*
X131337007Y-82072996D01*
X131359529Y-82081054D01*
X131381153Y-82091282D01*
X131401670Y-82103579D01*
X131420883Y-82117829D01*
X131438607Y-82133893D01*
X131454671Y-82151617D01*
X131468921Y-82170830D01*
X131481218Y-82191347D01*
X131491446Y-82212971D01*
X131499504Y-82235493D01*
X131505316Y-82258697D01*
X131508826Y-82282358D01*
X131510000Y-82306250D01*
X131510000Y-82793750D01*
X131508826Y-82817642D01*
X131505316Y-82841303D01*
X131499504Y-82864507D01*
X131491446Y-82887029D01*
X131481218Y-82908653D01*
X131468921Y-82929170D01*
X131454671Y-82948383D01*
X131438607Y-82966107D01*
X131420883Y-82982171D01*
X131401670Y-82996421D01*
X131381153Y-83008718D01*
X131359529Y-83018946D01*
X131337007Y-83027004D01*
X131313803Y-83032816D01*
X131290142Y-83036326D01*
X131266250Y-83037500D01*
X130353750Y-83037500D01*
X130329858Y-83036326D01*
X130306197Y-83032816D01*
X130282993Y-83027004D01*
X130260471Y-83018946D01*
X130238847Y-83008718D01*
X130218330Y-82996421D01*
X130199117Y-82982171D01*
X130181393Y-82966107D01*
X130165329Y-82948383D01*
X130151079Y-82929170D01*
X130138782Y-82908653D01*
X130128554Y-82887029D01*
X130120496Y-82864507D01*
X130114684Y-82841303D01*
X130111174Y-82817642D01*
X130110000Y-82793750D01*
X130110000Y-82306250D01*
X130111174Y-82282358D01*
X130114684Y-82258697D01*
X130120496Y-82235493D01*
X130128554Y-82212971D01*
X130138782Y-82191347D01*
X130151079Y-82170830D01*
X130165329Y-82151617D01*
X130181393Y-82133893D01*
X130199117Y-82117829D01*
X130218330Y-82103579D01*
X130238847Y-82091282D01*
X130260471Y-82081054D01*
X130282993Y-82072996D01*
X130306197Y-82067184D01*
X130329858Y-82063674D01*
X130353750Y-82062500D01*
X131266250Y-82062500D01*
X131290142Y-82063674D01*
X131290142Y-82063674D01*
G37*
D11*
G04 #@! TD*
G04 #@! TO.P,C2,2*
G04 #@! TO.N,Net-(C2-Pad2)*
X130810000Y-82550000D03*
D10*
G04 #@! TO.N,GND*
G04 #@! TO.C,C3*
G36*
X139967642Y-74231174D02*
X139991303Y-74234684D01*
X140014507Y-74240496D01*
X140037029Y-74248554D01*
X140058653Y-74258782D01*
X140079170Y-74271079D01*
X140098383Y-74285329D01*
X140116107Y-74301393D01*
X140132171Y-74319117D01*
X140146421Y-74338330D01*
X140158718Y-74358847D01*
X140168946Y-74380471D01*
X140177004Y-74402993D01*
X140182816Y-74426197D01*
X140186326Y-74449858D01*
X140187500Y-74473750D01*
X140187500Y-75386250D01*
X140186326Y-75410142D01*
X140182816Y-75433803D01*
X140177004Y-75457007D01*
X140168946Y-75479529D01*
X140158718Y-75501153D01*
X140146421Y-75521670D01*
X140132171Y-75540883D01*
X140116107Y-75558607D01*
X140098383Y-75574671D01*
X140079170Y-75588921D01*
X140058653Y-75601218D01*
X140037029Y-75611446D01*
X140014507Y-75619504D01*
X139991303Y-75625316D01*
X139967642Y-75628826D01*
X139943750Y-75630000D01*
X139456250Y-75630000D01*
X139432358Y-75628826D01*
X139408697Y-75625316D01*
X139385493Y-75619504D01*
X139362971Y-75611446D01*
X139341347Y-75601218D01*
X139320830Y-75588921D01*
X139301617Y-75574671D01*
X139283893Y-75558607D01*
X139267829Y-75540883D01*
X139253579Y-75521670D01*
X139241282Y-75501153D01*
X139231054Y-75479529D01*
X139222996Y-75457007D01*
X139217184Y-75433803D01*
X139213674Y-75410142D01*
X139212500Y-75386250D01*
X139212500Y-74473750D01*
X139213674Y-74449858D01*
X139217184Y-74426197D01*
X139222996Y-74402993D01*
X139231054Y-74380471D01*
X139241282Y-74358847D01*
X139253579Y-74338330D01*
X139267829Y-74319117D01*
X139283893Y-74301393D01*
X139301617Y-74285329D01*
X139320830Y-74271079D01*
X139341347Y-74258782D01*
X139362971Y-74248554D01*
X139385493Y-74240496D01*
X139408697Y-74234684D01*
X139432358Y-74231174D01*
X139456250Y-74230000D01*
X139943750Y-74230000D01*
X139967642Y-74231174D01*
X139967642Y-74231174D01*
G37*
D11*
G04 #@! TD*
G04 #@! TO.P,C3,1*
G04 #@! TO.N,GND*
X139700000Y-74930000D03*
D10*
G04 #@! TO.N,Net-(C3-Pad2)*
G04 #@! TO.C,C3*
G36*
X138092642Y-74231174D02*
X138116303Y-74234684D01*
X138139507Y-74240496D01*
X138162029Y-74248554D01*
X138183653Y-74258782D01*
X138204170Y-74271079D01*
X138223383Y-74285329D01*
X138241107Y-74301393D01*
X138257171Y-74319117D01*
X138271421Y-74338330D01*
X138283718Y-74358847D01*
X138293946Y-74380471D01*
X138302004Y-74402993D01*
X138307816Y-74426197D01*
X138311326Y-74449858D01*
X138312500Y-74473750D01*
X138312500Y-75386250D01*
X138311326Y-75410142D01*
X138307816Y-75433803D01*
X138302004Y-75457007D01*
X138293946Y-75479529D01*
X138283718Y-75501153D01*
X138271421Y-75521670D01*
X138257171Y-75540883D01*
X138241107Y-75558607D01*
X138223383Y-75574671D01*
X138204170Y-75588921D01*
X138183653Y-75601218D01*
X138162029Y-75611446D01*
X138139507Y-75619504D01*
X138116303Y-75625316D01*
X138092642Y-75628826D01*
X138068750Y-75630000D01*
X137581250Y-75630000D01*
X137557358Y-75628826D01*
X137533697Y-75625316D01*
X137510493Y-75619504D01*
X137487971Y-75611446D01*
X137466347Y-75601218D01*
X137445830Y-75588921D01*
X137426617Y-75574671D01*
X137408893Y-75558607D01*
X137392829Y-75540883D01*
X137378579Y-75521670D01*
X137366282Y-75501153D01*
X137356054Y-75479529D01*
X137347996Y-75457007D01*
X137342184Y-75433803D01*
X137338674Y-75410142D01*
X137337500Y-75386250D01*
X137337500Y-74473750D01*
X137338674Y-74449858D01*
X137342184Y-74426197D01*
X137347996Y-74402993D01*
X137356054Y-74380471D01*
X137366282Y-74358847D01*
X137378579Y-74338330D01*
X137392829Y-74319117D01*
X137408893Y-74301393D01*
X137426617Y-74285329D01*
X137445830Y-74271079D01*
X137466347Y-74258782D01*
X137487971Y-74248554D01*
X137510493Y-74240496D01*
X137533697Y-74234684D01*
X137557358Y-74231174D01*
X137581250Y-74230000D01*
X138068750Y-74230000D01*
X138092642Y-74231174D01*
X138092642Y-74231174D01*
G37*
D11*
G04 #@! TD*
G04 #@! TO.P,C3,2*
G04 #@! TO.N,Net-(C3-Pad2)*
X137825000Y-74930000D03*
D10*
G04 #@! TO.N,GND*
G04 #@! TO.C,C4*
G36*
X143990142Y-88794674D02*
X144013803Y-88798184D01*
X144037007Y-88803996D01*
X144059529Y-88812054D01*
X144081153Y-88822282D01*
X144101670Y-88834579D01*
X144120883Y-88848829D01*
X144138607Y-88864893D01*
X144154671Y-88882617D01*
X144168921Y-88901830D01*
X144181218Y-88922347D01*
X144191446Y-88943971D01*
X144199504Y-88966493D01*
X144205316Y-88989697D01*
X144208826Y-89013358D01*
X144210000Y-89037250D01*
X144210000Y-89524750D01*
X144208826Y-89548642D01*
X144205316Y-89572303D01*
X144199504Y-89595507D01*
X144191446Y-89618029D01*
X144181218Y-89639653D01*
X144168921Y-89660170D01*
X144154671Y-89679383D01*
X144138607Y-89697107D01*
X144120883Y-89713171D01*
X144101670Y-89727421D01*
X144081153Y-89739718D01*
X144059529Y-89749946D01*
X144037007Y-89758004D01*
X144013803Y-89763816D01*
X143990142Y-89767326D01*
X143966250Y-89768500D01*
X143053750Y-89768500D01*
X143029858Y-89767326D01*
X143006197Y-89763816D01*
X142982993Y-89758004D01*
X142960471Y-89749946D01*
X142938847Y-89739718D01*
X142918330Y-89727421D01*
X142899117Y-89713171D01*
X142881393Y-89697107D01*
X142865329Y-89679383D01*
X142851079Y-89660170D01*
X142838782Y-89639653D01*
X142828554Y-89618029D01*
X142820496Y-89595507D01*
X142814684Y-89572303D01*
X142811174Y-89548642D01*
X142810000Y-89524750D01*
X142810000Y-89037250D01*
X142811174Y-89013358D01*
X142814684Y-88989697D01*
X142820496Y-88966493D01*
X142828554Y-88943971D01*
X142838782Y-88922347D01*
X142851079Y-88901830D01*
X142865329Y-88882617D01*
X142881393Y-88864893D01*
X142899117Y-88848829D01*
X142918330Y-88834579D01*
X142938847Y-88822282D01*
X142960471Y-88812054D01*
X142982993Y-88803996D01*
X143006197Y-88798184D01*
X143029858Y-88794674D01*
X143053750Y-88793500D01*
X143966250Y-88793500D01*
X143990142Y-88794674D01*
X143990142Y-88794674D01*
G37*
D11*
G04 #@! TD*
G04 #@! TO.P,C4,2*
G04 #@! TO.N,GND*
X143510000Y-89281000D03*
D10*
G04 #@! TO.N,+5V*
G04 #@! TO.C,C4*
G36*
X143990142Y-86919674D02*
X144013803Y-86923184D01*
X144037007Y-86928996D01*
X144059529Y-86937054D01*
X144081153Y-86947282D01*
X144101670Y-86959579D01*
X144120883Y-86973829D01*
X144138607Y-86989893D01*
X144154671Y-87007617D01*
X144168921Y-87026830D01*
X144181218Y-87047347D01*
X144191446Y-87068971D01*
X144199504Y-87091493D01*
X144205316Y-87114697D01*
X144208826Y-87138358D01*
X144210000Y-87162250D01*
X144210000Y-87649750D01*
X144208826Y-87673642D01*
X144205316Y-87697303D01*
X144199504Y-87720507D01*
X144191446Y-87743029D01*
X144181218Y-87764653D01*
X144168921Y-87785170D01*
X144154671Y-87804383D01*
X144138607Y-87822107D01*
X144120883Y-87838171D01*
X144101670Y-87852421D01*
X144081153Y-87864718D01*
X144059529Y-87874946D01*
X144037007Y-87883004D01*
X144013803Y-87888816D01*
X143990142Y-87892326D01*
X143966250Y-87893500D01*
X143053750Y-87893500D01*
X143029858Y-87892326D01*
X143006197Y-87888816D01*
X142982993Y-87883004D01*
X142960471Y-87874946D01*
X142938847Y-87864718D01*
X142918330Y-87852421D01*
X142899117Y-87838171D01*
X142881393Y-87822107D01*
X142865329Y-87804383D01*
X142851079Y-87785170D01*
X142838782Y-87764653D01*
X142828554Y-87743029D01*
X142820496Y-87720507D01*
X142814684Y-87697303D01*
X142811174Y-87673642D01*
X142810000Y-87649750D01*
X142810000Y-87162250D01*
X142811174Y-87138358D01*
X142814684Y-87114697D01*
X142820496Y-87091493D01*
X142828554Y-87068971D01*
X142838782Y-87047347D01*
X142851079Y-87026830D01*
X142865329Y-87007617D01*
X142881393Y-86989893D01*
X142899117Y-86973829D01*
X142918330Y-86959579D01*
X142938847Y-86947282D01*
X142960471Y-86937054D01*
X142982993Y-86928996D01*
X143006197Y-86923184D01*
X143029858Y-86919674D01*
X143053750Y-86918500D01*
X143966250Y-86918500D01*
X143990142Y-86919674D01*
X143990142Y-86919674D01*
G37*
D11*
G04 #@! TD*
G04 #@! TO.P,C4,1*
G04 #@! TO.N,+5V*
X143510000Y-87406000D03*
D10*
G04 #@! TO.N,Net-(C5-Pad2)*
G04 #@! TO.C,C5*
G36*
X135100142Y-75713674D02*
X135123803Y-75717184D01*
X135147007Y-75722996D01*
X135169529Y-75731054D01*
X135191153Y-75741282D01*
X135211670Y-75753579D01*
X135230883Y-75767829D01*
X135248607Y-75783893D01*
X135264671Y-75801617D01*
X135278921Y-75820830D01*
X135291218Y-75841347D01*
X135301446Y-75862971D01*
X135309504Y-75885493D01*
X135315316Y-75908697D01*
X135318826Y-75932358D01*
X135320000Y-75956250D01*
X135320000Y-76443750D01*
X135318826Y-76467642D01*
X135315316Y-76491303D01*
X135309504Y-76514507D01*
X135301446Y-76537029D01*
X135291218Y-76558653D01*
X135278921Y-76579170D01*
X135264671Y-76598383D01*
X135248607Y-76616107D01*
X135230883Y-76632171D01*
X135211670Y-76646421D01*
X135191153Y-76658718D01*
X135169529Y-76668946D01*
X135147007Y-76677004D01*
X135123803Y-76682816D01*
X135100142Y-76686326D01*
X135076250Y-76687500D01*
X134163750Y-76687500D01*
X134139858Y-76686326D01*
X134116197Y-76682816D01*
X134092993Y-76677004D01*
X134070471Y-76668946D01*
X134048847Y-76658718D01*
X134028330Y-76646421D01*
X134009117Y-76632171D01*
X133991393Y-76616107D01*
X133975329Y-76598383D01*
X133961079Y-76579170D01*
X133948782Y-76558653D01*
X133938554Y-76537029D01*
X133930496Y-76514507D01*
X133924684Y-76491303D01*
X133921174Y-76467642D01*
X133920000Y-76443750D01*
X133920000Y-75956250D01*
X133921174Y-75932358D01*
X133924684Y-75908697D01*
X133930496Y-75885493D01*
X133938554Y-75862971D01*
X133948782Y-75841347D01*
X133961079Y-75820830D01*
X133975329Y-75801617D01*
X133991393Y-75783893D01*
X134009117Y-75767829D01*
X134028330Y-75753579D01*
X134048847Y-75741282D01*
X134070471Y-75731054D01*
X134092993Y-75722996D01*
X134116197Y-75717184D01*
X134139858Y-75713674D01*
X134163750Y-75712500D01*
X135076250Y-75712500D01*
X135100142Y-75713674D01*
X135100142Y-75713674D01*
G37*
D11*
G04 #@! TD*
G04 #@! TO.P,C5,2*
G04 #@! TO.N,Net-(C5-Pad2)*
X134620000Y-76200000D03*
D10*
G04 #@! TO.N,Net-(C5-Pad1)*
G04 #@! TO.C,C5*
G36*
X135100142Y-73838674D02*
X135123803Y-73842184D01*
X135147007Y-73847996D01*
X135169529Y-73856054D01*
X135191153Y-73866282D01*
X135211670Y-73878579D01*
X135230883Y-73892829D01*
X135248607Y-73908893D01*
X135264671Y-73926617D01*
X135278921Y-73945830D01*
X135291218Y-73966347D01*
X135301446Y-73987971D01*
X135309504Y-74010493D01*
X135315316Y-74033697D01*
X135318826Y-74057358D01*
X135320000Y-74081250D01*
X135320000Y-74568750D01*
X135318826Y-74592642D01*
X135315316Y-74616303D01*
X135309504Y-74639507D01*
X135301446Y-74662029D01*
X135291218Y-74683653D01*
X135278921Y-74704170D01*
X135264671Y-74723383D01*
X135248607Y-74741107D01*
X135230883Y-74757171D01*
X135211670Y-74771421D01*
X135191153Y-74783718D01*
X135169529Y-74793946D01*
X135147007Y-74802004D01*
X135123803Y-74807816D01*
X135100142Y-74811326D01*
X135076250Y-74812500D01*
X134163750Y-74812500D01*
X134139858Y-74811326D01*
X134116197Y-74807816D01*
X134092993Y-74802004D01*
X134070471Y-74793946D01*
X134048847Y-74783718D01*
X134028330Y-74771421D01*
X134009117Y-74757171D01*
X133991393Y-74741107D01*
X133975329Y-74723383D01*
X133961079Y-74704170D01*
X133948782Y-74683653D01*
X133938554Y-74662029D01*
X133930496Y-74639507D01*
X133924684Y-74616303D01*
X133921174Y-74592642D01*
X133920000Y-74568750D01*
X133920000Y-74081250D01*
X133921174Y-74057358D01*
X133924684Y-74033697D01*
X133930496Y-74010493D01*
X133938554Y-73987971D01*
X133948782Y-73966347D01*
X133961079Y-73945830D01*
X133975329Y-73926617D01*
X133991393Y-73908893D01*
X134009117Y-73892829D01*
X134028330Y-73878579D01*
X134048847Y-73866282D01*
X134070471Y-73856054D01*
X134092993Y-73847996D01*
X134116197Y-73842184D01*
X134139858Y-73838674D01*
X134163750Y-73837500D01*
X135076250Y-73837500D01*
X135100142Y-73838674D01*
X135100142Y-73838674D01*
G37*
D11*
G04 #@! TD*
G04 #@! TO.P,C5,1*
G04 #@! TO.N,Net-(C5-Pad1)*
X134620000Y-74325000D03*
D10*
G04 #@! TO.N,+5V*
G04 #@! TO.C,C6*
G36*
X140815142Y-86919674D02*
X140838803Y-86923184D01*
X140862007Y-86928996D01*
X140884529Y-86937054D01*
X140906153Y-86947282D01*
X140926670Y-86959579D01*
X140945883Y-86973829D01*
X140963607Y-86989893D01*
X140979671Y-87007617D01*
X140993921Y-87026830D01*
X141006218Y-87047347D01*
X141016446Y-87068971D01*
X141024504Y-87091493D01*
X141030316Y-87114697D01*
X141033826Y-87138358D01*
X141035000Y-87162250D01*
X141035000Y-87649750D01*
X141033826Y-87673642D01*
X141030316Y-87697303D01*
X141024504Y-87720507D01*
X141016446Y-87743029D01*
X141006218Y-87764653D01*
X140993921Y-87785170D01*
X140979671Y-87804383D01*
X140963607Y-87822107D01*
X140945883Y-87838171D01*
X140926670Y-87852421D01*
X140906153Y-87864718D01*
X140884529Y-87874946D01*
X140862007Y-87883004D01*
X140838803Y-87888816D01*
X140815142Y-87892326D01*
X140791250Y-87893500D01*
X139878750Y-87893500D01*
X139854858Y-87892326D01*
X139831197Y-87888816D01*
X139807993Y-87883004D01*
X139785471Y-87874946D01*
X139763847Y-87864718D01*
X139743330Y-87852421D01*
X139724117Y-87838171D01*
X139706393Y-87822107D01*
X139690329Y-87804383D01*
X139676079Y-87785170D01*
X139663782Y-87764653D01*
X139653554Y-87743029D01*
X139645496Y-87720507D01*
X139639684Y-87697303D01*
X139636174Y-87673642D01*
X139635000Y-87649750D01*
X139635000Y-87162250D01*
X139636174Y-87138358D01*
X139639684Y-87114697D01*
X139645496Y-87091493D01*
X139653554Y-87068971D01*
X139663782Y-87047347D01*
X139676079Y-87026830D01*
X139690329Y-87007617D01*
X139706393Y-86989893D01*
X139724117Y-86973829D01*
X139743330Y-86959579D01*
X139763847Y-86947282D01*
X139785471Y-86937054D01*
X139807993Y-86928996D01*
X139831197Y-86923184D01*
X139854858Y-86919674D01*
X139878750Y-86918500D01*
X140791250Y-86918500D01*
X140815142Y-86919674D01*
X140815142Y-86919674D01*
G37*
D11*
G04 #@! TD*
G04 #@! TO.P,C6,1*
G04 #@! TO.N,+5V*
X140335000Y-87406000D03*
D10*
G04 #@! TO.N,GND*
G04 #@! TO.C,C6*
G36*
X140815142Y-88794674D02*
X140838803Y-88798184D01*
X140862007Y-88803996D01*
X140884529Y-88812054D01*
X140906153Y-88822282D01*
X140926670Y-88834579D01*
X140945883Y-88848829D01*
X140963607Y-88864893D01*
X140979671Y-88882617D01*
X140993921Y-88901830D01*
X141006218Y-88922347D01*
X141016446Y-88943971D01*
X141024504Y-88966493D01*
X141030316Y-88989697D01*
X141033826Y-89013358D01*
X141035000Y-89037250D01*
X141035000Y-89524750D01*
X141033826Y-89548642D01*
X141030316Y-89572303D01*
X141024504Y-89595507D01*
X141016446Y-89618029D01*
X141006218Y-89639653D01*
X140993921Y-89660170D01*
X140979671Y-89679383D01*
X140963607Y-89697107D01*
X140945883Y-89713171D01*
X140926670Y-89727421D01*
X140906153Y-89739718D01*
X140884529Y-89749946D01*
X140862007Y-89758004D01*
X140838803Y-89763816D01*
X140815142Y-89767326D01*
X140791250Y-89768500D01*
X139878750Y-89768500D01*
X139854858Y-89767326D01*
X139831197Y-89763816D01*
X139807993Y-89758004D01*
X139785471Y-89749946D01*
X139763847Y-89739718D01*
X139743330Y-89727421D01*
X139724117Y-89713171D01*
X139706393Y-89697107D01*
X139690329Y-89679383D01*
X139676079Y-89660170D01*
X139663782Y-89639653D01*
X139653554Y-89618029D01*
X139645496Y-89595507D01*
X139639684Y-89572303D01*
X139636174Y-89548642D01*
X139635000Y-89524750D01*
X139635000Y-89037250D01*
X139636174Y-89013358D01*
X139639684Y-88989697D01*
X139645496Y-88966493D01*
X139653554Y-88943971D01*
X139663782Y-88922347D01*
X139676079Y-88901830D01*
X139690329Y-88882617D01*
X139706393Y-88864893D01*
X139724117Y-88848829D01*
X139743330Y-88834579D01*
X139763847Y-88822282D01*
X139785471Y-88812054D01*
X139807993Y-88803996D01*
X139831197Y-88798184D01*
X139854858Y-88794674D01*
X139878750Y-88793500D01*
X140791250Y-88793500D01*
X140815142Y-88794674D01*
X140815142Y-88794674D01*
G37*
D11*
G04 #@! TD*
G04 #@! TO.P,C6,2*
G04 #@! TO.N,GND*
X140335000Y-89281000D03*
D10*
G04 #@! TO.N,GND*
G04 #@! TO.C,C7*
G36*
X141902642Y-76263174D02*
X141926303Y-76266684D01*
X141949507Y-76272496D01*
X141972029Y-76280554D01*
X141993653Y-76290782D01*
X142014170Y-76303079D01*
X142033383Y-76317329D01*
X142051107Y-76333393D01*
X142067171Y-76351117D01*
X142081421Y-76370330D01*
X142093718Y-76390847D01*
X142103946Y-76412471D01*
X142112004Y-76434993D01*
X142117816Y-76458197D01*
X142121326Y-76481858D01*
X142122500Y-76505750D01*
X142122500Y-77418250D01*
X142121326Y-77442142D01*
X142117816Y-77465803D01*
X142112004Y-77489007D01*
X142103946Y-77511529D01*
X142093718Y-77533153D01*
X142081421Y-77553670D01*
X142067171Y-77572883D01*
X142051107Y-77590607D01*
X142033383Y-77606671D01*
X142014170Y-77620921D01*
X141993653Y-77633218D01*
X141972029Y-77643446D01*
X141949507Y-77651504D01*
X141926303Y-77657316D01*
X141902642Y-77660826D01*
X141878750Y-77662000D01*
X141391250Y-77662000D01*
X141367358Y-77660826D01*
X141343697Y-77657316D01*
X141320493Y-77651504D01*
X141297971Y-77643446D01*
X141276347Y-77633218D01*
X141255830Y-77620921D01*
X141236617Y-77606671D01*
X141218893Y-77590607D01*
X141202829Y-77572883D01*
X141188579Y-77553670D01*
X141176282Y-77533153D01*
X141166054Y-77511529D01*
X141157996Y-77489007D01*
X141152184Y-77465803D01*
X141148674Y-77442142D01*
X141147500Y-77418250D01*
X141147500Y-76505750D01*
X141148674Y-76481858D01*
X141152184Y-76458197D01*
X141157996Y-76434993D01*
X141166054Y-76412471D01*
X141176282Y-76390847D01*
X141188579Y-76370330D01*
X141202829Y-76351117D01*
X141218893Y-76333393D01*
X141236617Y-76317329D01*
X141255830Y-76303079D01*
X141276347Y-76290782D01*
X141297971Y-76280554D01*
X141320493Y-76272496D01*
X141343697Y-76266684D01*
X141367358Y-76263174D01*
X141391250Y-76262000D01*
X141878750Y-76262000D01*
X141902642Y-76263174D01*
X141902642Y-76263174D01*
G37*
D11*
G04 #@! TD*
G04 #@! TO.P,C7,2*
G04 #@! TO.N,GND*
X141635000Y-76962000D03*
D10*
G04 #@! TO.N,Net-(C7-Pad1)*
G04 #@! TO.C,C7*
G36*
X143777642Y-76263174D02*
X143801303Y-76266684D01*
X143824507Y-76272496D01*
X143847029Y-76280554D01*
X143868653Y-76290782D01*
X143889170Y-76303079D01*
X143908383Y-76317329D01*
X143926107Y-76333393D01*
X143942171Y-76351117D01*
X143956421Y-76370330D01*
X143968718Y-76390847D01*
X143978946Y-76412471D01*
X143987004Y-76434993D01*
X143992816Y-76458197D01*
X143996326Y-76481858D01*
X143997500Y-76505750D01*
X143997500Y-77418250D01*
X143996326Y-77442142D01*
X143992816Y-77465803D01*
X143987004Y-77489007D01*
X143978946Y-77511529D01*
X143968718Y-77533153D01*
X143956421Y-77553670D01*
X143942171Y-77572883D01*
X143926107Y-77590607D01*
X143908383Y-77606671D01*
X143889170Y-77620921D01*
X143868653Y-77633218D01*
X143847029Y-77643446D01*
X143824507Y-77651504D01*
X143801303Y-77657316D01*
X143777642Y-77660826D01*
X143753750Y-77662000D01*
X143266250Y-77662000D01*
X143242358Y-77660826D01*
X143218697Y-77657316D01*
X143195493Y-77651504D01*
X143172971Y-77643446D01*
X143151347Y-77633218D01*
X143130830Y-77620921D01*
X143111617Y-77606671D01*
X143093893Y-77590607D01*
X143077829Y-77572883D01*
X143063579Y-77553670D01*
X143051282Y-77533153D01*
X143041054Y-77511529D01*
X143032996Y-77489007D01*
X143027184Y-77465803D01*
X143023674Y-77442142D01*
X143022500Y-77418250D01*
X143022500Y-76505750D01*
X143023674Y-76481858D01*
X143027184Y-76458197D01*
X143032996Y-76434993D01*
X143041054Y-76412471D01*
X143051282Y-76390847D01*
X143063579Y-76370330D01*
X143077829Y-76351117D01*
X143093893Y-76333393D01*
X143111617Y-76317329D01*
X143130830Y-76303079D01*
X143151347Y-76290782D01*
X143172971Y-76280554D01*
X143195493Y-76272496D01*
X143218697Y-76266684D01*
X143242358Y-76263174D01*
X143266250Y-76262000D01*
X143753750Y-76262000D01*
X143777642Y-76263174D01*
X143777642Y-76263174D01*
G37*
D11*
G04 #@! TD*
G04 #@! TO.P,C7,1*
G04 #@! TO.N,Net-(C7-Pad1)*
X143510000Y-76962000D03*
D10*
G04 #@! TO.N,Net-(C10-Pad2)*
G04 #@! TO.C,C8*
G36*
X145652642Y-81851174D02*
X145676303Y-81854684D01*
X145699507Y-81860496D01*
X145722029Y-81868554D01*
X145743653Y-81878782D01*
X145764170Y-81891079D01*
X145783383Y-81905329D01*
X145801107Y-81921393D01*
X145817171Y-81939117D01*
X145831421Y-81958330D01*
X145843718Y-81978847D01*
X145853946Y-82000471D01*
X145862004Y-82022993D01*
X145867816Y-82046197D01*
X145871326Y-82069858D01*
X145872500Y-82093750D01*
X145872500Y-83006250D01*
X145871326Y-83030142D01*
X145867816Y-83053803D01*
X145862004Y-83077007D01*
X145853946Y-83099529D01*
X145843718Y-83121153D01*
X145831421Y-83141670D01*
X145817171Y-83160883D01*
X145801107Y-83178607D01*
X145783383Y-83194671D01*
X145764170Y-83208921D01*
X145743653Y-83221218D01*
X145722029Y-83231446D01*
X145699507Y-83239504D01*
X145676303Y-83245316D01*
X145652642Y-83248826D01*
X145628750Y-83250000D01*
X145141250Y-83250000D01*
X145117358Y-83248826D01*
X145093697Y-83245316D01*
X145070493Y-83239504D01*
X145047971Y-83231446D01*
X145026347Y-83221218D01*
X145005830Y-83208921D01*
X144986617Y-83194671D01*
X144968893Y-83178607D01*
X144952829Y-83160883D01*
X144938579Y-83141670D01*
X144926282Y-83121153D01*
X144916054Y-83099529D01*
X144907996Y-83077007D01*
X144902184Y-83053803D01*
X144898674Y-83030142D01*
X144897500Y-83006250D01*
X144897500Y-82093750D01*
X144898674Y-82069858D01*
X144902184Y-82046197D01*
X144907996Y-82022993D01*
X144916054Y-82000471D01*
X144926282Y-81978847D01*
X144938579Y-81958330D01*
X144952829Y-81939117D01*
X144968893Y-81921393D01*
X144986617Y-81905329D01*
X145005830Y-81891079D01*
X145026347Y-81878782D01*
X145047971Y-81868554D01*
X145070493Y-81860496D01*
X145093697Y-81854684D01*
X145117358Y-81851174D01*
X145141250Y-81850000D01*
X145628750Y-81850000D01*
X145652642Y-81851174D01*
X145652642Y-81851174D01*
G37*
D11*
G04 #@! TD*
G04 #@! TO.P,C8,2*
G04 #@! TO.N,Net-(C10-Pad2)*
X145385000Y-82550000D03*
D10*
G04 #@! TO.N,Net-(C8-Pad1)*
G04 #@! TO.C,C8*
G36*
X143777642Y-81851174D02*
X143801303Y-81854684D01*
X143824507Y-81860496D01*
X143847029Y-81868554D01*
X143868653Y-81878782D01*
X143889170Y-81891079D01*
X143908383Y-81905329D01*
X143926107Y-81921393D01*
X143942171Y-81939117D01*
X143956421Y-81958330D01*
X143968718Y-81978847D01*
X143978946Y-82000471D01*
X143987004Y-82022993D01*
X143992816Y-82046197D01*
X143996326Y-82069858D01*
X143997500Y-82093750D01*
X143997500Y-83006250D01*
X143996326Y-83030142D01*
X143992816Y-83053803D01*
X143987004Y-83077007D01*
X143978946Y-83099529D01*
X143968718Y-83121153D01*
X143956421Y-83141670D01*
X143942171Y-83160883D01*
X143926107Y-83178607D01*
X143908383Y-83194671D01*
X143889170Y-83208921D01*
X143868653Y-83221218D01*
X143847029Y-83231446D01*
X143824507Y-83239504D01*
X143801303Y-83245316D01*
X143777642Y-83248826D01*
X143753750Y-83250000D01*
X143266250Y-83250000D01*
X143242358Y-83248826D01*
X143218697Y-83245316D01*
X143195493Y-83239504D01*
X143172971Y-83231446D01*
X143151347Y-83221218D01*
X143130830Y-83208921D01*
X143111617Y-83194671D01*
X143093893Y-83178607D01*
X143077829Y-83160883D01*
X143063579Y-83141670D01*
X143051282Y-83121153D01*
X143041054Y-83099529D01*
X143032996Y-83077007D01*
X143027184Y-83053803D01*
X143023674Y-83030142D01*
X143022500Y-83006250D01*
X143022500Y-82093750D01*
X143023674Y-82069858D01*
X143027184Y-82046197D01*
X143032996Y-82022993D01*
X143041054Y-82000471D01*
X143051282Y-81978847D01*
X143063579Y-81958330D01*
X143077829Y-81939117D01*
X143093893Y-81921393D01*
X143111617Y-81905329D01*
X143130830Y-81891079D01*
X143151347Y-81878782D01*
X143172971Y-81868554D01*
X143195493Y-81860496D01*
X143218697Y-81854684D01*
X143242358Y-81851174D01*
X143266250Y-81850000D01*
X143753750Y-81850000D01*
X143777642Y-81851174D01*
X143777642Y-81851174D01*
G37*
D11*
G04 #@! TD*
G04 #@! TO.P,C8,1*
G04 #@! TO.N,Net-(C8-Pad1)*
X143510000Y-82550000D03*
D10*
G04 #@! TO.N,GND*
G04 #@! TO.C,C9*
G36*
X147165142Y-86478674D02*
X147188803Y-86482184D01*
X147212007Y-86487996D01*
X147234529Y-86496054D01*
X147256153Y-86506282D01*
X147276670Y-86518579D01*
X147295883Y-86532829D01*
X147313607Y-86548893D01*
X147329671Y-86566617D01*
X147343921Y-86585830D01*
X147356218Y-86606347D01*
X147366446Y-86627971D01*
X147374504Y-86650493D01*
X147380316Y-86673697D01*
X147383826Y-86697358D01*
X147385000Y-86721250D01*
X147385000Y-87208750D01*
X147383826Y-87232642D01*
X147380316Y-87256303D01*
X147374504Y-87279507D01*
X147366446Y-87302029D01*
X147356218Y-87323653D01*
X147343921Y-87344170D01*
X147329671Y-87363383D01*
X147313607Y-87381107D01*
X147295883Y-87397171D01*
X147276670Y-87411421D01*
X147256153Y-87423718D01*
X147234529Y-87433946D01*
X147212007Y-87442004D01*
X147188803Y-87447816D01*
X147165142Y-87451326D01*
X147141250Y-87452500D01*
X146228750Y-87452500D01*
X146204858Y-87451326D01*
X146181197Y-87447816D01*
X146157993Y-87442004D01*
X146135471Y-87433946D01*
X146113847Y-87423718D01*
X146093330Y-87411421D01*
X146074117Y-87397171D01*
X146056393Y-87381107D01*
X146040329Y-87363383D01*
X146026079Y-87344170D01*
X146013782Y-87323653D01*
X146003554Y-87302029D01*
X145995496Y-87279507D01*
X145989684Y-87256303D01*
X145986174Y-87232642D01*
X145985000Y-87208750D01*
X145985000Y-86721250D01*
X145986174Y-86697358D01*
X145989684Y-86673697D01*
X145995496Y-86650493D01*
X146003554Y-86627971D01*
X146013782Y-86606347D01*
X146026079Y-86585830D01*
X146040329Y-86566617D01*
X146056393Y-86548893D01*
X146074117Y-86532829D01*
X146093330Y-86518579D01*
X146113847Y-86506282D01*
X146135471Y-86496054D01*
X146157993Y-86487996D01*
X146181197Y-86482184D01*
X146204858Y-86478674D01*
X146228750Y-86477500D01*
X147141250Y-86477500D01*
X147165142Y-86478674D01*
X147165142Y-86478674D01*
G37*
D11*
G04 #@! TD*
G04 #@! TO.P,C9,1*
G04 #@! TO.N,GND*
X146685000Y-86965000D03*
D10*
G04 #@! TO.N,+5V*
G04 #@! TO.C,C9*
G36*
X147165142Y-84603674D02*
X147188803Y-84607184D01*
X147212007Y-84612996D01*
X147234529Y-84621054D01*
X147256153Y-84631282D01*
X147276670Y-84643579D01*
X147295883Y-84657829D01*
X147313607Y-84673893D01*
X147329671Y-84691617D01*
X147343921Y-84710830D01*
X147356218Y-84731347D01*
X147366446Y-84752971D01*
X147374504Y-84775493D01*
X147380316Y-84798697D01*
X147383826Y-84822358D01*
X147385000Y-84846250D01*
X147385000Y-85333750D01*
X147383826Y-85357642D01*
X147380316Y-85381303D01*
X147374504Y-85404507D01*
X147366446Y-85427029D01*
X147356218Y-85448653D01*
X147343921Y-85469170D01*
X147329671Y-85488383D01*
X147313607Y-85506107D01*
X147295883Y-85522171D01*
X147276670Y-85536421D01*
X147256153Y-85548718D01*
X147234529Y-85558946D01*
X147212007Y-85567004D01*
X147188803Y-85572816D01*
X147165142Y-85576326D01*
X147141250Y-85577500D01*
X146228750Y-85577500D01*
X146204858Y-85576326D01*
X146181197Y-85572816D01*
X146157993Y-85567004D01*
X146135471Y-85558946D01*
X146113847Y-85548718D01*
X146093330Y-85536421D01*
X146074117Y-85522171D01*
X146056393Y-85506107D01*
X146040329Y-85488383D01*
X146026079Y-85469170D01*
X146013782Y-85448653D01*
X146003554Y-85427029D01*
X145995496Y-85404507D01*
X145989684Y-85381303D01*
X145986174Y-85357642D01*
X145985000Y-85333750D01*
X145985000Y-84846250D01*
X145986174Y-84822358D01*
X145989684Y-84798697D01*
X145995496Y-84775493D01*
X146003554Y-84752971D01*
X146013782Y-84731347D01*
X146026079Y-84710830D01*
X146040329Y-84691617D01*
X146056393Y-84673893D01*
X146074117Y-84657829D01*
X146093330Y-84643579D01*
X146113847Y-84631282D01*
X146135471Y-84621054D01*
X146157993Y-84612996D01*
X146181197Y-84607184D01*
X146204858Y-84603674D01*
X146228750Y-84602500D01*
X147141250Y-84602500D01*
X147165142Y-84603674D01*
X147165142Y-84603674D01*
G37*
D11*
G04 #@! TD*
G04 #@! TO.P,C9,2*
G04 #@! TO.N,+5V*
X146685000Y-85090000D03*
D10*
G04 #@! TO.N,Net-(C10-Pad1)*
G04 #@! TO.C,C10*
G36*
X153605142Y-80581174D02*
X153628803Y-80584684D01*
X153652007Y-80590496D01*
X153674529Y-80598554D01*
X153696153Y-80608782D01*
X153716670Y-80621079D01*
X153735883Y-80635329D01*
X153753607Y-80651393D01*
X153769671Y-80669117D01*
X153783921Y-80688330D01*
X153796218Y-80708847D01*
X153806446Y-80730471D01*
X153814504Y-80752993D01*
X153820316Y-80776197D01*
X153823826Y-80799858D01*
X153825000Y-80823750D01*
X153825000Y-81736250D01*
X153823826Y-81760142D01*
X153820316Y-81783803D01*
X153814504Y-81807007D01*
X153806446Y-81829529D01*
X153796218Y-81851153D01*
X153783921Y-81871670D01*
X153769671Y-81890883D01*
X153753607Y-81908607D01*
X153735883Y-81924671D01*
X153716670Y-81938921D01*
X153696153Y-81951218D01*
X153674529Y-81961446D01*
X153652007Y-81969504D01*
X153628803Y-81975316D01*
X153605142Y-81978826D01*
X153581250Y-81980000D01*
X153093750Y-81980000D01*
X153069858Y-81978826D01*
X153046197Y-81975316D01*
X153022993Y-81969504D01*
X153000471Y-81961446D01*
X152978847Y-81951218D01*
X152958330Y-81938921D01*
X152939117Y-81924671D01*
X152921393Y-81908607D01*
X152905329Y-81890883D01*
X152891079Y-81871670D01*
X152878782Y-81851153D01*
X152868554Y-81829529D01*
X152860496Y-81807007D01*
X152854684Y-81783803D01*
X152851174Y-81760142D01*
X152850000Y-81736250D01*
X152850000Y-80823750D01*
X152851174Y-80799858D01*
X152854684Y-80776197D01*
X152860496Y-80752993D01*
X152868554Y-80730471D01*
X152878782Y-80708847D01*
X152891079Y-80688330D01*
X152905329Y-80669117D01*
X152921393Y-80651393D01*
X152939117Y-80635329D01*
X152958330Y-80621079D01*
X152978847Y-80608782D01*
X153000471Y-80598554D01*
X153022993Y-80590496D01*
X153046197Y-80584684D01*
X153069858Y-80581174D01*
X153093750Y-80580000D01*
X153581250Y-80580000D01*
X153605142Y-80581174D01*
X153605142Y-80581174D01*
G37*
D11*
G04 #@! TD*
G04 #@! TO.P,C10,1*
G04 #@! TO.N,Net-(C10-Pad1)*
X153337500Y-81280000D03*
D10*
G04 #@! TO.N,Net-(C10-Pad2)*
G04 #@! TO.C,C10*
G36*
X151730142Y-80581174D02*
X151753803Y-80584684D01*
X151777007Y-80590496D01*
X151799529Y-80598554D01*
X151821153Y-80608782D01*
X151841670Y-80621079D01*
X151860883Y-80635329D01*
X151878607Y-80651393D01*
X151894671Y-80669117D01*
X151908921Y-80688330D01*
X151921218Y-80708847D01*
X151931446Y-80730471D01*
X151939504Y-80752993D01*
X151945316Y-80776197D01*
X151948826Y-80799858D01*
X151950000Y-80823750D01*
X151950000Y-81736250D01*
X151948826Y-81760142D01*
X151945316Y-81783803D01*
X151939504Y-81807007D01*
X151931446Y-81829529D01*
X151921218Y-81851153D01*
X151908921Y-81871670D01*
X151894671Y-81890883D01*
X151878607Y-81908607D01*
X151860883Y-81924671D01*
X151841670Y-81938921D01*
X151821153Y-81951218D01*
X151799529Y-81961446D01*
X151777007Y-81969504D01*
X151753803Y-81975316D01*
X151730142Y-81978826D01*
X151706250Y-81980000D01*
X151218750Y-81980000D01*
X151194858Y-81978826D01*
X151171197Y-81975316D01*
X151147993Y-81969504D01*
X151125471Y-81961446D01*
X151103847Y-81951218D01*
X151083330Y-81938921D01*
X151064117Y-81924671D01*
X151046393Y-81908607D01*
X151030329Y-81890883D01*
X151016079Y-81871670D01*
X151003782Y-81851153D01*
X150993554Y-81829529D01*
X150985496Y-81807007D01*
X150979684Y-81783803D01*
X150976174Y-81760142D01*
X150975000Y-81736250D01*
X150975000Y-80823750D01*
X150976174Y-80799858D01*
X150979684Y-80776197D01*
X150985496Y-80752993D01*
X150993554Y-80730471D01*
X151003782Y-80708847D01*
X151016079Y-80688330D01*
X151030329Y-80669117D01*
X151046393Y-80651393D01*
X151064117Y-80635329D01*
X151083330Y-80621079D01*
X151103847Y-80608782D01*
X151125471Y-80598554D01*
X151147993Y-80590496D01*
X151171197Y-80584684D01*
X151194858Y-80581174D01*
X151218750Y-80580000D01*
X151706250Y-80580000D01*
X151730142Y-80581174D01*
X151730142Y-80581174D01*
G37*
D11*
G04 #@! TD*
G04 #@! TO.P,C10,2*
G04 #@! TO.N,Net-(C10-Pad2)*
X151462500Y-81280000D03*
D10*
G04 #@! TO.N,GND*
G04 #@! TO.C,C11*
G36*
X122598642Y-85915174D02*
X122622303Y-85918684D01*
X122645507Y-85924496D01*
X122668029Y-85932554D01*
X122689653Y-85942782D01*
X122710170Y-85955079D01*
X122729383Y-85969329D01*
X122747107Y-85985393D01*
X122763171Y-86003117D01*
X122777421Y-86022330D01*
X122789718Y-86042847D01*
X122799946Y-86064471D01*
X122808004Y-86086993D01*
X122813816Y-86110197D01*
X122817326Y-86133858D01*
X122818500Y-86157750D01*
X122818500Y-87070250D01*
X122817326Y-87094142D01*
X122813816Y-87117803D01*
X122808004Y-87141007D01*
X122799946Y-87163529D01*
X122789718Y-87185153D01*
X122777421Y-87205670D01*
X122763171Y-87224883D01*
X122747107Y-87242607D01*
X122729383Y-87258671D01*
X122710170Y-87272921D01*
X122689653Y-87285218D01*
X122668029Y-87295446D01*
X122645507Y-87303504D01*
X122622303Y-87309316D01*
X122598642Y-87312826D01*
X122574750Y-87314000D01*
X122087250Y-87314000D01*
X122063358Y-87312826D01*
X122039697Y-87309316D01*
X122016493Y-87303504D01*
X121993971Y-87295446D01*
X121972347Y-87285218D01*
X121951830Y-87272921D01*
X121932617Y-87258671D01*
X121914893Y-87242607D01*
X121898829Y-87224883D01*
X121884579Y-87205670D01*
X121872282Y-87185153D01*
X121862054Y-87163529D01*
X121853996Y-87141007D01*
X121848184Y-87117803D01*
X121844674Y-87094142D01*
X121843500Y-87070250D01*
X121843500Y-86157750D01*
X121844674Y-86133858D01*
X121848184Y-86110197D01*
X121853996Y-86086993D01*
X121862054Y-86064471D01*
X121872282Y-86042847D01*
X121884579Y-86022330D01*
X121898829Y-86003117D01*
X121914893Y-85985393D01*
X121932617Y-85969329D01*
X121951830Y-85955079D01*
X121972347Y-85942782D01*
X121993971Y-85932554D01*
X122016493Y-85924496D01*
X122039697Y-85918684D01*
X122063358Y-85915174D01*
X122087250Y-85914000D01*
X122574750Y-85914000D01*
X122598642Y-85915174D01*
X122598642Y-85915174D01*
G37*
D11*
G04 #@! TD*
G04 #@! TO.P,C11,2*
G04 #@! TO.N,GND*
X122331000Y-86614000D03*
D10*
G04 #@! TO.N,VDD*
G04 #@! TO.C,C11*
G36*
X124473642Y-85915174D02*
X124497303Y-85918684D01*
X124520507Y-85924496D01*
X124543029Y-85932554D01*
X124564653Y-85942782D01*
X124585170Y-85955079D01*
X124604383Y-85969329D01*
X124622107Y-85985393D01*
X124638171Y-86003117D01*
X124652421Y-86022330D01*
X124664718Y-86042847D01*
X124674946Y-86064471D01*
X124683004Y-86086993D01*
X124688816Y-86110197D01*
X124692326Y-86133858D01*
X124693500Y-86157750D01*
X124693500Y-87070250D01*
X124692326Y-87094142D01*
X124688816Y-87117803D01*
X124683004Y-87141007D01*
X124674946Y-87163529D01*
X124664718Y-87185153D01*
X124652421Y-87205670D01*
X124638171Y-87224883D01*
X124622107Y-87242607D01*
X124604383Y-87258671D01*
X124585170Y-87272921D01*
X124564653Y-87285218D01*
X124543029Y-87295446D01*
X124520507Y-87303504D01*
X124497303Y-87309316D01*
X124473642Y-87312826D01*
X124449750Y-87314000D01*
X123962250Y-87314000D01*
X123938358Y-87312826D01*
X123914697Y-87309316D01*
X123891493Y-87303504D01*
X123868971Y-87295446D01*
X123847347Y-87285218D01*
X123826830Y-87272921D01*
X123807617Y-87258671D01*
X123789893Y-87242607D01*
X123773829Y-87224883D01*
X123759579Y-87205670D01*
X123747282Y-87185153D01*
X123737054Y-87163529D01*
X123728996Y-87141007D01*
X123723184Y-87117803D01*
X123719674Y-87094142D01*
X123718500Y-87070250D01*
X123718500Y-86157750D01*
X123719674Y-86133858D01*
X123723184Y-86110197D01*
X123728996Y-86086993D01*
X123737054Y-86064471D01*
X123747282Y-86042847D01*
X123759579Y-86022330D01*
X123773829Y-86003117D01*
X123789893Y-85985393D01*
X123807617Y-85969329D01*
X123826830Y-85955079D01*
X123847347Y-85942782D01*
X123868971Y-85932554D01*
X123891493Y-85924496D01*
X123914697Y-85918684D01*
X123938358Y-85915174D01*
X123962250Y-85914000D01*
X124449750Y-85914000D01*
X124473642Y-85915174D01*
X124473642Y-85915174D01*
G37*
D11*
G04 #@! TD*
G04 #@! TO.P,C11,1*
G04 #@! TO.N,VDD*
X124206000Y-86614000D03*
D10*
G04 #@! TO.N,Net-(C12-Pad2)*
G04 #@! TO.C,C12*
G36*
X134465142Y-86919674D02*
X134488803Y-86923184D01*
X134512007Y-86928996D01*
X134534529Y-86937054D01*
X134556153Y-86947282D01*
X134576670Y-86959579D01*
X134595883Y-86973829D01*
X134613607Y-86989893D01*
X134629671Y-87007617D01*
X134643921Y-87026830D01*
X134656218Y-87047347D01*
X134666446Y-87068971D01*
X134674504Y-87091493D01*
X134680316Y-87114697D01*
X134683826Y-87138358D01*
X134685000Y-87162250D01*
X134685000Y-87649750D01*
X134683826Y-87673642D01*
X134680316Y-87697303D01*
X134674504Y-87720507D01*
X134666446Y-87743029D01*
X134656218Y-87764653D01*
X134643921Y-87785170D01*
X134629671Y-87804383D01*
X134613607Y-87822107D01*
X134595883Y-87838171D01*
X134576670Y-87852421D01*
X134556153Y-87864718D01*
X134534529Y-87874946D01*
X134512007Y-87883004D01*
X134488803Y-87888816D01*
X134465142Y-87892326D01*
X134441250Y-87893500D01*
X133528750Y-87893500D01*
X133504858Y-87892326D01*
X133481197Y-87888816D01*
X133457993Y-87883004D01*
X133435471Y-87874946D01*
X133413847Y-87864718D01*
X133393330Y-87852421D01*
X133374117Y-87838171D01*
X133356393Y-87822107D01*
X133340329Y-87804383D01*
X133326079Y-87785170D01*
X133313782Y-87764653D01*
X133303554Y-87743029D01*
X133295496Y-87720507D01*
X133289684Y-87697303D01*
X133286174Y-87673642D01*
X133285000Y-87649750D01*
X133285000Y-87162250D01*
X133286174Y-87138358D01*
X133289684Y-87114697D01*
X133295496Y-87091493D01*
X133303554Y-87068971D01*
X133313782Y-87047347D01*
X133326079Y-87026830D01*
X133340329Y-87007617D01*
X133356393Y-86989893D01*
X133374117Y-86973829D01*
X133393330Y-86959579D01*
X133413847Y-86947282D01*
X133435471Y-86937054D01*
X133457993Y-86928996D01*
X133481197Y-86923184D01*
X133504858Y-86919674D01*
X133528750Y-86918500D01*
X134441250Y-86918500D01*
X134465142Y-86919674D01*
X134465142Y-86919674D01*
G37*
D11*
G04 #@! TD*
G04 #@! TO.P,C12,2*
G04 #@! TO.N,Net-(C12-Pad2)*
X133985000Y-87406000D03*
D10*
G04 #@! TO.N,GND*
G04 #@! TO.C,C12*
G36*
X134465142Y-88794674D02*
X134488803Y-88798184D01*
X134512007Y-88803996D01*
X134534529Y-88812054D01*
X134556153Y-88822282D01*
X134576670Y-88834579D01*
X134595883Y-88848829D01*
X134613607Y-88864893D01*
X134629671Y-88882617D01*
X134643921Y-88901830D01*
X134656218Y-88922347D01*
X134666446Y-88943971D01*
X134674504Y-88966493D01*
X134680316Y-88989697D01*
X134683826Y-89013358D01*
X134685000Y-89037250D01*
X134685000Y-89524750D01*
X134683826Y-89548642D01*
X134680316Y-89572303D01*
X134674504Y-89595507D01*
X134666446Y-89618029D01*
X134656218Y-89639653D01*
X134643921Y-89660170D01*
X134629671Y-89679383D01*
X134613607Y-89697107D01*
X134595883Y-89713171D01*
X134576670Y-89727421D01*
X134556153Y-89739718D01*
X134534529Y-89749946D01*
X134512007Y-89758004D01*
X134488803Y-89763816D01*
X134465142Y-89767326D01*
X134441250Y-89768500D01*
X133528750Y-89768500D01*
X133504858Y-89767326D01*
X133481197Y-89763816D01*
X133457993Y-89758004D01*
X133435471Y-89749946D01*
X133413847Y-89739718D01*
X133393330Y-89727421D01*
X133374117Y-89713171D01*
X133356393Y-89697107D01*
X133340329Y-89679383D01*
X133326079Y-89660170D01*
X133313782Y-89639653D01*
X133303554Y-89618029D01*
X133295496Y-89595507D01*
X133289684Y-89572303D01*
X133286174Y-89548642D01*
X133285000Y-89524750D01*
X133285000Y-89037250D01*
X133286174Y-89013358D01*
X133289684Y-88989697D01*
X133295496Y-88966493D01*
X133303554Y-88943971D01*
X133313782Y-88922347D01*
X133326079Y-88901830D01*
X133340329Y-88882617D01*
X133356393Y-88864893D01*
X133374117Y-88848829D01*
X133393330Y-88834579D01*
X133413847Y-88822282D01*
X133435471Y-88812054D01*
X133457993Y-88803996D01*
X133481197Y-88798184D01*
X133504858Y-88794674D01*
X133528750Y-88793500D01*
X134441250Y-88793500D01*
X134465142Y-88794674D01*
X134465142Y-88794674D01*
G37*
D11*
G04 #@! TD*
G04 #@! TO.P,C12,1*
G04 #@! TO.N,GND*
X133985000Y-89281000D03*
D10*
G04 #@! TO.N,GND*
G04 #@! TO.C,C13*
G36*
X137132142Y-88794674D02*
X137155803Y-88798184D01*
X137179007Y-88803996D01*
X137201529Y-88812054D01*
X137223153Y-88822282D01*
X137243670Y-88834579D01*
X137262883Y-88848829D01*
X137280607Y-88864893D01*
X137296671Y-88882617D01*
X137310921Y-88901830D01*
X137323218Y-88922347D01*
X137333446Y-88943971D01*
X137341504Y-88966493D01*
X137347316Y-88989697D01*
X137350826Y-89013358D01*
X137352000Y-89037250D01*
X137352000Y-89524750D01*
X137350826Y-89548642D01*
X137347316Y-89572303D01*
X137341504Y-89595507D01*
X137333446Y-89618029D01*
X137323218Y-89639653D01*
X137310921Y-89660170D01*
X137296671Y-89679383D01*
X137280607Y-89697107D01*
X137262883Y-89713171D01*
X137243670Y-89727421D01*
X137223153Y-89739718D01*
X137201529Y-89749946D01*
X137179007Y-89758004D01*
X137155803Y-89763816D01*
X137132142Y-89767326D01*
X137108250Y-89768500D01*
X136195750Y-89768500D01*
X136171858Y-89767326D01*
X136148197Y-89763816D01*
X136124993Y-89758004D01*
X136102471Y-89749946D01*
X136080847Y-89739718D01*
X136060330Y-89727421D01*
X136041117Y-89713171D01*
X136023393Y-89697107D01*
X136007329Y-89679383D01*
X135993079Y-89660170D01*
X135980782Y-89639653D01*
X135970554Y-89618029D01*
X135962496Y-89595507D01*
X135956684Y-89572303D01*
X135953174Y-89548642D01*
X135952000Y-89524750D01*
X135952000Y-89037250D01*
X135953174Y-89013358D01*
X135956684Y-88989697D01*
X135962496Y-88966493D01*
X135970554Y-88943971D01*
X135980782Y-88922347D01*
X135993079Y-88901830D01*
X136007329Y-88882617D01*
X136023393Y-88864893D01*
X136041117Y-88848829D01*
X136060330Y-88834579D01*
X136080847Y-88822282D01*
X136102471Y-88812054D01*
X136124993Y-88803996D01*
X136148197Y-88798184D01*
X136171858Y-88794674D01*
X136195750Y-88793500D01*
X137108250Y-88793500D01*
X137132142Y-88794674D01*
X137132142Y-88794674D01*
G37*
D11*
G04 #@! TD*
G04 #@! TO.P,C13,1*
G04 #@! TO.N,GND*
X136652000Y-89281000D03*
D10*
G04 #@! TO.N,+5V*
G04 #@! TO.C,C13*
G36*
X137132142Y-86919674D02*
X137155803Y-86923184D01*
X137179007Y-86928996D01*
X137201529Y-86937054D01*
X137223153Y-86947282D01*
X137243670Y-86959579D01*
X137262883Y-86973829D01*
X137280607Y-86989893D01*
X137296671Y-87007617D01*
X137310921Y-87026830D01*
X137323218Y-87047347D01*
X137333446Y-87068971D01*
X137341504Y-87091493D01*
X137347316Y-87114697D01*
X137350826Y-87138358D01*
X137352000Y-87162250D01*
X137352000Y-87649750D01*
X137350826Y-87673642D01*
X137347316Y-87697303D01*
X137341504Y-87720507D01*
X137333446Y-87743029D01*
X137323218Y-87764653D01*
X137310921Y-87785170D01*
X137296671Y-87804383D01*
X137280607Y-87822107D01*
X137262883Y-87838171D01*
X137243670Y-87852421D01*
X137223153Y-87864718D01*
X137201529Y-87874946D01*
X137179007Y-87883004D01*
X137155803Y-87888816D01*
X137132142Y-87892326D01*
X137108250Y-87893500D01*
X136195750Y-87893500D01*
X136171858Y-87892326D01*
X136148197Y-87888816D01*
X136124993Y-87883004D01*
X136102471Y-87874946D01*
X136080847Y-87864718D01*
X136060330Y-87852421D01*
X136041117Y-87838171D01*
X136023393Y-87822107D01*
X136007329Y-87804383D01*
X135993079Y-87785170D01*
X135980782Y-87764653D01*
X135970554Y-87743029D01*
X135962496Y-87720507D01*
X135956684Y-87697303D01*
X135953174Y-87673642D01*
X135952000Y-87649750D01*
X135952000Y-87162250D01*
X135953174Y-87138358D01*
X135956684Y-87114697D01*
X135962496Y-87091493D01*
X135970554Y-87068971D01*
X135980782Y-87047347D01*
X135993079Y-87026830D01*
X136007329Y-87007617D01*
X136023393Y-86989893D01*
X136041117Y-86973829D01*
X136060330Y-86959579D01*
X136080847Y-86947282D01*
X136102471Y-86937054D01*
X136124993Y-86928996D01*
X136148197Y-86923184D01*
X136171858Y-86919674D01*
X136195750Y-86918500D01*
X137108250Y-86918500D01*
X137132142Y-86919674D01*
X137132142Y-86919674D01*
G37*
D11*
G04 #@! TD*
G04 #@! TO.P,C13,2*
G04 #@! TO.N,+5V*
X136652000Y-87406000D03*
D12*
G04 #@! TO.P,RF-IN,2*
G04 #@! TO.N,GND*
X118237000Y-84098000D03*
X118237000Y-76598000D03*
D13*
G04 #@! TO.P,RF-IN,1*
G04 #@! TO.N,Net-(C1-Pad2)*
X118237000Y-80348000D03*
G04 #@! TD*
D14*
G04 #@! TO.P,J2,2*
G04 #@! TO.N,GND*
X138370000Y-69215000D03*
X130870000Y-69215000D03*
D15*
G04 #@! TO.P,J2,1*
G04 #@! TO.N,Net-(C5-Pad1)*
X134620000Y-69215000D03*
G04 #@! TD*
D13*
G04 #@! TO.P,RF-OUT,1*
G04 #@! TO.N,Net-(C10-Pad1)*
X158750000Y-81280000D03*
D12*
G04 #@! TO.P,RF-OUT,2*
G04 #@! TO.N,GND*
X158750000Y-77530000D03*
X158750000Y-85030000D03*
G04 #@! TD*
D16*
G04 #@! TO.P,VDD,1*
G04 #@! TO.N,VDD*
X118110000Y-87630000D03*
G04 #@! TD*
G04 #@! TO.P,GND,1*
G04 #@! TO.N,GND*
X151765000Y-87630000D03*
G04 #@! TD*
D10*
G04 #@! TO.N,Net-(C1-Pad2)*
G04 #@! TO.C,L1*
G36*
X123924142Y-80364174D02*
X123947803Y-80367684D01*
X123971007Y-80373496D01*
X123993529Y-80381554D01*
X124015153Y-80391782D01*
X124035670Y-80404079D01*
X124054883Y-80418329D01*
X124072607Y-80434393D01*
X124088671Y-80452117D01*
X124102921Y-80471330D01*
X124115218Y-80491847D01*
X124125446Y-80513471D01*
X124133504Y-80535993D01*
X124139316Y-80559197D01*
X124142826Y-80582858D01*
X124144000Y-80606750D01*
X124144000Y-81094250D01*
X124142826Y-81118142D01*
X124139316Y-81141803D01*
X124133504Y-81165007D01*
X124125446Y-81187529D01*
X124115218Y-81209153D01*
X124102921Y-81229670D01*
X124088671Y-81248883D01*
X124072607Y-81266607D01*
X124054883Y-81282671D01*
X124035670Y-81296921D01*
X124015153Y-81309218D01*
X123993529Y-81319446D01*
X123971007Y-81327504D01*
X123947803Y-81333316D01*
X123924142Y-81336826D01*
X123900250Y-81338000D01*
X122987750Y-81338000D01*
X122963858Y-81336826D01*
X122940197Y-81333316D01*
X122916993Y-81327504D01*
X122894471Y-81319446D01*
X122872847Y-81309218D01*
X122852330Y-81296921D01*
X122833117Y-81282671D01*
X122815393Y-81266607D01*
X122799329Y-81248883D01*
X122785079Y-81229670D01*
X122772782Y-81209153D01*
X122762554Y-81187529D01*
X122754496Y-81165007D01*
X122748684Y-81141803D01*
X122745174Y-81118142D01*
X122744000Y-81094250D01*
X122744000Y-80606750D01*
X122745174Y-80582858D01*
X122748684Y-80559197D01*
X122754496Y-80535993D01*
X122762554Y-80513471D01*
X122772782Y-80491847D01*
X122785079Y-80471330D01*
X122799329Y-80452117D01*
X122815393Y-80434393D01*
X122833117Y-80418329D01*
X122852330Y-80404079D01*
X122872847Y-80391782D01*
X122894471Y-80381554D01*
X122916993Y-80373496D01*
X122940197Y-80367684D01*
X122963858Y-80364174D01*
X122987750Y-80363000D01*
X123900250Y-80363000D01*
X123924142Y-80364174D01*
X123924142Y-80364174D01*
G37*
D11*
G04 #@! TD*
G04 #@! TO.P,L1,2*
G04 #@! TO.N,Net-(C1-Pad2)*
X123444000Y-80850500D03*
D10*
G04 #@! TO.N,GND*
G04 #@! TO.C,L1*
G36*
X123924142Y-82239174D02*
X123947803Y-82242684D01*
X123971007Y-82248496D01*
X123993529Y-82256554D01*
X124015153Y-82266782D01*
X124035670Y-82279079D01*
X124054883Y-82293329D01*
X124072607Y-82309393D01*
X124088671Y-82327117D01*
X124102921Y-82346330D01*
X124115218Y-82366847D01*
X124125446Y-82388471D01*
X124133504Y-82410993D01*
X124139316Y-82434197D01*
X124142826Y-82457858D01*
X124144000Y-82481750D01*
X124144000Y-82969250D01*
X124142826Y-82993142D01*
X124139316Y-83016803D01*
X124133504Y-83040007D01*
X124125446Y-83062529D01*
X124115218Y-83084153D01*
X124102921Y-83104670D01*
X124088671Y-83123883D01*
X124072607Y-83141607D01*
X124054883Y-83157671D01*
X124035670Y-83171921D01*
X124015153Y-83184218D01*
X123993529Y-83194446D01*
X123971007Y-83202504D01*
X123947803Y-83208316D01*
X123924142Y-83211826D01*
X123900250Y-83213000D01*
X122987750Y-83213000D01*
X122963858Y-83211826D01*
X122940197Y-83208316D01*
X122916993Y-83202504D01*
X122894471Y-83194446D01*
X122872847Y-83184218D01*
X122852330Y-83171921D01*
X122833117Y-83157671D01*
X122815393Y-83141607D01*
X122799329Y-83123883D01*
X122785079Y-83104670D01*
X122772782Y-83084153D01*
X122762554Y-83062529D01*
X122754496Y-83040007D01*
X122748684Y-83016803D01*
X122745174Y-82993142D01*
X122744000Y-82969250D01*
X122744000Y-82481750D01*
X122745174Y-82457858D01*
X122748684Y-82434197D01*
X122754496Y-82410993D01*
X122762554Y-82388471D01*
X122772782Y-82366847D01*
X122785079Y-82346330D01*
X122799329Y-82327117D01*
X122815393Y-82309393D01*
X122833117Y-82293329D01*
X122852330Y-82279079D01*
X122872847Y-82266782D01*
X122894471Y-82256554D01*
X122916993Y-82248496D01*
X122940197Y-82242684D01*
X122963858Y-82239174D01*
X122987750Y-82238000D01*
X123900250Y-82238000D01*
X123924142Y-82239174D01*
X123924142Y-82239174D01*
G37*
D11*
G04 #@! TD*
G04 #@! TO.P,L1,1*
G04 #@! TO.N,GND*
X123444000Y-82725500D03*
D10*
G04 #@! TO.N,Net-(C1-Pad2)*
G04 #@! TO.C,L2*
G36*
X126662642Y-81089174D02*
X126686303Y-81092684D01*
X126709507Y-81098496D01*
X126732029Y-81106554D01*
X126753653Y-81116782D01*
X126774170Y-81129079D01*
X126793383Y-81143329D01*
X126811107Y-81159393D01*
X126827171Y-81177117D01*
X126841421Y-81196330D01*
X126853718Y-81216847D01*
X126863946Y-81238471D01*
X126872004Y-81260993D01*
X126877816Y-81284197D01*
X126881326Y-81307858D01*
X126882500Y-81331750D01*
X126882500Y-82244250D01*
X126881326Y-82268142D01*
X126877816Y-82291803D01*
X126872004Y-82315007D01*
X126863946Y-82337529D01*
X126853718Y-82359153D01*
X126841421Y-82379670D01*
X126827171Y-82398883D01*
X126811107Y-82416607D01*
X126793383Y-82432671D01*
X126774170Y-82446921D01*
X126753653Y-82459218D01*
X126732029Y-82469446D01*
X126709507Y-82477504D01*
X126686303Y-82483316D01*
X126662642Y-82486826D01*
X126638750Y-82488000D01*
X126151250Y-82488000D01*
X126127358Y-82486826D01*
X126103697Y-82483316D01*
X126080493Y-82477504D01*
X126057971Y-82469446D01*
X126036347Y-82459218D01*
X126015830Y-82446921D01*
X125996617Y-82432671D01*
X125978893Y-82416607D01*
X125962829Y-82398883D01*
X125948579Y-82379670D01*
X125936282Y-82359153D01*
X125926054Y-82337529D01*
X125917996Y-82315007D01*
X125912184Y-82291803D01*
X125908674Y-82268142D01*
X125907500Y-82244250D01*
X125907500Y-81331750D01*
X125908674Y-81307858D01*
X125912184Y-81284197D01*
X125917996Y-81260993D01*
X125926054Y-81238471D01*
X125936282Y-81216847D01*
X125948579Y-81196330D01*
X125962829Y-81177117D01*
X125978893Y-81159393D01*
X125996617Y-81143329D01*
X126015830Y-81129079D01*
X126036347Y-81116782D01*
X126057971Y-81106554D01*
X126080493Y-81098496D01*
X126103697Y-81092684D01*
X126127358Y-81089174D01*
X126151250Y-81088000D01*
X126638750Y-81088000D01*
X126662642Y-81089174D01*
X126662642Y-81089174D01*
G37*
D11*
G04 #@! TD*
G04 #@! TO.P,L2,1*
G04 #@! TO.N,Net-(C1-Pad2)*
X126395000Y-81788000D03*
D10*
G04 #@! TO.N,Net-(C2-Pad2)*
G04 #@! TO.C,L2*
G36*
X128537642Y-81089174D02*
X128561303Y-81092684D01*
X128584507Y-81098496D01*
X128607029Y-81106554D01*
X128628653Y-81116782D01*
X128649170Y-81129079D01*
X128668383Y-81143329D01*
X128686107Y-81159393D01*
X128702171Y-81177117D01*
X128716421Y-81196330D01*
X128728718Y-81216847D01*
X128738946Y-81238471D01*
X128747004Y-81260993D01*
X128752816Y-81284197D01*
X128756326Y-81307858D01*
X128757500Y-81331750D01*
X128757500Y-82244250D01*
X128756326Y-82268142D01*
X128752816Y-82291803D01*
X128747004Y-82315007D01*
X128738946Y-82337529D01*
X128728718Y-82359153D01*
X128716421Y-82379670D01*
X128702171Y-82398883D01*
X128686107Y-82416607D01*
X128668383Y-82432671D01*
X128649170Y-82446921D01*
X128628653Y-82459218D01*
X128607029Y-82469446D01*
X128584507Y-82477504D01*
X128561303Y-82483316D01*
X128537642Y-82486826D01*
X128513750Y-82488000D01*
X128026250Y-82488000D01*
X128002358Y-82486826D01*
X127978697Y-82483316D01*
X127955493Y-82477504D01*
X127932971Y-82469446D01*
X127911347Y-82459218D01*
X127890830Y-82446921D01*
X127871617Y-82432671D01*
X127853893Y-82416607D01*
X127837829Y-82398883D01*
X127823579Y-82379670D01*
X127811282Y-82359153D01*
X127801054Y-82337529D01*
X127792996Y-82315007D01*
X127787184Y-82291803D01*
X127783674Y-82268142D01*
X127782500Y-82244250D01*
X127782500Y-81331750D01*
X127783674Y-81307858D01*
X127787184Y-81284197D01*
X127792996Y-81260993D01*
X127801054Y-81238471D01*
X127811282Y-81216847D01*
X127823579Y-81196330D01*
X127837829Y-81177117D01*
X127853893Y-81159393D01*
X127871617Y-81143329D01*
X127890830Y-81129079D01*
X127911347Y-81116782D01*
X127932971Y-81106554D01*
X127955493Y-81098496D01*
X127978697Y-81092684D01*
X128002358Y-81089174D01*
X128026250Y-81088000D01*
X128513750Y-81088000D01*
X128537642Y-81089174D01*
X128537642Y-81089174D01*
G37*
D11*
G04 #@! TD*
G04 #@! TO.P,L2,2*
G04 #@! TO.N,Net-(C2-Pad2)*
X128270000Y-81788000D03*
D10*
G04 #@! TO.N,Net-(C1-Pad1)*
G04 #@! TO.C,L3*
G36*
X128537642Y-74739174D02*
X128561303Y-74742684D01*
X128584507Y-74748496D01*
X128607029Y-74756554D01*
X128628653Y-74766782D01*
X128649170Y-74779079D01*
X128668383Y-74793329D01*
X128686107Y-74809393D01*
X128702171Y-74827117D01*
X128716421Y-74846330D01*
X128728718Y-74866847D01*
X128738946Y-74888471D01*
X128747004Y-74910993D01*
X128752816Y-74934197D01*
X128756326Y-74957858D01*
X128757500Y-74981750D01*
X128757500Y-75894250D01*
X128756326Y-75918142D01*
X128752816Y-75941803D01*
X128747004Y-75965007D01*
X128738946Y-75987529D01*
X128728718Y-76009153D01*
X128716421Y-76029670D01*
X128702171Y-76048883D01*
X128686107Y-76066607D01*
X128668383Y-76082671D01*
X128649170Y-76096921D01*
X128628653Y-76109218D01*
X128607029Y-76119446D01*
X128584507Y-76127504D01*
X128561303Y-76133316D01*
X128537642Y-76136826D01*
X128513750Y-76138000D01*
X128026250Y-76138000D01*
X128002358Y-76136826D01*
X127978697Y-76133316D01*
X127955493Y-76127504D01*
X127932971Y-76119446D01*
X127911347Y-76109218D01*
X127890830Y-76096921D01*
X127871617Y-76082671D01*
X127853893Y-76066607D01*
X127837829Y-76048883D01*
X127823579Y-76029670D01*
X127811282Y-76009153D01*
X127801054Y-75987529D01*
X127792996Y-75965007D01*
X127787184Y-75941803D01*
X127783674Y-75918142D01*
X127782500Y-75894250D01*
X127782500Y-74981750D01*
X127783674Y-74957858D01*
X127787184Y-74934197D01*
X127792996Y-74910993D01*
X127801054Y-74888471D01*
X127811282Y-74866847D01*
X127823579Y-74846330D01*
X127837829Y-74827117D01*
X127853893Y-74809393D01*
X127871617Y-74793329D01*
X127890830Y-74779079D01*
X127911347Y-74766782D01*
X127932971Y-74756554D01*
X127955493Y-74748496D01*
X127978697Y-74742684D01*
X128002358Y-74739174D01*
X128026250Y-74738000D01*
X128513750Y-74738000D01*
X128537642Y-74739174D01*
X128537642Y-74739174D01*
G37*
D11*
G04 #@! TD*
G04 #@! TO.P,L3,1*
G04 #@! TO.N,Net-(C1-Pad1)*
X128270000Y-75438000D03*
D10*
G04 #@! TO.N,GND*
G04 #@! TO.C,L3*
G36*
X126662642Y-74739174D02*
X126686303Y-74742684D01*
X126709507Y-74748496D01*
X126732029Y-74756554D01*
X126753653Y-74766782D01*
X126774170Y-74779079D01*
X126793383Y-74793329D01*
X126811107Y-74809393D01*
X126827171Y-74827117D01*
X126841421Y-74846330D01*
X126853718Y-74866847D01*
X126863946Y-74888471D01*
X126872004Y-74910993D01*
X126877816Y-74934197D01*
X126881326Y-74957858D01*
X126882500Y-74981750D01*
X126882500Y-75894250D01*
X126881326Y-75918142D01*
X126877816Y-75941803D01*
X126872004Y-75965007D01*
X126863946Y-75987529D01*
X126853718Y-76009153D01*
X126841421Y-76029670D01*
X126827171Y-76048883D01*
X126811107Y-76066607D01*
X126793383Y-76082671D01*
X126774170Y-76096921D01*
X126753653Y-76109218D01*
X126732029Y-76119446D01*
X126709507Y-76127504D01*
X126686303Y-76133316D01*
X126662642Y-76136826D01*
X126638750Y-76138000D01*
X126151250Y-76138000D01*
X126127358Y-76136826D01*
X126103697Y-76133316D01*
X126080493Y-76127504D01*
X126057971Y-76119446D01*
X126036347Y-76109218D01*
X126015830Y-76096921D01*
X125996617Y-76082671D01*
X125978893Y-76066607D01*
X125962829Y-76048883D01*
X125948579Y-76029670D01*
X125936282Y-76009153D01*
X125926054Y-75987529D01*
X125917996Y-75965007D01*
X125912184Y-75941803D01*
X125908674Y-75918142D01*
X125907500Y-75894250D01*
X125907500Y-74981750D01*
X125908674Y-74957858D01*
X125912184Y-74934197D01*
X125917996Y-74910993D01*
X125926054Y-74888471D01*
X125936282Y-74866847D01*
X125948579Y-74846330D01*
X125962829Y-74827117D01*
X125978893Y-74809393D01*
X125996617Y-74793329D01*
X126015830Y-74779079D01*
X126036347Y-74766782D01*
X126057971Y-74756554D01*
X126080493Y-74748496D01*
X126103697Y-74742684D01*
X126127358Y-74739174D01*
X126151250Y-74738000D01*
X126638750Y-74738000D01*
X126662642Y-74739174D01*
X126662642Y-74739174D01*
G37*
D11*
G04 #@! TD*
G04 #@! TO.P,L3,2*
G04 #@! TO.N,GND*
X126395000Y-75438000D03*
D10*
G04 #@! TO.N,Net-(C8-Pad1)*
G04 #@! TO.C,L4*
G36*
X141450142Y-82825674D02*
X141473803Y-82829184D01*
X141497007Y-82834996D01*
X141519529Y-82843054D01*
X141541153Y-82853282D01*
X141561670Y-82865579D01*
X141580883Y-82879829D01*
X141598607Y-82895893D01*
X141614671Y-82913617D01*
X141628921Y-82932830D01*
X141641218Y-82953347D01*
X141651446Y-82974971D01*
X141659504Y-82997493D01*
X141665316Y-83020697D01*
X141668826Y-83044358D01*
X141670000Y-83068250D01*
X141670000Y-83555750D01*
X141668826Y-83579642D01*
X141665316Y-83603303D01*
X141659504Y-83626507D01*
X141651446Y-83649029D01*
X141641218Y-83670653D01*
X141628921Y-83691170D01*
X141614671Y-83710383D01*
X141598607Y-83728107D01*
X141580883Y-83744171D01*
X141561670Y-83758421D01*
X141541153Y-83770718D01*
X141519529Y-83780946D01*
X141497007Y-83789004D01*
X141473803Y-83794816D01*
X141450142Y-83798326D01*
X141426250Y-83799500D01*
X140513750Y-83799500D01*
X140489858Y-83798326D01*
X140466197Y-83794816D01*
X140442993Y-83789004D01*
X140420471Y-83780946D01*
X140398847Y-83770718D01*
X140378330Y-83758421D01*
X140359117Y-83744171D01*
X140341393Y-83728107D01*
X140325329Y-83710383D01*
X140311079Y-83691170D01*
X140298782Y-83670653D01*
X140288554Y-83649029D01*
X140280496Y-83626507D01*
X140274684Y-83603303D01*
X140271174Y-83579642D01*
X140270000Y-83555750D01*
X140270000Y-83068250D01*
X140271174Y-83044358D01*
X140274684Y-83020697D01*
X140280496Y-82997493D01*
X140288554Y-82974971D01*
X140298782Y-82953347D01*
X140311079Y-82932830D01*
X140325329Y-82913617D01*
X140341393Y-82895893D01*
X140359117Y-82879829D01*
X140378330Y-82865579D01*
X140398847Y-82853282D01*
X140420471Y-82843054D01*
X140442993Y-82834996D01*
X140466197Y-82829184D01*
X140489858Y-82825674D01*
X140513750Y-82824500D01*
X141426250Y-82824500D01*
X141450142Y-82825674D01*
X141450142Y-82825674D01*
G37*
D11*
G04 #@! TD*
G04 #@! TO.P,L4,1*
G04 #@! TO.N,Net-(C8-Pad1)*
X140970000Y-83312000D03*
D10*
G04 #@! TO.N,+5V*
G04 #@! TO.C,L4*
G36*
X141450142Y-84700674D02*
X141473803Y-84704184D01*
X141497007Y-84709996D01*
X141519529Y-84718054D01*
X141541153Y-84728282D01*
X141561670Y-84740579D01*
X141580883Y-84754829D01*
X141598607Y-84770893D01*
X141614671Y-84788617D01*
X141628921Y-84807830D01*
X141641218Y-84828347D01*
X141651446Y-84849971D01*
X141659504Y-84872493D01*
X141665316Y-84895697D01*
X141668826Y-84919358D01*
X141670000Y-84943250D01*
X141670000Y-85430750D01*
X141668826Y-85454642D01*
X141665316Y-85478303D01*
X141659504Y-85501507D01*
X141651446Y-85524029D01*
X141641218Y-85545653D01*
X141628921Y-85566170D01*
X141614671Y-85585383D01*
X141598607Y-85603107D01*
X141580883Y-85619171D01*
X141561670Y-85633421D01*
X141541153Y-85645718D01*
X141519529Y-85655946D01*
X141497007Y-85664004D01*
X141473803Y-85669816D01*
X141450142Y-85673326D01*
X141426250Y-85674500D01*
X140513750Y-85674500D01*
X140489858Y-85673326D01*
X140466197Y-85669816D01*
X140442993Y-85664004D01*
X140420471Y-85655946D01*
X140398847Y-85645718D01*
X140378330Y-85633421D01*
X140359117Y-85619171D01*
X140341393Y-85603107D01*
X140325329Y-85585383D01*
X140311079Y-85566170D01*
X140298782Y-85545653D01*
X140288554Y-85524029D01*
X140280496Y-85501507D01*
X140274684Y-85478303D01*
X140271174Y-85454642D01*
X140270000Y-85430750D01*
X140270000Y-84943250D01*
X140271174Y-84919358D01*
X140274684Y-84895697D01*
X140280496Y-84872493D01*
X140288554Y-84849971D01*
X140298782Y-84828347D01*
X140311079Y-84807830D01*
X140325329Y-84788617D01*
X140341393Y-84770893D01*
X140359117Y-84754829D01*
X140378330Y-84740579D01*
X140398847Y-84728282D01*
X140420471Y-84718054D01*
X140442993Y-84709996D01*
X140466197Y-84704184D01*
X140489858Y-84700674D01*
X140513750Y-84699500D01*
X141426250Y-84699500D01*
X141450142Y-84700674D01*
X141450142Y-84700674D01*
G37*
D11*
G04 #@! TD*
G04 #@! TO.P,L4,2*
G04 #@! TO.N,+5V*
X140970000Y-85187000D03*
D10*
G04 #@! TO.N,Net-(C7-Pad1)*
G04 #@! TO.C,L5*
G36*
X143777642Y-79311174D02*
X143801303Y-79314684D01*
X143824507Y-79320496D01*
X143847029Y-79328554D01*
X143868653Y-79338782D01*
X143889170Y-79351079D01*
X143908383Y-79365329D01*
X143926107Y-79381393D01*
X143942171Y-79399117D01*
X143956421Y-79418330D01*
X143968718Y-79438847D01*
X143978946Y-79460471D01*
X143987004Y-79482993D01*
X143992816Y-79506197D01*
X143996326Y-79529858D01*
X143997500Y-79553750D01*
X143997500Y-80466250D01*
X143996326Y-80490142D01*
X143992816Y-80513803D01*
X143987004Y-80537007D01*
X143978946Y-80559529D01*
X143968718Y-80581153D01*
X143956421Y-80601670D01*
X143942171Y-80620883D01*
X143926107Y-80638607D01*
X143908383Y-80654671D01*
X143889170Y-80668921D01*
X143868653Y-80681218D01*
X143847029Y-80691446D01*
X143824507Y-80699504D01*
X143801303Y-80705316D01*
X143777642Y-80708826D01*
X143753750Y-80710000D01*
X143266250Y-80710000D01*
X143242358Y-80708826D01*
X143218697Y-80705316D01*
X143195493Y-80699504D01*
X143172971Y-80691446D01*
X143151347Y-80681218D01*
X143130830Y-80668921D01*
X143111617Y-80654671D01*
X143093893Y-80638607D01*
X143077829Y-80620883D01*
X143063579Y-80601670D01*
X143051282Y-80581153D01*
X143041054Y-80559529D01*
X143032996Y-80537007D01*
X143027184Y-80513803D01*
X143023674Y-80490142D01*
X143022500Y-80466250D01*
X143022500Y-79553750D01*
X143023674Y-79529858D01*
X143027184Y-79506197D01*
X143032996Y-79482993D01*
X143041054Y-79460471D01*
X143051282Y-79438847D01*
X143063579Y-79418330D01*
X143077829Y-79399117D01*
X143093893Y-79381393D01*
X143111617Y-79365329D01*
X143130830Y-79351079D01*
X143151347Y-79338782D01*
X143172971Y-79328554D01*
X143195493Y-79320496D01*
X143218697Y-79314684D01*
X143242358Y-79311174D01*
X143266250Y-79310000D01*
X143753750Y-79310000D01*
X143777642Y-79311174D01*
X143777642Y-79311174D01*
G37*
D11*
G04 #@! TD*
G04 #@! TO.P,L5,1*
G04 #@! TO.N,Net-(C7-Pad1)*
X143510000Y-80010000D03*
D10*
G04 #@! TO.N,Net-(C10-Pad2)*
G04 #@! TO.C,L5*
G36*
X145652642Y-79311174D02*
X145676303Y-79314684D01*
X145699507Y-79320496D01*
X145722029Y-79328554D01*
X145743653Y-79338782D01*
X145764170Y-79351079D01*
X145783383Y-79365329D01*
X145801107Y-79381393D01*
X145817171Y-79399117D01*
X145831421Y-79418330D01*
X145843718Y-79438847D01*
X145853946Y-79460471D01*
X145862004Y-79482993D01*
X145867816Y-79506197D01*
X145871326Y-79529858D01*
X145872500Y-79553750D01*
X145872500Y-80466250D01*
X145871326Y-80490142D01*
X145867816Y-80513803D01*
X145862004Y-80537007D01*
X145853946Y-80559529D01*
X145843718Y-80581153D01*
X145831421Y-80601670D01*
X145817171Y-80620883D01*
X145801107Y-80638607D01*
X145783383Y-80654671D01*
X145764170Y-80668921D01*
X145743653Y-80681218D01*
X145722029Y-80691446D01*
X145699507Y-80699504D01*
X145676303Y-80705316D01*
X145652642Y-80708826D01*
X145628750Y-80710000D01*
X145141250Y-80710000D01*
X145117358Y-80708826D01*
X145093697Y-80705316D01*
X145070493Y-80699504D01*
X145047971Y-80691446D01*
X145026347Y-80681218D01*
X145005830Y-80668921D01*
X144986617Y-80654671D01*
X144968893Y-80638607D01*
X144952829Y-80620883D01*
X144938579Y-80601670D01*
X144926282Y-80581153D01*
X144916054Y-80559529D01*
X144907996Y-80537007D01*
X144902184Y-80513803D01*
X144898674Y-80490142D01*
X144897500Y-80466250D01*
X144897500Y-79553750D01*
X144898674Y-79529858D01*
X144902184Y-79506197D01*
X144907996Y-79482993D01*
X144916054Y-79460471D01*
X144926282Y-79438847D01*
X144938579Y-79418330D01*
X144952829Y-79399117D01*
X144968893Y-79381393D01*
X144986617Y-79365329D01*
X145005830Y-79351079D01*
X145026347Y-79338782D01*
X145047971Y-79328554D01*
X145070493Y-79320496D01*
X145093697Y-79314684D01*
X145117358Y-79311174D01*
X145141250Y-79310000D01*
X145628750Y-79310000D01*
X145652642Y-79311174D01*
X145652642Y-79311174D01*
G37*
D11*
G04 #@! TD*
G04 #@! TO.P,L5,2*
G04 #@! TO.N,Net-(C10-Pad2)*
X145385000Y-80010000D03*
D10*
G04 #@! TO.N,+5V*
G04 #@! TO.C,L6*
G36*
X149070142Y-83001174D02*
X149093803Y-83004684D01*
X149117007Y-83010496D01*
X149139529Y-83018554D01*
X149161153Y-83028782D01*
X149181670Y-83041079D01*
X149200883Y-83055329D01*
X149218607Y-83071393D01*
X149234671Y-83089117D01*
X149248921Y-83108330D01*
X149261218Y-83128847D01*
X149271446Y-83150471D01*
X149279504Y-83172993D01*
X149285316Y-83196197D01*
X149288826Y-83219858D01*
X149290000Y-83243750D01*
X149290000Y-83731250D01*
X149288826Y-83755142D01*
X149285316Y-83778803D01*
X149279504Y-83802007D01*
X149271446Y-83824529D01*
X149261218Y-83846153D01*
X149248921Y-83866670D01*
X149234671Y-83885883D01*
X149218607Y-83903607D01*
X149200883Y-83919671D01*
X149181670Y-83933921D01*
X149161153Y-83946218D01*
X149139529Y-83956446D01*
X149117007Y-83964504D01*
X149093803Y-83970316D01*
X149070142Y-83973826D01*
X149046250Y-83975000D01*
X148133750Y-83975000D01*
X148109858Y-83973826D01*
X148086197Y-83970316D01*
X148062993Y-83964504D01*
X148040471Y-83956446D01*
X148018847Y-83946218D01*
X147998330Y-83933921D01*
X147979117Y-83919671D01*
X147961393Y-83903607D01*
X147945329Y-83885883D01*
X147931079Y-83866670D01*
X147918782Y-83846153D01*
X147908554Y-83824529D01*
X147900496Y-83802007D01*
X147894684Y-83778803D01*
X147891174Y-83755142D01*
X147890000Y-83731250D01*
X147890000Y-83243750D01*
X147891174Y-83219858D01*
X147894684Y-83196197D01*
X147900496Y-83172993D01*
X147908554Y-83150471D01*
X147918782Y-83128847D01*
X147931079Y-83108330D01*
X147945329Y-83089117D01*
X147961393Y-83071393D01*
X147979117Y-83055329D01*
X147998330Y-83041079D01*
X148018847Y-83028782D01*
X148040471Y-83018554D01*
X148062993Y-83010496D01*
X148086197Y-83004684D01*
X148109858Y-83001174D01*
X148133750Y-83000000D01*
X149046250Y-83000000D01*
X149070142Y-83001174D01*
X149070142Y-83001174D01*
G37*
D11*
G04 #@! TD*
G04 #@! TO.P,L6,2*
G04 #@! TO.N,+5V*
X148590000Y-83487500D03*
D10*
G04 #@! TO.N,Net-(C10-Pad2)*
G04 #@! TO.C,L6*
G36*
X149070142Y-81126174D02*
X149093803Y-81129684D01*
X149117007Y-81135496D01*
X149139529Y-81143554D01*
X149161153Y-81153782D01*
X149181670Y-81166079D01*
X149200883Y-81180329D01*
X149218607Y-81196393D01*
X149234671Y-81214117D01*
X149248921Y-81233330D01*
X149261218Y-81253847D01*
X149271446Y-81275471D01*
X149279504Y-81297993D01*
X149285316Y-81321197D01*
X149288826Y-81344858D01*
X149290000Y-81368750D01*
X149290000Y-81856250D01*
X149288826Y-81880142D01*
X149285316Y-81903803D01*
X149279504Y-81927007D01*
X149271446Y-81949529D01*
X149261218Y-81971153D01*
X149248921Y-81991670D01*
X149234671Y-82010883D01*
X149218607Y-82028607D01*
X149200883Y-82044671D01*
X149181670Y-82058921D01*
X149161153Y-82071218D01*
X149139529Y-82081446D01*
X149117007Y-82089504D01*
X149093803Y-82095316D01*
X149070142Y-82098826D01*
X149046250Y-82100000D01*
X148133750Y-82100000D01*
X148109858Y-82098826D01*
X148086197Y-82095316D01*
X148062993Y-82089504D01*
X148040471Y-82081446D01*
X148018847Y-82071218D01*
X147998330Y-82058921D01*
X147979117Y-82044671D01*
X147961393Y-82028607D01*
X147945329Y-82010883D01*
X147931079Y-81991670D01*
X147918782Y-81971153D01*
X147908554Y-81949529D01*
X147900496Y-81927007D01*
X147894684Y-81903803D01*
X147891174Y-81880142D01*
X147890000Y-81856250D01*
X147890000Y-81368750D01*
X147891174Y-81344858D01*
X147894684Y-81321197D01*
X147900496Y-81297993D01*
X147908554Y-81275471D01*
X147918782Y-81253847D01*
X147931079Y-81233330D01*
X147945329Y-81214117D01*
X147961393Y-81196393D01*
X147979117Y-81180329D01*
X147998330Y-81166079D01*
X148018847Y-81153782D01*
X148040471Y-81143554D01*
X148062993Y-81135496D01*
X148086197Y-81129684D01*
X148109858Y-81126174D01*
X148133750Y-81125000D01*
X149046250Y-81125000D01*
X149070142Y-81126174D01*
X149070142Y-81126174D01*
G37*
D11*
G04 #@! TD*
G04 #@! TO.P,L6,1*
G04 #@! TO.N,Net-(C10-Pad2)*
X148590000Y-81612500D03*
D17*
G04 #@! TO.P,U1,1*
G04 #@! TO.N,Net-(U1-Pad1)*
X134112000Y-80060800D03*
G04 #@! TO.P,U1,2*
G04 #@! TO.N,Net-(C1-Pad1)*
X134112000Y-80695800D03*
G04 #@! TO.P,U1,3*
G04 #@! TO.N,Net-(C2-Pad2)*
X134112000Y-81356200D03*
G04 #@! TO.P,U1,4*
G04 #@! TO.N,Net-(U1-Pad4)*
X134112000Y-81991200D03*
D18*
G04 #@! TO.P,U1,5*
G04 #@! TO.N,+5V*
X134924800Y-82804000D03*
G04 #@! TO.P,U1,6*
X135559800Y-82804000D03*
G04 #@! TO.P,U1,7*
X136220200Y-82804000D03*
G04 #@! TO.P,U1,8*
G04 #@! TO.N,Net-(U1-Pad8)*
X136855200Y-82804000D03*
D17*
G04 #@! TO.P,U1,9*
G04 #@! TO.N,GND*
X137668000Y-81991200D03*
G04 #@! TO.P,U1,10*
G04 #@! TO.N,Net-(C8-Pad1)*
X137668000Y-81356200D03*
G04 #@! TO.P,U1,11*
G04 #@! TO.N,Net-(C7-Pad1)*
X137668000Y-80695800D03*
G04 #@! TO.P,U1,12*
G04 #@! TO.N,GND*
X137668000Y-80060800D03*
D18*
G04 #@! TO.P,U1,13*
G04 #@! TO.N,Net-(U1-Pad13)*
X136855200Y-79248000D03*
G04 #@! TO.P,U1,14*
G04 #@! TO.N,Net-(C3-Pad2)*
X136220200Y-79248000D03*
G04 #@! TO.P,U1,15*
G04 #@! TO.N,Net-(C5-Pad2)*
X135559800Y-79248000D03*
G04 #@! TO.P,U1,16*
G04 #@! TO.N,Net-(U1-Pad16)*
X134924800Y-79248000D03*
D19*
G04 #@! TO.P,U1,17*
G04 #@! TO.N,GND*
X135890000Y-81026000D03*
G04 #@! TD*
D20*
G04 #@! TO.P,U2,1*
G04 #@! TO.N,VDD*
X127050800Y-86690200D03*
G04 #@! TO.P,U2,2*
G04 #@! TO.N,GND*
X127050800Y-87630000D03*
G04 #@! TO.P,U2,3*
G04 #@! TO.N,VDD*
X127050800Y-88569800D03*
G04 #@! TO.P,U2,4*
G04 #@! TO.N,Net-(C12-Pad2)*
X129489200Y-88569800D03*
G04 #@! TO.P,U2,5*
G04 #@! TO.N,+5V*
X129489200Y-86690200D03*
G04 #@! TD*
D21*
G04 #@! TO.N,GND*
X131572000Y-68072000D03*
X131572000Y-69342000D03*
X131572000Y-70612000D03*
X130048000Y-70612000D03*
X130048000Y-69342000D03*
X130048000Y-68072000D03*
X138938000Y-67818000D03*
X138938000Y-69342000D03*
X138938000Y-70612000D03*
X137414000Y-70612000D03*
X137414000Y-69342000D03*
X137414000Y-67818000D03*
X160020000Y-77216000D03*
X159004000Y-77216000D03*
X157734000Y-77216000D03*
X157734000Y-78486000D03*
X159004000Y-78486000D03*
X160020000Y-78486000D03*
X160020000Y-84582000D03*
X159004000Y-84582000D03*
X157734000Y-84582000D03*
X157734000Y-85852000D03*
X159004000Y-85852000D03*
X160020000Y-85852000D03*
X136144000Y-89154000D03*
X134620000Y-89154000D03*
X141224000Y-76962000D03*
X122428000Y-87122000D03*
X116840000Y-76200000D03*
X118110000Y-76200000D03*
X119380000Y-76200000D03*
X119380000Y-77470000D03*
X118110000Y-77470000D03*
X116840000Y-77470000D03*
X116840000Y-83566000D03*
X118110000Y-83566000D03*
X119634000Y-83566000D03*
X119634000Y-84836000D03*
X118110000Y-84836000D03*
X116840000Y-84836000D03*
X126619000Y-75438000D03*
X135382000Y-81407000D03*
X136271000Y-81407000D03*
X136271000Y-80518000D03*
X135382000Y-80518000D03*
X137922000Y-82931000D03*
X137668000Y-83820000D03*
X138684000Y-83566000D03*
X137922000Y-78994000D03*
X138811000Y-78613000D03*
X138049000Y-78105000D03*
X125857000Y-74676000D03*
X126619000Y-75438000D03*
X126619000Y-75438000D03*
X125857000Y-76073000D03*
X129667000Y-83947000D03*
X129667000Y-84836000D03*
X122428000Y-82804000D03*
X123444000Y-83312000D03*
X124460000Y-82804000D03*
X122428000Y-85598000D03*
X121666000Y-86360000D03*
X141732000Y-76200000D03*
X141732000Y-77724000D03*
X139954000Y-74168000D03*
X140716000Y-74930000D03*
X139954000Y-75692000D03*
X131826000Y-83820000D03*
X137668000Y-85344000D03*
X138684000Y-85344000D03*
X133096000Y-89154000D03*
X137668000Y-89154000D03*
X139192000Y-89154000D03*
X141224000Y-89154000D03*
X142748000Y-89154000D03*
X144780000Y-89154000D03*
X146304000Y-89154000D03*
X147828000Y-89154000D03*
X145796000Y-86868000D03*
X146812000Y-87630000D03*
X147574000Y-86868000D03*
X149606000Y-89154000D03*
X153924000Y-89154000D03*
X155448000Y-89154000D03*
X156718000Y-89154000D03*
X158496000Y-89154000D03*
X160020000Y-88900000D03*
X160020000Y-87122000D03*
X160020000Y-74930000D03*
X160020000Y-73025000D03*
X160020000Y-71120000D03*
X160020000Y-69215000D03*
X158750000Y-67945000D03*
X157480000Y-67945000D03*
X155575000Y-67945000D03*
X153670000Y-67945000D03*
X151765000Y-67945000D03*
X149860000Y-67945000D03*
X147320000Y-67945000D03*
X144780000Y-67945000D03*
X142240000Y-67945000D03*
X128270000Y-67945000D03*
X126365000Y-67945000D03*
X124460000Y-67945000D03*
X122555000Y-67945000D03*
X120650000Y-67945000D03*
X118745000Y-67945000D03*
X116840000Y-67945000D03*
X116840000Y-69215000D03*
X116840000Y-70485000D03*
X116840000Y-71755000D03*
X116840000Y-73660000D03*
X121920000Y-78740000D03*
X123190000Y-78740000D03*
X124460000Y-78105000D03*
X125730000Y-77470000D03*
X130175000Y-78105000D03*
X131445000Y-78105000D03*
X132715000Y-78105000D03*
X132715000Y-76835000D03*
X132715000Y-75565000D03*
X132715000Y-74295000D03*
X132715000Y-73025000D03*
X136525000Y-72390000D03*
X136525000Y-73660000D03*
X138430000Y-76835000D03*
X125730000Y-83820000D03*
X127000000Y-83820000D03*
X128270000Y-83820000D03*
X140335000Y-78105000D03*
X146685000Y-78740000D03*
X147955000Y-79375000D03*
X149860000Y-79375000D03*
X151765000Y-79375000D03*
X153035000Y-79375000D03*
X154940000Y-79375000D03*
X151130000Y-83185000D03*
X152400000Y-83185000D03*
X153670000Y-83185000D03*
X154940000Y-83185000D03*
X150495000Y-85090000D03*
X153670000Y-85090000D03*
X155575000Y-86995000D03*
X143510000Y-71120000D03*
X147320000Y-71120000D03*
X151130000Y-71120000D03*
X154940000Y-71120000D03*
X154940000Y-74930000D03*
X151130000Y-74930000D03*
X147320000Y-74930000D03*
X143510000Y-74930000D03*
X119380000Y-71120000D03*
X121920000Y-71120000D03*
X125730000Y-71120000D03*
X129540000Y-72390000D03*
X121920000Y-73660000D03*
X119380000Y-73660000D03*
X130175000Y-76835000D03*
X130175000Y-75565000D03*
X129540000Y-73660000D03*
X127000000Y-73025000D03*
G04 #@! TD*
D22*
G04 #@! TO.N,Net-(C1-Pad2)*
X124955000Y-80348000D02*
X126395000Y-81788000D01*
X118237000Y-80348000D02*
X124955000Y-80348000D01*
X125041000Y-80348000D02*
X126395000Y-78994000D01*
X124955000Y-80348000D02*
X125041000Y-80348000D01*
G04 #@! TO.N,Net-(C1-Pad1)*
X128857500Y-78994000D02*
X129873500Y-80010000D01*
X128270000Y-78994000D02*
X128857500Y-78994000D01*
X129873500Y-80010000D02*
X132791199Y-80010000D01*
D23*
X134112000Y-80695800D02*
X133400800Y-80695800D01*
X132791199Y-80086199D02*
X132791199Y-80010000D01*
X133400800Y-80695800D02*
X132791199Y-80086199D01*
D22*
X128270000Y-78994000D02*
X128270000Y-75438000D01*
G04 #@! TO.N,Net-(C2-Pad2)*
X130810000Y-82550000D02*
X130810000Y-81788000D01*
X128270000Y-81788000D02*
X130810000Y-81788000D01*
X130810000Y-81788000D02*
X132791199Y-81788000D01*
D23*
X133674360Y-81356200D02*
X133674351Y-81356209D01*
X134112000Y-81356200D02*
X133674360Y-81356200D01*
X133222990Y-81356209D02*
X132791199Y-81788000D01*
X133674351Y-81356209D02*
X133222990Y-81356209D01*
D22*
G04 #@! TO.N,Net-(C3-Pad2)*
X136834887Y-75920113D02*
X136834887Y-77338017D01*
X137825000Y-74930000D02*
X136834887Y-75920113D01*
D23*
X136834887Y-77977567D02*
X136834887Y-77338017D01*
X136220200Y-78592254D02*
X136834887Y-77977567D01*
X136220200Y-79248000D02*
X136220200Y-78592254D01*
D24*
G04 #@! TO.N,+5V*
X141770000Y-85187000D02*
X140970000Y-85187000D01*
X147790000Y-83487500D02*
X146090500Y-85187000D01*
X148590000Y-83487500D02*
X147790000Y-83487500D01*
X143510000Y-86818500D02*
X143510000Y-85187000D01*
X143510000Y-87406000D02*
X143510000Y-86818500D01*
X146090500Y-85187000D02*
X143510000Y-85187000D01*
X143510000Y-85187000D02*
X141770000Y-85187000D01*
X143510000Y-87406000D02*
X136652000Y-87406000D01*
X130937000Y-86690200D02*
X134823200Y-82804000D01*
X129489200Y-86690200D02*
X130937000Y-86690200D01*
X134924800Y-82804000D02*
X136118599Y-82804000D01*
X135559800Y-86313800D02*
X135559800Y-82804000D01*
X136652000Y-87406000D02*
X135559800Y-86313800D01*
D22*
G04 #@! TO.N,Net-(C5-Pad2)*
X134620000Y-77134720D02*
X135412479Y-77927199D01*
X134620000Y-76200000D02*
X134620000Y-77134720D01*
D23*
X135559800Y-78074520D02*
X135412479Y-77927199D01*
X135559800Y-79248000D02*
X135559800Y-78074520D01*
D22*
G04 #@! TO.N,Net-(C5-Pad1)*
X134620000Y-74325000D02*
X134620000Y-70485000D01*
G04 #@! TO.N,Net-(C7-Pad1)*
X143510000Y-76962000D02*
X143510000Y-80010000D01*
D23*
X138988801Y-80182721D02*
X138988801Y-80010000D01*
X138475722Y-80695800D02*
X138988801Y-80182721D01*
X137668000Y-80695800D02*
X138475722Y-80695800D01*
D22*
X143510000Y-80010000D02*
X138988801Y-80010000D01*
G04 #@! TO.N,Net-(C10-Pad2)*
X146655000Y-81280000D02*
X151462500Y-81280000D01*
X145385000Y-82550000D02*
X146655000Y-81280000D01*
X145385000Y-80010000D02*
X146655000Y-81280000D01*
G04 #@! TO.N,Net-(C8-Pad1)*
X139700000Y-82550000D02*
X139065000Y-81915000D01*
X140970000Y-83312000D02*
X140970000Y-82550000D01*
X143510000Y-82550000D02*
X140970000Y-82550000D01*
X140970000Y-82550000D02*
X139700000Y-82550000D01*
D23*
X138709400Y-81356200D02*
X137668000Y-81356200D01*
X139065000Y-81711800D02*
X138709400Y-81356200D01*
X139065000Y-81915000D02*
X139065000Y-81711800D01*
D22*
G04 #@! TO.N,Net-(C10-Pad1)*
X153337500Y-81280000D02*
X157353000Y-81280000D01*
D24*
G04 #@! TO.N,VDD*
X127050800Y-88569800D02*
X124206000Y-88569800D01*
D22*
X119109489Y-88629489D02*
X124146311Y-88629489D01*
X118110000Y-87630000D02*
X119109489Y-88629489D01*
X124206000Y-88569800D02*
X124206000Y-86614000D01*
X124146311Y-88629489D02*
X124206000Y-88569800D01*
D24*
X124206000Y-86614000D02*
X126974600Y-86614000D01*
X126974600Y-86614000D02*
X127050800Y-86690200D01*
G04 #@! TO.N,Net-(C12-Pad2)*
X132558000Y-87406000D02*
X133985000Y-87406000D01*
X129489200Y-88569800D02*
X131394200Y-88569800D01*
X131394200Y-88569800D02*
X132558000Y-87406000D01*
G04 #@! TD*
D23*
G04 #@! TO.N,GND*
G36*
X122449145Y-81632855D02*
X122696259Y-81797971D01*
X122987750Y-81855952D01*
X123900250Y-81855952D01*
X124191741Y-81797971D01*
X124438855Y-81632855D01*
X124512777Y-81522222D01*
X125427971Y-82437417D01*
X125447529Y-82535741D01*
X125612645Y-82782855D01*
X125859759Y-82947971D01*
X126151250Y-83005952D01*
X126638750Y-83005952D01*
X126930241Y-82947971D01*
X127177355Y-82782855D01*
X127332500Y-82550664D01*
X127487645Y-82782855D01*
X127734759Y-82947971D01*
X128026250Y-83005952D01*
X128513750Y-83005952D01*
X128805241Y-82947971D01*
X128830640Y-82931000D01*
X129619349Y-82931000D01*
X129650029Y-83085241D01*
X129815145Y-83332355D01*
X130062259Y-83497471D01*
X130216588Y-83528169D01*
X130364024Y-83626682D01*
X130810000Y-83715392D01*
X131255975Y-83626682D01*
X131403411Y-83528169D01*
X131557741Y-83497471D01*
X131804855Y-83332355D01*
X131969971Y-83085241D01*
X132000651Y-82931000D01*
X132903771Y-82931000D01*
X133237175Y-82864682D01*
X133520472Y-82675390D01*
X133578600Y-82686952D01*
X133647091Y-82686952D01*
X130558244Y-85775800D01*
X129399140Y-85775800D01*
X129132419Y-85828854D01*
X129036645Y-85892848D01*
X128854200Y-85892848D01*
X128655988Y-85932275D01*
X128487953Y-86044553D01*
X128375675Y-86212588D01*
X128336248Y-86410800D01*
X128336248Y-86969600D01*
X128375675Y-87167812D01*
X128487953Y-87335847D01*
X128655988Y-87448125D01*
X128854200Y-87487552D01*
X129036645Y-87487552D01*
X129132419Y-87551546D01*
X129399140Y-87604600D01*
X130846941Y-87604600D01*
X130937000Y-87622514D01*
X131027059Y-87604600D01*
X131027060Y-87604600D01*
X131075973Y-87594871D01*
X131015444Y-87655400D01*
X129399140Y-87655400D01*
X129132419Y-87708454D01*
X129036645Y-87772448D01*
X128854200Y-87772448D01*
X128655988Y-87811875D01*
X128487953Y-87924153D01*
X128375675Y-88092188D01*
X128336248Y-88290400D01*
X128336248Y-88849200D01*
X128375675Y-89047412D01*
X128487953Y-89215447D01*
X128655988Y-89327725D01*
X128854200Y-89367152D01*
X129036645Y-89367152D01*
X129132419Y-89431146D01*
X129399140Y-89484200D01*
X131304141Y-89484200D01*
X131394200Y-89502114D01*
X131484259Y-89484200D01*
X131484260Y-89484200D01*
X131750981Y-89431146D01*
X132053446Y-89229046D01*
X132104464Y-89152692D01*
X132936757Y-88320400D01*
X133187765Y-88320400D01*
X133237259Y-88353471D01*
X133528750Y-88411452D01*
X134441250Y-88411452D01*
X134732741Y-88353471D01*
X134979855Y-88188355D01*
X135144971Y-87941241D01*
X135202952Y-87649750D01*
X135202952Y-87250108D01*
X135434048Y-87481204D01*
X135434048Y-87649750D01*
X135492029Y-87941241D01*
X135657145Y-88188355D01*
X135904259Y-88353471D01*
X136195750Y-88411452D01*
X137108250Y-88411452D01*
X137399741Y-88353471D01*
X137449235Y-88320400D01*
X139537765Y-88320400D01*
X139587259Y-88353471D01*
X139878750Y-88411452D01*
X140791250Y-88411452D01*
X141082741Y-88353471D01*
X141132235Y-88320400D01*
X142712765Y-88320400D01*
X142762259Y-88353471D01*
X143053750Y-88411452D01*
X143966250Y-88411452D01*
X144257741Y-88353471D01*
X144504855Y-88188355D01*
X144669971Y-87941241D01*
X144727952Y-87649750D01*
X144727952Y-87162250D01*
X144669971Y-86870759D01*
X144504855Y-86623645D01*
X144424400Y-86569887D01*
X144424400Y-86101400D01*
X146000441Y-86101400D01*
X146090500Y-86119314D01*
X146180559Y-86101400D01*
X146180560Y-86101400D01*
X146219606Y-86093633D01*
X146228750Y-86095452D01*
X147141250Y-86095452D01*
X147432741Y-86037471D01*
X147679855Y-85872355D01*
X147844971Y-85625241D01*
X147902952Y-85333750D01*
X147902952Y-84846250D01*
X147873329Y-84697327D01*
X148087003Y-84483654D01*
X148133750Y-84492952D01*
X149046250Y-84492952D01*
X149337741Y-84434971D01*
X149584855Y-84269855D01*
X149749971Y-84022741D01*
X149807952Y-83731250D01*
X149807952Y-83243750D01*
X149749971Y-82952259D01*
X149584855Y-82705145D01*
X149352664Y-82550000D01*
X149542733Y-82423000D01*
X150901860Y-82423000D01*
X150927259Y-82439971D01*
X151218750Y-82497952D01*
X151706250Y-82497952D01*
X151997741Y-82439971D01*
X152244855Y-82274855D01*
X152400000Y-82042664D01*
X152555145Y-82274855D01*
X152802259Y-82439971D01*
X153093750Y-82497952D01*
X153581250Y-82497952D01*
X153872741Y-82439971D01*
X153898140Y-82423000D01*
X155732048Y-82423000D01*
X155732048Y-82530000D01*
X155771475Y-82728212D01*
X155883753Y-82896247D01*
X156051788Y-83008525D01*
X156250000Y-83047952D01*
X160707001Y-83047952D01*
X160707001Y-89587000D01*
X124770639Y-89587000D01*
X124924491Y-89484200D01*
X127140860Y-89484200D01*
X127407581Y-89431146D01*
X127503355Y-89367152D01*
X127685800Y-89367152D01*
X127884012Y-89327725D01*
X128052047Y-89215447D01*
X128164325Y-89047412D01*
X128203752Y-88849200D01*
X128203752Y-88290400D01*
X128164325Y-88092188D01*
X128052047Y-87924153D01*
X127884012Y-87811875D01*
X127685800Y-87772448D01*
X127503355Y-87772448D01*
X127407581Y-87708454D01*
X127140860Y-87655400D01*
X125349000Y-87655400D01*
X125349000Y-87528400D01*
X126659380Y-87528400D01*
X126694019Y-87551545D01*
X127050799Y-87622514D01*
X127407581Y-87551545D01*
X127503353Y-87487552D01*
X127685800Y-87487552D01*
X127884012Y-87448125D01*
X128052047Y-87335847D01*
X128164325Y-87167812D01*
X128203752Y-86969600D01*
X128203752Y-86410800D01*
X128164325Y-86212588D01*
X128052047Y-86044553D01*
X127884012Y-85932275D01*
X127685800Y-85892848D01*
X127541197Y-85892848D01*
X127331381Y-85752654D01*
X127064660Y-85699600D01*
X127064659Y-85699600D01*
X126974600Y-85681686D01*
X126884541Y-85699600D01*
X125042113Y-85699600D01*
X124988355Y-85619145D01*
X124741241Y-85454029D01*
X124449750Y-85396048D01*
X123962250Y-85396048D01*
X123670759Y-85454029D01*
X123423645Y-85619145D01*
X123258529Y-85866259D01*
X123227831Y-86020591D01*
X123129319Y-86168024D01*
X123063001Y-86501428D01*
X123063001Y-87486489D01*
X119617490Y-87486489D01*
X119617490Y-87330142D01*
X119387988Y-86776076D01*
X118963924Y-86352012D01*
X118409858Y-86122510D01*
X117810142Y-86122510D01*
X117256076Y-86352012D01*
X116832012Y-86776076D01*
X116602510Y-87330142D01*
X116602510Y-87929858D01*
X116832012Y-88483924D01*
X117256076Y-88907988D01*
X117810142Y-89137490D01*
X118001044Y-89137490D01*
X118221663Y-89358109D01*
X118285432Y-89453546D01*
X118485161Y-89587000D01*
X116153000Y-89587000D01*
X116153000Y-82115952D01*
X120737000Y-82115952D01*
X120935212Y-82076525D01*
X121103247Y-81964247D01*
X121215525Y-81796212D01*
X121254952Y-81598000D01*
X121254952Y-81491000D01*
X122354361Y-81491000D01*
X122449145Y-81632855D01*
X122449145Y-81632855D01*
G37*
X122449145Y-81632855D02*
X122696259Y-81797971D01*
X122987750Y-81855952D01*
X123900250Y-81855952D01*
X124191741Y-81797971D01*
X124438855Y-81632855D01*
X124512777Y-81522222D01*
X125427971Y-82437417D01*
X125447529Y-82535741D01*
X125612645Y-82782855D01*
X125859759Y-82947971D01*
X126151250Y-83005952D01*
X126638750Y-83005952D01*
X126930241Y-82947971D01*
X127177355Y-82782855D01*
X127332500Y-82550664D01*
X127487645Y-82782855D01*
X127734759Y-82947971D01*
X128026250Y-83005952D01*
X128513750Y-83005952D01*
X128805241Y-82947971D01*
X128830640Y-82931000D01*
X129619349Y-82931000D01*
X129650029Y-83085241D01*
X129815145Y-83332355D01*
X130062259Y-83497471D01*
X130216588Y-83528169D01*
X130364024Y-83626682D01*
X130810000Y-83715392D01*
X131255975Y-83626682D01*
X131403411Y-83528169D01*
X131557741Y-83497471D01*
X131804855Y-83332355D01*
X131969971Y-83085241D01*
X132000651Y-82931000D01*
X132903771Y-82931000D01*
X133237175Y-82864682D01*
X133520472Y-82675390D01*
X133578600Y-82686952D01*
X133647091Y-82686952D01*
X130558244Y-85775800D01*
X129399140Y-85775800D01*
X129132419Y-85828854D01*
X129036645Y-85892848D01*
X128854200Y-85892848D01*
X128655988Y-85932275D01*
X128487953Y-86044553D01*
X128375675Y-86212588D01*
X128336248Y-86410800D01*
X128336248Y-86969600D01*
X128375675Y-87167812D01*
X128487953Y-87335847D01*
X128655988Y-87448125D01*
X128854200Y-87487552D01*
X129036645Y-87487552D01*
X129132419Y-87551546D01*
X129399140Y-87604600D01*
X130846941Y-87604600D01*
X130937000Y-87622514D01*
X131027059Y-87604600D01*
X131027060Y-87604600D01*
X131075973Y-87594871D01*
X131015444Y-87655400D01*
X129399140Y-87655400D01*
X129132419Y-87708454D01*
X129036645Y-87772448D01*
X128854200Y-87772448D01*
X128655988Y-87811875D01*
X128487953Y-87924153D01*
X128375675Y-88092188D01*
X128336248Y-88290400D01*
X128336248Y-88849200D01*
X128375675Y-89047412D01*
X128487953Y-89215447D01*
X128655988Y-89327725D01*
X128854200Y-89367152D01*
X129036645Y-89367152D01*
X129132419Y-89431146D01*
X129399140Y-89484200D01*
X131304141Y-89484200D01*
X131394200Y-89502114D01*
X131484259Y-89484200D01*
X131484260Y-89484200D01*
X131750981Y-89431146D01*
X132053446Y-89229046D01*
X132104464Y-89152692D01*
X132936757Y-88320400D01*
X133187765Y-88320400D01*
X133237259Y-88353471D01*
X133528750Y-88411452D01*
X134441250Y-88411452D01*
X134732741Y-88353471D01*
X134979855Y-88188355D01*
X135144971Y-87941241D01*
X135202952Y-87649750D01*
X135202952Y-87250108D01*
X135434048Y-87481204D01*
X135434048Y-87649750D01*
X135492029Y-87941241D01*
X135657145Y-88188355D01*
X135904259Y-88353471D01*
X136195750Y-88411452D01*
X137108250Y-88411452D01*
X137399741Y-88353471D01*
X137449235Y-88320400D01*
X139537765Y-88320400D01*
X139587259Y-88353471D01*
X139878750Y-88411452D01*
X140791250Y-88411452D01*
X141082741Y-88353471D01*
X141132235Y-88320400D01*
X142712765Y-88320400D01*
X142762259Y-88353471D01*
X143053750Y-88411452D01*
X143966250Y-88411452D01*
X144257741Y-88353471D01*
X144504855Y-88188355D01*
X144669971Y-87941241D01*
X144727952Y-87649750D01*
X144727952Y-87162250D01*
X144669971Y-86870759D01*
X144504855Y-86623645D01*
X144424400Y-86569887D01*
X144424400Y-86101400D01*
X146000441Y-86101400D01*
X146090500Y-86119314D01*
X146180559Y-86101400D01*
X146180560Y-86101400D01*
X146219606Y-86093633D01*
X146228750Y-86095452D01*
X147141250Y-86095452D01*
X147432741Y-86037471D01*
X147679855Y-85872355D01*
X147844971Y-85625241D01*
X147902952Y-85333750D01*
X147902952Y-84846250D01*
X147873329Y-84697327D01*
X148087003Y-84483654D01*
X148133750Y-84492952D01*
X149046250Y-84492952D01*
X149337741Y-84434971D01*
X149584855Y-84269855D01*
X149749971Y-84022741D01*
X149807952Y-83731250D01*
X149807952Y-83243750D01*
X149749971Y-82952259D01*
X149584855Y-82705145D01*
X149352664Y-82550000D01*
X149542733Y-82423000D01*
X150901860Y-82423000D01*
X150927259Y-82439971D01*
X151218750Y-82497952D01*
X151706250Y-82497952D01*
X151997741Y-82439971D01*
X152244855Y-82274855D01*
X152400000Y-82042664D01*
X152555145Y-82274855D01*
X152802259Y-82439971D01*
X153093750Y-82497952D01*
X153581250Y-82497952D01*
X153872741Y-82439971D01*
X153898140Y-82423000D01*
X155732048Y-82423000D01*
X155732048Y-82530000D01*
X155771475Y-82728212D01*
X155883753Y-82896247D01*
X156051788Y-83008525D01*
X156250000Y-83047952D01*
X160707001Y-83047952D01*
X160707001Y-89587000D01*
X124770639Y-89587000D01*
X124924491Y-89484200D01*
X127140860Y-89484200D01*
X127407581Y-89431146D01*
X127503355Y-89367152D01*
X127685800Y-89367152D01*
X127884012Y-89327725D01*
X128052047Y-89215447D01*
X128164325Y-89047412D01*
X128203752Y-88849200D01*
X128203752Y-88290400D01*
X128164325Y-88092188D01*
X128052047Y-87924153D01*
X127884012Y-87811875D01*
X127685800Y-87772448D01*
X127503355Y-87772448D01*
X127407581Y-87708454D01*
X127140860Y-87655400D01*
X125349000Y-87655400D01*
X125349000Y-87528400D01*
X126659380Y-87528400D01*
X126694019Y-87551545D01*
X127050799Y-87622514D01*
X127407581Y-87551545D01*
X127503353Y-87487552D01*
X127685800Y-87487552D01*
X127884012Y-87448125D01*
X128052047Y-87335847D01*
X128164325Y-87167812D01*
X128203752Y-86969600D01*
X128203752Y-86410800D01*
X128164325Y-86212588D01*
X128052047Y-86044553D01*
X127884012Y-85932275D01*
X127685800Y-85892848D01*
X127541197Y-85892848D01*
X127331381Y-85752654D01*
X127064660Y-85699600D01*
X127064659Y-85699600D01*
X126974600Y-85681686D01*
X126884541Y-85699600D01*
X125042113Y-85699600D01*
X124988355Y-85619145D01*
X124741241Y-85454029D01*
X124449750Y-85396048D01*
X123962250Y-85396048D01*
X123670759Y-85454029D01*
X123423645Y-85619145D01*
X123258529Y-85866259D01*
X123227831Y-86020591D01*
X123129319Y-86168024D01*
X123063001Y-86501428D01*
X123063001Y-87486489D01*
X119617490Y-87486489D01*
X119617490Y-87330142D01*
X119387988Y-86776076D01*
X118963924Y-86352012D01*
X118409858Y-86122510D01*
X117810142Y-86122510D01*
X117256076Y-86352012D01*
X116832012Y-86776076D01*
X116602510Y-87330142D01*
X116602510Y-87929858D01*
X116832012Y-88483924D01*
X117256076Y-88907988D01*
X117810142Y-89137490D01*
X118001044Y-89137490D01*
X118221663Y-89358109D01*
X118285432Y-89453546D01*
X118485161Y-89587000D01*
X116153000Y-89587000D01*
X116153000Y-82115952D01*
X120737000Y-82115952D01*
X120935212Y-82076525D01*
X121103247Y-81964247D01*
X121215525Y-81796212D01*
X121254952Y-81598000D01*
X121254952Y-81491000D01*
X122354361Y-81491000D01*
X122449145Y-81632855D01*
G36*
X137592952Y-82118200D02*
X137940027Y-82118200D01*
X137988319Y-82360976D01*
X138177177Y-82643622D01*
X138812173Y-83278618D01*
X138875943Y-83374057D01*
X139165483Y-83567521D01*
X139254023Y-83626682D01*
X139700000Y-83715392D01*
X139780613Y-83699357D01*
X139810029Y-83847241D01*
X139975145Y-84094355D01*
X140207336Y-84249500D01*
X139975145Y-84404645D01*
X139810029Y-84651759D01*
X139752048Y-84943250D01*
X139752048Y-85430750D01*
X139810029Y-85722241D01*
X139975145Y-85969355D01*
X140222259Y-86134471D01*
X140513750Y-86192452D01*
X141426250Y-86192452D01*
X141717741Y-86134471D01*
X141767235Y-86101400D01*
X142595600Y-86101400D01*
X142595600Y-86491600D01*
X141132235Y-86491600D01*
X141082741Y-86458529D01*
X140791250Y-86400548D01*
X139878750Y-86400548D01*
X139587259Y-86458529D01*
X139537765Y-86491600D01*
X137449235Y-86491600D01*
X137399741Y-86458529D01*
X137108250Y-86400548D01*
X136939705Y-86400548D01*
X136474200Y-85935044D01*
X136474200Y-83840195D01*
X136537700Y-83827564D01*
X136677400Y-83855352D01*
X137033000Y-83855352D01*
X137231212Y-83815925D01*
X137399247Y-83703647D01*
X137511525Y-83535612D01*
X137550952Y-83337400D01*
X137550952Y-82270600D01*
X137517659Y-82103223D01*
X137592952Y-82118200D01*
X137592952Y-82118200D01*
G37*
X137592952Y-82118200D02*
X137940027Y-82118200D01*
X137988319Y-82360976D01*
X138177177Y-82643622D01*
X138812173Y-83278618D01*
X138875943Y-83374057D01*
X139165483Y-83567521D01*
X139254023Y-83626682D01*
X139700000Y-83715392D01*
X139780613Y-83699357D01*
X139810029Y-83847241D01*
X139975145Y-84094355D01*
X140207336Y-84249500D01*
X139975145Y-84404645D01*
X139810029Y-84651759D01*
X139752048Y-84943250D01*
X139752048Y-85430750D01*
X139810029Y-85722241D01*
X139975145Y-85969355D01*
X140222259Y-86134471D01*
X140513750Y-86192452D01*
X141426250Y-86192452D01*
X141717741Y-86134471D01*
X141767235Y-86101400D01*
X142595600Y-86101400D01*
X142595600Y-86491600D01*
X141132235Y-86491600D01*
X141082741Y-86458529D01*
X140791250Y-86400548D01*
X139878750Y-86400548D01*
X139587259Y-86458529D01*
X139537765Y-86491600D01*
X137449235Y-86491600D01*
X137399741Y-86458529D01*
X137108250Y-86400548D01*
X136939705Y-86400548D01*
X136474200Y-85935044D01*
X136474200Y-83840195D01*
X136537700Y-83827564D01*
X136677400Y-83855352D01*
X137033000Y-83855352D01*
X137231212Y-83815925D01*
X137399247Y-83703647D01*
X137511525Y-83535612D01*
X137550952Y-83337400D01*
X137550952Y-82270600D01*
X137517659Y-82103223D01*
X137592952Y-82118200D01*
G36*
X136042400Y-80299352D02*
X136398000Y-80299352D01*
X136537700Y-80271564D01*
X136670630Y-80298005D01*
X136656075Y-80319788D01*
X136616648Y-80518000D01*
X136616648Y-80873600D01*
X136646962Y-81026000D01*
X136616648Y-81178400D01*
X136616648Y-81534000D01*
X136656075Y-81732212D01*
X136670630Y-81753995D01*
X136537700Y-81780436D01*
X136398000Y-81752648D01*
X136042400Y-81752648D01*
X135890000Y-81782962D01*
X135737600Y-81752648D01*
X135382000Y-81752648D01*
X135242300Y-81780436D01*
X135153273Y-81762727D01*
X135135564Y-81673700D01*
X135163352Y-81534000D01*
X135163352Y-81178400D01*
X135133038Y-81026000D01*
X135163352Y-80873600D01*
X135163352Y-80518000D01*
X135135564Y-80378300D01*
X135153273Y-80289273D01*
X135242300Y-80271564D01*
X135382000Y-80299352D01*
X135737600Y-80299352D01*
X135890000Y-80269038D01*
X136042400Y-80299352D01*
X136042400Y-80299352D01*
G37*
X136042400Y-80299352D02*
X136398000Y-80299352D01*
X136537700Y-80271564D01*
X136670630Y-80298005D01*
X136656075Y-80319788D01*
X136616648Y-80518000D01*
X136616648Y-80873600D01*
X136646962Y-81026000D01*
X136616648Y-81178400D01*
X136616648Y-81534000D01*
X136656075Y-81732212D01*
X136670630Y-81753995D01*
X136537700Y-81780436D01*
X136398000Y-81752648D01*
X136042400Y-81752648D01*
X135890000Y-81782962D01*
X135737600Y-81752648D01*
X135382000Y-81752648D01*
X135242300Y-81780436D01*
X135153273Y-81762727D01*
X135135564Y-81673700D01*
X135163352Y-81534000D01*
X135163352Y-81178400D01*
X135133038Y-81026000D01*
X135163352Y-80873600D01*
X135163352Y-80518000D01*
X135135564Y-80378300D01*
X135153273Y-80289273D01*
X135242300Y-80271564D01*
X135382000Y-80299352D01*
X135737600Y-80299352D01*
X135890000Y-80269038D01*
X136042400Y-80299352D01*
G36*
X160707001Y-79512048D02*
X156250000Y-79512048D01*
X156051788Y-79551475D01*
X155883753Y-79663753D01*
X155771475Y-79831788D01*
X155732048Y-80030000D01*
X155732048Y-80137000D01*
X153898140Y-80137000D01*
X153872741Y-80120029D01*
X153581250Y-80062048D01*
X153093750Y-80062048D01*
X152802259Y-80120029D01*
X152555145Y-80285145D01*
X152400000Y-80517336D01*
X152244855Y-80285145D01*
X151997741Y-80120029D01*
X151706250Y-80062048D01*
X151218750Y-80062048D01*
X150927259Y-80120029D01*
X150901860Y-80137000D01*
X147128446Y-80137000D01*
X146352029Y-79360584D01*
X146332471Y-79262259D01*
X146167355Y-79015145D01*
X145920241Y-78850029D01*
X145628750Y-78792048D01*
X145141250Y-78792048D01*
X144849759Y-78850029D01*
X144653000Y-78981499D01*
X144653000Y-76849428D01*
X144586682Y-76516024D01*
X144488169Y-76368588D01*
X144457471Y-76214259D01*
X144292355Y-75967145D01*
X144045241Y-75802029D01*
X143753750Y-75744048D01*
X143266250Y-75744048D01*
X142974759Y-75802029D01*
X142727645Y-75967145D01*
X142562529Y-76214259D01*
X142531831Y-76368589D01*
X142433318Y-76516025D01*
X142367000Y-76849429D01*
X142367001Y-78867000D01*
X138876229Y-78867000D01*
X138542825Y-78933318D01*
X138164744Y-79185943D01*
X137912119Y-79564024D01*
X137838566Y-79933800D01*
X137592952Y-79933800D01*
X137517659Y-79948777D01*
X137550952Y-79781400D01*
X137550952Y-78714600D01*
X137511525Y-78516388D01*
X137451416Y-78426429D01*
X137552675Y-78274884D01*
X137562265Y-78226673D01*
X137658944Y-78162074D01*
X137911569Y-77783993D01*
X137977887Y-77450589D01*
X137977887Y-76393558D01*
X138261917Y-76109529D01*
X138360241Y-76089971D01*
X138607355Y-75924855D01*
X138772471Y-75677741D01*
X138803169Y-75523410D01*
X138901681Y-75375977D01*
X138990392Y-74930001D01*
X138901681Y-74484024D01*
X138803169Y-74336591D01*
X138772471Y-74182259D01*
X138607355Y-73935145D01*
X138360241Y-73770029D01*
X138068750Y-73712048D01*
X137581250Y-73712048D01*
X137289759Y-73770029D01*
X137042645Y-73935145D01*
X136877529Y-74182259D01*
X136857971Y-74280583D01*
X136106269Y-75032286D01*
X136010830Y-75096056D01*
X135758205Y-75474138D01*
X135733980Y-75595928D01*
X135614855Y-75417645D01*
X135382664Y-75262500D01*
X135614855Y-75107355D01*
X135779971Y-74860241D01*
X135837952Y-74568750D01*
X135837952Y-74081250D01*
X135779971Y-73789759D01*
X135763000Y-73764360D01*
X135763000Y-72232952D01*
X135870000Y-72232952D01*
X136068212Y-72193525D01*
X136236247Y-72081247D01*
X136348525Y-71913212D01*
X136387952Y-71715000D01*
X136387952Y-67258000D01*
X160707000Y-67258000D01*
X160707001Y-79512048D01*
X160707001Y-79512048D01*
G37*
X160707001Y-79512048D02*
X156250000Y-79512048D01*
X156051788Y-79551475D01*
X155883753Y-79663753D01*
X155771475Y-79831788D01*
X155732048Y-80030000D01*
X155732048Y-80137000D01*
X153898140Y-80137000D01*
X153872741Y-80120029D01*
X153581250Y-80062048D01*
X153093750Y-80062048D01*
X152802259Y-80120029D01*
X152555145Y-80285145D01*
X152400000Y-80517336D01*
X152244855Y-80285145D01*
X151997741Y-80120029D01*
X151706250Y-80062048D01*
X151218750Y-80062048D01*
X150927259Y-80120029D01*
X150901860Y-80137000D01*
X147128446Y-80137000D01*
X146352029Y-79360584D01*
X146332471Y-79262259D01*
X146167355Y-79015145D01*
X145920241Y-78850029D01*
X145628750Y-78792048D01*
X145141250Y-78792048D01*
X144849759Y-78850029D01*
X144653000Y-78981499D01*
X144653000Y-76849428D01*
X144586682Y-76516024D01*
X144488169Y-76368588D01*
X144457471Y-76214259D01*
X144292355Y-75967145D01*
X144045241Y-75802029D01*
X143753750Y-75744048D01*
X143266250Y-75744048D01*
X142974759Y-75802029D01*
X142727645Y-75967145D01*
X142562529Y-76214259D01*
X142531831Y-76368589D01*
X142433318Y-76516025D01*
X142367000Y-76849429D01*
X142367001Y-78867000D01*
X138876229Y-78867000D01*
X138542825Y-78933318D01*
X138164744Y-79185943D01*
X137912119Y-79564024D01*
X137838566Y-79933800D01*
X137592952Y-79933800D01*
X137517659Y-79948777D01*
X137550952Y-79781400D01*
X137550952Y-78714600D01*
X137511525Y-78516388D01*
X137451416Y-78426429D01*
X137552675Y-78274884D01*
X137562265Y-78226673D01*
X137658944Y-78162074D01*
X137911569Y-77783993D01*
X137977887Y-77450589D01*
X137977887Y-76393558D01*
X138261917Y-76109529D01*
X138360241Y-76089971D01*
X138607355Y-75924855D01*
X138772471Y-75677741D01*
X138803169Y-75523410D01*
X138901681Y-75375977D01*
X138990392Y-74930001D01*
X138901681Y-74484024D01*
X138803169Y-74336591D01*
X138772471Y-74182259D01*
X138607355Y-73935145D01*
X138360241Y-73770029D01*
X138068750Y-73712048D01*
X137581250Y-73712048D01*
X137289759Y-73770029D01*
X137042645Y-73935145D01*
X136877529Y-74182259D01*
X136857971Y-74280583D01*
X136106269Y-75032286D01*
X136010830Y-75096056D01*
X135758205Y-75474138D01*
X135733980Y-75595928D01*
X135614855Y-75417645D01*
X135382664Y-75262500D01*
X135614855Y-75107355D01*
X135779971Y-74860241D01*
X135837952Y-74568750D01*
X135837952Y-74081250D01*
X135779971Y-73789759D01*
X135763000Y-73764360D01*
X135763000Y-72232952D01*
X135870000Y-72232952D01*
X136068212Y-72193525D01*
X136236247Y-72081247D01*
X136348525Y-71913212D01*
X136387952Y-71715000D01*
X136387952Y-67258000D01*
X160707000Y-67258000D01*
X160707001Y-79512048D01*
G36*
X132852048Y-71715000D02*
X132891475Y-71913212D01*
X133003753Y-72081247D01*
X133171788Y-72193525D01*
X133370000Y-72232952D01*
X133477001Y-72232952D01*
X133477000Y-73764360D01*
X133460029Y-73789759D01*
X133402048Y-74081250D01*
X133402048Y-74568750D01*
X133460029Y-74860241D01*
X133625145Y-75107355D01*
X133857336Y-75262500D01*
X133625145Y-75417645D01*
X133460029Y-75664759D01*
X133402048Y-75956250D01*
X133402048Y-76443750D01*
X133460029Y-76735241D01*
X133477000Y-76760640D01*
X133477000Y-77022149D01*
X133454608Y-77134720D01*
X133477000Y-77247291D01*
X133477000Y-77247292D01*
X133543318Y-77580696D01*
X133795944Y-77958777D01*
X133891380Y-78022545D01*
X134315238Y-78446403D01*
X134268475Y-78516388D01*
X134229048Y-78714600D01*
X134229048Y-79365048D01*
X133734930Y-79365048D01*
X133615256Y-79185943D01*
X133237175Y-78933318D01*
X132903771Y-78867000D01*
X130346946Y-78867000D01*
X129745327Y-78265382D01*
X129681557Y-78169943D01*
X129413000Y-77990499D01*
X129413000Y-75325428D01*
X129346682Y-74992024D01*
X129248169Y-74844588D01*
X129217471Y-74690259D01*
X129052355Y-74443145D01*
X128805241Y-74278029D01*
X128513750Y-74220048D01*
X128026250Y-74220048D01*
X127734759Y-74278029D01*
X127487645Y-74443145D01*
X127322529Y-74690259D01*
X127291831Y-74844591D01*
X127193319Y-74992024D01*
X127127001Y-75325428D01*
X127127000Y-77965499D01*
X126930241Y-77834029D01*
X126638750Y-77776048D01*
X126151250Y-77776048D01*
X125859759Y-77834029D01*
X125612645Y-77999145D01*
X125447529Y-78246259D01*
X125427971Y-78344583D01*
X124567555Y-79205000D01*
X121254952Y-79205000D01*
X121254952Y-79098000D01*
X121215525Y-78899788D01*
X121103247Y-78731753D01*
X120935212Y-78619475D01*
X120737000Y-78580048D01*
X116153000Y-78580048D01*
X116153000Y-67258000D01*
X132852048Y-67258000D01*
X132852048Y-71715000D01*
X132852048Y-71715000D01*
G37*
X132852048Y-71715000D02*
X132891475Y-71913212D01*
X133003753Y-72081247D01*
X133171788Y-72193525D01*
X133370000Y-72232952D01*
X133477001Y-72232952D01*
X133477000Y-73764360D01*
X133460029Y-73789759D01*
X133402048Y-74081250D01*
X133402048Y-74568750D01*
X133460029Y-74860241D01*
X133625145Y-75107355D01*
X133857336Y-75262500D01*
X133625145Y-75417645D01*
X133460029Y-75664759D01*
X133402048Y-75956250D01*
X133402048Y-76443750D01*
X133460029Y-76735241D01*
X133477000Y-76760640D01*
X133477000Y-77022149D01*
X133454608Y-77134720D01*
X133477000Y-77247291D01*
X133477000Y-77247292D01*
X133543318Y-77580696D01*
X133795944Y-77958777D01*
X133891380Y-78022545D01*
X134315238Y-78446403D01*
X134268475Y-78516388D01*
X134229048Y-78714600D01*
X134229048Y-79365048D01*
X133734930Y-79365048D01*
X133615256Y-79185943D01*
X133237175Y-78933318D01*
X132903771Y-78867000D01*
X130346946Y-78867000D01*
X129745327Y-78265382D01*
X129681557Y-78169943D01*
X129413000Y-77990499D01*
X129413000Y-75325428D01*
X129346682Y-74992024D01*
X129248169Y-74844588D01*
X129217471Y-74690259D01*
X129052355Y-74443145D01*
X128805241Y-74278029D01*
X128513750Y-74220048D01*
X128026250Y-74220048D01*
X127734759Y-74278029D01*
X127487645Y-74443145D01*
X127322529Y-74690259D01*
X127291831Y-74844591D01*
X127193319Y-74992024D01*
X127127001Y-75325428D01*
X127127000Y-77965499D01*
X126930241Y-77834029D01*
X126638750Y-77776048D01*
X126151250Y-77776048D01*
X125859759Y-77834029D01*
X125612645Y-77999145D01*
X125447529Y-78246259D01*
X125427971Y-78344583D01*
X124567555Y-79205000D01*
X121254952Y-79205000D01*
X121254952Y-79098000D01*
X121215525Y-78899788D01*
X121103247Y-78731753D01*
X120935212Y-78619475D01*
X120737000Y-78580048D01*
X116153000Y-78580048D01*
X116153000Y-67258000D01*
X132852048Y-67258000D01*
X132852048Y-71715000D01*
G04 #@! TD*
M02*
