G04 #@! TF.GenerationSoftware,KiCad,Pcbnew,5.0.2-bee76a0~70~ubuntu18.04.1*
G04 #@! TF.CreationDate,2019-03-07T22:18:03-05:00*
G04 #@! TF.ProjectId,mixer,6d697865-722e-46b6-9963-61645f706362,rev?*
G04 #@! TF.SameCoordinates,Original*
G04 #@! TF.FileFunction,Legend,Bot*
G04 #@! TF.FilePolarity,Positive*
%FSLAX46Y46*%
G04 Gerber Fmt 4.6, Leading zero omitted, Abs format (unit mm)*
G04 Created by KiCad (PCBNEW 5.0.2-bee76a0~70~ubuntu18.04.1) date Thu 07 Mar 2019 10:18:03 PM EST*
%MOMM*%
%LPD*%
G01*
G04 APERTURE LIST*
%ADD10C,0.300000*%
G04 APERTURE END LIST*
D10*
X128369000Y-88689571D02*
X128369000Y-87189571D01*
X127511857Y-88689571D01*
X127511857Y-87189571D01*
X126797571Y-88689571D02*
X126797571Y-87189571D01*
X126226142Y-87189571D01*
X126083285Y-87261000D01*
X126011857Y-87332428D01*
X125940428Y-87475285D01*
X125940428Y-87689571D01*
X126011857Y-87832428D01*
X126083285Y-87903857D01*
X126226142Y-87975285D01*
X126797571Y-87975285D01*
X124869000Y-87189571D02*
X124869000Y-88261000D01*
X124940428Y-88475285D01*
X125083285Y-88618142D01*
X125297571Y-88689571D01*
X125440428Y-88689571D01*
X157252142Y-75989571D02*
X157252142Y-74489571D01*
X156752142Y-75561000D01*
X156252142Y-74489571D01*
X156252142Y-75989571D01*
X154895000Y-75989571D02*
X154895000Y-75203857D01*
X154966428Y-75061000D01*
X155109285Y-74989571D01*
X155395000Y-74989571D01*
X155537857Y-75061000D01*
X154895000Y-75918142D02*
X155037857Y-75989571D01*
X155395000Y-75989571D01*
X155537857Y-75918142D01*
X155609285Y-75775285D01*
X155609285Y-75632428D01*
X155537857Y-75489571D01*
X155395000Y-75418142D01*
X155037857Y-75418142D01*
X154895000Y-75346714D01*
X154323571Y-75989571D02*
X153537857Y-74989571D01*
X154323571Y-74989571D02*
X153537857Y-75989571D01*
X151823571Y-75989571D02*
X151823571Y-74489571D01*
X151109285Y-74989571D02*
X151109285Y-75989571D01*
X151109285Y-75132428D02*
X151037857Y-75061000D01*
X150895000Y-74989571D01*
X150680714Y-74989571D01*
X150537857Y-75061000D01*
X150466428Y-75203857D01*
X150466428Y-75989571D01*
X149752142Y-74989571D02*
X149752142Y-76489571D01*
X149752142Y-75061000D02*
X149609285Y-74989571D01*
X149323571Y-74989571D01*
X149180714Y-75061000D01*
X149109285Y-75132428D01*
X149037857Y-75275285D01*
X149037857Y-75703857D01*
X149109285Y-75846714D01*
X149180714Y-75918142D01*
X149323571Y-75989571D01*
X149609285Y-75989571D01*
X149752142Y-75918142D01*
X147752142Y-74989571D02*
X147752142Y-75989571D01*
X148395000Y-74989571D02*
X148395000Y-75775285D01*
X148323571Y-75918142D01*
X148180714Y-75989571D01*
X147966428Y-75989571D01*
X147823571Y-75918142D01*
X147752142Y-75846714D01*
X147252142Y-74989571D02*
X146680714Y-74989571D01*
X147037857Y-74489571D02*
X147037857Y-75775285D01*
X146966428Y-75918142D01*
X146823571Y-75989571D01*
X146680714Y-75989571D01*
X145037857Y-75989571D02*
X145037857Y-74489571D01*
X144466428Y-74489571D01*
X144323571Y-74561000D01*
X144252142Y-74632428D01*
X144180714Y-74775285D01*
X144180714Y-74989571D01*
X144252142Y-75132428D01*
X144323571Y-75203857D01*
X144466428Y-75275285D01*
X145037857Y-75275285D01*
X143680714Y-74989571D02*
X143395000Y-75989571D01*
X143109285Y-75275285D01*
X142823571Y-75989571D01*
X142537857Y-74989571D01*
X141966428Y-75989571D02*
X141966428Y-74989571D01*
X141966428Y-75275285D02*
X141895000Y-75132428D01*
X141823571Y-75061000D01*
X141680714Y-74989571D01*
X141537857Y-74989571D01*
X141037857Y-75846714D02*
X140966428Y-75918142D01*
X141037857Y-75989571D01*
X141109285Y-75918142D01*
X141037857Y-75846714D01*
X141037857Y-75989571D01*
X141037857Y-75061000D02*
X140966428Y-75132428D01*
X141037857Y-75203857D01*
X141109285Y-75132428D01*
X141037857Y-75061000D01*
X141037857Y-75203857D01*
X138395000Y-75989571D02*
X139252142Y-75989571D01*
X138823571Y-75989571D02*
X138823571Y-74489571D01*
X138966428Y-74703857D01*
X139109285Y-74846714D01*
X139252142Y-74918142D01*
X137466428Y-74489571D02*
X137323571Y-74489571D01*
X137180714Y-74561000D01*
X137109285Y-74632428D01*
X137037857Y-74775285D01*
X136966428Y-75061000D01*
X136966428Y-75418142D01*
X137037857Y-75703857D01*
X137109285Y-75846714D01*
X137180714Y-75918142D01*
X137323571Y-75989571D01*
X137466428Y-75989571D01*
X137609285Y-75918142D01*
X137680714Y-75846714D01*
X137752142Y-75703857D01*
X137823571Y-75418142D01*
X137823571Y-75061000D01*
X137752142Y-74775285D01*
X137680714Y-74632428D01*
X137609285Y-74561000D01*
X137466428Y-74489571D01*
X134537857Y-75989571D02*
X134537857Y-74489571D01*
X134537857Y-75918142D02*
X134680714Y-75989571D01*
X134966428Y-75989571D01*
X135109285Y-75918142D01*
X135180714Y-75846714D01*
X135252142Y-75703857D01*
X135252142Y-75275285D01*
X135180714Y-75132428D01*
X135109285Y-75061000D01*
X134966428Y-74989571D01*
X134680714Y-74989571D01*
X134537857Y-75061000D01*
X133323571Y-75203857D02*
X133109285Y-75275285D01*
X133037857Y-75346714D01*
X132966428Y-75489571D01*
X132966428Y-75703857D01*
X133037857Y-75846714D01*
X133109285Y-75918142D01*
X133252142Y-75989571D01*
X133823571Y-75989571D01*
X133823571Y-74489571D01*
X133323571Y-74489571D01*
X133180714Y-74561000D01*
X133109285Y-74632428D01*
X133037857Y-74775285D01*
X133037857Y-74918142D01*
X133109285Y-75061000D01*
X133180714Y-75132428D01*
X133323571Y-75203857D01*
X133823571Y-75203857D01*
X132323571Y-75989571D02*
X132323571Y-74989571D01*
X132323571Y-75132428D02*
X132252142Y-75061000D01*
X132109285Y-74989571D01*
X131895000Y-74989571D01*
X131752142Y-75061000D01*
X131680714Y-75203857D01*
X131680714Y-75989571D01*
X131680714Y-75203857D02*
X131609285Y-75061000D01*
X131466428Y-74989571D01*
X131252142Y-74989571D01*
X131109285Y-75061000D01*
X131037857Y-75203857D01*
X131037857Y-75989571D01*
X157197428Y-73195571D02*
X157197428Y-71695571D01*
X156697428Y-72767000D01*
X156197428Y-71695571D01*
X156197428Y-73195571D01*
X154840285Y-73195571D02*
X154840285Y-72409857D01*
X154911714Y-72267000D01*
X155054571Y-72195571D01*
X155340285Y-72195571D01*
X155483142Y-72267000D01*
X154840285Y-73124142D02*
X154983142Y-73195571D01*
X155340285Y-73195571D01*
X155483142Y-73124142D01*
X155554571Y-72981285D01*
X155554571Y-72838428D01*
X155483142Y-72695571D01*
X155340285Y-72624142D01*
X154983142Y-72624142D01*
X154840285Y-72552714D01*
X154268857Y-73195571D02*
X153483142Y-72195571D01*
X154268857Y-72195571D02*
X153483142Y-73195571D01*
X151983142Y-71695571D02*
X151483142Y-73195571D01*
X150983142Y-71695571D01*
X150483142Y-73195571D02*
X150483142Y-72195571D01*
X150483142Y-71695571D02*
X150554571Y-71767000D01*
X150483142Y-71838428D01*
X150411714Y-71767000D01*
X150483142Y-71695571D01*
X150483142Y-71838428D01*
X149768857Y-72195571D02*
X149768857Y-73195571D01*
X149768857Y-72338428D02*
X149697428Y-72267000D01*
X149554571Y-72195571D01*
X149340285Y-72195571D01*
X149197428Y-72267000D01*
X149126000Y-72409857D01*
X149126000Y-73195571D01*
X148411714Y-73052714D02*
X148340285Y-73124142D01*
X148411714Y-73195571D01*
X148483142Y-73124142D01*
X148411714Y-73052714D01*
X148411714Y-73195571D01*
X148411714Y-72267000D02*
X148340285Y-72338428D01*
X148411714Y-72409857D01*
X148483142Y-72338428D01*
X148411714Y-72267000D01*
X148411714Y-72409857D01*
X145911714Y-71695571D02*
X146197428Y-71695571D01*
X146340285Y-71767000D01*
X146411714Y-71838428D01*
X146554571Y-72052714D01*
X146626000Y-72338428D01*
X146626000Y-72909857D01*
X146554571Y-73052714D01*
X146483142Y-73124142D01*
X146340285Y-73195571D01*
X146054571Y-73195571D01*
X145911714Y-73124142D01*
X145840285Y-73052714D01*
X145768857Y-72909857D01*
X145768857Y-72552714D01*
X145840285Y-72409857D01*
X145911714Y-72338428D01*
X146054571Y-72267000D01*
X146340285Y-72267000D01*
X146483142Y-72338428D01*
X146554571Y-72409857D01*
X146626000Y-72552714D01*
X145340285Y-71695571D02*
X144840285Y-73195571D01*
X144340285Y-71695571D01*
X156375857Y-70401571D02*
X156875857Y-69687285D01*
X157233000Y-70401571D02*
X157233000Y-68901571D01*
X156661571Y-68901571D01*
X156518714Y-68973000D01*
X156447285Y-69044428D01*
X156375857Y-69187285D01*
X156375857Y-69401571D01*
X156447285Y-69544428D01*
X156518714Y-69615857D01*
X156661571Y-69687285D01*
X157233000Y-69687285D01*
X155733000Y-69615857D02*
X155233000Y-69615857D01*
X155018714Y-70401571D02*
X155733000Y-70401571D01*
X155733000Y-68901571D01*
X155018714Y-68901571D01*
X153518714Y-70258714D02*
X153590142Y-70330142D01*
X153804428Y-70401571D01*
X153947285Y-70401571D01*
X154161571Y-70330142D01*
X154304428Y-70187285D01*
X154375857Y-70044428D01*
X154447285Y-69758714D01*
X154447285Y-69544428D01*
X154375857Y-69258714D01*
X154304428Y-69115857D01*
X154161571Y-68973000D01*
X153947285Y-68901571D01*
X153804428Y-68901571D01*
X153590142Y-68973000D01*
X153518714Y-69044428D01*
X152947285Y-69973000D02*
X152233000Y-69973000D01*
X153090142Y-70401571D02*
X152590142Y-68901571D01*
X152090142Y-70401571D01*
X151590142Y-70401571D02*
X151590142Y-68901571D01*
X151018714Y-68901571D01*
X150875857Y-68973000D01*
X150804428Y-69044428D01*
X150733000Y-69187285D01*
X150733000Y-69401571D01*
X150804428Y-69544428D01*
X150875857Y-69615857D01*
X151018714Y-69687285D01*
X151590142Y-69687285D01*
X150090142Y-70258714D02*
X150018714Y-70330142D01*
X150090142Y-70401571D01*
X150161571Y-70330142D01*
X150090142Y-70258714D01*
X150090142Y-70401571D01*
X150090142Y-69473000D02*
X150018714Y-69544428D01*
X150090142Y-69615857D01*
X150161571Y-69544428D01*
X150090142Y-69473000D01*
X150090142Y-69615857D01*
X148233000Y-70401571D02*
X148233000Y-68901571D01*
X147733000Y-69973000D01*
X147233000Y-68901571D01*
X147233000Y-70401571D01*
X146518714Y-70401571D02*
X146518714Y-68901571D01*
X145947285Y-68901571D02*
X144947285Y-70401571D01*
X144947285Y-68901571D02*
X145947285Y-70401571D01*
X144375857Y-69615857D02*
X143875857Y-69615857D01*
X143661571Y-70401571D02*
X144375857Y-70401571D01*
X144375857Y-68901571D01*
X143661571Y-68901571D01*
X142161571Y-70401571D02*
X142661571Y-69687285D01*
X143018714Y-70401571D02*
X143018714Y-68901571D01*
X142447285Y-68901571D01*
X142304428Y-68973000D01*
X142233000Y-69044428D01*
X142161571Y-69187285D01*
X142161571Y-69401571D01*
X142233000Y-69544428D01*
X142304428Y-69615857D01*
X142447285Y-69687285D01*
X143018714Y-69687285D01*
M02*
