M48
;DRILL file {KiCad 5.0.2-bee76a0~70~ubuntu18.04.1} date Thu 07 Mar 2019 10:18:17 PM EST
;FORMAT={-:-/ absolute / inch / decimal}
FMAT,2
INCH,TZ
T1C0.0130
T2C0.0315
%
G90
G05
T1
X4.6Y-2.675
X4.6Y-2.725
X4.6Y-2.775
X4.6Y-2.825
X4.6Y-2.9
X4.6Y-3.
X4.6Y-3.05
X4.6Y-3.29
X4.6Y-3.34
X4.65Y-3.
X4.65Y-3.05
X4.65Y-3.29
X4.65Y-3.34
X4.675Y-2.675
X4.7Y-2.8
X4.7Y-2.9
X4.7Y-3.
X4.7Y-3.05
X4.71Y-3.29
X4.71Y-3.34
X4.75Y-2.675
X4.79Y-3.4
X4.8Y-2.8
X4.8Y-2.9
X4.8Y-3.1
X4.82Y-3.26
X4.82Y-3.37
X4.82Y-3.43
X4.825Y-2.675
X4.85Y-3.1
X4.86Y-3.28
X4.9Y-2.675
X4.9Y-3.075
X4.9Y-3.26
X4.95Y-2.8
X4.95Y-3.05
X4.95Y-3.3
X4.955Y-2.94
X4.955Y-2.995
X4.975Y-2.675
X4.985Y-2.97
X4.985Y-2.97
X4.985Y-2.97
X5.Y-2.875
X5.Y-3.3
X5.05Y-2.675
X5.05Y-3.3
X5.1Y-2.85
X5.1Y-2.9
X5.105Y-3.305
X5.105Y-3.34
X5.12Y-2.68
X5.12Y-2.73
X5.12Y-2.78
X5.125Y-2.975
X5.125Y-3.025
X5.125Y-3.075
X5.175Y-3.075
X5.18Y-2.68
X5.18Y-2.73
X5.18Y-2.78
X5.19Y-3.3
X5.225Y-2.875
X5.225Y-2.925
X5.225Y-2.975
X5.225Y-3.025
X5.225Y-3.075
X5.24Y-3.51
X5.3Y-3.51
X5.33Y-3.17
X5.33Y-3.205
X5.36Y-3.51
X5.365Y-3.17
X5.365Y-3.205
X5.375Y-2.85
X5.375Y-2.9
X5.41Y-2.67
X5.41Y-2.73
X5.41Y-2.78
X5.42Y-3.3
X5.42Y-3.36
X5.42Y-3.51
X5.43Y-3.11
X5.43Y-3.265
X5.435Y-3.075
X5.45Y-3.025
X5.46Y-3.29
X5.46Y-3.36
X5.465Y-3.095
X5.47Y-2.67
X5.47Y-2.73
X5.47Y-2.78
X5.48Y-3.51
X5.51Y-2.92
X5.51Y-2.98
X5.525Y-3.075
X5.54Y-2.95
X5.56Y-3.03
X5.56Y-3.51
X5.58Y-3.
X5.58Y-3.06
X5.6Y-2.675
X5.62Y-3.51
X5.65Y-2.8
X5.65Y-2.95
X5.7Y-2.675
X5.7Y-3.51
X5.74Y-3.42
X5.76Y-3.51
X5.775Y-3.1
X5.78Y-3.45
X5.8Y-2.675
X5.8Y-2.8
X5.8Y-2.95
X5.81Y-3.42
X5.82Y-3.51
X5.825Y-3.125
X5.89Y-3.51
X5.9Y-2.675
X5.9Y-3.125
X5.925Y-3.35
X5.95Y-2.8
X5.95Y-2.95
X5.95Y-3.275
X5.975Y-2.675
X5.975Y-3.125
X6.Y-3.275
X6.025Y-3.125
X6.05Y-2.675
X6.05Y-3.275
X6.05Y-3.35
X6.06Y-3.51
X6.1Y-2.8
X6.1Y-2.95
X6.1Y-3.125
X6.1Y-3.275
X6.12Y-3.51
X6.125Y-2.675
X6.125Y-3.425
X6.17Y-3.51
X6.2Y-2.675
X6.21Y-3.04
X6.21Y-3.09
X6.21Y-3.33
X6.21Y-3.38
X6.24Y-3.51
X6.25Y-2.675
X6.26Y-3.04
X6.26Y-3.09
X6.26Y-3.33
X6.26Y-3.38
X6.3Y-2.725
X6.3Y-2.8
X6.3Y-2.875
X6.3Y-2.95
X6.3Y-3.04
X6.3Y-3.09
X6.3Y-3.33
X6.3Y-3.38
X6.3Y-3.43
X6.3Y-3.5
T2
X4.65Y-3.45
X5.975Y-3.45
T0
M30
