G04 #@! TF.GenerationSoftware,KiCad,Pcbnew,5.0.2-bee76a0~70~ubuntu18.04.1*
G04 #@! TF.CreationDate,2019-03-07T22:18:03-05:00*
G04 #@! TF.ProjectId,mixer,6d697865-722e-46b6-9963-61645f706362,rev?*
G04 #@! TF.SameCoordinates,Original*
G04 #@! TF.FileFunction,Legend,Top*
G04 #@! TF.FilePolarity,Positive*
%FSLAX46Y46*%
G04 Gerber Fmt 4.6, Leading zero omitted, Abs format (unit mm)*
G04 Created by KiCad (PCBNEW 5.0.2-bee76a0~70~ubuntu18.04.1) date Thu 07 Mar 2019 10:18:03 PM EST*
%MOMM*%
%LPD*%
G01*
G04 APERTURE LIST*
%ADD10C,0.300000*%
%ADD11C,0.200000*%
%ADD12C,0.120000*%
%ADD13C,0.152400*%
%ADD14C,0.150000*%
%ADD15C,0.050000*%
G04 APERTURE END LIST*
D10*
X165997571Y-83442357D02*
X165997571Y-83299500D01*
X166069000Y-83156642D01*
X166140428Y-83085214D01*
X166283285Y-83013785D01*
X166569000Y-82942357D01*
X166926142Y-82942357D01*
X167211857Y-83013785D01*
X167354714Y-83085214D01*
X167426142Y-83156642D01*
X167497571Y-83299500D01*
X167497571Y-83442357D01*
X167426142Y-83585214D01*
X167354714Y-83656642D01*
X167211857Y-83728071D01*
X166926142Y-83799500D01*
X166569000Y-83799500D01*
X166283285Y-83728071D01*
X166140428Y-83656642D01*
X166069000Y-83585214D01*
X165997571Y-83442357D01*
X167354714Y-82299500D02*
X167426142Y-82228071D01*
X167497571Y-82299500D01*
X167426142Y-82370928D01*
X167354714Y-82299500D01*
X167497571Y-82299500D01*
X167497571Y-81513785D02*
X167497571Y-81228071D01*
X167426142Y-81085214D01*
X167354714Y-81013785D01*
X167140428Y-80870928D01*
X166854714Y-80799500D01*
X166283285Y-80799500D01*
X166140428Y-80870928D01*
X166069000Y-80942357D01*
X165997571Y-81085214D01*
X165997571Y-81370928D01*
X166069000Y-81513785D01*
X166140428Y-81585214D01*
X166283285Y-81656642D01*
X166640428Y-81656642D01*
X166783285Y-81585214D01*
X166854714Y-81513785D01*
X166926142Y-81370928D01*
X166926142Y-81085214D01*
X166854714Y-80942357D01*
X166783285Y-80870928D01*
X166640428Y-80799500D01*
X166140428Y-80228071D02*
X166069000Y-80156642D01*
X165997571Y-80013785D01*
X165997571Y-79656642D01*
X166069000Y-79513785D01*
X166140428Y-79442357D01*
X166283285Y-79370928D01*
X166426142Y-79370928D01*
X166640428Y-79442357D01*
X167497571Y-80299500D01*
X167497571Y-79370928D01*
X165997571Y-78013785D02*
X165997571Y-78728071D01*
X166711857Y-78799500D01*
X166640428Y-78728071D01*
X166569000Y-78585214D01*
X166569000Y-78228071D01*
X166640428Y-78085214D01*
X166711857Y-78013785D01*
X166854714Y-77942357D01*
X167211857Y-77942357D01*
X167354714Y-78013785D01*
X167426142Y-78085214D01*
X167497571Y-78228071D01*
X167497571Y-78585214D01*
X167426142Y-78728071D01*
X167354714Y-78799500D01*
X165997571Y-77013785D02*
X165997571Y-76870928D01*
X166069000Y-76728071D01*
X166140428Y-76656642D01*
X166283285Y-76585214D01*
X166569000Y-76513785D01*
X166926142Y-76513785D01*
X167211857Y-76585214D01*
X167354714Y-76656642D01*
X167426142Y-76728071D01*
X167497571Y-76870928D01*
X167497571Y-77013785D01*
X167426142Y-77156642D01*
X167354714Y-77228071D01*
X167211857Y-77299500D01*
X166926142Y-77370928D01*
X166569000Y-77370928D01*
X166283285Y-77299500D01*
X166140428Y-77228071D01*
X166069000Y-77156642D01*
X165997571Y-77013785D01*
X167497571Y-74728071D02*
X166497571Y-74728071D01*
X165997571Y-74728071D02*
X166069000Y-74799500D01*
X166140428Y-74728071D01*
X166069000Y-74656642D01*
X165997571Y-74728071D01*
X166140428Y-74728071D01*
X166497571Y-74013785D02*
X167497571Y-74013785D01*
X166640428Y-74013785D02*
X166569000Y-73942357D01*
X166497571Y-73799500D01*
X166497571Y-73585214D01*
X166569000Y-73442357D01*
X166711857Y-73370928D01*
X167497571Y-73370928D01*
X164719000Y-90297000D02*
X164719000Y-66802000D01*
X164211000Y-90297000D02*
X165305421Y-90297000D01*
X164211000Y-66802000D02*
X165305421Y-66802000D01*
X164719000Y-66802000D02*
X165305421Y-67928504D01*
X164719000Y-66802000D02*
X164132579Y-67928504D01*
X164719000Y-90297000D02*
X165305421Y-89170496D01*
X164719000Y-90297000D02*
X164132579Y-89170496D01*
X134037142Y-96758571D02*
X133180000Y-96758571D01*
X133608571Y-96758571D02*
X133608571Y-95258571D01*
X133465714Y-95472857D01*
X133322857Y-95615714D01*
X133180000Y-95687142D01*
X134680000Y-96615714D02*
X134751428Y-96687142D01*
X134680000Y-96758571D01*
X134608571Y-96687142D01*
X134680000Y-96615714D01*
X134680000Y-96758571D01*
X135251428Y-95258571D02*
X136251428Y-95258571D01*
X135608571Y-96758571D01*
X136894285Y-96758571D02*
X137180000Y-96758571D01*
X137322857Y-96687142D01*
X137394285Y-96615714D01*
X137537142Y-96401428D01*
X137608571Y-96115714D01*
X137608571Y-95544285D01*
X137537142Y-95401428D01*
X137465714Y-95330000D01*
X137322857Y-95258571D01*
X137037142Y-95258571D01*
X136894285Y-95330000D01*
X136822857Y-95401428D01*
X136751428Y-95544285D01*
X136751428Y-95901428D01*
X136822857Y-96044285D01*
X136894285Y-96115714D01*
X137037142Y-96187142D01*
X137322857Y-96187142D01*
X137465714Y-96115714D01*
X137537142Y-96044285D01*
X137608571Y-95901428D01*
X138537142Y-95258571D02*
X138680000Y-95258571D01*
X138822857Y-95330000D01*
X138894285Y-95401428D01*
X138965714Y-95544285D01*
X139037142Y-95830000D01*
X139037142Y-96187142D01*
X138965714Y-96472857D01*
X138894285Y-96615714D01*
X138822857Y-96687142D01*
X138680000Y-96758571D01*
X138537142Y-96758571D01*
X138394285Y-96687142D01*
X138322857Y-96615714D01*
X138251428Y-96472857D01*
X138180000Y-96187142D01*
X138180000Y-95830000D01*
X138251428Y-95544285D01*
X138322857Y-95401428D01*
X138394285Y-95330000D01*
X138537142Y-95258571D01*
X139965714Y-95258571D02*
X140108571Y-95258571D01*
X140251428Y-95330000D01*
X140322857Y-95401428D01*
X140394285Y-95544285D01*
X140465714Y-95830000D01*
X140465714Y-96187142D01*
X140394285Y-96472857D01*
X140322857Y-96615714D01*
X140251428Y-96687142D01*
X140108571Y-96758571D01*
X139965714Y-96758571D01*
X139822857Y-96687142D01*
X139751428Y-96615714D01*
X139680000Y-96472857D01*
X139608571Y-96187142D01*
X139608571Y-95830000D01*
X139680000Y-95544285D01*
X139751428Y-95401428D01*
X139822857Y-95330000D01*
X139965714Y-95258571D01*
X142251428Y-96758571D02*
X142251428Y-95758571D01*
X142251428Y-95258571D02*
X142180000Y-95330000D01*
X142251428Y-95401428D01*
X142322857Y-95330000D01*
X142251428Y-95258571D01*
X142251428Y-95401428D01*
X142965714Y-95758571D02*
X142965714Y-96758571D01*
X142965714Y-95901428D02*
X143037142Y-95830000D01*
X143180000Y-95758571D01*
X143394285Y-95758571D01*
X143537142Y-95830000D01*
X143608571Y-95972857D01*
X143608571Y-96758571D01*
X115697000Y-93980000D02*
X161163000Y-93980000D01*
X115697000Y-93345000D02*
X115697000Y-94566421D01*
X161163000Y-93345000D02*
X161163000Y-94566421D01*
X161163000Y-93980000D02*
X160036496Y-94566421D01*
X161163000Y-93980000D02*
X160036496Y-93393579D01*
X115697000Y-93980000D02*
X116823504Y-94566421D01*
X115697000Y-93980000D02*
X116823504Y-93393579D01*
D11*
X132969000Y-80010000D02*
G75*
G03X132969000Y-80010000I-254000J0D01*
G01*
D12*
G04 #@! TO.C,C1*
X127591078Y-78284000D02*
X127073922Y-78284000D01*
X127591078Y-79704000D02*
X127073922Y-79704000D01*
G04 #@! TO.C,C2*
X130100000Y-83746078D02*
X130100000Y-83228922D01*
X131520000Y-83746078D02*
X131520000Y-83228922D01*
G04 #@! TO.C,C3*
X139021078Y-75640000D02*
X138503922Y-75640000D01*
X139021078Y-74220000D02*
X138503922Y-74220000D01*
G04 #@! TO.C,C4*
X142800000Y-88084922D02*
X142800000Y-88602078D01*
X144220000Y-88084922D02*
X144220000Y-88602078D01*
G04 #@! TO.C,C5*
X133910000Y-75003922D02*
X133910000Y-75521078D01*
X135330000Y-75003922D02*
X135330000Y-75521078D01*
G04 #@! TO.C,C6*
X141045000Y-88084922D02*
X141045000Y-88602078D01*
X139625000Y-88084922D02*
X139625000Y-88602078D01*
G04 #@! TO.C,C7*
X142831078Y-76252000D02*
X142313922Y-76252000D01*
X142831078Y-77672000D02*
X142313922Y-77672000D01*
G04 #@! TO.C,C8*
X144188922Y-83260000D02*
X144706078Y-83260000D01*
X144188922Y-81840000D02*
X144706078Y-81840000D01*
G04 #@! TO.C,C9*
X145975000Y-86286078D02*
X145975000Y-85768922D01*
X147395000Y-86286078D02*
X147395000Y-85768922D01*
G04 #@! TO.C,C10*
X152658578Y-81990000D02*
X152141422Y-81990000D01*
X152658578Y-80570000D02*
X152141422Y-80570000D01*
G04 #@! TO.C,C11*
X123527078Y-85904000D02*
X123009922Y-85904000D01*
X123527078Y-87324000D02*
X123009922Y-87324000D01*
G04 #@! TO.C,C12*
X134695000Y-88602078D02*
X134695000Y-88084922D01*
X133275000Y-88602078D02*
X133275000Y-88084922D01*
G04 #@! TO.C,C13*
X135942000Y-88602078D02*
X135942000Y-88084922D01*
X137362000Y-88602078D02*
X137362000Y-88084922D01*
G04 #@! TO.C,L1*
X124154000Y-82046578D02*
X124154000Y-81529422D01*
X122734000Y-82046578D02*
X122734000Y-81529422D01*
G04 #@! TO.C,L2*
X127073922Y-81078000D02*
X127591078Y-81078000D01*
X127073922Y-82498000D02*
X127591078Y-82498000D01*
G04 #@! TO.C,L3*
X127591078Y-76148000D02*
X127073922Y-76148000D01*
X127591078Y-74728000D02*
X127073922Y-74728000D01*
G04 #@! TO.C,L4*
X141680000Y-83990922D02*
X141680000Y-84508078D01*
X140260000Y-83990922D02*
X140260000Y-84508078D01*
G04 #@! TO.C,L5*
X144188922Y-79300000D02*
X144706078Y-79300000D01*
X144188922Y-80720000D02*
X144706078Y-80720000D01*
G04 #@! TO.C,L6*
X147880000Y-82291422D02*
X147880000Y-82808578D01*
X149300000Y-82291422D02*
X149300000Y-82808578D01*
D13*
G04 #@! TO.C,U1*
X138531600Y-81330800D02*
X139522200Y-81330800D01*
X137896600Y-79552800D02*
X137896600Y-79019400D01*
X137363200Y-83032600D02*
X137896600Y-83032600D01*
X134416800Y-79019400D02*
X133883400Y-79019400D01*
X133883400Y-83032600D02*
X134416800Y-83032600D01*
X137896600Y-83032600D02*
X137896600Y-82499200D01*
X137896600Y-79019400D02*
X137363200Y-79019400D01*
X133883400Y-79019400D02*
X133883400Y-79552800D01*
X133883400Y-82499200D02*
X133883400Y-83032600D01*
G04 #@! TO.C,C1*
D14*
X127165833Y-77827142D02*
X127118214Y-77874761D01*
X126975357Y-77922380D01*
X126880119Y-77922380D01*
X126737261Y-77874761D01*
X126642023Y-77779523D01*
X126594404Y-77684285D01*
X126546785Y-77493809D01*
X126546785Y-77350952D01*
X126594404Y-77160476D01*
X126642023Y-77065238D01*
X126737261Y-76970000D01*
X126880119Y-76922380D01*
X126975357Y-76922380D01*
X127118214Y-76970000D01*
X127165833Y-77017619D01*
X128118214Y-77922380D02*
X127546785Y-77922380D01*
X127832500Y-77922380D02*
X127832500Y-76922380D01*
X127737261Y-77065238D01*
X127642023Y-77160476D01*
X127546785Y-77208095D01*
G04 #@! TO.C,C2*
X129517142Y-83654166D02*
X129564761Y-83701785D01*
X129612380Y-83844642D01*
X129612380Y-83939880D01*
X129564761Y-84082738D01*
X129469523Y-84177976D01*
X129374285Y-84225595D01*
X129183809Y-84273214D01*
X129040952Y-84273214D01*
X128850476Y-84225595D01*
X128755238Y-84177976D01*
X128660000Y-84082738D01*
X128612380Y-83939880D01*
X128612380Y-83844642D01*
X128660000Y-83701785D01*
X128707619Y-83654166D01*
X128707619Y-83273214D02*
X128660000Y-83225595D01*
X128612380Y-83130357D01*
X128612380Y-82892261D01*
X128660000Y-82797023D01*
X128707619Y-82749404D01*
X128802857Y-82701785D01*
X128898095Y-82701785D01*
X129040952Y-82749404D01*
X129612380Y-83320833D01*
X129612380Y-82701785D01*
G04 #@! TO.C,C3*
X138595833Y-76937142D02*
X138548214Y-76984761D01*
X138405357Y-77032380D01*
X138310119Y-77032380D01*
X138167261Y-76984761D01*
X138072023Y-76889523D01*
X138024404Y-76794285D01*
X137976785Y-76603809D01*
X137976785Y-76460952D01*
X138024404Y-76270476D01*
X138072023Y-76175238D01*
X138167261Y-76080000D01*
X138310119Y-76032380D01*
X138405357Y-76032380D01*
X138548214Y-76080000D01*
X138595833Y-76127619D01*
X138929166Y-76032380D02*
X139548214Y-76032380D01*
X139214880Y-76413333D01*
X139357738Y-76413333D01*
X139452976Y-76460952D01*
X139500595Y-76508571D01*
X139548214Y-76603809D01*
X139548214Y-76841904D01*
X139500595Y-76937142D01*
X139452976Y-76984761D01*
X139357738Y-77032380D01*
X139072023Y-77032380D01*
X138976785Y-76984761D01*
X138929166Y-76937142D01*
G04 #@! TO.C,C4*
X145517142Y-88510166D02*
X145564761Y-88557785D01*
X145612380Y-88700642D01*
X145612380Y-88795880D01*
X145564761Y-88938738D01*
X145469523Y-89033976D01*
X145374285Y-89081595D01*
X145183809Y-89129214D01*
X145040952Y-89129214D01*
X144850476Y-89081595D01*
X144755238Y-89033976D01*
X144660000Y-88938738D01*
X144612380Y-88795880D01*
X144612380Y-88700642D01*
X144660000Y-88557785D01*
X144707619Y-88510166D01*
X144945714Y-87653023D02*
X145612380Y-87653023D01*
X144564761Y-87891119D02*
X145279047Y-88129214D01*
X145279047Y-87510166D01*
G04 #@! TO.C,C5*
X136627142Y-75429166D02*
X136674761Y-75476785D01*
X136722380Y-75619642D01*
X136722380Y-75714880D01*
X136674761Y-75857738D01*
X136579523Y-75952976D01*
X136484285Y-76000595D01*
X136293809Y-76048214D01*
X136150952Y-76048214D01*
X135960476Y-76000595D01*
X135865238Y-75952976D01*
X135770000Y-75857738D01*
X135722380Y-75714880D01*
X135722380Y-75619642D01*
X135770000Y-75476785D01*
X135817619Y-75429166D01*
X135722380Y-74524404D02*
X135722380Y-75000595D01*
X136198571Y-75048214D01*
X136150952Y-75000595D01*
X136103333Y-74905357D01*
X136103333Y-74667261D01*
X136150952Y-74572023D01*
X136198571Y-74524404D01*
X136293809Y-74476785D01*
X136531904Y-74476785D01*
X136627142Y-74524404D01*
X136674761Y-74572023D01*
X136722380Y-74667261D01*
X136722380Y-74905357D01*
X136674761Y-75000595D01*
X136627142Y-75048214D01*
G04 #@! TO.C,C6*
X142342142Y-88510166D02*
X142389761Y-88557785D01*
X142437380Y-88700642D01*
X142437380Y-88795880D01*
X142389761Y-88938738D01*
X142294523Y-89033976D01*
X142199285Y-89081595D01*
X142008809Y-89129214D01*
X141865952Y-89129214D01*
X141675476Y-89081595D01*
X141580238Y-89033976D01*
X141485000Y-88938738D01*
X141437380Y-88795880D01*
X141437380Y-88700642D01*
X141485000Y-88557785D01*
X141532619Y-88510166D01*
X141437380Y-87653023D02*
X141437380Y-87843500D01*
X141485000Y-87938738D01*
X141532619Y-87986357D01*
X141675476Y-88081595D01*
X141865952Y-88129214D01*
X142246904Y-88129214D01*
X142342142Y-88081595D01*
X142389761Y-88033976D01*
X142437380Y-87938738D01*
X142437380Y-87748261D01*
X142389761Y-87653023D01*
X142342142Y-87605404D01*
X142246904Y-87557785D01*
X142008809Y-87557785D01*
X141913571Y-87605404D01*
X141865952Y-87653023D01*
X141818333Y-87748261D01*
X141818333Y-87938738D01*
X141865952Y-88033976D01*
X141913571Y-88081595D01*
X142008809Y-88129214D01*
G04 #@! TO.C,C7*
X142405833Y-75795142D02*
X142358214Y-75842761D01*
X142215357Y-75890380D01*
X142120119Y-75890380D01*
X141977261Y-75842761D01*
X141882023Y-75747523D01*
X141834404Y-75652285D01*
X141786785Y-75461809D01*
X141786785Y-75318952D01*
X141834404Y-75128476D01*
X141882023Y-75033238D01*
X141977261Y-74938000D01*
X142120119Y-74890380D01*
X142215357Y-74890380D01*
X142358214Y-74938000D01*
X142405833Y-74985619D01*
X142739166Y-74890380D02*
X143405833Y-74890380D01*
X142977261Y-75890380D01*
G04 #@! TO.C,C8*
X144280833Y-84431142D02*
X144233214Y-84478761D01*
X144090357Y-84526380D01*
X143995119Y-84526380D01*
X143852261Y-84478761D01*
X143757023Y-84383523D01*
X143709404Y-84288285D01*
X143661785Y-84097809D01*
X143661785Y-83954952D01*
X143709404Y-83764476D01*
X143757023Y-83669238D01*
X143852261Y-83574000D01*
X143995119Y-83526380D01*
X144090357Y-83526380D01*
X144233214Y-83574000D01*
X144280833Y-83621619D01*
X144852261Y-83954952D02*
X144757023Y-83907333D01*
X144709404Y-83859714D01*
X144661785Y-83764476D01*
X144661785Y-83716857D01*
X144709404Y-83621619D01*
X144757023Y-83574000D01*
X144852261Y-83526380D01*
X145042738Y-83526380D01*
X145137976Y-83574000D01*
X145185595Y-83621619D01*
X145233214Y-83716857D01*
X145233214Y-83764476D01*
X145185595Y-83859714D01*
X145137976Y-83907333D01*
X145042738Y-83954952D01*
X144852261Y-83954952D01*
X144757023Y-84002571D01*
X144709404Y-84050190D01*
X144661785Y-84145428D01*
X144661785Y-84335904D01*
X144709404Y-84431142D01*
X144757023Y-84478761D01*
X144852261Y-84526380D01*
X145042738Y-84526380D01*
X145137976Y-84478761D01*
X145185595Y-84431142D01*
X145233214Y-84335904D01*
X145233214Y-84145428D01*
X145185595Y-84050190D01*
X145137976Y-84002571D01*
X145042738Y-83954952D01*
G04 #@! TO.C,C9*
X145392142Y-86194166D02*
X145439761Y-86241785D01*
X145487380Y-86384642D01*
X145487380Y-86479880D01*
X145439761Y-86622738D01*
X145344523Y-86717976D01*
X145249285Y-86765595D01*
X145058809Y-86813214D01*
X144915952Y-86813214D01*
X144725476Y-86765595D01*
X144630238Y-86717976D01*
X144535000Y-86622738D01*
X144487380Y-86479880D01*
X144487380Y-86384642D01*
X144535000Y-86241785D01*
X144582619Y-86194166D01*
X145487380Y-85717976D02*
X145487380Y-85527500D01*
X145439761Y-85432261D01*
X145392142Y-85384642D01*
X145249285Y-85289404D01*
X145058809Y-85241785D01*
X144677857Y-85241785D01*
X144582619Y-85289404D01*
X144535000Y-85337023D01*
X144487380Y-85432261D01*
X144487380Y-85622738D01*
X144535000Y-85717976D01*
X144582619Y-85765595D01*
X144677857Y-85813214D01*
X144915952Y-85813214D01*
X145011190Y-85765595D01*
X145058809Y-85717976D01*
X145106428Y-85622738D01*
X145106428Y-85432261D01*
X145058809Y-85337023D01*
X145011190Y-85289404D01*
X144915952Y-85241785D01*
G04 #@! TO.C,C10*
X151757142Y-83287142D02*
X151709523Y-83334761D01*
X151566666Y-83382380D01*
X151471428Y-83382380D01*
X151328571Y-83334761D01*
X151233333Y-83239523D01*
X151185714Y-83144285D01*
X151138095Y-82953809D01*
X151138095Y-82810952D01*
X151185714Y-82620476D01*
X151233333Y-82525238D01*
X151328571Y-82430000D01*
X151471428Y-82382380D01*
X151566666Y-82382380D01*
X151709523Y-82430000D01*
X151757142Y-82477619D01*
X152709523Y-83382380D02*
X152138095Y-83382380D01*
X152423809Y-83382380D02*
X152423809Y-82382380D01*
X152328571Y-82525238D01*
X152233333Y-82620476D01*
X152138095Y-82668095D01*
X153328571Y-82382380D02*
X153423809Y-82382380D01*
X153519047Y-82430000D01*
X153566666Y-82477619D01*
X153614285Y-82572857D01*
X153661904Y-82763333D01*
X153661904Y-83001428D01*
X153614285Y-83191904D01*
X153566666Y-83287142D01*
X153519047Y-83334761D01*
X153423809Y-83382380D01*
X153328571Y-83382380D01*
X153233333Y-83334761D01*
X153185714Y-83287142D01*
X153138095Y-83191904D01*
X153090476Y-83001428D01*
X153090476Y-82763333D01*
X153138095Y-82572857D01*
X153185714Y-82477619D01*
X153233333Y-82430000D01*
X153328571Y-82382380D01*
G04 #@! TO.C,C11*
X122625642Y-85066142D02*
X122578023Y-85113761D01*
X122435166Y-85161380D01*
X122339928Y-85161380D01*
X122197071Y-85113761D01*
X122101833Y-85018523D01*
X122054214Y-84923285D01*
X122006595Y-84732809D01*
X122006595Y-84589952D01*
X122054214Y-84399476D01*
X122101833Y-84304238D01*
X122197071Y-84209000D01*
X122339928Y-84161380D01*
X122435166Y-84161380D01*
X122578023Y-84209000D01*
X122625642Y-84256619D01*
X123578023Y-85161380D02*
X123006595Y-85161380D01*
X123292309Y-85161380D02*
X123292309Y-84161380D01*
X123197071Y-84304238D01*
X123101833Y-84399476D01*
X123006595Y-84447095D01*
X124530404Y-85161380D02*
X123958976Y-85161380D01*
X124244690Y-85161380D02*
X124244690Y-84161380D01*
X124149452Y-84304238D01*
X124054214Y-84399476D01*
X123958976Y-84447095D01*
G04 #@! TO.C,C12*
X132692142Y-88986357D02*
X132739761Y-89033976D01*
X132787380Y-89176833D01*
X132787380Y-89272071D01*
X132739761Y-89414928D01*
X132644523Y-89510166D01*
X132549285Y-89557785D01*
X132358809Y-89605404D01*
X132215952Y-89605404D01*
X132025476Y-89557785D01*
X131930238Y-89510166D01*
X131835000Y-89414928D01*
X131787380Y-89272071D01*
X131787380Y-89176833D01*
X131835000Y-89033976D01*
X131882619Y-88986357D01*
X132787380Y-88033976D02*
X132787380Y-88605404D01*
X132787380Y-88319690D02*
X131787380Y-88319690D01*
X131930238Y-88414928D01*
X132025476Y-88510166D01*
X132073095Y-88605404D01*
X131882619Y-87653023D02*
X131835000Y-87605404D01*
X131787380Y-87510166D01*
X131787380Y-87272071D01*
X131835000Y-87176833D01*
X131882619Y-87129214D01*
X131977857Y-87081595D01*
X132073095Y-87081595D01*
X132215952Y-87129214D01*
X132787380Y-87700642D01*
X132787380Y-87081595D01*
G04 #@! TO.C,C13*
X138914142Y-88986357D02*
X138961761Y-89033976D01*
X139009380Y-89176833D01*
X139009380Y-89272071D01*
X138961761Y-89414928D01*
X138866523Y-89510166D01*
X138771285Y-89557785D01*
X138580809Y-89605404D01*
X138437952Y-89605404D01*
X138247476Y-89557785D01*
X138152238Y-89510166D01*
X138057000Y-89414928D01*
X138009380Y-89272071D01*
X138009380Y-89176833D01*
X138057000Y-89033976D01*
X138104619Y-88986357D01*
X139009380Y-88033976D02*
X139009380Y-88605404D01*
X139009380Y-88319690D02*
X138009380Y-88319690D01*
X138152238Y-88414928D01*
X138247476Y-88510166D01*
X138295095Y-88605404D01*
X138009380Y-87700642D02*
X138009380Y-87081595D01*
X138390333Y-87414928D01*
X138390333Y-87272071D01*
X138437952Y-87176833D01*
X138485571Y-87129214D01*
X138580809Y-87081595D01*
X138818904Y-87081595D01*
X138914142Y-87129214D01*
X138961761Y-87176833D01*
X139009380Y-87272071D01*
X139009380Y-87557785D01*
X138961761Y-87653023D01*
X138914142Y-87700642D01*
G04 #@! TO.C,RF-IN*
X117372000Y-74450380D02*
X117038666Y-73974190D01*
X116800571Y-74450380D02*
X116800571Y-73450380D01*
X117181523Y-73450380D01*
X117276761Y-73498000D01*
X117324380Y-73545619D01*
X117372000Y-73640857D01*
X117372000Y-73783714D01*
X117324380Y-73878952D01*
X117276761Y-73926571D01*
X117181523Y-73974190D01*
X116800571Y-73974190D01*
X118133904Y-73926571D02*
X117800571Y-73926571D01*
X117800571Y-74450380D02*
X117800571Y-73450380D01*
X118276761Y-73450380D01*
X118657714Y-74069428D02*
X119419619Y-74069428D01*
X119895809Y-74450380D02*
X119895809Y-73450380D01*
X120372000Y-74450380D02*
X120372000Y-73450380D01*
X120943428Y-74450380D01*
X120943428Y-73450380D01*
G04 #@! TO.C,J2*
X140522380Y-69548333D02*
X141236666Y-69548333D01*
X141379523Y-69595952D01*
X141474761Y-69691190D01*
X141522380Y-69834047D01*
X141522380Y-69929285D01*
X140617619Y-69119761D02*
X140570000Y-69072142D01*
X140522380Y-68976904D01*
X140522380Y-68738809D01*
X140570000Y-68643571D01*
X140617619Y-68595952D01*
X140712857Y-68548333D01*
X140808095Y-68548333D01*
X140950952Y-68595952D01*
X141522380Y-69167380D01*
X141522380Y-68548333D01*
G04 #@! TO.C,RF-OUT*
X155313333Y-75382380D02*
X154980000Y-74906190D01*
X154741904Y-75382380D02*
X154741904Y-74382380D01*
X155122857Y-74382380D01*
X155218095Y-74430000D01*
X155265714Y-74477619D01*
X155313333Y-74572857D01*
X155313333Y-74715714D01*
X155265714Y-74810952D01*
X155218095Y-74858571D01*
X155122857Y-74906190D01*
X154741904Y-74906190D01*
X156075238Y-74858571D02*
X155741904Y-74858571D01*
X155741904Y-75382380D02*
X155741904Y-74382380D01*
X156218095Y-74382380D01*
X156599047Y-75001428D02*
X157360952Y-75001428D01*
X158027619Y-74382380D02*
X158218095Y-74382380D01*
X158313333Y-74430000D01*
X158408571Y-74525238D01*
X158456190Y-74715714D01*
X158456190Y-75049047D01*
X158408571Y-75239523D01*
X158313333Y-75334761D01*
X158218095Y-75382380D01*
X158027619Y-75382380D01*
X157932380Y-75334761D01*
X157837142Y-75239523D01*
X157789523Y-75049047D01*
X157789523Y-74715714D01*
X157837142Y-74525238D01*
X157932380Y-74430000D01*
X158027619Y-74382380D01*
X158884761Y-74382380D02*
X158884761Y-75191904D01*
X158932380Y-75287142D01*
X158980000Y-75334761D01*
X159075238Y-75382380D01*
X159265714Y-75382380D01*
X159360952Y-75334761D01*
X159408571Y-75287142D01*
X159456190Y-75191904D01*
X159456190Y-74382380D01*
X159789523Y-74382380D02*
X160360952Y-74382380D01*
X160075238Y-75382380D02*
X160075238Y-74382380D01*
G04 #@! TO.C,VDD*
X119570666Y-87082380D02*
X119904000Y-88082380D01*
X120237333Y-87082380D01*
X120570666Y-88082380D02*
X120570666Y-87082380D01*
X120808761Y-87082380D01*
X120951619Y-87130000D01*
X121046857Y-87225238D01*
X121094476Y-87320476D01*
X121142095Y-87510952D01*
X121142095Y-87653809D01*
X121094476Y-87844285D01*
X121046857Y-87939523D01*
X120951619Y-88034761D01*
X120808761Y-88082380D01*
X120570666Y-88082380D01*
X121570666Y-88082380D02*
X121570666Y-87082380D01*
X121808761Y-87082380D01*
X121951619Y-87130000D01*
X122046857Y-87225238D01*
X122094476Y-87320476D01*
X122142095Y-87510952D01*
X122142095Y-87653809D01*
X122094476Y-87844285D01*
X122046857Y-87939523D01*
X121951619Y-88034761D01*
X121808761Y-88082380D01*
X121570666Y-88082380D01*
G04 #@! TO.C,GND*
X154051095Y-87130000D02*
X153955857Y-87082380D01*
X153813000Y-87082380D01*
X153670142Y-87130000D01*
X153574904Y-87225238D01*
X153527285Y-87320476D01*
X153479666Y-87510952D01*
X153479666Y-87653809D01*
X153527285Y-87844285D01*
X153574904Y-87939523D01*
X153670142Y-88034761D01*
X153813000Y-88082380D01*
X153908238Y-88082380D01*
X154051095Y-88034761D01*
X154098714Y-87987142D01*
X154098714Y-87653809D01*
X153908238Y-87653809D01*
X154527285Y-88082380D02*
X154527285Y-87082380D01*
X155098714Y-88082380D01*
X155098714Y-87082380D01*
X155574904Y-88082380D02*
X155574904Y-87082380D01*
X155813000Y-87082380D01*
X155955857Y-87130000D01*
X156051095Y-87225238D01*
X156098714Y-87320476D01*
X156146333Y-87510952D01*
X156146333Y-87653809D01*
X156098714Y-87844285D01*
X156051095Y-87939523D01*
X155955857Y-88034761D01*
X155813000Y-88082380D01*
X155574904Y-88082380D01*
G04 #@! TO.C,L1*
X122246380Y-81954666D02*
X122246380Y-82430857D01*
X121246380Y-82430857D01*
X122246380Y-81097523D02*
X122246380Y-81668952D01*
X122246380Y-81383238D02*
X121246380Y-81383238D01*
X121389238Y-81478476D01*
X121484476Y-81573714D01*
X121532095Y-81668952D01*
G04 #@! TO.C,L2*
X127165833Y-84145380D02*
X126689642Y-84145380D01*
X126689642Y-83145380D01*
X127451547Y-83240619D02*
X127499166Y-83193000D01*
X127594404Y-83145380D01*
X127832500Y-83145380D01*
X127927738Y-83193000D01*
X127975357Y-83240619D01*
X128022976Y-83335857D01*
X128022976Y-83431095D01*
X127975357Y-83573952D01*
X127403928Y-84145380D01*
X128022976Y-84145380D01*
G04 #@! TO.C,L3*
X127165833Y-74112380D02*
X126689642Y-74112380D01*
X126689642Y-73112380D01*
X127403928Y-73112380D02*
X128022976Y-73112380D01*
X127689642Y-73493333D01*
X127832500Y-73493333D01*
X127927738Y-73540952D01*
X127975357Y-73588571D01*
X128022976Y-73683809D01*
X128022976Y-73921904D01*
X127975357Y-74017142D01*
X127927738Y-74064761D01*
X127832500Y-74112380D01*
X127546785Y-74112380D01*
X127451547Y-74064761D01*
X127403928Y-74017142D01*
G04 #@! TO.C,L4*
X143072380Y-85256666D02*
X143072380Y-85732857D01*
X142072380Y-85732857D01*
X142405714Y-84494761D02*
X143072380Y-84494761D01*
X142024761Y-84732857D02*
X142739047Y-84970952D01*
X142739047Y-84351904D01*
G04 #@! TO.C,L5*
X144280833Y-78938380D02*
X143804642Y-78938380D01*
X143804642Y-77938380D01*
X145090357Y-77938380D02*
X144614166Y-77938380D01*
X144566547Y-78414571D01*
X144614166Y-78366952D01*
X144709404Y-78319333D01*
X144947500Y-78319333D01*
X145042738Y-78366952D01*
X145090357Y-78414571D01*
X145137976Y-78509809D01*
X145137976Y-78747904D01*
X145090357Y-78843142D01*
X145042738Y-78890761D01*
X144947500Y-78938380D01*
X144709404Y-78938380D01*
X144614166Y-78890761D01*
X144566547Y-78843142D01*
G04 #@! TO.C,L6*
X150692380Y-82716666D02*
X150692380Y-83192857D01*
X149692380Y-83192857D01*
X149692380Y-81954761D02*
X149692380Y-82145238D01*
X149740000Y-82240476D01*
X149787619Y-82288095D01*
X149930476Y-82383333D01*
X150120952Y-82430952D01*
X150501904Y-82430952D01*
X150597142Y-82383333D01*
X150644761Y-82335714D01*
X150692380Y-82240476D01*
X150692380Y-82050000D01*
X150644761Y-81954761D01*
X150597142Y-81907142D01*
X150501904Y-81859523D01*
X150263809Y-81859523D01*
X150168571Y-81907142D01*
X150120952Y-81954761D01*
X150073333Y-82050000D01*
X150073333Y-82240476D01*
X150120952Y-82335714D01*
X150168571Y-82383333D01*
X150263809Y-82430952D01*
G04 #@! TO.C,U1*
D15*
X134638167Y-76570245D02*
X134638167Y-77900317D01*
X134716407Y-78056796D01*
X134794646Y-78135035D01*
X134951125Y-78213275D01*
X135264083Y-78213275D01*
X135420562Y-78135035D01*
X135498802Y-78056796D01*
X135577041Y-77900317D01*
X135577041Y-76570245D01*
X137220071Y-78213275D02*
X136281197Y-78213275D01*
X136750634Y-78213275D02*
X136750634Y-76570245D01*
X136594155Y-76804964D01*
X136437676Y-76961443D01*
X136281197Y-77039682D01*
G04 #@! TO.C,U2*
X127689428Y-85307714D02*
X127689428Y-85924571D01*
X127725714Y-85997142D01*
X127762000Y-86033428D01*
X127834571Y-86069714D01*
X127979714Y-86069714D01*
X128052285Y-86033428D01*
X128088571Y-85997142D01*
X128124857Y-85924571D01*
X128124857Y-85307714D01*
X128451428Y-85380285D02*
X128487714Y-85344000D01*
X128560285Y-85307714D01*
X128741714Y-85307714D01*
X128814285Y-85344000D01*
X128850571Y-85380285D01*
X128886857Y-85452857D01*
X128886857Y-85525428D01*
X128850571Y-85634285D01*
X128415142Y-86069714D01*
X128886857Y-86069714D01*
G04 #@! TD*
M02*
