G04 #@! TF.GenerationSoftware,KiCad,Pcbnew,5.0.2-bee76a0~70~ubuntu16.04.1*
G04 #@! TF.CreationDate,2019-02-25T14:33:45-05:00*
G04 #@! TF.ProjectId,ant1,616e7431-2e6b-4696-9361-645f70636258,rev?*
G04 #@! TF.SameCoordinates,Original*
G04 #@! TF.FileFunction,Copper,L2,Bot*
G04 #@! TF.FilePolarity,Positive*
%FSLAX46Y46*%
G04 Gerber Fmt 4.6, Leading zero omitted, Abs format (unit mm)*
G04 Created by KiCad (PCBNEW 5.0.2-bee76a0~70~ubuntu16.04.1) date Mon 25 Feb 2019 02:33:45 PM EST*
%MOMM*%
%LPD*%
G01*
G04 APERTURE LIST*
G04 #@! TA.AperFunction,SMDPad,CuDef*
%ADD10R,5.000000X3.000000*%
G04 #@! TD*
G04 #@! TA.AperFunction,ViaPad*
%ADD11C,0.685800*%
G04 #@! TD*
G04 #@! TA.AperFunction,Conductor*
%ADD12C,0.152400*%
G04 #@! TD*
G04 APERTURE END LIST*
D10*
G04 #@! TO.P,J1,3*
G04 #@! TO.N,GND*
X163000000Y-71400000D03*
G04 #@! TO.P,J1,4*
X163000000Y-78900000D03*
G04 #@! TD*
D11*
G04 #@! TO.N,GND*
X164211000Y-78740000D03*
X162560000Y-78740000D03*
X164592000Y-72136000D03*
X162941000Y-72136000D03*
X164592000Y-70866000D03*
X162941000Y-70866000D03*
X161417000Y-72517000D03*
X161417000Y-71628000D03*
X161417000Y-70739000D03*
X169418000Y-75819000D03*
X161163000Y-77851000D03*
X161163000Y-78867000D03*
X161163000Y-79883000D03*
X162179000Y-79883000D03*
X163195000Y-79883000D03*
X164211000Y-79883000D03*
X165227000Y-79883000D03*
X171450000Y-73660000D03*
X172085000Y-74295000D03*
X172720000Y-74930000D03*
X173355000Y-75565000D03*
X174117000Y-76327000D03*
X174879000Y-77089000D03*
X175641000Y-77851000D03*
X176403000Y-78613000D03*
X177165000Y-79375000D03*
X176403000Y-79883000D03*
X175387000Y-79883000D03*
X174371000Y-79883000D03*
X173355000Y-79883000D03*
X172339000Y-79883000D03*
X171323000Y-79883000D03*
X170307000Y-79883000D03*
X169291000Y-79883000D03*
X168275000Y-79883000D03*
X167259000Y-79883000D03*
X166243000Y-79883000D03*
X161417000Y-65405000D03*
X162433000Y-65405000D03*
X163322000Y-65659000D03*
X164084000Y-66294000D03*
X164719000Y-67056000D03*
X165481000Y-67818000D03*
X166243000Y-68580000D03*
X167005000Y-69342000D03*
X167767000Y-70104000D03*
X168529000Y-70866000D03*
X169291000Y-71628000D03*
X169672000Y-72390000D03*
X169037000Y-73152000D03*
X168275000Y-73787000D03*
X167386000Y-74041000D03*
X166497000Y-74041000D03*
X170815000Y-74422000D03*
X170180000Y-75184000D03*
X168529000Y-76200000D03*
X167513000Y-76200000D03*
X166497000Y-76200000D03*
X161671000Y-77089000D03*
X162560000Y-77089000D03*
X163449000Y-77089000D03*
X164338000Y-77089000D03*
X165354000Y-77089000D03*
X166370000Y-77089000D03*
X161417000Y-66294000D03*
X161417000Y-67183000D03*
X161417000Y-68072000D03*
X161417000Y-68961000D03*
X161417000Y-69850000D03*
X161925000Y-73279000D03*
X162814000Y-73279000D03*
X163703000Y-73279000D03*
X164592000Y-73279000D03*
X165481000Y-73279000D03*
X166370000Y-73152000D03*
X162941000Y-67564000D03*
X162941000Y-69215000D03*
X164465000Y-69215000D03*
X166243000Y-70866000D03*
X166243000Y-72136000D03*
X167767000Y-72136000D03*
X165989000Y-78740000D03*
X167894000Y-77851000D03*
X169545000Y-77597000D03*
X171323000Y-76327000D03*
X172847000Y-77470000D03*
X174244000Y-78740000D03*
X171323000Y-78486000D03*
G04 #@! TD*
D12*
G04 #@! TO.N,GND*
G36*
X178688636Y-80296400D02*
X160803600Y-80296400D01*
X160803600Y-64803600D01*
X163195836Y-64803600D01*
X178688636Y-80296400D01*
X178688636Y-80296400D01*
G37*
X178688636Y-80296400D02*
X160803600Y-80296400D01*
X160803600Y-64803600D01*
X163195836Y-64803600D01*
X178688636Y-80296400D01*
G04 #@! TD*
M02*
