M48
;DRILL file {KiCad 5.0.2-bee76a0~70~ubuntu16.04.1} date Mon 25 Feb 2019 02:33:52 PM EST
;FORMAT={-:-/ absolute / inch / decimal}
FMAT,2
INCH,TZ
T1C0.0130
%
G90
G05
T1
X6.345Y-3.065
X6.345Y-3.105
X6.345Y-3.145
X6.355Y-2.575
X6.355Y-2.61
X6.355Y-2.645
X6.355Y-2.68
X6.355Y-2.715
X6.355Y-2.75
X6.355Y-2.785
X6.355Y-2.82
X6.355Y-2.855
X6.365Y-3.035
X6.375Y-2.885
X6.385Y-3.145
X6.395Y-2.575
X6.4Y-3.035
X6.4Y-3.1
X6.41Y-2.885
X6.415Y-2.66
X6.415Y-2.725
X6.415Y-2.79
X6.415Y-2.84
X6.425Y-3.145
X6.43Y-2.585
X6.435Y-3.035
X6.445Y-2.885
X6.46Y-2.61
X6.465Y-3.1
X6.465Y-3.145
X6.47Y-3.035
X6.475Y-2.725
X6.48Y-2.79
X6.48Y-2.84
X6.48Y-2.885
X6.485Y-2.64
X6.505Y-3.145
X6.51Y-3.035
X6.515Y-2.67
X6.515Y-2.885
X6.535Y-3.1
X6.545Y-2.7
X6.545Y-2.79
X6.545Y-2.84
X6.545Y-3.145
X6.55Y-2.88
X6.55Y-3.035
X6.555Y-2.915
X6.555Y-3.
X6.575Y-2.73
X6.585Y-3.145
X6.59Y-2.915
X6.595Y-3.
X6.605Y-2.76
X6.605Y-2.84
X6.61Y-3.065
X6.625Y-2.905
X6.625Y-3.145
X6.635Y-2.79
X6.635Y-3.
X6.655Y-2.88
X6.665Y-2.82
X6.665Y-3.145
X6.67Y-2.985
X6.675Y-3.055
X6.68Y-2.85
X6.7Y-2.96
X6.705Y-3.145
X6.725Y-2.93
X6.745Y-3.005
X6.745Y-3.09
X6.745Y-3.145
X6.75Y-2.9
X6.775Y-2.925
X6.785Y-3.145
X6.8Y-2.95
X6.805Y-3.05
X6.825Y-2.975
X6.825Y-3.145
X6.855Y-3.005
X6.86Y-3.1
X6.865Y-3.145
X6.885Y-3.035
X6.905Y-3.145
X6.915Y-3.065
X6.945Y-3.095
X6.945Y-3.145
X6.975Y-3.125
T0
M30
