G04 #@! TF.GenerationSoftware,KiCad,Pcbnew,5.0.2-bee76a0~70~ubuntu16.04.1*
G04 #@! TF.CreationDate,2019-02-25T14:33:45-05:00*
G04 #@! TF.ProjectId,ant1,616e7431-2e6b-4696-9361-645f70636258,rev?*
G04 #@! TF.SameCoordinates,Original*
G04 #@! TF.FileFunction,Soldermask,Top*
G04 #@! TF.FilePolarity,Negative*
%FSLAX46Y46*%
G04 Gerber Fmt 4.6, Leading zero omitted, Abs format (unit mm)*
G04 Created by KiCad (PCBNEW 5.0.2-bee76a0~70~ubuntu16.04.1) date Mon 25 Feb 2019 02:33:45 PM EST*
%MOMM*%
%LPD*%
G01*
G04 APERTURE LIST*
%ADD10R,5.101600X3.101600*%
%ADD11R,5.101600X2.601600*%
%ADD12C,1.101600*%
%ADD13C,0.100000*%
%ADD14C,0.691600*%
G04 APERTURE END LIST*
D10*
G04 #@! TO.C,J1*
X163000000Y-71400000D03*
X163000000Y-78900000D03*
D11*
X163000000Y-75150000D03*
G04 #@! TD*
D12*
G04 #@! TO.C,AE1*
X172194774Y-71435911D03*
D13*
G36*
X172477617Y-72497703D02*
X171132982Y-71153068D01*
X171911931Y-70374119D01*
X173256566Y-71718754D01*
X172477617Y-72497703D01*
X172477617Y-72497703D01*
G37*
D12*
X177144521Y-66486164D03*
D13*
G36*
X177427364Y-67547956D02*
X176082729Y-66203321D01*
X176861678Y-65424372D01*
X178206313Y-66769007D01*
X177427364Y-67547956D01*
X177427364Y-67547956D01*
G37*
G04 #@! TD*
G04 #@! TO.C,R1*
G36*
X168563050Y-74689211D02*
X168579834Y-74691700D01*
X168596293Y-74695823D01*
X168612269Y-74701539D01*
X168627607Y-74708794D01*
X168642161Y-74717517D01*
X168655790Y-74727624D01*
X168668362Y-74739019D01*
X168912879Y-74983536D01*
X168924274Y-74996108D01*
X168934381Y-75009737D01*
X168943104Y-75024291D01*
X168950359Y-75039629D01*
X168956075Y-75055605D01*
X168960198Y-75072064D01*
X168962687Y-75088848D01*
X168963520Y-75105795D01*
X168962687Y-75122742D01*
X168960198Y-75139526D01*
X168956075Y-75155985D01*
X168950359Y-75171961D01*
X168943104Y-75187299D01*
X168934381Y-75201853D01*
X168924274Y-75215482D01*
X168912879Y-75228054D01*
X168633006Y-75507927D01*
X168620434Y-75519322D01*
X168606805Y-75529429D01*
X168592251Y-75538152D01*
X168576913Y-75545407D01*
X168560937Y-75551123D01*
X168544478Y-75555246D01*
X168527694Y-75557735D01*
X168510747Y-75558568D01*
X168493800Y-75557735D01*
X168477016Y-75555246D01*
X168460557Y-75551123D01*
X168444581Y-75545407D01*
X168429243Y-75538152D01*
X168414689Y-75529429D01*
X168401060Y-75519322D01*
X168388488Y-75507927D01*
X168143971Y-75263410D01*
X168132576Y-75250838D01*
X168122469Y-75237209D01*
X168113746Y-75222655D01*
X168106491Y-75207317D01*
X168100775Y-75191341D01*
X168096652Y-75174882D01*
X168094163Y-75158098D01*
X168093330Y-75141151D01*
X168094163Y-75124204D01*
X168096652Y-75107420D01*
X168100775Y-75090961D01*
X168106491Y-75074985D01*
X168113746Y-75059647D01*
X168122469Y-75045093D01*
X168132576Y-75031464D01*
X168143971Y-75018892D01*
X168423844Y-74739019D01*
X168436416Y-74727624D01*
X168450045Y-74717517D01*
X168464599Y-74708794D01*
X168479937Y-74701539D01*
X168495913Y-74695823D01*
X168512372Y-74691700D01*
X168529156Y-74689211D01*
X168546103Y-74688378D01*
X168563050Y-74689211D01*
X168563050Y-74689211D01*
G37*
D14*
X168528425Y-75123473D03*
D13*
G36*
X169248944Y-75375105D02*
X169265728Y-75377594D01*
X169282187Y-75381717D01*
X169298163Y-75387433D01*
X169313501Y-75394688D01*
X169328055Y-75403411D01*
X169341684Y-75413518D01*
X169354256Y-75424913D01*
X169598773Y-75669430D01*
X169610168Y-75682002D01*
X169620275Y-75695631D01*
X169628998Y-75710185D01*
X169636253Y-75725523D01*
X169641969Y-75741499D01*
X169646092Y-75757958D01*
X169648581Y-75774742D01*
X169649414Y-75791689D01*
X169648581Y-75808636D01*
X169646092Y-75825420D01*
X169641969Y-75841879D01*
X169636253Y-75857855D01*
X169628998Y-75873193D01*
X169620275Y-75887747D01*
X169610168Y-75901376D01*
X169598773Y-75913948D01*
X169318900Y-76193821D01*
X169306328Y-76205216D01*
X169292699Y-76215323D01*
X169278145Y-76224046D01*
X169262807Y-76231301D01*
X169246831Y-76237017D01*
X169230372Y-76241140D01*
X169213588Y-76243629D01*
X169196641Y-76244462D01*
X169179694Y-76243629D01*
X169162910Y-76241140D01*
X169146451Y-76237017D01*
X169130475Y-76231301D01*
X169115137Y-76224046D01*
X169100583Y-76215323D01*
X169086954Y-76205216D01*
X169074382Y-76193821D01*
X168829865Y-75949304D01*
X168818470Y-75936732D01*
X168808363Y-75923103D01*
X168799640Y-75908549D01*
X168792385Y-75893211D01*
X168786669Y-75877235D01*
X168782546Y-75860776D01*
X168780057Y-75843992D01*
X168779224Y-75827045D01*
X168780057Y-75810098D01*
X168782546Y-75793314D01*
X168786669Y-75776855D01*
X168792385Y-75760879D01*
X168799640Y-75745541D01*
X168808363Y-75730987D01*
X168818470Y-75717358D01*
X168829865Y-75704786D01*
X169109738Y-75424913D01*
X169122310Y-75413518D01*
X169135939Y-75403411D01*
X169150493Y-75394688D01*
X169165831Y-75387433D01*
X169181807Y-75381717D01*
X169198266Y-75377594D01*
X169215050Y-75375105D01*
X169231997Y-75374272D01*
X169248944Y-75375105D01*
X169248944Y-75375105D01*
G37*
D14*
X169214319Y-75809367D03*
G04 #@! TD*
D13*
G04 #@! TO.C,R2*
G36*
X169991406Y-73204287D02*
X170008190Y-73206776D01*
X170024649Y-73210899D01*
X170040625Y-73216615D01*
X170055963Y-73223870D01*
X170070517Y-73232593D01*
X170084146Y-73242700D01*
X170096718Y-73254095D01*
X170376591Y-73533968D01*
X170387986Y-73546540D01*
X170398093Y-73560169D01*
X170406816Y-73574723D01*
X170414071Y-73590061D01*
X170419787Y-73606037D01*
X170423910Y-73622496D01*
X170426399Y-73639280D01*
X170427232Y-73656227D01*
X170426399Y-73673174D01*
X170423910Y-73689958D01*
X170419787Y-73706417D01*
X170414071Y-73722393D01*
X170406816Y-73737731D01*
X170398093Y-73752285D01*
X170387986Y-73765914D01*
X170376591Y-73778486D01*
X170132074Y-74023003D01*
X170119502Y-74034398D01*
X170105873Y-74044505D01*
X170091319Y-74053228D01*
X170075981Y-74060483D01*
X170060005Y-74066199D01*
X170043546Y-74070322D01*
X170026762Y-74072811D01*
X170009815Y-74073644D01*
X169992868Y-74072811D01*
X169976084Y-74070322D01*
X169959625Y-74066199D01*
X169943649Y-74060483D01*
X169928311Y-74053228D01*
X169913757Y-74044505D01*
X169900128Y-74034398D01*
X169887556Y-74023003D01*
X169607683Y-73743130D01*
X169596288Y-73730558D01*
X169586181Y-73716929D01*
X169577458Y-73702375D01*
X169570203Y-73687037D01*
X169564487Y-73671061D01*
X169560364Y-73654602D01*
X169557875Y-73637818D01*
X169557042Y-73620871D01*
X169557875Y-73603924D01*
X169560364Y-73587140D01*
X169564487Y-73570681D01*
X169570203Y-73554705D01*
X169577458Y-73539367D01*
X169586181Y-73524813D01*
X169596288Y-73511184D01*
X169607683Y-73498612D01*
X169852200Y-73254095D01*
X169864772Y-73242700D01*
X169878401Y-73232593D01*
X169892955Y-73223870D01*
X169908293Y-73216615D01*
X169924269Y-73210899D01*
X169940728Y-73206776D01*
X169957512Y-73204287D01*
X169974459Y-73203454D01*
X169991406Y-73204287D01*
X169991406Y-73204287D01*
G37*
D14*
X169992137Y-73638549D03*
D13*
G36*
X169305512Y-73890181D02*
X169322296Y-73892670D01*
X169338755Y-73896793D01*
X169354731Y-73902509D01*
X169370069Y-73909764D01*
X169384623Y-73918487D01*
X169398252Y-73928594D01*
X169410824Y-73939989D01*
X169690697Y-74219862D01*
X169702092Y-74232434D01*
X169712199Y-74246063D01*
X169720922Y-74260617D01*
X169728177Y-74275955D01*
X169733893Y-74291931D01*
X169738016Y-74308390D01*
X169740505Y-74325174D01*
X169741338Y-74342121D01*
X169740505Y-74359068D01*
X169738016Y-74375852D01*
X169733893Y-74392311D01*
X169728177Y-74408287D01*
X169720922Y-74423625D01*
X169712199Y-74438179D01*
X169702092Y-74451808D01*
X169690697Y-74464380D01*
X169446180Y-74708897D01*
X169433608Y-74720292D01*
X169419979Y-74730399D01*
X169405425Y-74739122D01*
X169390087Y-74746377D01*
X169374111Y-74752093D01*
X169357652Y-74756216D01*
X169340868Y-74758705D01*
X169323921Y-74759538D01*
X169306974Y-74758705D01*
X169290190Y-74756216D01*
X169273731Y-74752093D01*
X169257755Y-74746377D01*
X169242417Y-74739122D01*
X169227863Y-74730399D01*
X169214234Y-74720292D01*
X169201662Y-74708897D01*
X168921789Y-74429024D01*
X168910394Y-74416452D01*
X168900287Y-74402823D01*
X168891564Y-74388269D01*
X168884309Y-74372931D01*
X168878593Y-74356955D01*
X168874470Y-74340496D01*
X168871981Y-74323712D01*
X168871148Y-74306765D01*
X168871981Y-74289818D01*
X168874470Y-74273034D01*
X168878593Y-74256575D01*
X168884309Y-74240599D01*
X168891564Y-74225261D01*
X168900287Y-74210707D01*
X168910394Y-74197078D01*
X168921789Y-74184506D01*
X169166306Y-73939989D01*
X169178878Y-73928594D01*
X169192507Y-73918487D01*
X169207061Y-73909764D01*
X169222399Y-73902509D01*
X169238375Y-73896793D01*
X169254834Y-73892670D01*
X169271618Y-73890181D01*
X169288565Y-73889348D01*
X169305512Y-73890181D01*
X169305512Y-73890181D01*
G37*
D14*
X169306243Y-74324443D03*
G04 #@! TD*
D13*
G04 #@! TO.C,R3*
G36*
X171511686Y-73112363D02*
X171528470Y-73114852D01*
X171544929Y-73118975D01*
X171560905Y-73124691D01*
X171576243Y-73131946D01*
X171590797Y-73140669D01*
X171604426Y-73150776D01*
X171616998Y-73162171D01*
X171861515Y-73406688D01*
X171872910Y-73419260D01*
X171883017Y-73432889D01*
X171891740Y-73447443D01*
X171898995Y-73462781D01*
X171904711Y-73478757D01*
X171908834Y-73495216D01*
X171911323Y-73512000D01*
X171912156Y-73528947D01*
X171911323Y-73545894D01*
X171908834Y-73562678D01*
X171904711Y-73579137D01*
X171898995Y-73595113D01*
X171891740Y-73610451D01*
X171883017Y-73625005D01*
X171872910Y-73638634D01*
X171861515Y-73651206D01*
X171581642Y-73931079D01*
X171569070Y-73942474D01*
X171555441Y-73952581D01*
X171540887Y-73961304D01*
X171525549Y-73968559D01*
X171509573Y-73974275D01*
X171493114Y-73978398D01*
X171476330Y-73980887D01*
X171459383Y-73981720D01*
X171442436Y-73980887D01*
X171425652Y-73978398D01*
X171409193Y-73974275D01*
X171393217Y-73968559D01*
X171377879Y-73961304D01*
X171363325Y-73952581D01*
X171349696Y-73942474D01*
X171337124Y-73931079D01*
X171092607Y-73686562D01*
X171081212Y-73673990D01*
X171071105Y-73660361D01*
X171062382Y-73645807D01*
X171055127Y-73630469D01*
X171049411Y-73614493D01*
X171045288Y-73598034D01*
X171042799Y-73581250D01*
X171041966Y-73564303D01*
X171042799Y-73547356D01*
X171045288Y-73530572D01*
X171049411Y-73514113D01*
X171055127Y-73498137D01*
X171062382Y-73482799D01*
X171071105Y-73468245D01*
X171081212Y-73454616D01*
X171092607Y-73442044D01*
X171372480Y-73162171D01*
X171385052Y-73150776D01*
X171398681Y-73140669D01*
X171413235Y-73131946D01*
X171428573Y-73124691D01*
X171444549Y-73118975D01*
X171461008Y-73114852D01*
X171477792Y-73112363D01*
X171494739Y-73111530D01*
X171511686Y-73112363D01*
X171511686Y-73112363D01*
G37*
D14*
X171477061Y-73546625D03*
D13*
G36*
X170825792Y-72426469D02*
X170842576Y-72428958D01*
X170859035Y-72433081D01*
X170875011Y-72438797D01*
X170890349Y-72446052D01*
X170904903Y-72454775D01*
X170918532Y-72464882D01*
X170931104Y-72476277D01*
X171175621Y-72720794D01*
X171187016Y-72733366D01*
X171197123Y-72746995D01*
X171205846Y-72761549D01*
X171213101Y-72776887D01*
X171218817Y-72792863D01*
X171222940Y-72809322D01*
X171225429Y-72826106D01*
X171226262Y-72843053D01*
X171225429Y-72860000D01*
X171222940Y-72876784D01*
X171218817Y-72893243D01*
X171213101Y-72909219D01*
X171205846Y-72924557D01*
X171197123Y-72939111D01*
X171187016Y-72952740D01*
X171175621Y-72965312D01*
X170895748Y-73245185D01*
X170883176Y-73256580D01*
X170869547Y-73266687D01*
X170854993Y-73275410D01*
X170839655Y-73282665D01*
X170823679Y-73288381D01*
X170807220Y-73292504D01*
X170790436Y-73294993D01*
X170773489Y-73295826D01*
X170756542Y-73294993D01*
X170739758Y-73292504D01*
X170723299Y-73288381D01*
X170707323Y-73282665D01*
X170691985Y-73275410D01*
X170677431Y-73266687D01*
X170663802Y-73256580D01*
X170651230Y-73245185D01*
X170406713Y-73000668D01*
X170395318Y-72988096D01*
X170385211Y-72974467D01*
X170376488Y-72959913D01*
X170369233Y-72944575D01*
X170363517Y-72928599D01*
X170359394Y-72912140D01*
X170356905Y-72895356D01*
X170356072Y-72878409D01*
X170356905Y-72861462D01*
X170359394Y-72844678D01*
X170363517Y-72828219D01*
X170369233Y-72812243D01*
X170376488Y-72796905D01*
X170385211Y-72782351D01*
X170395318Y-72768722D01*
X170406713Y-72756150D01*
X170686586Y-72476277D01*
X170699158Y-72464882D01*
X170712787Y-72454775D01*
X170727341Y-72446052D01*
X170742679Y-72438797D01*
X170758655Y-72433081D01*
X170775114Y-72428958D01*
X170791898Y-72426469D01*
X170808845Y-72425636D01*
X170825792Y-72426469D01*
X170825792Y-72426469D01*
G37*
D14*
X170791167Y-72860731D03*
G04 #@! TD*
M02*
