G04 #@! TF.GenerationSoftware,KiCad,Pcbnew,5.0.2-bee76a0~70~ubuntu18.04.1*
G04 #@! TF.CreationDate,2019-03-08T02:12:37-05:00*
G04 #@! TF.ProjectId,LO1,4c4f312e-6b69-4636-9164-5f7063625858,rev?*
G04 #@! TF.SameCoordinates,Original*
G04 #@! TF.FileFunction,Copper,L1,Top*
G04 #@! TF.FilePolarity,Positive*
%FSLAX46Y46*%
G04 Gerber Fmt 4.6, Leading zero omitted, Abs format (unit mm)*
G04 Created by KiCad (PCBNEW 5.0.2-bee76a0~70~ubuntu18.04.1) date Fri 08 Mar 2019 02:12:37 AM EST*
%MOMM*%
%LPD*%
G01*
G04 APERTURE LIST*
G04 #@! TA.AperFunction,ComponentPad*
%ADD10C,1.998980*%
G04 #@! TD*
G04 #@! TA.AperFunction,SMDPad,CuDef*
%ADD11R,4.000000X1.600000*%
G04 #@! TD*
G04 #@! TA.AperFunction,SMDPad,CuDef*
%ADD12R,4.000000X1.800000*%
G04 #@! TD*
G04 #@! TA.AperFunction,SMDPad,CuDef*
%ADD13R,2.580000X1.020000*%
G04 #@! TD*
G04 #@! TA.AperFunction,ViaPad*
%ADD14C,0.685800*%
G04 #@! TD*
G04 #@! TA.AperFunction,Conductor*
%ADD15C,0.812800*%
G04 #@! TD*
G04 #@! TA.AperFunction,Conductor*
%ADD16C,0.508000*%
G04 #@! TD*
G04 #@! TA.AperFunction,Conductor*
%ADD17C,1.270000*%
G04 #@! TD*
G04 #@! TA.AperFunction,Conductor*
%ADD18C,0.254000*%
G04 #@! TD*
G04 APERTURE END LIST*
D10*
G04 #@! TO.P,VCtrl,1*
G04 #@! TO.N,Net-(J1-Pad1)*
X141605000Y-64770000D03*
G04 #@! TD*
D11*
G04 #@! TO.P,RF-OUT,1*
G04 #@! TO.N,Net-(J2-Pad1)*
X143510000Y-74524000D03*
D12*
G04 #@! TO.P,RF-OUT,2*
G04 #@! TO.N,GND*
X143510000Y-76824000D03*
X143510000Y-72224000D03*
G04 #@! TD*
D10*
G04 #@! TO.P,GND,1*
G04 #@! TO.N,GND*
X142748000Y-69850000D03*
G04 #@! TD*
G04 #@! TO.P,VDD,1*
G04 #@! TO.N,VDD*
X143764000Y-67056000D03*
G04 #@! TD*
D13*
G04 #@! TO.P,U2,1*
G04 #@! TO.N,Net-(J1-Pad1)*
X130735000Y-67945000D03*
G04 #@! TO.P,U2,2*
G04 #@! TO.N,GND*
X130735000Y-73025000D03*
G04 #@! TO.P,U2,3*
G04 #@! TO.N,Net-(J2-Pad1)*
X138505000Y-73025000D03*
G04 #@! TO.P,U2,4*
G04 #@! TO.N,+3V3*
X138505000Y-67945000D03*
G04 #@! TD*
D14*
G04 #@! TO.N,GND*
X144526000Y-71882000D03*
X144780000Y-76200000D03*
X129540000Y-73025000D03*
X144272000Y-72898000D03*
X143256000Y-72898000D03*
X142240000Y-72898000D03*
X143764000Y-76200000D03*
X142748000Y-76200000D03*
X141732000Y-76200000D03*
G04 #@! TO.N,VDD*
X137414000Y-65532000D03*
X136398000Y-65532000D03*
X135557500Y-65532000D03*
X133223000Y-73660000D03*
X134493000Y-73660000D03*
G04 #@! TO.N,GND*
X137922000Y-74422000D03*
X138684000Y-75184000D03*
X139446000Y-75946000D03*
X140462000Y-75946000D03*
X140970000Y-73152000D03*
X140462000Y-72136000D03*
X139446000Y-71628000D03*
X138430000Y-76835000D03*
X133985000Y-76835000D03*
X132715000Y-76835000D03*
X131445000Y-76835000D03*
X130175000Y-76835000D03*
X129540000Y-75565000D03*
X129540000Y-74295000D03*
X129540000Y-71755000D03*
X129540000Y-70485000D03*
X129540000Y-65405000D03*
X129540000Y-64135000D03*
X133350000Y-68580000D03*
X133350000Y-67310000D03*
X133350000Y-66040000D03*
X132715000Y-65405000D03*
G04 #@! TO.N,+3V3*
X138430000Y-70358000D03*
X138430000Y-69342000D03*
X138430000Y-68020000D03*
G04 #@! TD*
D15*
G04 #@! TO.N,VDD*
X137414000Y-65532000D02*
X135557500Y-65532000D01*
X135557500Y-65532000D02*
X135557500Y-72595500D01*
X135557500Y-72595500D02*
X134493000Y-73660000D01*
X134493000Y-73660000D02*
X134493000Y-73660000D01*
X138210291Y-66328291D02*
X140242291Y-66328291D01*
X137414000Y-65532000D02*
X138210291Y-66328291D01*
X140970000Y-67056000D02*
X143764000Y-67056000D01*
X140242291Y-66328291D02*
X140970000Y-67056000D01*
G04 #@! TO.N,+3V3*
X138430000Y-68020000D02*
X138430000Y-68020000D01*
X138430000Y-70358000D02*
X138430000Y-69342000D01*
X138430000Y-69342000D02*
X138430000Y-68020000D01*
X138430000Y-68020000D02*
X138505000Y-67945000D01*
D16*
G04 #@! TO.N,Net-(J1-Pad1)*
X130735000Y-65226000D02*
X130735000Y-67945000D01*
X132080000Y-63881000D02*
X130735000Y-65226000D01*
X140716000Y-63881000D02*
X141554190Y-64719190D01*
X132080000Y-63881000D02*
X140716000Y-63881000D01*
D17*
G04 #@! TO.N,Net-(J2-Pad1)*
X140004000Y-74524000D02*
X143510000Y-74524000D01*
X138505000Y-73025000D02*
X140004000Y-74524000D01*
G04 #@! TD*
D18*
G04 #@! TO.N,GND*
G36*
X131586764Y-63476212D02*
X130330214Y-64732762D01*
X130277191Y-64768191D01*
X130136843Y-64978236D01*
X130100000Y-65163460D01*
X130100000Y-65163463D01*
X130087561Y-65226000D01*
X130100000Y-65288537D01*
X130100001Y-67046536D01*
X129445000Y-67046536D01*
X129296341Y-67076106D01*
X129170314Y-67160314D01*
X129086106Y-67286341D01*
X129056536Y-67435000D01*
X129056536Y-68455000D01*
X129086106Y-68603659D01*
X129170314Y-68729686D01*
X129296341Y-68813894D01*
X129445000Y-68843464D01*
X132025000Y-68843464D01*
X132173659Y-68813894D01*
X132299686Y-68729686D01*
X132383894Y-68603659D01*
X132413464Y-68455000D01*
X132413464Y-67435000D01*
X132383894Y-67286341D01*
X132299686Y-67160314D01*
X132173659Y-67076106D01*
X132025000Y-67046536D01*
X131370000Y-67046536D01*
X131370000Y-65489024D01*
X132343025Y-64516000D01*
X140224510Y-64516000D01*
X140224510Y-65044596D01*
X140434677Y-65551985D01*
X140449342Y-65566650D01*
X140319843Y-65540891D01*
X140319842Y-65540891D01*
X140242291Y-65525465D01*
X140164740Y-65540891D01*
X138536443Y-65540891D01*
X138025616Y-65030065D01*
X137981684Y-64964316D01*
X137721228Y-64790285D01*
X137491552Y-64744600D01*
X137491551Y-64744600D01*
X137414000Y-64729174D01*
X137336449Y-64744600D01*
X135635052Y-64744600D01*
X135557500Y-64729174D01*
X135479948Y-64744600D01*
X135250272Y-64790285D01*
X134989816Y-64964316D01*
X134815785Y-65224772D01*
X134754674Y-65532000D01*
X134770100Y-65609552D01*
X134770101Y-72269347D01*
X133991065Y-73048384D01*
X133925316Y-73092316D01*
X133826682Y-73239933D01*
X133633056Y-73046307D01*
X133366993Y-72936100D01*
X133079007Y-72936100D01*
X132812944Y-73046307D01*
X132609307Y-73249944D01*
X132499100Y-73516007D01*
X132499100Y-73803993D01*
X132609307Y-74070056D01*
X132812944Y-74273693D01*
X133079007Y-74383900D01*
X133366993Y-74383900D01*
X133633056Y-74273693D01*
X133826682Y-74080067D01*
X133925316Y-74227684D01*
X134185772Y-74401715D01*
X134415448Y-74447400D01*
X134415449Y-74447400D01*
X134493000Y-74462826D01*
X134570551Y-74447400D01*
X134570552Y-74447400D01*
X134800228Y-74401715D01*
X135060684Y-74227684D01*
X135104616Y-74161935D01*
X136059438Y-73207114D01*
X136125184Y-73163184D01*
X136299215Y-72902728D01*
X136344900Y-72673052D01*
X136360326Y-72595501D01*
X136344900Y-72517950D01*
X136344900Y-66319400D01*
X137087849Y-66319400D01*
X137598677Y-66830229D01*
X137642607Y-66895975D01*
X137777793Y-66986303D01*
X137867937Y-67046536D01*
X137215000Y-67046536D01*
X137066341Y-67076106D01*
X136940314Y-67160314D01*
X136856106Y-67286341D01*
X136826536Y-67435000D01*
X136826536Y-68455000D01*
X136856106Y-68603659D01*
X136940314Y-68729686D01*
X137066341Y-68813894D01*
X137215000Y-68843464D01*
X137642600Y-68843464D01*
X137642600Y-69419551D01*
X137642601Y-69419555D01*
X137642600Y-70435551D01*
X137688285Y-70665227D01*
X137862316Y-70925684D01*
X138122772Y-71099715D01*
X138430000Y-71160826D01*
X138737227Y-71099715D01*
X138997684Y-70925684D01*
X139171715Y-70665228D01*
X139217400Y-70435552D01*
X139217400Y-68843464D01*
X139795000Y-68843464D01*
X139943659Y-68813894D01*
X140069686Y-68729686D01*
X140153894Y-68603659D01*
X140183464Y-68455000D01*
X140183464Y-67435000D01*
X140170556Y-67370108D01*
X140358386Y-67557937D01*
X140402316Y-67623684D01*
X140662772Y-67797715D01*
X140892448Y-67843400D01*
X140892449Y-67843400D01*
X140970000Y-67858826D01*
X141047551Y-67843400D01*
X142599092Y-67843400D01*
X142982015Y-68226323D01*
X143489404Y-68436490D01*
X144038596Y-68436490D01*
X144545985Y-68226323D01*
X144934323Y-67837985D01*
X145086001Y-67471802D01*
X145086000Y-73335536D01*
X141510000Y-73335536D01*
X141361341Y-73365106D01*
X141235314Y-73449314D01*
X141196102Y-73508000D01*
X140424841Y-73508000D01*
X140183464Y-73266623D01*
X140183464Y-72515000D01*
X140153894Y-72366341D01*
X140069686Y-72240314D01*
X139943659Y-72156106D01*
X139795000Y-72126536D01*
X138989103Y-72126536D01*
X138901423Y-72067950D01*
X138505000Y-71989096D01*
X138108577Y-72067950D01*
X138020897Y-72126536D01*
X137215000Y-72126536D01*
X137066341Y-72156106D01*
X136940314Y-72240314D01*
X136856106Y-72366341D01*
X136826536Y-72515000D01*
X136826536Y-73535000D01*
X136856106Y-73683659D01*
X136940314Y-73809686D01*
X137066341Y-73893894D01*
X137215000Y-73923464D01*
X137966624Y-73923464D01*
X139214822Y-75171663D01*
X139271505Y-75256495D01*
X139607577Y-75481051D01*
X139903935Y-75540000D01*
X139903936Y-75540000D01*
X140003999Y-75559904D01*
X140104063Y-75540000D01*
X141196102Y-75540000D01*
X141235314Y-75598686D01*
X141361341Y-75682894D01*
X141510000Y-75712464D01*
X145086000Y-75712464D01*
X145086000Y-77268000D01*
X128980000Y-77268000D01*
X128980000Y-63448000D01*
X131605614Y-63448000D01*
X131586764Y-63476212D01*
X131586764Y-63476212D01*
G37*
X131586764Y-63476212D02*
X130330214Y-64732762D01*
X130277191Y-64768191D01*
X130136843Y-64978236D01*
X130100000Y-65163460D01*
X130100000Y-65163463D01*
X130087561Y-65226000D01*
X130100000Y-65288537D01*
X130100001Y-67046536D01*
X129445000Y-67046536D01*
X129296341Y-67076106D01*
X129170314Y-67160314D01*
X129086106Y-67286341D01*
X129056536Y-67435000D01*
X129056536Y-68455000D01*
X129086106Y-68603659D01*
X129170314Y-68729686D01*
X129296341Y-68813894D01*
X129445000Y-68843464D01*
X132025000Y-68843464D01*
X132173659Y-68813894D01*
X132299686Y-68729686D01*
X132383894Y-68603659D01*
X132413464Y-68455000D01*
X132413464Y-67435000D01*
X132383894Y-67286341D01*
X132299686Y-67160314D01*
X132173659Y-67076106D01*
X132025000Y-67046536D01*
X131370000Y-67046536D01*
X131370000Y-65489024D01*
X132343025Y-64516000D01*
X140224510Y-64516000D01*
X140224510Y-65044596D01*
X140434677Y-65551985D01*
X140449342Y-65566650D01*
X140319843Y-65540891D01*
X140319842Y-65540891D01*
X140242291Y-65525465D01*
X140164740Y-65540891D01*
X138536443Y-65540891D01*
X138025616Y-65030065D01*
X137981684Y-64964316D01*
X137721228Y-64790285D01*
X137491552Y-64744600D01*
X137491551Y-64744600D01*
X137414000Y-64729174D01*
X137336449Y-64744600D01*
X135635052Y-64744600D01*
X135557500Y-64729174D01*
X135479948Y-64744600D01*
X135250272Y-64790285D01*
X134989816Y-64964316D01*
X134815785Y-65224772D01*
X134754674Y-65532000D01*
X134770100Y-65609552D01*
X134770101Y-72269347D01*
X133991065Y-73048384D01*
X133925316Y-73092316D01*
X133826682Y-73239933D01*
X133633056Y-73046307D01*
X133366993Y-72936100D01*
X133079007Y-72936100D01*
X132812944Y-73046307D01*
X132609307Y-73249944D01*
X132499100Y-73516007D01*
X132499100Y-73803993D01*
X132609307Y-74070056D01*
X132812944Y-74273693D01*
X133079007Y-74383900D01*
X133366993Y-74383900D01*
X133633056Y-74273693D01*
X133826682Y-74080067D01*
X133925316Y-74227684D01*
X134185772Y-74401715D01*
X134415448Y-74447400D01*
X134415449Y-74447400D01*
X134493000Y-74462826D01*
X134570551Y-74447400D01*
X134570552Y-74447400D01*
X134800228Y-74401715D01*
X135060684Y-74227684D01*
X135104616Y-74161935D01*
X136059438Y-73207114D01*
X136125184Y-73163184D01*
X136299215Y-72902728D01*
X136344900Y-72673052D01*
X136360326Y-72595501D01*
X136344900Y-72517950D01*
X136344900Y-66319400D01*
X137087849Y-66319400D01*
X137598677Y-66830229D01*
X137642607Y-66895975D01*
X137777793Y-66986303D01*
X137867937Y-67046536D01*
X137215000Y-67046536D01*
X137066341Y-67076106D01*
X136940314Y-67160314D01*
X136856106Y-67286341D01*
X136826536Y-67435000D01*
X136826536Y-68455000D01*
X136856106Y-68603659D01*
X136940314Y-68729686D01*
X137066341Y-68813894D01*
X137215000Y-68843464D01*
X137642600Y-68843464D01*
X137642600Y-69419551D01*
X137642601Y-69419555D01*
X137642600Y-70435551D01*
X137688285Y-70665227D01*
X137862316Y-70925684D01*
X138122772Y-71099715D01*
X138430000Y-71160826D01*
X138737227Y-71099715D01*
X138997684Y-70925684D01*
X139171715Y-70665228D01*
X139217400Y-70435552D01*
X139217400Y-68843464D01*
X139795000Y-68843464D01*
X139943659Y-68813894D01*
X140069686Y-68729686D01*
X140153894Y-68603659D01*
X140183464Y-68455000D01*
X140183464Y-67435000D01*
X140170556Y-67370108D01*
X140358386Y-67557937D01*
X140402316Y-67623684D01*
X140662772Y-67797715D01*
X140892448Y-67843400D01*
X140892449Y-67843400D01*
X140970000Y-67858826D01*
X141047551Y-67843400D01*
X142599092Y-67843400D01*
X142982015Y-68226323D01*
X143489404Y-68436490D01*
X144038596Y-68436490D01*
X144545985Y-68226323D01*
X144934323Y-67837985D01*
X145086001Y-67471802D01*
X145086000Y-73335536D01*
X141510000Y-73335536D01*
X141361341Y-73365106D01*
X141235314Y-73449314D01*
X141196102Y-73508000D01*
X140424841Y-73508000D01*
X140183464Y-73266623D01*
X140183464Y-72515000D01*
X140153894Y-72366341D01*
X140069686Y-72240314D01*
X139943659Y-72156106D01*
X139795000Y-72126536D01*
X138989103Y-72126536D01*
X138901423Y-72067950D01*
X138505000Y-71989096D01*
X138108577Y-72067950D01*
X138020897Y-72126536D01*
X137215000Y-72126536D01*
X137066341Y-72156106D01*
X136940314Y-72240314D01*
X136856106Y-72366341D01*
X136826536Y-72515000D01*
X136826536Y-73535000D01*
X136856106Y-73683659D01*
X136940314Y-73809686D01*
X137066341Y-73893894D01*
X137215000Y-73923464D01*
X137966624Y-73923464D01*
X139214822Y-75171663D01*
X139271505Y-75256495D01*
X139607577Y-75481051D01*
X139903935Y-75540000D01*
X139903936Y-75540000D01*
X140003999Y-75559904D01*
X140104063Y-75540000D01*
X141196102Y-75540000D01*
X141235314Y-75598686D01*
X141361341Y-75682894D01*
X141510000Y-75712464D01*
X145086000Y-75712464D01*
X145086000Y-77268000D01*
X128980000Y-77268000D01*
X128980000Y-63448000D01*
X131605614Y-63448000D01*
X131586764Y-63476212D01*
G04 #@! TD*
M02*
