G04 #@! TF.GenerationSoftware,KiCad,Pcbnew,5.0.2-bee76a0~70~ubuntu18.04.1*
G04 #@! TF.CreationDate,2019-03-08T02:12:37-05:00*
G04 #@! TF.ProjectId,LO1,4c4f312e-6b69-4636-9164-5f7063625858,rev?*
G04 #@! TF.SameCoordinates,Original*
G04 #@! TF.FileFunction,Soldermask,Top*
G04 #@! TF.FilePolarity,Negative*
%FSLAX46Y46*%
G04 Gerber Fmt 4.6, Leading zero omitted, Abs format (unit mm)*
G04 Created by KiCad (PCBNEW 5.0.2-bee76a0~70~ubuntu18.04.1) date Fri 08 Mar 2019 02:12:37 AM EST*
%MOMM*%
%LPD*%
G01*
G04 APERTURE LIST*
%ADD10C,0.100000*%
G04 APERTURE END LIST*
D10*
G36*
X145561000Y-77775000D02*
X141459000Y-77775000D01*
X141459000Y-75873000D01*
X145561000Y-75873000D01*
X145561000Y-77775000D01*
X145561000Y-77775000D01*
G37*
G36*
X145561000Y-75375000D02*
X141459000Y-75375000D01*
X141459000Y-73673000D01*
X145561000Y-73673000D01*
X145561000Y-75375000D01*
X145561000Y-75375000D01*
G37*
G36*
X139846000Y-73586000D02*
X137164000Y-73586000D01*
X137164000Y-72464000D01*
X139846000Y-72464000D01*
X139846000Y-73586000D01*
X139846000Y-73586000D01*
G37*
G36*
X132076000Y-73586000D02*
X129394000Y-73586000D01*
X129394000Y-72464000D01*
X132076000Y-72464000D01*
X132076000Y-73586000D01*
X132076000Y-73586000D01*
G37*
G36*
X145561000Y-73175000D02*
X141459000Y-73175000D01*
X141459000Y-71273000D01*
X145561000Y-71273000D01*
X145561000Y-73175000D01*
X145561000Y-73175000D01*
G37*
G36*
X143054414Y-68839879D02*
X143054416Y-68839880D01*
X143054417Y-68839880D01*
X143245594Y-68919068D01*
X143417651Y-69034033D01*
X143563967Y-69180349D01*
X143678932Y-69352406D01*
X143758121Y-69543586D01*
X143798490Y-69746534D01*
X143798490Y-69953466D01*
X143758121Y-70156414D01*
X143678932Y-70347594D01*
X143563967Y-70519651D01*
X143417651Y-70665967D01*
X143417648Y-70665969D01*
X143245594Y-70780932D01*
X143054417Y-70860120D01*
X143054416Y-70860120D01*
X143054414Y-70860121D01*
X142851466Y-70900490D01*
X142644534Y-70900490D01*
X142441586Y-70860121D01*
X142441584Y-70860120D01*
X142441583Y-70860120D01*
X142250406Y-70780932D01*
X142078352Y-70665969D01*
X142078349Y-70665967D01*
X141932033Y-70519651D01*
X141817068Y-70347594D01*
X141737879Y-70156414D01*
X141697510Y-69953466D01*
X141697510Y-69746534D01*
X141737879Y-69543586D01*
X141817068Y-69352406D01*
X141932033Y-69180349D01*
X142078349Y-69034033D01*
X142250406Y-68919068D01*
X142441583Y-68839880D01*
X142441584Y-68839880D01*
X142441586Y-68839879D01*
X142644534Y-68799510D01*
X142851466Y-68799510D01*
X143054414Y-68839879D01*
X143054414Y-68839879D01*
G37*
G36*
X139846000Y-68506000D02*
X137164000Y-68506000D01*
X137164000Y-67384000D01*
X139846000Y-67384000D01*
X139846000Y-68506000D01*
X139846000Y-68506000D01*
G37*
G36*
X132076000Y-68506000D02*
X129394000Y-68506000D01*
X129394000Y-67384000D01*
X132076000Y-67384000D01*
X132076000Y-68506000D01*
X132076000Y-68506000D01*
G37*
G36*
X144070414Y-66045879D02*
X144070416Y-66045880D01*
X144070417Y-66045880D01*
X144261594Y-66125068D01*
X144433651Y-66240033D01*
X144579967Y-66386349D01*
X144694932Y-66558406D01*
X144774121Y-66749586D01*
X144814490Y-66952534D01*
X144814490Y-67159466D01*
X144774121Y-67362414D01*
X144694932Y-67553594D01*
X144579967Y-67725651D01*
X144433651Y-67871967D01*
X144433648Y-67871969D01*
X144261594Y-67986932D01*
X144070417Y-68066120D01*
X144070416Y-68066120D01*
X144070414Y-68066121D01*
X143867466Y-68106490D01*
X143660534Y-68106490D01*
X143457586Y-68066121D01*
X143457584Y-68066120D01*
X143457583Y-68066120D01*
X143266406Y-67986932D01*
X143094352Y-67871969D01*
X143094349Y-67871967D01*
X142948033Y-67725651D01*
X142833068Y-67553594D01*
X142753879Y-67362414D01*
X142713510Y-67159466D01*
X142713510Y-66952534D01*
X142753879Y-66749586D01*
X142833068Y-66558406D01*
X142948033Y-66386349D01*
X143094349Y-66240033D01*
X143266406Y-66125068D01*
X143457583Y-66045880D01*
X143457584Y-66045880D01*
X143457586Y-66045879D01*
X143660534Y-66005510D01*
X143867466Y-66005510D01*
X144070414Y-66045879D01*
X144070414Y-66045879D01*
G37*
G36*
X141911414Y-63759879D02*
X141911416Y-63759880D01*
X141911417Y-63759880D01*
X142102594Y-63839068D01*
X142274651Y-63954033D01*
X142420967Y-64100349D01*
X142535932Y-64272406D01*
X142615121Y-64463586D01*
X142655490Y-64666534D01*
X142655490Y-64873466D01*
X142615121Y-65076414D01*
X142535932Y-65267594D01*
X142420967Y-65439651D01*
X142274651Y-65585967D01*
X142274648Y-65585969D01*
X142102594Y-65700932D01*
X141911417Y-65780120D01*
X141911416Y-65780120D01*
X141911414Y-65780121D01*
X141708466Y-65820490D01*
X141501534Y-65820490D01*
X141298586Y-65780121D01*
X141298584Y-65780120D01*
X141298583Y-65780120D01*
X141107406Y-65700932D01*
X140935352Y-65585969D01*
X140935349Y-65585967D01*
X140789033Y-65439651D01*
X140674068Y-65267594D01*
X140594879Y-65076414D01*
X140554510Y-64873466D01*
X140554510Y-64666534D01*
X140594879Y-64463586D01*
X140674068Y-64272406D01*
X140789033Y-64100349D01*
X140935349Y-63954033D01*
X141107406Y-63839068D01*
X141298583Y-63759880D01*
X141298584Y-63759880D01*
X141298586Y-63759879D01*
X141501534Y-63719510D01*
X141708466Y-63719510D01*
X141911414Y-63759879D01*
X141911414Y-63759879D01*
G37*
M02*
