G04 #@! TF.GenerationSoftware,KiCad,Pcbnew,5.0.2-bee76a0~70~ubuntu18.04.1*
G04 #@! TF.CreationDate,2019-03-08T02:12:37-05:00*
G04 #@! TF.ProjectId,LO1,4c4f312e-6b69-4636-9164-5f7063625858,rev?*
G04 #@! TF.SameCoordinates,Original*
G04 #@! TF.FileFunction,Legend,Bot*
G04 #@! TF.FilePolarity,Positive*
%FSLAX46Y46*%
G04 Gerber Fmt 4.6, Leading zero omitted, Abs format (unit mm)*
G04 Created by KiCad (PCBNEW 5.0.2-bee76a0~70~ubuntu18.04.1) date Fri 08 Mar 2019 02:12:37 AM EST*
%MOMM*%
%LPD*%
G01*
G04 APERTURE LIST*
%ADD10C,0.127000*%
%ADD11C,0.762000*%
%ADD12C,0.254000*%
%ADD13C,0.120000*%
%ADD14C,0.150000*%
%ADD15C,0.050000*%
G04 APERTURE END LIST*
D10*
X132055809Y-73490666D02*
X132055809Y-73200380D01*
X132055809Y-73345523D02*
X131547809Y-73345523D01*
X131620380Y-73297142D01*
X131668761Y-73248761D01*
X131692952Y-73200380D01*
X131596190Y-74845333D02*
X131572000Y-74869523D01*
X131547809Y-74917904D01*
X131547809Y-75038857D01*
X131572000Y-75087238D01*
X131596190Y-75111428D01*
X131644571Y-75135619D01*
X131692952Y-75135619D01*
X131765523Y-75111428D01*
X132055809Y-74821142D01*
X132055809Y-75135619D01*
D11*
X130915210Y-75184000D02*
G75*
G03X130915210Y-75184000I-359210J0D01*
G01*
X130915210Y-73152000D02*
G75*
G03X130915210Y-73152000I-359210J0D01*
G01*
D12*
X131523619Y-64395047D02*
X131039809Y-64056380D01*
X131523619Y-63814476D02*
X130507619Y-63814476D01*
X130507619Y-64201523D01*
X130556000Y-64298285D01*
X130604380Y-64346666D01*
X130701142Y-64395047D01*
X130846285Y-64395047D01*
X130943047Y-64346666D01*
X130991428Y-64298285D01*
X131039809Y-64201523D01*
X131039809Y-63814476D01*
X130991428Y-64830476D02*
X130991428Y-65169142D01*
X131523619Y-65314285D02*
X131523619Y-64830476D01*
X130507619Y-64830476D01*
X130507619Y-65314285D01*
X131426857Y-66330285D02*
X131475238Y-66281904D01*
X131523619Y-66136761D01*
X131523619Y-66040000D01*
X131475238Y-65894857D01*
X131378476Y-65798095D01*
X131281714Y-65749714D01*
X131088190Y-65701333D01*
X130943047Y-65701333D01*
X130749523Y-65749714D01*
X130652761Y-65798095D01*
X130556000Y-65894857D01*
X130507619Y-66040000D01*
X130507619Y-66136761D01*
X130556000Y-66281904D01*
X130604380Y-66330285D01*
X131233333Y-66717333D02*
X131233333Y-67201142D01*
X131523619Y-66620571D02*
X130507619Y-66959238D01*
X131523619Y-67297904D01*
X131523619Y-67636571D02*
X130507619Y-67636571D01*
X130507619Y-68023619D01*
X130556000Y-68120380D01*
X130604380Y-68168761D01*
X130701142Y-68217142D01*
X130846285Y-68217142D01*
X130943047Y-68168761D01*
X130991428Y-68120380D01*
X131039809Y-68023619D01*
X131039809Y-67636571D01*
X131426857Y-68652571D02*
X131475238Y-68700952D01*
X131523619Y-68652571D01*
X131475238Y-68604190D01*
X131426857Y-68652571D01*
X131523619Y-68652571D01*
X130894666Y-68652571D02*
X130943047Y-68700952D01*
X130991428Y-68652571D01*
X130943047Y-68604190D01*
X130894666Y-68652571D01*
X130991428Y-68652571D01*
X131523619Y-70394285D02*
X131523619Y-69910476D01*
X130507619Y-69910476D01*
X130507619Y-70926476D02*
X130507619Y-71120000D01*
X130556000Y-71216761D01*
X130652761Y-71313523D01*
X130846285Y-71361904D01*
X131184952Y-71361904D01*
X131378476Y-71313523D01*
X131475238Y-71216761D01*
X131523619Y-71120000D01*
X131523619Y-70926476D01*
X131475238Y-70829714D01*
X131378476Y-70732952D01*
X131184952Y-70684571D01*
X130846285Y-70684571D01*
X130652761Y-70732952D01*
X130556000Y-70829714D01*
X130507619Y-70926476D01*
D13*
G04 #@! TO.C,C1*
X134878578Y-64822000D02*
X134361422Y-64822000D01*
X134878578Y-66242000D02*
X134361422Y-66242000D01*
G04 #@! TO.C,C2*
X134439922Y-69290000D02*
X134957078Y-69290000D01*
X134439922Y-67870000D02*
X134957078Y-67870000D01*
G04 #@! TO.C,C3*
X137116078Y-76910000D02*
X136598922Y-76910000D01*
X137116078Y-75490000D02*
X136598922Y-75490000D01*
G04 #@! TO.C,C1*
D14*
X134786666Y-64239142D02*
X134834285Y-64286761D01*
X134977142Y-64334380D01*
X135072380Y-64334380D01*
X135215238Y-64286761D01*
X135310476Y-64191523D01*
X135358095Y-64096285D01*
X135405714Y-63905809D01*
X135405714Y-63762952D01*
X135358095Y-63572476D01*
X135310476Y-63477238D01*
X135215238Y-63382000D01*
X135072380Y-63334380D01*
X134977142Y-63334380D01*
X134834285Y-63382000D01*
X134786666Y-63429619D01*
X133834285Y-64334380D02*
X134405714Y-64334380D01*
X134120000Y-64334380D02*
X134120000Y-63334380D01*
X134215238Y-63477238D01*
X134310476Y-63572476D01*
X134405714Y-63620095D01*
G04 #@! TO.C,C2*
X134786666Y-67413142D02*
X134834285Y-67460761D01*
X134977142Y-67508380D01*
X135072380Y-67508380D01*
X135215238Y-67460761D01*
X135310476Y-67365523D01*
X135358095Y-67270285D01*
X135405714Y-67079809D01*
X135405714Y-66936952D01*
X135358095Y-66746476D01*
X135310476Y-66651238D01*
X135215238Y-66556000D01*
X135072380Y-66508380D01*
X134977142Y-66508380D01*
X134834285Y-66556000D01*
X134786666Y-66603619D01*
X134405714Y-66603619D02*
X134358095Y-66556000D01*
X134262857Y-66508380D01*
X134024761Y-66508380D01*
X133929523Y-66556000D01*
X133881904Y-66603619D01*
X133834285Y-66698857D01*
X133834285Y-66794095D01*
X133881904Y-66936952D01*
X134453333Y-67508380D01*
X133834285Y-67508380D01*
G04 #@! TO.C,C3*
X137024166Y-74907142D02*
X137071785Y-74954761D01*
X137214642Y-75002380D01*
X137309880Y-75002380D01*
X137452738Y-74954761D01*
X137547976Y-74859523D01*
X137595595Y-74764285D01*
X137643214Y-74573809D01*
X137643214Y-74430952D01*
X137595595Y-74240476D01*
X137547976Y-74145238D01*
X137452738Y-74050000D01*
X137309880Y-74002380D01*
X137214642Y-74002380D01*
X137071785Y-74050000D01*
X137024166Y-74097619D01*
X136690833Y-74002380D02*
X136071785Y-74002380D01*
X136405119Y-74383333D01*
X136262261Y-74383333D01*
X136167023Y-74430952D01*
X136119404Y-74478571D01*
X136071785Y-74573809D01*
X136071785Y-74811904D01*
X136119404Y-74907142D01*
X136167023Y-74954761D01*
X136262261Y-75002380D01*
X136547976Y-75002380D01*
X136643214Y-74954761D01*
X136690833Y-74907142D01*
G04 #@! TO.C,VCtrl*
X140120476Y-64222380D02*
X139787142Y-65222380D01*
X139453809Y-64222380D01*
X138549047Y-65127142D02*
X138596666Y-65174761D01*
X138739523Y-65222380D01*
X138834761Y-65222380D01*
X138977619Y-65174761D01*
X139072857Y-65079523D01*
X139120476Y-64984285D01*
X139168095Y-64793809D01*
X139168095Y-64650952D01*
X139120476Y-64460476D01*
X139072857Y-64365238D01*
X138977619Y-64270000D01*
X138834761Y-64222380D01*
X138739523Y-64222380D01*
X138596666Y-64270000D01*
X138549047Y-64317619D01*
X138263333Y-64555714D02*
X137882380Y-64555714D01*
X138120476Y-64222380D02*
X138120476Y-65079523D01*
X138072857Y-65174761D01*
X137977619Y-65222380D01*
X137882380Y-65222380D01*
X137549047Y-65222380D02*
X137549047Y-64555714D01*
X137549047Y-64746190D02*
X137501428Y-64650952D01*
X137453809Y-64603333D01*
X137358571Y-64555714D01*
X137263333Y-64555714D01*
X136787142Y-65222380D02*
X136882380Y-65174761D01*
X136930000Y-65079523D01*
X136930000Y-64222380D01*
G04 #@! TO.C,RF-OUT*
X144406666Y-74976380D02*
X144740000Y-74500190D01*
X144978095Y-74976380D02*
X144978095Y-73976380D01*
X144597142Y-73976380D01*
X144501904Y-74024000D01*
X144454285Y-74071619D01*
X144406666Y-74166857D01*
X144406666Y-74309714D01*
X144454285Y-74404952D01*
X144501904Y-74452571D01*
X144597142Y-74500190D01*
X144978095Y-74500190D01*
X143644761Y-74452571D02*
X143978095Y-74452571D01*
X143978095Y-74976380D02*
X143978095Y-73976380D01*
X143501904Y-73976380D01*
X143120952Y-74595428D02*
X142359047Y-74595428D01*
X141692380Y-73976380D02*
X141501904Y-73976380D01*
X141406666Y-74024000D01*
X141311428Y-74119238D01*
X141263809Y-74309714D01*
X141263809Y-74643047D01*
X141311428Y-74833523D01*
X141406666Y-74928761D01*
X141501904Y-74976380D01*
X141692380Y-74976380D01*
X141787619Y-74928761D01*
X141882857Y-74833523D01*
X141930476Y-74643047D01*
X141930476Y-74309714D01*
X141882857Y-74119238D01*
X141787619Y-74024000D01*
X141692380Y-73976380D01*
X140835238Y-73976380D02*
X140835238Y-74785904D01*
X140787619Y-74881142D01*
X140740000Y-74928761D01*
X140644761Y-74976380D01*
X140454285Y-74976380D01*
X140359047Y-74928761D01*
X140311428Y-74881142D01*
X140263809Y-74785904D01*
X140263809Y-73976380D01*
X139930476Y-73976380D02*
X139359047Y-73976380D01*
X139644761Y-74976380D02*
X139644761Y-73976380D01*
G04 #@! TO.C,GND*
X140334904Y-69350000D02*
X140430142Y-69302380D01*
X140573000Y-69302380D01*
X140715857Y-69350000D01*
X140811095Y-69445238D01*
X140858714Y-69540476D01*
X140906333Y-69730952D01*
X140906333Y-69873809D01*
X140858714Y-70064285D01*
X140811095Y-70159523D01*
X140715857Y-70254761D01*
X140573000Y-70302380D01*
X140477761Y-70302380D01*
X140334904Y-70254761D01*
X140287285Y-70207142D01*
X140287285Y-69873809D01*
X140477761Y-69873809D01*
X139858714Y-70302380D02*
X139858714Y-69302380D01*
X139287285Y-70302380D01*
X139287285Y-69302380D01*
X138811095Y-70302380D02*
X138811095Y-69302380D01*
X138573000Y-69302380D01*
X138430142Y-69350000D01*
X138334904Y-69445238D01*
X138287285Y-69540476D01*
X138239666Y-69730952D01*
X138239666Y-69873809D01*
X138287285Y-70064285D01*
X138334904Y-70159523D01*
X138430142Y-70254761D01*
X138573000Y-70302380D01*
X138811095Y-70302380D01*
G04 #@! TO.C,VDD*
X141922333Y-66508380D02*
X141589000Y-67508380D01*
X141255666Y-66508380D01*
X140922333Y-67508380D02*
X140922333Y-66508380D01*
X140684238Y-66508380D01*
X140541380Y-66556000D01*
X140446142Y-66651238D01*
X140398523Y-66746476D01*
X140350904Y-66936952D01*
X140350904Y-67079809D01*
X140398523Y-67270285D01*
X140446142Y-67365523D01*
X140541380Y-67460761D01*
X140684238Y-67508380D01*
X140922333Y-67508380D01*
X139922333Y-67508380D02*
X139922333Y-66508380D01*
X139684238Y-66508380D01*
X139541380Y-66556000D01*
X139446142Y-66651238D01*
X139398523Y-66746476D01*
X139350904Y-66936952D01*
X139350904Y-67079809D01*
X139398523Y-67270285D01*
X139446142Y-67365523D01*
X139541380Y-67460761D01*
X139684238Y-67508380D01*
X139922333Y-67508380D01*
G04 #@! TO.C,U1*
D15*
X135200571Y-73496714D02*
X135200571Y-74113571D01*
X135164285Y-74186142D01*
X135128000Y-74222428D01*
X135055428Y-74258714D01*
X134910285Y-74258714D01*
X134837714Y-74222428D01*
X134801428Y-74186142D01*
X134765142Y-74113571D01*
X134765142Y-73496714D01*
X134003142Y-74258714D02*
X134438571Y-74258714D01*
X134220857Y-74258714D02*
X134220857Y-73496714D01*
X134293428Y-73605571D01*
X134366000Y-73678142D01*
X134438571Y-73714428D01*
G04 #@! TD*
M02*
