M48
;DRILL file {KiCad 5.0.2-bee76a0~70~ubuntu18.04.1} date Fri 08 Mar 2019 02:12:29 AM EST
;FORMAT={-:-/ absolute / inch / decimal}
FMAT,2
INCH,TZ
T1C0.0130
T2C0.0315
%
G90
G05
T1
X5.1Y-2.525
X5.1Y-2.575
X5.1Y-2.775
X5.1Y-2.825
X5.1Y-2.875
X5.1Y-2.925
X5.1Y-2.975
X5.125Y-3.025
X5.175Y-3.025
X5.225Y-2.575
X5.225Y-3.025
X5.245Y-2.9
X5.25Y-2.6
X5.25Y-2.65
X5.25Y-2.7
X5.275Y-3.025
X5.295Y-2.9
X5.3369Y-2.58
X5.37Y-2.58
X5.41Y-2.58
X5.43Y-2.93
X5.45Y-2.678
X5.45Y-2.73
X5.45Y-2.77
X5.45Y-3.025
X5.46Y-2.96
X5.49Y-2.82
X5.49Y-2.99
X5.53Y-2.84
X5.53Y-2.99
X5.55Y-2.88
X5.58Y-3.
X5.6Y-2.87
X5.62Y-3.
X5.64Y-2.87
X5.66Y-3.
X5.68Y-2.87
X5.69Y-2.83
X5.7Y-3.
T2
X5.62Y-2.75
X5.66Y-2.64
X5.575Y-2.55
T0
M30
