G04 #@! TF.GenerationSoftware,KiCad,Pcbnew,5.0.2-bee76a0~70~ubuntu16.04.1*
G04 #@! TF.CreationDate,2019-02-24T18:58:32-05:00*
G04 #@! TF.ProjectId,chain_v03,63686169-6e5f-4763-9033-2e6b69636164,rev?*
G04 #@! TF.SameCoordinates,Original*
G04 #@! TF.FileFunction,Legend,Top*
G04 #@! TF.FilePolarity,Positive*
%FSLAX46Y46*%
G04 Gerber Fmt 4.6, Leading zero omitted, Abs format (unit mm)*
G04 Created by KiCad (PCBNEW 5.0.2-bee76a0~70~ubuntu16.04.1) date Sun 24 Feb 2019 06:58:32 PM EST*
%MOMM*%
%LPD*%
G01*
G04 APERTURE LIST*
%ADD10C,0.200000*%
%ADD11C,0.127000*%
%ADD12C,0.152400*%
%ADD13C,0.150000*%
%ADD14C,0.100000*%
%ADD15C,0.050000*%
%ADD16C,0.075000*%
G04 APERTURE END LIST*
D10*
X89937042Y-79146400D02*
G75*
G03X89937042Y-79146400I-71842J0D01*
G01*
X95453200Y-94742000D02*
G75*
G03X95453200Y-94742000I-50800J0D01*
G01*
D11*
G04 #@! TO.C,U12*
X76057000Y-94226000D02*
X76057000Y-94351000D01*
X76057000Y-94351000D02*
X75507000Y-94351000D01*
X74632000Y-94351000D02*
X74057000Y-94351000D01*
X74057000Y-94351000D02*
X74057000Y-94226000D01*
X76057000Y-93226000D02*
X76057000Y-93101000D01*
X76057000Y-93101000D02*
X75507000Y-93101000D01*
X74632000Y-93101000D02*
X74057000Y-93101000D01*
X74057000Y-93101000D02*
X74057000Y-93226000D01*
D10*
X77132000Y-93776000D02*
G75*
G03X77132000Y-93776000I-125000J0D01*
G01*
D11*
G04 #@! TO.C,C1*
X90735965Y-68594142D02*
X90028858Y-67887035D01*
X89350035Y-68565858D02*
X90057142Y-69272965D01*
G04 #@! TO.C,C2*
X86446000Y-79601000D02*
X87446000Y-79601000D01*
X87446000Y-78641000D02*
X86446000Y-78641000D01*
G04 #@! TO.C,C3*
X89380000Y-83763000D02*
X89380000Y-82763000D01*
X88420000Y-82763000D02*
X88420000Y-83763000D01*
G04 #@! TO.C,C4*
X94968000Y-76270000D02*
X94968000Y-75270000D01*
X94008000Y-75270000D02*
X94008000Y-76270000D01*
G04 #@! TO.C,C5*
X92809000Y-76319000D02*
X92809000Y-75319000D01*
X91849000Y-75319000D02*
X91849000Y-76319000D01*
G04 #@! TO.C,C6*
X58931000Y-78645000D02*
X57931000Y-78645000D01*
X57931000Y-79605000D02*
X58931000Y-79605000D01*
G04 #@! TO.C,C7*
X93190000Y-84906000D02*
X93190000Y-83906000D01*
X92230000Y-83906000D02*
X92230000Y-84906000D01*
G04 #@! TO.C,C8*
X96040000Y-76335000D02*
X96040000Y-77335000D01*
X97000000Y-77335000D02*
X97000000Y-76335000D01*
G04 #@! TO.C,C9*
X59464000Y-82812000D02*
X59464000Y-83812000D01*
X60424000Y-83812000D02*
X60424000Y-82812000D01*
G04 #@! TO.C,C10*
X99638000Y-79657000D02*
X98638000Y-79657000D01*
X98638000Y-80617000D02*
X99638000Y-80617000D01*
G04 #@! TO.C,C11*
X99286000Y-86098000D02*
X99286000Y-85098000D01*
X98326000Y-85098000D02*
X98326000Y-86098000D01*
G04 #@! TO.C,C12*
X104239000Y-82034000D02*
X104239000Y-81034000D01*
X103279000Y-81034000D02*
X103279000Y-82034000D01*
G04 #@! TO.C,C13*
X68298000Y-83050000D02*
X68298000Y-82050000D01*
X67338000Y-82050000D02*
X67338000Y-83050000D01*
G04 #@! TO.C,C14*
X68842000Y-79605000D02*
X69842000Y-79605000D01*
X69842000Y-78645000D02*
X68842000Y-78645000D01*
G04 #@! TO.C,C15*
X63762000Y-102715000D02*
X64762000Y-102715000D01*
X64762000Y-101755000D02*
X63762000Y-101755000D01*
G04 #@! TO.C,C16*
X98495000Y-95024000D02*
X97495000Y-95024000D01*
X97495000Y-95984000D02*
X98495000Y-95984000D01*
G04 #@! TO.C,C17*
X95405000Y-88859000D02*
X95405000Y-89859000D01*
X96365000Y-89859000D02*
X96365000Y-88859000D01*
G04 #@! TO.C,C18*
X91158000Y-98544000D02*
X91158000Y-97544000D01*
X90198000Y-97544000D02*
X90198000Y-98544000D01*
G04 #@! TO.C,C19*
X77843000Y-89563000D02*
X76843000Y-89563000D01*
X76843000Y-90523000D02*
X77843000Y-90523000D01*
G04 #@! TO.C,C20*
X92484000Y-97544000D02*
X92484000Y-98544000D01*
X93444000Y-98544000D02*
X93444000Y-97544000D01*
G04 #@! TO.C,C21*
X92370000Y-89563000D02*
X91370000Y-89563000D01*
X91370000Y-90523000D02*
X92370000Y-90523000D01*
G04 #@! TO.C,C22*
X87150000Y-97798000D02*
X87150000Y-98798000D01*
X88110000Y-98798000D02*
X88110000Y-97798000D01*
G04 #@! TO.C,C23*
X80673000Y-85860000D02*
X80673000Y-86860000D01*
X81633000Y-86860000D02*
X81633000Y-85860000D01*
G04 #@! TO.C,C24*
X84795000Y-92682000D02*
X85795000Y-92682000D01*
X85795000Y-91722000D02*
X84795000Y-91722000D01*
G04 #@! TO.C,C25*
X85570000Y-89146000D02*
X85570000Y-88146000D01*
X84610000Y-88146000D02*
X84610000Y-89146000D01*
G04 #@! TO.C,C26*
X75537000Y-86987000D02*
X75537000Y-85987000D01*
X74577000Y-85987000D02*
X74577000Y-86987000D01*
G04 #@! TO.C,C27*
X79572000Y-93246000D02*
X78572000Y-93246000D01*
X78572000Y-94206000D02*
X79572000Y-94206000D01*
G04 #@! TO.C,C28*
X45204000Y-85268339D02*
X44204000Y-85268339D01*
X44204000Y-86228339D02*
X45204000Y-86228339D01*
G04 #@! TO.C,C29*
X53078000Y-88547000D02*
X52078000Y-88547000D01*
X52078000Y-89507000D02*
X53078000Y-89507000D01*
G04 #@! TO.C,C30*
X53078000Y-84102000D02*
X52078000Y-84102000D01*
X52078000Y-85062000D02*
X53078000Y-85062000D01*
G04 #@! TO.C,J7*
X101144498Y-95858681D02*
G75*
G02X106405000Y-95884000I2607128J-4816911D01*
G01*
X98954942Y-103403600D02*
G75*
G02X98932000Y-98065000I4915015J2690471D01*
G01*
X106451600Y-105515058D02*
G75*
G02X101113000Y-105538000I-2690471J4915015D01*
G01*
X108588378Y-98092856D02*
G75*
G02X108610400Y-103327200I-4819268J-2637494D01*
G01*
G04 #@! TO.C,J11*
X71250378Y-91107856D02*
G75*
G02X71272400Y-96342200I-4819268J-2637494D01*
G01*
X69113600Y-98530058D02*
G75*
G02X63775000Y-98553000I-2690471J4915015D01*
G01*
X61616942Y-96418600D02*
G75*
G02X61594000Y-91080000I4915015J2690471D01*
G01*
X63806498Y-88873681D02*
G75*
G02X69067000Y-88899000I2607128J-4816911D01*
G01*
G04 #@! TO.C,L1*
X84864000Y-82763000D02*
X84864000Y-83763000D01*
X85824000Y-83763000D02*
X85824000Y-82763000D01*
G04 #@! TO.C,L2*
X86446000Y-81633000D02*
X87446000Y-81633000D01*
X87446000Y-80673000D02*
X86446000Y-80673000D01*
G04 #@! TO.C,L3*
X89380000Y-77511000D02*
X89380000Y-76511000D01*
X88420000Y-76511000D02*
X88420000Y-77511000D01*
G04 #@! TO.C,L4*
X62057000Y-78645000D02*
X61057000Y-78645000D01*
X61057000Y-79605000D02*
X62057000Y-79605000D01*
G04 #@! TO.C,L5*
X62456000Y-81829000D02*
X62456000Y-80829000D01*
X61496000Y-80829000D02*
X61496000Y-81829000D01*
G04 #@! TO.C,L6*
X97000000Y-84017000D02*
X97000000Y-83017000D01*
X96040000Y-83017000D02*
X96040000Y-84017000D01*
G04 #@! TO.C,L7*
X99560000Y-77752000D02*
X98560000Y-77752000D01*
X98560000Y-78712000D02*
X99560000Y-78712000D01*
G04 #@! TO.C,L8*
X98638000Y-82649000D02*
X99638000Y-82649000D01*
X99638000Y-81689000D02*
X98638000Y-81689000D01*
G04 #@! TO.C,L9*
X71473000Y-82210000D02*
X71473000Y-81210000D01*
X70513000Y-81210000D02*
X70513000Y-82210000D01*
G04 #@! TO.C,L10*
X98502188Y-90700844D02*
X97502188Y-90700844D01*
X97502188Y-91660844D02*
X98502188Y-91660844D01*
G04 #@! TO.C,L11*
X97502188Y-93946844D02*
X98502188Y-93946844D01*
X98502188Y-92986844D02*
X97502188Y-92986844D01*
G04 #@! TO.C,L12*
X95532000Y-97671000D02*
X95532000Y-98671000D01*
X96492000Y-98671000D02*
X96492000Y-97671000D01*
G04 #@! TO.C,R3*
X64996000Y-83812000D02*
X64996000Y-82812000D01*
X64036000Y-82812000D02*
X64036000Y-83812000D01*
G04 #@! TO.C,U1*
X73787000Y-66550000D02*
X70497000Y-66550000D01*
X70497000Y-66550000D02*
X70497000Y-75690000D01*
X70497000Y-75690000D02*
X73787000Y-75690000D01*
X81407000Y-66550000D02*
X84697000Y-66550000D01*
X84697000Y-66550000D02*
X84697000Y-75690000D01*
X84697000Y-75690000D02*
X81407000Y-75690000D01*
D10*
X75197000Y-76920000D02*
G75*
G03X75197000Y-76920000I-100000J0D01*
G01*
D11*
G04 #@! TO.C,U2*
X53253000Y-77096000D02*
X53253000Y-78796000D01*
X56353000Y-77096000D02*
X56353000Y-78796000D01*
X56353000Y-78796000D02*
X56253000Y-78796000D01*
X56353000Y-77096000D02*
X56253000Y-77096000D01*
X53253000Y-77096000D02*
X53353000Y-77096000D01*
X53253000Y-78796000D02*
X53353000Y-78796000D01*
D10*
X53914810Y-80115000D02*
G75*
G03X53914810Y-80115000I-61810J0D01*
G01*
D12*
G04 #@! TO.C,U3*
X90703400Y-81610200D02*
X90703400Y-82143600D01*
X90703400Y-78130400D02*
X90703400Y-78663800D01*
X94716600Y-78130400D02*
X94183200Y-78130400D01*
X94716600Y-82143600D02*
X94716600Y-81610200D01*
X90703400Y-82143600D02*
X91236800Y-82143600D01*
X91236800Y-78130400D02*
X90703400Y-78130400D01*
X94183200Y-82143600D02*
X94716600Y-82143600D01*
X94716600Y-78663800D02*
X94716600Y-78130400D01*
X95351600Y-80441800D02*
X96342200Y-80441800D01*
D11*
G04 #@! TO.C,U4*
X64289000Y-78309000D02*
X66289000Y-78309000D01*
X64289000Y-80449000D02*
X66289000Y-80449000D01*
D13*
X63720000Y-78629000D02*
G75*
G03X63720000Y-78629000I-50000J0D01*
G01*
D10*
G04 #@! TO.C,U5*
X48656000Y-95163000D02*
G75*
G03X48656000Y-95163000I-100000J0D01*
G01*
D11*
X49786000Y-104763000D02*
X49786000Y-101473000D01*
X58926000Y-104763000D02*
X49786000Y-104763000D01*
X58926000Y-101473000D02*
X58926000Y-104763000D01*
X49786000Y-90563000D02*
X49786000Y-93853000D01*
X58926000Y-90563000D02*
X49786000Y-90563000D01*
X58926000Y-93853000D02*
X58926000Y-90563000D01*
G04 #@! TO.C,U6*
X104409000Y-84344000D02*
X104409000Y-84844000D01*
X104409000Y-85844000D02*
X104409000Y-86344000D01*
X103109000Y-86344000D02*
X103109000Y-85844000D01*
X103109000Y-84844000D02*
X103109000Y-84344000D01*
D14*
G04 #@! TO.C,U8*
X75429310Y-77865000D02*
G75*
G03X75429310Y-77865000I-234310J0D01*
G01*
D12*
G04 #@! TO.C,U10*
X90026588Y-93416044D02*
X89035988Y-93416044D01*
X90661588Y-95194044D02*
X90661588Y-95727444D01*
X91194988Y-91714244D02*
X90661588Y-91714244D01*
X94141388Y-95727444D02*
X94674788Y-95727444D01*
X94674788Y-91714244D02*
X94141388Y-91714244D01*
X90661588Y-91714244D02*
X90661588Y-92247644D01*
X90661588Y-95727444D02*
X91194988Y-95727444D01*
X94674788Y-95727444D02*
X94674788Y-95194044D01*
X94674788Y-92247644D02*
X94674788Y-91714244D01*
D11*
G04 #@! TO.C,U14*
X50444000Y-77313000D02*
X50444000Y-79913000D01*
X45944000Y-81813000D02*
X48544000Y-81813000D01*
X45944000Y-75413000D02*
X48544000Y-75413000D01*
X44044000Y-79913000D02*
X44044000Y-77313000D01*
G04 #@! TO.C,LO1 Test*
D13*
X98266571Y-68397380D02*
X97790380Y-68397380D01*
X97790380Y-67397380D01*
X98790380Y-67397380D02*
X98980857Y-67397380D01*
X99076095Y-67445000D01*
X99171333Y-67540238D01*
X99218952Y-67730714D01*
X99218952Y-68064047D01*
X99171333Y-68254523D01*
X99076095Y-68349761D01*
X98980857Y-68397380D01*
X98790380Y-68397380D01*
X98695142Y-68349761D01*
X98599904Y-68254523D01*
X98552285Y-68064047D01*
X98552285Y-67730714D01*
X98599904Y-67540238D01*
X98695142Y-67445000D01*
X98790380Y-67397380D01*
X100171333Y-68397380D02*
X99599904Y-68397380D01*
X99885619Y-68397380D02*
X99885619Y-67397380D01*
X99790380Y-67540238D01*
X99695142Y-67635476D01*
X99599904Y-67683095D01*
X101218952Y-67397380D02*
X101790380Y-67397380D01*
X101504666Y-68397380D02*
X101504666Y-67397380D01*
X102504666Y-68349761D02*
X102409428Y-68397380D01*
X102218952Y-68397380D01*
X102123714Y-68349761D01*
X102076095Y-68254523D01*
X102076095Y-67873571D01*
X102123714Y-67778333D01*
X102218952Y-67730714D01*
X102409428Y-67730714D01*
X102504666Y-67778333D01*
X102552285Y-67873571D01*
X102552285Y-67968809D01*
X102076095Y-68064047D01*
X102933238Y-68349761D02*
X103028476Y-68397380D01*
X103218952Y-68397380D01*
X103314190Y-68349761D01*
X103361809Y-68254523D01*
X103361809Y-68206904D01*
X103314190Y-68111666D01*
X103218952Y-68064047D01*
X103076095Y-68064047D01*
X102980857Y-68016428D01*
X102933238Y-67921190D01*
X102933238Y-67873571D01*
X102980857Y-67778333D01*
X103076095Y-67730714D01*
X103218952Y-67730714D01*
X103314190Y-67778333D01*
X103647523Y-67730714D02*
X104028476Y-67730714D01*
X103790380Y-67397380D02*
X103790380Y-68254523D01*
X103838000Y-68349761D01*
X103933238Y-68397380D01*
X104028476Y-68397380D01*
G04 #@! TO.C,U12*
D15*
X73988617Y-91102750D02*
X73988617Y-91751484D01*
X74026778Y-91827806D01*
X74064939Y-91865967D01*
X74141261Y-91904128D01*
X74293904Y-91904128D01*
X74370226Y-91865967D01*
X74408387Y-91827806D01*
X74446548Y-91751484D01*
X74446548Y-91102750D01*
X75247926Y-91904128D02*
X74789995Y-91904128D01*
X75018960Y-91904128D02*
X75018960Y-91102750D01*
X74942639Y-91217232D01*
X74866317Y-91293554D01*
X74789995Y-91331715D01*
X75553212Y-91179071D02*
X75591373Y-91140911D01*
X75667695Y-91102750D01*
X75858499Y-91102750D01*
X75934821Y-91140911D01*
X75972982Y-91179071D01*
X76011143Y-91255393D01*
X76011143Y-91331715D01*
X75972982Y-91446197D01*
X75515052Y-91904128D01*
X76011143Y-91904128D01*
X71828780Y-96089409D02*
X71828780Y-95581409D01*
X72119066Y-96089409D01*
X72119066Y-95581409D01*
X72530304Y-95823314D02*
X72360971Y-95823314D01*
X72360971Y-96089409D02*
X72360971Y-95581409D01*
X72602876Y-95581409D01*
X73038304Y-96089409D02*
X72796400Y-96089409D01*
X72796400Y-95581409D01*
X73183447Y-95629790D02*
X73207638Y-95605600D01*
X73256019Y-95581409D01*
X73376971Y-95581409D01*
X73425352Y-95605600D01*
X73449542Y-95629790D01*
X73473733Y-95678171D01*
X73473733Y-95726552D01*
X73449542Y-95799123D01*
X73159257Y-96089409D01*
X73473733Y-96089409D01*
X73957542Y-96089409D02*
X73667257Y-96089409D01*
X73812400Y-96089409D02*
X73812400Y-95581409D01*
X73764019Y-95653980D01*
X73715638Y-95702361D01*
X73667257Y-95726552D01*
X74151066Y-96065219D02*
X74223638Y-96089409D01*
X74344590Y-96089409D01*
X74392971Y-96065219D01*
X74417161Y-96041028D01*
X74441352Y-95992647D01*
X74441352Y-95944266D01*
X74417161Y-95895885D01*
X74392971Y-95871695D01*
X74344590Y-95847504D01*
X74247828Y-95823314D01*
X74199447Y-95799123D01*
X74175257Y-95774933D01*
X74151066Y-95726552D01*
X74151066Y-95678171D01*
X74175257Y-95629790D01*
X74199447Y-95605600D01*
X74247828Y-95581409D01*
X74368780Y-95581409D01*
X74441352Y-95605600D01*
X74659066Y-96089409D02*
X74659066Y-95581409D01*
X74852590Y-95581409D01*
X74900971Y-95605600D01*
X74925161Y-95629790D01*
X74949352Y-95678171D01*
X74949352Y-95750742D01*
X74925161Y-95799123D01*
X74900971Y-95823314D01*
X74852590Y-95847504D01*
X74659066Y-95847504D01*
X75433161Y-96089409D02*
X75142876Y-96089409D01*
X75288019Y-96089409D02*
X75288019Y-95581409D01*
X75239638Y-95653980D01*
X75191257Y-95702361D01*
X75142876Y-95726552D01*
X75747638Y-95581409D02*
X75796019Y-95581409D01*
X75844400Y-95605600D01*
X75868590Y-95629790D01*
X75892780Y-95678171D01*
X75916971Y-95774933D01*
X75916971Y-95895885D01*
X75892780Y-95992647D01*
X75868590Y-96041028D01*
X75844400Y-96065219D01*
X75796019Y-96089409D01*
X75747638Y-96089409D01*
X75699257Y-96065219D01*
X75675066Y-96041028D01*
X75650876Y-95992647D01*
X75626685Y-95895885D01*
X75626685Y-95774933D01*
X75650876Y-95678171D01*
X75675066Y-95629790D01*
X75699257Y-95605600D01*
X75747638Y-95581409D01*
X76352400Y-95581409D02*
X76255638Y-95581409D01*
X76207257Y-95605600D01*
X76183066Y-95629790D01*
X76134685Y-95702361D01*
X76110495Y-95799123D01*
X76110495Y-95992647D01*
X76134685Y-96041028D01*
X76158876Y-96065219D01*
X76207257Y-96089409D01*
X76304019Y-96089409D01*
X76352400Y-96065219D01*
X76376590Y-96041028D01*
X76400780Y-95992647D01*
X76400780Y-95871695D01*
X76376590Y-95823314D01*
X76352400Y-95799123D01*
X76304019Y-95774933D01*
X76207257Y-95774933D01*
X76158876Y-95799123D01*
X76134685Y-95823314D01*
X76110495Y-95871695D01*
X76570114Y-95581409D02*
X76908780Y-96089409D01*
X76908780Y-95581409D02*
X76570114Y-96089409D01*
X77368400Y-96089409D02*
X77078114Y-96089409D01*
X77223257Y-96089409D02*
X77223257Y-95581409D01*
X77174876Y-95653980D01*
X77126495Y-95702361D01*
X77078114Y-95726552D01*
X77876400Y-96041028D02*
X77852209Y-96065219D01*
X77779638Y-96089409D01*
X77731257Y-96089409D01*
X77658685Y-96065219D01*
X77610304Y-96016838D01*
X77586114Y-95968457D01*
X77561923Y-95871695D01*
X77561923Y-95799123D01*
X77586114Y-95702361D01*
X77610304Y-95653980D01*
X77658685Y-95605600D01*
X77731257Y-95581409D01*
X77779638Y-95581409D01*
X77852209Y-95605600D01*
X77876400Y-95629790D01*
X78045733Y-95581409D02*
X78360209Y-95581409D01*
X78190876Y-95774933D01*
X78263447Y-95774933D01*
X78311828Y-95799123D01*
X78336019Y-95823314D01*
X78360209Y-95871695D01*
X78360209Y-95992647D01*
X78336019Y-96041028D01*
X78311828Y-96065219D01*
X78263447Y-96089409D01*
X78118304Y-96089409D01*
X78069923Y-96065219D01*
X78045733Y-96041028D01*
X78577923Y-96089409D02*
X78577923Y-95581409D01*
X78698876Y-95581409D01*
X78771447Y-95605600D01*
X78819828Y-95653980D01*
X78844019Y-95702361D01*
X78868209Y-95799123D01*
X78868209Y-95871695D01*
X78844019Y-95968457D01*
X78819828Y-96016838D01*
X78771447Y-96065219D01*
X78698876Y-96089409D01*
X78577923Y-96089409D01*
G04 #@! TO.C,C1*
X89554628Y-69281991D02*
X89538396Y-69281991D01*
X89505933Y-69265759D01*
X89489701Y-69249528D01*
X89473469Y-69217064D01*
X89473469Y-69184601D01*
X89481585Y-69160253D01*
X89505933Y-69119674D01*
X89530280Y-69095326D01*
X89570860Y-69070978D01*
X89595207Y-69062863D01*
X89627671Y-69062863D01*
X89660134Y-69079094D01*
X89676366Y-69095326D01*
X89692598Y-69127789D01*
X89692598Y-69144021D01*
X89700714Y-69460540D02*
X89603323Y-69363150D01*
X89652018Y-69411845D02*
X89822452Y-69241412D01*
X89781872Y-69249528D01*
X89749409Y-69249528D01*
X89725061Y-69241412D01*
X90403992Y-67891603D02*
X90306624Y-67794235D01*
X90355308Y-67842919D02*
X90525702Y-67672525D01*
X90485132Y-67680639D01*
X90452676Y-67680639D01*
X90428334Y-67672525D01*
X90679867Y-67826691D02*
X90696095Y-67842919D01*
X90704209Y-67867261D01*
X90704209Y-67883489D01*
X90696095Y-67907831D01*
X90671754Y-67948401D01*
X90631184Y-67988971D01*
X90590614Y-68013312D01*
X90566272Y-68021426D01*
X90550044Y-68021426D01*
X90525702Y-68013312D01*
X90509474Y-67997085D01*
X90501360Y-67972743D01*
X90501360Y-67956515D01*
X90509474Y-67932173D01*
X90533816Y-67891603D01*
X90574386Y-67851033D01*
X90614956Y-67826691D01*
X90639298Y-67818577D01*
X90655526Y-67818577D01*
X90679867Y-67826691D01*
X90842147Y-67988971D02*
X90858375Y-68005199D01*
X90866489Y-68029540D01*
X90866489Y-68045768D01*
X90858375Y-68070110D01*
X90834033Y-68110680D01*
X90793463Y-68151250D01*
X90752893Y-68175592D01*
X90728551Y-68183706D01*
X90712323Y-68183706D01*
X90687981Y-68175592D01*
X90671754Y-68159364D01*
X90663640Y-68135022D01*
X90663640Y-68118794D01*
X90671754Y-68094452D01*
X90696095Y-68053882D01*
X90736665Y-68013312D01*
X90777235Y-67988971D01*
X90801577Y-67980857D01*
X90817805Y-67980857D01*
X90842147Y-67988971D01*
X90915173Y-68175592D02*
X90744779Y-68345986D01*
X90907059Y-68183706D02*
X90931401Y-68191820D01*
X90963857Y-68224276D01*
X90971971Y-68248618D01*
X90971971Y-68264846D01*
X90963857Y-68289188D01*
X90915173Y-68337872D01*
X90890831Y-68345986D01*
X90874603Y-68345986D01*
X90850261Y-68337872D01*
X90817805Y-68305416D01*
X90809691Y-68281074D01*
G04 #@! TO.C,C2*
X87097052Y-79962713D02*
X87085574Y-79974191D01*
X87051142Y-79985668D01*
X87028187Y-79985668D01*
X86993754Y-79974191D01*
X86970799Y-79951236D01*
X86959321Y-79928281D01*
X86947844Y-79882370D01*
X86947844Y-79847938D01*
X86959321Y-79802027D01*
X86970799Y-79779072D01*
X86993754Y-79756117D01*
X87028187Y-79744639D01*
X87051142Y-79744639D01*
X87085574Y-79756117D01*
X87097052Y-79767595D01*
X87188873Y-79767595D02*
X87200350Y-79756117D01*
X87223305Y-79744639D01*
X87280693Y-79744639D01*
X87303648Y-79756117D01*
X87315126Y-79767595D01*
X87326603Y-79790550D01*
X87326603Y-79813505D01*
X87315126Y-79847938D01*
X87177395Y-79985668D01*
X87326603Y-79985668D01*
X86748915Y-78218320D02*
X86748915Y-78378969D01*
X86691540Y-78126521D02*
X86634166Y-78298645D01*
X86783340Y-78298645D01*
X86875139Y-78356019D02*
X86886614Y-78367494D01*
X86875139Y-78378969D01*
X86863664Y-78367494D01*
X86875139Y-78356019D01*
X86875139Y-78378969D01*
X87093162Y-78218320D02*
X87093162Y-78378969D01*
X87035788Y-78126521D02*
X86978413Y-78298645D01*
X87127587Y-78298645D01*
X87219386Y-78218320D02*
X87219386Y-78459293D01*
X87219386Y-78229795D02*
X87242336Y-78218320D01*
X87288235Y-78218320D01*
X87311185Y-78229795D01*
X87322660Y-78241270D01*
X87334135Y-78264220D01*
X87334135Y-78333069D01*
X87322660Y-78356019D01*
X87311185Y-78367494D01*
X87288235Y-78378969D01*
X87242336Y-78378969D01*
X87219386Y-78367494D01*
G04 #@! TO.C,C3*
X88230449Y-83494395D02*
X88241927Y-83505873D01*
X88253404Y-83540305D01*
X88253404Y-83563260D01*
X88241927Y-83597693D01*
X88218972Y-83620648D01*
X88196017Y-83632126D01*
X88150106Y-83643603D01*
X88115674Y-83643603D01*
X88069763Y-83632126D01*
X88046808Y-83620648D01*
X88023853Y-83597693D01*
X88012375Y-83563260D01*
X88012375Y-83540305D01*
X88023853Y-83505873D01*
X88035331Y-83494395D01*
X88012375Y-83414052D02*
X88012375Y-83264844D01*
X88104196Y-83345187D01*
X88104196Y-83310754D01*
X88115674Y-83287799D01*
X88127151Y-83276321D01*
X88150106Y-83264844D01*
X88207494Y-83264844D01*
X88230449Y-83276321D01*
X88241927Y-83287799D01*
X88253404Y-83310754D01*
X88253404Y-83379619D01*
X88241927Y-83402574D01*
X88230449Y-83414052D01*
X89699404Y-83536386D02*
X89860053Y-83536386D01*
X89607605Y-83593761D02*
X89779729Y-83651135D01*
X89779729Y-83501961D01*
X89837103Y-83410162D02*
X89848578Y-83398687D01*
X89860053Y-83410162D01*
X89848578Y-83421637D01*
X89837103Y-83410162D01*
X89860053Y-83410162D01*
X89699404Y-83192139D02*
X89860053Y-83192139D01*
X89607605Y-83249513D02*
X89779729Y-83306888D01*
X89779729Y-83157714D01*
X89699404Y-83065915D02*
X89940377Y-83065915D01*
X89710879Y-83065915D02*
X89699404Y-83042965D01*
X89699404Y-82997066D01*
X89710879Y-82974116D01*
X89722354Y-82962641D01*
X89745304Y-82951166D01*
X89814153Y-82951166D01*
X89837103Y-82962641D01*
X89848578Y-82974116D01*
X89860053Y-82997066D01*
X89860053Y-83042965D01*
X89848578Y-83065915D01*
G04 #@! TO.C,C4*
X95329713Y-75618947D02*
X95341191Y-75630425D01*
X95352668Y-75664857D01*
X95352668Y-75687812D01*
X95341191Y-75722245D01*
X95318236Y-75745200D01*
X95295281Y-75756678D01*
X95249370Y-75768155D01*
X95214938Y-75768155D01*
X95169027Y-75756678D01*
X95146072Y-75745200D01*
X95123117Y-75722245D01*
X95111639Y-75687812D01*
X95111639Y-75664857D01*
X95123117Y-75630425D01*
X95134595Y-75618947D01*
X95191982Y-75412351D02*
X95352668Y-75412351D01*
X95100162Y-75469739D02*
X95272325Y-75527126D01*
X95272325Y-75377918D01*
X93745969Y-76001509D02*
X93745969Y-76139208D01*
X93745969Y-76070358D02*
X93504996Y-76070358D01*
X93539421Y-76093308D01*
X93562371Y-76116258D01*
X93573846Y-76139208D01*
X93504996Y-75852335D02*
X93504996Y-75829385D01*
X93516471Y-75806435D01*
X93527946Y-75794960D01*
X93550896Y-75783486D01*
X93596795Y-75772011D01*
X93654170Y-75772011D01*
X93700069Y-75783486D01*
X93723019Y-75794960D01*
X93734494Y-75806435D01*
X93745969Y-75829385D01*
X93745969Y-75852335D01*
X93734494Y-75875285D01*
X93723019Y-75886760D01*
X93700069Y-75898235D01*
X93654170Y-75909710D01*
X93596795Y-75909710D01*
X93550896Y-75898235D01*
X93527946Y-75886760D01*
X93516471Y-75875285D01*
X93504996Y-75852335D01*
X93504996Y-75622837D02*
X93504996Y-75599887D01*
X93516471Y-75576937D01*
X93527946Y-75565462D01*
X93550896Y-75553987D01*
X93596795Y-75542513D01*
X93654170Y-75542513D01*
X93700069Y-75553987D01*
X93723019Y-75565462D01*
X93734494Y-75576937D01*
X93745969Y-75599887D01*
X93745969Y-75622837D01*
X93734494Y-75645787D01*
X93723019Y-75657262D01*
X93700069Y-75668737D01*
X93654170Y-75680211D01*
X93596795Y-75680211D01*
X93550896Y-75668737D01*
X93527946Y-75657262D01*
X93516471Y-75645787D01*
X93504996Y-75622837D01*
X93585320Y-75439238D02*
X93826293Y-75439238D01*
X93596795Y-75439238D02*
X93585320Y-75416289D01*
X93585320Y-75370389D01*
X93596795Y-75347439D01*
X93608270Y-75335964D01*
X93631220Y-75324489D01*
X93700069Y-75324489D01*
X93723019Y-75335964D01*
X93734494Y-75347439D01*
X93745969Y-75370389D01*
X93745969Y-75416289D01*
X93734494Y-75439238D01*
G04 #@! TO.C,C5*
X93170713Y-75667947D02*
X93182191Y-75679425D01*
X93193668Y-75713857D01*
X93193668Y-75736812D01*
X93182191Y-75771245D01*
X93159236Y-75794200D01*
X93136281Y-75805678D01*
X93090370Y-75817155D01*
X93055938Y-75817155D01*
X93010027Y-75805678D01*
X92987072Y-75794200D01*
X92964117Y-75771245D01*
X92952639Y-75736812D01*
X92952639Y-75713857D01*
X92964117Y-75679425D01*
X92975595Y-75667947D01*
X92952639Y-75449873D02*
X92952639Y-75564649D01*
X93067415Y-75576126D01*
X93055938Y-75564649D01*
X93044460Y-75541694D01*
X93044460Y-75484306D01*
X93055938Y-75461351D01*
X93067415Y-75449873D01*
X93090370Y-75438396D01*
X93147758Y-75438396D01*
X93170713Y-75449873D01*
X93182191Y-75461351D01*
X93193668Y-75484306D01*
X93193668Y-75541694D01*
X93182191Y-75564649D01*
X93170713Y-75576126D01*
X91586969Y-76050509D02*
X91586969Y-76188208D01*
X91586969Y-76119358D02*
X91345996Y-76119358D01*
X91380421Y-76142308D01*
X91403371Y-76165258D01*
X91414846Y-76188208D01*
X91345996Y-75901335D02*
X91345996Y-75878385D01*
X91357471Y-75855435D01*
X91368946Y-75843960D01*
X91391896Y-75832486D01*
X91437795Y-75821011D01*
X91495170Y-75821011D01*
X91541069Y-75832486D01*
X91564019Y-75843960D01*
X91575494Y-75855435D01*
X91586969Y-75878385D01*
X91586969Y-75901335D01*
X91575494Y-75924285D01*
X91564019Y-75935760D01*
X91541069Y-75947235D01*
X91495170Y-75958710D01*
X91437795Y-75958710D01*
X91391896Y-75947235D01*
X91368946Y-75935760D01*
X91357471Y-75924285D01*
X91345996Y-75901335D01*
X91345996Y-75671837D02*
X91345996Y-75648887D01*
X91357471Y-75625937D01*
X91368946Y-75614462D01*
X91391896Y-75602987D01*
X91437795Y-75591513D01*
X91495170Y-75591513D01*
X91541069Y-75602987D01*
X91564019Y-75614462D01*
X91575494Y-75625937D01*
X91586969Y-75648887D01*
X91586969Y-75671837D01*
X91575494Y-75694787D01*
X91564019Y-75706262D01*
X91541069Y-75717737D01*
X91495170Y-75729211D01*
X91437795Y-75729211D01*
X91391896Y-75717737D01*
X91368946Y-75706262D01*
X91357471Y-75694787D01*
X91345996Y-75671837D01*
X91426320Y-75488238D02*
X91667293Y-75488238D01*
X91437795Y-75488238D02*
X91426320Y-75465289D01*
X91426320Y-75419389D01*
X91437795Y-75396439D01*
X91449270Y-75384964D01*
X91472220Y-75373489D01*
X91541069Y-75373489D01*
X91564019Y-75384964D01*
X91575494Y-75396439D01*
X91586969Y-75419389D01*
X91586969Y-75465289D01*
X91575494Y-75488238D01*
G04 #@! TO.C,C6*
X58582052Y-79966713D02*
X58570574Y-79978191D01*
X58536142Y-79989668D01*
X58513187Y-79989668D01*
X58478754Y-79978191D01*
X58455799Y-79955236D01*
X58444321Y-79932281D01*
X58432844Y-79886370D01*
X58432844Y-79851938D01*
X58444321Y-79806027D01*
X58455799Y-79783072D01*
X58478754Y-79760117D01*
X58513187Y-79748639D01*
X58536142Y-79748639D01*
X58570574Y-79760117D01*
X58582052Y-79771595D01*
X58788648Y-79748639D02*
X58742738Y-79748639D01*
X58719783Y-79760117D01*
X58708305Y-79771595D01*
X58685350Y-79806027D01*
X58673873Y-79851938D01*
X58673873Y-79943758D01*
X58685350Y-79966713D01*
X58696828Y-79978191D01*
X58719783Y-79989668D01*
X58765693Y-79989668D01*
X58788648Y-79978191D01*
X58800126Y-79966713D01*
X58811603Y-79943758D01*
X58811603Y-79886370D01*
X58800126Y-79863415D01*
X58788648Y-79851938D01*
X58765693Y-79840460D01*
X58719783Y-79840460D01*
X58696828Y-79851938D01*
X58685350Y-79863415D01*
X58673873Y-79886370D01*
X58199490Y-78382969D02*
X58061791Y-78382969D01*
X58130641Y-78382969D02*
X58130641Y-78141996D01*
X58107691Y-78176421D01*
X58084741Y-78199371D01*
X58061791Y-78210846D01*
X58348664Y-78141996D02*
X58371614Y-78141996D01*
X58394564Y-78153471D01*
X58406039Y-78164946D01*
X58417513Y-78187896D01*
X58428988Y-78233795D01*
X58428988Y-78291170D01*
X58417513Y-78337069D01*
X58406039Y-78360019D01*
X58394564Y-78371494D01*
X58371614Y-78382969D01*
X58348664Y-78382969D01*
X58325714Y-78371494D01*
X58314239Y-78360019D01*
X58302764Y-78337069D01*
X58291289Y-78291170D01*
X58291289Y-78233795D01*
X58302764Y-78187896D01*
X58314239Y-78164946D01*
X58325714Y-78153471D01*
X58348664Y-78141996D01*
X58578162Y-78141996D02*
X58601112Y-78141996D01*
X58624062Y-78153471D01*
X58635537Y-78164946D01*
X58647012Y-78187896D01*
X58658486Y-78233795D01*
X58658486Y-78291170D01*
X58647012Y-78337069D01*
X58635537Y-78360019D01*
X58624062Y-78371494D01*
X58601112Y-78382969D01*
X58578162Y-78382969D01*
X58555212Y-78371494D01*
X58543737Y-78360019D01*
X58532262Y-78337069D01*
X58520788Y-78291170D01*
X58520788Y-78233795D01*
X58532262Y-78187896D01*
X58543737Y-78164946D01*
X58555212Y-78153471D01*
X58578162Y-78141996D01*
X58761761Y-78222320D02*
X58761761Y-78463293D01*
X58761761Y-78233795D02*
X58784710Y-78222320D01*
X58830610Y-78222320D01*
X58853560Y-78233795D01*
X58865035Y-78245270D01*
X58876510Y-78268220D01*
X58876510Y-78337069D01*
X58865035Y-78360019D01*
X58853560Y-78371494D01*
X58830610Y-78382969D01*
X58784710Y-78382969D01*
X58761761Y-78371494D01*
G04 #@! TO.C,C7*
X92040449Y-84637395D02*
X92051927Y-84648873D01*
X92063404Y-84683305D01*
X92063404Y-84706260D01*
X92051927Y-84740693D01*
X92028972Y-84763648D01*
X92006017Y-84775126D01*
X91960106Y-84786603D01*
X91925674Y-84786603D01*
X91879763Y-84775126D01*
X91856808Y-84763648D01*
X91833853Y-84740693D01*
X91822375Y-84706260D01*
X91822375Y-84683305D01*
X91833853Y-84648873D01*
X91845331Y-84637395D01*
X91822375Y-84557052D02*
X91822375Y-84396366D01*
X92063404Y-84499664D01*
X93452030Y-84794135D02*
X93440555Y-84782660D01*
X93429080Y-84759710D01*
X93429080Y-84702336D01*
X93440555Y-84679386D01*
X93452030Y-84667911D01*
X93474980Y-84656436D01*
X93497930Y-84656436D01*
X93532354Y-84667911D01*
X93670053Y-84805610D01*
X93670053Y-84656436D01*
X93647103Y-84553162D02*
X93658578Y-84541687D01*
X93670053Y-84553162D01*
X93658578Y-84564637D01*
X93647103Y-84553162D01*
X93670053Y-84553162D01*
X93452030Y-84449888D02*
X93440555Y-84438413D01*
X93429080Y-84415463D01*
X93429080Y-84358089D01*
X93440555Y-84335139D01*
X93452030Y-84323664D01*
X93474980Y-84312189D01*
X93497930Y-84312189D01*
X93532354Y-84323664D01*
X93670053Y-84461363D01*
X93670053Y-84312189D01*
X93509404Y-84105641D02*
X93670053Y-84105641D01*
X93509404Y-84208915D02*
X93635628Y-84208915D01*
X93658578Y-84197440D01*
X93670053Y-84174490D01*
X93670053Y-84140066D01*
X93658578Y-84117116D01*
X93647103Y-84105641D01*
G04 #@! TO.C,C8*
X97361713Y-76683947D02*
X97373191Y-76695425D01*
X97384668Y-76729857D01*
X97384668Y-76752812D01*
X97373191Y-76787245D01*
X97350236Y-76810200D01*
X97327281Y-76821678D01*
X97281370Y-76833155D01*
X97246938Y-76833155D01*
X97201027Y-76821678D01*
X97178072Y-76810200D01*
X97155117Y-76787245D01*
X97143639Y-76752812D01*
X97143639Y-76729857D01*
X97155117Y-76695425D01*
X97166595Y-76683947D01*
X97246938Y-76546216D02*
X97235460Y-76569171D01*
X97223982Y-76580649D01*
X97201027Y-76592126D01*
X97189550Y-76592126D01*
X97166595Y-76580649D01*
X97155117Y-76569171D01*
X97143639Y-76546216D01*
X97143639Y-76500306D01*
X97155117Y-76477351D01*
X97166595Y-76465873D01*
X97189550Y-76454396D01*
X97201027Y-76454396D01*
X97223982Y-76465873D01*
X97235460Y-76477351D01*
X97246938Y-76500306D01*
X97246938Y-76546216D01*
X97258415Y-76569171D01*
X97269893Y-76580649D01*
X97292848Y-76592126D01*
X97338758Y-76592126D01*
X97361713Y-76580649D01*
X97373191Y-76569171D01*
X97384668Y-76546216D01*
X97384668Y-76500306D01*
X97373191Y-76477351D01*
X97361713Y-76465873D01*
X97338758Y-76454396D01*
X97292848Y-76454396D01*
X97269893Y-76465873D01*
X97258415Y-76477351D01*
X97246938Y-76500306D01*
X95777969Y-76951760D02*
X95777969Y-77089459D01*
X95777969Y-77020609D02*
X95536996Y-77020609D01*
X95571421Y-77043559D01*
X95594371Y-77066509D01*
X95605846Y-77089459D01*
X95777969Y-76722262D02*
X95777969Y-76859960D01*
X95777969Y-76791111D02*
X95536996Y-76791111D01*
X95571421Y-76814061D01*
X95594371Y-76837011D01*
X95605846Y-76859960D01*
X95617320Y-76618987D02*
X95858293Y-76618987D01*
X95628795Y-76618987D02*
X95617320Y-76596038D01*
X95617320Y-76550138D01*
X95628795Y-76527188D01*
X95640270Y-76515713D01*
X95663220Y-76504238D01*
X95732069Y-76504238D01*
X95755019Y-76515713D01*
X95766494Y-76527188D01*
X95777969Y-76550138D01*
X95777969Y-76596038D01*
X95766494Y-76618987D01*
G04 #@! TO.C,C9*
X59274449Y-83543395D02*
X59285927Y-83554873D01*
X59297404Y-83589305D01*
X59297404Y-83612260D01*
X59285927Y-83646693D01*
X59262972Y-83669648D01*
X59240017Y-83681126D01*
X59194106Y-83692603D01*
X59159674Y-83692603D01*
X59113763Y-83681126D01*
X59090808Y-83669648D01*
X59067853Y-83646693D01*
X59056375Y-83612260D01*
X59056375Y-83589305D01*
X59067853Y-83554873D01*
X59079331Y-83543395D01*
X59297404Y-83428619D02*
X59297404Y-83382709D01*
X59285927Y-83359754D01*
X59274449Y-83348276D01*
X59240017Y-83325321D01*
X59194106Y-83313844D01*
X59102286Y-83313844D01*
X59079331Y-83325321D01*
X59067853Y-83336799D01*
X59056375Y-83359754D01*
X59056375Y-83405664D01*
X59067853Y-83428619D01*
X59079331Y-83440097D01*
X59102286Y-83451574D01*
X59159674Y-83451574D01*
X59182629Y-83440097D01*
X59194106Y-83428619D01*
X59205584Y-83405664D01*
X59205584Y-83359754D01*
X59194106Y-83336799D01*
X59182629Y-83325321D01*
X59159674Y-83313844D01*
X60904053Y-83619811D02*
X60904053Y-83757510D01*
X60904053Y-83688660D02*
X60663080Y-83688660D01*
X60697505Y-83711610D01*
X60720455Y-83734560D01*
X60731930Y-83757510D01*
X60663080Y-83470637D02*
X60663080Y-83447687D01*
X60674555Y-83424737D01*
X60686030Y-83413262D01*
X60708980Y-83401788D01*
X60754879Y-83390313D01*
X60812254Y-83390313D01*
X60858153Y-83401788D01*
X60881103Y-83413262D01*
X60892578Y-83424737D01*
X60904053Y-83447687D01*
X60904053Y-83470637D01*
X60892578Y-83493587D01*
X60881103Y-83505062D01*
X60858153Y-83516537D01*
X60812254Y-83528012D01*
X60754879Y-83528012D01*
X60708980Y-83516537D01*
X60686030Y-83505062D01*
X60674555Y-83493587D01*
X60663080Y-83470637D01*
X60663080Y-83241139D02*
X60663080Y-83218189D01*
X60674555Y-83195239D01*
X60686030Y-83183764D01*
X60708980Y-83172289D01*
X60754879Y-83160815D01*
X60812254Y-83160815D01*
X60858153Y-83172289D01*
X60881103Y-83183764D01*
X60892578Y-83195239D01*
X60904053Y-83218189D01*
X60904053Y-83241139D01*
X60892578Y-83264089D01*
X60881103Y-83275564D01*
X60858153Y-83287039D01*
X60812254Y-83298513D01*
X60754879Y-83298513D01*
X60708980Y-83287039D01*
X60686030Y-83275564D01*
X60674555Y-83264089D01*
X60663080Y-83241139D01*
X60743404Y-83057540D02*
X60984377Y-83057540D01*
X60754879Y-83057540D02*
X60743404Y-83034591D01*
X60743404Y-82988691D01*
X60754879Y-82965741D01*
X60766354Y-82954266D01*
X60789304Y-82942791D01*
X60858153Y-82942791D01*
X60881103Y-82954266D01*
X60892578Y-82965741D01*
X60904053Y-82988691D01*
X60904053Y-83034591D01*
X60892578Y-83057540D01*
G04 #@! TO.C,C10*
X98791828Y-79467449D02*
X98780351Y-79478927D01*
X98745918Y-79490404D01*
X98722963Y-79490404D01*
X98688530Y-79478927D01*
X98665575Y-79455972D01*
X98654097Y-79433017D01*
X98642620Y-79387106D01*
X98642620Y-79352674D01*
X98654097Y-79306763D01*
X98665575Y-79283808D01*
X98688530Y-79260853D01*
X98722963Y-79249375D01*
X98745918Y-79249375D01*
X98780351Y-79260853D01*
X98791828Y-79272331D01*
X99021380Y-79490404D02*
X98883649Y-79490404D01*
X98952514Y-79490404D02*
X98952514Y-79249375D01*
X98929559Y-79283808D01*
X98906604Y-79306763D01*
X98883649Y-79318241D01*
X99170588Y-79249375D02*
X99193543Y-79249375D01*
X99216498Y-79260853D01*
X99227976Y-79272331D01*
X99239454Y-79295286D01*
X99250931Y-79341196D01*
X99250931Y-79398584D01*
X99239454Y-79444494D01*
X99227976Y-79467449D01*
X99216498Y-79478927D01*
X99193543Y-79490404D01*
X99170588Y-79490404D01*
X99147633Y-79478927D01*
X99136155Y-79467449D01*
X99124678Y-79444494D01*
X99113200Y-79398584D01*
X99113200Y-79341196D01*
X99124678Y-79295286D01*
X99136155Y-79272331D01*
X99147633Y-79260853D01*
X99170588Y-79249375D01*
X98944937Y-81097053D02*
X98807238Y-81097053D01*
X98876088Y-81097053D02*
X98876088Y-80856080D01*
X98853138Y-80890505D01*
X98830188Y-80913455D01*
X98807238Y-80924930D01*
X99174435Y-81097053D02*
X99036737Y-81097053D01*
X99105586Y-81097053D02*
X99105586Y-80856080D01*
X99082636Y-80890505D01*
X99059686Y-80913455D01*
X99036737Y-80924930D01*
X99277710Y-80936404D02*
X99277710Y-81177377D01*
X99277710Y-80947879D02*
X99300659Y-80936404D01*
X99346559Y-80936404D01*
X99369509Y-80947879D01*
X99380984Y-80959354D01*
X99392459Y-80982304D01*
X99392459Y-81051153D01*
X99380984Y-81074103D01*
X99369509Y-81085578D01*
X99346559Y-81097053D01*
X99300659Y-81097053D01*
X99277710Y-81085578D01*
G04 #@! TO.C,C11*
X98136449Y-85944171D02*
X98147927Y-85955648D01*
X98159404Y-85990081D01*
X98159404Y-86013036D01*
X98147927Y-86047469D01*
X98124972Y-86070424D01*
X98102017Y-86081902D01*
X98056106Y-86093379D01*
X98021674Y-86093379D01*
X97975763Y-86081902D01*
X97952808Y-86070424D01*
X97929853Y-86047469D01*
X97918375Y-86013036D01*
X97918375Y-85990081D01*
X97929853Y-85955648D01*
X97941331Y-85944171D01*
X98159404Y-85714619D02*
X98159404Y-85852350D01*
X98159404Y-85783485D02*
X97918375Y-85783485D01*
X97952808Y-85806440D01*
X97975763Y-85829395D01*
X97987241Y-85852350D01*
X98159404Y-85485068D02*
X98159404Y-85622799D01*
X98159404Y-85553933D02*
X97918375Y-85553933D01*
X97952808Y-85576888D01*
X97975763Y-85599844D01*
X97987241Y-85622799D01*
X99548030Y-85986135D02*
X99536555Y-85974660D01*
X99525080Y-85951710D01*
X99525080Y-85894336D01*
X99536555Y-85871386D01*
X99548030Y-85859911D01*
X99570980Y-85848436D01*
X99593930Y-85848436D01*
X99628354Y-85859911D01*
X99766053Y-85997610D01*
X99766053Y-85848436D01*
X99743103Y-85745162D02*
X99754578Y-85733687D01*
X99766053Y-85745162D01*
X99754578Y-85756637D01*
X99743103Y-85745162D01*
X99766053Y-85745162D01*
X99548030Y-85641888D02*
X99536555Y-85630413D01*
X99525080Y-85607463D01*
X99525080Y-85550089D01*
X99536555Y-85527139D01*
X99548030Y-85515664D01*
X99570980Y-85504189D01*
X99593930Y-85504189D01*
X99628354Y-85515664D01*
X99766053Y-85653363D01*
X99766053Y-85504189D01*
X99605404Y-85297641D02*
X99766053Y-85297641D01*
X99605404Y-85400915D02*
X99731628Y-85400915D01*
X99754578Y-85389440D01*
X99766053Y-85366490D01*
X99766053Y-85332066D01*
X99754578Y-85309116D01*
X99743103Y-85297641D01*
G04 #@! TO.C,C12*
X104600713Y-81497723D02*
X104612191Y-81509200D01*
X104623668Y-81543633D01*
X104623668Y-81566588D01*
X104612191Y-81601021D01*
X104589236Y-81623976D01*
X104566281Y-81635454D01*
X104520370Y-81646931D01*
X104485938Y-81646931D01*
X104440027Y-81635454D01*
X104417072Y-81623976D01*
X104394117Y-81601021D01*
X104382639Y-81566588D01*
X104382639Y-81543633D01*
X104394117Y-81509200D01*
X104405595Y-81497723D01*
X104623668Y-81268171D02*
X104623668Y-81405902D01*
X104623668Y-81337037D02*
X104382639Y-81337037D01*
X104417072Y-81359992D01*
X104440027Y-81382947D01*
X104451505Y-81405902D01*
X104405595Y-81176351D02*
X104394117Y-81164873D01*
X104382639Y-81141918D01*
X104382639Y-81084530D01*
X104394117Y-81061575D01*
X104405595Y-81050097D01*
X104428550Y-81038620D01*
X104451505Y-81038620D01*
X104485938Y-81050097D01*
X104623668Y-81187828D01*
X104623668Y-81038620D01*
X102775996Y-81788459D02*
X102775996Y-81765509D01*
X102787471Y-81742559D01*
X102798946Y-81731084D01*
X102821896Y-81719609D01*
X102867795Y-81708134D01*
X102925170Y-81708134D01*
X102971069Y-81719609D01*
X102994019Y-81731084D01*
X103005494Y-81742559D01*
X103016969Y-81765509D01*
X103016969Y-81788459D01*
X103005494Y-81811408D01*
X102994019Y-81822883D01*
X102971069Y-81834358D01*
X102925170Y-81845833D01*
X102867795Y-81845833D01*
X102821896Y-81834358D01*
X102798946Y-81822883D01*
X102787471Y-81811408D01*
X102775996Y-81788459D01*
X102994019Y-81604860D02*
X103005494Y-81593385D01*
X103016969Y-81604860D01*
X103005494Y-81616335D01*
X102994019Y-81604860D01*
X103016969Y-81604860D01*
X103016969Y-81363887D02*
X103016969Y-81501586D01*
X103016969Y-81432737D02*
X102775996Y-81432737D01*
X102810421Y-81455686D01*
X102833371Y-81478636D01*
X102844846Y-81501586D01*
X102856320Y-81157339D02*
X103016969Y-81157339D01*
X102856320Y-81260613D02*
X102982544Y-81260613D01*
X103005494Y-81249138D01*
X103016969Y-81226188D01*
X103016969Y-81191764D01*
X103005494Y-81168814D01*
X102994019Y-81157339D01*
G04 #@! TO.C,C13*
X67091281Y-82704947D02*
X67102759Y-82716424D01*
X67114236Y-82750857D01*
X67114236Y-82773812D01*
X67102759Y-82808245D01*
X67079804Y-82831200D01*
X67056849Y-82842678D01*
X67010938Y-82854155D01*
X66976506Y-82854155D01*
X66930595Y-82842678D01*
X66907640Y-82831200D01*
X66884685Y-82808245D01*
X66873207Y-82773812D01*
X66873207Y-82750857D01*
X66884685Y-82716424D01*
X66896163Y-82704947D01*
X67114236Y-82475395D02*
X67114236Y-82613126D01*
X67114236Y-82544261D02*
X66873207Y-82544261D01*
X66907640Y-82567216D01*
X66930595Y-82590171D01*
X66942073Y-82613126D01*
X66873207Y-82395052D02*
X66873207Y-82245844D01*
X66965028Y-82326187D01*
X66965028Y-82291754D01*
X66976506Y-82268799D01*
X66987983Y-82257321D01*
X67010938Y-82245844D01*
X67068326Y-82245844D01*
X67091281Y-82257321D01*
X67102759Y-82268799D01*
X67114236Y-82291754D01*
X67114236Y-82360620D01*
X67102759Y-82383575D01*
X67091281Y-82395052D01*
X68739811Y-82667260D02*
X68739811Y-82804959D01*
X68739811Y-82736109D02*
X68498838Y-82736109D01*
X68533263Y-82759059D01*
X68556213Y-82782009D01*
X68567688Y-82804959D01*
X68498838Y-82518086D02*
X68498838Y-82495136D01*
X68510313Y-82472186D01*
X68521788Y-82460711D01*
X68544738Y-82449237D01*
X68590637Y-82437762D01*
X68648012Y-82437762D01*
X68693911Y-82449237D01*
X68716861Y-82460711D01*
X68728336Y-82472186D01*
X68739811Y-82495136D01*
X68739811Y-82518086D01*
X68728336Y-82541036D01*
X68716861Y-82552511D01*
X68693911Y-82563986D01*
X68648012Y-82575461D01*
X68590637Y-82575461D01*
X68544738Y-82563986D01*
X68521788Y-82552511D01*
X68510313Y-82541036D01*
X68498838Y-82518086D01*
X68498838Y-82288588D02*
X68498838Y-82265638D01*
X68510313Y-82242688D01*
X68521788Y-82231213D01*
X68544738Y-82219738D01*
X68590637Y-82208264D01*
X68648012Y-82208264D01*
X68693911Y-82219738D01*
X68716861Y-82231213D01*
X68728336Y-82242688D01*
X68739811Y-82265638D01*
X68739811Y-82288588D01*
X68728336Y-82311538D01*
X68716861Y-82323013D01*
X68693911Y-82334488D01*
X68648012Y-82345962D01*
X68590637Y-82345962D01*
X68544738Y-82334488D01*
X68521788Y-82323013D01*
X68510313Y-82311538D01*
X68498838Y-82288588D01*
X68579162Y-82104989D02*
X68820135Y-82104989D01*
X68590637Y-82104989D02*
X68579162Y-82082040D01*
X68579162Y-82036140D01*
X68590637Y-82013190D01*
X68602112Y-82001715D01*
X68625062Y-81990240D01*
X68693911Y-81990240D01*
X68716861Y-82001715D01*
X68728336Y-82013190D01*
X68739811Y-82036140D01*
X68739811Y-82082040D01*
X68728336Y-82104989D01*
G04 #@! TO.C,C14*
X69136252Y-80045281D02*
X69124775Y-80056759D01*
X69090342Y-80068236D01*
X69067387Y-80068236D01*
X69032954Y-80056759D01*
X69009999Y-80033804D01*
X68998521Y-80010849D01*
X68987044Y-79964938D01*
X68987044Y-79930506D01*
X68998521Y-79884595D01*
X69009999Y-79861640D01*
X69032954Y-79838685D01*
X69067387Y-79827207D01*
X69090342Y-79827207D01*
X69124775Y-79838685D01*
X69136252Y-79850163D01*
X69365804Y-80068236D02*
X69228073Y-80068236D01*
X69296938Y-80068236D02*
X69296938Y-79827207D01*
X69273983Y-79861640D01*
X69251028Y-79884595D01*
X69228073Y-79896073D01*
X69572400Y-79907550D02*
X69572400Y-80068236D01*
X69515012Y-79815730D02*
X69457624Y-79987893D01*
X69606833Y-79987893D01*
X69072339Y-78442611D02*
X68934640Y-78442611D01*
X69003490Y-78442611D02*
X69003490Y-78201638D01*
X68980540Y-78236063D01*
X68957590Y-78259013D01*
X68934640Y-78270488D01*
X69221513Y-78201638D02*
X69244463Y-78201638D01*
X69267413Y-78213113D01*
X69278888Y-78224588D01*
X69290362Y-78247538D01*
X69301837Y-78293437D01*
X69301837Y-78350812D01*
X69290362Y-78396711D01*
X69278888Y-78419661D01*
X69267413Y-78431136D01*
X69244463Y-78442611D01*
X69221513Y-78442611D01*
X69198563Y-78431136D01*
X69187088Y-78419661D01*
X69175613Y-78396711D01*
X69164138Y-78350812D01*
X69164138Y-78293437D01*
X69175613Y-78247538D01*
X69187088Y-78224588D01*
X69198563Y-78213113D01*
X69221513Y-78201638D01*
X69451011Y-78201638D02*
X69473961Y-78201638D01*
X69496911Y-78213113D01*
X69508386Y-78224588D01*
X69519861Y-78247538D01*
X69531335Y-78293437D01*
X69531335Y-78350812D01*
X69519861Y-78396711D01*
X69508386Y-78419661D01*
X69496911Y-78431136D01*
X69473961Y-78442611D01*
X69451011Y-78442611D01*
X69428061Y-78431136D01*
X69416586Y-78419661D01*
X69405111Y-78396711D01*
X69393637Y-78350812D01*
X69393637Y-78293437D01*
X69405111Y-78247538D01*
X69416586Y-78224588D01*
X69428061Y-78213113D01*
X69451011Y-78201638D01*
X69634610Y-78281962D02*
X69634610Y-78522935D01*
X69634610Y-78293437D02*
X69657559Y-78281962D01*
X69703459Y-78281962D01*
X69726409Y-78293437D01*
X69737884Y-78304912D01*
X69749359Y-78327862D01*
X69749359Y-78396711D01*
X69737884Y-78419661D01*
X69726409Y-78431136D01*
X69703459Y-78442611D01*
X69657559Y-78442611D01*
X69634610Y-78431136D01*
G04 #@! TO.C,C15*
X64298276Y-103076713D02*
X64286799Y-103088191D01*
X64252366Y-103099668D01*
X64229411Y-103099668D01*
X64194978Y-103088191D01*
X64172023Y-103065236D01*
X64160545Y-103042281D01*
X64149068Y-102996370D01*
X64149068Y-102961938D01*
X64160545Y-102916027D01*
X64172023Y-102893072D01*
X64194978Y-102870117D01*
X64229411Y-102858639D01*
X64252366Y-102858639D01*
X64286799Y-102870117D01*
X64298276Y-102881595D01*
X64527828Y-103099668D02*
X64390097Y-103099668D01*
X64458962Y-103099668D02*
X64458962Y-102858639D01*
X64436007Y-102893072D01*
X64413052Y-102916027D01*
X64390097Y-102927505D01*
X64745902Y-102858639D02*
X64631126Y-102858639D01*
X64619648Y-102973415D01*
X64631126Y-102961938D01*
X64654081Y-102950460D01*
X64711469Y-102950460D01*
X64734424Y-102961938D01*
X64745902Y-102973415D01*
X64757379Y-102996370D01*
X64757379Y-103053758D01*
X64745902Y-103076713D01*
X64734424Y-103088191D01*
X64711469Y-103099668D01*
X64654081Y-103099668D01*
X64631126Y-103088191D01*
X64619648Y-103076713D01*
X64007540Y-101251996D02*
X64030490Y-101251996D01*
X64053440Y-101263471D01*
X64064915Y-101274946D01*
X64076390Y-101297896D01*
X64087865Y-101343795D01*
X64087865Y-101401170D01*
X64076390Y-101447069D01*
X64064915Y-101470019D01*
X64053440Y-101481494D01*
X64030490Y-101492969D01*
X64007540Y-101492969D01*
X63984591Y-101481494D01*
X63973116Y-101470019D01*
X63961641Y-101447069D01*
X63950166Y-101401170D01*
X63950166Y-101343795D01*
X63961641Y-101297896D01*
X63973116Y-101274946D01*
X63984591Y-101263471D01*
X64007540Y-101251996D01*
X64191139Y-101470019D02*
X64202614Y-101481494D01*
X64191139Y-101492969D01*
X64179664Y-101481494D01*
X64191139Y-101470019D01*
X64191139Y-101492969D01*
X64432112Y-101492969D02*
X64294413Y-101492969D01*
X64363262Y-101492969D02*
X64363262Y-101251996D01*
X64340313Y-101286421D01*
X64317363Y-101309371D01*
X64294413Y-101320846D01*
X64638660Y-101332320D02*
X64638660Y-101492969D01*
X64535386Y-101332320D02*
X64535386Y-101458544D01*
X64546861Y-101481494D01*
X64569811Y-101492969D01*
X64604235Y-101492969D01*
X64627185Y-101481494D01*
X64638660Y-101470019D01*
G04 #@! TO.C,C16*
X97648828Y-94834449D02*
X97637351Y-94845927D01*
X97602918Y-94857404D01*
X97579963Y-94857404D01*
X97545530Y-94845927D01*
X97522575Y-94822972D01*
X97511097Y-94800017D01*
X97499620Y-94754106D01*
X97499620Y-94719674D01*
X97511097Y-94673763D01*
X97522575Y-94650808D01*
X97545530Y-94627853D01*
X97579963Y-94616375D01*
X97602918Y-94616375D01*
X97637351Y-94627853D01*
X97648828Y-94639331D01*
X97878380Y-94857404D02*
X97740649Y-94857404D01*
X97809514Y-94857404D02*
X97809514Y-94616375D01*
X97786559Y-94650808D01*
X97763604Y-94673763D01*
X97740649Y-94685241D01*
X98084976Y-94616375D02*
X98039066Y-94616375D01*
X98016111Y-94627853D01*
X98004633Y-94639331D01*
X97981678Y-94673763D01*
X97970200Y-94719674D01*
X97970200Y-94811494D01*
X97981678Y-94834449D01*
X97993155Y-94845927D01*
X98016111Y-94857404D01*
X98062021Y-94857404D01*
X98084976Y-94845927D01*
X98096454Y-94834449D01*
X98107931Y-94811494D01*
X98107931Y-94754106D01*
X98096454Y-94731151D01*
X98084976Y-94719674D01*
X98062021Y-94708196D01*
X98016111Y-94708196D01*
X97993155Y-94719674D01*
X97981678Y-94731151D01*
X97970200Y-94754106D01*
X97778987Y-96303404D02*
X97778987Y-96464053D01*
X97721613Y-96211605D02*
X97664238Y-96383729D01*
X97813412Y-96383729D01*
X97882262Y-96223080D02*
X98042910Y-96223080D01*
X97939636Y-96464053D01*
X98134710Y-96303404D02*
X98134710Y-96544377D01*
X98134710Y-96314879D02*
X98157659Y-96303404D01*
X98203559Y-96303404D01*
X98226509Y-96314879D01*
X98237984Y-96326354D01*
X98249459Y-96349304D01*
X98249459Y-96418153D01*
X98237984Y-96441103D01*
X98226509Y-96452578D01*
X98203559Y-96464053D01*
X98157659Y-96464053D01*
X98134710Y-96452578D01*
G04 #@! TO.C,C17*
X96726713Y-89322723D02*
X96738191Y-89334200D01*
X96749668Y-89368633D01*
X96749668Y-89391588D01*
X96738191Y-89426021D01*
X96715236Y-89448976D01*
X96692281Y-89460454D01*
X96646370Y-89471931D01*
X96611938Y-89471931D01*
X96566027Y-89460454D01*
X96543072Y-89448976D01*
X96520117Y-89426021D01*
X96508639Y-89391588D01*
X96508639Y-89368633D01*
X96520117Y-89334200D01*
X96531595Y-89322723D01*
X96749668Y-89093171D02*
X96749668Y-89230902D01*
X96749668Y-89162037D02*
X96508639Y-89162037D01*
X96543072Y-89184992D01*
X96566027Y-89207947D01*
X96577505Y-89230902D01*
X96508639Y-89012828D02*
X96508639Y-88852142D01*
X96749668Y-88955440D01*
X94982320Y-89498710D02*
X95142969Y-89498710D01*
X94890521Y-89556084D02*
X95062645Y-89613459D01*
X95062645Y-89464285D01*
X94901996Y-89395435D02*
X94901996Y-89234787D01*
X95142969Y-89338061D01*
X94982320Y-89142987D02*
X95223293Y-89142987D01*
X94993795Y-89142987D02*
X94982320Y-89120038D01*
X94982320Y-89074138D01*
X94993795Y-89051188D01*
X95005270Y-89039713D01*
X95028220Y-89028238D01*
X95097069Y-89028238D01*
X95120019Y-89039713D01*
X95131494Y-89051188D01*
X95142969Y-89074138D01*
X95142969Y-89120038D01*
X95131494Y-89142987D01*
G04 #@! TO.C,C18*
X90008449Y-98390171D02*
X90019927Y-98401648D01*
X90031404Y-98436081D01*
X90031404Y-98459036D01*
X90019927Y-98493469D01*
X89996972Y-98516424D01*
X89974017Y-98527902D01*
X89928106Y-98539379D01*
X89893674Y-98539379D01*
X89847763Y-98527902D01*
X89824808Y-98516424D01*
X89801853Y-98493469D01*
X89790375Y-98459036D01*
X89790375Y-98436081D01*
X89801853Y-98401648D01*
X89813331Y-98390171D01*
X90031404Y-98160619D02*
X90031404Y-98298350D01*
X90031404Y-98229485D02*
X89790375Y-98229485D01*
X89824808Y-98252440D01*
X89847763Y-98275395D01*
X89859241Y-98298350D01*
X89893674Y-98022888D02*
X89882196Y-98045844D01*
X89870718Y-98057321D01*
X89847763Y-98068799D01*
X89836286Y-98068799D01*
X89813331Y-98057321D01*
X89801853Y-98045844D01*
X89790375Y-98022888D01*
X89790375Y-97976978D01*
X89801853Y-97954023D01*
X89813331Y-97942545D01*
X89836286Y-97931068D01*
X89847763Y-97931068D01*
X89870718Y-97942545D01*
X89882196Y-97954023D01*
X89893674Y-97976978D01*
X89893674Y-98022888D01*
X89905151Y-98045844D01*
X89916629Y-98057321D01*
X89939584Y-98068799D01*
X89985494Y-98068799D01*
X90008449Y-98057321D01*
X90019927Y-98045844D01*
X90031404Y-98022888D01*
X90031404Y-97976978D01*
X90019927Y-97954023D01*
X90008449Y-97942545D01*
X89985494Y-97931068D01*
X89939584Y-97931068D01*
X89916629Y-97942545D01*
X89905151Y-97954023D01*
X89893674Y-97976978D01*
X91358838Y-98031810D02*
X91358838Y-98008860D01*
X91370313Y-97985910D01*
X91381788Y-97974435D01*
X91404738Y-97962960D01*
X91450637Y-97951485D01*
X91508012Y-97951485D01*
X91553911Y-97962960D01*
X91576861Y-97974435D01*
X91588336Y-97985910D01*
X91599811Y-98008860D01*
X91599811Y-98031810D01*
X91588336Y-98054759D01*
X91576861Y-98066234D01*
X91553911Y-98077709D01*
X91508012Y-98089184D01*
X91450637Y-98089184D01*
X91404738Y-98077709D01*
X91381788Y-98066234D01*
X91370313Y-98054759D01*
X91358838Y-98031810D01*
X91576861Y-97848211D02*
X91588336Y-97836736D01*
X91599811Y-97848211D01*
X91588336Y-97859686D01*
X91576861Y-97848211D01*
X91599811Y-97848211D01*
X91599811Y-97607238D02*
X91599811Y-97744937D01*
X91599811Y-97676088D02*
X91358838Y-97676088D01*
X91393263Y-97699037D01*
X91416213Y-97721987D01*
X91427688Y-97744937D01*
X91439162Y-97400690D02*
X91599811Y-97400690D01*
X91439162Y-97503964D02*
X91565386Y-97503964D01*
X91588336Y-97492489D01*
X91599811Y-97469539D01*
X91599811Y-97435115D01*
X91588336Y-97412165D01*
X91576861Y-97400690D01*
G04 #@! TO.C,C19*
X77379276Y-90884713D02*
X77367799Y-90896191D01*
X77333366Y-90907668D01*
X77310411Y-90907668D01*
X77275978Y-90896191D01*
X77253023Y-90873236D01*
X77241545Y-90850281D01*
X77230068Y-90804370D01*
X77230068Y-90769938D01*
X77241545Y-90724027D01*
X77253023Y-90701072D01*
X77275978Y-90678117D01*
X77310411Y-90666639D01*
X77333366Y-90666639D01*
X77367799Y-90678117D01*
X77379276Y-90689595D01*
X77608828Y-90907668D02*
X77471097Y-90907668D01*
X77539962Y-90907668D02*
X77539962Y-90666639D01*
X77517007Y-90701072D01*
X77494052Y-90724027D01*
X77471097Y-90735505D01*
X77723603Y-90907668D02*
X77769514Y-90907668D01*
X77792469Y-90896191D01*
X77803946Y-90884713D01*
X77826902Y-90850281D01*
X77838379Y-90804370D01*
X77838379Y-90712550D01*
X77826902Y-90689595D01*
X77815424Y-90678117D01*
X77792469Y-90666639D01*
X77746559Y-90666639D01*
X77723603Y-90678117D01*
X77712126Y-90689595D01*
X77700648Y-90712550D01*
X77700648Y-90769938D01*
X77712126Y-90792893D01*
X77723603Y-90804370D01*
X77746559Y-90815848D01*
X77792469Y-90815848D01*
X77815424Y-90804370D01*
X77826902Y-90792893D01*
X77838379Y-90769938D01*
X77031166Y-89082946D02*
X77042641Y-89071471D01*
X77065591Y-89059996D01*
X77122965Y-89059996D01*
X77145915Y-89071471D01*
X77157390Y-89082946D01*
X77168865Y-89105896D01*
X77168865Y-89128846D01*
X77157390Y-89163270D01*
X77019691Y-89300969D01*
X77168865Y-89300969D01*
X77272139Y-89278019D02*
X77283614Y-89289494D01*
X77272139Y-89300969D01*
X77260664Y-89289494D01*
X77272139Y-89278019D01*
X77272139Y-89300969D01*
X77375413Y-89082946D02*
X77386888Y-89071471D01*
X77409838Y-89059996D01*
X77467212Y-89059996D01*
X77490162Y-89071471D01*
X77501637Y-89082946D01*
X77513112Y-89105896D01*
X77513112Y-89128846D01*
X77501637Y-89163270D01*
X77363938Y-89300969D01*
X77513112Y-89300969D01*
X77719660Y-89140320D02*
X77719660Y-89300969D01*
X77616386Y-89140320D02*
X77616386Y-89266544D01*
X77627861Y-89289494D01*
X77650811Y-89300969D01*
X77685235Y-89300969D01*
X77708185Y-89289494D01*
X77719660Y-89278019D01*
G04 #@! TO.C,C20*
X92294449Y-97792547D02*
X92305927Y-97804024D01*
X92317404Y-97838457D01*
X92317404Y-97861412D01*
X92305927Y-97895845D01*
X92282972Y-97918800D01*
X92260017Y-97930278D01*
X92214106Y-97941755D01*
X92179674Y-97941755D01*
X92133763Y-97930278D01*
X92110808Y-97918800D01*
X92087853Y-97895845D01*
X92076375Y-97861412D01*
X92076375Y-97838457D01*
X92087853Y-97804024D01*
X92099331Y-97792547D01*
X92099331Y-97700726D02*
X92087853Y-97689249D01*
X92076375Y-97666293D01*
X92076375Y-97608906D01*
X92087853Y-97585950D01*
X92099331Y-97574473D01*
X92122286Y-97562995D01*
X92145241Y-97562995D01*
X92179674Y-97574473D01*
X92317404Y-97712204D01*
X92317404Y-97562995D01*
X92076375Y-97413787D02*
X92076375Y-97390832D01*
X92087853Y-97367877D01*
X92099331Y-97356399D01*
X92122286Y-97344921D01*
X92168196Y-97333444D01*
X92225584Y-97333444D01*
X92271494Y-97344921D01*
X92294449Y-97356399D01*
X92305927Y-97367877D01*
X92317404Y-97390832D01*
X92317404Y-97413787D01*
X92305927Y-97436742D01*
X92294449Y-97448220D01*
X92271494Y-97459697D01*
X92225584Y-97471175D01*
X92168196Y-97471175D01*
X92122286Y-97459697D01*
X92099331Y-97448220D01*
X92087853Y-97436742D01*
X92076375Y-97413787D01*
X93644838Y-98285810D02*
X93644838Y-98262860D01*
X93656313Y-98239910D01*
X93667788Y-98228435D01*
X93690738Y-98216960D01*
X93736637Y-98205485D01*
X93794012Y-98205485D01*
X93839911Y-98216960D01*
X93862861Y-98228435D01*
X93874336Y-98239910D01*
X93885811Y-98262860D01*
X93885811Y-98285810D01*
X93874336Y-98308759D01*
X93862861Y-98320234D01*
X93839911Y-98331709D01*
X93794012Y-98343184D01*
X93736637Y-98343184D01*
X93690738Y-98331709D01*
X93667788Y-98320234D01*
X93656313Y-98308759D01*
X93644838Y-98285810D01*
X93862861Y-98102211D02*
X93874336Y-98090736D01*
X93885811Y-98102211D01*
X93874336Y-98113686D01*
X93862861Y-98102211D01*
X93885811Y-98102211D01*
X93885811Y-97861238D02*
X93885811Y-97998937D01*
X93885811Y-97930088D02*
X93644838Y-97930088D01*
X93679263Y-97953037D01*
X93702213Y-97975987D01*
X93713688Y-97998937D01*
X93725162Y-97654690D02*
X93885811Y-97654690D01*
X93725162Y-97757964D02*
X93851386Y-97757964D01*
X93874336Y-97746489D01*
X93885811Y-97723539D01*
X93885811Y-97689115D01*
X93874336Y-97666165D01*
X93862861Y-97654690D01*
G04 #@! TO.C,C21*
X91523828Y-89373449D02*
X91512351Y-89384927D01*
X91477918Y-89396404D01*
X91454963Y-89396404D01*
X91420530Y-89384927D01*
X91397575Y-89361972D01*
X91386097Y-89339017D01*
X91374620Y-89293106D01*
X91374620Y-89258674D01*
X91386097Y-89212763D01*
X91397575Y-89189808D01*
X91420530Y-89166853D01*
X91454963Y-89155375D01*
X91477918Y-89155375D01*
X91512351Y-89166853D01*
X91523828Y-89178331D01*
X91615649Y-89178331D02*
X91627126Y-89166853D01*
X91650082Y-89155375D01*
X91707469Y-89155375D01*
X91730425Y-89166853D01*
X91741902Y-89178331D01*
X91753380Y-89201286D01*
X91753380Y-89224241D01*
X91741902Y-89258674D01*
X91604171Y-89396404D01*
X91753380Y-89396404D01*
X91982931Y-89396404D02*
X91845200Y-89396404D01*
X91914066Y-89396404D02*
X91914066Y-89155375D01*
X91891111Y-89189808D01*
X91868155Y-89212763D01*
X91845200Y-89224241D01*
X91481864Y-90785030D02*
X91493339Y-90773555D01*
X91516289Y-90762080D01*
X91573663Y-90762080D01*
X91596613Y-90773555D01*
X91608088Y-90785030D01*
X91619563Y-90807980D01*
X91619563Y-90830930D01*
X91608088Y-90865354D01*
X91470389Y-91003053D01*
X91619563Y-91003053D01*
X91722837Y-90980103D02*
X91734312Y-90991578D01*
X91722837Y-91003053D01*
X91711362Y-90991578D01*
X91722837Y-90980103D01*
X91722837Y-91003053D01*
X91826111Y-90785030D02*
X91837586Y-90773555D01*
X91860536Y-90762080D01*
X91917910Y-90762080D01*
X91940860Y-90773555D01*
X91952335Y-90785030D01*
X91963810Y-90807980D01*
X91963810Y-90830930D01*
X91952335Y-90865354D01*
X91814636Y-91003053D01*
X91963810Y-91003053D01*
X92170358Y-90842404D02*
X92170358Y-91003053D01*
X92067084Y-90842404D02*
X92067084Y-90968628D01*
X92078559Y-90991578D01*
X92101509Y-91003053D01*
X92135933Y-91003053D01*
X92158883Y-90991578D01*
X92170358Y-90980103D01*
G04 #@! TO.C,C22*
X86960449Y-98644171D02*
X86971927Y-98655648D01*
X86983404Y-98690081D01*
X86983404Y-98713036D01*
X86971927Y-98747469D01*
X86948972Y-98770424D01*
X86926017Y-98781902D01*
X86880106Y-98793379D01*
X86845674Y-98793379D01*
X86799763Y-98781902D01*
X86776808Y-98770424D01*
X86753853Y-98747469D01*
X86742375Y-98713036D01*
X86742375Y-98690081D01*
X86753853Y-98655648D01*
X86765331Y-98644171D01*
X86765331Y-98552350D02*
X86753853Y-98540873D01*
X86742375Y-98517917D01*
X86742375Y-98460530D01*
X86753853Y-98437574D01*
X86765331Y-98426097D01*
X86788286Y-98414619D01*
X86811241Y-98414619D01*
X86845674Y-98426097D01*
X86983404Y-98563828D01*
X86983404Y-98414619D01*
X86765331Y-98322799D02*
X86753853Y-98311321D01*
X86742375Y-98288366D01*
X86742375Y-98230978D01*
X86753853Y-98208023D01*
X86765331Y-98196545D01*
X86788286Y-98185068D01*
X86811241Y-98185068D01*
X86845674Y-98196545D01*
X86983404Y-98334276D01*
X86983404Y-98185068D01*
X88590053Y-98605811D02*
X88590053Y-98743510D01*
X88590053Y-98674660D02*
X88349080Y-98674660D01*
X88383505Y-98697610D01*
X88406455Y-98720560D01*
X88417930Y-98743510D01*
X88452354Y-98468112D02*
X88440879Y-98491062D01*
X88429404Y-98502537D01*
X88406455Y-98514012D01*
X88394980Y-98514012D01*
X88372030Y-98502537D01*
X88360555Y-98491062D01*
X88349080Y-98468112D01*
X88349080Y-98422212D01*
X88360555Y-98399262D01*
X88372030Y-98387788D01*
X88394980Y-98376313D01*
X88406455Y-98376313D01*
X88429404Y-98387788D01*
X88440879Y-98399262D01*
X88452354Y-98422212D01*
X88452354Y-98468112D01*
X88463829Y-98491062D01*
X88475304Y-98502537D01*
X88498254Y-98514012D01*
X88544153Y-98514012D01*
X88567103Y-98502537D01*
X88578578Y-98491062D01*
X88590053Y-98468112D01*
X88590053Y-98422212D01*
X88578578Y-98399262D01*
X88567103Y-98387788D01*
X88544153Y-98376313D01*
X88498254Y-98376313D01*
X88475304Y-98387788D01*
X88463829Y-98399262D01*
X88452354Y-98422212D01*
X88349080Y-98227139D02*
X88349080Y-98204189D01*
X88360555Y-98181239D01*
X88372030Y-98169764D01*
X88394980Y-98158289D01*
X88440879Y-98146815D01*
X88498254Y-98146815D01*
X88544153Y-98158289D01*
X88567103Y-98169764D01*
X88578578Y-98181239D01*
X88590053Y-98204189D01*
X88590053Y-98227139D01*
X88578578Y-98250089D01*
X88567103Y-98261564D01*
X88544153Y-98273039D01*
X88498254Y-98284513D01*
X88440879Y-98284513D01*
X88394980Y-98273039D01*
X88372030Y-98261564D01*
X88360555Y-98250089D01*
X88349080Y-98227139D01*
X88429404Y-98043540D02*
X88670377Y-98043540D01*
X88440879Y-98043540D02*
X88429404Y-98020591D01*
X88429404Y-97974691D01*
X88440879Y-97951741D01*
X88452354Y-97940266D01*
X88475304Y-97928791D01*
X88544153Y-97928791D01*
X88567103Y-97940266D01*
X88578578Y-97951741D01*
X88590053Y-97974691D01*
X88590053Y-98020591D01*
X88578578Y-98043540D01*
G04 #@! TO.C,C23*
X80483449Y-86706171D02*
X80494927Y-86717648D01*
X80506404Y-86752081D01*
X80506404Y-86775036D01*
X80494927Y-86809469D01*
X80471972Y-86832424D01*
X80449017Y-86843902D01*
X80403106Y-86855379D01*
X80368674Y-86855379D01*
X80322763Y-86843902D01*
X80299808Y-86832424D01*
X80276853Y-86809469D01*
X80265375Y-86775036D01*
X80265375Y-86752081D01*
X80276853Y-86717648D01*
X80288331Y-86706171D01*
X80288331Y-86614350D02*
X80276853Y-86602873D01*
X80265375Y-86579917D01*
X80265375Y-86522530D01*
X80276853Y-86499574D01*
X80288331Y-86488097D01*
X80311286Y-86476619D01*
X80334241Y-86476619D01*
X80368674Y-86488097D01*
X80506404Y-86625828D01*
X80506404Y-86476619D01*
X80265375Y-86396276D02*
X80265375Y-86247068D01*
X80357196Y-86327411D01*
X80357196Y-86292978D01*
X80368674Y-86270023D01*
X80380151Y-86258545D01*
X80403106Y-86247068D01*
X80460494Y-86247068D01*
X80483449Y-86258545D01*
X80494927Y-86270023D01*
X80506404Y-86292978D01*
X80506404Y-86361844D01*
X80494927Y-86384799D01*
X80483449Y-86396276D01*
X81872080Y-86805510D02*
X81872080Y-86782560D01*
X81883555Y-86759610D01*
X81895030Y-86748135D01*
X81917980Y-86736660D01*
X81963879Y-86725185D01*
X82021254Y-86725185D01*
X82067153Y-86736660D01*
X82090103Y-86748135D01*
X82101578Y-86759610D01*
X82113053Y-86782560D01*
X82113053Y-86805510D01*
X82101578Y-86828459D01*
X82090103Y-86839934D01*
X82067153Y-86851409D01*
X82021254Y-86862884D01*
X81963879Y-86862884D01*
X81917980Y-86851409D01*
X81895030Y-86839934D01*
X81883555Y-86828459D01*
X81872080Y-86805510D01*
X82090103Y-86621911D02*
X82101578Y-86610436D01*
X82113053Y-86621911D01*
X82101578Y-86633386D01*
X82090103Y-86621911D01*
X82113053Y-86621911D01*
X81872080Y-86461262D02*
X81872080Y-86438313D01*
X81883555Y-86415363D01*
X81895030Y-86403888D01*
X81917980Y-86392413D01*
X81963879Y-86380938D01*
X82021254Y-86380938D01*
X82067153Y-86392413D01*
X82090103Y-86403888D01*
X82101578Y-86415363D01*
X82113053Y-86438313D01*
X82113053Y-86461262D01*
X82101578Y-86484212D01*
X82090103Y-86495687D01*
X82067153Y-86507162D01*
X82021254Y-86518637D01*
X81963879Y-86518637D01*
X81917980Y-86507162D01*
X81895030Y-86495687D01*
X81883555Y-86484212D01*
X81872080Y-86461262D01*
X82113053Y-86151440D02*
X82113053Y-86289139D01*
X82113053Y-86220289D02*
X81872080Y-86220289D01*
X81906505Y-86243239D01*
X81929455Y-86266189D01*
X81940930Y-86289139D01*
X81952404Y-85944892D02*
X82113053Y-85944892D01*
X81952404Y-86048166D02*
X82078628Y-86048166D01*
X82101578Y-86036691D01*
X82113053Y-86013741D01*
X82113053Y-85979316D01*
X82101578Y-85956367D01*
X82090103Y-85944892D01*
G04 #@! TO.C,C24*
X85331276Y-93043713D02*
X85319799Y-93055191D01*
X85285366Y-93066668D01*
X85262411Y-93066668D01*
X85227978Y-93055191D01*
X85205023Y-93032236D01*
X85193545Y-93009281D01*
X85182068Y-92963370D01*
X85182068Y-92928938D01*
X85193545Y-92883027D01*
X85205023Y-92860072D01*
X85227978Y-92837117D01*
X85262411Y-92825639D01*
X85285366Y-92825639D01*
X85319799Y-92837117D01*
X85331276Y-92848595D01*
X85423097Y-92848595D02*
X85434574Y-92837117D01*
X85457530Y-92825639D01*
X85514917Y-92825639D01*
X85537873Y-92837117D01*
X85549350Y-92848595D01*
X85560828Y-92871550D01*
X85560828Y-92894505D01*
X85549350Y-92928938D01*
X85411619Y-93066668D01*
X85560828Y-93066668D01*
X85767424Y-92905982D02*
X85767424Y-93066668D01*
X85710036Y-92814162D02*
X85652648Y-92986325D01*
X85801857Y-92986325D01*
X85063490Y-91459969D02*
X84925791Y-91459969D01*
X84994641Y-91459969D02*
X84994641Y-91218996D01*
X84971691Y-91253421D01*
X84948741Y-91276371D01*
X84925791Y-91287846D01*
X85201189Y-91322270D02*
X85178239Y-91310795D01*
X85166764Y-91299320D01*
X85155289Y-91276371D01*
X85155289Y-91264896D01*
X85166764Y-91241946D01*
X85178239Y-91230471D01*
X85201189Y-91218996D01*
X85247089Y-91218996D01*
X85270039Y-91230471D01*
X85281513Y-91241946D01*
X85292988Y-91264896D01*
X85292988Y-91276371D01*
X85281513Y-91299320D01*
X85270039Y-91310795D01*
X85247089Y-91322270D01*
X85201189Y-91322270D01*
X85178239Y-91333745D01*
X85166764Y-91345220D01*
X85155289Y-91368170D01*
X85155289Y-91414069D01*
X85166764Y-91437019D01*
X85178239Y-91448494D01*
X85201189Y-91459969D01*
X85247089Y-91459969D01*
X85270039Y-91448494D01*
X85281513Y-91437019D01*
X85292988Y-91414069D01*
X85292988Y-91368170D01*
X85281513Y-91345220D01*
X85270039Y-91333745D01*
X85247089Y-91322270D01*
X85442162Y-91218996D02*
X85465112Y-91218996D01*
X85488062Y-91230471D01*
X85499537Y-91241946D01*
X85511012Y-91264896D01*
X85522486Y-91310795D01*
X85522486Y-91368170D01*
X85511012Y-91414069D01*
X85499537Y-91437019D01*
X85488062Y-91448494D01*
X85465112Y-91459969D01*
X85442162Y-91459969D01*
X85419212Y-91448494D01*
X85407737Y-91437019D01*
X85396262Y-91414069D01*
X85384788Y-91368170D01*
X85384788Y-91310795D01*
X85396262Y-91264896D01*
X85407737Y-91241946D01*
X85419212Y-91230471D01*
X85442162Y-91218996D01*
X85625761Y-91299320D02*
X85625761Y-91540293D01*
X85625761Y-91310795D02*
X85648710Y-91299320D01*
X85694610Y-91299320D01*
X85717560Y-91310795D01*
X85729035Y-91322270D01*
X85740510Y-91345220D01*
X85740510Y-91414069D01*
X85729035Y-91437019D01*
X85717560Y-91448494D01*
X85694610Y-91459969D01*
X85648710Y-91459969D01*
X85625761Y-91448494D01*
G04 #@! TO.C,C25*
X85931713Y-88609723D02*
X85943191Y-88621200D01*
X85954668Y-88655633D01*
X85954668Y-88678588D01*
X85943191Y-88713021D01*
X85920236Y-88735976D01*
X85897281Y-88747454D01*
X85851370Y-88758931D01*
X85816938Y-88758931D01*
X85771027Y-88747454D01*
X85748072Y-88735976D01*
X85725117Y-88713021D01*
X85713639Y-88678588D01*
X85713639Y-88655633D01*
X85725117Y-88621200D01*
X85736595Y-88609723D01*
X85736595Y-88517902D02*
X85725117Y-88506425D01*
X85713639Y-88483469D01*
X85713639Y-88426082D01*
X85725117Y-88403126D01*
X85736595Y-88391649D01*
X85759550Y-88380171D01*
X85782505Y-88380171D01*
X85816938Y-88391649D01*
X85954668Y-88529380D01*
X85954668Y-88380171D01*
X85713639Y-88162097D02*
X85713639Y-88276873D01*
X85828415Y-88288351D01*
X85816938Y-88276873D01*
X85805460Y-88253918D01*
X85805460Y-88196530D01*
X85816938Y-88173575D01*
X85828415Y-88162097D01*
X85851370Y-88150620D01*
X85908758Y-88150620D01*
X85931713Y-88162097D01*
X85943191Y-88173575D01*
X85954668Y-88196530D01*
X85954668Y-88253918D01*
X85943191Y-88276873D01*
X85931713Y-88288351D01*
X84129946Y-88957833D02*
X84118471Y-88946358D01*
X84106996Y-88923408D01*
X84106996Y-88866034D01*
X84118471Y-88843084D01*
X84129946Y-88831609D01*
X84152896Y-88820134D01*
X84175846Y-88820134D01*
X84210270Y-88831609D01*
X84347969Y-88969308D01*
X84347969Y-88820134D01*
X84325019Y-88716860D02*
X84336494Y-88705385D01*
X84347969Y-88716860D01*
X84336494Y-88728335D01*
X84325019Y-88716860D01*
X84347969Y-88716860D01*
X84129946Y-88613586D02*
X84118471Y-88602111D01*
X84106996Y-88579161D01*
X84106996Y-88521787D01*
X84118471Y-88498837D01*
X84129946Y-88487362D01*
X84152896Y-88475887D01*
X84175846Y-88475887D01*
X84210270Y-88487362D01*
X84347969Y-88625061D01*
X84347969Y-88475887D01*
X84187320Y-88269339D02*
X84347969Y-88269339D01*
X84187320Y-88372613D02*
X84313544Y-88372613D01*
X84336494Y-88361138D01*
X84347969Y-88338188D01*
X84347969Y-88303764D01*
X84336494Y-88280814D01*
X84325019Y-88269339D01*
G04 #@! TO.C,C26*
X75898713Y-86450723D02*
X75910191Y-86462200D01*
X75921668Y-86496633D01*
X75921668Y-86519588D01*
X75910191Y-86554021D01*
X75887236Y-86576976D01*
X75864281Y-86588454D01*
X75818370Y-86599931D01*
X75783938Y-86599931D01*
X75738027Y-86588454D01*
X75715072Y-86576976D01*
X75692117Y-86554021D01*
X75680639Y-86519588D01*
X75680639Y-86496633D01*
X75692117Y-86462200D01*
X75703595Y-86450723D01*
X75703595Y-86358902D02*
X75692117Y-86347425D01*
X75680639Y-86324469D01*
X75680639Y-86267082D01*
X75692117Y-86244126D01*
X75703595Y-86232649D01*
X75726550Y-86221171D01*
X75749505Y-86221171D01*
X75783938Y-86232649D01*
X75921668Y-86370380D01*
X75921668Y-86221171D01*
X75680639Y-86014575D02*
X75680639Y-86060485D01*
X75692117Y-86083440D01*
X75703595Y-86094918D01*
X75738027Y-86117873D01*
X75783938Y-86129351D01*
X75875758Y-86129351D01*
X75898713Y-86117873D01*
X75910191Y-86106396D01*
X75921668Y-86083440D01*
X75921668Y-86037530D01*
X75910191Y-86014575D01*
X75898713Y-86003097D01*
X75875758Y-85991620D01*
X75818370Y-85991620D01*
X75795415Y-86003097D01*
X75783938Y-86014575D01*
X75772460Y-86037530D01*
X75772460Y-86083440D01*
X75783938Y-86106396D01*
X75795415Y-86117873D01*
X75818370Y-86129351D01*
X74096946Y-86798833D02*
X74085471Y-86787358D01*
X74073996Y-86764408D01*
X74073996Y-86707034D01*
X74085471Y-86684084D01*
X74096946Y-86672609D01*
X74119896Y-86661134D01*
X74142846Y-86661134D01*
X74177270Y-86672609D01*
X74314969Y-86810308D01*
X74314969Y-86661134D01*
X74292019Y-86557860D02*
X74303494Y-86546385D01*
X74314969Y-86557860D01*
X74303494Y-86569335D01*
X74292019Y-86557860D01*
X74314969Y-86557860D01*
X74096946Y-86454586D02*
X74085471Y-86443111D01*
X74073996Y-86420161D01*
X74073996Y-86362787D01*
X74085471Y-86339837D01*
X74096946Y-86328362D01*
X74119896Y-86316887D01*
X74142846Y-86316887D01*
X74177270Y-86328362D01*
X74314969Y-86466061D01*
X74314969Y-86316887D01*
X74154320Y-86110339D02*
X74314969Y-86110339D01*
X74154320Y-86213613D02*
X74280544Y-86213613D01*
X74303494Y-86202138D01*
X74314969Y-86179188D01*
X74314969Y-86144764D01*
X74303494Y-86121814D01*
X74292019Y-86110339D01*
G04 #@! TO.C,C27*
X80159852Y-93812081D02*
X80148375Y-93823559D01*
X80113942Y-93835036D01*
X80090987Y-93835036D01*
X80056554Y-93823559D01*
X80033599Y-93800604D01*
X80022121Y-93777649D01*
X80010644Y-93731738D01*
X80010644Y-93697306D01*
X80022121Y-93651395D01*
X80033599Y-93628440D01*
X80056554Y-93605485D01*
X80090987Y-93594007D01*
X80113942Y-93594007D01*
X80148375Y-93605485D01*
X80159852Y-93616963D01*
X80251673Y-93616963D02*
X80263150Y-93605485D01*
X80286106Y-93594007D01*
X80343493Y-93594007D01*
X80366449Y-93605485D01*
X80377926Y-93616963D01*
X80389404Y-93639918D01*
X80389404Y-93662873D01*
X80377926Y-93697306D01*
X80240195Y-93835036D01*
X80389404Y-93835036D01*
X80469747Y-93594007D02*
X80630433Y-93594007D01*
X80527135Y-93835036D01*
X77988637Y-93835011D02*
X77850938Y-93835011D01*
X77919788Y-93835011D02*
X77919788Y-93594038D01*
X77896838Y-93628463D01*
X77873888Y-93651413D01*
X77850938Y-93662888D01*
X78195186Y-93674362D02*
X78195186Y-93835011D01*
X78091911Y-93674362D02*
X78091911Y-93800586D01*
X78103386Y-93823536D01*
X78126336Y-93835011D01*
X78160761Y-93835011D01*
X78183711Y-93823536D01*
X78195186Y-93812061D01*
G04 #@! TO.C,C28*
X44357828Y-85078788D02*
X44346351Y-85090266D01*
X44311918Y-85101743D01*
X44288963Y-85101743D01*
X44254530Y-85090266D01*
X44231575Y-85067311D01*
X44220097Y-85044356D01*
X44208620Y-84998445D01*
X44208620Y-84964013D01*
X44220097Y-84918102D01*
X44231575Y-84895147D01*
X44254530Y-84872192D01*
X44288963Y-84860714D01*
X44311918Y-84860714D01*
X44346351Y-84872192D01*
X44357828Y-84883670D01*
X44449649Y-84883670D02*
X44461126Y-84872192D01*
X44484082Y-84860714D01*
X44541469Y-84860714D01*
X44564425Y-84872192D01*
X44575902Y-84883670D01*
X44587380Y-84906625D01*
X44587380Y-84929580D01*
X44575902Y-84964013D01*
X44438171Y-85101743D01*
X44587380Y-85101743D01*
X44725111Y-84964013D02*
X44702155Y-84952535D01*
X44690678Y-84941057D01*
X44679200Y-84918102D01*
X44679200Y-84906625D01*
X44690678Y-84883670D01*
X44702155Y-84872192D01*
X44725111Y-84860714D01*
X44771021Y-84860714D01*
X44793976Y-84872192D01*
X44805454Y-84883670D01*
X44816931Y-84906625D01*
X44816931Y-84918102D01*
X44805454Y-84941057D01*
X44793976Y-84952535D01*
X44771021Y-84964013D01*
X44725111Y-84964013D01*
X44702155Y-84975490D01*
X44690678Y-84986968D01*
X44679200Y-85009923D01*
X44679200Y-85055833D01*
X44690678Y-85078788D01*
X44702155Y-85090266D01*
X44725111Y-85101743D01*
X44771021Y-85101743D01*
X44793976Y-85090266D01*
X44805454Y-85078788D01*
X44816931Y-85055833D01*
X44816931Y-85009923D01*
X44805454Y-84986968D01*
X44793976Y-84975490D01*
X44771021Y-84964013D01*
X44315864Y-86490369D02*
X44327339Y-86478894D01*
X44350289Y-86467419D01*
X44407663Y-86467419D01*
X44430613Y-86478894D01*
X44442088Y-86490369D01*
X44453563Y-86513319D01*
X44453563Y-86536269D01*
X44442088Y-86570693D01*
X44304389Y-86708392D01*
X44453563Y-86708392D01*
X44556837Y-86685442D02*
X44568312Y-86696917D01*
X44556837Y-86708392D01*
X44545362Y-86696917D01*
X44556837Y-86685442D01*
X44556837Y-86708392D01*
X44660111Y-86490369D02*
X44671586Y-86478894D01*
X44694536Y-86467419D01*
X44751910Y-86467419D01*
X44774860Y-86478894D01*
X44786335Y-86490369D01*
X44797810Y-86513319D01*
X44797810Y-86536269D01*
X44786335Y-86570693D01*
X44648636Y-86708392D01*
X44797810Y-86708392D01*
X45004358Y-86547743D02*
X45004358Y-86708392D01*
X44901084Y-86547743D02*
X44901084Y-86673967D01*
X44912559Y-86696917D01*
X44935509Y-86708392D01*
X44969933Y-86708392D01*
X44992883Y-86696917D01*
X45004358Y-86685442D01*
G04 #@! TO.C,C29*
X51915052Y-89868713D02*
X51903575Y-89880191D01*
X51869142Y-89891668D01*
X51846187Y-89891668D01*
X51811754Y-89880191D01*
X51788799Y-89857236D01*
X51777321Y-89834281D01*
X51765844Y-89788370D01*
X51765844Y-89753938D01*
X51777321Y-89708027D01*
X51788799Y-89685072D01*
X51811754Y-89662117D01*
X51846187Y-89650639D01*
X51869142Y-89650639D01*
X51903575Y-89662117D01*
X51915052Y-89673595D01*
X52006873Y-89673595D02*
X52018350Y-89662117D01*
X52041306Y-89650639D01*
X52098693Y-89650639D01*
X52121649Y-89662117D01*
X52133126Y-89673595D01*
X52144604Y-89696550D01*
X52144604Y-89719505D01*
X52133126Y-89753938D01*
X51995395Y-89891668D01*
X52144604Y-89891668D01*
X52259379Y-89891668D02*
X52305290Y-89891668D01*
X52328245Y-89880191D01*
X52339722Y-89868713D01*
X52362678Y-89834281D01*
X52374155Y-89788370D01*
X52374155Y-89696550D01*
X52362678Y-89673595D01*
X52351200Y-89662117D01*
X52328245Y-89650639D01*
X52282335Y-89650639D01*
X52259379Y-89662117D01*
X52247902Y-89673595D01*
X52236424Y-89696550D01*
X52236424Y-89753938D01*
X52247902Y-89776893D01*
X52259379Y-89788370D01*
X52282335Y-89799848D01*
X52328245Y-89799848D01*
X52351200Y-89788370D01*
X52362678Y-89776893D01*
X52374155Y-89753938D01*
X51662640Y-88043996D02*
X51685590Y-88043996D01*
X51708540Y-88055471D01*
X51720015Y-88066946D01*
X51731490Y-88089896D01*
X51742965Y-88135795D01*
X51742965Y-88193170D01*
X51731490Y-88239069D01*
X51720015Y-88262019D01*
X51708540Y-88273494D01*
X51685590Y-88284969D01*
X51662640Y-88284969D01*
X51639691Y-88273494D01*
X51628216Y-88262019D01*
X51616741Y-88239069D01*
X51605266Y-88193170D01*
X51605266Y-88135795D01*
X51616741Y-88089896D01*
X51628216Y-88066946D01*
X51639691Y-88055471D01*
X51662640Y-88043996D01*
X51846239Y-88262019D02*
X51857714Y-88273494D01*
X51846239Y-88284969D01*
X51834764Y-88273494D01*
X51846239Y-88262019D01*
X51846239Y-88284969D01*
X52006888Y-88043996D02*
X52029837Y-88043996D01*
X52052787Y-88055471D01*
X52064262Y-88066946D01*
X52075737Y-88089896D01*
X52087212Y-88135795D01*
X52087212Y-88193170D01*
X52075737Y-88239069D01*
X52064262Y-88262019D01*
X52052787Y-88273494D01*
X52029837Y-88284969D01*
X52006888Y-88284969D01*
X51983938Y-88273494D01*
X51972463Y-88262019D01*
X51960988Y-88239069D01*
X51949513Y-88193170D01*
X51949513Y-88135795D01*
X51960988Y-88089896D01*
X51972463Y-88066946D01*
X51983938Y-88055471D01*
X52006888Y-88043996D01*
X52316710Y-88284969D02*
X52179011Y-88284969D01*
X52247861Y-88284969D02*
X52247861Y-88043996D01*
X52224911Y-88078421D01*
X52201961Y-88101371D01*
X52179011Y-88112846D01*
X52523258Y-88124320D02*
X52523258Y-88284969D01*
X52419984Y-88124320D02*
X52419984Y-88250544D01*
X52431459Y-88273494D01*
X52454409Y-88284969D01*
X52488834Y-88284969D01*
X52511783Y-88273494D01*
X52523258Y-88262019D01*
G04 #@! TO.C,C30*
X52231828Y-83912449D02*
X52220351Y-83923927D01*
X52185918Y-83935404D01*
X52162963Y-83935404D01*
X52128530Y-83923927D01*
X52105575Y-83900972D01*
X52094097Y-83878017D01*
X52082620Y-83832106D01*
X52082620Y-83797674D01*
X52094097Y-83751763D01*
X52105575Y-83728808D01*
X52128530Y-83705853D01*
X52162963Y-83694375D01*
X52185918Y-83694375D01*
X52220351Y-83705853D01*
X52231828Y-83717331D01*
X52312171Y-83694375D02*
X52461380Y-83694375D01*
X52381037Y-83786196D01*
X52415469Y-83786196D01*
X52438425Y-83797674D01*
X52449902Y-83809151D01*
X52461380Y-83832106D01*
X52461380Y-83889494D01*
X52449902Y-83912449D01*
X52438425Y-83923927D01*
X52415469Y-83935404D01*
X52346604Y-83935404D01*
X52323649Y-83923927D01*
X52312171Y-83912449D01*
X52610588Y-83694375D02*
X52633543Y-83694375D01*
X52656498Y-83705853D01*
X52667976Y-83717331D01*
X52679454Y-83740286D01*
X52690931Y-83786196D01*
X52690931Y-83843584D01*
X52679454Y-83889494D01*
X52667976Y-83912449D01*
X52656498Y-83923927D01*
X52633543Y-83935404D01*
X52610588Y-83935404D01*
X52587633Y-83923927D01*
X52576155Y-83912449D01*
X52564678Y-83889494D01*
X52553200Y-83843584D01*
X52553200Y-83786196D01*
X52564678Y-83740286D01*
X52576155Y-83717331D01*
X52587633Y-83705853D01*
X52610588Y-83694375D01*
X52189864Y-85324030D02*
X52201339Y-85312555D01*
X52224289Y-85301080D01*
X52281663Y-85301080D01*
X52304613Y-85312555D01*
X52316088Y-85324030D01*
X52327563Y-85346980D01*
X52327563Y-85369930D01*
X52316088Y-85404354D01*
X52178389Y-85542053D01*
X52327563Y-85542053D01*
X52430837Y-85519103D02*
X52442312Y-85530578D01*
X52430837Y-85542053D01*
X52419362Y-85530578D01*
X52430837Y-85519103D01*
X52430837Y-85542053D01*
X52534111Y-85324030D02*
X52545586Y-85312555D01*
X52568536Y-85301080D01*
X52625910Y-85301080D01*
X52648860Y-85312555D01*
X52660335Y-85324030D01*
X52671810Y-85346980D01*
X52671810Y-85369930D01*
X52660335Y-85404354D01*
X52522636Y-85542053D01*
X52671810Y-85542053D01*
X52878358Y-85381404D02*
X52878358Y-85542053D01*
X52775084Y-85381404D02*
X52775084Y-85507628D01*
X52786559Y-85530578D01*
X52809509Y-85542053D01*
X52843933Y-85542053D01*
X52866883Y-85530578D01*
X52878358Y-85519103D01*
G04 #@! TO.C,J7*
X103466618Y-102329787D02*
X103466618Y-102901890D01*
X103428478Y-103016311D01*
X103352197Y-103092592D01*
X103237776Y-103130732D01*
X103161496Y-103130732D01*
X103771740Y-102329787D02*
X104305703Y-102329787D01*
X103962441Y-103130732D01*
D11*
X107295975Y-94856514D02*
X107295975Y-95237541D01*
X106495818Y-95237541D01*
X106495818Y-94437384D02*
X106495818Y-94284973D01*
X106533921Y-94208768D01*
X106610126Y-94132562D01*
X106762537Y-94094460D01*
X107029256Y-94094460D01*
X107181667Y-94132562D01*
X107257873Y-94208768D01*
X107295975Y-94284973D01*
X107295975Y-94437384D01*
X107257873Y-94513590D01*
X107181667Y-94589795D01*
X107029256Y-94627898D01*
X106762537Y-94627898D01*
X106610126Y-94589795D01*
X106533921Y-94513590D01*
X106495818Y-94437384D01*
X106572024Y-93789638D02*
X106533921Y-93751535D01*
X106495818Y-93675330D01*
X106495818Y-93484816D01*
X106533921Y-93408611D01*
X106572024Y-93370508D01*
X106648229Y-93332405D01*
X106724435Y-93332405D01*
X106838743Y-93370508D01*
X107295975Y-93827741D01*
X107295975Y-93332405D01*
X106457716Y-92417940D02*
X107486489Y-93103789D01*
X107295975Y-92151221D02*
X106495818Y-92151221D01*
X106876845Y-91503475D02*
X106876845Y-91770194D01*
X107295975Y-91770194D02*
X106495818Y-91770194D01*
X106495818Y-91389167D01*
X106495818Y-90589010D02*
X106495818Y-90131777D01*
X107295975Y-90360394D02*
X106495818Y-90360394D01*
X107257873Y-89560237D02*
X107295975Y-89636442D01*
X107295975Y-89788853D01*
X107257873Y-89865058D01*
X107181667Y-89903161D01*
X106876845Y-89903161D01*
X106800640Y-89865058D01*
X106762537Y-89788853D01*
X106762537Y-89636442D01*
X106800640Y-89560237D01*
X106876845Y-89522134D01*
X106953051Y-89522134D01*
X107029256Y-89903161D01*
X107257873Y-89217312D02*
X107295975Y-89141107D01*
X107295975Y-88988696D01*
X107257873Y-88912491D01*
X107181667Y-88874388D01*
X107143564Y-88874388D01*
X107067359Y-88912491D01*
X107029256Y-88988696D01*
X107029256Y-89103004D01*
X106991154Y-89179210D01*
X106914948Y-89217312D01*
X106876845Y-89217312D01*
X106800640Y-89179210D01*
X106762537Y-89103004D01*
X106762537Y-88988696D01*
X106800640Y-88912491D01*
X106762537Y-88645772D02*
X106762537Y-88340950D01*
X106495818Y-88531463D02*
X107181667Y-88531463D01*
X107257873Y-88493361D01*
X107295975Y-88417155D01*
X107295975Y-88340950D01*
G04 #@! TO.C,J11*
D15*
X65696415Y-95116187D02*
X65696415Y-95688290D01*
X65658275Y-95802711D01*
X65581995Y-95878992D01*
X65467574Y-95917132D01*
X65391294Y-95917132D01*
X66497360Y-95917132D02*
X66039678Y-95917132D01*
X66268519Y-95917132D02*
X66268519Y-95116187D01*
X66192239Y-95230607D01*
X66115958Y-95306888D01*
X66039678Y-95345028D01*
X67260165Y-95917132D02*
X66802482Y-95917132D01*
X67031324Y-95917132D02*
X67031324Y-95116187D01*
X66955043Y-95230607D01*
X66878763Y-95306888D01*
X66802482Y-95345028D01*
D11*
X64966726Y-100285575D02*
X64700007Y-99904548D01*
X64509493Y-100285575D02*
X64509493Y-99485418D01*
X64814315Y-99485418D01*
X64890521Y-99523521D01*
X64928623Y-99561624D01*
X64966726Y-99637829D01*
X64966726Y-99752137D01*
X64928623Y-99828343D01*
X64890521Y-99866445D01*
X64814315Y-99904548D01*
X64509493Y-99904548D01*
X65576369Y-99866445D02*
X65309650Y-99866445D01*
X65309650Y-100285575D02*
X65309650Y-99485418D01*
X65690678Y-99485418D01*
X65995499Y-99980754D02*
X66605143Y-99980754D01*
X67138581Y-99485418D02*
X67290992Y-99485418D01*
X67367197Y-99523521D01*
X67443402Y-99599726D01*
X67481505Y-99752137D01*
X67481505Y-100018856D01*
X67443402Y-100171267D01*
X67367197Y-100247473D01*
X67290992Y-100285575D01*
X67138581Y-100285575D01*
X67062375Y-100247473D01*
X66986170Y-100171267D01*
X66948067Y-100018856D01*
X66948067Y-99752137D01*
X66986170Y-99599726D01*
X67062375Y-99523521D01*
X67138581Y-99485418D01*
X67824430Y-99485418D02*
X67824430Y-100133164D01*
X67862532Y-100209370D01*
X67900635Y-100247473D01*
X67976840Y-100285575D01*
X68129251Y-100285575D01*
X68205457Y-100247473D01*
X68243559Y-100209370D01*
X68281662Y-100133164D01*
X68281662Y-99485418D01*
X68548381Y-99485418D02*
X69005614Y-99485418D01*
X68776997Y-100285575D02*
X68776997Y-99485418D01*
G04 #@! TO.C,L1*
D15*
X86208668Y-83111947D02*
X86208668Y-83226723D01*
X85967639Y-83226723D01*
X86208668Y-82905351D02*
X86208668Y-83043082D01*
X86208668Y-82974216D02*
X85967639Y-82974216D01*
X86002072Y-82997171D01*
X86025027Y-83020126D01*
X86036505Y-83043082D01*
X84601969Y-83379760D02*
X84601969Y-83517459D01*
X84601969Y-83448609D02*
X84360996Y-83448609D01*
X84395421Y-83471559D01*
X84418371Y-83494509D01*
X84429846Y-83517459D01*
X84464270Y-83242061D02*
X84452795Y-83265011D01*
X84441320Y-83276486D01*
X84418371Y-83287960D01*
X84406896Y-83287960D01*
X84383946Y-83276486D01*
X84372471Y-83265011D01*
X84360996Y-83242061D01*
X84360996Y-83196161D01*
X84372471Y-83173211D01*
X84383946Y-83161737D01*
X84406896Y-83150262D01*
X84418371Y-83150262D01*
X84441320Y-83161737D01*
X84452795Y-83173211D01*
X84464270Y-83196161D01*
X84464270Y-83242061D01*
X84475745Y-83265011D01*
X84487220Y-83276486D01*
X84510170Y-83287960D01*
X84556069Y-83287960D01*
X84579019Y-83276486D01*
X84590494Y-83265011D01*
X84601969Y-83242061D01*
X84601969Y-83196161D01*
X84590494Y-83173211D01*
X84579019Y-83161737D01*
X84556069Y-83150262D01*
X84510170Y-83150262D01*
X84487220Y-83161737D01*
X84475745Y-83173211D01*
X84464270Y-83196161D01*
X84441320Y-83046987D02*
X84601969Y-83046987D01*
X84464270Y-83046987D02*
X84452795Y-83035513D01*
X84441320Y-83012563D01*
X84441320Y-82978138D01*
X84452795Y-82955188D01*
X84475745Y-82943713D01*
X84601969Y-82943713D01*
G04 #@! TO.C,L2*
X86714604Y-80506404D02*
X86599828Y-80506404D01*
X86599828Y-80265375D01*
X86783469Y-80288331D02*
X86794947Y-80276853D01*
X86817902Y-80265375D01*
X86875290Y-80265375D01*
X86898245Y-80276853D01*
X86909723Y-80288331D01*
X86921200Y-80311286D01*
X86921200Y-80334241D01*
X86909723Y-80368674D01*
X86771992Y-80506404D01*
X86921200Y-80506404D01*
X86672613Y-81872080D02*
X86626713Y-81872080D01*
X86603764Y-81883555D01*
X86592289Y-81895030D01*
X86569339Y-81929455D01*
X86557864Y-81975354D01*
X86557864Y-82067153D01*
X86569339Y-82090103D01*
X86580814Y-82101578D01*
X86603764Y-82113053D01*
X86649663Y-82113053D01*
X86672613Y-82101578D01*
X86684088Y-82090103D01*
X86695563Y-82067153D01*
X86695563Y-82009779D01*
X86684088Y-81986829D01*
X86672613Y-81975354D01*
X86649663Y-81963879D01*
X86603764Y-81963879D01*
X86580814Y-81975354D01*
X86569339Y-81986829D01*
X86557864Y-82009779D01*
X86798837Y-82090103D02*
X86810312Y-82101578D01*
X86798837Y-82113053D01*
X86787362Y-82101578D01*
X86798837Y-82090103D01*
X86798837Y-82113053D01*
X86925061Y-82113053D02*
X86970960Y-82113053D01*
X86993910Y-82101578D01*
X87005385Y-82090103D01*
X87028335Y-82055679D01*
X87039810Y-82009779D01*
X87039810Y-81917980D01*
X87028335Y-81895030D01*
X87016860Y-81883555D01*
X86993910Y-81872080D01*
X86948011Y-81872080D01*
X86925061Y-81883555D01*
X86913586Y-81895030D01*
X86902111Y-81917980D01*
X86902111Y-81975354D01*
X86913586Y-81998304D01*
X86925061Y-82009779D01*
X86948011Y-82021254D01*
X86993910Y-82021254D01*
X87016860Y-82009779D01*
X87028335Y-81998304D01*
X87039810Y-81975354D01*
X87143084Y-81952404D02*
X87143084Y-82113053D01*
X87143084Y-81975354D02*
X87154559Y-81963879D01*
X87177509Y-81952404D01*
X87211933Y-81952404D01*
X87234883Y-81963879D01*
X87246358Y-81986829D01*
X87246358Y-82113053D01*
G04 #@! TO.C,L3*
X88253404Y-77242395D02*
X88253404Y-77357171D01*
X88012375Y-77357171D01*
X88012375Y-77185007D02*
X88012375Y-77035799D01*
X88104196Y-77116142D01*
X88104196Y-77081709D01*
X88115674Y-77058754D01*
X88127151Y-77047276D01*
X88150106Y-77035799D01*
X88207494Y-77035799D01*
X88230449Y-77047276D01*
X88241927Y-77058754D01*
X88253404Y-77081709D01*
X88253404Y-77150574D01*
X88241927Y-77173530D01*
X88230449Y-77185007D01*
X89619080Y-77284386D02*
X89619080Y-77330286D01*
X89630555Y-77353235D01*
X89642030Y-77364710D01*
X89676455Y-77387660D01*
X89722354Y-77399135D01*
X89814153Y-77399135D01*
X89837103Y-77387660D01*
X89848578Y-77376185D01*
X89860053Y-77353235D01*
X89860053Y-77307336D01*
X89848578Y-77284386D01*
X89837103Y-77272911D01*
X89814153Y-77261436D01*
X89756779Y-77261436D01*
X89733829Y-77272911D01*
X89722354Y-77284386D01*
X89710879Y-77307336D01*
X89710879Y-77353235D01*
X89722354Y-77376185D01*
X89733829Y-77387660D01*
X89756779Y-77399135D01*
X89837103Y-77158162D02*
X89848578Y-77146687D01*
X89860053Y-77158162D01*
X89848578Y-77169637D01*
X89837103Y-77158162D01*
X89860053Y-77158162D01*
X89860053Y-77031938D02*
X89860053Y-76986039D01*
X89848578Y-76963089D01*
X89837103Y-76951614D01*
X89802679Y-76928664D01*
X89756779Y-76917189D01*
X89664980Y-76917189D01*
X89642030Y-76928664D01*
X89630555Y-76940139D01*
X89619080Y-76963089D01*
X89619080Y-77008988D01*
X89630555Y-77031938D01*
X89642030Y-77043413D01*
X89664980Y-77054888D01*
X89722354Y-77054888D01*
X89745304Y-77043413D01*
X89756779Y-77031938D01*
X89768254Y-77008988D01*
X89768254Y-76963089D01*
X89756779Y-76940139D01*
X89745304Y-76928664D01*
X89722354Y-76917189D01*
X89699404Y-76813915D02*
X89860053Y-76813915D01*
X89722354Y-76813915D02*
X89710879Y-76802440D01*
X89699404Y-76779490D01*
X89699404Y-76745066D01*
X89710879Y-76722116D01*
X89733829Y-76710641D01*
X89860053Y-76710641D01*
G04 #@! TO.C,L4*
X61708052Y-79989668D02*
X61593276Y-79989668D01*
X61593276Y-79748639D01*
X61891693Y-79828982D02*
X61891693Y-79989668D01*
X61834305Y-79737162D02*
X61776917Y-79909325D01*
X61926126Y-79909325D01*
X61554988Y-78382969D02*
X61417289Y-78382969D01*
X61486139Y-78382969D02*
X61486139Y-78141996D01*
X61463189Y-78176421D01*
X61440239Y-78199371D01*
X61417289Y-78210846D01*
X61658262Y-78222320D02*
X61658262Y-78382969D01*
X61658262Y-78245270D02*
X61669737Y-78233795D01*
X61692687Y-78222320D01*
X61727112Y-78222320D01*
X61750062Y-78233795D01*
X61761537Y-78256745D01*
X61761537Y-78382969D01*
G04 #@! TO.C,L5*
X62840668Y-81177947D02*
X62840668Y-81292723D01*
X62599639Y-81292723D01*
X62599639Y-80982828D02*
X62599639Y-81097604D01*
X62714415Y-81109082D01*
X62702938Y-81097604D01*
X62691460Y-81074649D01*
X62691460Y-81017261D01*
X62702938Y-80994306D01*
X62714415Y-80982828D01*
X62737370Y-80971351D01*
X62794758Y-80971351D01*
X62817713Y-80982828D01*
X62829191Y-80994306D01*
X62840668Y-81017261D01*
X62840668Y-81074649D01*
X62829191Y-81097604D01*
X62817713Y-81109082D01*
X60992996Y-81594933D02*
X60992996Y-81445760D01*
X61084795Y-81526084D01*
X61084795Y-81491659D01*
X61096270Y-81468710D01*
X61107745Y-81457235D01*
X61130695Y-81445760D01*
X61188069Y-81445760D01*
X61211019Y-81457235D01*
X61222494Y-81468710D01*
X61233969Y-81491659D01*
X61233969Y-81560509D01*
X61222494Y-81583459D01*
X61211019Y-81594933D01*
X60992996Y-81296586D02*
X60992996Y-81273636D01*
X61004471Y-81250686D01*
X61015946Y-81239211D01*
X61038896Y-81227737D01*
X61084795Y-81216262D01*
X61142170Y-81216262D01*
X61188069Y-81227737D01*
X61211019Y-81239211D01*
X61222494Y-81250686D01*
X61233969Y-81273636D01*
X61233969Y-81296586D01*
X61222494Y-81319536D01*
X61211019Y-81331011D01*
X61188069Y-81342486D01*
X61142170Y-81353960D01*
X61084795Y-81353960D01*
X61038896Y-81342486D01*
X61015946Y-81331011D01*
X61004471Y-81319536D01*
X60992996Y-81296586D01*
X61073320Y-81112987D02*
X61233969Y-81112987D01*
X61096270Y-81112987D02*
X61084795Y-81101513D01*
X61073320Y-81078563D01*
X61073320Y-81044138D01*
X61084795Y-81021188D01*
X61107745Y-81009713D01*
X61233969Y-81009713D01*
G04 #@! TO.C,L6*
X97384668Y-83365947D02*
X97384668Y-83480723D01*
X97143639Y-83480723D01*
X97143639Y-83182306D02*
X97143639Y-83228216D01*
X97155117Y-83251171D01*
X97166595Y-83262649D01*
X97201027Y-83285604D01*
X97246938Y-83297082D01*
X97338758Y-83297082D01*
X97361713Y-83285604D01*
X97373191Y-83274126D01*
X97384668Y-83251171D01*
X97384668Y-83205261D01*
X97373191Y-83182306D01*
X97361713Y-83170828D01*
X97338758Y-83159351D01*
X97281370Y-83159351D01*
X97258415Y-83170828D01*
X97246938Y-83182306D01*
X97235460Y-83205261D01*
X97235460Y-83251171D01*
X97246938Y-83274126D01*
X97258415Y-83285604D01*
X97281370Y-83297082D01*
X95536996Y-83897683D02*
X95536996Y-83748509D01*
X95628795Y-83828833D01*
X95628795Y-83794408D01*
X95640270Y-83771459D01*
X95651745Y-83759984D01*
X95674695Y-83748509D01*
X95732069Y-83748509D01*
X95755019Y-83759984D01*
X95766494Y-83771459D01*
X95777969Y-83794408D01*
X95777969Y-83863258D01*
X95766494Y-83886208D01*
X95755019Y-83897683D01*
X95559946Y-83656710D02*
X95548471Y-83645235D01*
X95536996Y-83622285D01*
X95536996Y-83564910D01*
X95548471Y-83541960D01*
X95559946Y-83530486D01*
X95582896Y-83519011D01*
X95605846Y-83519011D01*
X95640270Y-83530486D01*
X95777969Y-83668184D01*
X95777969Y-83519011D01*
X95536996Y-83369837D02*
X95536996Y-83346887D01*
X95548471Y-83323937D01*
X95559946Y-83312462D01*
X95582896Y-83300987D01*
X95628795Y-83289513D01*
X95686170Y-83289513D01*
X95732069Y-83300987D01*
X95755019Y-83312462D01*
X95766494Y-83323937D01*
X95777969Y-83346887D01*
X95777969Y-83369837D01*
X95766494Y-83392787D01*
X95755019Y-83404262D01*
X95732069Y-83415737D01*
X95686170Y-83427211D01*
X95628795Y-83427211D01*
X95582896Y-83415737D01*
X95559946Y-83404262D01*
X95548471Y-83392787D01*
X95536996Y-83369837D01*
X95617320Y-83186238D02*
X95777969Y-83186238D01*
X95640270Y-83186238D02*
X95628795Y-83174764D01*
X95617320Y-83151814D01*
X95617320Y-83117389D01*
X95628795Y-83094439D01*
X95651745Y-83082964D01*
X95777969Y-83082964D01*
G04 #@! TO.C,L7*
X99211052Y-79096668D02*
X99096276Y-79096668D01*
X99096276Y-78855639D01*
X99268440Y-78855639D02*
X99429126Y-78855639D01*
X99325828Y-79096668D01*
X98679316Y-77248996D02*
X98828490Y-77248996D01*
X98748166Y-77340795D01*
X98782591Y-77340795D01*
X98805540Y-77352270D01*
X98817015Y-77363745D01*
X98828490Y-77386695D01*
X98828490Y-77444069D01*
X98817015Y-77467019D01*
X98805540Y-77478494D01*
X98782591Y-77489969D01*
X98713741Y-77489969D01*
X98690791Y-77478494D01*
X98679316Y-77467019D01*
X98920289Y-77271946D02*
X98931764Y-77260471D01*
X98954714Y-77248996D01*
X99012089Y-77248996D01*
X99035039Y-77260471D01*
X99046513Y-77271946D01*
X99057988Y-77294896D01*
X99057988Y-77317846D01*
X99046513Y-77352270D01*
X98908815Y-77489969D01*
X99057988Y-77489969D01*
X99207162Y-77248996D02*
X99230112Y-77248996D01*
X99253062Y-77260471D01*
X99264537Y-77271946D01*
X99276012Y-77294896D01*
X99287486Y-77340795D01*
X99287486Y-77398170D01*
X99276012Y-77444069D01*
X99264537Y-77467019D01*
X99253062Y-77478494D01*
X99230112Y-77489969D01*
X99207162Y-77489969D01*
X99184212Y-77478494D01*
X99172737Y-77467019D01*
X99161262Y-77444069D01*
X99149788Y-77398170D01*
X99149788Y-77340795D01*
X99161262Y-77294896D01*
X99172737Y-77271946D01*
X99184212Y-77260471D01*
X99207162Y-77248996D01*
X99390761Y-77329320D02*
X99390761Y-77489969D01*
X99390761Y-77352270D02*
X99402235Y-77340795D01*
X99425185Y-77329320D01*
X99459610Y-77329320D01*
X99482560Y-77340795D01*
X99494035Y-77363745D01*
X99494035Y-77489969D01*
G04 #@! TO.C,L8*
X98906604Y-81522404D02*
X98791828Y-81522404D01*
X98791828Y-81281375D01*
X99021380Y-81384674D02*
X98998425Y-81373196D01*
X98986947Y-81361718D01*
X98975469Y-81338763D01*
X98975469Y-81327286D01*
X98986947Y-81304331D01*
X98998425Y-81292853D01*
X99021380Y-81281375D01*
X99067290Y-81281375D01*
X99090245Y-81292853D01*
X99101723Y-81304331D01*
X99113200Y-81327286D01*
X99113200Y-81338763D01*
X99101723Y-81361718D01*
X99090245Y-81373196D01*
X99067290Y-81384674D01*
X99021380Y-81384674D01*
X98998425Y-81396151D01*
X98986947Y-81407629D01*
X98975469Y-81430584D01*
X98975469Y-81476494D01*
X98986947Y-81499449D01*
X98998425Y-81510927D01*
X99021380Y-81522404D01*
X99067290Y-81522404D01*
X99090245Y-81510927D01*
X99101723Y-81499449D01*
X99113200Y-81476494D01*
X99113200Y-81430584D01*
X99101723Y-81407629D01*
X99090245Y-81396151D01*
X99067290Y-81384674D01*
X98681014Y-82888080D02*
X98830188Y-82888080D01*
X98749864Y-82979879D01*
X98784289Y-82979879D01*
X98807238Y-82991354D01*
X98818713Y-83002829D01*
X98830188Y-83025779D01*
X98830188Y-83083153D01*
X98818713Y-83106103D01*
X98807238Y-83117578D01*
X98784289Y-83129053D01*
X98715439Y-83129053D01*
X98692489Y-83117578D01*
X98681014Y-83106103D01*
X98921987Y-82911030D02*
X98933462Y-82899555D01*
X98956412Y-82888080D01*
X99013787Y-82888080D01*
X99036737Y-82899555D01*
X99048211Y-82911030D01*
X99059686Y-82933980D01*
X99059686Y-82956930D01*
X99048211Y-82991354D01*
X98910513Y-83129053D01*
X99059686Y-83129053D01*
X99208860Y-82888080D02*
X99231810Y-82888080D01*
X99254760Y-82899555D01*
X99266235Y-82911030D01*
X99277710Y-82933980D01*
X99289184Y-82979879D01*
X99289184Y-83037254D01*
X99277710Y-83083153D01*
X99266235Y-83106103D01*
X99254760Y-83117578D01*
X99231810Y-83129053D01*
X99208860Y-83129053D01*
X99185910Y-83117578D01*
X99174435Y-83106103D01*
X99162960Y-83083153D01*
X99151486Y-83037254D01*
X99151486Y-82979879D01*
X99162960Y-82933980D01*
X99174435Y-82911030D01*
X99185910Y-82899555D01*
X99208860Y-82888080D01*
X99392459Y-82968404D02*
X99392459Y-83129053D01*
X99392459Y-82991354D02*
X99403933Y-82979879D01*
X99426883Y-82968404D01*
X99461308Y-82968404D01*
X99484258Y-82979879D01*
X99495733Y-83002829D01*
X99495733Y-83129053D01*
G04 #@! TO.C,L9*
X70346404Y-82434171D02*
X70346404Y-82548947D01*
X70105375Y-82548947D01*
X70346404Y-82342350D02*
X70346404Y-82296440D01*
X70334927Y-82273485D01*
X70323449Y-82262007D01*
X70289017Y-82239052D01*
X70243106Y-82227575D01*
X70151286Y-82227575D01*
X70128331Y-82239052D01*
X70116853Y-82250530D01*
X70105375Y-82273485D01*
X70105375Y-82319395D01*
X70116853Y-82342350D01*
X70128331Y-82353828D01*
X70151286Y-82365306D01*
X70208674Y-82365306D01*
X70231629Y-82353828D01*
X70243106Y-82342350D01*
X70254584Y-82319395D01*
X70254584Y-82273485D01*
X70243106Y-82250530D01*
X70231629Y-82239052D01*
X70208674Y-82227575D01*
X70099038Y-81936084D02*
X70099038Y-81786911D01*
X70190837Y-81867235D01*
X70190837Y-81832810D01*
X70202312Y-81809861D01*
X70213787Y-81798386D01*
X70236737Y-81786911D01*
X70294111Y-81786911D01*
X70317061Y-81798386D01*
X70328536Y-81809861D01*
X70340011Y-81832810D01*
X70340011Y-81901660D01*
X70328536Y-81924610D01*
X70317061Y-81936084D01*
X70099038Y-81580362D02*
X70099038Y-81626262D01*
X70110513Y-81649212D01*
X70121988Y-81660687D01*
X70156413Y-81683637D01*
X70202312Y-81695111D01*
X70294111Y-81695111D01*
X70317061Y-81683637D01*
X70328536Y-81672162D01*
X70340011Y-81649212D01*
X70340011Y-81603312D01*
X70328536Y-81580362D01*
X70317061Y-81568888D01*
X70294111Y-81557413D01*
X70236737Y-81557413D01*
X70213787Y-81568888D01*
X70202312Y-81580362D01*
X70190837Y-81603312D01*
X70190837Y-81649212D01*
X70202312Y-81672162D01*
X70213787Y-81683637D01*
X70236737Y-81695111D01*
X70179362Y-81454138D02*
X70340011Y-81454138D01*
X70202312Y-81454138D02*
X70190837Y-81442664D01*
X70179362Y-81419714D01*
X70179362Y-81385289D01*
X70190837Y-81362339D01*
X70213787Y-81350864D01*
X70340011Y-81350864D01*
G04 #@! TO.C,L10*
X98038464Y-92045512D02*
X97923689Y-92045512D01*
X97923689Y-91804483D01*
X98245061Y-92045512D02*
X98107330Y-92045512D01*
X98176195Y-92045512D02*
X98176195Y-91804483D01*
X98153240Y-91838916D01*
X98130285Y-91861871D01*
X98107330Y-91873349D01*
X98394269Y-91804483D02*
X98417224Y-91804483D01*
X98440179Y-91815961D01*
X98451657Y-91827439D01*
X98463134Y-91850394D01*
X98474612Y-91896304D01*
X98474612Y-91953692D01*
X98463134Y-91999602D01*
X98451657Y-92022557D01*
X98440179Y-92034035D01*
X98417224Y-92045512D01*
X98394269Y-92045512D01*
X98371314Y-92034035D01*
X98359836Y-92022557D01*
X98348359Y-91999602D01*
X98336881Y-91953692D01*
X98336881Y-91896304D01*
X98348359Y-91850394D01*
X98359836Y-91827439D01*
X98371314Y-91815961D01*
X98394269Y-91804483D01*
X97621504Y-90197840D02*
X97770678Y-90197840D01*
X97690354Y-90289639D01*
X97724779Y-90289639D01*
X97747728Y-90301114D01*
X97759203Y-90312589D01*
X97770678Y-90335539D01*
X97770678Y-90392913D01*
X97759203Y-90415863D01*
X97747728Y-90427338D01*
X97724779Y-90438813D01*
X97655929Y-90438813D01*
X97632979Y-90427338D01*
X97621504Y-90415863D01*
X97862477Y-90220790D02*
X97873952Y-90209315D01*
X97896902Y-90197840D01*
X97954277Y-90197840D01*
X97977227Y-90209315D01*
X97988701Y-90220790D01*
X98000176Y-90243740D01*
X98000176Y-90266690D01*
X97988701Y-90301114D01*
X97851003Y-90438813D01*
X98000176Y-90438813D01*
X98149350Y-90197840D02*
X98172300Y-90197840D01*
X98195250Y-90209315D01*
X98206725Y-90220790D01*
X98218200Y-90243740D01*
X98229674Y-90289639D01*
X98229674Y-90347014D01*
X98218200Y-90392913D01*
X98206725Y-90415863D01*
X98195250Y-90427338D01*
X98172300Y-90438813D01*
X98149350Y-90438813D01*
X98126400Y-90427338D01*
X98114925Y-90415863D01*
X98103450Y-90392913D01*
X98091976Y-90347014D01*
X98091976Y-90289639D01*
X98103450Y-90243740D01*
X98114925Y-90220790D01*
X98126400Y-90209315D01*
X98149350Y-90197840D01*
X98332949Y-90278164D02*
X98332949Y-90438813D01*
X98332949Y-90301114D02*
X98344423Y-90289639D01*
X98367373Y-90278164D01*
X98401798Y-90278164D01*
X98424748Y-90289639D01*
X98436223Y-90312589D01*
X98436223Y-90438813D01*
G04 #@! TO.C,L11*
X98038464Y-94331512D02*
X97923689Y-94331512D01*
X97923689Y-94090483D01*
X98245061Y-94331512D02*
X98107330Y-94331512D01*
X98176195Y-94331512D02*
X98176195Y-94090483D01*
X98153240Y-94124916D01*
X98130285Y-94147871D01*
X98107330Y-94159349D01*
X98474612Y-94331512D02*
X98336881Y-94331512D01*
X98405747Y-94331512D02*
X98405747Y-94090483D01*
X98382791Y-94124916D01*
X98359836Y-94147871D01*
X98336881Y-94159349D01*
X97736254Y-92483840D02*
X97896902Y-92483840D01*
X97793628Y-92724813D01*
X98091976Y-92564164D02*
X98091976Y-92724813D01*
X98034601Y-92472365D02*
X97977227Y-92644489D01*
X98126400Y-92644489D01*
X98218200Y-92564164D02*
X98218200Y-92724813D01*
X98218200Y-92587114D02*
X98229674Y-92575639D01*
X98252624Y-92564164D01*
X98287049Y-92564164D01*
X98309999Y-92575639D01*
X98321474Y-92598589D01*
X98321474Y-92724813D01*
G04 #@! TO.C,L12*
X96876668Y-98134723D02*
X96876668Y-98249498D01*
X96635639Y-98249498D01*
X96876668Y-97928126D02*
X96876668Y-98065857D01*
X96876668Y-97996992D02*
X96635639Y-97996992D01*
X96670072Y-98019947D01*
X96693027Y-98042902D01*
X96704505Y-98065857D01*
X96658595Y-97836306D02*
X96647117Y-97824828D01*
X96635639Y-97801873D01*
X96635639Y-97744485D01*
X96647117Y-97721530D01*
X96658595Y-97710053D01*
X96681550Y-97698575D01*
X96704505Y-97698575D01*
X96738938Y-97710053D01*
X96876668Y-97847783D01*
X96876668Y-97698575D01*
X95028996Y-98436933D02*
X95028996Y-98276285D01*
X95269969Y-98379559D01*
X95109320Y-98081211D02*
X95269969Y-98081211D01*
X95017521Y-98138586D02*
X95189645Y-98195960D01*
X95189645Y-98046787D01*
X95109320Y-97954987D02*
X95269969Y-97954987D01*
X95132270Y-97954987D02*
X95120795Y-97943513D01*
X95109320Y-97920563D01*
X95109320Y-97886138D01*
X95120795Y-97863188D01*
X95143745Y-97851713D01*
X95269969Y-97851713D01*
G04 #@! TO.C,L13*
X87709828Y-88164609D02*
X87467923Y-88164609D01*
X87467923Y-87656609D01*
X88145257Y-88164609D02*
X87854971Y-88164609D01*
X88000114Y-88164609D02*
X88000114Y-87656609D01*
X87951733Y-87729180D01*
X87903352Y-87777561D01*
X87854971Y-87801752D01*
X88314590Y-87656609D02*
X88629066Y-87656609D01*
X88459733Y-87850133D01*
X88532304Y-87850133D01*
X88580685Y-87874323D01*
X88604876Y-87898514D01*
X88629066Y-87946895D01*
X88629066Y-88067847D01*
X88604876Y-88116228D01*
X88580685Y-88140419D01*
X88532304Y-88164609D01*
X88387161Y-88164609D01*
X88338780Y-88140419D01*
X88314590Y-88116228D01*
X88774209Y-90336914D02*
X88774209Y-90578819D01*
X89016114Y-90603009D01*
X88991923Y-90578819D01*
X88967733Y-90530438D01*
X88967733Y-90409485D01*
X88991923Y-90361104D01*
X89016114Y-90336914D01*
X89064495Y-90312723D01*
X89185447Y-90312723D01*
X89233828Y-90336914D01*
X89258019Y-90361104D01*
X89282209Y-90409485D01*
X89282209Y-90530438D01*
X89258019Y-90578819D01*
X89233828Y-90603009D01*
X89233828Y-90095009D02*
X89258019Y-90070819D01*
X89282209Y-90095009D01*
X89258019Y-90119200D01*
X89233828Y-90095009D01*
X89282209Y-90095009D01*
X88774209Y-89635390D02*
X88774209Y-89732152D01*
X88798400Y-89780533D01*
X88822590Y-89804723D01*
X88895161Y-89853104D01*
X88991923Y-89877295D01*
X89185447Y-89877295D01*
X89233828Y-89853104D01*
X89258019Y-89828914D01*
X89282209Y-89780533D01*
X89282209Y-89683771D01*
X89258019Y-89635390D01*
X89233828Y-89611200D01*
X89185447Y-89587009D01*
X89064495Y-89587009D01*
X89016114Y-89611200D01*
X88991923Y-89635390D01*
X88967733Y-89683771D01*
X88967733Y-89780533D01*
X88991923Y-89828914D01*
X89016114Y-89853104D01*
X89064495Y-89877295D01*
X88943542Y-89151580D02*
X89282209Y-89151580D01*
X88943542Y-89369295D02*
X89209638Y-89369295D01*
X89258019Y-89345104D01*
X89282209Y-89296723D01*
X89282209Y-89224152D01*
X89258019Y-89175771D01*
X89233828Y-89151580D01*
G04 #@! TO.C,L14*
X84001428Y-96445009D02*
X83759523Y-96445009D01*
X83759523Y-95937009D01*
X84436857Y-96445009D02*
X84146571Y-96445009D01*
X84291714Y-96445009D02*
X84291714Y-95937009D01*
X84243333Y-96009580D01*
X84194952Y-96057961D01*
X84146571Y-96082152D01*
X84872285Y-96106342D02*
X84872285Y-96445009D01*
X84751333Y-95912819D02*
X84630380Y-96275676D01*
X84944857Y-96275676D01*
X86091485Y-95937009D02*
X85849580Y-95937009D01*
X85825390Y-96178914D01*
X85849580Y-96154723D01*
X85897961Y-96130533D01*
X86018914Y-96130533D01*
X86067295Y-96154723D01*
X86091485Y-96178914D01*
X86115676Y-96227295D01*
X86115676Y-96348247D01*
X86091485Y-96396628D01*
X86067295Y-96420819D01*
X86018914Y-96445009D01*
X85897961Y-96445009D01*
X85849580Y-96420819D01*
X85825390Y-96396628D01*
X86333390Y-96396628D02*
X86357580Y-96420819D01*
X86333390Y-96445009D01*
X86309200Y-96420819D01*
X86333390Y-96396628D01*
X86333390Y-96445009D01*
X86793009Y-95937009D02*
X86696247Y-95937009D01*
X86647866Y-95961200D01*
X86623676Y-95985390D01*
X86575295Y-96057961D01*
X86551104Y-96154723D01*
X86551104Y-96348247D01*
X86575295Y-96396628D01*
X86599485Y-96420819D01*
X86647866Y-96445009D01*
X86744628Y-96445009D01*
X86793009Y-96420819D01*
X86817200Y-96396628D01*
X86841390Y-96348247D01*
X86841390Y-96227295D01*
X86817200Y-96178914D01*
X86793009Y-96154723D01*
X86744628Y-96130533D01*
X86647866Y-96130533D01*
X86599485Y-96154723D01*
X86575295Y-96178914D01*
X86551104Y-96227295D01*
X87276819Y-96106342D02*
X87276819Y-96445009D01*
X87059104Y-96106342D02*
X87059104Y-96372438D01*
X87083295Y-96420819D01*
X87131676Y-96445009D01*
X87204247Y-96445009D01*
X87252628Y-96420819D01*
X87276819Y-96396628D01*
G04 #@! TO.C,L15*
X80341409Y-91207771D02*
X80341409Y-91449676D01*
X79833409Y-91449676D01*
X80341409Y-90772342D02*
X80341409Y-91062628D01*
X80341409Y-90917485D02*
X79833409Y-90917485D01*
X79905980Y-90965866D01*
X79954361Y-91014247D01*
X79978552Y-91062628D01*
X79833409Y-90312723D02*
X79833409Y-90554628D01*
X80075314Y-90578819D01*
X80051123Y-90554628D01*
X80026933Y-90506247D01*
X80026933Y-90385295D01*
X80051123Y-90336914D01*
X80075314Y-90312723D01*
X80123695Y-90288533D01*
X80244647Y-90288533D01*
X80293028Y-90312723D01*
X80317219Y-90336914D01*
X80341409Y-90385295D01*
X80341409Y-90506247D01*
X80317219Y-90554628D01*
X80293028Y-90578819D01*
X83033809Y-90794114D02*
X83033809Y-91036019D01*
X83275714Y-91060209D01*
X83251523Y-91036019D01*
X83227333Y-90987638D01*
X83227333Y-90866685D01*
X83251523Y-90818304D01*
X83275714Y-90794114D01*
X83324095Y-90769923D01*
X83445047Y-90769923D01*
X83493428Y-90794114D01*
X83517619Y-90818304D01*
X83541809Y-90866685D01*
X83541809Y-90987638D01*
X83517619Y-91036019D01*
X83493428Y-91060209D01*
X83493428Y-90552209D02*
X83517619Y-90528019D01*
X83541809Y-90552209D01*
X83517619Y-90576400D01*
X83493428Y-90552209D01*
X83541809Y-90552209D01*
X83033809Y-90092590D02*
X83033809Y-90189352D01*
X83058000Y-90237733D01*
X83082190Y-90261923D01*
X83154761Y-90310304D01*
X83251523Y-90334495D01*
X83445047Y-90334495D01*
X83493428Y-90310304D01*
X83517619Y-90286114D01*
X83541809Y-90237733D01*
X83541809Y-90140971D01*
X83517619Y-90092590D01*
X83493428Y-90068400D01*
X83445047Y-90044209D01*
X83324095Y-90044209D01*
X83275714Y-90068400D01*
X83251523Y-90092590D01*
X83227333Y-90140971D01*
X83227333Y-90237733D01*
X83251523Y-90286114D01*
X83275714Y-90310304D01*
X83324095Y-90334495D01*
X83203142Y-89608780D02*
X83541809Y-89608780D01*
X83203142Y-89826495D02*
X83469238Y-89826495D01*
X83517619Y-89802304D01*
X83541809Y-89753923D01*
X83541809Y-89681352D01*
X83517619Y-89632971D01*
X83493428Y-89608780D01*
G04 #@! TO.C,R3*
X65380668Y-83160947D02*
X65265893Y-83241290D01*
X65380668Y-83298678D02*
X65139639Y-83298678D01*
X65139639Y-83206857D01*
X65151117Y-83183902D01*
X65162595Y-83172425D01*
X65185550Y-83160947D01*
X65219982Y-83160947D01*
X65242938Y-83172425D01*
X65254415Y-83183902D01*
X65265893Y-83206857D01*
X65265893Y-83298678D01*
X65139639Y-83080604D02*
X65139639Y-82931396D01*
X65231460Y-83011739D01*
X65231460Y-82977306D01*
X65242938Y-82954351D01*
X65254415Y-82942873D01*
X65277370Y-82931396D01*
X65334758Y-82931396D01*
X65357713Y-82942873D01*
X65369191Y-82954351D01*
X65380668Y-82977306D01*
X65380668Y-83046171D01*
X65369191Y-83069126D01*
X65357713Y-83080604D01*
X63613320Y-83497609D02*
X63773969Y-83497609D01*
X63521521Y-83554984D02*
X63693645Y-83612358D01*
X63693645Y-83463184D01*
X63751019Y-83371385D02*
X63762494Y-83359910D01*
X63773969Y-83371385D01*
X63762494Y-83382860D01*
X63751019Y-83371385D01*
X63773969Y-83371385D01*
X63532996Y-83279586D02*
X63532996Y-83118937D01*
X63773969Y-83222211D01*
X63773969Y-83027138D02*
X63532996Y-83027138D01*
X63682170Y-83004188D02*
X63773969Y-82935339D01*
X63613320Y-82935339D02*
X63705120Y-83027138D01*
G04 #@! TO.C,U1*
X76798106Y-71681651D02*
X76798106Y-72503488D01*
X76846450Y-72600175D01*
X76894793Y-72648518D01*
X76991480Y-72696861D01*
X77184853Y-72696861D01*
X77281540Y-72648518D01*
X77329883Y-72600175D01*
X77378226Y-72503488D01*
X77378226Y-71681651D01*
X78393436Y-72696861D02*
X77813316Y-72696861D01*
X78103376Y-72696861D02*
X78103376Y-71681651D01*
X78006690Y-71826681D01*
X77910003Y-71923368D01*
X77813316Y-71971711D01*
X69828228Y-75851657D02*
X69852419Y-75875847D01*
X69876609Y-75948419D01*
X69876609Y-75996800D01*
X69852419Y-76069371D01*
X69804038Y-76117752D01*
X69755657Y-76141942D01*
X69658895Y-76166133D01*
X69586323Y-76166133D01*
X69489561Y-76141942D01*
X69441180Y-76117752D01*
X69392800Y-76069371D01*
X69368609Y-75996800D01*
X69368609Y-75948419D01*
X69392800Y-75875847D01*
X69416990Y-75851657D01*
X69828228Y-75343657D02*
X69852419Y-75367847D01*
X69876609Y-75440419D01*
X69876609Y-75488800D01*
X69852419Y-75561371D01*
X69804038Y-75609752D01*
X69755657Y-75633942D01*
X69658895Y-75658133D01*
X69586323Y-75658133D01*
X69489561Y-75633942D01*
X69441180Y-75609752D01*
X69392800Y-75561371D01*
X69368609Y-75488800D01*
X69368609Y-75440419D01*
X69392800Y-75367847D01*
X69416990Y-75343657D01*
X69852419Y-75150133D02*
X69876609Y-75077561D01*
X69876609Y-74956609D01*
X69852419Y-74908228D01*
X69828228Y-74884038D01*
X69779847Y-74859847D01*
X69731466Y-74859847D01*
X69683085Y-74884038D01*
X69658895Y-74908228D01*
X69634704Y-74956609D01*
X69610514Y-75053371D01*
X69586323Y-75101752D01*
X69562133Y-75125942D01*
X69513752Y-75150133D01*
X69465371Y-75150133D01*
X69416990Y-75125942D01*
X69392800Y-75101752D01*
X69368609Y-75053371D01*
X69368609Y-74932419D01*
X69392800Y-74859847D01*
X69368609Y-74545371D02*
X69368609Y-74448609D01*
X69392800Y-74400228D01*
X69441180Y-74351847D01*
X69537942Y-74327657D01*
X69707276Y-74327657D01*
X69804038Y-74351847D01*
X69852419Y-74400228D01*
X69876609Y-74448609D01*
X69876609Y-74545371D01*
X69852419Y-74593752D01*
X69804038Y-74642133D01*
X69707276Y-74666323D01*
X69537942Y-74666323D01*
X69441180Y-74642133D01*
X69392800Y-74593752D01*
X69368609Y-74545371D01*
X69683085Y-74109942D02*
X69683085Y-73722895D01*
X69876609Y-73456800D02*
X69876609Y-73360038D01*
X69852419Y-73311657D01*
X69828228Y-73287466D01*
X69755657Y-73239085D01*
X69658895Y-73214895D01*
X69465371Y-73214895D01*
X69416990Y-73239085D01*
X69392800Y-73263276D01*
X69368609Y-73311657D01*
X69368609Y-73408419D01*
X69392800Y-73456800D01*
X69416990Y-73480990D01*
X69465371Y-73505180D01*
X69586323Y-73505180D01*
X69634704Y-73480990D01*
X69658895Y-73456800D01*
X69683085Y-73408419D01*
X69683085Y-73311657D01*
X69658895Y-73263276D01*
X69634704Y-73239085D01*
X69586323Y-73214895D01*
X69876609Y-72731085D02*
X69876609Y-73021371D01*
X69876609Y-72876228D02*
X69368609Y-72876228D01*
X69441180Y-72924609D01*
X69489561Y-72972990D01*
X69513752Y-73021371D01*
X69537942Y-72295657D02*
X69876609Y-72295657D01*
X69344419Y-72416609D02*
X69707276Y-72537561D01*
X69707276Y-72223085D01*
X69368609Y-72077942D02*
X69876609Y-71739276D01*
X69368609Y-71739276D02*
X69876609Y-72077942D01*
X69368609Y-71594133D02*
X69368609Y-71279657D01*
X69562133Y-71448990D01*
X69562133Y-71376419D01*
X69586323Y-71328038D01*
X69610514Y-71303847D01*
X69658895Y-71279657D01*
X69779847Y-71279657D01*
X69828228Y-71303847D01*
X69852419Y-71328038D01*
X69876609Y-71376419D01*
X69876609Y-71521561D01*
X69852419Y-71569942D01*
X69828228Y-71594133D01*
X69683085Y-71061942D02*
X69683085Y-70674895D01*
X69876609Y-70166895D02*
X69876609Y-70457180D01*
X69876609Y-70312038D02*
X69368609Y-70312038D01*
X69441180Y-70360419D01*
X69489561Y-70408800D01*
X69513752Y-70457180D01*
X69368609Y-69852419D02*
X69368609Y-69804038D01*
X69392800Y-69755657D01*
X69416990Y-69731466D01*
X69465371Y-69707276D01*
X69562133Y-69683085D01*
X69683085Y-69683085D01*
X69779847Y-69707276D01*
X69828228Y-69731466D01*
X69852419Y-69755657D01*
X69876609Y-69804038D01*
X69876609Y-69852419D01*
X69852419Y-69900800D01*
X69828228Y-69924990D01*
X69779847Y-69949180D01*
X69683085Y-69973371D01*
X69562133Y-69973371D01*
X69465371Y-69949180D01*
X69416990Y-69924990D01*
X69392800Y-69900800D01*
X69368609Y-69852419D01*
X69368609Y-69368609D02*
X69368609Y-69320228D01*
X69392800Y-69271847D01*
X69416990Y-69247657D01*
X69465371Y-69223466D01*
X69562133Y-69199276D01*
X69683085Y-69199276D01*
X69779847Y-69223466D01*
X69828228Y-69247657D01*
X69852419Y-69271847D01*
X69876609Y-69320228D01*
X69876609Y-69368609D01*
X69852419Y-69416990D01*
X69828228Y-69441180D01*
X69779847Y-69465371D01*
X69683085Y-69489561D01*
X69562133Y-69489561D01*
X69465371Y-69465371D01*
X69416990Y-69441180D01*
X69392800Y-69416990D01*
X69368609Y-69368609D01*
X69368609Y-68884800D02*
X69368609Y-68836419D01*
X69392800Y-68788038D01*
X69416990Y-68763847D01*
X69465371Y-68739657D01*
X69562133Y-68715466D01*
X69683085Y-68715466D01*
X69779847Y-68739657D01*
X69828228Y-68763847D01*
X69852419Y-68788038D01*
X69876609Y-68836419D01*
X69876609Y-68884800D01*
X69852419Y-68933180D01*
X69828228Y-68957371D01*
X69779847Y-68981561D01*
X69683085Y-69005752D01*
X69562133Y-69005752D01*
X69465371Y-68981561D01*
X69416990Y-68957371D01*
X69392800Y-68933180D01*
X69368609Y-68884800D01*
G04 #@! TO.C,U2*
X54426152Y-81154209D02*
X54426152Y-81565447D01*
X54450342Y-81613828D01*
X54474533Y-81638019D01*
X54522914Y-81662209D01*
X54619676Y-81662209D01*
X54668057Y-81638019D01*
X54692247Y-81613828D01*
X54716438Y-81565447D01*
X54716438Y-81154209D01*
X54934152Y-81202590D02*
X54958342Y-81178400D01*
X55006723Y-81154209D01*
X55127676Y-81154209D01*
X55176057Y-81178400D01*
X55200247Y-81202590D01*
X55224438Y-81250971D01*
X55224438Y-81299352D01*
X55200247Y-81371923D01*
X54909961Y-81662209D01*
X55224438Y-81662209D01*
X52503009Y-75667809D02*
X52503009Y-75159809D01*
X52672342Y-75522666D01*
X52841676Y-75159809D01*
X52841676Y-75667809D01*
X53059390Y-75522666D02*
X53301295Y-75522666D01*
X53011009Y-75667809D02*
X53180342Y-75159809D01*
X53349676Y-75667809D01*
X53494819Y-75522666D02*
X53736723Y-75522666D01*
X53446438Y-75667809D02*
X53615771Y-75159809D01*
X53785104Y-75667809D01*
X53954438Y-75667809D02*
X53954438Y-75159809D01*
X54075390Y-75159809D01*
X54147961Y-75184000D01*
X54196342Y-75232380D01*
X54220533Y-75280761D01*
X54244723Y-75377523D01*
X54244723Y-75450095D01*
X54220533Y-75546857D01*
X54196342Y-75595238D01*
X54147961Y-75643619D01*
X54075390Y-75667809D01*
X53954438Y-75667809D01*
X54438247Y-75643619D02*
X54510819Y-75667809D01*
X54631771Y-75667809D01*
X54680152Y-75643619D01*
X54704342Y-75619428D01*
X54728533Y-75571047D01*
X54728533Y-75522666D01*
X54704342Y-75474285D01*
X54680152Y-75450095D01*
X54631771Y-75425904D01*
X54535009Y-75401714D01*
X54486628Y-75377523D01*
X54462438Y-75353333D01*
X54438247Y-75304952D01*
X54438247Y-75256571D01*
X54462438Y-75208190D01*
X54486628Y-75184000D01*
X54535009Y-75159809D01*
X54655961Y-75159809D01*
X54728533Y-75184000D01*
X54922057Y-75643619D02*
X54994628Y-75667809D01*
X55115580Y-75667809D01*
X55163961Y-75643619D01*
X55188152Y-75619428D01*
X55212342Y-75571047D01*
X55212342Y-75522666D01*
X55188152Y-75474285D01*
X55163961Y-75450095D01*
X55115580Y-75425904D01*
X55018819Y-75401714D01*
X54970438Y-75377523D01*
X54946247Y-75353333D01*
X54922057Y-75304952D01*
X54922057Y-75256571D01*
X54946247Y-75208190D01*
X54970438Y-75184000D01*
X55018819Y-75159809D01*
X55139771Y-75159809D01*
X55212342Y-75184000D01*
X55526819Y-75159809D02*
X55575200Y-75159809D01*
X55623580Y-75184000D01*
X55647771Y-75208190D01*
X55671961Y-75256571D01*
X55696152Y-75353333D01*
X55696152Y-75474285D01*
X55671961Y-75571047D01*
X55647771Y-75619428D01*
X55623580Y-75643619D01*
X55575200Y-75667809D01*
X55526819Y-75667809D01*
X55478438Y-75643619D01*
X55454247Y-75619428D01*
X55430057Y-75571047D01*
X55405866Y-75474285D01*
X55405866Y-75353333D01*
X55430057Y-75256571D01*
X55454247Y-75208190D01*
X55478438Y-75184000D01*
X55526819Y-75159809D01*
X56010628Y-75159809D02*
X56059009Y-75159809D01*
X56107390Y-75184000D01*
X56131580Y-75208190D01*
X56155771Y-75256571D01*
X56179961Y-75353333D01*
X56179961Y-75474285D01*
X56155771Y-75571047D01*
X56131580Y-75619428D01*
X56107390Y-75643619D01*
X56059009Y-75667809D01*
X56010628Y-75667809D01*
X55962247Y-75643619D01*
X55938057Y-75619428D01*
X55913866Y-75571047D01*
X55889676Y-75474285D01*
X55889676Y-75353333D01*
X55913866Y-75256571D01*
X55938057Y-75208190D01*
X55962247Y-75184000D01*
X56010628Y-75159809D01*
X56494438Y-75159809D02*
X56542819Y-75159809D01*
X56591200Y-75184000D01*
X56615390Y-75208190D01*
X56639580Y-75256571D01*
X56663771Y-75353333D01*
X56663771Y-75474285D01*
X56639580Y-75571047D01*
X56615390Y-75619428D01*
X56591200Y-75643619D01*
X56542819Y-75667809D01*
X56494438Y-75667809D01*
X56446057Y-75643619D01*
X56421866Y-75619428D01*
X56397676Y-75571047D01*
X56373485Y-75474285D01*
X56373485Y-75353333D01*
X56397676Y-75256571D01*
X56421866Y-75208190D01*
X56446057Y-75184000D01*
X56494438Y-75159809D01*
X56954057Y-75377523D02*
X56905676Y-75353333D01*
X56881485Y-75329142D01*
X56857295Y-75280761D01*
X56857295Y-75256571D01*
X56881485Y-75208190D01*
X56905676Y-75184000D01*
X56954057Y-75159809D01*
X57050819Y-75159809D01*
X57099200Y-75184000D01*
X57123390Y-75208190D01*
X57147580Y-75256571D01*
X57147580Y-75280761D01*
X57123390Y-75329142D01*
X57099200Y-75353333D01*
X57050819Y-75377523D01*
X56954057Y-75377523D01*
X56905676Y-75401714D01*
X56881485Y-75425904D01*
X56857295Y-75474285D01*
X56857295Y-75571047D01*
X56881485Y-75619428D01*
X56905676Y-75643619D01*
X56954057Y-75667809D01*
X57050819Y-75667809D01*
X57099200Y-75643619D01*
X57123390Y-75619428D01*
X57147580Y-75571047D01*
X57147580Y-75474285D01*
X57123390Y-75425904D01*
X57099200Y-75401714D01*
X57050819Y-75377523D01*
G04 #@! TO.C,U3*
X94083172Y-83701829D02*
X94083172Y-84113067D01*
X94107362Y-84161448D01*
X94131553Y-84185639D01*
X94179934Y-84209829D01*
X94276696Y-84209829D01*
X94325077Y-84185639D01*
X94349267Y-84161448D01*
X94373458Y-84113067D01*
X94373458Y-83701829D01*
X94566981Y-83701829D02*
X94881458Y-83701829D01*
X94712124Y-83895353D01*
X94784696Y-83895353D01*
X94833077Y-83919543D01*
X94857267Y-83943734D01*
X94881458Y-83992115D01*
X94881458Y-84113067D01*
X94857267Y-84161448D01*
X94833077Y-84185639D01*
X94784696Y-84209829D01*
X94639553Y-84209829D01*
X94591172Y-84185639D01*
X94566981Y-84161448D01*
X91000942Y-83453514D02*
X90638085Y-83453514D01*
X90638085Y-82691514D01*
X91146085Y-82691514D02*
X91581514Y-82691514D01*
X91363800Y-83453514D02*
X91363800Y-82691514D01*
X92198371Y-82691514D02*
X91835514Y-82691514D01*
X91799228Y-83054371D01*
X91835514Y-83018085D01*
X91908085Y-82981800D01*
X92089514Y-82981800D01*
X92162085Y-83018085D01*
X92198371Y-83054371D01*
X92234657Y-83126942D01*
X92234657Y-83308371D01*
X92198371Y-83380942D01*
X92162085Y-83417228D01*
X92089514Y-83453514D01*
X91908085Y-83453514D01*
X91835514Y-83417228D01*
X91799228Y-83380942D01*
X92924085Y-82691514D02*
X92561228Y-82691514D01*
X92524942Y-83054371D01*
X92561228Y-83018085D01*
X92633800Y-82981800D01*
X92815228Y-82981800D01*
X92887800Y-83018085D01*
X92924085Y-83054371D01*
X92960371Y-83126942D01*
X92960371Y-83308371D01*
X92924085Y-83380942D01*
X92887800Y-83417228D01*
X92815228Y-83453514D01*
X92633800Y-83453514D01*
X92561228Y-83417228D01*
X92524942Y-83380942D01*
X93250657Y-82764085D02*
X93286942Y-82727800D01*
X93359514Y-82691514D01*
X93540942Y-82691514D01*
X93613514Y-82727800D01*
X93649800Y-82764085D01*
X93686085Y-82836657D01*
X93686085Y-82909228D01*
X93649800Y-83018085D01*
X93214371Y-83453514D01*
X93686085Y-83453514D01*
X94339228Y-82691514D02*
X94194085Y-82691514D01*
X94121514Y-82727800D01*
X94085228Y-82764085D01*
X94012657Y-82872942D01*
X93976371Y-83018085D01*
X93976371Y-83308371D01*
X94012657Y-83380942D01*
X94048942Y-83417228D01*
X94121514Y-83453514D01*
X94266657Y-83453514D01*
X94339228Y-83417228D01*
X94375514Y-83380942D01*
X94411800Y-83308371D01*
X94411800Y-83126942D01*
X94375514Y-83054371D01*
X94339228Y-83018085D01*
X94266657Y-82981800D01*
X94121514Y-82981800D01*
X94048942Y-83018085D01*
X94012657Y-83054371D01*
X93976371Y-83126942D01*
G04 #@! TO.C,U4*
X64789987Y-77474841D02*
X64789987Y-77993354D01*
X64820488Y-78054355D01*
X64850989Y-78084856D01*
X64911990Y-78115357D01*
X65033993Y-78115357D01*
X65094995Y-78084856D01*
X65125496Y-78054355D01*
X65155996Y-77993354D01*
X65155996Y-77474841D01*
X65735511Y-77688346D02*
X65735511Y-78115357D01*
X65583007Y-77444340D02*
X65430503Y-77901851D01*
X65827013Y-77901851D01*
X61937295Y-77218419D02*
X62009866Y-77242609D01*
X62130819Y-77242609D01*
X62179200Y-77218419D01*
X62203390Y-77194228D01*
X62227580Y-77145847D01*
X62227580Y-77097466D01*
X62203390Y-77049085D01*
X62179200Y-77024895D01*
X62130819Y-77000704D01*
X62034057Y-76976514D01*
X61985676Y-76952323D01*
X61961485Y-76928133D01*
X61937295Y-76879752D01*
X61937295Y-76831371D01*
X61961485Y-76782990D01*
X61985676Y-76758800D01*
X62034057Y-76734609D01*
X62155009Y-76734609D01*
X62227580Y-76758800D01*
X62445295Y-77242609D02*
X62445295Y-76734609D01*
X62735580Y-77242609D02*
X62517866Y-76952323D01*
X62735580Y-76734609D02*
X62445295Y-77024895D01*
X63050057Y-77000704D02*
X63050057Y-77242609D01*
X62880723Y-76734609D02*
X63050057Y-77000704D01*
X63219390Y-76734609D01*
X63606438Y-76734609D02*
X63509676Y-76734609D01*
X63461295Y-76758800D01*
X63437104Y-76782990D01*
X63388723Y-76855561D01*
X63364533Y-76952323D01*
X63364533Y-77145847D01*
X63388723Y-77194228D01*
X63412914Y-77218419D01*
X63461295Y-77242609D01*
X63558057Y-77242609D01*
X63606438Y-77218419D01*
X63630628Y-77194228D01*
X63654819Y-77145847D01*
X63654819Y-77024895D01*
X63630628Y-76976514D01*
X63606438Y-76952323D01*
X63558057Y-76928133D01*
X63461295Y-76928133D01*
X63412914Y-76952323D01*
X63388723Y-76976514D01*
X63364533Y-77024895D01*
X63824152Y-76734609D02*
X64162819Y-76734609D01*
X63945104Y-77242609D01*
X64622438Y-77242609D02*
X64332152Y-77242609D01*
X64477295Y-77242609D02*
X64477295Y-76734609D01*
X64428914Y-76807180D01*
X64380533Y-76855561D01*
X64332152Y-76879752D01*
X65082057Y-76734609D02*
X64840152Y-76734609D01*
X64815961Y-76976514D01*
X64840152Y-76952323D01*
X64888533Y-76928133D01*
X65009485Y-76928133D01*
X65057866Y-76952323D01*
X65082057Y-76976514D01*
X65106247Y-77024895D01*
X65106247Y-77145847D01*
X65082057Y-77194228D01*
X65057866Y-77218419D01*
X65009485Y-77242609D01*
X64888533Y-77242609D01*
X64840152Y-77218419D01*
X64815961Y-77194228D01*
X65348152Y-77242609D02*
X65444914Y-77242609D01*
X65493295Y-77218419D01*
X65517485Y-77194228D01*
X65565866Y-77121657D01*
X65590057Y-77024895D01*
X65590057Y-76831371D01*
X65565866Y-76782990D01*
X65541676Y-76758800D01*
X65493295Y-76734609D01*
X65396533Y-76734609D01*
X65348152Y-76758800D01*
X65323961Y-76782990D01*
X65299771Y-76831371D01*
X65299771Y-76952323D01*
X65323961Y-77000704D01*
X65348152Y-77024895D01*
X65396533Y-77049085D01*
X65493295Y-77049085D01*
X65541676Y-77024895D01*
X65565866Y-77000704D01*
X65590057Y-76952323D01*
X65807771Y-77049085D02*
X66194819Y-77049085D01*
X66388342Y-76734609D02*
X66702819Y-76734609D01*
X66533485Y-76928133D01*
X66606057Y-76928133D01*
X66654438Y-76952323D01*
X66678628Y-76976514D01*
X66702819Y-77024895D01*
X66702819Y-77145847D01*
X66678628Y-77194228D01*
X66654438Y-77218419D01*
X66606057Y-77242609D01*
X66460914Y-77242609D01*
X66412533Y-77218419D01*
X66388342Y-77194228D01*
X66944723Y-77242609D02*
X67041485Y-77242609D01*
X67089866Y-77218419D01*
X67114057Y-77194228D01*
X67162438Y-77121657D01*
X67186628Y-77024895D01*
X67186628Y-76831371D01*
X67162438Y-76782990D01*
X67138247Y-76758800D01*
X67089866Y-76734609D01*
X66993104Y-76734609D01*
X66944723Y-76758800D01*
X66920533Y-76782990D01*
X66896342Y-76831371D01*
X66896342Y-76952323D01*
X66920533Y-77000704D01*
X66944723Y-77024895D01*
X66993104Y-77049085D01*
X67089866Y-77049085D01*
X67138247Y-77024895D01*
X67162438Y-77000704D01*
X67186628Y-76952323D01*
X67622057Y-76734609D02*
X67525295Y-76734609D01*
X67476914Y-76758800D01*
X67452723Y-76782990D01*
X67404342Y-76855561D01*
X67380152Y-76952323D01*
X67380152Y-77145847D01*
X67404342Y-77194228D01*
X67428533Y-77218419D01*
X67476914Y-77242609D01*
X67573676Y-77242609D01*
X67622057Y-77218419D01*
X67646247Y-77194228D01*
X67670438Y-77145847D01*
X67670438Y-77024895D01*
X67646247Y-76976514D01*
X67622057Y-76952323D01*
X67573676Y-76928133D01*
X67476914Y-76928133D01*
X67428533Y-76952323D01*
X67404342Y-76976514D01*
X67380152Y-77024895D01*
X68130057Y-77242609D02*
X67888152Y-77242609D01*
X67888152Y-76734609D01*
X68468723Y-76976514D02*
X68299390Y-76976514D01*
X68299390Y-77242609D02*
X68299390Y-76734609D01*
X68541295Y-76734609D01*
G04 #@! TO.C,U5*
X53201506Y-97234051D02*
X53201506Y-98055888D01*
X53249850Y-98152575D01*
X53298193Y-98200918D01*
X53394880Y-98249261D01*
X53588253Y-98249261D01*
X53684940Y-98200918D01*
X53733283Y-98152575D01*
X53781626Y-98055888D01*
X53781626Y-97234051D01*
X54748493Y-97234051D02*
X54265060Y-97234051D01*
X54216716Y-97717485D01*
X54265060Y-97669141D01*
X54361746Y-97620798D01*
X54603463Y-97620798D01*
X54700150Y-97669141D01*
X54748493Y-97717485D01*
X54796836Y-97814171D01*
X54796836Y-98055888D01*
X54748493Y-98152575D01*
X54700150Y-98200918D01*
X54603463Y-98249261D01*
X54361746Y-98249261D01*
X54265060Y-98200918D01*
X54216716Y-98152575D01*
X59938285Y-105060714D02*
X59900190Y-105098809D01*
X59785904Y-105136904D01*
X59709714Y-105136904D01*
X59595428Y-105098809D01*
X59519238Y-105022619D01*
X59481142Y-104946428D01*
X59443047Y-104794047D01*
X59443047Y-104679761D01*
X59481142Y-104527380D01*
X59519238Y-104451190D01*
X59595428Y-104375000D01*
X59709714Y-104336904D01*
X59785904Y-104336904D01*
X59900190Y-104375000D01*
X59938285Y-104413095D01*
X60166857Y-104336904D02*
X60433523Y-105136904D01*
X60700190Y-104336904D01*
X60928761Y-105098809D02*
X61043047Y-105136904D01*
X61233523Y-105136904D01*
X61309714Y-105098809D01*
X61347809Y-105060714D01*
X61385904Y-104984523D01*
X61385904Y-104908333D01*
X61347809Y-104832142D01*
X61309714Y-104794047D01*
X61233523Y-104755952D01*
X61081142Y-104717857D01*
X61004952Y-104679761D01*
X60966857Y-104641666D01*
X60928761Y-104565476D01*
X60928761Y-104489285D01*
X60966857Y-104413095D01*
X61004952Y-104375000D01*
X61081142Y-104336904D01*
X61271619Y-104336904D01*
X61385904Y-104375000D01*
X61690666Y-105098809D02*
X61804952Y-105136904D01*
X61995428Y-105136904D01*
X62071619Y-105098809D01*
X62109714Y-105060714D01*
X62147809Y-104984523D01*
X62147809Y-104908333D01*
X62109714Y-104832142D01*
X62071619Y-104794047D01*
X61995428Y-104755952D01*
X61843047Y-104717857D01*
X61766857Y-104679761D01*
X61728761Y-104641666D01*
X61690666Y-104565476D01*
X61690666Y-104489285D01*
X61728761Y-104413095D01*
X61766857Y-104375000D01*
X61843047Y-104336904D01*
X62033523Y-104336904D01*
X62147809Y-104375000D01*
X62490666Y-104832142D02*
X63100190Y-104832142D01*
X63519238Y-105136904D02*
X63671619Y-105136904D01*
X63747809Y-105098809D01*
X63785904Y-105060714D01*
X63862095Y-104946428D01*
X63900190Y-104794047D01*
X63900190Y-104489285D01*
X63862095Y-104413095D01*
X63824000Y-104375000D01*
X63747809Y-104336904D01*
X63595428Y-104336904D01*
X63519238Y-104375000D01*
X63481142Y-104413095D01*
X63443047Y-104489285D01*
X63443047Y-104679761D01*
X63481142Y-104755952D01*
X63519238Y-104794047D01*
X63595428Y-104832142D01*
X63747809Y-104832142D01*
X63824000Y-104794047D01*
X63862095Y-104755952D01*
X63900190Y-104679761D01*
X64585904Y-104603571D02*
X64585904Y-105136904D01*
X64395428Y-104298809D02*
X64204952Y-104870238D01*
X64700190Y-104870238D01*
X65385904Y-104336904D02*
X65004952Y-104336904D01*
X64966857Y-104717857D01*
X65004952Y-104679761D01*
X65081142Y-104641666D01*
X65271619Y-104641666D01*
X65347809Y-104679761D01*
X65385904Y-104717857D01*
X65424000Y-104794047D01*
X65424000Y-104984523D01*
X65385904Y-105060714D01*
X65347809Y-105098809D01*
X65271619Y-105136904D01*
X65081142Y-105136904D01*
X65004952Y-105098809D01*
X64966857Y-105060714D01*
X65766857Y-104832142D02*
X66376380Y-104832142D01*
X66871619Y-104679761D02*
X66795428Y-104641666D01*
X66757333Y-104603571D01*
X66719238Y-104527380D01*
X66719238Y-104489285D01*
X66757333Y-104413095D01*
X66795428Y-104375000D01*
X66871619Y-104336904D01*
X67024000Y-104336904D01*
X67100190Y-104375000D01*
X67138285Y-104413095D01*
X67176380Y-104489285D01*
X67176380Y-104527380D01*
X67138285Y-104603571D01*
X67100190Y-104641666D01*
X67024000Y-104679761D01*
X66871619Y-104679761D01*
X66795428Y-104717857D01*
X66757333Y-104755952D01*
X66719238Y-104832142D01*
X66719238Y-104984523D01*
X66757333Y-105060714D01*
X66795428Y-105098809D01*
X66871619Y-105136904D01*
X67024000Y-105136904D01*
X67100190Y-105098809D01*
X67138285Y-105060714D01*
X67176380Y-104984523D01*
X67176380Y-104832142D01*
X67138285Y-104755952D01*
X67100190Y-104717857D01*
X67024000Y-104679761D01*
X67671619Y-104336904D02*
X67747809Y-104336904D01*
X67824000Y-104375000D01*
X67862095Y-104413095D01*
X67900190Y-104489285D01*
X67938285Y-104641666D01*
X67938285Y-104832142D01*
X67900190Y-104984523D01*
X67862095Y-105060714D01*
X67824000Y-105098809D01*
X67747809Y-105136904D01*
X67671619Y-105136904D01*
X67595428Y-105098809D01*
X67557333Y-105060714D01*
X67519238Y-104984523D01*
X67481142Y-104832142D01*
X67481142Y-104641666D01*
X67519238Y-104489285D01*
X67557333Y-104413095D01*
X67595428Y-104375000D01*
X67671619Y-104336904D01*
X68281142Y-105060714D02*
X68319238Y-105098809D01*
X68281142Y-105136904D01*
X68243047Y-105098809D01*
X68281142Y-105060714D01*
X68281142Y-105136904D01*
X68814476Y-104336904D02*
X68890666Y-104336904D01*
X68966857Y-104375000D01*
X69004952Y-104413095D01*
X69043047Y-104489285D01*
X69081142Y-104641666D01*
X69081142Y-104832142D01*
X69043047Y-104984523D01*
X69004952Y-105060714D01*
X68966857Y-105098809D01*
X68890666Y-105136904D01*
X68814476Y-105136904D01*
X68738285Y-105098809D01*
X68700190Y-105060714D01*
X68662095Y-104984523D01*
X68624000Y-104832142D01*
X68624000Y-104641666D01*
X68662095Y-104489285D01*
X68700190Y-104413095D01*
X68738285Y-104375000D01*
X68814476Y-104336904D01*
X69576380Y-104336904D02*
X69652571Y-104336904D01*
X69728761Y-104375000D01*
X69766857Y-104413095D01*
X69804952Y-104489285D01*
X69843047Y-104641666D01*
X69843047Y-104832142D01*
X69804952Y-104984523D01*
X69766857Y-105060714D01*
X69728761Y-105098809D01*
X69652571Y-105136904D01*
X69576380Y-105136904D01*
X69500190Y-105098809D01*
X69462095Y-105060714D01*
X69424000Y-104984523D01*
X69385904Y-104832142D01*
X69385904Y-104641666D01*
X69424000Y-104489285D01*
X69462095Y-104413095D01*
X69500190Y-104375000D01*
X69576380Y-104336904D01*
X70338285Y-104336904D02*
X70414476Y-104336904D01*
X70490666Y-104375000D01*
X70528761Y-104413095D01*
X70566857Y-104489285D01*
X70604952Y-104641666D01*
X70604952Y-104832142D01*
X70566857Y-104984523D01*
X70528761Y-105060714D01*
X70490666Y-105098809D01*
X70414476Y-105136904D01*
X70338285Y-105136904D01*
X70262095Y-105098809D01*
X70224000Y-105060714D01*
X70185904Y-104984523D01*
X70147809Y-104832142D01*
X70147809Y-104641666D01*
X70185904Y-104489285D01*
X70224000Y-104413095D01*
X70262095Y-104375000D01*
X70338285Y-104336904D01*
G04 #@! TO.C,U6*
X102265200Y-85781268D02*
X102783773Y-85781268D01*
X102844782Y-85750764D01*
X102875286Y-85720260D01*
X102905790Y-85659251D01*
X102905790Y-85537234D01*
X102875286Y-85476225D01*
X102844782Y-85445721D01*
X102783773Y-85415217D01*
X102265200Y-85415217D01*
X102265200Y-84835635D02*
X102265200Y-84957652D01*
X102295705Y-85018661D01*
X102326209Y-85049165D01*
X102417722Y-85110174D01*
X102539739Y-85140678D01*
X102783773Y-85140678D01*
X102844782Y-85110174D01*
X102875286Y-85079670D01*
X102905790Y-85018661D01*
X102905790Y-84896644D01*
X102875286Y-84835635D01*
X102844782Y-84805131D01*
X102783773Y-84774627D01*
X102631252Y-84774627D01*
X102570243Y-84805131D01*
X102539739Y-84835635D01*
X102509235Y-84896644D01*
X102509235Y-85018661D01*
X102539739Y-85079670D01*
X102570243Y-85110174D01*
X102631252Y-85140678D01*
X106249409Y-87741276D02*
X105741409Y-87741276D01*
X106104266Y-87571942D01*
X105741409Y-87402609D01*
X106249409Y-87402609D01*
X105983314Y-87160704D02*
X105983314Y-86991371D01*
X106249409Y-86918800D02*
X106249409Y-87160704D01*
X105741409Y-87160704D01*
X105741409Y-86918800D01*
X106249409Y-86701085D02*
X105741409Y-86701085D01*
X106104266Y-86531752D01*
X105741409Y-86362419D01*
X106249409Y-86362419D01*
X105789790Y-86144704D02*
X105765600Y-86120514D01*
X105741409Y-86072133D01*
X105741409Y-85951180D01*
X105765600Y-85902800D01*
X105789790Y-85878609D01*
X105838171Y-85854419D01*
X105886552Y-85854419D01*
X105959123Y-85878609D01*
X106249409Y-86168895D01*
X106249409Y-85854419D01*
X105741409Y-85539942D02*
X105741409Y-85491561D01*
X105765600Y-85443180D01*
X105789790Y-85418990D01*
X105838171Y-85394800D01*
X105934933Y-85370609D01*
X106055885Y-85370609D01*
X106152647Y-85394800D01*
X106201028Y-85418990D01*
X106225219Y-85443180D01*
X106249409Y-85491561D01*
X106249409Y-85539942D01*
X106225219Y-85588323D01*
X106201028Y-85612514D01*
X106152647Y-85636704D01*
X106055885Y-85660895D01*
X105934933Y-85660895D01*
X105838171Y-85636704D01*
X105789790Y-85612514D01*
X105765600Y-85588323D01*
X105741409Y-85539942D01*
X106249409Y-84886800D02*
X106249409Y-85177085D01*
X106249409Y-85031942D02*
X105741409Y-85031942D01*
X105813980Y-85080323D01*
X105862361Y-85128704D01*
X105886552Y-85177085D01*
X105789790Y-84693276D02*
X105765600Y-84669085D01*
X105741409Y-84620704D01*
X105741409Y-84499752D01*
X105765600Y-84451371D01*
X105789790Y-84427180D01*
X105838171Y-84402990D01*
X105886552Y-84402990D01*
X105959123Y-84427180D01*
X106249409Y-84717466D01*
X106249409Y-84402990D01*
X105741409Y-84257847D02*
X106249409Y-84088514D01*
X105741409Y-83919180D01*
X106249409Y-83483752D02*
X106249409Y-83774038D01*
X106249409Y-83628895D02*
X105741409Y-83628895D01*
X105813980Y-83677276D01*
X105862361Y-83725657D01*
X105886552Y-83774038D01*
X105789790Y-83290228D02*
X105765600Y-83266038D01*
X105741409Y-83217657D01*
X105741409Y-83096704D01*
X105765600Y-83048323D01*
X105789790Y-83024133D01*
X105838171Y-82999942D01*
X105886552Y-82999942D01*
X105959123Y-83024133D01*
X106249409Y-83314419D01*
X106249409Y-82999942D01*
X106249409Y-82516133D02*
X106249409Y-82806419D01*
X106249409Y-82661276D02*
X105741409Y-82661276D01*
X105813980Y-82709657D01*
X105862361Y-82758038D01*
X105886552Y-82806419D01*
X106249409Y-82008133D02*
X106007504Y-82177466D01*
X106249409Y-82298419D02*
X105741409Y-82298419D01*
X105741409Y-82104895D01*
X105765600Y-82056514D01*
X105789790Y-82032323D01*
X105838171Y-82008133D01*
X105910742Y-82008133D01*
X105959123Y-82032323D01*
X105983314Y-82056514D01*
X106007504Y-82104895D01*
X106007504Y-82298419D01*
G04 #@! TO.C,U8*
X77387752Y-78004609D02*
X77387752Y-78415847D01*
X77411942Y-78464228D01*
X77436133Y-78488419D01*
X77484514Y-78512609D01*
X77581276Y-78512609D01*
X77629657Y-78488419D01*
X77653847Y-78464228D01*
X77678038Y-78415847D01*
X77678038Y-78004609D01*
X77992514Y-78222323D02*
X77944133Y-78198133D01*
X77919942Y-78173942D01*
X77895752Y-78125561D01*
X77895752Y-78101371D01*
X77919942Y-78052990D01*
X77944133Y-78028800D01*
X77992514Y-78004609D01*
X78089276Y-78004609D01*
X78137657Y-78028800D01*
X78161847Y-78052990D01*
X78186038Y-78101371D01*
X78186038Y-78125561D01*
X78161847Y-78173942D01*
X78137657Y-78198133D01*
X78089276Y-78222323D01*
X77992514Y-78222323D01*
X77944133Y-78246514D01*
X77919942Y-78270704D01*
X77895752Y-78319085D01*
X77895752Y-78415847D01*
X77919942Y-78464228D01*
X77944133Y-78488419D01*
X77992514Y-78512609D01*
X78089276Y-78512609D01*
X78137657Y-78488419D01*
X78161847Y-78464228D01*
X78186038Y-78415847D01*
X78186038Y-78319085D01*
X78161847Y-78270704D01*
X78137657Y-78246514D01*
X78089276Y-78222323D01*
X76167342Y-81987571D02*
X76276200Y-82023857D01*
X76312485Y-82060142D01*
X76348771Y-82132714D01*
X76348771Y-82241571D01*
X76312485Y-82314142D01*
X76276200Y-82350428D01*
X76203628Y-82386714D01*
X75913342Y-82386714D01*
X75913342Y-81624714D01*
X76167342Y-81624714D01*
X76239914Y-81661000D01*
X76276200Y-81697285D01*
X76312485Y-81769857D01*
X76312485Y-81842428D01*
X76276200Y-81915000D01*
X76239914Y-81951285D01*
X76167342Y-81987571D01*
X75913342Y-81987571D01*
X76602771Y-81624714D02*
X77074485Y-81624714D01*
X76820485Y-81915000D01*
X76929342Y-81915000D01*
X77001914Y-81951285D01*
X77038200Y-81987571D01*
X77074485Y-82060142D01*
X77074485Y-82241571D01*
X77038200Y-82314142D01*
X77001914Y-82350428D01*
X76929342Y-82386714D01*
X76711628Y-82386714D01*
X76639057Y-82350428D01*
X76602771Y-82314142D01*
X77437342Y-82386714D02*
X77582485Y-82386714D01*
X77655057Y-82350428D01*
X77691342Y-82314142D01*
X77763914Y-82205285D01*
X77800200Y-82060142D01*
X77800200Y-81769857D01*
X77763914Y-81697285D01*
X77727628Y-81661000D01*
X77655057Y-81624714D01*
X77509914Y-81624714D01*
X77437342Y-81661000D01*
X77401057Y-81697285D01*
X77364771Y-81769857D01*
X77364771Y-81951285D01*
X77401057Y-82023857D01*
X77437342Y-82060142D01*
X77509914Y-82096428D01*
X77655057Y-82096428D01*
X77727628Y-82060142D01*
X77763914Y-82023857D01*
X77800200Y-81951285D01*
X78163057Y-82386714D02*
X78308200Y-82386714D01*
X78380771Y-82350428D01*
X78417057Y-82314142D01*
X78489628Y-82205285D01*
X78525914Y-82060142D01*
X78525914Y-81769857D01*
X78489628Y-81697285D01*
X78453342Y-81661000D01*
X78380771Y-81624714D01*
X78235628Y-81624714D01*
X78163057Y-81661000D01*
X78126771Y-81697285D01*
X78090485Y-81769857D01*
X78090485Y-81951285D01*
X78126771Y-82023857D01*
X78163057Y-82060142D01*
X78235628Y-82096428D01*
X78380771Y-82096428D01*
X78453342Y-82060142D01*
X78489628Y-82023857D01*
X78525914Y-81951285D01*
X78816200Y-81697285D02*
X78852485Y-81661000D01*
X78925057Y-81624714D01*
X79106485Y-81624714D01*
X79179057Y-81661000D01*
X79215342Y-81697285D01*
X79251628Y-81769857D01*
X79251628Y-81842428D01*
X79215342Y-81951285D01*
X78779914Y-82386714D01*
X79251628Y-82386714D01*
X79977342Y-82386714D02*
X79541914Y-82386714D01*
X79759628Y-82386714D02*
X79759628Y-81624714D01*
X79687057Y-81733571D01*
X79614485Y-81806142D01*
X79541914Y-81842428D01*
G04 #@! TO.C,U10*
X92030247Y-86691409D02*
X92030247Y-87102647D01*
X92054438Y-87151028D01*
X92078628Y-87175219D01*
X92127009Y-87199409D01*
X92223771Y-87199409D01*
X92272152Y-87175219D01*
X92296342Y-87151028D01*
X92320533Y-87102647D01*
X92320533Y-86691409D01*
X92828533Y-87199409D02*
X92538247Y-87199409D01*
X92683390Y-87199409D02*
X92683390Y-86691409D01*
X92635009Y-86763980D01*
X92586628Y-86812361D01*
X92538247Y-86836552D01*
X93143009Y-86691409D02*
X93191390Y-86691409D01*
X93239771Y-86715600D01*
X93263961Y-86739790D01*
X93288152Y-86788171D01*
X93312342Y-86884933D01*
X93312342Y-87005885D01*
X93288152Y-87102647D01*
X93263961Y-87151028D01*
X93239771Y-87175219D01*
X93191390Y-87199409D01*
X93143009Y-87199409D01*
X93094628Y-87175219D01*
X93070438Y-87151028D01*
X93046247Y-87102647D01*
X93022057Y-87005885D01*
X93022057Y-86884933D01*
X93046247Y-86788171D01*
X93070438Y-86739790D01*
X93094628Y-86715600D01*
X93143009Y-86691409D01*
X91254942Y-88228714D02*
X90892085Y-88228714D01*
X90892085Y-87466714D01*
X91400085Y-87466714D02*
X91835514Y-87466714D01*
X91617800Y-88228714D02*
X91617800Y-87466714D01*
X92452371Y-87466714D02*
X92089514Y-87466714D01*
X92053228Y-87829571D01*
X92089514Y-87793285D01*
X92162085Y-87757000D01*
X92343514Y-87757000D01*
X92416085Y-87793285D01*
X92452371Y-87829571D01*
X92488657Y-87902142D01*
X92488657Y-88083571D01*
X92452371Y-88156142D01*
X92416085Y-88192428D01*
X92343514Y-88228714D01*
X92162085Y-88228714D01*
X92089514Y-88192428D01*
X92053228Y-88156142D01*
X93178085Y-87466714D02*
X92815228Y-87466714D01*
X92778942Y-87829571D01*
X92815228Y-87793285D01*
X92887800Y-87757000D01*
X93069228Y-87757000D01*
X93141800Y-87793285D01*
X93178085Y-87829571D01*
X93214371Y-87902142D01*
X93214371Y-88083571D01*
X93178085Y-88156142D01*
X93141800Y-88192428D01*
X93069228Y-88228714D01*
X92887800Y-88228714D01*
X92815228Y-88192428D01*
X92778942Y-88156142D01*
X93504657Y-87539285D02*
X93540942Y-87503000D01*
X93613514Y-87466714D01*
X93794942Y-87466714D01*
X93867514Y-87503000D01*
X93903800Y-87539285D01*
X93940085Y-87611857D01*
X93940085Y-87684428D01*
X93903800Y-87793285D01*
X93468371Y-88228714D01*
X93940085Y-88228714D01*
X94593228Y-87466714D02*
X94448085Y-87466714D01*
X94375514Y-87503000D01*
X94339228Y-87539285D01*
X94266657Y-87648142D01*
X94230371Y-87793285D01*
X94230371Y-88083571D01*
X94266657Y-88156142D01*
X94302942Y-88192428D01*
X94375514Y-88228714D01*
X94520657Y-88228714D01*
X94593228Y-88192428D01*
X94629514Y-88156142D01*
X94665800Y-88083571D01*
X94665800Y-87902142D01*
X94629514Y-87829571D01*
X94593228Y-87793285D01*
X94520657Y-87757000D01*
X94375514Y-87757000D01*
X94302942Y-87793285D01*
X94266657Y-87829571D01*
X94230371Y-87902142D01*
G04 #@! TO.C,U11*
X76932971Y-86145914D02*
X76932971Y-86762771D01*
X76969257Y-86835342D01*
X77005542Y-86871628D01*
X77078114Y-86907914D01*
X77223257Y-86907914D01*
X77295828Y-86871628D01*
X77332114Y-86835342D01*
X77368400Y-86762771D01*
X77368400Y-86145914D01*
X78130400Y-86907914D02*
X77694971Y-86907914D01*
X77912685Y-86907914D02*
X77912685Y-86145914D01*
X77840114Y-86254771D01*
X77767542Y-86327342D01*
X77694971Y-86363628D01*
X78856114Y-86907914D02*
X78420685Y-86907914D01*
X78638400Y-86907914D02*
X78638400Y-86145914D01*
X78565828Y-86254771D01*
X78493257Y-86327342D01*
X78420685Y-86363628D01*
X76608819Y-84341304D02*
X76487866Y-84341304D01*
X76487866Y-84087304D01*
X76693485Y-84341304D02*
X76693485Y-84087304D01*
X76790247Y-84087304D01*
X76814438Y-84099400D01*
X76826533Y-84111495D01*
X76838628Y-84135685D01*
X76838628Y-84171971D01*
X76826533Y-84196161D01*
X76814438Y-84208257D01*
X76790247Y-84220352D01*
X76693485Y-84220352D01*
X76923295Y-84087304D02*
X77080533Y-84087304D01*
X76995866Y-84184066D01*
X77032152Y-84184066D01*
X77056342Y-84196161D01*
X77068438Y-84208257D01*
X77080533Y-84232447D01*
X77080533Y-84292923D01*
X77068438Y-84317114D01*
X77056342Y-84329209D01*
X77032152Y-84341304D01*
X76959580Y-84341304D01*
X76935390Y-84329209D01*
X76923295Y-84317114D01*
X77201485Y-84341304D02*
X77249866Y-84341304D01*
X77274057Y-84329209D01*
X77286152Y-84317114D01*
X77310342Y-84280828D01*
X77322438Y-84232447D01*
X77322438Y-84135685D01*
X77310342Y-84111495D01*
X77298247Y-84099400D01*
X77274057Y-84087304D01*
X77225676Y-84087304D01*
X77201485Y-84099400D01*
X77189390Y-84111495D01*
X77177295Y-84135685D01*
X77177295Y-84196161D01*
X77189390Y-84220352D01*
X77201485Y-84232447D01*
X77225676Y-84244542D01*
X77274057Y-84244542D01*
X77298247Y-84232447D01*
X77310342Y-84220352D01*
X77322438Y-84196161D01*
X77467580Y-84196161D02*
X77443390Y-84184066D01*
X77431295Y-84171971D01*
X77419200Y-84147780D01*
X77419200Y-84135685D01*
X77431295Y-84111495D01*
X77443390Y-84099400D01*
X77467580Y-84087304D01*
X77515961Y-84087304D01*
X77540152Y-84099400D01*
X77552247Y-84111495D01*
X77564342Y-84135685D01*
X77564342Y-84147780D01*
X77552247Y-84171971D01*
X77540152Y-84184066D01*
X77515961Y-84196161D01*
X77467580Y-84196161D01*
X77443390Y-84208257D01*
X77431295Y-84220352D01*
X77419200Y-84244542D01*
X77419200Y-84292923D01*
X77431295Y-84317114D01*
X77443390Y-84329209D01*
X77467580Y-84341304D01*
X77515961Y-84341304D01*
X77540152Y-84329209D01*
X77552247Y-84317114D01*
X77564342Y-84292923D01*
X77564342Y-84244542D01*
X77552247Y-84220352D01*
X77540152Y-84208257D01*
X77515961Y-84196161D01*
X77794152Y-84087304D02*
X77673200Y-84087304D01*
X77661104Y-84208257D01*
X77673200Y-84196161D01*
X77697390Y-84184066D01*
X77757866Y-84184066D01*
X77782057Y-84196161D01*
X77794152Y-84208257D01*
X77806247Y-84232447D01*
X77806247Y-84292923D01*
X77794152Y-84317114D01*
X77782057Y-84329209D01*
X77757866Y-84341304D01*
X77697390Y-84341304D01*
X77673200Y-84329209D01*
X77661104Y-84317114D01*
X77915104Y-84341304D02*
X77915104Y-84087304D01*
X78036057Y-84341304D02*
X78036057Y-84087304D01*
X78120723Y-84268733D01*
X78205390Y-84087304D01*
X78205390Y-84341304D01*
X78447295Y-84087304D02*
X78326342Y-84087304D01*
X78314247Y-84208257D01*
X78326342Y-84196161D01*
X78350533Y-84184066D01*
X78411009Y-84184066D01*
X78435200Y-84196161D01*
X78447295Y-84208257D01*
X78459390Y-84232447D01*
X78459390Y-84292923D01*
X78447295Y-84317114D01*
X78435200Y-84329209D01*
X78411009Y-84341304D01*
X78350533Y-84341304D01*
X78326342Y-84329209D01*
X78314247Y-84317114D01*
X78568247Y-84244542D02*
X78761771Y-84244542D01*
X79003676Y-84087304D02*
X78882723Y-84087304D01*
X78870628Y-84208257D01*
X78882723Y-84196161D01*
X78906914Y-84184066D01*
X78967390Y-84184066D01*
X78991580Y-84196161D01*
X79003676Y-84208257D01*
X79015771Y-84232447D01*
X79015771Y-84292923D01*
X79003676Y-84317114D01*
X78991580Y-84329209D01*
X78967390Y-84341304D01*
X78906914Y-84341304D01*
X78882723Y-84329209D01*
X78870628Y-84317114D01*
X79124628Y-84317114D02*
X79136723Y-84329209D01*
X79124628Y-84341304D01*
X79112533Y-84329209D01*
X79124628Y-84317114D01*
X79124628Y-84341304D01*
X79293961Y-84087304D02*
X79318152Y-84087304D01*
X79342342Y-84099400D01*
X79354438Y-84111495D01*
X79366533Y-84135685D01*
X79378628Y-84184066D01*
X79378628Y-84244542D01*
X79366533Y-84292923D01*
X79354438Y-84317114D01*
X79342342Y-84329209D01*
X79318152Y-84341304D01*
X79293961Y-84341304D01*
X79269771Y-84329209D01*
X79257676Y-84317114D01*
X79245580Y-84292923D01*
X79233485Y-84244542D01*
X79233485Y-84184066D01*
X79245580Y-84135685D01*
X79257676Y-84111495D01*
X79269771Y-84099400D01*
X79293961Y-84087304D01*
G04 #@! TO.C,U13*
X48266047Y-84811809D02*
X48266047Y-85223047D01*
X48290238Y-85271428D01*
X48314428Y-85295619D01*
X48362809Y-85319809D01*
X48459571Y-85319809D01*
X48507952Y-85295619D01*
X48532142Y-85271428D01*
X48556333Y-85223047D01*
X48556333Y-84811809D01*
X49064333Y-85319809D02*
X48774047Y-85319809D01*
X48919190Y-85319809D02*
X48919190Y-84811809D01*
X48870809Y-84884380D01*
X48822428Y-84932761D01*
X48774047Y-84956952D01*
X49233666Y-84811809D02*
X49548142Y-84811809D01*
X49378809Y-85005333D01*
X49451380Y-85005333D01*
X49499761Y-85029523D01*
X49523952Y-85053714D01*
X49548142Y-85102095D01*
X49548142Y-85223047D01*
X49523952Y-85271428D01*
X49499761Y-85295619D01*
X49451380Y-85319809D01*
X49306238Y-85319809D01*
X49257857Y-85295619D01*
X49233666Y-85271428D01*
X47044428Y-88621809D02*
X47334714Y-88621809D01*
X47189571Y-89129809D02*
X47189571Y-88621809D01*
X47504047Y-89129809D02*
X47504047Y-88621809D01*
X47697571Y-88621809D01*
X47745952Y-88646000D01*
X47770142Y-88670190D01*
X47794333Y-88718571D01*
X47794333Y-88791142D01*
X47770142Y-88839523D01*
X47745952Y-88863714D01*
X47697571Y-88887904D01*
X47504047Y-88887904D01*
X47987857Y-89105619D02*
X48060428Y-89129809D01*
X48181380Y-89129809D01*
X48229761Y-89105619D01*
X48253952Y-89081428D01*
X48278142Y-89033047D01*
X48278142Y-88984666D01*
X48253952Y-88936285D01*
X48229761Y-88912095D01*
X48181380Y-88887904D01*
X48084619Y-88863714D01*
X48036238Y-88839523D01*
X48012047Y-88815333D01*
X47987857Y-88766952D01*
X47987857Y-88718571D01*
X48012047Y-88670190D01*
X48036238Y-88646000D01*
X48084619Y-88621809D01*
X48205571Y-88621809D01*
X48278142Y-88646000D01*
X48447476Y-88621809D02*
X48786142Y-88621809D01*
X48568428Y-89129809D01*
X49003857Y-89129809D02*
X49100619Y-89129809D01*
X49149000Y-89105619D01*
X49173190Y-89081428D01*
X49221571Y-89008857D01*
X49245761Y-88912095D01*
X49245761Y-88718571D01*
X49221571Y-88670190D01*
X49197380Y-88646000D01*
X49149000Y-88621809D01*
X49052238Y-88621809D01*
X49003857Y-88646000D01*
X48979666Y-88670190D01*
X48955476Y-88718571D01*
X48955476Y-88839523D01*
X48979666Y-88887904D01*
X49003857Y-88912095D01*
X49052238Y-88936285D01*
X49149000Y-88936285D01*
X49197380Y-88912095D01*
X49221571Y-88887904D01*
X49245761Y-88839523D01*
X49487666Y-89129809D02*
X49584428Y-89129809D01*
X49632809Y-89105619D01*
X49657000Y-89081428D01*
X49705380Y-89008857D01*
X49729571Y-88912095D01*
X49729571Y-88718571D01*
X49705380Y-88670190D01*
X49681190Y-88646000D01*
X49632809Y-88621809D01*
X49536047Y-88621809D01*
X49487666Y-88646000D01*
X49463476Y-88670190D01*
X49439285Y-88718571D01*
X49439285Y-88839523D01*
X49463476Y-88887904D01*
X49487666Y-88912095D01*
X49536047Y-88936285D01*
X49632809Y-88936285D01*
X49681190Y-88912095D01*
X49705380Y-88887904D01*
X49729571Y-88839523D01*
X49898904Y-88621809D02*
X50213380Y-88621809D01*
X50044047Y-88815333D01*
X50116619Y-88815333D01*
X50165000Y-88839523D01*
X50189190Y-88863714D01*
X50213380Y-88912095D01*
X50213380Y-89033047D01*
X50189190Y-89081428D01*
X50165000Y-89105619D01*
X50116619Y-89129809D01*
X49971476Y-89129809D01*
X49923095Y-89105619D01*
X49898904Y-89081428D01*
X50382714Y-88621809D02*
X50697190Y-88621809D01*
X50527857Y-88815333D01*
X50600428Y-88815333D01*
X50648809Y-88839523D01*
X50673000Y-88863714D01*
X50697190Y-88912095D01*
X50697190Y-89033047D01*
X50673000Y-89081428D01*
X50648809Y-89105619D01*
X50600428Y-89129809D01*
X50455285Y-89129809D01*
X50406904Y-89105619D01*
X50382714Y-89081428D01*
G04 #@! TO.C,U14*
X46046571Y-76417714D02*
X46046571Y-77034571D01*
X46082857Y-77107142D01*
X46119142Y-77143428D01*
X46191714Y-77179714D01*
X46336857Y-77179714D01*
X46409428Y-77143428D01*
X46445714Y-77107142D01*
X46482000Y-77034571D01*
X46482000Y-76417714D01*
X47244000Y-77179714D02*
X46808571Y-77179714D01*
X47026285Y-77179714D02*
X47026285Y-76417714D01*
X46953714Y-76526571D01*
X46881142Y-76599142D01*
X46808571Y-76635428D01*
X47897142Y-76671714D02*
X47897142Y-77179714D01*
X47715714Y-76381428D02*
X47534285Y-76925714D01*
X48006000Y-76925714D01*
D11*
X45641035Y-74468392D02*
X45307398Y-73991768D01*
X45069086Y-74468392D02*
X45069086Y-73467482D01*
X45450385Y-73467482D01*
X45545710Y-73515145D01*
X45593372Y-73562807D01*
X45641035Y-73658132D01*
X45641035Y-73801119D01*
X45593372Y-73896444D01*
X45545710Y-73944106D01*
X45450385Y-73991768D01*
X45069086Y-73991768D01*
X46403633Y-73944106D02*
X46069996Y-73944106D01*
X46069996Y-74468392D02*
X46069996Y-73467482D01*
X46546620Y-73467482D01*
X46927919Y-74087093D02*
X47690517Y-74087093D01*
X48167141Y-74468392D02*
X48167141Y-73467482D01*
X48643765Y-74468392D02*
X48643765Y-73467482D01*
X49215713Y-74468392D01*
X49215713Y-73467482D01*
G04 #@! TO.C,V2*
D13*
X53800476Y-67651380D02*
X54133809Y-68651380D01*
X54467142Y-67651380D01*
X54752857Y-67746619D02*
X54800476Y-67699000D01*
X54895714Y-67651380D01*
X55133809Y-67651380D01*
X55229047Y-67699000D01*
X55276666Y-67746619D01*
X55324285Y-67841857D01*
X55324285Y-67937095D01*
X55276666Y-68079952D01*
X54705238Y-68651380D01*
X55324285Y-68651380D01*
G04 #@! TO.C,V1*
X57610476Y-67651380D02*
X57943809Y-68651380D01*
X58277142Y-67651380D01*
X59134285Y-68651380D02*
X58562857Y-68651380D01*
X58848571Y-68651380D02*
X58848571Y-67651380D01*
X58753333Y-67794238D01*
X58658095Y-67889476D01*
X58562857Y-67937095D01*
G04 #@! TO.C,Vctrl*
X42576952Y-103846380D02*
X42910285Y-104846380D01*
X43243619Y-103846380D01*
X44005523Y-104798761D02*
X43910285Y-104846380D01*
X43719809Y-104846380D01*
X43624571Y-104798761D01*
X43576952Y-104751142D01*
X43529333Y-104655904D01*
X43529333Y-104370190D01*
X43576952Y-104274952D01*
X43624571Y-104227333D01*
X43719809Y-104179714D01*
X43910285Y-104179714D01*
X44005523Y-104227333D01*
X44291238Y-104179714D02*
X44672190Y-104179714D01*
X44434095Y-103846380D02*
X44434095Y-104703523D01*
X44481714Y-104798761D01*
X44576952Y-104846380D01*
X44672190Y-104846380D01*
X45005523Y-104846380D02*
X45005523Y-104179714D01*
X45005523Y-104370190D02*
X45053142Y-104274952D01*
X45100761Y-104227333D01*
X45196000Y-104179714D01*
X45291238Y-104179714D01*
X45767428Y-104846380D02*
X45672190Y-104798761D01*
X45624571Y-104703523D01*
X45624571Y-103846380D01*
G04 #@! TO.C,Vin*
X43172190Y-94702380D02*
X43505523Y-95702380D01*
X43838857Y-94702380D01*
X44172190Y-95702380D02*
X44172190Y-95035714D01*
X44172190Y-94702380D02*
X44124571Y-94750000D01*
X44172190Y-94797619D01*
X44219809Y-94750000D01*
X44172190Y-94702380D01*
X44172190Y-94797619D01*
X44648380Y-95035714D02*
X44648380Y-95702380D01*
X44648380Y-95130952D02*
X44696000Y-95083333D01*
X44791238Y-95035714D01*
X44934095Y-95035714D01*
X45029333Y-95083333D01*
X45076952Y-95178571D01*
X45076952Y-95702380D01*
G04 #@! TO.C,GND*
X43307095Y-99322000D02*
X43211857Y-99274380D01*
X43069000Y-99274380D01*
X42926142Y-99322000D01*
X42830904Y-99417238D01*
X42783285Y-99512476D01*
X42735666Y-99702952D01*
X42735666Y-99845809D01*
X42783285Y-100036285D01*
X42830904Y-100131523D01*
X42926142Y-100226761D01*
X43069000Y-100274380D01*
X43164238Y-100274380D01*
X43307095Y-100226761D01*
X43354714Y-100179142D01*
X43354714Y-99845809D01*
X43164238Y-99845809D01*
X43783285Y-100274380D02*
X43783285Y-99274380D01*
X44354714Y-100274380D01*
X44354714Y-99274380D01*
X44830904Y-100274380D02*
X44830904Y-99274380D01*
X45069000Y-99274380D01*
X45211857Y-99322000D01*
X45307095Y-99417238D01*
X45354714Y-99512476D01*
X45402333Y-99702952D01*
X45402333Y-99845809D01*
X45354714Y-100036285D01*
X45307095Y-100131523D01*
X45211857Y-100226761D01*
X45069000Y-100274380D01*
X44830904Y-100274380D01*
G04 #@! TO.C,R0*
D15*
X89494955Y-72462407D02*
X89160865Y-71985136D01*
X88922229Y-72462407D02*
X88922229Y-71460137D01*
X89304046Y-71460137D01*
X89399500Y-71507865D01*
X89447227Y-71555592D01*
X89494955Y-71651046D01*
X89494955Y-71794227D01*
X89447227Y-71889682D01*
X89399500Y-71937409D01*
X89304046Y-71985136D01*
X88922229Y-71985136D01*
X90115407Y-71460137D02*
X90210862Y-71460137D01*
X90306316Y-71507865D01*
X90354043Y-71555592D01*
X90401770Y-71651046D01*
X90449497Y-71841955D01*
X90449497Y-72080590D01*
X90401770Y-72271499D01*
X90354043Y-72366953D01*
X90306316Y-72414680D01*
X90210862Y-72462407D01*
X90115407Y-72462407D01*
X90019953Y-72414680D01*
X89972226Y-72366953D01*
X89924499Y-72271499D01*
X89876772Y-72080590D01*
X89876772Y-71841955D01*
X89924499Y-71651046D01*
X89972226Y-71555592D01*
X90019953Y-71507865D01*
X90115407Y-71460137D01*
X91272955Y-104847407D02*
X90938865Y-104370136D01*
X90700229Y-104847407D02*
X90700229Y-103845137D01*
X91082046Y-103845137D01*
X91177500Y-103892865D01*
X91225227Y-103940592D01*
X91272955Y-104036046D01*
X91272955Y-104179227D01*
X91225227Y-104274682D01*
X91177500Y-104322409D01*
X91082046Y-104370136D01*
X90700229Y-104370136D01*
X91893407Y-103845137D02*
X91988862Y-103845137D01*
X92084316Y-103892865D01*
X92132043Y-103940592D01*
X92179770Y-104036046D01*
X92227497Y-104226955D01*
X92227497Y-104465590D01*
X92179770Y-104656499D01*
X92132043Y-104751953D01*
X92084316Y-104799680D01*
X91988862Y-104847407D01*
X91893407Y-104847407D01*
X91797953Y-104799680D01*
X91750226Y-104751953D01*
X91702499Y-104656499D01*
X91654772Y-104465590D01*
X91654772Y-104226955D01*
X91702499Y-104036046D01*
X91750226Y-103940592D01*
X91797953Y-103892865D01*
X91893407Y-103845137D01*
X101548488Y-90354726D02*
X100974768Y-90253481D01*
X101143509Y-90759704D02*
X100434797Y-90050992D01*
X100704783Y-89781007D01*
X100806028Y-89747259D01*
X100873524Y-89747259D01*
X100974768Y-89781007D01*
X101076013Y-89882251D01*
X101109761Y-89983496D01*
X101109761Y-90050992D01*
X101076013Y-90152237D01*
X100806028Y-90422222D01*
X101278502Y-89207288D02*
X101345998Y-89139791D01*
X101447243Y-89106043D01*
X101514739Y-89106043D01*
X101615984Y-89139791D01*
X101784725Y-89241036D01*
X101953466Y-89409777D01*
X102054710Y-89578518D01*
X102088459Y-89679762D01*
X102088459Y-89747259D01*
X102054710Y-89848503D01*
X101987214Y-89916000D01*
X101885969Y-89949748D01*
X101818473Y-89949748D01*
X101717229Y-89916000D01*
X101548488Y-89814755D01*
X101379747Y-89646014D01*
X101278502Y-89477273D01*
X101244754Y-89376029D01*
X101244754Y-89308532D01*
X101278502Y-89207288D01*
G04 #@! TO.C,U7*
D16*
X72669428Y-78194714D02*
X72669428Y-78437571D01*
X72683714Y-78466142D01*
X72698000Y-78480428D01*
X72726571Y-78494714D01*
X72783714Y-78494714D01*
X72812285Y-78480428D01*
X72826571Y-78466142D01*
X72840857Y-78437571D01*
X72840857Y-78194714D01*
X72955142Y-78194714D02*
X73155142Y-78194714D01*
X73026571Y-78494714D01*
G04 #@! TO.C,U9*
D15*
X82575428Y-78321714D02*
X82575428Y-78564571D01*
X82589714Y-78593142D01*
X82604000Y-78607428D01*
X82632571Y-78621714D01*
X82689714Y-78621714D01*
X82718285Y-78607428D01*
X82732571Y-78593142D01*
X82746857Y-78564571D01*
X82746857Y-78321714D01*
X82904000Y-78621714D02*
X82961142Y-78621714D01*
X82989714Y-78607428D01*
X83004000Y-78593142D01*
X83032571Y-78550285D01*
X83046857Y-78493142D01*
X83046857Y-78378857D01*
X83032571Y-78350285D01*
X83018285Y-78336000D01*
X82989714Y-78321714D01*
X82932571Y-78321714D01*
X82904000Y-78336000D01*
X82889714Y-78350285D01*
X82875428Y-78378857D01*
X82875428Y-78450285D01*
X82889714Y-78478857D01*
X82904000Y-78493142D01*
X82932571Y-78507428D01*
X82989714Y-78507428D01*
X83018285Y-78493142D01*
X83032571Y-78478857D01*
X83046857Y-78450285D01*
G04 #@! TD*
M02*
