G04 #@! TF.GenerationSoftware,KiCad,Pcbnew,5.0.2-bee76a0~70~ubuntu16.04.1*
G04 #@! TF.CreationDate,2019-02-24T18:58:32-05:00*
G04 #@! TF.ProjectId,chain_v03,63686169-6e5f-4763-9033-2e6b69636164,rev?*
G04 #@! TF.SameCoordinates,Original*
G04 #@! TF.FileFunction,Soldermask,Top*
G04 #@! TF.FilePolarity,Negative*
%FSLAX46Y46*%
G04 Gerber Fmt 4.6, Leading zero omitted, Abs format (unit mm)*
G04 Created by KiCad (PCBNEW 5.0.2-bee76a0~70~ubuntu16.04.1) date Sun 24 Feb 2019 06:58:32 PM EST*
%MOMM*%
%LPD*%
G01*
G04 APERTURE LIST*
%ADD10C,0.100000*%
G04 APERTURE END LIST*
D10*
G04 #@! TO.C,U12*
G36*
X76358930Y-94126000D02*
X75757000Y-94126000D01*
X75757000Y-93325406D01*
X76358930Y-93325406D01*
X76358930Y-94126000D01*
G37*
G36*
X75357263Y-93326000D02*
X74757000Y-93326000D01*
X74757000Y-92775166D01*
X75357263Y-92775166D01*
X75357263Y-93326000D01*
G37*
G36*
X74356240Y-94126000D02*
X73757000Y-94126000D01*
X73757000Y-93325565D01*
X74356240Y-93325565D01*
X74356240Y-94126000D01*
G37*
G36*
X75357292Y-94676000D02*
X74757000Y-94676000D01*
X74757000Y-94126390D01*
X75357292Y-94126390D01*
X75357292Y-94676000D01*
G37*
G36*
X107072635Y-102602019D02*
X107253903Y-102638075D01*
X107481571Y-102732378D01*
X107685542Y-102868668D01*
X107686469Y-102869287D01*
X107860713Y-103043531D01*
X107860715Y-103043534D01*
X107997622Y-103248429D01*
X108091925Y-103476097D01*
X108140000Y-103717787D01*
X108140000Y-103964213D01*
X108091925Y-104205903D01*
X107997622Y-104433571D01*
X107861332Y-104637542D01*
X107860713Y-104638469D01*
X107686469Y-104812713D01*
X107686466Y-104812715D01*
X107481571Y-104949622D01*
X107253903Y-105043925D01*
X107072635Y-105079981D01*
X107012214Y-105092000D01*
X106765786Y-105092000D01*
X106705365Y-105079981D01*
X106524097Y-105043925D01*
X106296429Y-104949622D01*
X106091534Y-104812715D01*
X106091531Y-104812713D01*
X105917287Y-104638469D01*
X105916668Y-104637542D01*
X105780378Y-104433571D01*
X105686075Y-104205903D01*
X105638000Y-103964213D01*
X105638000Y-103717787D01*
X105686075Y-103476097D01*
X105780378Y-103248429D01*
X105917285Y-103043534D01*
X105917287Y-103043531D01*
X106091531Y-102869287D01*
X106092458Y-102868668D01*
X106296429Y-102732378D01*
X106524097Y-102638075D01*
X106705364Y-102602019D01*
X106765786Y-102590000D01*
X107012214Y-102590000D01*
X107072635Y-102602019D01*
X107072635Y-102602019D01*
G37*
G36*
X100812635Y-102602019D02*
X100993903Y-102638075D01*
X101221571Y-102732378D01*
X101425542Y-102868668D01*
X101426469Y-102869287D01*
X101600713Y-103043531D01*
X101600715Y-103043534D01*
X101737622Y-103248429D01*
X101831925Y-103476097D01*
X101880000Y-103717787D01*
X101880000Y-103964213D01*
X101831925Y-104205903D01*
X101737622Y-104433571D01*
X101601332Y-104637542D01*
X101600713Y-104638469D01*
X101426469Y-104812713D01*
X101426466Y-104812715D01*
X101221571Y-104949622D01*
X100993903Y-105043925D01*
X100812635Y-105079981D01*
X100752214Y-105092000D01*
X100505786Y-105092000D01*
X100445365Y-105079981D01*
X100264097Y-105043925D01*
X100036429Y-104949622D01*
X99831534Y-104812715D01*
X99831531Y-104812713D01*
X99657287Y-104638469D01*
X99656668Y-104637542D01*
X99520378Y-104433571D01*
X99426075Y-104205903D01*
X99378000Y-103964213D01*
X99378000Y-103717787D01*
X99426075Y-103476097D01*
X99520378Y-103248429D01*
X99657285Y-103043534D01*
X99657287Y-103043531D01*
X99831531Y-102869287D01*
X99832458Y-102868668D01*
X100036429Y-102732378D01*
X100264097Y-102638075D01*
X100445364Y-102602019D01*
X100505786Y-102590000D01*
X100752214Y-102590000D01*
X100812635Y-102602019D01*
X100812635Y-102602019D01*
G37*
G36*
X44502414Y-101097879D02*
X44502416Y-101097880D01*
X44502417Y-101097880D01*
X44693594Y-101177068D01*
X44865651Y-101292033D01*
X45011967Y-101438349D01*
X45011969Y-101438352D01*
X45126932Y-101610406D01*
X45157416Y-101684000D01*
X45206121Y-101801586D01*
X45246251Y-102003333D01*
X45246490Y-102004536D01*
X45246490Y-102211464D01*
X45206120Y-102414417D01*
X45135048Y-102586000D01*
X45126932Y-102605594D01*
X45011967Y-102777651D01*
X44865651Y-102923967D01*
X44865648Y-102923969D01*
X44693594Y-103038932D01*
X44502417Y-103118120D01*
X44502416Y-103118120D01*
X44502414Y-103118121D01*
X44299466Y-103158490D01*
X44092534Y-103158490D01*
X43889586Y-103118121D01*
X43889584Y-103118120D01*
X43889583Y-103118120D01*
X43698406Y-103038932D01*
X43526352Y-102923969D01*
X43526349Y-102923967D01*
X43380033Y-102777651D01*
X43265068Y-102605594D01*
X43256952Y-102586000D01*
X43185880Y-102414417D01*
X43145510Y-102211464D01*
X43145510Y-102004536D01*
X43145749Y-102003333D01*
X43185879Y-101801586D01*
X43234585Y-101684000D01*
X43265068Y-101610406D01*
X43380031Y-101438352D01*
X43380033Y-101438349D01*
X43526349Y-101292033D01*
X43698406Y-101177068D01*
X43889583Y-101097880D01*
X43889584Y-101097880D01*
X43889586Y-101097879D01*
X44092534Y-101057510D01*
X44299466Y-101057510D01*
X44502414Y-101097879D01*
X44502414Y-101097879D01*
G37*
G36*
X91365588Y-101691645D02*
X91188612Y-101868621D01*
X91173066Y-101887563D01*
X91161515Y-101909174D01*
X91154402Y-101932623D01*
X91152000Y-101957009D01*
X91152000Y-102786000D01*
X89950000Y-102786000D01*
X89950000Y-102027719D01*
X89947598Y-102003333D01*
X89940485Y-101979884D01*
X89928934Y-101958273D01*
X89913388Y-101939331D01*
X89736412Y-101762355D01*
X90586355Y-100912412D01*
X91365588Y-101691645D01*
X91365588Y-101691645D01*
G37*
G36*
X92852000Y-102786000D02*
X91650000Y-102786000D01*
X91650000Y-101709009D01*
X91648290Y-101691645D01*
X91649043Y-101684000D01*
X92852000Y-101684000D01*
X92852000Y-102786000D01*
X92852000Y-102786000D01*
G37*
G36*
X65013000Y-102586000D02*
X63511000Y-102586000D01*
X63511000Y-101884000D01*
X65013000Y-101884000D01*
X65013000Y-102586000D01*
X65013000Y-102586000D01*
G37*
G36*
X103887589Y-99843416D02*
X104014520Y-99868664D01*
X104173942Y-99934699D01*
X104317418Y-100030566D01*
X104439434Y-100152582D01*
X104535301Y-100296058D01*
X104601336Y-100455480D01*
X104635000Y-100624721D01*
X104635000Y-100797279D01*
X104601336Y-100966520D01*
X104535301Y-101125942D01*
X104439434Y-101269418D01*
X104317418Y-101391434D01*
X104173942Y-101487301D01*
X104014520Y-101553336D01*
X103887589Y-101578584D01*
X103845280Y-101587000D01*
X103672720Y-101587000D01*
X103630411Y-101578584D01*
X103503480Y-101553336D01*
X103344058Y-101487301D01*
X103200582Y-101391434D01*
X103078566Y-101269418D01*
X102982699Y-101125942D01*
X102916664Y-100966520D01*
X102883000Y-100797279D01*
X102883000Y-100624721D01*
X102916664Y-100455480D01*
X102982699Y-100296058D01*
X103078566Y-100152582D01*
X103200582Y-100030566D01*
X103344058Y-99934699D01*
X103503480Y-99868664D01*
X103630411Y-99843416D01*
X103672720Y-99835000D01*
X103845280Y-99835000D01*
X103887589Y-99843416D01*
X103887589Y-99843416D01*
G37*
G36*
X92567670Y-100489563D02*
X91717727Y-101339506D01*
X90938494Y-100560273D01*
X91788437Y-99710330D01*
X92567670Y-100489563D01*
X92567670Y-100489563D01*
G37*
G36*
X59582000Y-100764000D02*
X56900000Y-100764000D01*
X56900000Y-99642000D01*
X59582000Y-99642000D01*
X59582000Y-100764000D01*
X59582000Y-100764000D01*
G37*
G36*
X51812000Y-100764000D02*
X49130000Y-100764000D01*
X49130000Y-99642000D01*
X51812000Y-99642000D01*
X51812000Y-100764000D01*
X51812000Y-100764000D01*
G37*
G36*
X87981000Y-99049000D02*
X87279000Y-99049000D01*
X87279000Y-97547000D01*
X87981000Y-97547000D01*
X87981000Y-99049000D01*
X87981000Y-99049000D01*
G37*
G36*
X96363000Y-98922000D02*
X95661000Y-98922000D01*
X95661000Y-97420000D01*
X96363000Y-97420000D01*
X96363000Y-98922000D01*
X96363000Y-98922000D01*
G37*
G36*
X100812635Y-96342019D02*
X100993903Y-96378075D01*
X101221571Y-96472378D01*
X101420155Y-96605068D01*
X101426469Y-96609287D01*
X101600713Y-96783531D01*
X101600715Y-96783534D01*
X101737622Y-96988429D01*
X101831925Y-97216097D01*
X101880000Y-97457787D01*
X101880000Y-97704213D01*
X101831925Y-97945903D01*
X101737622Y-98173571D01*
X101666508Y-98280000D01*
X101600713Y-98378469D01*
X101426469Y-98552713D01*
X101426466Y-98552715D01*
X101221571Y-98689622D01*
X100993903Y-98783925D01*
X100812635Y-98819981D01*
X100752214Y-98832000D01*
X100505786Y-98832000D01*
X100445365Y-98819981D01*
X100264097Y-98783925D01*
X100036429Y-98689622D01*
X99831534Y-98552715D01*
X99831531Y-98552713D01*
X99657287Y-98378469D01*
X99591492Y-98280000D01*
X99520378Y-98173571D01*
X99426075Y-97945903D01*
X99378000Y-97704213D01*
X99378000Y-97457787D01*
X99426075Y-97216097D01*
X99520378Y-96988429D01*
X99657285Y-96783534D01*
X99657287Y-96783531D01*
X99831531Y-96609287D01*
X99837845Y-96605068D01*
X100036429Y-96472378D01*
X100264097Y-96378075D01*
X100445365Y-96342019D01*
X100505786Y-96330000D01*
X100752214Y-96330000D01*
X100812635Y-96342019D01*
X100812635Y-96342019D01*
G37*
G36*
X107072635Y-96342019D02*
X107253903Y-96378075D01*
X107481571Y-96472378D01*
X107680155Y-96605068D01*
X107686469Y-96609287D01*
X107860713Y-96783531D01*
X107860715Y-96783534D01*
X107997622Y-96988429D01*
X108091925Y-97216097D01*
X108140000Y-97457787D01*
X108140000Y-97704213D01*
X108091925Y-97945903D01*
X107997622Y-98173571D01*
X107926508Y-98280000D01*
X107860713Y-98378469D01*
X107686469Y-98552713D01*
X107686466Y-98552715D01*
X107481571Y-98689622D01*
X107253903Y-98783925D01*
X107072635Y-98819981D01*
X107012214Y-98832000D01*
X106765786Y-98832000D01*
X106705365Y-98819981D01*
X106524097Y-98783925D01*
X106296429Y-98689622D01*
X106091534Y-98552715D01*
X106091531Y-98552713D01*
X105917287Y-98378469D01*
X105851492Y-98280000D01*
X105780378Y-98173571D01*
X105686075Y-97945903D01*
X105638000Y-97704213D01*
X105638000Y-97457787D01*
X105686075Y-97216097D01*
X105780378Y-96988429D01*
X105917285Y-96783534D01*
X105917287Y-96783531D01*
X106091531Y-96609287D01*
X106097845Y-96605068D01*
X106296429Y-96472378D01*
X106524097Y-96378075D01*
X106705365Y-96342019D01*
X106765786Y-96330000D01*
X107012214Y-96330000D01*
X107072635Y-96342019D01*
X107072635Y-96342019D01*
G37*
G36*
X93315000Y-98795000D02*
X92613000Y-98795000D01*
X92613000Y-97293000D01*
X93315000Y-97293000D01*
X93315000Y-98795000D01*
X93315000Y-98795000D01*
G37*
G36*
X91029000Y-98795000D02*
X90327000Y-98795000D01*
X90327000Y-97293000D01*
X91029000Y-97293000D01*
X91029000Y-98795000D01*
X91029000Y-98795000D01*
G37*
G36*
X44502414Y-96525879D02*
X44502416Y-96525880D01*
X44502417Y-96525880D01*
X44693594Y-96605068D01*
X44865651Y-96720033D01*
X45011967Y-96866349D01*
X45011969Y-96866352D01*
X45126932Y-97038406D01*
X45202525Y-97220903D01*
X45206121Y-97229586D01*
X45246490Y-97432534D01*
X45246490Y-97639466D01*
X45209045Y-97827715D01*
X45206120Y-97842417D01*
X45155501Y-97964622D01*
X45126932Y-98033594D01*
X45011967Y-98205651D01*
X44865651Y-98351967D01*
X44865648Y-98351969D01*
X44693594Y-98466932D01*
X44502417Y-98546120D01*
X44502416Y-98546120D01*
X44502414Y-98546121D01*
X44299466Y-98586490D01*
X44092534Y-98586490D01*
X43889586Y-98546121D01*
X43889584Y-98546120D01*
X43889583Y-98546120D01*
X43698406Y-98466932D01*
X43526352Y-98351969D01*
X43526349Y-98351967D01*
X43380033Y-98205651D01*
X43265068Y-98033594D01*
X43236499Y-97964622D01*
X43185880Y-97842417D01*
X43182956Y-97827715D01*
X43145510Y-97639466D01*
X43145510Y-97432534D01*
X43185879Y-97229586D01*
X43189476Y-97220903D01*
X43265068Y-97038406D01*
X43380031Y-96866352D01*
X43380033Y-96866349D01*
X43526349Y-96720033D01*
X43698406Y-96605068D01*
X43889583Y-96525880D01*
X43889584Y-96525880D01*
X43889586Y-96525879D01*
X44092534Y-96485510D01*
X44299466Y-96485510D01*
X44502414Y-96525879D01*
X44502414Y-96525879D01*
G37*
G36*
X63474636Y-95617019D02*
X63655903Y-95653075D01*
X63883571Y-95747378D01*
X64044638Y-95855000D01*
X64088469Y-95884287D01*
X64262713Y-96058531D01*
X64262715Y-96058534D01*
X64399622Y-96263429D01*
X64493925Y-96491097D01*
X64542000Y-96732787D01*
X64542000Y-96979213D01*
X64493925Y-97220903D01*
X64399622Y-97448571D01*
X64263332Y-97652542D01*
X64262713Y-97653469D01*
X64088469Y-97827713D01*
X64088466Y-97827715D01*
X63883571Y-97964622D01*
X63655903Y-98058925D01*
X63474635Y-98094981D01*
X63414214Y-98107000D01*
X63167786Y-98107000D01*
X63107365Y-98094981D01*
X62926097Y-98058925D01*
X62698429Y-97964622D01*
X62493534Y-97827715D01*
X62493531Y-97827713D01*
X62319287Y-97653469D01*
X62318668Y-97652542D01*
X62182378Y-97448571D01*
X62088075Y-97220903D01*
X62040000Y-96979213D01*
X62040000Y-96732787D01*
X62088075Y-96491097D01*
X62182378Y-96263429D01*
X62319285Y-96058534D01*
X62319287Y-96058531D01*
X62493531Y-95884287D01*
X62537362Y-95855000D01*
X62698429Y-95747378D01*
X62926097Y-95653075D01*
X63107364Y-95617019D01*
X63167786Y-95605000D01*
X63414214Y-95605000D01*
X63474636Y-95617019D01*
X63474636Y-95617019D01*
G37*
G36*
X69734636Y-95617019D02*
X69915903Y-95653075D01*
X70143571Y-95747378D01*
X70304638Y-95855000D01*
X70348469Y-95884287D01*
X70522713Y-96058531D01*
X70522715Y-96058534D01*
X70659622Y-96263429D01*
X70753925Y-96491097D01*
X70802000Y-96732787D01*
X70802000Y-96979213D01*
X70753925Y-97220903D01*
X70659622Y-97448571D01*
X70523332Y-97652542D01*
X70522713Y-97653469D01*
X70348469Y-97827713D01*
X70348466Y-97827715D01*
X70143571Y-97964622D01*
X69915903Y-98058925D01*
X69734635Y-98094981D01*
X69674214Y-98107000D01*
X69427786Y-98107000D01*
X69367365Y-98094981D01*
X69186097Y-98058925D01*
X68958429Y-97964622D01*
X68753534Y-97827715D01*
X68753531Y-97827713D01*
X68579287Y-97653469D01*
X68578668Y-97652542D01*
X68442378Y-97448571D01*
X68348075Y-97220903D01*
X68300000Y-96979213D01*
X68300000Y-96732787D01*
X68348075Y-96491097D01*
X68442378Y-96263429D01*
X68579285Y-96058534D01*
X68579287Y-96058531D01*
X68753531Y-95884287D01*
X68797362Y-95855000D01*
X68958429Y-95747378D01*
X69186097Y-95653075D01*
X69367364Y-95617019D01*
X69427786Y-95605000D01*
X69674214Y-95605000D01*
X69734636Y-95617019D01*
X69734636Y-95617019D01*
G37*
G36*
X93862188Y-92401844D02*
X93864590Y-92426230D01*
X93871703Y-92449679D01*
X93883254Y-92471290D01*
X93898800Y-92490232D01*
X93917742Y-92505778D01*
X93939353Y-92517329D01*
X93962802Y-92524442D01*
X93987188Y-92526844D01*
X95030588Y-92526844D01*
X95030588Y-94914844D01*
X93987188Y-94914844D01*
X93962802Y-94917246D01*
X93939353Y-94924359D01*
X93917742Y-94935910D01*
X93898800Y-94951456D01*
X93883254Y-94970398D01*
X93871703Y-94992009D01*
X93864590Y-95015458D01*
X93862188Y-95039844D01*
X93862188Y-96083244D01*
X91474188Y-96083244D01*
X91474188Y-95039844D01*
X91471786Y-95015458D01*
X91464673Y-94992009D01*
X91453122Y-94970398D01*
X91437576Y-94951456D01*
X91418634Y-94935910D01*
X91397023Y-94924359D01*
X91373574Y-94917246D01*
X91349188Y-94914844D01*
X90305788Y-94914844D01*
X90305788Y-92526844D01*
X91349188Y-92526844D01*
X91373574Y-92524442D01*
X91397023Y-92517329D01*
X91418634Y-92505778D01*
X91437576Y-92490232D01*
X91453122Y-92471290D01*
X91464673Y-92449679D01*
X91471786Y-92426230D01*
X91474188Y-92401844D01*
X91474188Y-91358444D01*
X93862188Y-91358444D01*
X93862188Y-92401844D01*
X93862188Y-92401844D01*
G37*
G36*
X98746000Y-95855000D02*
X97244000Y-95855000D01*
X97244000Y-95153000D01*
X98746000Y-95153000D01*
X98746000Y-95855000D01*
X98746000Y-95855000D01*
G37*
G36*
X59582000Y-95684000D02*
X56900000Y-95684000D01*
X56900000Y-94562000D01*
X59582000Y-94562000D01*
X59582000Y-95684000D01*
X59582000Y-95684000D01*
G37*
G36*
X51812000Y-95684000D02*
X49130000Y-95684000D01*
X49130000Y-94562000D01*
X51812000Y-94562000D01*
X51812000Y-95684000D01*
X51812000Y-95684000D01*
G37*
G36*
X86922000Y-95674000D02*
X85720000Y-95674000D01*
X85720000Y-94572000D01*
X86922000Y-94572000D01*
X86922000Y-95674000D01*
X86922000Y-95674000D01*
G37*
G36*
X85222000Y-95674000D02*
X84020000Y-95674000D01*
X84020000Y-94572000D01*
X85222000Y-94572000D01*
X85222000Y-95674000D01*
X85222000Y-95674000D01*
G37*
G36*
X75159383Y-92238489D02*
X75223261Y-92264948D01*
X75280750Y-92303361D01*
X75329639Y-92352250D01*
X75368052Y-92409739D01*
X75394511Y-92473617D01*
X75408000Y-92541430D01*
X75408000Y-93399698D01*
X75391047Y-93413612D01*
X75375501Y-93432554D01*
X75363950Y-93454165D01*
X75356837Y-93477614D01*
X75354435Y-93502000D01*
X75356837Y-93526386D01*
X75363950Y-93549835D01*
X75394511Y-93623617D01*
X75408000Y-93691430D01*
X75408000Y-93760570D01*
X75394511Y-93828383D01*
X75363950Y-93902165D01*
X75356837Y-93925615D01*
X75354435Y-93950001D01*
X75356837Y-93974387D01*
X75363950Y-93997836D01*
X75375502Y-94019447D01*
X75391047Y-94038389D01*
X75408000Y-94052301D01*
X75408000Y-94910570D01*
X75394511Y-94978383D01*
X75368052Y-95042261D01*
X75329639Y-95099750D01*
X75280750Y-95148639D01*
X75223261Y-95187052D01*
X75159383Y-95213511D01*
X75091570Y-95227000D01*
X75022430Y-95227000D01*
X74954617Y-95213511D01*
X74890739Y-95187052D01*
X74833250Y-95148639D01*
X74784361Y-95099750D01*
X74745948Y-95042261D01*
X74719489Y-94978383D01*
X74706000Y-94910570D01*
X74706000Y-94052302D01*
X74722953Y-94038388D01*
X74738499Y-94019446D01*
X74750050Y-93997835D01*
X74757163Y-93974386D01*
X74759565Y-93950000D01*
X74757163Y-93925614D01*
X74750050Y-93902165D01*
X74719489Y-93828383D01*
X74706000Y-93760570D01*
X74706000Y-93691430D01*
X74719489Y-93623617D01*
X74750050Y-93549835D01*
X74757163Y-93526385D01*
X74759565Y-93501999D01*
X74757163Y-93477613D01*
X74750050Y-93454164D01*
X74738498Y-93432553D01*
X74722953Y-93413611D01*
X74706000Y-93399699D01*
X74706000Y-92541430D01*
X74719489Y-92473617D01*
X74745948Y-92409739D01*
X74784361Y-92352250D01*
X74833250Y-92303361D01*
X74890739Y-92264948D01*
X74954617Y-92238489D01*
X75022430Y-92225000D01*
X75091570Y-92225000D01*
X75159383Y-92238489D01*
X75159383Y-92238489D01*
G37*
G36*
X66549589Y-92858416D02*
X66676520Y-92883664D01*
X66835942Y-92949699D01*
X66979418Y-93045566D01*
X67101434Y-93167582D01*
X67197301Y-93311058D01*
X67263336Y-93470480D01*
X67297000Y-93639721D01*
X67297000Y-93812279D01*
X67263336Y-93981520D01*
X67197301Y-94140942D01*
X67101434Y-94284418D01*
X66979418Y-94406434D01*
X66835942Y-94502301D01*
X66676520Y-94568336D01*
X66549589Y-94593584D01*
X66507280Y-94602000D01*
X66334720Y-94602000D01*
X66292411Y-94593584D01*
X66165480Y-94568336D01*
X66006058Y-94502301D01*
X65862582Y-94406434D01*
X65740566Y-94284418D01*
X65644699Y-94140942D01*
X65578664Y-93981520D01*
X65545000Y-93812279D01*
X65545000Y-93639721D01*
X65578664Y-93470480D01*
X65644699Y-93311058D01*
X65740566Y-93167582D01*
X65862582Y-93045566D01*
X66006058Y-92949699D01*
X66165480Y-92883664D01*
X66292411Y-92858416D01*
X66334720Y-92850000D01*
X66507280Y-92850000D01*
X66549589Y-92858416D01*
X66549589Y-92858416D01*
G37*
G36*
X74408000Y-94177000D02*
X73706000Y-94177000D01*
X73706000Y-93275000D01*
X74408000Y-93275000D01*
X74408000Y-94177000D01*
X74408000Y-94177000D01*
G37*
G36*
X76408000Y-94177000D02*
X75706000Y-94177000D01*
X75706000Y-93275000D01*
X76408000Y-93275000D01*
X76408000Y-94177000D01*
X76408000Y-94177000D01*
G37*
G36*
X79823000Y-94077000D02*
X78321000Y-94077000D01*
X78321000Y-93375000D01*
X79823000Y-93375000D01*
X79823000Y-94077000D01*
X79823000Y-94077000D01*
G37*
G36*
X44502414Y-91953879D02*
X44502416Y-91953880D01*
X44502417Y-91953880D01*
X44693594Y-92033068D01*
X44865651Y-92148033D01*
X45011967Y-92294349D01*
X45011969Y-92294352D01*
X45126932Y-92466406D01*
X45186647Y-92610570D01*
X45206121Y-92657586D01*
X45246490Y-92860534D01*
X45246490Y-93067466D01*
X45226576Y-93167582D01*
X45206120Y-93270417D01*
X45189286Y-93311058D01*
X45126932Y-93461594D01*
X45011967Y-93633651D01*
X44865651Y-93779967D01*
X44865648Y-93779969D01*
X44693594Y-93894932D01*
X44502417Y-93974120D01*
X44502416Y-93974120D01*
X44502414Y-93974121D01*
X44299466Y-94014490D01*
X44092534Y-94014490D01*
X43889586Y-93974121D01*
X43889584Y-93974120D01*
X43889583Y-93974120D01*
X43698406Y-93894932D01*
X43526352Y-93779969D01*
X43526349Y-93779967D01*
X43380033Y-93633651D01*
X43265068Y-93461594D01*
X43202714Y-93311058D01*
X43185880Y-93270417D01*
X43165425Y-93167582D01*
X43145510Y-93067466D01*
X43145510Y-92860534D01*
X43185879Y-92657586D01*
X43205354Y-92610570D01*
X43265068Y-92466406D01*
X43380031Y-92294352D01*
X43380033Y-92294349D01*
X43526349Y-92148033D01*
X43698406Y-92033068D01*
X43889583Y-91953880D01*
X43889584Y-91953880D01*
X43889586Y-91953879D01*
X44092534Y-91913510D01*
X44299466Y-91913510D01*
X44502414Y-91953879D01*
X44502414Y-91953879D01*
G37*
G36*
X98753188Y-93817844D02*
X97251188Y-93817844D01*
X97251188Y-93115844D01*
X98753188Y-93115844D01*
X98753188Y-93817844D01*
X98753188Y-93817844D01*
G37*
G36*
X82466000Y-92676000D02*
X81364000Y-92676000D01*
X81364000Y-91474000D01*
X82466000Y-91474000D01*
X82466000Y-92676000D01*
X82466000Y-92676000D01*
G37*
G36*
X104183000Y-92674200D02*
X103081000Y-92674200D01*
X103081000Y-91472200D01*
X104183000Y-91472200D01*
X104183000Y-92674200D01*
X104183000Y-92674200D01*
G37*
G36*
X86046000Y-92553000D02*
X84544000Y-92553000D01*
X84544000Y-91851000D01*
X86046000Y-91851000D01*
X86046000Y-92553000D01*
X86046000Y-92553000D01*
G37*
G36*
X102829547Y-91370686D02*
X101979604Y-92220629D01*
X101200371Y-91441396D01*
X102050314Y-90591453D01*
X102829547Y-91370686D01*
X102829547Y-91370686D01*
G37*
G36*
X69734636Y-89357019D02*
X69915903Y-89393075D01*
X70143571Y-89487378D01*
X70347542Y-89623668D01*
X70348469Y-89624287D01*
X70522713Y-89798531D01*
X70522715Y-89798534D01*
X70659622Y-90003429D01*
X70753925Y-90231097D01*
X70802000Y-90472787D01*
X70802000Y-90719213D01*
X70753925Y-90960903D01*
X70659622Y-91188571D01*
X70546116Y-91358444D01*
X70522713Y-91393469D01*
X70348469Y-91567713D01*
X70348466Y-91567715D01*
X70143571Y-91704622D01*
X69915903Y-91798925D01*
X69734636Y-91834981D01*
X69674214Y-91847000D01*
X69427786Y-91847000D01*
X69367364Y-91834981D01*
X69186097Y-91798925D01*
X68958429Y-91704622D01*
X68753534Y-91567715D01*
X68753531Y-91567713D01*
X68579287Y-91393469D01*
X68555884Y-91358444D01*
X68442378Y-91188571D01*
X68348075Y-90960903D01*
X68300000Y-90719213D01*
X68300000Y-90472787D01*
X68348075Y-90231097D01*
X68442378Y-90003429D01*
X68579285Y-89798534D01*
X68579287Y-89798531D01*
X68753531Y-89624287D01*
X68754458Y-89623668D01*
X68958429Y-89487378D01*
X69186097Y-89393075D01*
X69367364Y-89357019D01*
X69427786Y-89345000D01*
X69674214Y-89345000D01*
X69734636Y-89357019D01*
X69734636Y-89357019D01*
G37*
G36*
X63474636Y-89357019D02*
X63655903Y-89393075D01*
X63883571Y-89487378D01*
X64087542Y-89623668D01*
X64088469Y-89624287D01*
X64262713Y-89798531D01*
X64262715Y-89798534D01*
X64399622Y-90003429D01*
X64493925Y-90231097D01*
X64542000Y-90472787D01*
X64542000Y-90719213D01*
X64493925Y-90960903D01*
X64399622Y-91188571D01*
X64286116Y-91358444D01*
X64262713Y-91393469D01*
X64088469Y-91567713D01*
X64088466Y-91567715D01*
X63883571Y-91704622D01*
X63655903Y-91798925D01*
X63474636Y-91834981D01*
X63414214Y-91847000D01*
X63167786Y-91847000D01*
X63107364Y-91834981D01*
X62926097Y-91798925D01*
X62698429Y-91704622D01*
X62493534Y-91567715D01*
X62493531Y-91567713D01*
X62319287Y-91393469D01*
X62295884Y-91358444D01*
X62182378Y-91188571D01*
X62088075Y-90960903D01*
X62040000Y-90719213D01*
X62040000Y-90472787D01*
X62088075Y-90231097D01*
X62182378Y-90003429D01*
X62319285Y-89798534D01*
X62319287Y-89798531D01*
X62493531Y-89624287D01*
X62494458Y-89623668D01*
X62698429Y-89487378D01*
X62926097Y-89393075D01*
X63107364Y-89357019D01*
X63167786Y-89345000D01*
X63414214Y-89345000D01*
X63474636Y-89357019D01*
X63474636Y-89357019D01*
G37*
G36*
X98753188Y-91531844D02*
X97251188Y-91531844D01*
X97251188Y-90829844D01*
X98753188Y-90829844D01*
X98753188Y-91531844D01*
X98753188Y-91531844D01*
G37*
G36*
X88562000Y-91406000D02*
X87460000Y-91406000D01*
X87460000Y-90204000D01*
X88562000Y-90204000D01*
X88562000Y-91406000D01*
X88562000Y-91406000D01*
G37*
G36*
X103598613Y-89735588D02*
X103617555Y-89751134D01*
X103639166Y-89762685D01*
X103662615Y-89769798D01*
X103687001Y-89772200D01*
X104183000Y-89772200D01*
X104183000Y-90974200D01*
X103277809Y-90974200D01*
X103253423Y-90976602D01*
X103229974Y-90983715D01*
X103208363Y-90995266D01*
X103189421Y-91010812D01*
X103181686Y-91018547D01*
X103173951Y-91010812D01*
X103155009Y-90995266D01*
X103133398Y-90983715D01*
X103109949Y-90976602D01*
X103085563Y-90974200D01*
X103081000Y-90974200D01*
X103081000Y-90969637D01*
X103078598Y-90945251D01*
X103071485Y-90921802D01*
X103059934Y-90900191D01*
X103044388Y-90881249D01*
X102402453Y-90239314D01*
X103252396Y-89389371D01*
X103598613Y-89735588D01*
X103598613Y-89735588D01*
G37*
G36*
X82466000Y-90976000D02*
X81364000Y-90976000D01*
X81364000Y-89774000D01*
X82466000Y-89774000D01*
X82466000Y-90976000D01*
X82466000Y-90976000D01*
G37*
G36*
X78094000Y-90394000D02*
X76592000Y-90394000D01*
X76592000Y-89692000D01*
X78094000Y-89692000D01*
X78094000Y-90394000D01*
X78094000Y-90394000D01*
G37*
G36*
X92621000Y-90394000D02*
X91119000Y-90394000D01*
X91119000Y-89692000D01*
X92621000Y-89692000D01*
X92621000Y-90394000D01*
X92621000Y-90394000D01*
G37*
G36*
X96236000Y-90110000D02*
X95534000Y-90110000D01*
X95534000Y-88608000D01*
X96236000Y-88608000D01*
X96236000Y-90110000D01*
X96236000Y-90110000D01*
G37*
G36*
X88562000Y-89706000D02*
X87460000Y-89706000D01*
X87460000Y-88504000D01*
X88562000Y-88504000D01*
X88562000Y-89706000D01*
X88562000Y-89706000D01*
G37*
G36*
X85441000Y-89397000D02*
X84739000Y-89397000D01*
X84739000Y-87895000D01*
X85441000Y-87895000D01*
X85441000Y-89397000D01*
X85441000Y-89397000D01*
G37*
G36*
X53329000Y-89378000D02*
X51827000Y-89378000D01*
X51827000Y-88676000D01*
X53329000Y-88676000D01*
X53329000Y-89378000D01*
X53329000Y-89378000D01*
G37*
G36*
X77265723Y-88475747D02*
X76604923Y-88475747D01*
X76604923Y-87103747D01*
X77265723Y-87103747D01*
X77265723Y-88475747D01*
X77265723Y-88475747D01*
G37*
G36*
X78205523Y-88475747D02*
X77544723Y-88475747D01*
X77544723Y-87103747D01*
X78205523Y-87103747D01*
X78205523Y-88475747D01*
X78205523Y-88475747D01*
G37*
G36*
X79145323Y-88475747D02*
X78484523Y-88475747D01*
X78484523Y-87103747D01*
X79145323Y-87103747D01*
X79145323Y-88475747D01*
X79145323Y-88475747D01*
G37*
G36*
X50694146Y-88034539D02*
X49322146Y-88034539D01*
X49322146Y-87373739D01*
X50694146Y-87373739D01*
X50694146Y-88034539D01*
X50694146Y-88034539D01*
G37*
G36*
X48255746Y-88034539D02*
X46883746Y-88034539D01*
X46883746Y-87373739D01*
X48255746Y-87373739D01*
X48255746Y-88034539D01*
X48255746Y-88034539D01*
G37*
G36*
X75408000Y-87238000D02*
X74706000Y-87238000D01*
X74706000Y-85736000D01*
X75408000Y-85736000D01*
X75408000Y-87238000D01*
X75408000Y-87238000D01*
G37*
G36*
X81504000Y-87111000D02*
X80802000Y-87111000D01*
X80802000Y-85609000D01*
X81504000Y-85609000D01*
X81504000Y-87111000D01*
X81504000Y-87111000D01*
G37*
G36*
X48255746Y-87094739D02*
X46883746Y-87094739D01*
X46883746Y-86433939D01*
X48255746Y-86433939D01*
X48255746Y-87094739D01*
X48255746Y-87094739D01*
G37*
G36*
X104310000Y-86895000D02*
X103208000Y-86895000D01*
X103208000Y-85993000D01*
X104310000Y-85993000D01*
X104310000Y-86895000D01*
X104310000Y-86895000D01*
G37*
G36*
X99157000Y-86349000D02*
X98455000Y-86349000D01*
X98455000Y-84847000D01*
X99157000Y-84847000D01*
X99157000Y-86349000D01*
X99157000Y-86349000D01*
G37*
G36*
X48255746Y-86154939D02*
X46883746Y-86154939D01*
X46883746Y-85494139D01*
X48255746Y-85494139D01*
X48255746Y-86154939D01*
X48255746Y-86154939D01*
G37*
G36*
X50694146Y-86154939D02*
X49322146Y-86154939D01*
X49322146Y-85494139D01*
X50694146Y-85494139D01*
X50694146Y-86154939D01*
X50694146Y-86154939D01*
G37*
G36*
X45455000Y-86099339D02*
X43953000Y-86099339D01*
X43953000Y-85397339D01*
X45455000Y-85397339D01*
X45455000Y-86099339D01*
X45455000Y-86099339D01*
G37*
G36*
X79145323Y-86037347D02*
X78484523Y-86037347D01*
X78484523Y-84665347D01*
X79145323Y-84665347D01*
X79145323Y-86037347D01*
X79145323Y-86037347D01*
G37*
G36*
X77265723Y-86037347D02*
X76604923Y-86037347D01*
X76604923Y-84665347D01*
X77265723Y-84665347D01*
X77265723Y-86037347D01*
X77265723Y-86037347D01*
G37*
G36*
X104810000Y-85595000D02*
X102708000Y-85595000D01*
X102708000Y-85093000D01*
X104810000Y-85093000D01*
X104810000Y-85595000D01*
X104810000Y-85595000D01*
G37*
G36*
X93061000Y-85157000D02*
X92359000Y-85157000D01*
X92359000Y-83655000D01*
X93061000Y-83655000D01*
X93061000Y-85157000D01*
X93061000Y-85157000D01*
G37*
G36*
X53329000Y-84933000D02*
X51827000Y-84933000D01*
X51827000Y-84231000D01*
X53329000Y-84231000D01*
X53329000Y-84933000D01*
X53329000Y-84933000D01*
G37*
G36*
X104310000Y-84695000D02*
X103208000Y-84695000D01*
X103208000Y-83793000D01*
X104310000Y-83793000D01*
X104310000Y-84695000D01*
X104310000Y-84695000D01*
G37*
G36*
X96871000Y-84268000D02*
X96169000Y-84268000D01*
X96169000Y-82766000D01*
X96871000Y-82766000D01*
X96871000Y-84268000D01*
X96871000Y-84268000D01*
G37*
G36*
X64867000Y-84063000D02*
X64165000Y-84063000D01*
X64165000Y-82561000D01*
X64867000Y-82561000D01*
X64867000Y-84063000D01*
X64867000Y-84063000D01*
G37*
G36*
X60295000Y-84063000D02*
X59593000Y-84063000D01*
X59593000Y-82561000D01*
X60295000Y-82561000D01*
X60295000Y-84063000D01*
X60295000Y-84063000D01*
G37*
G36*
X85695000Y-84014000D02*
X84993000Y-84014000D01*
X84993000Y-82512000D01*
X85695000Y-82512000D01*
X85695000Y-84014000D01*
X85695000Y-84014000D01*
G37*
G36*
X89251000Y-84014000D02*
X88549000Y-84014000D01*
X88549000Y-82512000D01*
X89251000Y-82512000D01*
X89251000Y-84014000D01*
X89251000Y-84014000D01*
G37*
G36*
X68169000Y-83301000D02*
X67467000Y-83301000D01*
X67467000Y-81799000D01*
X68169000Y-81799000D01*
X68169000Y-83301000D01*
X68169000Y-83301000D01*
G37*
G36*
X99889000Y-82520000D02*
X98387000Y-82520000D01*
X98387000Y-81818000D01*
X99889000Y-81818000D01*
X99889000Y-82520000D01*
X99889000Y-82520000D01*
G37*
G36*
X93904000Y-78818000D02*
X93906402Y-78842386D01*
X93913515Y-78865835D01*
X93925066Y-78887446D01*
X93940612Y-78906388D01*
X93959554Y-78921934D01*
X93981165Y-78933485D01*
X94004614Y-78940598D01*
X94029000Y-78943000D01*
X95072400Y-78943000D01*
X95072400Y-81331000D01*
X94029000Y-81331000D01*
X94004614Y-81333402D01*
X93981165Y-81340515D01*
X93959554Y-81352066D01*
X93940612Y-81367612D01*
X93925066Y-81386554D01*
X93913515Y-81408165D01*
X93906402Y-81431614D01*
X93904000Y-81456000D01*
X93904000Y-82499400D01*
X91516000Y-82499400D01*
X91516000Y-81456000D01*
X91513598Y-81431614D01*
X91506485Y-81408165D01*
X91494934Y-81386554D01*
X91479388Y-81367612D01*
X91460446Y-81352066D01*
X91438835Y-81340515D01*
X91415386Y-81333402D01*
X91391000Y-81331000D01*
X90347600Y-81331000D01*
X90347600Y-78943000D01*
X91391000Y-78943000D01*
X91415386Y-78940598D01*
X91438835Y-78933485D01*
X91460446Y-78921934D01*
X91479388Y-78906388D01*
X91494934Y-78887446D01*
X91506485Y-78865835D01*
X91513598Y-78842386D01*
X91516000Y-78818000D01*
X91516000Y-77774600D01*
X93904000Y-77774600D01*
X93904000Y-78818000D01*
X93904000Y-78818000D01*
G37*
G36*
X71344000Y-82461000D02*
X70642000Y-82461000D01*
X70642000Y-80959000D01*
X71344000Y-80959000D01*
X71344000Y-82461000D01*
X71344000Y-82461000D01*
G37*
G36*
X44887635Y-79914019D02*
X45068903Y-79950075D01*
X45296571Y-80044378D01*
X45500542Y-80180668D01*
X45501469Y-80181287D01*
X45675713Y-80355531D01*
X45675715Y-80355534D01*
X45812622Y-80560429D01*
X45906925Y-80788097D01*
X45955000Y-81029787D01*
X45955000Y-81276213D01*
X45906925Y-81517903D01*
X45812622Y-81745571D01*
X45676332Y-81949542D01*
X45675713Y-81950469D01*
X45501469Y-82124713D01*
X45501466Y-82124715D01*
X45296571Y-82261622D01*
X45068903Y-82355925D01*
X44887636Y-82391981D01*
X44827214Y-82404000D01*
X44580786Y-82404000D01*
X44520364Y-82391981D01*
X44339097Y-82355925D01*
X44111429Y-82261622D01*
X43906534Y-82124715D01*
X43906531Y-82124713D01*
X43732287Y-81950469D01*
X43731668Y-81949542D01*
X43595378Y-81745571D01*
X43501075Y-81517903D01*
X43453000Y-81276213D01*
X43453000Y-81029787D01*
X43501075Y-80788097D01*
X43595378Y-80560429D01*
X43732285Y-80355534D01*
X43732287Y-80355531D01*
X43906531Y-80181287D01*
X43907458Y-80180668D01*
X44111429Y-80044378D01*
X44339097Y-79950075D01*
X44520365Y-79914019D01*
X44580786Y-79902000D01*
X44827214Y-79902000D01*
X44887635Y-79914019D01*
X44887635Y-79914019D01*
G37*
G36*
X49967635Y-79914019D02*
X50148903Y-79950075D01*
X50376571Y-80044378D01*
X50580542Y-80180668D01*
X50581469Y-80181287D01*
X50755713Y-80355531D01*
X50755715Y-80355534D01*
X50892622Y-80560429D01*
X50986925Y-80788097D01*
X51035000Y-81029787D01*
X51035000Y-81276213D01*
X50986925Y-81517903D01*
X50892622Y-81745571D01*
X50756332Y-81949542D01*
X50755713Y-81950469D01*
X50581469Y-82124713D01*
X50581466Y-82124715D01*
X50376571Y-82261622D01*
X50148903Y-82355925D01*
X49967636Y-82391981D01*
X49907214Y-82404000D01*
X49660786Y-82404000D01*
X49600364Y-82391981D01*
X49419097Y-82355925D01*
X49191429Y-82261622D01*
X48986534Y-82124715D01*
X48986531Y-82124713D01*
X48812287Y-81950469D01*
X48811668Y-81949542D01*
X48675378Y-81745571D01*
X48581075Y-81517903D01*
X48533000Y-81276213D01*
X48533000Y-81029787D01*
X48581075Y-80788097D01*
X48675378Y-80560429D01*
X48812285Y-80355534D01*
X48812287Y-80355531D01*
X48986531Y-80181287D01*
X48987458Y-80180668D01*
X49191429Y-80044378D01*
X49419097Y-79950075D01*
X49600365Y-79914019D01*
X49660786Y-79902000D01*
X49907214Y-79902000D01*
X49967635Y-79914019D01*
X49967635Y-79914019D01*
G37*
G36*
X104110000Y-82285000D02*
X103408000Y-82285000D01*
X103408000Y-80783000D01*
X104110000Y-80783000D01*
X104110000Y-82285000D01*
X104110000Y-82285000D01*
G37*
G36*
X62327000Y-82080000D02*
X61625000Y-82080000D01*
X61625000Y-80578000D01*
X62327000Y-80578000D01*
X62327000Y-82080000D01*
X62327000Y-82080000D01*
G37*
G36*
X87697000Y-81504000D02*
X86195000Y-81504000D01*
X86195000Y-80802000D01*
X87697000Y-80802000D01*
X87697000Y-81504000D01*
X87697000Y-81504000D01*
G37*
G36*
X77086000Y-80701000D02*
X75784000Y-80701000D01*
X75784000Y-79949000D01*
X77086000Y-79949000D01*
X77086000Y-80701000D01*
X77086000Y-80701000D01*
G37*
G36*
X79686000Y-80701000D02*
X78384000Y-80701000D01*
X78384000Y-79949000D01*
X79686000Y-79949000D01*
X79686000Y-80701000D01*
X79686000Y-80701000D01*
G37*
G36*
X99889000Y-80488000D02*
X98387000Y-80488000D01*
X98387000Y-79786000D01*
X99889000Y-79786000D01*
X99889000Y-80488000D01*
X99889000Y-80488000D01*
G37*
G36*
X64745554Y-78456934D02*
X64767165Y-78468485D01*
X64790614Y-78475598D01*
X64815000Y-78478000D01*
X65763000Y-78478000D01*
X65787386Y-78475598D01*
X65810835Y-78468485D01*
X65832446Y-78456934D01*
X65843332Y-78448000D01*
X66700000Y-78448000D01*
X66700000Y-80310000D01*
X65843332Y-80310000D01*
X65832446Y-80301066D01*
X65810835Y-80289515D01*
X65787386Y-80282402D01*
X65763000Y-80280000D01*
X64815000Y-80280000D01*
X64790614Y-80282402D01*
X64767165Y-80289515D01*
X64745554Y-80301066D01*
X64734668Y-80310000D01*
X63878000Y-80310000D01*
X63878000Y-78448000D01*
X64734668Y-78448000D01*
X64745554Y-78456934D01*
X64745554Y-78456934D01*
G37*
G36*
X73368000Y-80061000D02*
X72466000Y-80061000D01*
X72466000Y-79609000D01*
X73368000Y-79609000D01*
X73368000Y-80061000D01*
X73368000Y-80061000D01*
G37*
G36*
X83274000Y-80061000D02*
X82372000Y-80061000D01*
X82372000Y-79609000D01*
X83274000Y-79609000D01*
X83274000Y-80061000D01*
X83274000Y-80061000D01*
G37*
G36*
X54199000Y-79857000D02*
X53507000Y-79857000D01*
X53507000Y-78385000D01*
X54199000Y-78385000D01*
X54199000Y-79857000D01*
X54199000Y-79857000D01*
G37*
G36*
X55149000Y-79857000D02*
X54457000Y-79857000D01*
X54457000Y-78385000D01*
X55149000Y-78385000D01*
X55149000Y-79857000D01*
X55149000Y-79857000D01*
G37*
G36*
X56099000Y-79857000D02*
X55407000Y-79857000D01*
X55407000Y-78385000D01*
X56099000Y-78385000D01*
X56099000Y-79857000D01*
X56099000Y-79857000D01*
G37*
G36*
X47473427Y-77459597D02*
X47587027Y-77482193D01*
X47801045Y-77570842D01*
X47823730Y-77586000D01*
X47993659Y-77699543D01*
X48157457Y-77863341D01*
X48157459Y-77863344D01*
X48286158Y-78055955D01*
X48374807Y-78269973D01*
X48397403Y-78383573D01*
X48414294Y-78468485D01*
X48420000Y-78497174D01*
X48420000Y-78728826D01*
X48374807Y-78956027D01*
X48286158Y-79170045D01*
X48192643Y-79310000D01*
X48157457Y-79362659D01*
X47993659Y-79526457D01*
X47993656Y-79526459D01*
X47801045Y-79655158D01*
X47587027Y-79743807D01*
X47473426Y-79766404D01*
X47359827Y-79789000D01*
X47128173Y-79789000D01*
X47014574Y-79766404D01*
X46900973Y-79743807D01*
X46686955Y-79655158D01*
X46494344Y-79526459D01*
X46494341Y-79526457D01*
X46330543Y-79362659D01*
X46295357Y-79310000D01*
X46201842Y-79170045D01*
X46113193Y-78956027D01*
X46068000Y-78728826D01*
X46068000Y-78497174D01*
X46073707Y-78468485D01*
X46090597Y-78383573D01*
X46113193Y-78269973D01*
X46201842Y-78055955D01*
X46330541Y-77863344D01*
X46330543Y-77863341D01*
X46494341Y-77699543D01*
X46664270Y-77586000D01*
X46686955Y-77570842D01*
X46900973Y-77482193D01*
X47014573Y-77459597D01*
X47128173Y-77437000D01*
X47359827Y-77437000D01*
X47473427Y-77459597D01*
X47473427Y-77459597D01*
G37*
G36*
X79686000Y-79501000D02*
X78384000Y-79501000D01*
X78384000Y-78749000D01*
X79686000Y-78749000D01*
X79686000Y-79501000D01*
X79686000Y-79501000D01*
G37*
G36*
X77086000Y-79501000D02*
X75784000Y-79501000D01*
X75784000Y-78749000D01*
X77086000Y-78749000D01*
X77086000Y-79501000D01*
X77086000Y-79501000D01*
G37*
G36*
X70093000Y-79476000D02*
X68591000Y-79476000D01*
X68591000Y-78774000D01*
X70093000Y-78774000D01*
X70093000Y-79476000D01*
X70093000Y-79476000D01*
G37*
G36*
X59182000Y-79476000D02*
X57680000Y-79476000D01*
X57680000Y-78774000D01*
X59182000Y-78774000D01*
X59182000Y-79476000D01*
X59182000Y-79476000D01*
G37*
G36*
X62308000Y-79476000D02*
X60806000Y-79476000D01*
X60806000Y-78774000D01*
X62308000Y-78774000D01*
X62308000Y-79476000D01*
X62308000Y-79476000D01*
G37*
G36*
X87697000Y-79472000D02*
X86195000Y-79472000D01*
X86195000Y-78770000D01*
X87697000Y-78770000D01*
X87697000Y-79472000D01*
X87697000Y-79472000D01*
G37*
G36*
X73368000Y-79341000D02*
X72466000Y-79341000D01*
X72466000Y-78889000D01*
X73368000Y-78889000D01*
X73368000Y-79341000D01*
X73368000Y-79341000D01*
G37*
G36*
X83274000Y-79341000D02*
X82372000Y-79341000D01*
X82372000Y-78889000D01*
X83274000Y-78889000D01*
X83274000Y-79341000D01*
X83274000Y-79341000D01*
G37*
G36*
X99811000Y-78583000D02*
X98309000Y-78583000D01*
X98309000Y-77881000D01*
X99811000Y-77881000D01*
X99811000Y-78583000D01*
X99811000Y-78583000D01*
G37*
G36*
X79686000Y-78301000D02*
X78384000Y-78301000D01*
X78384000Y-77549000D01*
X79686000Y-77549000D01*
X79686000Y-78301000D01*
X79686000Y-78301000D01*
G37*
G36*
X77836000Y-78301000D02*
X75774000Y-78301000D01*
X75774000Y-77549000D01*
X77836000Y-77549000D01*
X77836000Y-78301000D01*
X77836000Y-78301000D01*
G37*
G36*
X89251000Y-77762000D02*
X88549000Y-77762000D01*
X88549000Y-76260000D01*
X89251000Y-76260000D01*
X89251000Y-77762000D01*
X89251000Y-77762000D01*
G37*
G36*
X96871000Y-77586000D02*
X96169000Y-77586000D01*
X96169000Y-76084000D01*
X96871000Y-76084000D01*
X96871000Y-77586000D01*
X96871000Y-77586000D01*
G37*
G36*
X56099000Y-77507000D02*
X55407000Y-77507000D01*
X55407000Y-76035000D01*
X56099000Y-76035000D01*
X56099000Y-77507000D01*
X56099000Y-77507000D01*
G37*
G36*
X54199000Y-77507000D02*
X53507000Y-77507000D01*
X53507000Y-76035000D01*
X54199000Y-76035000D01*
X54199000Y-77507000D01*
X54199000Y-77507000D01*
G37*
G36*
X44887635Y-74834019D02*
X45068903Y-74870075D01*
X45296571Y-74964378D01*
X45500542Y-75100668D01*
X45501469Y-75101287D01*
X45675713Y-75275531D01*
X45675715Y-75275534D01*
X45812622Y-75480429D01*
X45906925Y-75708097D01*
X45955000Y-75949787D01*
X45955000Y-76196213D01*
X45906925Y-76437903D01*
X45812622Y-76665571D01*
X45772244Y-76726000D01*
X45675713Y-76870469D01*
X45501469Y-77044713D01*
X45501466Y-77044715D01*
X45296571Y-77181622D01*
X45068903Y-77275925D01*
X44887635Y-77311981D01*
X44827214Y-77324000D01*
X44580786Y-77324000D01*
X44520365Y-77311981D01*
X44339097Y-77275925D01*
X44111429Y-77181622D01*
X43906534Y-77044715D01*
X43906531Y-77044713D01*
X43732287Y-76870469D01*
X43635756Y-76726000D01*
X43595378Y-76665571D01*
X43501075Y-76437903D01*
X43453000Y-76196213D01*
X43453000Y-75949787D01*
X43501075Y-75708097D01*
X43595378Y-75480429D01*
X43732285Y-75275534D01*
X43732287Y-75275531D01*
X43906531Y-75101287D01*
X43907458Y-75100668D01*
X44111429Y-74964378D01*
X44339097Y-74870075D01*
X44520365Y-74834019D01*
X44580786Y-74822000D01*
X44827214Y-74822000D01*
X44887635Y-74834019D01*
X44887635Y-74834019D01*
G37*
G36*
X49967635Y-74834019D02*
X50148903Y-74870075D01*
X50376571Y-74964378D01*
X50580542Y-75100668D01*
X50581469Y-75101287D01*
X50755713Y-75275531D01*
X50755715Y-75275534D01*
X50892622Y-75480429D01*
X50986925Y-75708097D01*
X51035000Y-75949787D01*
X51035000Y-76196213D01*
X50986925Y-76437903D01*
X50892622Y-76665571D01*
X50852244Y-76726000D01*
X50755713Y-76870469D01*
X50581469Y-77044713D01*
X50581466Y-77044715D01*
X50376571Y-77181622D01*
X50148903Y-77275925D01*
X49967635Y-77311981D01*
X49907214Y-77324000D01*
X49660786Y-77324000D01*
X49600365Y-77311981D01*
X49419097Y-77275925D01*
X49191429Y-77181622D01*
X48986534Y-77044715D01*
X48986531Y-77044713D01*
X48812287Y-76870469D01*
X48715756Y-76726000D01*
X48675378Y-76665571D01*
X48581075Y-76437903D01*
X48533000Y-76196213D01*
X48533000Y-75949787D01*
X48581075Y-75708097D01*
X48675378Y-75480429D01*
X48812285Y-75275534D01*
X48812287Y-75275531D01*
X48986531Y-75101287D01*
X48987458Y-75100668D01*
X49191429Y-74964378D01*
X49419097Y-74870075D01*
X49600365Y-74834019D01*
X49660786Y-74822000D01*
X49907214Y-74822000D01*
X49967635Y-74834019D01*
X49967635Y-74834019D01*
G37*
G36*
X92680000Y-76570000D02*
X91978000Y-76570000D01*
X91978000Y-75068000D01*
X92680000Y-75068000D01*
X92680000Y-76570000D01*
X92680000Y-76570000D01*
G37*
G36*
X94839000Y-76521000D02*
X94137000Y-76521000D01*
X94137000Y-75019000D01*
X94839000Y-75019000D01*
X94839000Y-76521000D01*
X94839000Y-76521000D01*
G37*
G36*
X80698000Y-76346000D02*
X79576000Y-76346000D01*
X79576000Y-73664000D01*
X80698000Y-73664000D01*
X80698000Y-76346000D01*
X80698000Y-76346000D01*
G37*
G36*
X75618000Y-76346000D02*
X74496000Y-76346000D01*
X74496000Y-73664000D01*
X75618000Y-73664000D01*
X75618000Y-76346000D01*
X75618000Y-76346000D01*
G37*
G36*
X110501000Y-75786000D02*
X105399000Y-75786000D01*
X105399000Y-72684000D01*
X110501000Y-72684000D01*
X110501000Y-75786000D01*
X110501000Y-75786000D01*
G37*
G36*
X92880000Y-72864000D02*
X91778000Y-72864000D01*
X91778000Y-71662000D01*
X92880000Y-71662000D01*
X92880000Y-72864000D01*
X92880000Y-72864000D01*
G37*
G36*
X54916414Y-69728879D02*
X54916416Y-69728880D01*
X54916417Y-69728880D01*
X55107594Y-69808068D01*
X55279651Y-69923033D01*
X55425967Y-70069349D01*
X55540932Y-70241406D01*
X55620121Y-70432586D01*
X55660490Y-70635534D01*
X55660490Y-70842466D01*
X55621994Y-71036000D01*
X55620120Y-71045417D01*
X55592058Y-71113165D01*
X55540932Y-71236594D01*
X55425967Y-71408651D01*
X55279651Y-71554967D01*
X55279648Y-71554969D01*
X55107594Y-71669932D01*
X54916417Y-71749120D01*
X54916416Y-71749120D01*
X54916414Y-71749121D01*
X54713466Y-71789490D01*
X54506534Y-71789490D01*
X54303586Y-71749121D01*
X54303584Y-71749120D01*
X54303583Y-71749120D01*
X54112406Y-71669932D01*
X53940352Y-71554969D01*
X53940349Y-71554967D01*
X53794033Y-71408651D01*
X53679068Y-71236594D01*
X53627942Y-71113165D01*
X53599880Y-71045417D01*
X53598007Y-71036000D01*
X53559510Y-70842466D01*
X53559510Y-70635534D01*
X53599879Y-70432586D01*
X53679068Y-70241406D01*
X53794033Y-70069349D01*
X53940349Y-69923033D01*
X54112406Y-69808068D01*
X54303583Y-69728880D01*
X54303584Y-69728880D01*
X54303586Y-69728879D01*
X54506534Y-69688510D01*
X54713466Y-69688510D01*
X54916414Y-69728879D01*
X54916414Y-69728879D01*
G37*
G36*
X58726414Y-69728879D02*
X58726416Y-69728880D01*
X58726417Y-69728880D01*
X58917594Y-69808068D01*
X59089651Y-69923033D01*
X59235967Y-70069349D01*
X59350932Y-70241406D01*
X59430121Y-70432586D01*
X59470490Y-70635534D01*
X59470490Y-70842466D01*
X59431994Y-71036000D01*
X59430120Y-71045417D01*
X59402058Y-71113165D01*
X59350932Y-71236594D01*
X59235967Y-71408651D01*
X59089651Y-71554967D01*
X59089648Y-71554969D01*
X58917594Y-71669932D01*
X58726417Y-71749120D01*
X58726416Y-71749120D01*
X58726414Y-71749121D01*
X58523466Y-71789490D01*
X58316534Y-71789490D01*
X58113586Y-71749121D01*
X58113584Y-71749120D01*
X58113583Y-71749120D01*
X57922406Y-71669932D01*
X57750352Y-71554969D01*
X57750349Y-71554967D01*
X57604033Y-71408651D01*
X57489068Y-71236594D01*
X57437942Y-71113165D01*
X57409880Y-71045417D01*
X57408007Y-71036000D01*
X57369510Y-70842466D01*
X57369510Y-70635534D01*
X57409879Y-70432586D01*
X57489068Y-70241406D01*
X57604033Y-70069349D01*
X57750349Y-69923033D01*
X57922406Y-69808068D01*
X58113583Y-69728880D01*
X58113584Y-69728880D01*
X58113586Y-69728879D01*
X58316534Y-69688510D01*
X58523466Y-69688510D01*
X58726414Y-69728879D01*
X58726414Y-69728879D01*
G37*
G36*
X110501000Y-71786000D02*
X105399000Y-71786000D01*
X105399000Y-69184000D01*
X110501000Y-69184000D01*
X110501000Y-71786000D01*
X110501000Y-71786000D01*
G37*
G36*
X92969000Y-71041925D02*
X92957165Y-71045515D01*
X92935554Y-71057066D01*
X92916612Y-71072612D01*
X92901066Y-71091554D01*
X92889515Y-71113165D01*
X92882402Y-71136614D01*
X92880000Y-71161000D01*
X92880000Y-71164000D01*
X91778000Y-71164000D01*
X91778000Y-71161000D01*
X91775598Y-71136614D01*
X91768485Y-71113165D01*
X91767000Y-71110387D01*
X91767000Y-69934000D01*
X92969000Y-69934000D01*
X92969000Y-71041925D01*
X92969000Y-71041925D01*
G37*
G36*
X94669000Y-71036000D02*
X93467000Y-71036000D01*
X93467000Y-69934000D01*
X94669000Y-69934000D01*
X94669000Y-71036000D01*
X94669000Y-71036000D01*
G37*
G36*
X90822232Y-68862843D02*
X90325843Y-69359232D01*
X89263768Y-68297157D01*
X89760157Y-67800768D01*
X90822232Y-68862843D01*
X90822232Y-68862843D01*
G37*
G36*
X75618000Y-68576000D02*
X74496000Y-68576000D01*
X74496000Y-65894000D01*
X75618000Y-65894000D01*
X75618000Y-68576000D01*
X75618000Y-68576000D01*
G37*
G36*
X80698000Y-68576000D02*
X79576000Y-68576000D01*
X79576000Y-65894000D01*
X80698000Y-65894000D01*
X80698000Y-68576000D01*
X80698000Y-68576000D01*
G37*
G36*
X110501000Y-68286000D02*
X105399000Y-68286000D01*
X105399000Y-65184000D01*
X110501000Y-65184000D01*
X110501000Y-68286000D01*
X110501000Y-68286000D01*
G37*
M02*
