G04 #@! TF.GenerationSoftware,KiCad,Pcbnew,5.0.2-bee76a0~70~ubuntu16.04.1*
G04 #@! TF.CreationDate,2019-01-24T21:22:35-05:00*
G04 #@! TF.ProjectId,pcb,7063622e-6b69-4636-9164-5f7063625858,v01*
G04 #@! TF.SameCoordinates,Original*
G04 #@! TF.FileFunction,Legend,Top*
G04 #@! TF.FilePolarity,Positive*
%FSLAX46Y46*%
G04 Gerber Fmt 4.6, Leading zero omitted, Abs format (unit mm)*
G04 Created by KiCad (PCBNEW 5.0.2-bee76a0~70~ubuntu16.04.1) date Thu 24 Jan 2019 09:22:35 PM EST*
%MOMM*%
%LPD*%
G01*
G04 APERTURE LIST*
%ADD10C,0.127000*%
%ADD11C,0.120000*%
%ADD12C,0.050000*%
%ADD13C,0.150000*%
G04 APERTURE END LIST*
D10*
G04 #@! TO.C,IN1*
X106351498Y-101827681D02*
G75*
G02X111612000Y-101853000I2607128J-4816911D01*
G01*
X104161942Y-109372600D02*
G75*
G02X104139000Y-104034000I4915015J2690471D01*
G01*
X111658600Y-111484058D02*
G75*
G02X106320000Y-111507000I-2690471J4915015D01*
G01*
X113795378Y-104061856D02*
G75*
G02X113817400Y-109296200I-4819268J-2637494D01*
G01*
G04 #@! TO.C,IN2*
X114049378Y-83741856D02*
G75*
G02X114071400Y-88976200I-4819268J-2637494D01*
G01*
X111912600Y-91164058D02*
G75*
G02X106574000Y-91187000I-2690471J4915015D01*
G01*
X104415942Y-89052600D02*
G75*
G02X104393000Y-83714000I4915015J2690471D01*
G01*
X106605498Y-81507681D02*
G75*
G02X111866000Y-81533000I2607128J-4816911D01*
G01*
D11*
G04 #@! TO.C,U1*
X107526000Y-99906000D02*
X105326000Y-99906000D01*
X107526000Y-97706000D02*
X104526000Y-97706000D01*
G04 #@! TO.C,U2*
X107526000Y-93134000D02*
X104526000Y-93134000D01*
X107526000Y-95334000D02*
X105326000Y-95334000D01*
G04 #@! TO.C,U3*
X114924000Y-96860000D02*
X116724000Y-96860000D01*
X116724000Y-93640000D02*
X114274000Y-93640000D01*
D10*
G04 #@! TO.C,C1*
X112151000Y-100114000D02*
X112151000Y-98514000D01*
X110861000Y-100114000D02*
X110861000Y-98514000D01*
G04 #@! TO.C,C2*
X112151000Y-93180000D02*
X112151000Y-94780000D01*
X110861000Y-93180000D02*
X110861000Y-94780000D01*
G04 #@! TO.C,C3*
X116548000Y-82692000D02*
X116248000Y-82692000D01*
X116548000Y-81392000D02*
X116248000Y-81392000D01*
G04 #@! TO.C,C4*
X101209000Y-92494000D02*
X101209000Y-90894000D01*
X102499000Y-92494000D02*
X102499000Y-90894000D01*
G04 #@! TO.C,C5*
X116086000Y-98270000D02*
X117086000Y-98270000D01*
X117086000Y-97310000D02*
X116086000Y-97310000D01*
G04 #@! TO.C,C6*
X116086000Y-110716000D02*
X117086000Y-110716000D01*
X117086000Y-109756000D02*
X116086000Y-109756000D01*
G04 #@! TO.C,IN1*
D12*
X103847055Y-101708332D02*
X103847055Y-100907387D01*
X104228457Y-101708332D02*
X104228457Y-100907387D01*
X104686140Y-101708332D01*
X104686140Y-100907387D01*
X105487085Y-101708332D02*
X105029402Y-101708332D01*
X105258243Y-101708332D02*
X105258243Y-100907387D01*
X105181963Y-101021807D01*
X105105682Y-101098088D01*
X105029402Y-101136228D01*
X105625625Y-107511818D02*
X105244598Y-107511818D01*
X105206496Y-107892845D01*
X105244598Y-107854743D01*
X105320804Y-107816640D01*
X105511317Y-107816640D01*
X105587523Y-107854743D01*
X105625625Y-107892845D01*
X105663728Y-107969051D01*
X105663728Y-108159564D01*
X105625625Y-108235770D01*
X105587523Y-108273873D01*
X105511317Y-108311975D01*
X105320804Y-108311975D01*
X105244598Y-108273873D01*
X105206496Y-108235770D01*
X106006653Y-108007154D02*
X106616296Y-108007154D01*
X107416453Y-108311975D02*
X106959220Y-108311975D01*
X107187837Y-108311975D02*
X107187837Y-107511818D01*
X107111631Y-107626126D01*
X107035426Y-107702332D01*
X106959220Y-107740435D01*
X108102302Y-107511818D02*
X107949891Y-107511818D01*
X107873686Y-107549921D01*
X107835583Y-107588024D01*
X107759377Y-107702332D01*
X107721275Y-107854743D01*
X107721275Y-108159564D01*
X107759377Y-108235770D01*
X107797480Y-108273873D01*
X107873686Y-108311975D01*
X108026096Y-108311975D01*
X108102302Y-108273873D01*
X108140405Y-108235770D01*
X108178507Y-108159564D01*
X108178507Y-107969051D01*
X108140405Y-107892845D01*
X108102302Y-107854743D01*
X108026096Y-107816640D01*
X107873686Y-107816640D01*
X107797480Y-107854743D01*
X107759377Y-107892845D01*
X107721275Y-107969051D01*
X108445226Y-107511818D02*
X108940562Y-107511818D01*
X108673843Y-107816640D01*
X108788151Y-107816640D01*
X108864356Y-107854743D01*
X108902459Y-107892845D01*
X108940562Y-107969051D01*
X108940562Y-108159564D01*
X108902459Y-108235770D01*
X108864356Y-108273873D01*
X108788151Y-108311975D01*
X108559534Y-108311975D01*
X108483329Y-108273873D01*
X108445226Y-108235770D01*
X109626410Y-107778537D02*
X109626410Y-108311975D01*
X109435897Y-107473716D02*
X109245383Y-108045256D01*
X109740719Y-108045256D01*
X110426567Y-107511818D02*
X110045540Y-107511818D01*
X110007438Y-107892845D01*
X110045540Y-107854743D01*
X110121746Y-107816640D01*
X110312259Y-107816640D01*
X110388465Y-107854743D01*
X110426567Y-107892845D01*
X110464670Y-107969051D01*
X110464670Y-108159564D01*
X110426567Y-108235770D01*
X110388465Y-108273873D01*
X110312259Y-108311975D01*
X110121746Y-108311975D01*
X110045540Y-108273873D01*
X110007438Y-108235770D01*
X110960005Y-107511818D02*
X111036211Y-107511818D01*
X111112416Y-107549921D01*
X111150519Y-107588024D01*
X111188622Y-107664229D01*
X111226724Y-107816640D01*
X111226724Y-108007154D01*
X111188622Y-108159564D01*
X111150519Y-108235770D01*
X111112416Y-108273873D01*
X111036211Y-108311975D01*
X110960005Y-108311975D01*
X110883800Y-108273873D01*
X110845697Y-108235770D01*
X110807595Y-108159564D01*
X110769492Y-108007154D01*
X110769492Y-107816640D01*
X110807595Y-107664229D01*
X110845697Y-107588024D01*
X110883800Y-107549921D01*
X110960005Y-107511818D01*
X111493443Y-107511818D02*
X111988779Y-107511818D01*
X111722060Y-107816640D01*
X111836368Y-107816640D01*
X111912573Y-107854743D01*
X111950676Y-107892845D01*
X111988779Y-107969051D01*
X111988779Y-108159564D01*
X111950676Y-108235770D01*
X111912573Y-108273873D01*
X111836368Y-108311975D01*
X111607752Y-108311975D01*
X111531546Y-108273873D01*
X111493443Y-108235770D01*
X112331703Y-108007154D02*
X112941347Y-108007154D01*
X113741504Y-108311975D02*
X113284271Y-108311975D01*
X113512887Y-108311975D02*
X113512887Y-107511818D01*
X113436682Y-107626126D01*
X113360476Y-107702332D01*
X113284271Y-107740435D01*
G04 #@! TO.C,IN2*
X104101055Y-81388332D02*
X104101055Y-80587387D01*
X104482457Y-81388332D02*
X104482457Y-80587387D01*
X104940140Y-81388332D01*
X104940140Y-80587387D01*
X105283402Y-80663667D02*
X105321542Y-80625527D01*
X105397823Y-80587387D01*
X105588524Y-80587387D01*
X105664804Y-80625527D01*
X105702945Y-80663667D01*
X105741085Y-80739948D01*
X105741085Y-80816228D01*
X105702945Y-80930649D01*
X105245262Y-81388332D01*
X105741085Y-81388332D01*
X105371625Y-87445818D02*
X104990598Y-87445818D01*
X104952496Y-87826845D01*
X104990598Y-87788743D01*
X105066804Y-87750640D01*
X105257317Y-87750640D01*
X105333523Y-87788743D01*
X105371625Y-87826845D01*
X105409728Y-87903051D01*
X105409728Y-88093564D01*
X105371625Y-88169770D01*
X105333523Y-88207873D01*
X105257317Y-88245975D01*
X105066804Y-88245975D01*
X104990598Y-88207873D01*
X104952496Y-88169770D01*
X105752653Y-87941154D02*
X106362296Y-87941154D01*
X107162453Y-88245975D02*
X106705220Y-88245975D01*
X106933837Y-88245975D02*
X106933837Y-87445818D01*
X106857631Y-87560126D01*
X106781426Y-87636332D01*
X106705220Y-87674435D01*
X107848302Y-87445818D02*
X107695891Y-87445818D01*
X107619686Y-87483921D01*
X107581583Y-87522024D01*
X107505377Y-87636332D01*
X107467275Y-87788743D01*
X107467275Y-88093564D01*
X107505377Y-88169770D01*
X107543480Y-88207873D01*
X107619686Y-88245975D01*
X107772096Y-88245975D01*
X107848302Y-88207873D01*
X107886405Y-88169770D01*
X107924507Y-88093564D01*
X107924507Y-87903051D01*
X107886405Y-87826845D01*
X107848302Y-87788743D01*
X107772096Y-87750640D01*
X107619686Y-87750640D01*
X107543480Y-87788743D01*
X107505377Y-87826845D01*
X107467275Y-87903051D01*
X108191226Y-87445818D02*
X108686562Y-87445818D01*
X108419843Y-87750640D01*
X108534151Y-87750640D01*
X108610356Y-87788743D01*
X108648459Y-87826845D01*
X108686562Y-87903051D01*
X108686562Y-88093564D01*
X108648459Y-88169770D01*
X108610356Y-88207873D01*
X108534151Y-88245975D01*
X108305534Y-88245975D01*
X108229329Y-88207873D01*
X108191226Y-88169770D01*
X109372410Y-87712537D02*
X109372410Y-88245975D01*
X109181897Y-87407716D02*
X108991383Y-87979256D01*
X109486719Y-87979256D01*
X110172567Y-87445818D02*
X109791540Y-87445818D01*
X109753438Y-87826845D01*
X109791540Y-87788743D01*
X109867746Y-87750640D01*
X110058259Y-87750640D01*
X110134465Y-87788743D01*
X110172567Y-87826845D01*
X110210670Y-87903051D01*
X110210670Y-88093564D01*
X110172567Y-88169770D01*
X110134465Y-88207873D01*
X110058259Y-88245975D01*
X109867746Y-88245975D01*
X109791540Y-88207873D01*
X109753438Y-88169770D01*
X110706005Y-87445818D02*
X110782211Y-87445818D01*
X110858416Y-87483921D01*
X110896519Y-87522024D01*
X110934622Y-87598229D01*
X110972724Y-87750640D01*
X110972724Y-87941154D01*
X110934622Y-88093564D01*
X110896519Y-88169770D01*
X110858416Y-88207873D01*
X110782211Y-88245975D01*
X110706005Y-88245975D01*
X110629800Y-88207873D01*
X110591697Y-88169770D01*
X110553595Y-88093564D01*
X110515492Y-87941154D01*
X110515492Y-87750640D01*
X110553595Y-87598229D01*
X110591697Y-87522024D01*
X110629800Y-87483921D01*
X110706005Y-87445818D01*
X111239443Y-87445818D02*
X111734779Y-87445818D01*
X111468060Y-87750640D01*
X111582368Y-87750640D01*
X111658573Y-87788743D01*
X111696676Y-87826845D01*
X111734779Y-87903051D01*
X111734779Y-88093564D01*
X111696676Y-88169770D01*
X111658573Y-88207873D01*
X111582368Y-88245975D01*
X111353752Y-88245975D01*
X111277546Y-88207873D01*
X111239443Y-88169770D01*
X112077703Y-87941154D02*
X112687347Y-87941154D01*
X113487504Y-88245975D02*
X113030271Y-88245975D01*
X113258887Y-88245975D02*
X113258887Y-87445818D01*
X113182682Y-87560126D01*
X113106476Y-87636332D01*
X113030271Y-87674435D01*
G04 #@! TO.C,RF1*
D13*
X116244761Y-105608380D02*
X115911428Y-105132190D01*
X115673333Y-105608380D02*
X115673333Y-104608380D01*
X116054285Y-104608380D01*
X116149523Y-104656000D01*
X116197142Y-104703619D01*
X116244761Y-104798857D01*
X116244761Y-104941714D01*
X116197142Y-105036952D01*
X116149523Y-105084571D01*
X116054285Y-105132190D01*
X115673333Y-105132190D01*
X117006666Y-105084571D02*
X116673333Y-105084571D01*
X116673333Y-105608380D02*
X116673333Y-104608380D01*
X117149523Y-104608380D01*
X118054285Y-105608380D02*
X117482857Y-105608380D01*
X117768571Y-105608380D02*
X117768571Y-104608380D01*
X117673333Y-104751238D01*
X117578095Y-104846476D01*
X117482857Y-104894095D01*
G04 #@! TO.C,RF2*
X116244761Y-84526380D02*
X115911428Y-84050190D01*
X115673333Y-84526380D02*
X115673333Y-83526380D01*
X116054285Y-83526380D01*
X116149523Y-83574000D01*
X116197142Y-83621619D01*
X116244761Y-83716857D01*
X116244761Y-83859714D01*
X116197142Y-83954952D01*
X116149523Y-84002571D01*
X116054285Y-84050190D01*
X115673333Y-84050190D01*
X117006666Y-84002571D02*
X116673333Y-84002571D01*
X116673333Y-84526380D02*
X116673333Y-83526380D01*
X117149523Y-83526380D01*
X117482857Y-83621619D02*
X117530476Y-83574000D01*
X117625714Y-83526380D01*
X117863809Y-83526380D01*
X117959047Y-83574000D01*
X118006666Y-83621619D01*
X118054285Y-83716857D01*
X118054285Y-83812095D01*
X118006666Y-83954952D01*
X117435238Y-84526380D01*
X118054285Y-84526380D01*
G04 #@! TO.C,SDO1*
X99814285Y-103528761D02*
X99957142Y-103576380D01*
X100195238Y-103576380D01*
X100290476Y-103528761D01*
X100338095Y-103481142D01*
X100385714Y-103385904D01*
X100385714Y-103290666D01*
X100338095Y-103195428D01*
X100290476Y-103147809D01*
X100195238Y-103100190D01*
X100004761Y-103052571D01*
X99909523Y-103004952D01*
X99861904Y-102957333D01*
X99814285Y-102862095D01*
X99814285Y-102766857D01*
X99861904Y-102671619D01*
X99909523Y-102624000D01*
X100004761Y-102576380D01*
X100242857Y-102576380D01*
X100385714Y-102624000D01*
X100814285Y-103576380D02*
X100814285Y-102576380D01*
X101052380Y-102576380D01*
X101195238Y-102624000D01*
X101290476Y-102719238D01*
X101338095Y-102814476D01*
X101385714Y-103004952D01*
X101385714Y-103147809D01*
X101338095Y-103338285D01*
X101290476Y-103433523D01*
X101195238Y-103528761D01*
X101052380Y-103576380D01*
X100814285Y-103576380D01*
X102004761Y-102576380D02*
X102195238Y-102576380D01*
X102290476Y-102624000D01*
X102385714Y-102719238D01*
X102433333Y-102909714D01*
X102433333Y-103243047D01*
X102385714Y-103433523D01*
X102290476Y-103528761D01*
X102195238Y-103576380D01*
X102004761Y-103576380D01*
X101909523Y-103528761D01*
X101814285Y-103433523D01*
X101766666Y-103243047D01*
X101766666Y-102909714D01*
X101814285Y-102719238D01*
X101909523Y-102624000D01*
X102004761Y-102576380D01*
X103385714Y-103576380D02*
X102814285Y-103576380D01*
X103100000Y-103576380D02*
X103100000Y-102576380D01*
X103004761Y-102719238D01*
X102909523Y-102814476D01*
X102814285Y-102862095D01*
G04 #@! TO.C,~CS1*
X99639619Y-106781000D02*
X100639619Y-106781000D01*
X100449142Y-108053142D02*
X100401523Y-108100761D01*
X100258666Y-108148380D01*
X100163428Y-108148380D01*
X100020571Y-108100761D01*
X99925333Y-108005523D01*
X99877714Y-107910285D01*
X99830095Y-107719809D01*
X99830095Y-107576952D01*
X99877714Y-107386476D01*
X99925333Y-107291238D01*
X100020571Y-107196000D01*
X100163428Y-107148380D01*
X100258666Y-107148380D01*
X100401523Y-107196000D01*
X100449142Y-107243619D01*
X100639619Y-106781000D02*
X101592000Y-106781000D01*
X100830095Y-108100761D02*
X100972952Y-108148380D01*
X101211047Y-108148380D01*
X101306285Y-108100761D01*
X101353904Y-108053142D01*
X101401523Y-107957904D01*
X101401523Y-107862666D01*
X101353904Y-107767428D01*
X101306285Y-107719809D01*
X101211047Y-107672190D01*
X101020571Y-107624571D01*
X100925333Y-107576952D01*
X100877714Y-107529333D01*
X100830095Y-107434095D01*
X100830095Y-107338857D01*
X100877714Y-107243619D01*
X100925333Y-107196000D01*
X101020571Y-107148380D01*
X101258666Y-107148380D01*
X101401523Y-107196000D01*
X101592000Y-106781000D02*
X102544380Y-106781000D01*
X102353904Y-108148380D02*
X101782476Y-108148380D01*
X102068190Y-108148380D02*
X102068190Y-107148380D01*
X101972952Y-107291238D01*
X101877714Y-107386476D01*
X101782476Y-107434095D01*
G04 #@! TO.C,SDO2*
X99814285Y-81938761D02*
X99957142Y-81986380D01*
X100195238Y-81986380D01*
X100290476Y-81938761D01*
X100338095Y-81891142D01*
X100385714Y-81795904D01*
X100385714Y-81700666D01*
X100338095Y-81605428D01*
X100290476Y-81557809D01*
X100195238Y-81510190D01*
X100004761Y-81462571D01*
X99909523Y-81414952D01*
X99861904Y-81367333D01*
X99814285Y-81272095D01*
X99814285Y-81176857D01*
X99861904Y-81081619D01*
X99909523Y-81034000D01*
X100004761Y-80986380D01*
X100242857Y-80986380D01*
X100385714Y-81034000D01*
X100814285Y-81986380D02*
X100814285Y-80986380D01*
X101052380Y-80986380D01*
X101195238Y-81034000D01*
X101290476Y-81129238D01*
X101338095Y-81224476D01*
X101385714Y-81414952D01*
X101385714Y-81557809D01*
X101338095Y-81748285D01*
X101290476Y-81843523D01*
X101195238Y-81938761D01*
X101052380Y-81986380D01*
X100814285Y-81986380D01*
X102004761Y-80986380D02*
X102195238Y-80986380D01*
X102290476Y-81034000D01*
X102385714Y-81129238D01*
X102433333Y-81319714D01*
X102433333Y-81653047D01*
X102385714Y-81843523D01*
X102290476Y-81938761D01*
X102195238Y-81986380D01*
X102004761Y-81986380D01*
X101909523Y-81938761D01*
X101814285Y-81843523D01*
X101766666Y-81653047D01*
X101766666Y-81319714D01*
X101814285Y-81129238D01*
X101909523Y-81034000D01*
X102004761Y-80986380D01*
X102814285Y-81081619D02*
X102861904Y-81034000D01*
X102957142Y-80986380D01*
X103195238Y-80986380D01*
X103290476Y-81034000D01*
X103338095Y-81081619D01*
X103385714Y-81176857D01*
X103385714Y-81272095D01*
X103338095Y-81414952D01*
X102766666Y-81986380D01*
X103385714Y-81986380D01*
G04 #@! TO.C,~CS2*
X99639619Y-85191000D02*
X100639619Y-85191000D01*
X100449142Y-86463142D02*
X100401523Y-86510761D01*
X100258666Y-86558380D01*
X100163428Y-86558380D01*
X100020571Y-86510761D01*
X99925333Y-86415523D01*
X99877714Y-86320285D01*
X99830095Y-86129809D01*
X99830095Y-85986952D01*
X99877714Y-85796476D01*
X99925333Y-85701238D01*
X100020571Y-85606000D01*
X100163428Y-85558380D01*
X100258666Y-85558380D01*
X100401523Y-85606000D01*
X100449142Y-85653619D01*
X100639619Y-85191000D02*
X101592000Y-85191000D01*
X100830095Y-86510761D02*
X100972952Y-86558380D01*
X101211047Y-86558380D01*
X101306285Y-86510761D01*
X101353904Y-86463142D01*
X101401523Y-86367904D01*
X101401523Y-86272666D01*
X101353904Y-86177428D01*
X101306285Y-86129809D01*
X101211047Y-86082190D01*
X101020571Y-86034571D01*
X100925333Y-85986952D01*
X100877714Y-85939333D01*
X100830095Y-85844095D01*
X100830095Y-85748857D01*
X100877714Y-85653619D01*
X100925333Y-85606000D01*
X101020571Y-85558380D01*
X101258666Y-85558380D01*
X101401523Y-85606000D01*
X101592000Y-85191000D02*
X102544380Y-85191000D01*
X101782476Y-85653619D02*
X101830095Y-85606000D01*
X101925333Y-85558380D01*
X102163428Y-85558380D01*
X102258666Y-85606000D01*
X102306285Y-85653619D01*
X102353904Y-85748857D01*
X102353904Y-85844095D01*
X102306285Y-85986952D01*
X101734857Y-86558380D01*
X102353904Y-86558380D01*
G04 #@! TO.C,SCLK*
X99909523Y-99210761D02*
X100052380Y-99258380D01*
X100290476Y-99258380D01*
X100385714Y-99210761D01*
X100433333Y-99163142D01*
X100480952Y-99067904D01*
X100480952Y-98972666D01*
X100433333Y-98877428D01*
X100385714Y-98829809D01*
X100290476Y-98782190D01*
X100100000Y-98734571D01*
X100004761Y-98686952D01*
X99957142Y-98639333D01*
X99909523Y-98544095D01*
X99909523Y-98448857D01*
X99957142Y-98353619D01*
X100004761Y-98306000D01*
X100100000Y-98258380D01*
X100338095Y-98258380D01*
X100480952Y-98306000D01*
X101480952Y-99163142D02*
X101433333Y-99210761D01*
X101290476Y-99258380D01*
X101195238Y-99258380D01*
X101052380Y-99210761D01*
X100957142Y-99115523D01*
X100909523Y-99020285D01*
X100861904Y-98829809D01*
X100861904Y-98686952D01*
X100909523Y-98496476D01*
X100957142Y-98401238D01*
X101052380Y-98306000D01*
X101195238Y-98258380D01*
X101290476Y-98258380D01*
X101433333Y-98306000D01*
X101480952Y-98353619D01*
X102385714Y-99258380D02*
X101909523Y-99258380D01*
X101909523Y-98258380D01*
X102719047Y-99258380D02*
X102719047Y-98258380D01*
X103290476Y-99258380D02*
X102861904Y-98686952D01*
X103290476Y-98258380D02*
X102719047Y-98829809D01*
G04 #@! TO.C,U1*
X105664095Y-96258380D02*
X105664095Y-97067904D01*
X105711714Y-97163142D01*
X105759333Y-97210761D01*
X105854571Y-97258380D01*
X106045047Y-97258380D01*
X106140285Y-97210761D01*
X106187904Y-97163142D01*
X106235523Y-97067904D01*
X106235523Y-96258380D01*
X107235523Y-97258380D02*
X106664095Y-97258380D01*
X106949809Y-97258380D02*
X106949809Y-96258380D01*
X106854571Y-96401238D01*
X106759333Y-96496476D01*
X106664095Y-96544095D01*
G04 #@! TO.C,U2*
X105664095Y-91686380D02*
X105664095Y-92495904D01*
X105711714Y-92591142D01*
X105759333Y-92638761D01*
X105854571Y-92686380D01*
X106045047Y-92686380D01*
X106140285Y-92638761D01*
X106187904Y-92591142D01*
X106235523Y-92495904D01*
X106235523Y-91686380D01*
X106664095Y-91781619D02*
X106711714Y-91734000D01*
X106806952Y-91686380D01*
X107045047Y-91686380D01*
X107140285Y-91734000D01*
X107187904Y-91781619D01*
X107235523Y-91876857D01*
X107235523Y-91972095D01*
X107187904Y-92114952D01*
X106616476Y-92686380D01*
X107235523Y-92686380D01*
G04 #@! TO.C,U3*
X113792095Y-92162380D02*
X113792095Y-92971904D01*
X113839714Y-93067142D01*
X113887333Y-93114761D01*
X113982571Y-93162380D01*
X114173047Y-93162380D01*
X114268285Y-93114761D01*
X114315904Y-93067142D01*
X114363523Y-92971904D01*
X114363523Y-92162380D01*
X114744476Y-92162380D02*
X115363523Y-92162380D01*
X115030190Y-92543333D01*
X115173047Y-92543333D01*
X115268285Y-92590952D01*
X115315904Y-92638571D01*
X115363523Y-92733809D01*
X115363523Y-92971904D01*
X115315904Y-93067142D01*
X115268285Y-93114761D01*
X115173047Y-93162380D01*
X114887333Y-93162380D01*
X114792095Y-93114761D01*
X114744476Y-93067142D01*
G04 #@! TO.C,C1*
D12*
X110479060Y-99537142D02*
X110501952Y-99560034D01*
X110524844Y-99628710D01*
X110524844Y-99674494D01*
X110501952Y-99743170D01*
X110456168Y-99788954D01*
X110410384Y-99811846D01*
X110318816Y-99834738D01*
X110250140Y-99834738D01*
X110158572Y-99811846D01*
X110112788Y-99788954D01*
X110067004Y-99743170D01*
X110044112Y-99674494D01*
X110044112Y-99628710D01*
X110067004Y-99560034D01*
X110089896Y-99537142D01*
X110524844Y-99079302D02*
X110524844Y-99354006D01*
X110524844Y-99216654D02*
X110044112Y-99216654D01*
X110112788Y-99262438D01*
X110158572Y-99308222D01*
X110181464Y-99354006D01*
X112943591Y-99266959D02*
X112943591Y-99541482D01*
X112943591Y-99404221D02*
X112463175Y-99404221D01*
X112531805Y-99449974D01*
X112577559Y-99495728D01*
X112600436Y-99541482D01*
X112623313Y-98855174D02*
X112943591Y-98855174D01*
X112623313Y-99061066D02*
X112874960Y-99061066D01*
X112920714Y-99038189D01*
X112943591Y-98992435D01*
X112943591Y-98923805D01*
X112920714Y-98878051D01*
X112897837Y-98855174D01*
G04 #@! TO.C,C2*
X112876320Y-93917102D02*
X112899212Y-93939994D01*
X112922104Y-94008670D01*
X112922104Y-94054454D01*
X112899212Y-94123130D01*
X112853428Y-94168914D01*
X112807644Y-94191806D01*
X112716076Y-94214698D01*
X112647400Y-94214698D01*
X112555832Y-94191806D01*
X112510048Y-94168914D01*
X112464264Y-94123130D01*
X112441372Y-94054454D01*
X112441372Y-94008670D01*
X112464264Y-93939994D01*
X112487156Y-93917102D01*
X112487156Y-93733966D02*
X112464264Y-93711074D01*
X112441372Y-93665290D01*
X112441372Y-93550830D01*
X112464264Y-93505046D01*
X112487156Y-93482154D01*
X112532940Y-93459262D01*
X112578724Y-93459262D01*
X112647400Y-93482154D01*
X112922104Y-93756858D01*
X112922104Y-93459262D01*
X110503071Y-94060069D02*
X110503071Y-94334592D01*
X110503071Y-94197331D02*
X110022655Y-94197331D01*
X110091285Y-94243084D01*
X110137039Y-94288838D01*
X110159916Y-94334592D01*
X110182793Y-93648284D02*
X110503071Y-93648284D01*
X110182793Y-93854176D02*
X110434440Y-93854176D01*
X110480194Y-93831299D01*
X110503071Y-93785545D01*
X110503071Y-93716915D01*
X110480194Y-93671161D01*
X110457317Y-93648284D01*
G04 #@! TO.C,C3*
X114703013Y-83790971D02*
X114673016Y-83820968D01*
X114583028Y-83850964D01*
X114523035Y-83850964D01*
X114433047Y-83820968D01*
X114373054Y-83760975D01*
X114343058Y-83700983D01*
X114313062Y-83580998D01*
X114313062Y-83491009D01*
X114343058Y-83371024D01*
X114373054Y-83311031D01*
X114433047Y-83251039D01*
X114523035Y-83221043D01*
X114583028Y-83221043D01*
X114673016Y-83251039D01*
X114703013Y-83281035D01*
X114912986Y-83221043D02*
X115302937Y-83221043D01*
X115092964Y-83461013D01*
X115182952Y-83461013D01*
X115242945Y-83491009D01*
X115272941Y-83521005D01*
X115302937Y-83580998D01*
X115302937Y-83730979D01*
X115272941Y-83790971D01*
X115242945Y-83820968D01*
X115182952Y-83850964D01*
X115002975Y-83850964D01*
X114942983Y-83820968D01*
X114912986Y-83790971D01*
X112519095Y-80681043D02*
X112579088Y-80681043D01*
X112639080Y-80711039D01*
X112669077Y-80741035D01*
X112699073Y-80801028D01*
X112729069Y-80921013D01*
X112729069Y-81070994D01*
X112699073Y-81190979D01*
X112669077Y-81250971D01*
X112639080Y-81280968D01*
X112579088Y-81310964D01*
X112519095Y-81310964D01*
X112459103Y-81280968D01*
X112429107Y-81250971D01*
X112399110Y-81190979D01*
X112369114Y-81070994D01*
X112369114Y-80921013D01*
X112399110Y-80801028D01*
X112429107Y-80741035D01*
X112459103Y-80711039D01*
X112519095Y-80681043D01*
X112999035Y-81250971D02*
X113029031Y-81280968D01*
X112999035Y-81310964D01*
X112969039Y-81280968D01*
X112999035Y-81250971D01*
X112999035Y-81310964D01*
X113628956Y-81310964D02*
X113269001Y-81310964D01*
X113448979Y-81310964D02*
X113448979Y-80681043D01*
X113388986Y-80771031D01*
X113328994Y-80831024D01*
X113269001Y-80861020D01*
X114168889Y-80891016D02*
X114168889Y-81310964D01*
X113898922Y-80891016D02*
X113898922Y-81220975D01*
X113928919Y-81280968D01*
X113988911Y-81310964D01*
X114078900Y-81310964D01*
X114138892Y-81280968D01*
X114168889Y-81250971D01*
G04 #@! TO.C,C4*
X100827060Y-91917142D02*
X100849952Y-91940034D01*
X100872844Y-92008710D01*
X100872844Y-92054494D01*
X100849952Y-92123170D01*
X100804168Y-92168954D01*
X100758384Y-92191846D01*
X100666816Y-92214738D01*
X100598140Y-92214738D01*
X100506572Y-92191846D01*
X100460788Y-92168954D01*
X100415004Y-92123170D01*
X100392112Y-92054494D01*
X100392112Y-92008710D01*
X100415004Y-91940034D01*
X100437896Y-91917142D01*
X100552356Y-91505086D02*
X100872844Y-91505086D01*
X100369220Y-91619546D02*
X100712600Y-91734006D01*
X100712600Y-91436410D01*
X103291591Y-91646959D02*
X103291591Y-91921482D01*
X103291591Y-91784221D02*
X102811175Y-91784221D01*
X102879805Y-91829974D01*
X102925559Y-91875728D01*
X102948436Y-91921482D01*
X102971313Y-91235174D02*
X103291591Y-91235174D01*
X102971313Y-91441066D02*
X103222960Y-91441066D01*
X103268714Y-91418189D01*
X103291591Y-91372435D01*
X103291591Y-91303805D01*
X103268714Y-91258051D01*
X103245837Y-91235174D01*
G04 #@! TO.C,C5*
X116737574Y-98634599D02*
X116726057Y-98646116D01*
X116691506Y-98657633D01*
X116668472Y-98657633D01*
X116633922Y-98646116D01*
X116610888Y-98623082D01*
X116599371Y-98600048D01*
X116587854Y-98553981D01*
X116587854Y-98519430D01*
X116599371Y-98473363D01*
X116610888Y-98450329D01*
X116633922Y-98427296D01*
X116668472Y-98415779D01*
X116691506Y-98415779D01*
X116726057Y-98427296D01*
X116737574Y-98438812D01*
X116956394Y-98415779D02*
X116841225Y-98415779D01*
X116829708Y-98530947D01*
X116841225Y-98519430D01*
X116864259Y-98507914D01*
X116921843Y-98507914D01*
X116944877Y-98519430D01*
X116956394Y-98530947D01*
X116967911Y-98553981D01*
X116967911Y-98611565D01*
X116956394Y-98634599D01*
X116944877Y-98646116D01*
X116921843Y-98657633D01*
X116864259Y-98657633D01*
X116841225Y-98646116D01*
X116829708Y-98634599D01*
X116215473Y-96803491D02*
X116238504Y-96803491D01*
X116261536Y-96815007D01*
X116273052Y-96826523D01*
X116284568Y-96849555D01*
X116296084Y-96895618D01*
X116296084Y-96953197D01*
X116284568Y-96999261D01*
X116273052Y-97022292D01*
X116261536Y-97033808D01*
X116238504Y-97045324D01*
X116215473Y-97045324D01*
X116192441Y-97033808D01*
X116180925Y-97022292D01*
X116169409Y-96999261D01*
X116157893Y-96953197D01*
X116157893Y-96895618D01*
X116169409Y-96849555D01*
X116180925Y-96826523D01*
X116192441Y-96815007D01*
X116215473Y-96803491D01*
X116399726Y-97022292D02*
X116411242Y-97033808D01*
X116399726Y-97045324D01*
X116388210Y-97033808D01*
X116399726Y-97022292D01*
X116399726Y-97045324D01*
X116560948Y-96803491D02*
X116583980Y-96803491D01*
X116607012Y-96815007D01*
X116618528Y-96826523D01*
X116630043Y-96849555D01*
X116641559Y-96895618D01*
X116641559Y-96953197D01*
X116630043Y-96999261D01*
X116618528Y-97022292D01*
X116607012Y-97033808D01*
X116583980Y-97045324D01*
X116560948Y-97045324D01*
X116537917Y-97033808D01*
X116526401Y-97022292D01*
X116514885Y-96999261D01*
X116503369Y-96953197D01*
X116503369Y-96895618D01*
X116514885Y-96849555D01*
X116526401Y-96826523D01*
X116537917Y-96815007D01*
X116560948Y-96803491D01*
X116871876Y-97045324D02*
X116733686Y-97045324D01*
X116802781Y-97045324D02*
X116802781Y-96803491D01*
X116779750Y-96838039D01*
X116756718Y-96861070D01*
X116733686Y-96872586D01*
X117079162Y-96884102D02*
X117079162Y-97045324D01*
X116975519Y-96884102D02*
X116975519Y-97010777D01*
X116987035Y-97033808D01*
X117010067Y-97045324D01*
X117044614Y-97045324D01*
X117067646Y-97033808D01*
X117079162Y-97022292D01*
G04 #@! TO.C,C6*
X116737574Y-111080599D02*
X116726057Y-111092116D01*
X116691506Y-111103633D01*
X116668472Y-111103633D01*
X116633922Y-111092116D01*
X116610888Y-111069082D01*
X116599371Y-111046048D01*
X116587854Y-110999981D01*
X116587854Y-110965430D01*
X116599371Y-110919363D01*
X116610888Y-110896329D01*
X116633922Y-110873296D01*
X116668472Y-110861779D01*
X116691506Y-110861779D01*
X116726057Y-110873296D01*
X116737574Y-110884812D01*
X116944877Y-110861779D02*
X116898810Y-110861779D01*
X116875776Y-110873296D01*
X116864259Y-110884812D01*
X116841225Y-110919363D01*
X116829708Y-110965430D01*
X116829708Y-111057565D01*
X116841225Y-111080599D01*
X116852742Y-111092116D01*
X116875776Y-111103633D01*
X116921843Y-111103633D01*
X116944877Y-111092116D01*
X116956394Y-111080599D01*
X116967911Y-111057565D01*
X116967911Y-110999981D01*
X116956394Y-110976947D01*
X116944877Y-110965430D01*
X116921843Y-110953914D01*
X116875776Y-110953914D01*
X116852742Y-110965430D01*
X116841225Y-110976947D01*
X116829708Y-110999981D01*
X116273052Y-109272523D02*
X116284568Y-109261007D01*
X116307599Y-109249491D01*
X116365179Y-109249491D01*
X116388210Y-109261007D01*
X116399726Y-109272523D01*
X116411242Y-109295555D01*
X116411242Y-109318586D01*
X116399726Y-109353134D01*
X116261536Y-109491324D01*
X116411242Y-109491324D01*
X116514885Y-109468292D02*
X116526401Y-109479808D01*
X116514885Y-109491324D01*
X116503369Y-109479808D01*
X116514885Y-109468292D01*
X116514885Y-109491324D01*
X116618528Y-109272523D02*
X116630043Y-109261007D01*
X116653075Y-109249491D01*
X116710654Y-109249491D01*
X116733686Y-109261007D01*
X116745202Y-109272523D01*
X116756718Y-109295555D01*
X116756718Y-109318586D01*
X116745202Y-109353134D01*
X116607012Y-109491324D01*
X116756718Y-109491324D01*
X116964003Y-109330102D02*
X116964003Y-109491324D01*
X116860361Y-109330102D02*
X116860361Y-109456777D01*
X116871876Y-109479808D01*
X116894908Y-109491324D01*
X116929456Y-109491324D01*
X116952487Y-109479808D01*
X116964003Y-109468292D01*
G04 #@! TO.C,AVIN*
D13*
X115411428Y-88812666D02*
X115887619Y-88812666D01*
X115316190Y-89098380D02*
X115649523Y-88098380D01*
X115982857Y-89098380D01*
X116173333Y-88098380D02*
X116506666Y-89098380D01*
X116840000Y-88098380D01*
X117173333Y-89098380D02*
X117173333Y-88098380D01*
X117649523Y-89098380D02*
X117649523Y-88098380D01*
X118220952Y-89098380D01*
X118220952Y-88098380D01*
G04 #@! TO.C,DVDD*
X99909523Y-94940380D02*
X99909523Y-93940380D01*
X100147619Y-93940380D01*
X100290476Y-93988000D01*
X100385714Y-94083238D01*
X100433333Y-94178476D01*
X100480952Y-94368952D01*
X100480952Y-94511809D01*
X100433333Y-94702285D01*
X100385714Y-94797523D01*
X100290476Y-94892761D01*
X100147619Y-94940380D01*
X99909523Y-94940380D01*
X100766666Y-93940380D02*
X101100000Y-94940380D01*
X101433333Y-93940380D01*
X101766666Y-94940380D02*
X101766666Y-93940380D01*
X102004761Y-93940380D01*
X102147619Y-93988000D01*
X102242857Y-94083238D01*
X102290476Y-94178476D01*
X102338095Y-94368952D01*
X102338095Y-94511809D01*
X102290476Y-94702285D01*
X102242857Y-94797523D01*
X102147619Y-94892761D01*
X102004761Y-94940380D01*
X101766666Y-94940380D01*
X102766666Y-94940380D02*
X102766666Y-93940380D01*
X103004761Y-93940380D01*
X103147619Y-93988000D01*
X103242857Y-94083238D01*
X103290476Y-94178476D01*
X103338095Y-94368952D01*
X103338095Y-94511809D01*
X103290476Y-94702285D01*
X103242857Y-94797523D01*
X103147619Y-94892761D01*
X103004761Y-94940380D01*
X102766666Y-94940380D01*
G04 #@! TO.C,AVOUT*
X113982761Y-101004666D02*
X114458952Y-101004666D01*
X113887523Y-101290380D02*
X114220857Y-100290380D01*
X114554190Y-101290380D01*
X114744666Y-100290380D02*
X115078000Y-101290380D01*
X115411333Y-100290380D01*
X115935142Y-100290380D02*
X116125619Y-100290380D01*
X116220857Y-100338000D01*
X116316095Y-100433238D01*
X116363714Y-100623714D01*
X116363714Y-100957047D01*
X116316095Y-101147523D01*
X116220857Y-101242761D01*
X116125619Y-101290380D01*
X115935142Y-101290380D01*
X115839904Y-101242761D01*
X115744666Y-101147523D01*
X115697047Y-100957047D01*
X115697047Y-100623714D01*
X115744666Y-100433238D01*
X115839904Y-100338000D01*
X115935142Y-100290380D01*
X116792285Y-100290380D02*
X116792285Y-101099904D01*
X116839904Y-101195142D01*
X116887523Y-101242761D01*
X116982761Y-101290380D01*
X117173238Y-101290380D01*
X117268476Y-101242761D01*
X117316095Y-101195142D01*
X117363714Y-101099904D01*
X117363714Y-100290380D01*
X117697047Y-100290380D02*
X118268476Y-100290380D01*
X117982761Y-101290380D02*
X117982761Y-100290380D01*
G04 #@! TD*
M02*
