G04 #@! TF.GenerationSoftware,KiCad,Pcbnew,5.0.2-bee76a0~70~ubuntu16.04.1*
G04 #@! TF.CreationDate,2019-01-24T21:22:35-05:00*
G04 #@! TF.ProjectId,pcb,7063622e-6b69-4636-9164-5f7063625858,v01*
G04 #@! TF.SameCoordinates,Original*
G04 #@! TF.FileFunction,Soldermask,Top*
G04 #@! TF.FilePolarity,Negative*
%FSLAX46Y46*%
G04 Gerber Fmt 4.6, Leading zero omitted, Abs format (unit mm)*
G04 Created by KiCad (PCBNEW 5.0.2-bee76a0~70~ubuntu16.04.1) date Thu 24 Jan 2019 09:22:35 PM EST*
%MOMM*%
%LPD*%
G01*
G04 APERTURE LIST*
%ADD10C,1.751600*%
%ADD11C,2.501600*%
%ADD12C,2.100580*%
%ADD13R,0.901600X0.401600*%
%ADD14R,1.161600X0.751600*%
%ADD15R,1.031600X1.031600*%
%ADD16R,1.401600X1.601600*%
%ADD17R,0.641600X0.701600*%
G04 APERTURE END LIST*
D10*
G04 #@! TO.C,IN1*
X108966000Y-106680000D03*
D11*
X105836000Y-103550000D03*
X112096000Y-103550000D03*
X112096000Y-109810000D03*
X105836000Y-109810000D03*
G04 #@! TD*
G04 #@! TO.C,IN2*
X106090000Y-89490000D03*
X112350000Y-89490000D03*
X112350000Y-83230000D03*
X106090000Y-83230000D03*
D10*
X109220000Y-86360000D03*
G04 #@! TD*
D12*
G04 #@! TO.C,RF1*
X116840000Y-107442000D03*
G04 #@! TD*
G04 #@! TO.C,RF2*
X116840000Y-86106000D03*
G04 #@! TD*
G04 #@! TO.C,SDO1*
X101092000Y-105156000D03*
G04 #@! TD*
G04 #@! TO.C,~CS1*
X101092000Y-109728000D03*
G04 #@! TD*
G04 #@! TO.C,SDO2*
X101092000Y-83566000D03*
G04 #@! TD*
G04 #@! TO.C,~CS2*
X101092000Y-88138000D03*
G04 #@! TD*
G04 #@! TO.C,SCLK*
X101092000Y-100838000D03*
G04 #@! TD*
D13*
G04 #@! TO.C,U1*
X104876000Y-98056000D03*
X104876000Y-98556000D03*
X104876000Y-99056000D03*
X104876000Y-99556000D03*
X107976000Y-99556000D03*
X107976000Y-99056000D03*
X107976000Y-98556000D03*
X107976000Y-98056000D03*
G04 #@! TD*
G04 #@! TO.C,U2*
X107976000Y-93484000D03*
X107976000Y-93984000D03*
X107976000Y-94484000D03*
X107976000Y-94984000D03*
X104876000Y-94984000D03*
X104876000Y-94484000D03*
X104876000Y-93984000D03*
X104876000Y-93484000D03*
G04 #@! TD*
D14*
G04 #@! TO.C,U3*
X114724000Y-94300000D03*
X114724000Y-95250000D03*
X114724000Y-96200000D03*
X116924000Y-96200000D03*
X116924000Y-94300000D03*
G04 #@! TD*
D15*
G04 #@! TO.C,C1*
X111506000Y-98564000D03*
X111506000Y-100064000D03*
G04 #@! TD*
G04 #@! TO.C,C2*
X111506000Y-93230000D03*
X111506000Y-94730000D03*
G04 #@! TD*
D16*
G04 #@! TO.C,C3*
X117348000Y-82042000D03*
X115448000Y-82042000D03*
G04 #@! TD*
D15*
G04 #@! TO.C,C4*
X101854000Y-92444000D03*
X101854000Y-90944000D03*
G04 #@! TD*
D17*
G04 #@! TO.C,C5*
X117016000Y-97790000D03*
X116156000Y-97790000D03*
G04 #@! TD*
G04 #@! TO.C,C6*
X117016000Y-110236000D03*
X116156000Y-110236000D03*
G04 #@! TD*
D12*
G04 #@! TO.C,AVIN*
X116840000Y-90678000D03*
G04 #@! TD*
G04 #@! TO.C,DVDD*
X101092000Y-96520000D03*
G04 #@! TD*
G04 #@! TO.C,AVOUT*
X116840000Y-102870000D03*
G04 #@! TD*
M02*
