G04 #@! TF.GenerationSoftware,KiCad,Pcbnew,5.0.2-bee76a0~70~ubuntu16.04.1*
G04 #@! TF.CreationDate,2019-01-24T21:22:35-05:00*
G04 #@! TF.ProjectId,pcb,7063622e-6b69-4636-9164-5f7063625858,v01*
G04 #@! TF.SameCoordinates,Original*
G04 #@! TF.FileFunction,Copper,L1,Top*
G04 #@! TF.FilePolarity,Positive*
%FSLAX46Y46*%
G04 Gerber Fmt 4.6, Leading zero omitted, Abs format (unit mm)*
G04 Created by KiCad (PCBNEW 5.0.2-bee76a0~70~ubuntu16.04.1) date Thu 24 Jan 2019 09:22:35 PM EST*
%MOMM*%
%LPD*%
G01*
G04 APERTURE LIST*
G04 #@! TA.AperFunction,ComponentPad*
%ADD10C,1.650000*%
G04 #@! TD*
G04 #@! TA.AperFunction,ComponentPad*
%ADD11C,2.400000*%
G04 #@! TD*
G04 #@! TA.AperFunction,ComponentPad*
%ADD12C,1.998980*%
G04 #@! TD*
G04 #@! TA.AperFunction,SMDPad,CuDef*
%ADD13R,0.800000X0.300000*%
G04 #@! TD*
G04 #@! TA.AperFunction,SMDPad,CuDef*
%ADD14R,1.060000X0.650000*%
G04 #@! TD*
G04 #@! TA.AperFunction,SMDPad,CuDef*
%ADD15R,0.930000X0.930000*%
G04 #@! TD*
G04 #@! TA.AperFunction,SMDPad,CuDef*
%ADD16R,1.300000X1.500000*%
G04 #@! TD*
G04 #@! TA.AperFunction,SMDPad,CuDef*
%ADD17R,0.540000X0.600000*%
G04 #@! TD*
G04 #@! TA.AperFunction,ViaPad*
%ADD18C,0.685800*%
G04 #@! TD*
G04 #@! TA.AperFunction,Conductor*
%ADD19C,0.355600*%
G04 #@! TD*
G04 #@! TA.AperFunction,Conductor*
%ADD20C,0.152400*%
G04 #@! TD*
G04 #@! TA.AperFunction,Conductor*
%ADD21C,0.254000*%
G04 #@! TD*
G04 #@! TA.AperFunction,Conductor*
%ADD22C,0.762000*%
G04 #@! TD*
G04 APERTURE END LIST*
D10*
G04 #@! TO.P,IN1,1*
G04 #@! TO.N,Net-(C1-Pad1)*
X108966000Y-106680000D03*
D11*
G04 #@! TO.P,IN1,2*
G04 #@! TO.N,GND*
X105836000Y-103550000D03*
G04 #@! TO.P,IN1,3*
X112096000Y-103550000D03*
G04 #@! TO.P,IN1,4*
X112096000Y-109810000D03*
G04 #@! TO.P,IN1,5*
X105836000Y-109810000D03*
G04 #@! TD*
G04 #@! TO.P,IN2,5*
G04 #@! TO.N,GND*
X106090000Y-89490000D03*
G04 #@! TO.P,IN2,4*
X112350000Y-89490000D03*
G04 #@! TO.P,IN2,3*
X112350000Y-83230000D03*
G04 #@! TO.P,IN2,2*
X106090000Y-83230000D03*
D10*
G04 #@! TO.P,IN2,1*
G04 #@! TO.N,Net-(C2-Pad1)*
X109220000Y-86360000D03*
G04 #@! TD*
D12*
G04 #@! TO.P,RF1,1*
G04 #@! TO.N,Net-(C1-Pad2)*
X116840000Y-107442000D03*
G04 #@! TD*
G04 #@! TO.P,RF2,1*
G04 #@! TO.N,Net-(C2-Pad2)*
X116840000Y-86106000D03*
G04 #@! TD*
G04 #@! TO.P,SDO1,1*
G04 #@! TO.N,Net-(J5-Pad1)*
X101092000Y-105156000D03*
G04 #@! TD*
G04 #@! TO.P,~CS1,1*
G04 #@! TO.N,Net-(J6-Pad1)*
X101092000Y-109728000D03*
G04 #@! TD*
G04 #@! TO.P,SDO2,1*
G04 #@! TO.N,Net-(J7-Pad1)*
X101092000Y-83566000D03*
G04 #@! TD*
G04 #@! TO.P,~CS2,1*
G04 #@! TO.N,Net-(J8-Pad1)*
X101092000Y-88138000D03*
G04 #@! TD*
G04 #@! TO.P,SCLK,1*
G04 #@! TO.N,Net-(J9-Pad1)*
X101092000Y-100838000D03*
G04 #@! TD*
D13*
G04 #@! TO.P,U1,1*
G04 #@! TO.N,VDD*
X104876000Y-98056000D03*
G04 #@! TO.P,U1,2*
G04 #@! TO.N,Net-(J9-Pad1)*
X104876000Y-98556000D03*
G04 #@! TO.P,U1,3*
G04 #@! TO.N,Net-(J5-Pad1)*
X104876000Y-99056000D03*
G04 #@! TO.P,U1,4*
G04 #@! TO.N,Net-(J6-Pad1)*
X104876000Y-99556000D03*
G04 #@! TO.P,U1,5*
G04 #@! TO.N,GND*
X107976000Y-99556000D03*
G04 #@! TO.P,U1,6*
G04 #@! TO.N,Net-(C1-Pad2)*
X107976000Y-99056000D03*
G04 #@! TO.P,U1,7*
G04 #@! TO.N,VAA*
X107976000Y-98556000D03*
G04 #@! TO.P,U1,8*
G04 #@! TO.N,GND*
X107976000Y-98056000D03*
G04 #@! TD*
G04 #@! TO.P,U2,8*
G04 #@! TO.N,GND*
X107976000Y-93484000D03*
G04 #@! TO.P,U2,7*
G04 #@! TO.N,VAA*
X107976000Y-93984000D03*
G04 #@! TO.P,U2,6*
G04 #@! TO.N,Net-(C2-Pad2)*
X107976000Y-94484000D03*
G04 #@! TO.P,U2,5*
G04 #@! TO.N,GND*
X107976000Y-94984000D03*
G04 #@! TO.P,U2,4*
G04 #@! TO.N,Net-(J8-Pad1)*
X104876000Y-94984000D03*
G04 #@! TO.P,U2,3*
G04 #@! TO.N,Net-(J7-Pad1)*
X104876000Y-94484000D03*
G04 #@! TO.P,U2,2*
G04 #@! TO.N,Net-(J9-Pad1)*
X104876000Y-93984000D03*
G04 #@! TO.P,U2,1*
G04 #@! TO.N,VDD*
X104876000Y-93484000D03*
G04 #@! TD*
D14*
G04 #@! TO.P,U3,1*
G04 #@! TO.N,Net-(C3-Pad1)*
X114724000Y-94300000D03*
G04 #@! TO.P,U3,2*
G04 #@! TO.N,GND*
X114724000Y-95250000D03*
G04 #@! TO.P,U3,3*
G04 #@! TO.N,Net-(C3-Pad1)*
X114724000Y-96200000D03*
G04 #@! TO.P,U3,4*
G04 #@! TO.N,Net-(C5-Pad1)*
X116924000Y-96200000D03*
G04 #@! TO.P,U3,5*
G04 #@! TO.N,VAA*
X116924000Y-94300000D03*
G04 #@! TD*
D15*
G04 #@! TO.P,C1,2*
G04 #@! TO.N,Net-(C1-Pad2)*
X111506000Y-98564000D03*
G04 #@! TO.P,C1,1*
G04 #@! TO.N,Net-(C1-Pad1)*
X111506000Y-100064000D03*
G04 #@! TD*
G04 #@! TO.P,C2,1*
G04 #@! TO.N,Net-(C2-Pad1)*
X111506000Y-93230000D03*
G04 #@! TO.P,C2,2*
G04 #@! TO.N,Net-(C2-Pad2)*
X111506000Y-94730000D03*
G04 #@! TD*
D16*
G04 #@! TO.P,C3,1*
G04 #@! TO.N,Net-(C3-Pad1)*
X117348000Y-82042000D03*
G04 #@! TO.P,C3,2*
G04 #@! TO.N,GND*
X115448000Y-82042000D03*
G04 #@! TD*
D15*
G04 #@! TO.P,C4,1*
G04 #@! TO.N,VDD*
X101854000Y-92444000D03*
G04 #@! TO.P,C4,2*
G04 #@! TO.N,GND*
X101854000Y-90944000D03*
G04 #@! TD*
D17*
G04 #@! TO.P,C5,1*
G04 #@! TO.N,Net-(C5-Pad1)*
X117016000Y-97790000D03*
G04 #@! TO.P,C5,2*
G04 #@! TO.N,GND*
X116156000Y-97790000D03*
G04 #@! TD*
G04 #@! TO.P,C6,1*
G04 #@! TO.N,VAA*
X117016000Y-110236000D03*
G04 #@! TO.P,C6,2*
G04 #@! TO.N,GND*
X116156000Y-110236000D03*
G04 #@! TD*
D12*
G04 #@! TO.P,AVIN,1*
G04 #@! TO.N,Net-(C3-Pad1)*
X116840000Y-90678000D03*
G04 #@! TD*
G04 #@! TO.P,DVDD,1*
G04 #@! TO.N,VDD*
X101092000Y-96520000D03*
G04 #@! TD*
G04 #@! TO.P,AVOUT,1*
G04 #@! TO.N,VAA*
X116840000Y-102870000D03*
G04 #@! TD*
D18*
G04 #@! TO.N,GND*
X110236000Y-88392000D03*
X108204000Y-88646000D03*
X110236000Y-89662000D03*
X108458000Y-90678000D03*
X109220000Y-91440000D03*
X112014000Y-91694000D03*
X108204000Y-89662000D03*
X108204000Y-87630000D03*
X109982000Y-92202000D03*
X110236000Y-93472000D03*
X109220000Y-93472000D03*
X112776000Y-100330000D03*
X113030000Y-101092000D03*
X113284000Y-102108000D03*
X114808000Y-99822000D03*
X115062000Y-101092000D03*
X115062000Y-102362000D03*
X115062000Y-103632000D03*
X115316000Y-104648000D03*
X116078000Y-105664000D03*
X115062000Y-107188000D03*
X114300000Y-106172000D03*
X113538000Y-105410000D03*
X113538000Y-93726000D03*
X114046000Y-92456000D03*
X114300000Y-90170000D03*
X114300000Y-88900000D03*
X114300000Y-87630000D03*
X115062000Y-86868000D03*
X116078000Y-88138000D03*
X115824000Y-89154000D03*
X114808000Y-91694000D03*
X115062000Y-97790000D03*
X113284000Y-95250000D03*
X109982000Y-101854000D03*
X109474000Y-100076000D03*
X108458000Y-100838000D03*
X108204000Y-102108000D03*
X108204000Y-103378000D03*
X108204000Y-104648000D03*
X109982000Y-105156000D03*
X109982000Y-103886000D03*
X109982000Y-102870000D03*
G04 #@! TO.N,VDD*
X104902000Y-92456000D03*
G04 #@! TO.N,GND*
X100330000Y-90932000D03*
X104140000Y-101346000D03*
X103886000Y-102108000D03*
X103124000Y-102870000D03*
X103124000Y-102108000D03*
X101600000Y-102616000D03*
X105156000Y-96012000D03*
X105156000Y-97028000D03*
X103124000Y-95758000D03*
X102362000Y-94742000D03*
X101600000Y-85598000D03*
X102616000Y-86360000D03*
X102870000Y-87630000D03*
X102870000Y-88900000D03*
X104648000Y-87376000D03*
X104648000Y-85852000D03*
X103886000Y-84836000D03*
X103124000Y-84074000D03*
X103378000Y-104902000D03*
X103378000Y-106172000D03*
X103378000Y-107442000D03*
X101600000Y-106934000D03*
X101600000Y-107950000D03*
X103378000Y-108712000D03*
X103124000Y-101346000D03*
X103886000Y-100584000D03*
X101600000Y-103378000D03*
G04 #@! TO.N,VAA*
X106934000Y-98552000D03*
X106934000Y-93980000D03*
G04 #@! TO.N,VDD*
X101092000Y-93980000D03*
G04 #@! TD*
D19*
G04 #@! TO.N,Net-(C1-Pad1)*
X110685400Y-100064000D02*
X111506000Y-100064000D01*
X108966000Y-101783400D02*
X110685400Y-100064000D01*
X108966000Y-106680000D02*
X108966000Y-101783400D01*
D20*
G04 #@! TO.N,GND*
X113194000Y-88646000D02*
X112350000Y-89490000D01*
D21*
X108115000Y-95123000D02*
X107976000Y-94984000D01*
X109156500Y-95123000D02*
X108115000Y-95123000D01*
X107976000Y-98056000D02*
X107976000Y-94984000D01*
D19*
G04 #@! TO.N,Net-(C2-Pad1)*
X109220000Y-87526726D02*
X109220000Y-86360000D01*
X109220000Y-90123400D02*
X109220000Y-87526726D01*
X111506000Y-92409400D02*
X109220000Y-90123400D01*
X111506000Y-93230000D02*
X111506000Y-92409400D01*
D22*
G04 #@! TO.N,VAA*
X117016000Y-110206000D02*
X117016000Y-110236000D01*
X118372891Y-108849109D02*
X117016000Y-110206000D01*
X117129000Y-94300000D02*
X116924000Y-94300000D01*
X118372891Y-95543891D02*
X117129000Y-94300000D01*
X118372891Y-102870000D02*
X116840000Y-102870000D01*
X118372891Y-108849109D02*
X118372891Y-102870000D01*
X118372891Y-102870000D02*
X118372891Y-95543891D01*
D21*
X106938000Y-98556000D02*
X106934000Y-98552000D01*
X107976000Y-98556000D02*
X106938000Y-98556000D01*
X106938000Y-93984000D02*
X106934000Y-93980000D01*
X107976000Y-93984000D02*
X106938000Y-93984000D01*
D20*
G04 #@! TO.N,Net-(J5-Pad1)*
X102091489Y-104156511D02*
X101092000Y-105156000D01*
X102320091Y-103927909D02*
X102091489Y-104156511D01*
X102320091Y-101059509D02*
X102320091Y-103927909D01*
X104323600Y-99056000D02*
X102320091Y-101059509D01*
X104876000Y-99056000D02*
X104323600Y-99056000D01*
G04 #@! TO.N,Net-(J6-Pad1)*
X102091489Y-108728511D02*
X101092000Y-109728000D01*
X102320091Y-104689909D02*
X102320091Y-108499909D01*
X102320091Y-108499909D02*
X102091489Y-108728511D01*
X104876000Y-102134000D02*
X102320091Y-104689909D01*
X104876000Y-99556000D02*
X104876000Y-102134000D01*
D21*
G04 #@! TO.N,Net-(J7-Pad1)*
X104876000Y-94484000D02*
X104144000Y-94484000D01*
X104144000Y-94484000D02*
X103632000Y-93972000D01*
X103632000Y-86106000D02*
X101092000Y-83566000D01*
X103632000Y-93972000D02*
X103632000Y-86106000D01*
D22*
G04 #@! TO.N,VDD*
X101092000Y-93206000D02*
X101854000Y-92444000D01*
X101092000Y-96520000D02*
X101092000Y-93980000D01*
X101092000Y-93980000D02*
X101092000Y-93206000D01*
X104902000Y-92456000D02*
X104902000Y-93300599D01*
D19*
X102628000Y-98056000D02*
X101092000Y-96520000D01*
X104876000Y-98056000D02*
X102628000Y-98056000D01*
G04 #@! TO.N,Net-(C1-Pad2)*
X110685400Y-98564000D02*
X110193400Y-99056000D01*
X108731600Y-99056000D02*
X107976000Y-99056000D01*
X110193400Y-99056000D02*
X108731600Y-99056000D01*
X111506000Y-98564000D02*
X110685400Y-98564000D01*
X112326600Y-98564000D02*
X111506000Y-98564000D01*
X114046000Y-100283400D02*
X112326600Y-98564000D01*
X114046000Y-104648000D02*
X116840000Y-107442000D01*
X114046000Y-100283400D02*
X114046000Y-104648000D01*
G04 #@! TO.N,Net-(C2-Pad2)*
X110439400Y-94484000D02*
X108731600Y-94484000D01*
X110685400Y-94730000D02*
X110439400Y-94484000D01*
X111506000Y-94730000D02*
X110685400Y-94730000D01*
X112026000Y-94730000D02*
X111506000Y-94730000D01*
X112776000Y-93980000D02*
X112026000Y-94730000D01*
X116840000Y-86106000D02*
X115062000Y-87884000D01*
X115062000Y-87884000D02*
X115062000Y-90424000D01*
X115062000Y-90424000D02*
X112776000Y-92710000D01*
X112776000Y-92710000D02*
X112776000Y-93980000D01*
D20*
X108731600Y-94484000D02*
X107976000Y-94484000D01*
D22*
G04 #@! TO.N,Net-(C3-Pad1)*
X115227000Y-92710000D02*
X114724000Y-93213000D01*
X117602000Y-92710000D02*
X115227000Y-92710000D01*
X114724000Y-93213000D02*
X114724000Y-94300000D01*
X117348000Y-82042000D02*
X117348000Y-83554000D01*
X117348000Y-83554000D02*
X118618000Y-84824000D01*
X118618000Y-91694000D02*
X117602000Y-92710000D01*
X116840000Y-90678000D02*
X118618000Y-90678000D01*
X118618000Y-90678000D02*
X118618000Y-91694000D01*
X118618000Y-84824000D02*
X118618000Y-90678000D01*
D20*
X115406400Y-94300000D02*
X114724000Y-94300000D01*
X114724000Y-96200000D02*
X115406400Y-96200000D01*
X115824000Y-95782400D02*
X115824000Y-94717600D01*
X115406400Y-96200000D02*
X115824000Y-95782400D01*
X115824000Y-94717600D02*
X115406400Y-94300000D01*
D19*
G04 #@! TO.N,Net-(C5-Pad1)*
X116924000Y-97698000D02*
X117016000Y-97790000D01*
X116924000Y-96200000D02*
X116924000Y-97698000D01*
D21*
G04 #@! TO.N,Net-(J8-Pad1)*
X104069250Y-94984000D02*
X104057250Y-94996000D01*
X104876000Y-94984000D02*
X104069250Y-94984000D01*
X104057250Y-94996000D02*
X103378000Y-94996000D01*
X103378000Y-94996000D02*
X103124000Y-94742000D01*
X103124000Y-90170000D02*
X101092000Y-88138000D01*
X103124000Y-94742000D02*
X103124000Y-90170000D01*
D20*
G04 #@! TO.N,Net-(J9-Pad1)*
X103374000Y-98556000D02*
X101092000Y-100838000D01*
X104876000Y-98556000D02*
X103374000Y-98556000D01*
X104876000Y-98556000D02*
X105428400Y-98556000D01*
X105428400Y-98556000D02*
X105918000Y-98066400D01*
X105918000Y-98066400D02*
X105918000Y-94473600D01*
X105428400Y-93984000D02*
X104876000Y-93984000D01*
X105918000Y-94473600D02*
X105428400Y-93984000D01*
G04 #@! TD*
D21*
G04 #@! TO.N,GND*
G36*
X106210100Y-98695993D02*
X106320307Y-98962056D01*
X106523944Y-99165693D01*
X106790007Y-99275900D01*
X106942570Y-99275900D01*
X106941000Y-99279691D01*
X106941000Y-99322250D01*
X107099750Y-99481000D01*
X107301784Y-99481000D01*
X107427341Y-99564894D01*
X107576000Y-99594464D01*
X107818728Y-99594464D01*
X107920965Y-99614800D01*
X108123000Y-99614800D01*
X108123000Y-99631000D01*
X108103000Y-99631000D01*
X108103000Y-100182250D01*
X108261750Y-100341000D01*
X108502310Y-100341000D01*
X108735699Y-100244327D01*
X108914327Y-100065698D01*
X109011000Y-99832309D01*
X109011000Y-99789750D01*
X108904252Y-99683002D01*
X109011000Y-99683002D01*
X109011000Y-99614800D01*
X110138365Y-99614800D01*
X110193400Y-99625747D01*
X110248435Y-99614800D01*
X110395702Y-99585507D01*
X110375509Y-99599000D01*
X110282528Y-99661128D01*
X110251354Y-99707783D01*
X108609787Y-101349352D01*
X108563129Y-101380528D01*
X108531954Y-101427185D01*
X108439622Y-101565368D01*
X108396253Y-101783400D01*
X108407201Y-101838440D01*
X108407200Y-105606098D01*
X108282856Y-105657603D01*
X107943603Y-105996856D01*
X107760000Y-106440112D01*
X107760000Y-106919888D01*
X107943603Y-107363144D01*
X108282856Y-107702397D01*
X108726112Y-107886000D01*
X109205888Y-107886000D01*
X109649144Y-107702397D01*
X109988397Y-107363144D01*
X110172000Y-106919888D01*
X110172000Y-106440112D01*
X109988397Y-105996856D01*
X109649144Y-105657603D01*
X109524800Y-105606098D01*
X109524800Y-104847175D01*
X110978430Y-104847175D01*
X111101565Y-105134788D01*
X111783734Y-105394707D01*
X112513443Y-105373786D01*
X113090435Y-105134788D01*
X113213570Y-104847175D01*
X112096000Y-103729605D01*
X110978430Y-104847175D01*
X109524800Y-104847175D01*
X109524800Y-103237734D01*
X110251293Y-103237734D01*
X110272214Y-103967443D01*
X110511212Y-104544435D01*
X110798825Y-104667570D01*
X111916395Y-103550000D01*
X110798825Y-102432430D01*
X110511212Y-102555565D01*
X110251293Y-103237734D01*
X109524800Y-103237734D01*
X109524800Y-102252825D01*
X110978430Y-102252825D01*
X112096000Y-103370395D01*
X113213570Y-102252825D01*
X113090435Y-101965212D01*
X112408266Y-101705293D01*
X111678557Y-101726214D01*
X111101565Y-101965212D01*
X110978430Y-102252825D01*
X109524800Y-102252825D01*
X109524800Y-102014861D01*
X110754163Y-100785500D01*
X110766314Y-100803686D01*
X110892341Y-100887894D01*
X111041000Y-100917464D01*
X111971000Y-100917464D01*
X112119659Y-100887894D01*
X112245686Y-100803686D01*
X112329894Y-100677659D01*
X112359464Y-100529000D01*
X112359464Y-99599000D01*
X112329894Y-99450341D01*
X112245686Y-99324314D01*
X112230250Y-99314000D01*
X112245686Y-99303686D01*
X112257838Y-99285499D01*
X113487200Y-100514863D01*
X113487201Y-102472685D01*
X113393175Y-102432430D01*
X112275605Y-103550000D01*
X113393175Y-104667570D01*
X113479731Y-104630513D01*
X113476253Y-104648000D01*
X113519622Y-104866032D01*
X113564944Y-104933861D01*
X113643129Y-105050872D01*
X113689787Y-105082048D01*
X115551956Y-106944219D01*
X115459510Y-107167404D01*
X115459510Y-107716596D01*
X115669677Y-108223985D01*
X116058015Y-108612323D01*
X116565404Y-108822490D01*
X117114596Y-108822490D01*
X117468450Y-108675919D01*
X116758120Y-109386250D01*
X116552310Y-109301000D01*
X116441750Y-109301000D01*
X116283000Y-109459750D01*
X116283000Y-109985160D01*
X116254000Y-110130953D01*
X116254000Y-110130957D01*
X116239073Y-110206000D01*
X116254000Y-110281043D01*
X116254000Y-110311048D01*
X116283000Y-110456841D01*
X116283000Y-111012250D01*
X116441750Y-111171000D01*
X116552310Y-111171000D01*
X116785699Y-111074327D01*
X116875120Y-110984905D01*
X117016000Y-111012928D01*
X117313317Y-110953788D01*
X117387385Y-110904297D01*
X117434659Y-110894894D01*
X117560686Y-110810686D01*
X117644894Y-110684659D01*
X117650078Y-110658598D01*
X117668292Y-110631338D01*
X118732301Y-109567330D01*
X118732301Y-112382300D01*
X99961700Y-112382300D01*
X99961700Y-110550008D01*
X100310015Y-110898323D01*
X100817404Y-111108490D01*
X101366596Y-111108490D01*
X101369770Y-111107175D01*
X104718430Y-111107175D01*
X104841565Y-111394788D01*
X105523734Y-111654707D01*
X106253443Y-111633786D01*
X106830435Y-111394788D01*
X106953570Y-111107175D01*
X110978430Y-111107175D01*
X111101565Y-111394788D01*
X111783734Y-111654707D01*
X112513443Y-111633786D01*
X113090435Y-111394788D01*
X113213570Y-111107175D01*
X112096000Y-109989605D01*
X110978430Y-111107175D01*
X106953570Y-111107175D01*
X105836000Y-109989605D01*
X104718430Y-111107175D01*
X101369770Y-111107175D01*
X101873985Y-110898323D01*
X102262323Y-110509985D01*
X102472490Y-110002596D01*
X102472490Y-109497734D01*
X103991293Y-109497734D01*
X104012214Y-110227443D01*
X104251212Y-110804435D01*
X104538825Y-110927570D01*
X105656395Y-109810000D01*
X106015605Y-109810000D01*
X107133175Y-110927570D01*
X107420788Y-110804435D01*
X107680707Y-110122266D01*
X107662802Y-109497734D01*
X110251293Y-109497734D01*
X110272214Y-110227443D01*
X110511212Y-110804435D01*
X110798825Y-110927570D01*
X111916395Y-109810000D01*
X112275605Y-109810000D01*
X113393175Y-110927570D01*
X113680788Y-110804435D01*
X113788496Y-110521750D01*
X115251000Y-110521750D01*
X115251000Y-110662309D01*
X115347673Y-110895698D01*
X115526301Y-111074327D01*
X115759690Y-111171000D01*
X115870250Y-111171000D01*
X116029000Y-111012250D01*
X116029000Y-110363000D01*
X115409750Y-110363000D01*
X115251000Y-110521750D01*
X113788496Y-110521750D01*
X113940707Y-110122266D01*
X113931746Y-109809691D01*
X115251000Y-109809691D01*
X115251000Y-109950250D01*
X115409750Y-110109000D01*
X116029000Y-110109000D01*
X116029000Y-109459750D01*
X115870250Y-109301000D01*
X115759690Y-109301000D01*
X115526301Y-109397673D01*
X115347673Y-109576302D01*
X115251000Y-109809691D01*
X113931746Y-109809691D01*
X113919786Y-109392557D01*
X113680788Y-108815565D01*
X113393175Y-108692430D01*
X112275605Y-109810000D01*
X111916395Y-109810000D01*
X110798825Y-108692430D01*
X110511212Y-108815565D01*
X110251293Y-109497734D01*
X107662802Y-109497734D01*
X107659786Y-109392557D01*
X107420788Y-108815565D01*
X107133175Y-108692430D01*
X106015605Y-109810000D01*
X105656395Y-109810000D01*
X104538825Y-108692430D01*
X104251212Y-108815565D01*
X103991293Y-109497734D01*
X102472490Y-109497734D01*
X102472490Y-109453404D01*
X102337960Y-109128619D01*
X102446619Y-109019960D01*
X102446621Y-109019957D01*
X102611537Y-108855041D01*
X102649714Y-108829532D01*
X102750764Y-108678300D01*
X102777291Y-108544939D01*
X102783678Y-108512825D01*
X104718430Y-108512825D01*
X105836000Y-109630395D01*
X106953570Y-108512825D01*
X110978430Y-108512825D01*
X112096000Y-109630395D01*
X113213570Y-108512825D01*
X113090435Y-108225212D01*
X112408266Y-107965293D01*
X111678557Y-107986214D01*
X111101565Y-108225212D01*
X110978430Y-108512825D01*
X106953570Y-108512825D01*
X106830435Y-108225212D01*
X106148266Y-107965293D01*
X105418557Y-107986214D01*
X104841565Y-108225212D01*
X104718430Y-108512825D01*
X102783678Y-108512825D01*
X102786248Y-108499910D01*
X102777291Y-108454880D01*
X102777291Y-104879287D01*
X102809403Y-104847175D01*
X104718430Y-104847175D01*
X104841565Y-105134788D01*
X105523734Y-105394707D01*
X106253443Y-105373786D01*
X106830435Y-105134788D01*
X106953570Y-104847175D01*
X105836000Y-103729605D01*
X104718430Y-104847175D01*
X102809403Y-104847175D01*
X104003209Y-103653369D01*
X104012214Y-103967443D01*
X104251212Y-104544435D01*
X104538825Y-104667570D01*
X105656395Y-103550000D01*
X106015605Y-103550000D01*
X107133175Y-104667570D01*
X107420788Y-104544435D01*
X107680707Y-103862266D01*
X107659786Y-103132557D01*
X107420788Y-102555565D01*
X107133175Y-102432430D01*
X106015605Y-103550000D01*
X105656395Y-103550000D01*
X105642253Y-103535858D01*
X105821858Y-103356253D01*
X105836000Y-103370395D01*
X106953570Y-102252825D01*
X106830435Y-101965212D01*
X106148266Y-101705293D01*
X105418557Y-101726214D01*
X105333200Y-101761570D01*
X105333200Y-100083086D01*
X105424659Y-100064894D01*
X105550686Y-99980686D01*
X105634894Y-99854659D01*
X105647805Y-99789750D01*
X106941000Y-99789750D01*
X106941000Y-99832309D01*
X107037673Y-100065698D01*
X107216301Y-100244327D01*
X107449690Y-100341000D01*
X107690250Y-100341000D01*
X107849000Y-100182250D01*
X107849000Y-99631000D01*
X107099750Y-99631000D01*
X106941000Y-99789750D01*
X105647805Y-99789750D01*
X105664464Y-99706000D01*
X105664464Y-99406000D01*
X105644573Y-99306000D01*
X105664464Y-99206000D01*
X105664464Y-98948137D01*
X105758023Y-98885623D01*
X105783532Y-98847446D01*
X106209449Y-98421530D01*
X106210100Y-98421095D01*
X106210100Y-98695993D01*
X106210100Y-98695993D01*
G37*
X106210100Y-98695993D02*
X106320307Y-98962056D01*
X106523944Y-99165693D01*
X106790007Y-99275900D01*
X106942570Y-99275900D01*
X106941000Y-99279691D01*
X106941000Y-99322250D01*
X107099750Y-99481000D01*
X107301784Y-99481000D01*
X107427341Y-99564894D01*
X107576000Y-99594464D01*
X107818728Y-99594464D01*
X107920965Y-99614800D01*
X108123000Y-99614800D01*
X108123000Y-99631000D01*
X108103000Y-99631000D01*
X108103000Y-100182250D01*
X108261750Y-100341000D01*
X108502310Y-100341000D01*
X108735699Y-100244327D01*
X108914327Y-100065698D01*
X109011000Y-99832309D01*
X109011000Y-99789750D01*
X108904252Y-99683002D01*
X109011000Y-99683002D01*
X109011000Y-99614800D01*
X110138365Y-99614800D01*
X110193400Y-99625747D01*
X110248435Y-99614800D01*
X110395702Y-99585507D01*
X110375509Y-99599000D01*
X110282528Y-99661128D01*
X110251354Y-99707783D01*
X108609787Y-101349352D01*
X108563129Y-101380528D01*
X108531954Y-101427185D01*
X108439622Y-101565368D01*
X108396253Y-101783400D01*
X108407201Y-101838440D01*
X108407200Y-105606098D01*
X108282856Y-105657603D01*
X107943603Y-105996856D01*
X107760000Y-106440112D01*
X107760000Y-106919888D01*
X107943603Y-107363144D01*
X108282856Y-107702397D01*
X108726112Y-107886000D01*
X109205888Y-107886000D01*
X109649144Y-107702397D01*
X109988397Y-107363144D01*
X110172000Y-106919888D01*
X110172000Y-106440112D01*
X109988397Y-105996856D01*
X109649144Y-105657603D01*
X109524800Y-105606098D01*
X109524800Y-104847175D01*
X110978430Y-104847175D01*
X111101565Y-105134788D01*
X111783734Y-105394707D01*
X112513443Y-105373786D01*
X113090435Y-105134788D01*
X113213570Y-104847175D01*
X112096000Y-103729605D01*
X110978430Y-104847175D01*
X109524800Y-104847175D01*
X109524800Y-103237734D01*
X110251293Y-103237734D01*
X110272214Y-103967443D01*
X110511212Y-104544435D01*
X110798825Y-104667570D01*
X111916395Y-103550000D01*
X110798825Y-102432430D01*
X110511212Y-102555565D01*
X110251293Y-103237734D01*
X109524800Y-103237734D01*
X109524800Y-102252825D01*
X110978430Y-102252825D01*
X112096000Y-103370395D01*
X113213570Y-102252825D01*
X113090435Y-101965212D01*
X112408266Y-101705293D01*
X111678557Y-101726214D01*
X111101565Y-101965212D01*
X110978430Y-102252825D01*
X109524800Y-102252825D01*
X109524800Y-102014861D01*
X110754163Y-100785500D01*
X110766314Y-100803686D01*
X110892341Y-100887894D01*
X111041000Y-100917464D01*
X111971000Y-100917464D01*
X112119659Y-100887894D01*
X112245686Y-100803686D01*
X112329894Y-100677659D01*
X112359464Y-100529000D01*
X112359464Y-99599000D01*
X112329894Y-99450341D01*
X112245686Y-99324314D01*
X112230250Y-99314000D01*
X112245686Y-99303686D01*
X112257838Y-99285499D01*
X113487200Y-100514863D01*
X113487201Y-102472685D01*
X113393175Y-102432430D01*
X112275605Y-103550000D01*
X113393175Y-104667570D01*
X113479731Y-104630513D01*
X113476253Y-104648000D01*
X113519622Y-104866032D01*
X113564944Y-104933861D01*
X113643129Y-105050872D01*
X113689787Y-105082048D01*
X115551956Y-106944219D01*
X115459510Y-107167404D01*
X115459510Y-107716596D01*
X115669677Y-108223985D01*
X116058015Y-108612323D01*
X116565404Y-108822490D01*
X117114596Y-108822490D01*
X117468450Y-108675919D01*
X116758120Y-109386250D01*
X116552310Y-109301000D01*
X116441750Y-109301000D01*
X116283000Y-109459750D01*
X116283000Y-109985160D01*
X116254000Y-110130953D01*
X116254000Y-110130957D01*
X116239073Y-110206000D01*
X116254000Y-110281043D01*
X116254000Y-110311048D01*
X116283000Y-110456841D01*
X116283000Y-111012250D01*
X116441750Y-111171000D01*
X116552310Y-111171000D01*
X116785699Y-111074327D01*
X116875120Y-110984905D01*
X117016000Y-111012928D01*
X117313317Y-110953788D01*
X117387385Y-110904297D01*
X117434659Y-110894894D01*
X117560686Y-110810686D01*
X117644894Y-110684659D01*
X117650078Y-110658598D01*
X117668292Y-110631338D01*
X118732301Y-109567330D01*
X118732301Y-112382300D01*
X99961700Y-112382300D01*
X99961700Y-110550008D01*
X100310015Y-110898323D01*
X100817404Y-111108490D01*
X101366596Y-111108490D01*
X101369770Y-111107175D01*
X104718430Y-111107175D01*
X104841565Y-111394788D01*
X105523734Y-111654707D01*
X106253443Y-111633786D01*
X106830435Y-111394788D01*
X106953570Y-111107175D01*
X110978430Y-111107175D01*
X111101565Y-111394788D01*
X111783734Y-111654707D01*
X112513443Y-111633786D01*
X113090435Y-111394788D01*
X113213570Y-111107175D01*
X112096000Y-109989605D01*
X110978430Y-111107175D01*
X106953570Y-111107175D01*
X105836000Y-109989605D01*
X104718430Y-111107175D01*
X101369770Y-111107175D01*
X101873985Y-110898323D01*
X102262323Y-110509985D01*
X102472490Y-110002596D01*
X102472490Y-109497734D01*
X103991293Y-109497734D01*
X104012214Y-110227443D01*
X104251212Y-110804435D01*
X104538825Y-110927570D01*
X105656395Y-109810000D01*
X106015605Y-109810000D01*
X107133175Y-110927570D01*
X107420788Y-110804435D01*
X107680707Y-110122266D01*
X107662802Y-109497734D01*
X110251293Y-109497734D01*
X110272214Y-110227443D01*
X110511212Y-110804435D01*
X110798825Y-110927570D01*
X111916395Y-109810000D01*
X112275605Y-109810000D01*
X113393175Y-110927570D01*
X113680788Y-110804435D01*
X113788496Y-110521750D01*
X115251000Y-110521750D01*
X115251000Y-110662309D01*
X115347673Y-110895698D01*
X115526301Y-111074327D01*
X115759690Y-111171000D01*
X115870250Y-111171000D01*
X116029000Y-111012250D01*
X116029000Y-110363000D01*
X115409750Y-110363000D01*
X115251000Y-110521750D01*
X113788496Y-110521750D01*
X113940707Y-110122266D01*
X113931746Y-109809691D01*
X115251000Y-109809691D01*
X115251000Y-109950250D01*
X115409750Y-110109000D01*
X116029000Y-110109000D01*
X116029000Y-109459750D01*
X115870250Y-109301000D01*
X115759690Y-109301000D01*
X115526301Y-109397673D01*
X115347673Y-109576302D01*
X115251000Y-109809691D01*
X113931746Y-109809691D01*
X113919786Y-109392557D01*
X113680788Y-108815565D01*
X113393175Y-108692430D01*
X112275605Y-109810000D01*
X111916395Y-109810000D01*
X110798825Y-108692430D01*
X110511212Y-108815565D01*
X110251293Y-109497734D01*
X107662802Y-109497734D01*
X107659786Y-109392557D01*
X107420788Y-108815565D01*
X107133175Y-108692430D01*
X106015605Y-109810000D01*
X105656395Y-109810000D01*
X104538825Y-108692430D01*
X104251212Y-108815565D01*
X103991293Y-109497734D01*
X102472490Y-109497734D01*
X102472490Y-109453404D01*
X102337960Y-109128619D01*
X102446619Y-109019960D01*
X102446621Y-109019957D01*
X102611537Y-108855041D01*
X102649714Y-108829532D01*
X102750764Y-108678300D01*
X102777291Y-108544939D01*
X102783678Y-108512825D01*
X104718430Y-108512825D01*
X105836000Y-109630395D01*
X106953570Y-108512825D01*
X110978430Y-108512825D01*
X112096000Y-109630395D01*
X113213570Y-108512825D01*
X113090435Y-108225212D01*
X112408266Y-107965293D01*
X111678557Y-107986214D01*
X111101565Y-108225212D01*
X110978430Y-108512825D01*
X106953570Y-108512825D01*
X106830435Y-108225212D01*
X106148266Y-107965293D01*
X105418557Y-107986214D01*
X104841565Y-108225212D01*
X104718430Y-108512825D01*
X102783678Y-108512825D01*
X102786248Y-108499910D01*
X102777291Y-108454880D01*
X102777291Y-104879287D01*
X102809403Y-104847175D01*
X104718430Y-104847175D01*
X104841565Y-105134788D01*
X105523734Y-105394707D01*
X106253443Y-105373786D01*
X106830435Y-105134788D01*
X106953570Y-104847175D01*
X105836000Y-103729605D01*
X104718430Y-104847175D01*
X102809403Y-104847175D01*
X104003209Y-103653369D01*
X104012214Y-103967443D01*
X104251212Y-104544435D01*
X104538825Y-104667570D01*
X105656395Y-103550000D01*
X106015605Y-103550000D01*
X107133175Y-104667570D01*
X107420788Y-104544435D01*
X107680707Y-103862266D01*
X107659786Y-103132557D01*
X107420788Y-102555565D01*
X107133175Y-102432430D01*
X106015605Y-103550000D01*
X105656395Y-103550000D01*
X105642253Y-103535858D01*
X105821858Y-103356253D01*
X105836000Y-103370395D01*
X106953570Y-102252825D01*
X106830435Y-101965212D01*
X106148266Y-101705293D01*
X105418557Y-101726214D01*
X105333200Y-101761570D01*
X105333200Y-100083086D01*
X105424659Y-100064894D01*
X105550686Y-99980686D01*
X105634894Y-99854659D01*
X105647805Y-99789750D01*
X106941000Y-99789750D01*
X106941000Y-99832309D01*
X107037673Y-100065698D01*
X107216301Y-100244327D01*
X107449690Y-100341000D01*
X107690250Y-100341000D01*
X107849000Y-100182250D01*
X107849000Y-99631000D01*
X107099750Y-99631000D01*
X106941000Y-99789750D01*
X105647805Y-99789750D01*
X105664464Y-99706000D01*
X105664464Y-99406000D01*
X105644573Y-99306000D01*
X105664464Y-99206000D01*
X105664464Y-98948137D01*
X105758023Y-98885623D01*
X105783532Y-98847446D01*
X106209449Y-98421530D01*
X106210100Y-98421095D01*
X106210100Y-98695993D01*
G36*
X100310015Y-106326323D02*
X100817404Y-106536490D01*
X101366596Y-106536490D01*
X101862891Y-106330918D01*
X101862892Y-108310530D01*
X101800043Y-108373379D01*
X101800040Y-108373381D01*
X101691381Y-108482040D01*
X101366596Y-108347510D01*
X100817404Y-108347510D01*
X100310015Y-108557677D01*
X99961700Y-108905992D01*
X99961700Y-105978008D01*
X100310015Y-106326323D01*
X100310015Y-106326323D01*
G37*
X100310015Y-106326323D02*
X100817404Y-106536490D01*
X101366596Y-106536490D01*
X101862891Y-106330918D01*
X101862892Y-108310530D01*
X101800043Y-108373379D01*
X101800040Y-108373381D01*
X101691381Y-108482040D01*
X101366596Y-108347510D01*
X100817404Y-108347510D01*
X100310015Y-108557677D01*
X99961700Y-108905992D01*
X99961700Y-105978008D01*
X100310015Y-106326323D01*
G36*
X115459510Y-90952596D02*
X115669677Y-91459985D01*
X116058015Y-91848323D01*
X116298657Y-91948000D01*
X115302042Y-91948000D01*
X115226999Y-91933073D01*
X115151956Y-91948000D01*
X115151952Y-91948000D01*
X114929683Y-91992212D01*
X114929682Y-91992213D01*
X114929681Y-91992213D01*
X114849267Y-92045944D01*
X114677629Y-92160629D01*
X114635118Y-92224251D01*
X114238253Y-92621117D01*
X114174629Y-92663629D01*
X114006212Y-92915684D01*
X113962000Y-93137953D01*
X113962000Y-93137957D01*
X113947073Y-93213000D01*
X113962000Y-93288044D01*
X113962000Y-93671792D01*
X113919314Y-93700314D01*
X113835106Y-93826341D01*
X113805536Y-93975000D01*
X113805536Y-94415439D01*
X113655673Y-94565301D01*
X113559000Y-94798690D01*
X113559000Y-94964250D01*
X113717750Y-95123000D01*
X114597000Y-95123000D01*
X114597000Y-95103000D01*
X114851000Y-95103000D01*
X114851000Y-95123000D01*
X114871000Y-95123000D01*
X114871000Y-95377000D01*
X114851000Y-95377000D01*
X114851000Y-95397000D01*
X114597000Y-95397000D01*
X114597000Y-95377000D01*
X113717750Y-95377000D01*
X113559000Y-95535750D01*
X113559000Y-95701310D01*
X113655673Y-95934699D01*
X113805536Y-96084561D01*
X113805536Y-96525000D01*
X113835106Y-96673659D01*
X113919314Y-96799686D01*
X114045341Y-96883894D01*
X114194000Y-96913464D01*
X115254000Y-96913464D01*
X115402659Y-96883894D01*
X115528686Y-96799686D01*
X115612894Y-96673659D01*
X115627063Y-96602428D01*
X115736023Y-96529623D01*
X115761532Y-96491446D01*
X116005536Y-96247442D01*
X116005536Y-96525000D01*
X116035106Y-96673659D01*
X116119314Y-96799686D01*
X116245341Y-96883894D01*
X116365200Y-96907735D01*
X116365200Y-96931550D01*
X116283000Y-97013750D01*
X116283000Y-97663000D01*
X116303000Y-97663000D01*
X116303000Y-97917000D01*
X116283000Y-97917000D01*
X116283000Y-98566250D01*
X116441750Y-98725000D01*
X116552310Y-98725000D01*
X116785699Y-98628327D01*
X116935561Y-98478464D01*
X117286000Y-98478464D01*
X117434659Y-98448894D01*
X117560686Y-98364686D01*
X117610892Y-98289547D01*
X117610891Y-101695082D01*
X117114596Y-101489510D01*
X116565404Y-101489510D01*
X116058015Y-101699677D01*
X115669677Y-102088015D01*
X115459510Y-102595404D01*
X115459510Y-103144596D01*
X115669677Y-103651985D01*
X116058015Y-104040323D01*
X116565404Y-104250490D01*
X117114596Y-104250490D01*
X117610892Y-104044918D01*
X117610891Y-106267082D01*
X117114596Y-106061510D01*
X116565404Y-106061510D01*
X116342219Y-106153956D01*
X114604800Y-104416539D01*
X114604800Y-100338435D01*
X114615747Y-100283400D01*
X114572378Y-100065367D01*
X114480047Y-99927184D01*
X114480046Y-99927183D01*
X114448872Y-99880528D01*
X114402217Y-99849354D01*
X112760650Y-98207789D01*
X112729472Y-98161128D01*
X112601696Y-98075750D01*
X115251000Y-98075750D01*
X115251000Y-98216309D01*
X115347673Y-98449698D01*
X115526301Y-98628327D01*
X115759690Y-98725000D01*
X115870250Y-98725000D01*
X116029000Y-98566250D01*
X116029000Y-97917000D01*
X115409750Y-97917000D01*
X115251000Y-98075750D01*
X112601696Y-98075750D01*
X112544633Y-98037622D01*
X112381635Y-98005200D01*
X112339124Y-97996744D01*
X112329894Y-97950341D01*
X112245686Y-97824314D01*
X112119659Y-97740106D01*
X111971000Y-97710536D01*
X111041000Y-97710536D01*
X110892341Y-97740106D01*
X110766314Y-97824314D01*
X110682106Y-97950341D01*
X110672876Y-97996745D01*
X110630368Y-98005200D01*
X110630365Y-98005200D01*
X110467367Y-98037622D01*
X110282528Y-98161128D01*
X110251352Y-98207786D01*
X109961939Y-98497200D01*
X108942700Y-98497200D01*
X109011000Y-98332309D01*
X109011000Y-98289750D01*
X108852250Y-98131000D01*
X108650216Y-98131000D01*
X108524659Y-98047106D01*
X108376000Y-98017536D01*
X107829000Y-98017536D01*
X107829000Y-97981000D01*
X107849000Y-97981000D01*
X107849000Y-97429750D01*
X108103000Y-97429750D01*
X108103000Y-97981000D01*
X108852250Y-97981000D01*
X109011000Y-97822250D01*
X109011000Y-97779691D01*
X108914327Y-97546302D01*
X108735699Y-97367673D01*
X108726086Y-97363691D01*
X115251000Y-97363691D01*
X115251000Y-97504250D01*
X115409750Y-97663000D01*
X116029000Y-97663000D01*
X116029000Y-97013750D01*
X115870250Y-96855000D01*
X115759690Y-96855000D01*
X115526301Y-96951673D01*
X115347673Y-97130302D01*
X115251000Y-97363691D01*
X108726086Y-97363691D01*
X108502310Y-97271000D01*
X108261750Y-97271000D01*
X108103000Y-97429750D01*
X107849000Y-97429750D01*
X107690250Y-97271000D01*
X107449690Y-97271000D01*
X107216301Y-97367673D01*
X107037673Y-97546302D01*
X106941000Y-97779691D01*
X106941000Y-97822250D01*
X106946850Y-97828100D01*
X106790007Y-97828100D01*
X106523944Y-97938307D01*
X106381253Y-98080998D01*
X106384157Y-98066400D01*
X106375200Y-98021370D01*
X106375200Y-95217750D01*
X106941000Y-95217750D01*
X106941000Y-95260309D01*
X107037673Y-95493698D01*
X107216301Y-95672327D01*
X107449690Y-95769000D01*
X107690250Y-95769000D01*
X107849000Y-95610250D01*
X107849000Y-95059000D01*
X107099750Y-95059000D01*
X106941000Y-95217750D01*
X106375200Y-95217750D01*
X106375200Y-94518630D01*
X106384157Y-94473600D01*
X106379267Y-94449016D01*
X106523944Y-94593693D01*
X106790007Y-94703900D01*
X106942570Y-94703900D01*
X106941000Y-94707691D01*
X106941000Y-94750250D01*
X107099750Y-94909000D01*
X107301784Y-94909000D01*
X107427341Y-94992894D01*
X107576000Y-95022464D01*
X108123000Y-95022464D01*
X108123000Y-95059000D01*
X108103000Y-95059000D01*
X108103000Y-95610250D01*
X108261750Y-95769000D01*
X108502310Y-95769000D01*
X108735699Y-95672327D01*
X108914327Y-95493698D01*
X109011000Y-95260309D01*
X109011000Y-95217750D01*
X108904252Y-95111002D01*
X109011000Y-95111002D01*
X109011000Y-95042800D01*
X110207938Y-95042800D01*
X110251351Y-95086213D01*
X110282528Y-95132872D01*
X110452693Y-95246573D01*
X110467367Y-95256378D01*
X110672876Y-95297256D01*
X110682106Y-95343659D01*
X110766314Y-95469686D01*
X110892341Y-95553894D01*
X111041000Y-95583464D01*
X111971000Y-95583464D01*
X112119659Y-95553894D01*
X112245686Y-95469686D01*
X112329894Y-95343659D01*
X112359464Y-95195000D01*
X112359464Y-95179249D01*
X112428872Y-95132872D01*
X112460050Y-95086211D01*
X113132214Y-94414048D01*
X113178872Y-94382872D01*
X113302378Y-94198033D01*
X113334800Y-94035035D01*
X113334800Y-94035031D01*
X113345746Y-93980001D01*
X113334800Y-93924971D01*
X113334800Y-92941461D01*
X115418214Y-90858048D01*
X115459510Y-90830455D01*
X115459510Y-90952596D01*
X115459510Y-90952596D01*
G37*
X115459510Y-90952596D02*
X115669677Y-91459985D01*
X116058015Y-91848323D01*
X116298657Y-91948000D01*
X115302042Y-91948000D01*
X115226999Y-91933073D01*
X115151956Y-91948000D01*
X115151952Y-91948000D01*
X114929683Y-91992212D01*
X114929682Y-91992213D01*
X114929681Y-91992213D01*
X114849267Y-92045944D01*
X114677629Y-92160629D01*
X114635118Y-92224251D01*
X114238253Y-92621117D01*
X114174629Y-92663629D01*
X114006212Y-92915684D01*
X113962000Y-93137953D01*
X113962000Y-93137957D01*
X113947073Y-93213000D01*
X113962000Y-93288044D01*
X113962000Y-93671792D01*
X113919314Y-93700314D01*
X113835106Y-93826341D01*
X113805536Y-93975000D01*
X113805536Y-94415439D01*
X113655673Y-94565301D01*
X113559000Y-94798690D01*
X113559000Y-94964250D01*
X113717750Y-95123000D01*
X114597000Y-95123000D01*
X114597000Y-95103000D01*
X114851000Y-95103000D01*
X114851000Y-95123000D01*
X114871000Y-95123000D01*
X114871000Y-95377000D01*
X114851000Y-95377000D01*
X114851000Y-95397000D01*
X114597000Y-95397000D01*
X114597000Y-95377000D01*
X113717750Y-95377000D01*
X113559000Y-95535750D01*
X113559000Y-95701310D01*
X113655673Y-95934699D01*
X113805536Y-96084561D01*
X113805536Y-96525000D01*
X113835106Y-96673659D01*
X113919314Y-96799686D01*
X114045341Y-96883894D01*
X114194000Y-96913464D01*
X115254000Y-96913464D01*
X115402659Y-96883894D01*
X115528686Y-96799686D01*
X115612894Y-96673659D01*
X115627063Y-96602428D01*
X115736023Y-96529623D01*
X115761532Y-96491446D01*
X116005536Y-96247442D01*
X116005536Y-96525000D01*
X116035106Y-96673659D01*
X116119314Y-96799686D01*
X116245341Y-96883894D01*
X116365200Y-96907735D01*
X116365200Y-96931550D01*
X116283000Y-97013750D01*
X116283000Y-97663000D01*
X116303000Y-97663000D01*
X116303000Y-97917000D01*
X116283000Y-97917000D01*
X116283000Y-98566250D01*
X116441750Y-98725000D01*
X116552310Y-98725000D01*
X116785699Y-98628327D01*
X116935561Y-98478464D01*
X117286000Y-98478464D01*
X117434659Y-98448894D01*
X117560686Y-98364686D01*
X117610892Y-98289547D01*
X117610891Y-101695082D01*
X117114596Y-101489510D01*
X116565404Y-101489510D01*
X116058015Y-101699677D01*
X115669677Y-102088015D01*
X115459510Y-102595404D01*
X115459510Y-103144596D01*
X115669677Y-103651985D01*
X116058015Y-104040323D01*
X116565404Y-104250490D01*
X117114596Y-104250490D01*
X117610892Y-104044918D01*
X117610891Y-106267082D01*
X117114596Y-106061510D01*
X116565404Y-106061510D01*
X116342219Y-106153956D01*
X114604800Y-104416539D01*
X114604800Y-100338435D01*
X114615747Y-100283400D01*
X114572378Y-100065367D01*
X114480047Y-99927184D01*
X114480046Y-99927183D01*
X114448872Y-99880528D01*
X114402217Y-99849354D01*
X112760650Y-98207789D01*
X112729472Y-98161128D01*
X112601696Y-98075750D01*
X115251000Y-98075750D01*
X115251000Y-98216309D01*
X115347673Y-98449698D01*
X115526301Y-98628327D01*
X115759690Y-98725000D01*
X115870250Y-98725000D01*
X116029000Y-98566250D01*
X116029000Y-97917000D01*
X115409750Y-97917000D01*
X115251000Y-98075750D01*
X112601696Y-98075750D01*
X112544633Y-98037622D01*
X112381635Y-98005200D01*
X112339124Y-97996744D01*
X112329894Y-97950341D01*
X112245686Y-97824314D01*
X112119659Y-97740106D01*
X111971000Y-97710536D01*
X111041000Y-97710536D01*
X110892341Y-97740106D01*
X110766314Y-97824314D01*
X110682106Y-97950341D01*
X110672876Y-97996745D01*
X110630368Y-98005200D01*
X110630365Y-98005200D01*
X110467367Y-98037622D01*
X110282528Y-98161128D01*
X110251352Y-98207786D01*
X109961939Y-98497200D01*
X108942700Y-98497200D01*
X109011000Y-98332309D01*
X109011000Y-98289750D01*
X108852250Y-98131000D01*
X108650216Y-98131000D01*
X108524659Y-98047106D01*
X108376000Y-98017536D01*
X107829000Y-98017536D01*
X107829000Y-97981000D01*
X107849000Y-97981000D01*
X107849000Y-97429750D01*
X108103000Y-97429750D01*
X108103000Y-97981000D01*
X108852250Y-97981000D01*
X109011000Y-97822250D01*
X109011000Y-97779691D01*
X108914327Y-97546302D01*
X108735699Y-97367673D01*
X108726086Y-97363691D01*
X115251000Y-97363691D01*
X115251000Y-97504250D01*
X115409750Y-97663000D01*
X116029000Y-97663000D01*
X116029000Y-97013750D01*
X115870250Y-96855000D01*
X115759690Y-96855000D01*
X115526301Y-96951673D01*
X115347673Y-97130302D01*
X115251000Y-97363691D01*
X108726086Y-97363691D01*
X108502310Y-97271000D01*
X108261750Y-97271000D01*
X108103000Y-97429750D01*
X107849000Y-97429750D01*
X107690250Y-97271000D01*
X107449690Y-97271000D01*
X107216301Y-97367673D01*
X107037673Y-97546302D01*
X106941000Y-97779691D01*
X106941000Y-97822250D01*
X106946850Y-97828100D01*
X106790007Y-97828100D01*
X106523944Y-97938307D01*
X106381253Y-98080998D01*
X106384157Y-98066400D01*
X106375200Y-98021370D01*
X106375200Y-95217750D01*
X106941000Y-95217750D01*
X106941000Y-95260309D01*
X107037673Y-95493698D01*
X107216301Y-95672327D01*
X107449690Y-95769000D01*
X107690250Y-95769000D01*
X107849000Y-95610250D01*
X107849000Y-95059000D01*
X107099750Y-95059000D01*
X106941000Y-95217750D01*
X106375200Y-95217750D01*
X106375200Y-94518630D01*
X106384157Y-94473600D01*
X106379267Y-94449016D01*
X106523944Y-94593693D01*
X106790007Y-94703900D01*
X106942570Y-94703900D01*
X106941000Y-94707691D01*
X106941000Y-94750250D01*
X107099750Y-94909000D01*
X107301784Y-94909000D01*
X107427341Y-94992894D01*
X107576000Y-95022464D01*
X108123000Y-95022464D01*
X108123000Y-95059000D01*
X108103000Y-95059000D01*
X108103000Y-95610250D01*
X108261750Y-95769000D01*
X108502310Y-95769000D01*
X108735699Y-95672327D01*
X108914327Y-95493698D01*
X109011000Y-95260309D01*
X109011000Y-95217750D01*
X108904252Y-95111002D01*
X109011000Y-95111002D01*
X109011000Y-95042800D01*
X110207938Y-95042800D01*
X110251351Y-95086213D01*
X110282528Y-95132872D01*
X110452693Y-95246573D01*
X110467367Y-95256378D01*
X110672876Y-95297256D01*
X110682106Y-95343659D01*
X110766314Y-95469686D01*
X110892341Y-95553894D01*
X111041000Y-95583464D01*
X111971000Y-95583464D01*
X112119659Y-95553894D01*
X112245686Y-95469686D01*
X112329894Y-95343659D01*
X112359464Y-95195000D01*
X112359464Y-95179249D01*
X112428872Y-95132872D01*
X112460050Y-95086211D01*
X113132214Y-94414048D01*
X113178872Y-94382872D01*
X113302378Y-94198033D01*
X113334800Y-94035035D01*
X113334800Y-94035031D01*
X113345746Y-93980001D01*
X113334800Y-93924971D01*
X113334800Y-92941461D01*
X115418214Y-90858048D01*
X115459510Y-90830455D01*
X115459510Y-90952596D01*
G36*
X100310015Y-102008323D02*
X100817404Y-102218490D01*
X101366596Y-102218490D01*
X101862891Y-102012918D01*
X101862892Y-103738530D01*
X101800043Y-103801379D01*
X101800040Y-103801381D01*
X101691381Y-103910040D01*
X101366596Y-103775510D01*
X100817404Y-103775510D01*
X100310015Y-103985677D01*
X99961700Y-104333992D01*
X99961700Y-101660008D01*
X100310015Y-102008323D01*
X100310015Y-102008323D01*
G37*
X100310015Y-102008323D02*
X100817404Y-102218490D01*
X101366596Y-102218490D01*
X101862891Y-102012918D01*
X101862892Y-103738530D01*
X101800043Y-103801379D01*
X101800040Y-103801381D01*
X101691381Y-103910040D01*
X101366596Y-103775510D01*
X100817404Y-103775510D01*
X100310015Y-103985677D01*
X99961700Y-104333992D01*
X99961700Y-101660008D01*
X100310015Y-102008323D01*
G36*
X104201314Y-99980686D02*
X104327341Y-100064894D01*
X104418800Y-100083086D01*
X104418801Y-101944620D01*
X102777291Y-103586131D01*
X102777291Y-101248887D01*
X104138901Y-99887277D01*
X104201314Y-99980686D01*
X104201314Y-99980686D01*
G37*
X104201314Y-99980686D02*
X104327341Y-100064894D01*
X104418800Y-100083086D01*
X104418801Y-101944620D01*
X102777291Y-103586131D01*
X102777291Y-101248887D01*
X104138901Y-99887277D01*
X104201314Y-99980686D01*
G36*
X102616000Y-94691972D02*
X102606049Y-94742000D01*
X102616000Y-94792028D01*
X102616000Y-94792031D01*
X102645475Y-94940211D01*
X102757753Y-95108247D01*
X102800168Y-95136588D01*
X102983412Y-95319832D01*
X103011753Y-95362247D01*
X103054168Y-95390588D01*
X103109066Y-95427270D01*
X103179788Y-95474525D01*
X103327968Y-95504000D01*
X103327971Y-95504000D01*
X103377999Y-95513951D01*
X103428027Y-95504000D01*
X104007222Y-95504000D01*
X104057250Y-95513951D01*
X104107278Y-95504000D01*
X104107282Y-95504000D01*
X104167610Y-95492000D01*
X104326003Y-95492000D01*
X104327341Y-95492894D01*
X104476000Y-95522464D01*
X105276000Y-95522464D01*
X105424659Y-95492894D01*
X105460801Y-95468745D01*
X105460800Y-97571255D01*
X105424659Y-97547106D01*
X105276000Y-97517536D01*
X105033272Y-97517536D01*
X104931035Y-97497200D01*
X102859462Y-97497200D01*
X102380044Y-97017782D01*
X102472490Y-96794596D01*
X102472490Y-96245404D01*
X102262323Y-95738015D01*
X101873985Y-95349677D01*
X101854000Y-95341399D01*
X101854000Y-93521630D01*
X102078167Y-93297464D01*
X102319000Y-93297464D01*
X102467659Y-93267894D01*
X102593686Y-93183686D01*
X102616000Y-93150290D01*
X102616000Y-94691972D01*
X102616000Y-94691972D01*
G37*
X102616000Y-94691972D02*
X102606049Y-94742000D01*
X102616000Y-94792028D01*
X102616000Y-94792031D01*
X102645475Y-94940211D01*
X102757753Y-95108247D01*
X102800168Y-95136588D01*
X102983412Y-95319832D01*
X103011753Y-95362247D01*
X103054168Y-95390588D01*
X103109066Y-95427270D01*
X103179788Y-95474525D01*
X103327968Y-95504000D01*
X103327971Y-95504000D01*
X103377999Y-95513951D01*
X103428027Y-95504000D01*
X104007222Y-95504000D01*
X104057250Y-95513951D01*
X104107278Y-95504000D01*
X104107282Y-95504000D01*
X104167610Y-95492000D01*
X104326003Y-95492000D01*
X104327341Y-95492894D01*
X104476000Y-95522464D01*
X105276000Y-95522464D01*
X105424659Y-95492894D01*
X105460801Y-95468745D01*
X105460800Y-97571255D01*
X105424659Y-97547106D01*
X105276000Y-97517536D01*
X105033272Y-97517536D01*
X104931035Y-97497200D01*
X102859462Y-97497200D01*
X102380044Y-97017782D01*
X102472490Y-96794596D01*
X102472490Y-96245404D01*
X102262323Y-95738015D01*
X101873985Y-95349677D01*
X101854000Y-95341399D01*
X101854000Y-93521630D01*
X102078167Y-93297464D01*
X102319000Y-93297464D01*
X102467659Y-93267894D01*
X102593686Y-93183686D01*
X102616000Y-93150290D01*
X102616000Y-94691972D01*
G36*
X100310015Y-89308323D02*
X100817404Y-89518490D01*
X101366596Y-89518490D01*
X101640581Y-89405002D01*
X102109665Y-89874085D01*
X101981000Y-90002750D01*
X101981000Y-90817000D01*
X102001000Y-90817000D01*
X102001000Y-91071000D01*
X101981000Y-91071000D01*
X101981000Y-91091000D01*
X101727000Y-91091000D01*
X101727000Y-91071000D01*
X100912750Y-91071000D01*
X100754000Y-91229750D01*
X100754000Y-91535309D01*
X100850673Y-91768698D01*
X101010563Y-91928589D01*
X101000536Y-91979000D01*
X101000536Y-92219833D01*
X100606251Y-92614119D01*
X100542630Y-92656629D01*
X100500119Y-92720251D01*
X100500118Y-92720252D01*
X100449724Y-92795673D01*
X100374213Y-92908683D01*
X100330000Y-93130952D01*
X100330000Y-93130957D01*
X100315073Y-93206000D01*
X100330000Y-93281043D01*
X100330000Y-94055047D01*
X100330001Y-94055052D01*
X100330000Y-95341399D01*
X100310015Y-95349677D01*
X99961700Y-95697992D01*
X99961700Y-90352691D01*
X100754000Y-90352691D01*
X100754000Y-90658250D01*
X100912750Y-90817000D01*
X101727000Y-90817000D01*
X101727000Y-90002750D01*
X101568250Y-89844000D01*
X101262690Y-89844000D01*
X101029301Y-89940673D01*
X100850673Y-90119302D01*
X100754000Y-90352691D01*
X99961700Y-90352691D01*
X99961700Y-88960008D01*
X100310015Y-89308323D01*
X100310015Y-89308323D01*
G37*
X100310015Y-89308323D02*
X100817404Y-89518490D01*
X101366596Y-89518490D01*
X101640581Y-89405002D01*
X102109665Y-89874085D01*
X101981000Y-90002750D01*
X101981000Y-90817000D01*
X102001000Y-90817000D01*
X102001000Y-91071000D01*
X101981000Y-91071000D01*
X101981000Y-91091000D01*
X101727000Y-91091000D01*
X101727000Y-91071000D01*
X100912750Y-91071000D01*
X100754000Y-91229750D01*
X100754000Y-91535309D01*
X100850673Y-91768698D01*
X101010563Y-91928589D01*
X101000536Y-91979000D01*
X101000536Y-92219833D01*
X100606251Y-92614119D01*
X100542630Y-92656629D01*
X100500119Y-92720251D01*
X100500118Y-92720252D01*
X100449724Y-92795673D01*
X100374213Y-92908683D01*
X100330000Y-93130952D01*
X100330000Y-93130957D01*
X100315073Y-93206000D01*
X100330000Y-93281043D01*
X100330000Y-94055047D01*
X100330001Y-94055052D01*
X100330000Y-95341399D01*
X100310015Y-95349677D01*
X99961700Y-95697992D01*
X99961700Y-90352691D01*
X100754000Y-90352691D01*
X100754000Y-90658250D01*
X100912750Y-90817000D01*
X101727000Y-90817000D01*
X101727000Y-90002750D01*
X101568250Y-89844000D01*
X101262690Y-89844000D01*
X101029301Y-89940673D01*
X100850673Y-90119302D01*
X100754000Y-90352691D01*
X99961700Y-90352691D01*
X99961700Y-88960008D01*
X100310015Y-89308323D01*
G36*
X114438302Y-80753673D02*
X114259673Y-80932301D01*
X114163000Y-81165690D01*
X114163000Y-81756250D01*
X114321750Y-81915000D01*
X115321000Y-81915000D01*
X115321000Y-81895000D01*
X115575000Y-81895000D01*
X115575000Y-81915000D01*
X115595000Y-81915000D01*
X115595000Y-82169000D01*
X115575000Y-82169000D01*
X115575000Y-83268250D01*
X115733750Y-83427000D01*
X116224309Y-83427000D01*
X116457698Y-83330327D01*
X116586001Y-83202025D01*
X116586001Y-83478952D01*
X116571073Y-83554000D01*
X116586001Y-83629048D01*
X116630213Y-83851317D01*
X116798630Y-84103371D01*
X116862251Y-84145881D01*
X117856000Y-85139631D01*
X117856000Y-85169692D01*
X117621985Y-84935677D01*
X117114596Y-84725510D01*
X116565404Y-84725510D01*
X116058015Y-84935677D01*
X115669677Y-85324015D01*
X115459510Y-85831404D01*
X115459510Y-86380596D01*
X115551956Y-86603782D01*
X114705789Y-87449950D01*
X114659128Y-87481128D01*
X114535623Y-87665967D01*
X114535622Y-87665968D01*
X114492253Y-87884000D01*
X114503200Y-87939035D01*
X114503201Y-90192537D01*
X112419789Y-92275950D01*
X112373128Y-92307128D01*
X112252132Y-92488212D01*
X112249622Y-92491968D01*
X112248973Y-92495233D01*
X112245686Y-92490314D01*
X112119659Y-92406106D01*
X112073255Y-92396876D01*
X112064800Y-92354369D01*
X112064800Y-92354365D01*
X112032378Y-92191367D01*
X111908872Y-92006528D01*
X111862214Y-91975352D01*
X110674037Y-90787175D01*
X111232430Y-90787175D01*
X111355565Y-91074788D01*
X112037734Y-91334707D01*
X112767443Y-91313786D01*
X113344435Y-91074788D01*
X113467570Y-90787175D01*
X112350000Y-89669605D01*
X111232430Y-90787175D01*
X110674037Y-90787175D01*
X109778800Y-89891939D01*
X109778800Y-89177734D01*
X110505293Y-89177734D01*
X110526214Y-89907443D01*
X110765212Y-90484435D01*
X111052825Y-90607570D01*
X112170395Y-89490000D01*
X112529605Y-89490000D01*
X113647175Y-90607570D01*
X113934788Y-90484435D01*
X114194707Y-89802266D01*
X114173786Y-89072557D01*
X113934788Y-88495565D01*
X113647175Y-88372430D01*
X112529605Y-89490000D01*
X112170395Y-89490000D01*
X111052825Y-88372430D01*
X110765212Y-88495565D01*
X110505293Y-89177734D01*
X109778800Y-89177734D01*
X109778800Y-88192825D01*
X111232430Y-88192825D01*
X112350000Y-89310395D01*
X113467570Y-88192825D01*
X113344435Y-87905212D01*
X112662266Y-87645293D01*
X111932557Y-87666214D01*
X111355565Y-87905212D01*
X111232430Y-88192825D01*
X109778800Y-88192825D01*
X109778800Y-87433902D01*
X109903144Y-87382397D01*
X110242397Y-87043144D01*
X110426000Y-86599888D01*
X110426000Y-86120112D01*
X110242397Y-85676856D01*
X109903144Y-85337603D01*
X109459888Y-85154000D01*
X108980112Y-85154000D01*
X108536856Y-85337603D01*
X108197603Y-85676856D01*
X108014000Y-86120112D01*
X108014000Y-86599888D01*
X108197603Y-87043144D01*
X108536856Y-87382397D01*
X108661200Y-87433902D01*
X108661200Y-87581760D01*
X108661201Y-87581765D01*
X108661200Y-90068365D01*
X108650253Y-90123400D01*
X108661200Y-90178434D01*
X108693622Y-90341432D01*
X108817128Y-90526272D01*
X108863789Y-90557450D01*
X110784500Y-92478162D01*
X110766314Y-92490314D01*
X110682106Y-92616341D01*
X110652536Y-92765000D01*
X110652536Y-93695000D01*
X110682106Y-93843659D01*
X110766314Y-93969686D01*
X110781750Y-93980000D01*
X110766314Y-93990314D01*
X110747809Y-94018009D01*
X110657433Y-93957622D01*
X110494435Y-93925200D01*
X110439400Y-93914253D01*
X110384365Y-93925200D01*
X108942700Y-93925200D01*
X109011000Y-93760309D01*
X109011000Y-93717750D01*
X108852250Y-93559000D01*
X108650216Y-93559000D01*
X108524659Y-93475106D01*
X108376000Y-93445536D01*
X107829000Y-93445536D01*
X107829000Y-93409000D01*
X107849000Y-93409000D01*
X107849000Y-92857750D01*
X108103000Y-92857750D01*
X108103000Y-93409000D01*
X108852250Y-93409000D01*
X109011000Y-93250250D01*
X109011000Y-93207691D01*
X108914327Y-92974302D01*
X108735699Y-92795673D01*
X108502310Y-92699000D01*
X108261750Y-92699000D01*
X108103000Y-92857750D01*
X107849000Y-92857750D01*
X107690250Y-92699000D01*
X107449690Y-92699000D01*
X107216301Y-92795673D01*
X107037673Y-92974302D01*
X106941000Y-93207691D01*
X106941000Y-93250250D01*
X106946850Y-93256100D01*
X106790007Y-93256100D01*
X106523944Y-93366307D01*
X106320307Y-93569944D01*
X106210100Y-93836007D01*
X106210100Y-94118905D01*
X106209448Y-94118470D01*
X105783532Y-93692554D01*
X105758023Y-93654377D01*
X105664464Y-93591863D01*
X105664464Y-93334000D01*
X105664000Y-93331667D01*
X105664000Y-92380952D01*
X105619788Y-92158683D01*
X105451371Y-91906629D01*
X105199316Y-91738212D01*
X104902000Y-91679072D01*
X104604683Y-91738212D01*
X104352629Y-91906629D01*
X104184212Y-92158684D01*
X104140000Y-92380952D01*
X104140000Y-90787175D01*
X104972430Y-90787175D01*
X105095565Y-91074788D01*
X105777734Y-91334707D01*
X106507443Y-91313786D01*
X107084435Y-91074788D01*
X107207570Y-90787175D01*
X106090000Y-89669605D01*
X104972430Y-90787175D01*
X104140000Y-90787175D01*
X104140000Y-89177734D01*
X104245293Y-89177734D01*
X104266214Y-89907443D01*
X104505212Y-90484435D01*
X104792825Y-90607570D01*
X105910395Y-89490000D01*
X106269605Y-89490000D01*
X107387175Y-90607570D01*
X107674788Y-90484435D01*
X107934707Y-89802266D01*
X107913786Y-89072557D01*
X107674788Y-88495565D01*
X107387175Y-88372430D01*
X106269605Y-89490000D01*
X105910395Y-89490000D01*
X104792825Y-88372430D01*
X104505212Y-88495565D01*
X104245293Y-89177734D01*
X104140000Y-89177734D01*
X104140000Y-88192825D01*
X104972430Y-88192825D01*
X106090000Y-89310395D01*
X107207570Y-88192825D01*
X107084435Y-87905212D01*
X106402266Y-87645293D01*
X105672557Y-87666214D01*
X105095565Y-87905212D01*
X104972430Y-88192825D01*
X104140000Y-88192825D01*
X104140000Y-86156027D01*
X104149951Y-86105999D01*
X104140000Y-86055971D01*
X104140000Y-86055968D01*
X104110525Y-85907788D01*
X103998247Y-85739753D01*
X103955832Y-85711412D01*
X102771595Y-84527175D01*
X104972430Y-84527175D01*
X105095565Y-84814788D01*
X105777734Y-85074707D01*
X106507443Y-85053786D01*
X107084435Y-84814788D01*
X107207570Y-84527175D01*
X111232430Y-84527175D01*
X111355565Y-84814788D01*
X112037734Y-85074707D01*
X112767443Y-85053786D01*
X113344435Y-84814788D01*
X113467570Y-84527175D01*
X112350000Y-83409605D01*
X111232430Y-84527175D01*
X107207570Y-84527175D01*
X106090000Y-83409605D01*
X104972430Y-84527175D01*
X102771595Y-84527175D01*
X102359002Y-84114582D01*
X102472490Y-83840596D01*
X102472490Y-83291404D01*
X102317712Y-82917734D01*
X104245293Y-82917734D01*
X104266214Y-83647443D01*
X104505212Y-84224435D01*
X104792825Y-84347570D01*
X105910395Y-83230000D01*
X106269605Y-83230000D01*
X107387175Y-84347570D01*
X107674788Y-84224435D01*
X107934707Y-83542266D01*
X107916802Y-82917734D01*
X110505293Y-82917734D01*
X110526214Y-83647443D01*
X110765212Y-84224435D01*
X111052825Y-84347570D01*
X112170395Y-83230000D01*
X112529605Y-83230000D01*
X113647175Y-84347570D01*
X113934788Y-84224435D01*
X114194707Y-83542266D01*
X114177846Y-82954150D01*
X114259673Y-83151699D01*
X114438302Y-83330327D01*
X114671691Y-83427000D01*
X115162250Y-83427000D01*
X115321000Y-83268250D01*
X115321000Y-82169000D01*
X114321750Y-82169000D01*
X114163000Y-82327750D01*
X114163000Y-82786517D01*
X113934788Y-82235565D01*
X113647175Y-82112430D01*
X112529605Y-83230000D01*
X112170395Y-83230000D01*
X111052825Y-82112430D01*
X110765212Y-82235565D01*
X110505293Y-82917734D01*
X107916802Y-82917734D01*
X107913786Y-82812557D01*
X107674788Y-82235565D01*
X107387175Y-82112430D01*
X106269605Y-83230000D01*
X105910395Y-83230000D01*
X104792825Y-82112430D01*
X104505212Y-82235565D01*
X104245293Y-82917734D01*
X102317712Y-82917734D01*
X102262323Y-82784015D01*
X101873985Y-82395677D01*
X101366596Y-82185510D01*
X100817404Y-82185510D01*
X100310015Y-82395677D01*
X99961700Y-82743992D01*
X99961700Y-81932825D01*
X104972430Y-81932825D01*
X106090000Y-83050395D01*
X107207570Y-81932825D01*
X111232430Y-81932825D01*
X112350000Y-83050395D01*
X113467570Y-81932825D01*
X113344435Y-81645212D01*
X112662266Y-81385293D01*
X111932557Y-81406214D01*
X111355565Y-81645212D01*
X111232430Y-81932825D01*
X107207570Y-81932825D01*
X107084435Y-81645212D01*
X106402266Y-81385293D01*
X105672557Y-81406214D01*
X105095565Y-81645212D01*
X104972430Y-81932825D01*
X99961700Y-81932825D01*
X99961700Y-80657700D01*
X114670001Y-80657700D01*
X114438302Y-80753673D01*
X114438302Y-80753673D01*
G37*
X114438302Y-80753673D02*
X114259673Y-80932301D01*
X114163000Y-81165690D01*
X114163000Y-81756250D01*
X114321750Y-81915000D01*
X115321000Y-81915000D01*
X115321000Y-81895000D01*
X115575000Y-81895000D01*
X115575000Y-81915000D01*
X115595000Y-81915000D01*
X115595000Y-82169000D01*
X115575000Y-82169000D01*
X115575000Y-83268250D01*
X115733750Y-83427000D01*
X116224309Y-83427000D01*
X116457698Y-83330327D01*
X116586001Y-83202025D01*
X116586001Y-83478952D01*
X116571073Y-83554000D01*
X116586001Y-83629048D01*
X116630213Y-83851317D01*
X116798630Y-84103371D01*
X116862251Y-84145881D01*
X117856000Y-85139631D01*
X117856000Y-85169692D01*
X117621985Y-84935677D01*
X117114596Y-84725510D01*
X116565404Y-84725510D01*
X116058015Y-84935677D01*
X115669677Y-85324015D01*
X115459510Y-85831404D01*
X115459510Y-86380596D01*
X115551956Y-86603782D01*
X114705789Y-87449950D01*
X114659128Y-87481128D01*
X114535623Y-87665967D01*
X114535622Y-87665968D01*
X114492253Y-87884000D01*
X114503200Y-87939035D01*
X114503201Y-90192537D01*
X112419789Y-92275950D01*
X112373128Y-92307128D01*
X112252132Y-92488212D01*
X112249622Y-92491968D01*
X112248973Y-92495233D01*
X112245686Y-92490314D01*
X112119659Y-92406106D01*
X112073255Y-92396876D01*
X112064800Y-92354369D01*
X112064800Y-92354365D01*
X112032378Y-92191367D01*
X111908872Y-92006528D01*
X111862214Y-91975352D01*
X110674037Y-90787175D01*
X111232430Y-90787175D01*
X111355565Y-91074788D01*
X112037734Y-91334707D01*
X112767443Y-91313786D01*
X113344435Y-91074788D01*
X113467570Y-90787175D01*
X112350000Y-89669605D01*
X111232430Y-90787175D01*
X110674037Y-90787175D01*
X109778800Y-89891939D01*
X109778800Y-89177734D01*
X110505293Y-89177734D01*
X110526214Y-89907443D01*
X110765212Y-90484435D01*
X111052825Y-90607570D01*
X112170395Y-89490000D01*
X112529605Y-89490000D01*
X113647175Y-90607570D01*
X113934788Y-90484435D01*
X114194707Y-89802266D01*
X114173786Y-89072557D01*
X113934788Y-88495565D01*
X113647175Y-88372430D01*
X112529605Y-89490000D01*
X112170395Y-89490000D01*
X111052825Y-88372430D01*
X110765212Y-88495565D01*
X110505293Y-89177734D01*
X109778800Y-89177734D01*
X109778800Y-88192825D01*
X111232430Y-88192825D01*
X112350000Y-89310395D01*
X113467570Y-88192825D01*
X113344435Y-87905212D01*
X112662266Y-87645293D01*
X111932557Y-87666214D01*
X111355565Y-87905212D01*
X111232430Y-88192825D01*
X109778800Y-88192825D01*
X109778800Y-87433902D01*
X109903144Y-87382397D01*
X110242397Y-87043144D01*
X110426000Y-86599888D01*
X110426000Y-86120112D01*
X110242397Y-85676856D01*
X109903144Y-85337603D01*
X109459888Y-85154000D01*
X108980112Y-85154000D01*
X108536856Y-85337603D01*
X108197603Y-85676856D01*
X108014000Y-86120112D01*
X108014000Y-86599888D01*
X108197603Y-87043144D01*
X108536856Y-87382397D01*
X108661200Y-87433902D01*
X108661200Y-87581760D01*
X108661201Y-87581765D01*
X108661200Y-90068365D01*
X108650253Y-90123400D01*
X108661200Y-90178434D01*
X108693622Y-90341432D01*
X108817128Y-90526272D01*
X108863789Y-90557450D01*
X110784500Y-92478162D01*
X110766314Y-92490314D01*
X110682106Y-92616341D01*
X110652536Y-92765000D01*
X110652536Y-93695000D01*
X110682106Y-93843659D01*
X110766314Y-93969686D01*
X110781750Y-93980000D01*
X110766314Y-93990314D01*
X110747809Y-94018009D01*
X110657433Y-93957622D01*
X110494435Y-93925200D01*
X110439400Y-93914253D01*
X110384365Y-93925200D01*
X108942700Y-93925200D01*
X109011000Y-93760309D01*
X109011000Y-93717750D01*
X108852250Y-93559000D01*
X108650216Y-93559000D01*
X108524659Y-93475106D01*
X108376000Y-93445536D01*
X107829000Y-93445536D01*
X107829000Y-93409000D01*
X107849000Y-93409000D01*
X107849000Y-92857750D01*
X108103000Y-92857750D01*
X108103000Y-93409000D01*
X108852250Y-93409000D01*
X109011000Y-93250250D01*
X109011000Y-93207691D01*
X108914327Y-92974302D01*
X108735699Y-92795673D01*
X108502310Y-92699000D01*
X108261750Y-92699000D01*
X108103000Y-92857750D01*
X107849000Y-92857750D01*
X107690250Y-92699000D01*
X107449690Y-92699000D01*
X107216301Y-92795673D01*
X107037673Y-92974302D01*
X106941000Y-93207691D01*
X106941000Y-93250250D01*
X106946850Y-93256100D01*
X106790007Y-93256100D01*
X106523944Y-93366307D01*
X106320307Y-93569944D01*
X106210100Y-93836007D01*
X106210100Y-94118905D01*
X106209448Y-94118470D01*
X105783532Y-93692554D01*
X105758023Y-93654377D01*
X105664464Y-93591863D01*
X105664464Y-93334000D01*
X105664000Y-93331667D01*
X105664000Y-92380952D01*
X105619788Y-92158683D01*
X105451371Y-91906629D01*
X105199316Y-91738212D01*
X104902000Y-91679072D01*
X104604683Y-91738212D01*
X104352629Y-91906629D01*
X104184212Y-92158684D01*
X104140000Y-92380952D01*
X104140000Y-90787175D01*
X104972430Y-90787175D01*
X105095565Y-91074788D01*
X105777734Y-91334707D01*
X106507443Y-91313786D01*
X107084435Y-91074788D01*
X107207570Y-90787175D01*
X106090000Y-89669605D01*
X104972430Y-90787175D01*
X104140000Y-90787175D01*
X104140000Y-89177734D01*
X104245293Y-89177734D01*
X104266214Y-89907443D01*
X104505212Y-90484435D01*
X104792825Y-90607570D01*
X105910395Y-89490000D01*
X106269605Y-89490000D01*
X107387175Y-90607570D01*
X107674788Y-90484435D01*
X107934707Y-89802266D01*
X107913786Y-89072557D01*
X107674788Y-88495565D01*
X107387175Y-88372430D01*
X106269605Y-89490000D01*
X105910395Y-89490000D01*
X104792825Y-88372430D01*
X104505212Y-88495565D01*
X104245293Y-89177734D01*
X104140000Y-89177734D01*
X104140000Y-88192825D01*
X104972430Y-88192825D01*
X106090000Y-89310395D01*
X107207570Y-88192825D01*
X107084435Y-87905212D01*
X106402266Y-87645293D01*
X105672557Y-87666214D01*
X105095565Y-87905212D01*
X104972430Y-88192825D01*
X104140000Y-88192825D01*
X104140000Y-86156027D01*
X104149951Y-86105999D01*
X104140000Y-86055971D01*
X104140000Y-86055968D01*
X104110525Y-85907788D01*
X103998247Y-85739753D01*
X103955832Y-85711412D01*
X102771595Y-84527175D01*
X104972430Y-84527175D01*
X105095565Y-84814788D01*
X105777734Y-85074707D01*
X106507443Y-85053786D01*
X107084435Y-84814788D01*
X107207570Y-84527175D01*
X111232430Y-84527175D01*
X111355565Y-84814788D01*
X112037734Y-85074707D01*
X112767443Y-85053786D01*
X113344435Y-84814788D01*
X113467570Y-84527175D01*
X112350000Y-83409605D01*
X111232430Y-84527175D01*
X107207570Y-84527175D01*
X106090000Y-83409605D01*
X104972430Y-84527175D01*
X102771595Y-84527175D01*
X102359002Y-84114582D01*
X102472490Y-83840596D01*
X102472490Y-83291404D01*
X102317712Y-82917734D01*
X104245293Y-82917734D01*
X104266214Y-83647443D01*
X104505212Y-84224435D01*
X104792825Y-84347570D01*
X105910395Y-83230000D01*
X106269605Y-83230000D01*
X107387175Y-84347570D01*
X107674788Y-84224435D01*
X107934707Y-83542266D01*
X107916802Y-82917734D01*
X110505293Y-82917734D01*
X110526214Y-83647443D01*
X110765212Y-84224435D01*
X111052825Y-84347570D01*
X112170395Y-83230000D01*
X112529605Y-83230000D01*
X113647175Y-84347570D01*
X113934788Y-84224435D01*
X114194707Y-83542266D01*
X114177846Y-82954150D01*
X114259673Y-83151699D01*
X114438302Y-83330327D01*
X114671691Y-83427000D01*
X115162250Y-83427000D01*
X115321000Y-83268250D01*
X115321000Y-82169000D01*
X114321750Y-82169000D01*
X114163000Y-82327750D01*
X114163000Y-82786517D01*
X113934788Y-82235565D01*
X113647175Y-82112430D01*
X112529605Y-83230000D01*
X112170395Y-83230000D01*
X111052825Y-82112430D01*
X110765212Y-82235565D01*
X110505293Y-82917734D01*
X107916802Y-82917734D01*
X107913786Y-82812557D01*
X107674788Y-82235565D01*
X107387175Y-82112430D01*
X106269605Y-83230000D01*
X105910395Y-83230000D01*
X104792825Y-82112430D01*
X104505212Y-82235565D01*
X104245293Y-82917734D01*
X102317712Y-82917734D01*
X102262323Y-82784015D01*
X101873985Y-82395677D01*
X101366596Y-82185510D01*
X100817404Y-82185510D01*
X100310015Y-82395677D01*
X99961700Y-82743992D01*
X99961700Y-81932825D01*
X104972430Y-81932825D01*
X106090000Y-83050395D01*
X107207570Y-81932825D01*
X111232430Y-81932825D01*
X112350000Y-83050395D01*
X113467570Y-81932825D01*
X113344435Y-81645212D01*
X112662266Y-81385293D01*
X111932557Y-81406214D01*
X111355565Y-81645212D01*
X111232430Y-81932825D01*
X107207570Y-81932825D01*
X107084435Y-81645212D01*
X106402266Y-81385293D01*
X105672557Y-81406214D01*
X105095565Y-81645212D01*
X104972430Y-81932825D01*
X99961700Y-81932825D01*
X99961700Y-80657700D01*
X114670001Y-80657700D01*
X114438302Y-80753673D01*
G36*
X117856001Y-89741693D02*
X117621985Y-89507677D01*
X117114596Y-89297510D01*
X116565404Y-89297510D01*
X116058015Y-89507677D01*
X115669677Y-89896015D01*
X115620800Y-90014015D01*
X115620800Y-88115461D01*
X116342218Y-87394044D01*
X116565404Y-87486490D01*
X117114596Y-87486490D01*
X117621985Y-87276323D01*
X117856000Y-87042308D01*
X117856001Y-89741693D01*
X117856001Y-89741693D01*
G37*
X117856001Y-89741693D02*
X117621985Y-89507677D01*
X117114596Y-89297510D01*
X116565404Y-89297510D01*
X116058015Y-89507677D01*
X115669677Y-89896015D01*
X115620800Y-90014015D01*
X115620800Y-88115461D01*
X116342218Y-87394044D01*
X116565404Y-87486490D01*
X117114596Y-87486490D01*
X117621985Y-87276323D01*
X117856000Y-87042308D01*
X117856001Y-89741693D01*
G36*
X100310015Y-84736323D02*
X100817404Y-84946490D01*
X101366596Y-84946490D01*
X101640582Y-84833002D01*
X103124001Y-86316421D01*
X103124001Y-89451580D01*
X102359002Y-88686581D01*
X102472490Y-88412596D01*
X102472490Y-87863404D01*
X102262323Y-87356015D01*
X101873985Y-86967677D01*
X101366596Y-86757510D01*
X100817404Y-86757510D01*
X100310015Y-86967677D01*
X99961700Y-87315992D01*
X99961700Y-84388008D01*
X100310015Y-84736323D01*
X100310015Y-84736323D01*
G37*
X100310015Y-84736323D02*
X100817404Y-84946490D01*
X101366596Y-84946490D01*
X101640582Y-84833002D01*
X103124001Y-86316421D01*
X103124001Y-89451580D01*
X102359002Y-88686581D01*
X102472490Y-88412596D01*
X102472490Y-87863404D01*
X102262323Y-87356015D01*
X101873985Y-86967677D01*
X101366596Y-86757510D01*
X100817404Y-86757510D01*
X100310015Y-86967677D01*
X99961700Y-87315992D01*
X99961700Y-84388008D01*
X100310015Y-84736323D01*
G04 #@! TD*
M02*
