M48
;DRILL file {KiCad 5.0.2-bee76a0~70~ubuntu16.04.1} date Thu 24 Jan 2019 09:23:16 PM EST
;FORMAT={-:-/ absolute / inch / decimal}
FMAT,2
INCH,TZ
T1C0.0130
T2C0.0315
T3C0.0433
T4C0.0630
%
G90
G05
T1
X3.95Y-3.58
X3.98Y-3.7
X4.Y-3.37
X4.Y-4.04
X4.Y-4.07
X4.Y-4.21
X4.Y-4.25
X4.03Y-3.73
X4.04Y-3.4
X4.05Y-3.45
X4.05Y-3.5
X4.06Y-3.31
X4.06Y-3.77
X4.06Y-3.99
X4.06Y-4.02
X4.06Y-4.05
X4.07Y-4.13
X4.07Y-4.18
X4.07Y-4.23
X4.07Y-4.28
X4.09Y-3.34
X4.09Y-3.96
X4.09Y-4.02
X4.1Y-3.99
X4.12Y-3.38
X4.12Y-3.44
X4.13Y-3.64
X4.14Y-3.78
X4.14Y-3.82
X4.21Y-3.7
X4.21Y-3.88
X4.26Y-3.45
X4.26Y-3.49
X4.26Y-3.53
X4.26Y-4.02
X4.26Y-4.07
X4.26Y-4.12
X4.27Y-3.57
X4.27Y-3.97
X4.3Y-3.6
X4.3Y-3.68
X4.31Y-3.94
X4.33Y-3.63
X4.33Y-4.01
X4.33Y-4.05
X4.33Y-4.09
X4.33Y-4.14
X4.34Y-3.48
X4.34Y-3.53
X4.34Y-3.68
X4.41Y-3.61
X4.44Y-3.95
X4.45Y-3.98
X4.46Y-3.75
X4.46Y-4.02
X4.47Y-3.69
X4.47Y-4.15
X4.49Y-3.64
X4.5Y-3.45
X4.5Y-3.5
X4.5Y-3.55
X4.5Y-4.18
X4.52Y-3.61
X4.52Y-3.93
X4.53Y-3.42
X4.53Y-3.85
X4.53Y-3.98
X4.53Y-4.03
X4.53Y-4.08
X4.53Y-4.22
X4.54Y-4.12
X4.56Y-3.51
X4.57Y-3.47
X4.57Y-4.16
T2
X4.6Y-3.39
X3.98Y-3.8
X4.6Y-3.57
X3.98Y-4.14
X4.6Y-4.05
X3.98Y-4.32
X3.98Y-3.29
X3.98Y-3.97
X3.98Y-3.47
X4.6Y-4.23
T3
X4.29Y-4.2
X4.3Y-3.4
T4
X4.1668Y-4.0768
X4.1668Y-4.3232
X4.4132Y-4.0768
X4.4132Y-4.3232
X4.1768Y-3.2768
X4.1768Y-3.5232
X4.4232Y-3.2768
X4.4232Y-3.5232
T0
M30
